<svg xmlns="http://www.w3.org/2000/svg" width="15" height="15" fill="#268BD2" viewBox="0 0 40 40"><path d="M30 35H5V12.5h25V20h2.5V7.5C32.5 6.1 31.4 5 30 5h-7.5c0-2.8-2.2-5-5-5s-5 2.2-5 5H5C3.6 5 2.5 6.1 2.5 7.5V35c0 1.4 1.1 2.5 2.5 2.5h25c1.4 0 2.5-1.1 2.5-2.5v-5H30v5zM10 7.5h2.5S15 6.4 15 5s1.1-2.5 2.5-2.5S20 3.6 20 5s1.3 2.5 2.5 2.5H25s2.5 1.1 2.5 2.5h-20c0-1.5 1.1-2.5 2.5-2.5zm-2.5 20h5V25h-5v2.5zm17.5-5v-5L15 25l10 7.5v-5h12.5v-5H25zm-17.5 10H15V30H7.5v2.5zM20 15H7.5v2.5H20V15zm-7.5 5h-5v2.5h5V20z"/></svg>