<svg xmlns="http://www.w3.org/2000/svg" width="1278" height="278" fill="none" viewBox="0 0 1278 278"><path fill="#fff" d="M0 0h1278v278H0z"/><rect width="371" height="277" x=".5" y=".5" fill="#fff" stroke="#1E2126" rx="5.5"/><rect width="371" height="277" x="453.5" y=".5" fill="#fff" stroke="#1E2126" rx="5.5"/><rect width="371" height="277" x="906.5" y=".5" fill="#fff" stroke="#1E2126" rx="5.5"/><path fill="#1E2126" d="M43.32 130.498h18.04v1.65H43.32v-1.65Zm27.239 4.752 8.668-13.024h2.244V138h-2.112v-12.958L70.735 138H68.49v-15.774h2.068v13.024Zm21.776-2.31h-5.522V138h-1.936v-11.418h1.936v4.708h5.522v-4.708h1.936V138h-1.936v-5.06Zm10.038 5.28c-.88 0-1.679-.132-2.398-.396a5.246 5.246 0 0 1-1.804-1.166 5.143 5.143 0 0 1-1.144-1.87c-.264-.733-.396-1.569-.396-2.508 0-.924.132-1.753.396-2.486.279-.733.668-1.349 1.166-1.848a4.828 4.828 0 0 1 1.826-1.166c.719-.279 1.533-.418 2.442-.418.704 0 1.35.081 1.936.242.587.147 1.071.367 1.452.66v1.738a5.13 5.13 0 0 0-1.584-.682 6.546 6.546 0 0 0-1.782-.242c-1.334 0-2.317.345-2.948 1.034-.616.689-.924 1.745-.924 3.168s.301 2.479.902 3.168c.602.689 1.555 1.034 2.86 1.034.69 0 1.32-.081 1.892-.242a7.768 7.768 0 0 0 1.584-.66v1.738c-.41.249-.909.462-1.496.638-.572.176-1.232.264-1.98.264Zm10.67-9.988V138h-1.936v-9.768h-3.586v-1.65h9.174v1.65h-3.652Zm11.629 9.988c-.88 0-1.643-.205-2.288-.616-.631-.411-1.137-.975-1.518-1.694v5.984h-1.936v-15.312h1.694l.198 2.222c.381-.748.894-1.342 1.54-1.782.645-.44 1.444-.66 2.398-.66a4.9 4.9 0 0 1 1.892.374 4.148 4.148 0 0 1 1.606 1.1c.469.484.836 1.1 1.1 1.848.278.733.418 1.599.418 2.596 0 1.012-.14 1.892-.418 2.64-.279.733-.653 1.349-1.122 1.848a4.706 4.706 0 0 1-1.628 1.1 5.388 5.388 0 0 1-1.936.352Zm-.286-1.738c1.012 0 1.826-.345 2.442-1.034.63-.704.946-1.76.946-3.168 0-1.379-.316-2.42-.946-3.124-.616-.719-1.43-1.078-2.442-1.078-.499 0-.968.088-1.408.264-.426.176-.8.44-1.122.792-.308.337-.558.77-.748 1.298-.176.528-.264 1.144-.264 1.848 0 .704.088 1.32.264 1.848.19.528.44.968.748 1.32.322.352.696.616 1.122.792.44.161.909.242 1.408.242Zm13.238 1.386a13.115 13.115 0 0 1-.836 1.804 6.058 6.058 0 0 1-.99 1.342 3.544 3.544 0 0 1-1.232.814c-.455.191-.976.286-1.562.286-.294 0-.565-.022-.814-.066a2.43 2.43 0 0 1-.682-.176v-1.87c.161.117.366.205.616.264.249.073.52.11.814.11.542 0 .99-.132 1.342-.396.352-.249.689-.653 1.012-1.21l-4.642-12.188h2.134l3.63 9.636 3.608-9.636h1.87l-4.268 11.286Zm9.133-4.73h-1.012V138h-1.936v-11.418h1.936v4.906h1.1l4.004-4.906h2.2l-4.686 5.632 4.774 5.786h-2.354l-4.026-4.862ZM164.48 138h-9.306v-11.418h1.936v9.768h5.61v-9.768h1.936v9.768h1.716v4.906h-1.65L164.48 138Zm5.843-2.64 6.094-8.778h1.958V138h-1.936v-8.756L170.367 138h-1.98v-11.418h1.936v8.778Zm11.212-5.082c0-.645.118-1.195.352-1.65.235-.469.565-.851.99-1.144a4.38 4.38 0 0 1 1.518-.682 7.868 7.868 0 0 1 1.914-.22h3.674V138h-1.936v-4.136h-2.09L183.031 138h-2.31l3.3-4.62c-.792-.235-1.408-.594-1.848-1.078-.425-.484-.638-1.159-.638-2.024Zm6.512 1.936v-3.982h-1.738c-.821 0-1.496.154-2.024.462-.528.308-.792.807-.792 1.496 0 .719.235 1.239.704 1.562.47.308 1.137.462 2.002.462h1.848Zm12.893.924h-1.012V138h-1.936v-11.418h1.936v4.906h1.1l4.004-4.906h2.2l-4.686 5.632L207.32 138h-2.354l-4.026-4.862Zm21.347 1.54c0 .645-.132 1.195-.396 1.65-.249.44-.594.807-1.034 1.1-.44.279-.953.477-1.54.594a7.999 7.999 0 0 1-1.804.198c-.836 0-1.576-.088-2.222-.264-.63-.176-1.129-.389-1.496-.638v-1.738c.455.279.998.499 1.628.66a8.257 8.257 0 0 0 2.046.242c.836 0 1.533-.132 2.09-.396.572-.279.858-.748.858-1.408 0-.645-.242-1.1-.726-1.364-.469-.264-1.195-.396-2.178-.396h-1.518v-1.562h1.584c.807 0 1.423-.147 1.848-.44.426-.293.638-.719.638-1.276 0-.293-.073-.535-.22-.726a1.359 1.359 0 0 0-.55-.484 2.33 2.33 0 0 0-.836-.264 5.262 5.262 0 0 0-.99-.088 7.13 7.13 0 0 0-1.892.242 6.014 6.014 0 0 0-1.562.682v-1.738c.382-.249.873-.462 1.474-.638.616-.176 1.328-.264 2.134-.264 1.394 0 2.442.264 3.146.792.719.528 1.078 1.291 1.078 2.288 0 .748-.205 1.335-.616 1.76-.396.425-.96.719-1.694.88.91.117 1.592.403 2.046.858.47.455.704 1.034.704 1.738Zm9.528 1.144a6.704 6.704 0 0 1-.506.836 3.819 3.819 0 0 1-1.87 1.342c-.411.147-.895.22-1.452.22-1.027 0-1.855-.286-2.486-.858-.631-.587-.946-1.423-.946-2.508 0-1.247.433-2.163 1.298-2.75.88-.587 2.127-.88 3.74-.88h2.134v-.946c0-.792-.205-1.357-.616-1.694-.411-.337-1.115-.506-2.112-.506-.704 0-1.371.117-2.002.352a9.543 9.543 0 0 0-1.694.77v-1.738c.411-.249.961-.491 1.65-.726a6.883 6.883 0 0 1 2.31-.374c1.437 0 2.53.301 3.278.902.748.587 1.122 1.503 1.122 2.75v6.6c.015.161.022.33.022.506l.044.506c.015.147.029.271.044.374h-1.76a10.007 10.007 0 0 1-.132-.858 13.315 13.315 0 0 1-.044-.99l-.022-.33Zm-3.41.66c.601 0 1.115-.125 1.54-.374a3.79 3.79 0 0 0 1.034-.858c.264-.337.455-.66.572-.968.117-.323.176-.55.176-.682v-.836h-1.936c-1.159 0-2.002.169-2.53.506-.513.323-.77.814-.77 1.474 0 .513.154.931.462 1.254.308.323.792.484 1.452.484Zm7.793-.132c.411-.249.734-.638.968-1.166.235-.528.418-1.195.55-2.002.132-.807.22-1.76.264-2.86.059-1.1.11-2.347.154-3.74h7.854v9.768h1.716v4.906h-1.694l-.242-3.256h-8.492l-.198 3.256h-1.738v-4.906h.858Zm7.854 0v-8.118h-4.18c-.073 2.156-.212 3.887-.418 5.192-.19 1.291-.528 2.266-1.012 2.926h5.61Zm12.255-.528a6.704 6.704 0 0 1-.506.836 3.819 3.819 0 0 1-1.87 1.342c-.411.147-.895.22-1.452.22-1.027 0-1.855-.286-2.486-.858-.631-.587-.946-1.423-.946-2.508 0-1.247.433-2.163 1.298-2.75.88-.587 2.127-.88 3.74-.88h2.134v-.946c0-.792-.205-1.357-.616-1.694-.411-.337-1.115-.506-2.112-.506-.704 0-1.371.117-2.002.352a9.543 9.543 0 0 0-1.694.77v-1.738c.411-.249.961-.491 1.65-.726a6.883 6.883 0 0 1 2.31-.374c1.437 0 2.53.301 3.278.902.748.587 1.122 1.503 1.122 2.75v6.6c.015.161.022.33.022.506l.044.506c.015.147.029.271.044.374h-1.76a10.007 10.007 0 0 1-.132-.858 13.315 13.315 0 0 1-.044-.99l-.022-.33Zm-3.41.66c.601 0 1.115-.125 1.54-.374a3.79 3.79 0 0 0 1.034-.858c.264-.337.455-.66.572-.968.117-.323.176-.55.176-.682v-.836h-1.936c-1.159 0-2.002.169-2.53.506-.513.323-.77.814-.77 1.474 0 .513.154.931.462 1.254.308.323.792.484 1.452.484Zm15.76-3.542h-5.522V138h-1.936v-11.418h1.936v4.708h5.522v-4.708h1.936V138h-1.936v-5.06Zm7.047 2.42 6.094-8.778h1.958V138h-1.936v-8.756L275.748 138h-1.98v-11.418h1.936v8.778Zm25.622-3.08c0 .953-.139 1.797-.418 2.53a5.305 5.305 0 0 1-1.122 1.87 4.719 4.719 0 0 1-1.672 1.144 5.523 5.523 0 0 1-2.112.396 5.508 5.508 0 0 1-1.98-.352 4.913 4.913 0 0 1-1.628-1.012 5.475 5.475 0 0 1-1.122-1.672c-.293-.66-.469-1.408-.528-2.244h-1.892V138h-1.936v-11.418h1.936v4.708h1.936c.088-.792.279-1.489.572-2.09a4.852 4.852 0 0 1 1.122-1.54 4.902 4.902 0 0 1 1.584-.968 5.591 5.591 0 0 1 1.936-.33c.763 0 1.467.132 2.112.396a4.719 4.719 0 0 1 1.672 1.144c.484.499.858 1.122 1.122 1.87.279.733.418 1.569.418 2.508Zm-5.324 4.202c.484 0 .924-.081 1.32-.242a2.89 2.89 0 0 0 1.056-.77c.293-.352.521-.792.682-1.32.176-.528.264-1.151.264-1.87 0-.719-.088-1.342-.264-1.87-.161-.528-.389-.961-.682-1.298a2.585 2.585 0 0 0-1.056-.77 3.215 3.215 0 0 0-1.32-.264c-.469 0-.909.088-1.32.264a2.62 2.62 0 0 0-1.034.77c-.293.337-.528.77-.704 1.298-.161.528-.242 1.151-.242 1.87 0 .719.081 1.342.242 1.87.176.528.411.968.704 1.32.293.337.638.594 1.034.77.411.161.851.242 1.32.242ZM43.32 156.498h18.04v1.65H43.32v-1.65Zm32.013 7.722c-1.174 0-2.237-.183-3.19-.55a6.99 6.99 0 0 1-2.464-1.584c-.675-.704-1.196-1.555-1.562-2.552-.367-1.012-.55-2.149-.55-3.41 0-1.276.168-2.413.506-3.41.337-.997.836-1.841 1.496-2.53a6.429 6.429 0 0 1 2.42-1.606c.968-.367 2.068-.55 3.3-.55 1.07 0 2.009.117 2.816.352.806.22 1.466.484 1.98.792v1.98c-.66-.425-1.423-.741-2.288-.946a10.77 10.77 0 0 0-2.53-.308c-1.863 0-3.242.521-4.136 1.562-.88 1.027-1.32 2.581-1.32 4.664 0 2.097.476 3.659 1.43 4.686.968 1.027 2.39 1.54 4.268 1.54.806 0 1.59-.11 2.354-.33a6.76 6.76 0 0 0 2.222-1.122v1.98c-.426.337-1.05.645-1.87.924-.807.279-1.768.418-2.882.418Zm7.653-11.638h9.152V164h-1.936v-9.768h-5.28V164h-1.936v-11.418Zm21.397 10.45a6.113 6.113 0 0 1-.594.374 6.934 6.934 0 0 1-.858.396 7.235 7.235 0 0 1-1.144.286 7.081 7.081 0 0 1-1.43.132c-1.921 0-3.38-.521-4.378-1.562-.997-1.041-1.496-2.501-1.496-4.378 0-.924.132-1.753.396-2.486.279-.733.66-1.349 1.144-1.848a4.763 4.763 0 0 1 1.716-1.166 5.48 5.48 0 0 1 2.156-.418c.821 0 1.555.139 2.2.418a3.879 3.879 0 0 1 1.584 1.232c.425.543.711 1.217.858 2.024.161.792.161 1.716 0 2.772h-8.052c.073 1.232.44 2.156 1.1 2.772.66.601 1.643.902 2.948.902.88 0 1.635-.125 2.266-.374s1.159-.521 1.584-.814v1.738Zm-4.532-8.954c-.836 0-1.555.257-2.156.77-.601.513-.983 1.291-1.144 2.332h6.138c.059-1.056-.183-1.833-.726-2.332-.543-.513-1.247-.77-2.112-.77ZM116.44 164h-9.306v-11.418h1.936v9.768h5.61v-9.768h1.936v9.768h1.716v4.906h-1.65l-.242-3.256Zm5.843-2.64 6.094-8.778h1.958V164H128.4v-8.756L122.328 164h-1.98v-11.418h1.936v8.778Zm24.588-3.08c0 .953-.161 1.789-.484 2.508a5.371 5.371 0 0 1-1.32 1.826 5.553 5.553 0 0 1-1.936 1.144 8.407 8.407 0 0 1-2.376.418v3.718h-1.936v-3.718a8.042 8.042 0 0 1-2.42-.44 6.042 6.042 0 0 1-1.936-1.122 5.371 5.371 0 0 1-1.32-1.826c-.308-.719-.462-1.555-.462-2.508 0-.939.161-1.767.484-2.486a5.104 5.104 0 0 1 1.32-1.826 5.537 5.537 0 0 1 1.936-1.122 7.978 7.978 0 0 1 2.398-.44v-4.4h1.936v4.4a7.75 7.75 0 0 1 2.376.44 5.553 5.553 0 0 1 1.936 1.144 5.144 5.144 0 0 1 1.32 1.804c.323.719.484 1.547.484 2.486Zm-1.98 0c0-.704-.11-1.313-.33-1.826a3.316 3.316 0 0 0-.88-1.276 3.727 3.727 0 0 0-1.298-.77 5.248 5.248 0 0 0-1.628-.33v8.404a5.717 5.717 0 0 0 1.628-.308 3.979 3.979 0 0 0 1.32-.792c.367-.337.653-.763.858-1.276.22-.513.33-1.122.33-1.826Zm-10.23 0c0 .704.103 1.313.308 1.826.22.513.513.946.88 1.298.381.337.821.594 1.32.77a5.968 5.968 0 0 0 1.65.308v-8.404a5.532 5.532 0 0 0-1.672.33 3.56 3.56 0 0 0-1.298.792c-.367.337-.66.763-.88 1.276-.205.513-.308 1.115-.308 1.804Zm16.518 3.08 6.094-8.778h1.958V164h-1.936v-8.756L151.224 164h-1.98v-11.418h1.936v8.778Zm14.161-2.222h-1.012V164h-1.936v-11.418h1.936v4.906h1.1l4.004-4.906h2.2l-4.686 5.632 4.774 5.786h-2.354l-4.026-4.862Zm14.89 2.684a6.704 6.704 0 0 1-.506.836 3.819 3.819 0 0 1-1.87 1.342c-.411.147-.895.22-1.452.22-1.027 0-1.855-.286-2.486-.858-.631-.587-.946-1.423-.946-2.508 0-1.247.433-2.163 1.298-2.75.88-.587 2.127-.88 3.74-.88h2.134v-.946c0-.792-.205-1.357-.616-1.694-.411-.337-1.115-.506-2.112-.506-.704 0-1.371.117-2.002.352a9.543 9.543 0 0 0-1.694.77v-1.738c.411-.249.961-.491 1.65-.726a6.883 6.883 0 0 1 2.31-.374c1.437 0 2.53.301 3.278.902.748.587 1.122 1.503 1.122 2.75v6.6c.015.161.022.33.022.506l.044.506c.015.147.029.271.044.374h-1.76a10.007 10.007 0 0 1-.132-.858 13.315 13.315 0 0 1-.044-.99l-.022-.33Zm-3.41.66c.601 0 1.115-.125 1.54-.374a3.79 3.79 0 0 0 1.034-.858c.264-.337.455-.66.572-.968.117-.323.176-.55.176-.682v-.836h-1.936c-1.159 0-2.002.169-2.53.506-.513.323-.77.814-.77 1.474 0 .513.154.931.462 1.254.308.323.792.484 1.452.484ZM194.429 164h-9.306v-11.418h1.936v9.768h5.61v-9.768h1.936v9.768h1.716v4.906h-1.65l-.242-3.256Zm5.843-2.64 6.094-8.778h1.958V164h-1.936v-8.756L200.316 164h-1.98v-11.418h1.936v8.778Zm11.212-5.082c0-.645.118-1.195.352-1.65.235-.469.565-.851.99-1.144a4.38 4.38 0 0 1 1.518-.682 7.868 7.868 0 0 1 1.914-.22h3.674V164h-1.936v-4.136h-2.09L212.98 164h-2.31l3.3-4.62c-.792-.235-1.408-.594-1.848-1.078-.425-.484-.638-1.159-.638-2.024Zm6.512 1.936v-3.982h-1.738c-.821 0-1.496.154-2.024.462-.528.308-.792.807-.792 1.496 0 .719.235 1.239.704 1.562.47.308 1.137.462 2.002.462h1.848Zm9.945-5.632h4.268c1.379 0 2.42.242 3.124.726.704.469 1.056 1.21 1.056 2.222 0 .675-.176 1.217-.528 1.628-.337.396-.821.682-1.452.858 1.628.264 2.442 1.166 2.442 2.706 0 .587-.117 1.093-.352 1.518a2.891 2.891 0 0 1-.968 1.012c-.41.264-.909.455-1.496.572a9.334 9.334 0 0 1-1.87.176h-4.224v-11.418Zm1.936 1.65v3.102h2.156c.734 0 1.32-.132 1.76-.396.455-.264.682-.645.682-1.144 0-.601-.198-1.012-.594-1.232-.396-.22-.96-.33-1.694-.33h-2.31Zm0 4.642v3.476h2.266a8.2 8.2 0 0 0 1.1-.066c.338-.059.624-.154.858-.286.25-.132.44-.308.572-.528.132-.22.198-.491.198-.814 0-.66-.227-1.122-.682-1.386-.454-.264-1.136-.396-2.046-.396h-2.266Zm13.409.594-3.08 4.532h-2.024l4.136-5.918-3.652-5.5h2.244l2.728 4.026 2.75-4.026h2.002l-3.784 5.456 3.982 5.962h-2.244l-3.058-4.532Zm11.47 4.752a5.926 5.926 0 0 1-2.178-.396 5.078 5.078 0 0 1-1.76-1.144c-.484-.513-.865-1.137-1.144-1.87-.278-.733-.418-1.577-.418-2.53 0-.939.14-1.775.418-2.508.279-.748.66-1.371 1.144-1.87a5.078 5.078 0 0 1 1.76-1.144 5.926 5.926 0 0 1 2.178-.396c.792 0 1.526.132 2.2.396a4.845 4.845 0 0 1 1.738 1.144c.499.499.888 1.122 1.166 1.87.294.733.44 1.569.44 2.508 0 .953-.146 1.797-.44 2.53a5.38 5.38 0 0 1-1.166 1.87 4.845 4.845 0 0 1-1.738 1.144 5.983 5.983 0 0 1-2.2.396Zm0-1.738c.514 0 .983-.081 1.408-.242.44-.176.822-.433 1.144-.77.323-.352.572-.792.748-1.32.176-.528.264-1.151.264-1.87 0-.719-.088-1.342-.264-1.87-.176-.528-.425-.961-.748-1.298a2.868 2.868 0 0 0-1.144-.77 3.644 3.644 0 0 0-1.408-.264c-.513 0-.982.088-1.408.264a2.908 2.908 0 0 0-1.122.77c-.308.337-.55.77-.726 1.298-.176.528-.264 1.151-.264 1.87 0 .719.088 1.342.264 1.87.176.528.418.968.726 1.32.323.337.697.594 1.122.77.426.161.895.242 1.408.242Zm7.181-.132c.41-.249.733-.638.968-1.166.234-.528.418-1.195.55-2.002.132-.807.22-1.76.264-2.86.058-1.1.11-2.347.154-3.74h7.854v9.768h1.716v4.906h-1.694l-.242-3.256h-8.492l-.198 3.256h-1.738v-4.906h.858Zm7.854 0v-8.118h-4.18c-.074 2.156-.213 3.887-.418 5.192-.191 1.291-.528 2.266-1.012 2.926h5.61Zm13.132-3.41h-5.522V164h-1.936v-11.418h1.936v4.708h5.522v-4.708h1.936V164h-1.936v-5.06Zm13.558 1.254c0 .66-.117 1.232-.352 1.716-.234.484-.564.88-.99 1.188a4.363 4.363 0 0 1-1.518.682 7.856 7.856 0 0 1-1.914.22h-3.674v-11.418h1.936v3.982h1.87c1.452 0 2.589.286 3.41.858.822.572 1.232 1.496 1.232 2.772Zm3.586 3.806h-1.936v-11.418h1.936V164Zm-10.098-5.786v4.136h1.738c.836 0 1.511-.154 2.024-.462.528-.323.792-.851.792-1.584 0-.748-.234-1.283-.704-1.606-.469-.323-1.129-.484-1.98-.484h-1.87Zm17.125 1.254-3.08 4.532h-2.024l4.136-5.918-3.652-5.5h2.244l2.728 4.026 2.75-4.026h2.002l-3.784 5.456 3.982 5.962h-2.244l-3.058-4.532ZM45.52 187.36l6.094-8.778h1.958V190h-1.936v-8.756L45.564 190h-1.98v-11.418h1.936v8.778Zm16.046-8.778h4.268c1.38 0 2.42.242 3.124.726.704.469 1.056 1.21 1.056 2.222 0 .675-.176 1.217-.528 1.628-.337.396-.82.682-1.452.858 1.628.264 2.442 1.166 2.442 2.706 0 .587-.117 1.093-.352 1.518a2.9 2.9 0 0 1-.968 1.012c-.41.264-.909.455-1.496.572a9.336 9.336 0 0 1-1.87.176h-4.224v-11.418Zm1.936 1.65v3.102h2.156c.734 0 1.32-.132 1.76-.396.455-.264.682-.645.682-1.144 0-.601-.198-1.012-.594-1.232-.396-.22-.96-.33-1.694-.33h-2.31Zm0 4.642v3.476h2.266c.411 0 .778-.022 1.1-.066.338-.059.624-.154.858-.286.25-.132.44-.308.572-.528.132-.22.198-.491.198-.814 0-.66-.227-1.122-.682-1.386-.454-.264-1.136-.396-2.046-.396h-2.266Zm18.329 1.32c0 .66-.118 1.232-.352 1.716-.235.484-.565.88-.99 1.188a4.368 4.368 0 0 1-1.518.682 7.863 7.863 0 0 1-1.914.22h-3.674v-11.418h1.936v3.982h1.87c1.452 0 2.589.286 3.41.858.821.572 1.232 1.496 1.232 2.772ZM85.417 190H83.48v-11.418h1.936V190Zm-10.098-5.786v4.136h1.738c.836 0 1.51-.154 2.024-.462.528-.323.792-.851.792-1.584 0-.748-.235-1.283-.704-1.606-.47-.323-1.13-.484-1.98-.484h-1.87Zm17.125 1.254L89.364 190H87.34l4.136-5.918-3.652-5.5h2.244l2.728 4.026 2.75-4.026h2.002l-3.784 5.456L97.746 190h-2.244l-3.058-4.532Zm11.471 4.752a5.919 5.919 0 0 1-2.178-.396 5.066 5.066 0 0 1-1.76-1.144 5.575 5.575 0 0 1-1.145-1.87c-.278-.733-.417-1.577-.417-2.53 0-.939.139-1.775.417-2.508.28-.748.66-1.371 1.145-1.87a5.066 5.066 0 0 1 1.76-1.144 5.919 5.919 0 0 1 2.178-.396c.792 0 1.525.132 2.2.396a4.854 4.854 0 0 1 1.738 1.144c.498.499.887 1.122 1.166 1.87.293.733.44 1.569.44 2.508 0 .953-.147 1.797-.44 2.53a5.41 5.41 0 0 1-1.166 1.87 4.854 4.854 0 0 1-1.738 1.144 5.986 5.986 0 0 1-2.2.396Zm0-1.738c.513 0 .982-.081 1.408-.242.44-.176.821-.433 1.144-.77.322-.352.572-.792.748-1.32.176-.528.264-1.151.264-1.87 0-.719-.088-1.342-.264-1.87-.176-.528-.426-.961-.748-1.298a2.874 2.874 0 0 0-1.144-.77 3.652 3.652 0 0 0-1.408-.264c-.514 0-.983.088-1.408.264-.426.161-.8.418-1.122.77-.308.337-.55.77-.726 1.298-.176.528-.264 1.151-.264 1.87 0 .719.088 1.342.264 1.87.176.528.418.968.726 1.32.322.337.696.594 1.122.77.425.161.894.242 1.408.242Zm7.18-.132c.411-.249.733-.638.968-1.166.235-.528.418-1.195.55-2.002.132-.807.22-1.76.264-2.86.059-1.1.11-2.347.154-3.74h7.854v9.768h1.716v4.906h-1.694l-.242-3.256h-8.492l-.198 3.256h-1.738v-4.906h.858Zm7.854 0v-8.118h-4.18c-.073 2.156-.213 3.887-.418 5.192-.191 1.291-.528 2.266-1.012 2.926h5.61Zm13.132-3.41h-5.522V190h-1.936v-11.418h1.936v4.708h5.522v-4.708h1.936V190h-1.936v-5.06Zm13.558 1.254c0 .66-.117 1.232-.352 1.716-.234.484-.564.88-.99 1.188a4.363 4.363 0 0 1-1.518.682 7.856 7.856 0 0 1-1.914.22h-3.674v-11.418h1.936v3.982h1.87c1.452 0 2.589.286 3.41.858.822.572 1.232 1.496 1.232 2.772Zm3.586 3.806h-1.936v-11.418h1.936V190Zm-10.098-5.786v4.136h1.738c.836 0 1.511-.154 2.024-.462.528-.323.792-.851.792-1.584 0-.748-.234-1.283-.704-1.606-.469-.323-1.129-.484-1.98-.484h-1.87Zm17.125 1.254-3.08 4.532h-2.024l4.136-5.918-3.652-5.5h2.244l2.728 4.026 2.75-4.026h2.002l-3.784 5.456 3.982 5.962h-2.244l-3.058-4.532Zm11.433 2.882c.41-.249.733-.638.968-1.166.234-.528.418-1.195.55-2.002.132-.807.22-1.76.264-2.86.058-1.1.11-2.347.154-3.74h7.854v9.768h1.716v4.906h-1.694l-.242-3.256h-8.492l-.198 3.256h-1.738v-4.906h.858Zm7.854 0v-8.118h-4.18c-.074 2.156-.213 3.887-.418 5.192-.191 1.291-.528 2.266-1.012 2.926h5.61Zm12.254-.528c-.132.264-.3.543-.506.836a3.819 3.819 0 0 1-1.87 1.342c-.41.147-.894.22-1.452.22-1.026 0-1.855-.286-2.486-.858-.63-.587-.946-1.423-.946-2.508 0-1.247.433-2.163 1.298-2.75.88-.587 2.127-.88 3.74-.88h2.134v-.946c0-.792-.205-1.357-.616-1.694-.41-.337-1.114-.506-2.112-.506-.704 0-1.371.117-2.002.352-.63.22-1.195.477-1.694.77v-1.738c.411-.249.961-.491 1.65-.726a6.883 6.883 0 0 1 2.31-.374c1.438 0 2.53.301 3.278.902.748.587 1.122 1.503 1.122 2.75v6.6c.015.161.022.33.022.506l.044.506c.015.147.03.271.044.374h-1.76a10.007 10.007 0 0 1-.132-.858 13.315 13.315 0 0 1-.044-.99l-.022-.33Zm-3.41.66c.602 0 1.115-.125 1.54-.374.426-.249.77-.535 1.034-.858.264-.337.455-.66.572-.968.118-.323.176-.55.176-.682v-.836h-1.936c-1.158 0-2.002.169-2.53.506-.513.323-.77.814-.77 1.474 0 .513.154.931.462 1.254.308.323.792.484 1.452.484Zm15.761-3.542h-5.522V190h-1.936v-11.418h1.936v4.708h5.522v-4.708h1.936V190h-1.936v-5.06Zm12.568 0h-5.522V190h-1.936v-11.418h1.936v4.708h5.522v-4.708h1.936V190h-1.936v-5.06Zm13.558 1.254c0 .66-.117 1.232-.352 1.716-.234.484-.564.88-.99 1.188a4.363 4.363 0 0 1-1.518.682 7.856 7.856 0 0 1-1.914.22h-3.674v-11.418h1.936v3.982h1.87c1.452 0 2.589.286 3.41.858.822.572 1.232 1.496 1.232 2.772Zm3.586 3.806h-1.936v-11.418h1.936V190Zm-10.098-5.786v4.136h1.738c.836 0 1.511-.154 2.024-.462.528-.323.792-.851.792-1.584 0-.748-.234-1.283-.704-1.606-.469-.323-1.129-.484-1.98-.484h-1.87Zm17.125 1.254-3.08 4.532h-2.024l4.136-5.918-3.652-5.5h2.244l2.728 4.026 2.75-4.026h2.002l-3.784 5.456 3.982 5.962h-2.244l-3.058-4.532ZM43.32 208.498h18.04v1.65H43.32v-1.65Zm27.239 4.752 8.668-13.024h2.244V216h-2.112v-12.958L70.735 216H68.49v-15.774h2.068v13.024Zm21.776-2.31h-5.522V216h-1.936v-11.418h1.936v4.708h5.522v-4.708h1.936V216h-1.936v-5.06Zm9.708-4.708V216h-1.936v-9.768h-3.586v-1.65h9.174v1.65h-3.652Zm14.65 8.8a6.113 6.113 0 0 1-.594.374 6.8 6.8 0 0 1-.858.396 7.207 7.207 0 0 1-1.144.286 7.081 7.081 0 0 1-1.43.132c-1.921 0-3.38-.521-4.378-1.562-.997-1.041-1.496-2.501-1.496-4.378 0-.924.132-1.753.396-2.486.279-.733.66-1.349 1.144-1.848a4.763 4.763 0 0 1 1.716-1.166 5.481 5.481 0 0 1 2.156-.418c.822 0 1.555.139 2.2.418a3.865 3.865 0 0 1 1.584 1.232c.426.543.712 1.217.858 2.024.162.792.162 1.716 0 2.772h-8.052c.074 1.232.44 2.156 1.1 2.772.66.601 1.643.902 2.948.902.88 0 1.636-.125 2.266-.374.631-.249 1.159-.521 1.584-.814v1.738Zm-4.532-8.954c-.836 0-1.554.257-2.156.77-.601.513-.982 1.291-1.144 2.332h6.138c.059-1.056-.183-1.833-.726-2.332-.542-.513-1.246-.77-2.112-.77Zm13.026 10.142c-.88 0-1.642-.205-2.288-.616-.63-.411-1.136-.975-1.518-1.694v5.984h-1.936v-15.312h1.694l.198 2.222c.382-.748.895-1.342 1.54-1.782.646-.44 1.445-.66 2.398-.66.66 0 1.291.125 1.892.374a4.14 4.14 0 0 1 1.606 1.1c.47.484.836 1.1 1.1 1.848.279.733.418 1.599.418 2.596 0 1.012-.139 1.892-.418 2.64-.278.733-.652 1.349-1.122 1.848a4.697 4.697 0 0 1-1.628 1.1 5.384 5.384 0 0 1-1.936.352Zm-.286-1.738c1.012 0 1.826-.345 2.442-1.034.631-.704.946-1.76.946-3.168 0-1.379-.315-2.42-.946-3.124-.616-.719-1.43-1.078-2.442-1.078-.498 0-.968.088-1.408.264a3.14 3.14 0 0 0-1.122.792c-.308.337-.557.77-.748 1.298-.176.528-.264 1.144-.264 1.848 0 .704.088 1.32.264 1.848.191.528.44.968.748 1.32a3.14 3.14 0 0 0 1.122.792c.44.161.91.242 1.408.242Zm21.112-4.202c0 .953-.162 1.789-.484 2.508a5.371 5.371 0 0 1-1.32 1.826 5.553 5.553 0 0 1-1.936 1.144 8.407 8.407 0 0 1-2.376.418v3.718h-1.936v-3.718a8.036 8.036 0 0 1-2.42-.44 6.031 6.031 0 0 1-1.936-1.122 5.345 5.345 0 0 1-1.32-1.826c-.308-.719-.462-1.555-.462-2.508 0-.939.161-1.767.484-2.486a5.08 5.08 0 0 1 1.32-1.826 5.528 5.528 0 0 1 1.936-1.122 7.978 7.978 0 0 1 2.398-.44v-4.4h1.936v4.4c.85.029 1.642.176 2.376.44a5.553 5.553 0 0 1 1.936 1.144 5.144 5.144 0 0 1 1.32 1.804c.322.719.484 1.547.484 2.486Zm-1.98 0c0-.704-.11-1.313-.33-1.826a3.327 3.327 0 0 0-.88-1.276 3.736 3.736 0 0 0-1.298-.77 5.254 5.254 0 0 0-1.628-.33v8.404a5.724 5.724 0 0 0 1.628-.308 3.979 3.979 0 0 0 1.32-.792c.366-.337.652-.763.858-1.276.22-.513.33-1.122.33-1.826Zm-10.23 0c0 .704.102 1.313.308 1.826.22.513.513.946.88 1.298.381.337.821.594 1.32.77a5.968 5.968 0 0 0 1.65.308v-8.404a5.525 5.525 0 0 0-1.672.33c-.499.176-.932.44-1.298.792-.367.337-.66.763-.88 1.276-.206.513-.308 1.115-.308 1.804Zm23.668 4.752a6.368 6.368 0 0 1-1.452.77 7.263 7.263 0 0 1-1.144.286 7.088 7.088 0 0 1-1.43.132c-1.922 0-3.381-.521-4.378-1.562-.998-1.041-1.496-2.501-1.496-4.378 0-.924.132-1.753.396-2.486.278-.733.66-1.349 1.144-1.848a4.763 4.763 0 0 1 1.716-1.166 5.478 5.478 0 0 1 2.156-.418c.821 0 1.554.139 2.2.418a3.879 3.879 0 0 1 1.584 1.232c.425.543.711 1.217.858 2.024.161.792.161 1.716 0 2.772h-8.052c.073 1.232.44 2.156 1.1 2.772.66.601 1.642.902 2.948.902.88 0 1.635-.125 2.266-.374.63-.249 1.158-.521 1.584-.814v1.738Zm-4.532-8.954c-.836 0-1.555.257-2.156.77-.602.513-.983 1.291-1.144 2.332h6.138c.058-1.056-.184-1.833-.726-2.332-.543-.513-1.247-.77-2.112-.77Zm12.322-3.014c-.587 0-1.1-.073-1.54-.22a3.37 3.37 0 0 1-1.078-.638 2.9 2.9 0 0 1-.638-.946 3.485 3.485 0 0 1-.198-1.188h1.936c0 .557.132.961.396 1.21.278.249.652.374 1.122.374.469 0 .836-.125 1.1-.374.264-.249.396-.653.396-1.21h1.936c0 .836-.286 1.547-.858 2.134-.558.572-1.416.858-2.574.858Zm-3.102 10.296 6.094-8.778h1.958V216h-1.936v-8.756L162.203 216h-1.98v-11.418h1.936v8.778Zm16.14 2.86c-.88 0-1.679-.132-2.398-.396a5.249 5.249 0 0 1-1.804-1.166 5.138 5.138 0 0 1-1.144-1.87c-.264-.733-.396-1.569-.396-2.508 0-.924.132-1.753.396-2.486.279-.733.667-1.349 1.166-1.848a4.826 4.826 0 0 1 1.826-1.166c.719-.279 1.533-.418 2.442-.418.704 0 1.349.081 1.936.242.587.147 1.071.367 1.452.66v1.738a5.13 5.13 0 0 0-1.584-.682 6.546 6.546 0 0 0-1.782-.242c-1.335 0-2.317.345-2.948 1.034-.616.689-.924 1.745-.924 3.168s.301 2.479.902 3.168c.601.689 1.555 1.034 2.86 1.034.689 0 1.32-.081 1.892-.242a7.768 7.768 0 0 0 1.584-.66v1.738a6.475 6.475 0 0 1-1.496.638c-.572.176-1.232.264-1.98.264ZM496.32 130.498h18.04v1.65h-18.04v-1.65Zm37.029 5.632h2.068v5.61h-1.936l-.242-3.74h-11.748v-15.774h2.068v13.904h7.7v-13.904h2.09v13.904Zm13.485.902a6.113 6.113 0 0 1-.594.374 6.934 6.934 0 0 1-.858.396 7.235 7.235 0 0 1-1.144.286 7.081 7.081 0 0 1-1.43.132c-1.921 0-3.381-.521-4.378-1.562-.997-1.041-1.496-2.501-1.496-4.378 0-.924.132-1.753.396-2.486.279-.733.66-1.349 1.144-1.848a4.763 4.763 0 0 1 1.716-1.166 5.481 5.481 0 0 1 2.156-.418c.821 0 1.555.139 2.2.418a3.879 3.879 0 0 1 1.584 1.232c.425.543.711 1.217.858 2.024.161.792.161 1.716 0 2.772h-8.052c.073 1.232.44 2.156 1.1 2.772.66.601 1.643.902 2.948.902.88 0 1.635-.125 2.266-.374s1.159-.521 1.584-.814v1.738Zm-4.532-8.954c-.836 0-1.555.257-2.156.77-.601.513-.983 1.291-1.144 2.332h6.138c.059-1.056-.183-1.833-.726-2.332-.543-.513-1.247-.77-2.112-.77Zm14.742 4.862h-5.522V138h-1.936v-11.418h1.936v4.708h5.522v-4.708h1.936V138h-1.936v-5.06Zm11.798 2.882c-.132.264-.3.543-.506.836a3.819 3.819 0 0 1-1.87 1.342c-.41.147-.894.22-1.452.22-1.026 0-1.855-.286-2.486-.858-.63-.587-.946-1.423-.946-2.508 0-1.247.433-2.163 1.298-2.75.88-.587 2.127-.88 3.74-.88h2.134v-.946c0-.792-.205-1.357-.616-1.694-.41-.337-1.114-.506-2.112-.506-.704 0-1.371.117-2.002.352-.63.22-1.195.477-1.694.77v-1.738c.411-.249.961-.491 1.65-.726a6.883 6.883 0 0 1 2.31-.374c1.438 0 2.53.301 3.278.902.748.587 1.122 1.503 1.122 2.75v6.6c.015.161.022.33.022.506l.044.506c.015.147.03.271.044.374h-1.76a10.007 10.007 0 0 1-.132-.858 13.315 13.315 0 0 1-.044-.99l-.022-.33Zm-3.41.66c.602 0 1.115-.125 1.54-.374.426-.249.77-.535 1.034-.858.264-.337.455-.66.572-.968.118-.323.176-.55.176-.682v-.836h-1.936c-1.158 0-2.002.169-2.53.506-.513.323-.77.814-.77 1.474 0 .513.154.931.462 1.254.308.323.792.484 1.452.484Zm-69.112 20.016h18.04v1.65h-18.04v-1.65Zm31.793 7.722a8.272 8.272 0 0 1-2.97-.528 6.85 6.85 0 0 1-2.398-1.584c-.675-.689-1.21-1.54-1.606-2.552-.382-1.012-.572-2.178-.572-3.498 0-1.32.19-2.479.572-3.476.396-1.012.931-1.848 1.606-2.508a6.481 6.481 0 0 1 2.398-1.518 8.272 8.272 0 0 1 2.97-.528c1.07 0 2.068.176 2.992.528a6.49 6.49 0 0 1 2.398 1.518c.674.675 1.202 1.518 1.584 2.53.381.997.572 2.156.572 3.476 0 1.305-.191 2.464-.572 3.476-.382 1.012-.91 1.863-1.584 2.552a6.858 6.858 0 0 1-2.398 1.584 8.337 8.337 0 0 1-2.992.528Zm0-1.87c.762 0 1.466-.11 2.112-.33a4.395 4.395 0 0 0 1.672-1.078c.484-.499.858-1.144 1.122-1.936.278-.792.418-1.753.418-2.882 0-1.129-.14-2.09-.418-2.882-.264-.792-.638-1.43-1.122-1.914a4.068 4.068 0 0 0-1.672-1.078 6.134 6.134 0 0 0-2.112-.352c-.763 0-1.467.117-2.112.352a4.23 4.23 0 0 0-1.694 1.078c-.47.484-.844 1.122-1.122 1.914-.264.792-.396 1.753-.396 2.882 0 1.129.132 2.09.396 2.882.278.792.652 1.437 1.122 1.936a4.58 4.58 0 0 0 1.694 1.078c.645.22 1.349.33 2.112.33Zm14.641-8.118V164h-1.936v-9.768h-3.586v-1.65h9.174v1.65h-3.652Zm16.183 4.048c0 .953-.147 1.797-.44 2.53a5.41 5.41 0 0 1-1.166 1.87 4.854 4.854 0 0 1-1.738 1.144 5.986 5.986 0 0 1-2.2.396 6.043 6.043 0 0 1-2.222-.396 4.604 4.604 0 0 1-1.738-1.254c-.484-.557-.866-1.261-1.144-2.112-.264-.851-.396-1.855-.396-3.014 0-.953.029-1.863.088-2.728.058-.865.19-1.665.396-2.398a7.066 7.066 0 0 1 .88-2.002c.396-.601.924-1.1 1.584-1.496.366-.22.748-.381 1.144-.484a8.73 8.73 0 0 1 1.188-.264c.41-.059.821-.095 1.232-.11l1.21-.044a8.516 8.516 0 0 0 1.474-.22 4.301 4.301 0 0 0 1.056-.418v1.76a3.404 3.404 0 0 1-1.034.44c-.352.073-.785.139-1.298.198-.836.073-1.606.132-2.31.176-.69.029-1.32.191-1.892.484-.734.411-1.254 1.027-1.562 1.848-.294.807-.477 1.767-.55 2.882.762-1.76 2.2-2.64 4.312-2.64a5.03 5.03 0 0 1 2.002.396c.63.249 1.173.623 1.628 1.122.469.499.836 1.115 1.1 1.848.264.719.396 1.547.396 2.486Zm-5.544 4.202c.513 0 .982-.081 1.408-.242.44-.176.821-.433 1.144-.77.322-.352.572-.792.748-1.32.176-.528.264-1.151.264-1.87 0-.719-.088-1.342-.264-1.87-.176-.528-.426-.961-.748-1.298a2.874 2.874 0 0 0-1.144-.77 3.652 3.652 0 0 0-1.408-.264c-1.012 0-1.856.337-2.53 1.012-.66.675-.99 1.716-.99 3.124 0 .733.088 1.371.264 1.914.176.528.418.968.726 1.32.322.352.696.616 1.122.792.425.161.894.242 1.408.242Zm12.652 1.738a5.926 5.926 0 0 1-2.178-.396 5.078 5.078 0 0 1-1.76-1.144c-.484-.513-.865-1.137-1.144-1.87-.278-.733-.418-1.577-.418-2.53 0-.939.14-1.775.418-2.508.279-.748.66-1.371 1.144-1.87a5.078 5.078 0 0 1 1.76-1.144 5.926 5.926 0 0 1 2.178-.396c.792 0 1.526.132 2.2.396a4.845 4.845 0 0 1 1.738 1.144c.499.499.888 1.122 1.166 1.87.294.733.44 1.569.44 2.508 0 .953-.146 1.797-.44 2.53a5.38 5.38 0 0 1-1.166 1.87 4.845 4.845 0 0 1-1.738 1.144 5.983 5.983 0 0 1-2.2.396Zm0-1.738c.514 0 .983-.081 1.408-.242.44-.176.822-.433 1.144-.77.323-.352.572-.792.748-1.32.176-.528.264-1.151.264-1.87 0-.719-.088-1.342-.264-1.87-.176-.528-.425-.961-.748-1.298a2.868 2.868 0 0 0-1.144-.77 3.644 3.644 0 0 0-1.408-.264c-.513 0-.982.088-1.408.264a2.908 2.908 0 0 0-1.122.77c-.308.337-.55.77-.726 1.298-.176.528-.264 1.151-.264 1.87 0 .719.088 1.342.264 1.87.176.528.418.968.726 1.32.323.337.697.594 1.122.77.426.161.895.242 1.408.242Zm13.646 1.738c-.88 0-1.642-.205-2.288-.616-.63-.411-1.136-.975-1.518-1.694v5.984h-1.936v-15.312h1.694l.198 2.222c.382-.748.895-1.342 1.54-1.782.646-.44 1.445-.66 2.398-.66.66 0 1.291.125 1.892.374a4.14 4.14 0 0 1 1.606 1.1c.47.484.836 1.1 1.1 1.848.279.733.418 1.599.418 2.596 0 1.012-.139 1.892-.418 2.64-.278.733-.652 1.349-1.122 1.848a4.697 4.697 0 0 1-1.628 1.1 5.384 5.384 0 0 1-1.936.352Zm-.286-1.738c1.012 0 1.826-.345 2.442-1.034.631-.704.946-1.76.946-3.168 0-1.379-.315-2.42-.946-3.124-.616-.719-1.43-1.078-2.442-1.078-.498 0-.968.088-1.408.264a3.14 3.14 0 0 0-1.122.792c-.308.337-.557.77-.748 1.298-.176.528-.264 1.144-.264 1.848 0 .704.088 1.32.264 1.848.191.528.44.968.748 1.32a3.14 3.14 0 0 0 1.122.792c.44.161.91.242 1.408.242Zm14.506-1.122 6.094-8.778h1.958V164h-1.936v-8.756L593.955 164h-1.98v-11.418h1.936v8.778Zm16.14 2.86c-.88 0-1.679-.132-2.398-.396a5.249 5.249 0 0 1-1.804-1.166 5.138 5.138 0 0 1-1.144-1.87c-.264-.733-.396-1.569-.396-2.508 0-.924.132-1.753.396-2.486.279-.733.667-1.349 1.166-1.848a4.826 4.826 0 0 1 1.826-1.166c.719-.279 1.533-.418 2.442-.418.704 0 1.349.081 1.936.242.587.147 1.071.367 1.452.66v1.738a5.13 5.13 0 0 0-1.584-.682 6.546 6.546 0 0 0-1.782-.242c-1.335 0-2.317.345-2.948 1.034-.616.689-.924 1.745-.924 3.168s.301 2.479.902 3.168c.601.689 1.555 1.034 2.86 1.034.689 0 1.32-.081 1.892-.242a7.768 7.768 0 0 0 1.584-.66v1.738a6.475 6.475 0 0 1-1.496.638c-.572.176-1.232.264-1.98.264Zm6.072-11.638h9.152V164h-1.936v-9.768h-5.28V164h-1.936v-11.418Zm16.997 11.638a5.919 5.919 0 0 1-2.178-.396 5.06 5.06 0 0 1-1.76-1.144 5.564 5.564 0 0 1-1.144-1.87c-.279-.733-.418-1.577-.418-2.53 0-.939.139-1.775.418-2.508.278-.748.66-1.371 1.144-1.87a5.06 5.06 0 0 1 1.76-1.144 5.919 5.919 0 0 1 2.178-.396c.792 0 1.525.132 2.2.396a4.854 4.854 0 0 1 1.738 1.144c.498.499.887 1.122 1.166 1.87.293.733.44 1.569.44 2.508 0 .953-.147 1.797-.44 2.53a5.41 5.41 0 0 1-1.166 1.87 4.854 4.854 0 0 1-1.738 1.144 5.986 5.986 0 0 1-2.2.396Zm0-1.738c.513 0 .982-.081 1.408-.242.44-.176.821-.433 1.144-.77.322-.352.572-.792.748-1.32.176-.528.264-1.151.264-1.87 0-.719-.088-1.342-.264-1.87-.176-.528-.426-.961-.748-1.298a2.874 2.874 0 0 0-1.144-.77 3.652 3.652 0 0 0-1.408-.264c-.514 0-.983.088-1.408.264-.426.161-.8.418-1.122.77-.308.337-.55.77-.726 1.298-.176.528-.264 1.151-.264 1.87 0 .719.088 1.342.264 1.87.176.528.418.968.726 1.32.322.337.696.594 1.122.77.425.161.894.242 1.408.242Zm8.461-2.024c.206-.748.338-1.76.396-3.036.059-1.276.088-2.889.088-4.84h7.678V164h-1.958v-9.768h-3.894a66.858 66.858 0 0 1-.154 4.18c-.073 1.217-.242 2.244-.506 3.08-.249.836-.623 1.474-1.122 1.914-.484.425-1.136.638-1.958.638h-.176c-.058 0-.124-.007-.198-.022v-1.914c.074.015.169.022.286.022.748 0 1.254-.557 1.518-1.672Zm18.76-1.518h-5.522V164h-1.936v-11.418h1.936v4.708h5.522v-4.708h1.936V164h-1.936v-5.06Zm7.046 2.42 6.094-8.778h1.958V164h-1.936v-8.756L667.431 164h-1.98v-11.418h1.936v8.778Zm15.811-7.128V164h-1.936v-9.768h-3.586v-1.65h9.174v1.65h-3.652Zm14.65 8.8a6.368 6.368 0 0 1-1.452.77 7.263 7.263 0 0 1-1.144.286 7.088 7.088 0 0 1-1.43.132c-1.922 0-3.381-.521-4.378-1.562-.998-1.041-1.496-2.501-1.496-4.378 0-.924.132-1.753.396-2.486.278-.733.66-1.349 1.144-1.848a4.763 4.763 0 0 1 1.716-1.166 5.478 5.478 0 0 1 2.156-.418c.821 0 1.554.139 2.2.418a3.879 3.879 0 0 1 1.584 1.232c.425.543.711 1.217.858 2.024.161.792.161 1.716 0 2.772h-8.052c.073 1.232.44 2.156 1.1 2.772.66.601 1.642.902 2.948.902.88 0 1.635-.125 2.266-.374.63-.249 1.158-.521 1.584-.814v1.738Zm-4.532-8.954c-.836 0-1.555.257-2.156.77-.602.513-.983 1.291-1.144 2.332h6.138c.058-1.056-.184-1.833-.726-2.332-.543-.513-1.247-.77-2.112-.77Zm8.164 6.38c.205-.748.337-1.76.396-3.036.058-1.276.088-2.889.088-4.84h7.678V164h-1.958v-9.768h-3.894a67.636 67.636 0 0 1-.154 4.18c-.074 1.217-.242 2.244-.506 3.08-.25.836-.624 1.474-1.122 1.914-.484.425-1.137.638-1.958.638h-.176a.99.99 0 0 1-.198-.022v-1.914c.073.015.168.022.286.022.748 0 1.254-.557 1.518-1.672Zm20.387 2.574a6.113 6.113 0 0 1-.594.374 6.8 6.8 0 0 1-.858.396 7.207 7.207 0 0 1-1.144.286 7.081 7.081 0 0 1-1.43.132c-1.921 0-3.38-.521-4.378-1.562-.997-1.041-1.496-2.501-1.496-4.378 0-.924.132-1.753.396-2.486.279-.733.66-1.349 1.144-1.848a4.763 4.763 0 0 1 1.716-1.166 5.481 5.481 0 0 1 2.156-.418c.822 0 1.555.139 2.2.418a3.865 3.865 0 0 1 1.584 1.232c.426.543.712 1.217.858 2.024.162.792.162 1.716 0 2.772h-8.052c.074 1.232.44 2.156 1.1 2.772.66.601 1.643.902 2.948.902.88 0 1.636-.125 2.266-.374.631-.249 1.159-.521 1.584-.814v1.738Zm-4.532-8.954c-.836 0-1.554.257-2.156.77-.601.513-.982 1.291-1.144 2.332h6.138c.059-1.056-.183-1.833-.726-2.332-.542-.513-1.246-.77-2.112-.77Zm12.322-3.014c-.587 0-1.1-.073-1.54-.22a3.38 3.38 0 0 1-1.078-.638 2.916 2.916 0 0 1-.638-.946 3.485 3.485 0 0 1-.198-1.188h1.936c0 .557.132.961.396 1.21.279.249.653.374 1.122.374.469 0 .836-.125 1.1-.374.264-.249.396-.653.396-1.21h1.936c0 .836-.286 1.547-.858 2.134-.557.572-1.415.858-2.574.858Zm-3.102 10.296 6.094-8.778h1.958V164h-1.936v-8.756L726.599 164h-1.98v-11.418h1.936v8.778ZM496.32 182.498h18.04v1.65h-18.04v-1.65Zm25.171-8.272h11.858V190h-2.09v-13.882h-7.7V190h-2.068v-15.774Zm24.355 14.806a6.368 6.368 0 0 1-1.452.77 7.263 7.263 0 0 1-1.144.286 7.088 7.088 0 0 1-1.43.132c-1.922 0-3.381-.521-4.378-1.562-.998-1.041-1.496-2.501-1.496-4.378 0-.924.132-1.753.396-2.486.278-.733.66-1.349 1.144-1.848a4.763 4.763 0 0 1 1.716-1.166 5.478 5.478 0 0 1 2.156-.418c.821 0 1.554.139 2.2.418a3.879 3.879 0 0 1 1.584 1.232c.425.543.711 1.217.858 2.024.161.792.161 1.716 0 2.772h-8.052c.073 1.232.44 2.156 1.1 2.772.66.601 1.642.902 2.948.902.88 0 1.635-.125 2.266-.374.63-.249 1.158-.521 1.584-.814v1.738Zm-4.532-8.954c-.836 0-1.555.257-2.156.77-.602.513-.983 1.291-1.144 2.332h6.138c.058-1.056-.184-1.833-.726-2.332-.543-.513-1.247-.77-2.112-.77Zm13.026 10.142c-.88 0-1.643-.205-2.288-.616-.631-.411-1.137-.975-1.518-1.694v5.984h-1.936v-15.312h1.694l.198 2.222c.381-.748.894-1.342 1.54-1.782.645-.44 1.444-.66 2.398-.66a4.9 4.9 0 0 1 1.892.374 4.148 4.148 0 0 1 1.606 1.1c.469.484.836 1.1 1.1 1.848.278.733.418 1.599.418 2.596 0 1.012-.14 1.892-.418 2.64-.279.733-.653 1.349-1.122 1.848a4.706 4.706 0 0 1-1.628 1.1 5.388 5.388 0 0 1-1.936.352Zm-.286-1.738c1.012 0 1.826-.345 2.442-1.034.63-.704.946-1.76.946-3.168 0-1.379-.316-2.42-.946-3.124-.616-.719-1.43-1.078-2.442-1.078-.499 0-.968.088-1.408.264-.426.176-.8.44-1.122.792-.308.337-.558.77-.748 1.298-.176.528-.264 1.144-.264 1.848 0 .704.088 1.32.264 1.848.19.528.44.968.748 1.32.322.352.696.616 1.122.792.44.161.909.242 1.408.242Zm16.821.55a6.113 6.113 0 0 1-.594.374 6.934 6.934 0 0 1-.858.396 7.235 7.235 0 0 1-1.144.286 7.081 7.081 0 0 1-1.43.132c-1.921 0-3.381-.521-4.378-1.562-.997-1.041-1.496-2.501-1.496-4.378 0-.924.132-1.753.396-2.486.279-.733.66-1.349 1.144-1.848a4.763 4.763 0 0 1 1.716-1.166 5.481 5.481 0 0 1 2.156-.418c.821 0 1.555.139 2.2.418a3.879 3.879 0 0 1 1.584 1.232c.425.543.711 1.217.858 2.024.161.792.161 1.716 0 2.772h-8.052c.073 1.232.44 2.156 1.1 2.772.66.601 1.643.902 2.948.902.88 0 1.635-.125 2.266-.374s1.159-.521 1.584-.814v1.738Zm-4.532-8.954c-.836 0-1.555.257-2.156.77-.601.513-.983 1.291-1.144 2.332h6.138c.059-1.056-.183-1.833-.726-2.332-.543-.513-1.247-.77-2.112-.77Zm10.232 5.06h-1.012V190h-1.936v-11.418h1.936v4.906h1.1l4.004-4.906h2.2l-4.686 5.632 4.774 5.786h-2.354l-4.026-4.862Zm14.159 5.082c-.88 0-1.642-.205-2.288-.616-.63-.411-1.136-.975-1.518-1.694v5.984h-1.936v-15.312h1.694l.198 2.222c.382-.748.895-1.342 1.54-1.782.646-.44 1.445-.66 2.398-.66.66 0 1.291.125 1.892.374a4.14 4.14 0 0 1 1.606 1.1c.47.484.836 1.1 1.1 1.848.279.733.418 1.599.418 2.596 0 1.012-.139 1.892-.418 2.64-.278.733-.652 1.349-1.122 1.848a4.697 4.697 0 0 1-1.628 1.1 5.384 5.384 0 0 1-1.936.352Zm-.286-1.738c1.012 0 1.826-.345 2.442-1.034.631-.704.946-1.76.946-3.168 0-1.379-.315-2.42-.946-3.124-.616-.719-1.43-1.078-2.442-1.078-.498 0-.968.088-1.408.264a3.14 3.14 0 0 0-1.122.792c-.308.337-.557.77-.748 1.298-.176.528-.264 1.144-.264 1.848 0 .704.088 1.32.264 1.848.191.528.44.968.748 1.32a3.14 3.14 0 0 0 1.122.792c.44.161.91.242 1.408.242Zm16.184-2.288c0 .66-.118 1.232-.352 1.716a3.13 3.13 0 0 1-.99 1.188 4.38 4.38 0 0 1-1.518.682 7.868 7.868 0 0 1-1.914.22h-3.674v-11.418h1.936v3.982h1.87c1.452 0 2.588.286 3.41.858.821.572 1.232 1.496 1.232 2.772Zm3.586 3.806h-1.936v-11.418h1.936V190Zm-10.098-5.786v4.136h1.738c.836 0 1.51-.154 2.024-.462.528-.323.792-.851.792-1.584 0-.748-.235-1.283-.704-1.606-.47-.323-1.13-.484-1.98-.484h-1.87Zm17.873-3.982V190h-1.936v-9.768h-3.586v-1.65h9.174v1.65h-3.652Zm7.822 7.128 6.094-8.778h1.958V190h-1.936v-8.756L625.859 190h-1.98v-11.418h1.936v8.778Zm20.298 1.672a6.113 6.113 0 0 1-.594.374 6.8 6.8 0 0 1-.858.396 7.207 7.207 0 0 1-1.144.286 7.081 7.081 0 0 1-1.43.132c-1.921 0-3.38-.521-4.378-1.562-.997-1.041-1.496-2.501-1.496-4.378 0-.924.132-1.753.396-2.486.279-.733.66-1.349 1.144-1.848a4.763 4.763 0 0 1 1.716-1.166 5.481 5.481 0 0 1 2.156-.418c.822 0 1.555.139 2.2.418a3.865 3.865 0 0 1 1.584 1.232c.426.543.712 1.217.858 2.024.162.792.162 1.716 0 2.772h-8.052c.074 1.232.44 2.156 1.1 2.772.66.601 1.643.902 2.948.902.88 0 1.636-.125 2.266-.374.631-.249 1.159-.521 1.584-.814v1.738Zm-4.532-8.954c-.836 0-1.554.257-2.156.77-.601.513-.982 1.291-1.144 2.332h6.138c.059-1.056-.183-1.833-.726-2.332-.542-.513-1.246-.77-2.112-.77Zm-145.261 28.42h18.04v1.65h-18.04v-1.65Zm28.911.748h-1.672V216h-2.068v-15.774h2.068v7.15h1.54l5.632-7.15h2.332l-6.226 7.876 6.468 7.898h-2.574l-5.5-6.754Zm14.217 6.974a5.919 5.919 0 0 1-2.178-.396 5.06 5.06 0 0 1-1.76-1.144 5.564 5.564 0 0 1-1.144-1.87c-.279-.733-.418-1.577-.418-2.53 0-.939.139-1.775.418-2.508.278-.748.66-1.371 1.144-1.87a5.06 5.06 0 0 1 1.76-1.144 5.919 5.919 0 0 1 2.178-.396c.792 0 1.525.132 2.2.396a4.854 4.854 0 0 1 1.738 1.144c.498.499.887 1.122 1.166 1.87.293.733.44 1.569.44 2.508 0 .953-.147 1.797-.44 2.53a5.41 5.41 0 0 1-1.166 1.87 4.854 4.854 0 0 1-1.738 1.144 5.986 5.986 0 0 1-2.2.396Zm0-1.738c.513 0 .982-.081 1.408-.242.44-.176.821-.433 1.144-.77.322-.352.572-.792.748-1.32.176-.528.264-1.151.264-1.87 0-.719-.088-1.342-.264-1.87-.176-.528-.426-.961-.748-1.298a2.874 2.874 0 0 0-1.144-.77 3.652 3.652 0 0 0-1.408-.264c-.514 0-.983.088-1.408.264-.426.161-.8.418-1.122.77-.308.337-.55.77-.726 1.298-.176.528-.264 1.151-.264 1.87 0 .719.088 1.342.264 1.87.176.528.418.968.726 1.32.322.337.696.594 1.122.77.425.161.894.242 1.408.242Zm15.362-3.542h-5.522V216h-1.936v-11.418h1.936v4.708h5.522v-4.708h1.936V216h-1.936v-5.06Zm9.708-4.708V216h-1.936v-9.768h-3.586v-1.65h9.174v1.65h-3.652Zm11.628 9.988c-.88 0-1.642-.205-2.288-.616-.63-.411-1.136-.975-1.518-1.694v5.984h-1.936v-15.312h1.694l.198 2.222c.382-.748.895-1.342 1.54-1.782.646-.44 1.445-.66 2.398-.66.66 0 1.291.125 1.892.374a4.14 4.14 0 0 1 1.606 1.1c.47.484.836 1.1 1.1 1.848.279.733.418 1.599.418 2.596 0 1.012-.139 1.892-.418 2.64-.278.733-.652 1.349-1.122 1.848a4.697 4.697 0 0 1-1.628 1.1 5.384 5.384 0 0 1-1.936.352Zm-.286-1.738c1.012 0 1.826-.345 2.442-1.034.631-.704.946-1.76.946-3.168 0-1.379-.315-2.42-.946-3.124-.616-.719-1.43-1.078-2.442-1.078-.498 0-.968.088-1.408.264a3.14 3.14 0 0 0-1.122.792c-.308.337-.557.77-.748 1.298-.176.528-.264 1.144-.264 1.848 0 .704.088 1.32.264 1.848.191.528.44.968.748 1.32a3.14 3.14 0 0 0 1.122.792c.44.161.91.242 1.408.242Zm12.422 1.738a5.919 5.919 0 0 1-2.178-.396 5.06 5.06 0 0 1-1.76-1.144 5.564 5.564 0 0 1-1.144-1.87c-.279-.733-.418-1.577-.418-2.53 0-.939.139-1.775.418-2.508.278-.748.66-1.371 1.144-1.87a5.06 5.06 0 0 1 1.76-1.144 5.919 5.919 0 0 1 2.178-.396c.792 0 1.525.132 2.2.396a4.854 4.854 0 0 1 1.738 1.144c.498.499.887 1.122 1.166 1.87.293.733.44 1.569.44 2.508 0 .953-.147 1.797-.44 2.53a5.41 5.41 0 0 1-1.166 1.87 4.854 4.854 0 0 1-1.738 1.144 5.986 5.986 0 0 1-2.2.396Zm0-1.738c.513 0 .982-.081 1.408-.242.44-.176.821-.433 1.144-.77.322-.352.572-.792.748-1.32.176-.528.264-1.151.264-1.87 0-.719-.088-1.342-.264-1.87-.176-.528-.426-.961-.748-1.298a2.874 2.874 0 0 0-1.144-.77 3.652 3.652 0 0 0-1.408-.264c-.514 0-.983.088-1.408.264-.426.161-.8.418-1.122.77-.308.337-.55.77-.726 1.298-.176.528-.264 1.151-.264 1.87 0 .719.088 1.342.264 1.87.176.528.418.968.726 1.32.322.337.696.594 1.122.77.425.161.894.242 1.408.242Zm8.461-2.024c.206-.748.338-1.76.396-3.036.059-1.276.088-2.889.088-4.84h7.678V216h-1.958v-9.768h-3.894a66.858 66.858 0 0 1-.154 4.18c-.073 1.217-.242 2.244-.506 3.08-.249.836-.623 1.474-1.122 1.914-.484.425-1.136.638-1.958.638h-.176c-.058 0-.124-.007-.198-.022v-1.914c.074.015.169.022.286.022.748 0 1.254-.557 1.518-1.672Zm19.794-.264c0 .66-.117 1.232-.352 1.716a3.13 3.13 0 0 1-.99 1.188 4.363 4.363 0 0 1-1.518.682 7.868 7.868 0 0 1-1.914.22h-3.784v-11.418h1.936v3.982h1.98c1.452 0 2.589.286 3.41.858.821.572 1.232 1.496 1.232 2.772Zm-6.622-1.98v4.136h1.848c.836 0 1.511-.154 2.024-.462.528-.323.792-.851.792-1.584 0-.748-.235-1.283-.704-1.606-.469-.323-1.129-.484-1.98-.484h-1.98Zm16.869.924h-1.012V216h-1.936v-11.418h1.936v4.906h1.1l4.004-4.906h2.2l-4.686 5.632 4.774 5.786h-2.354l-4.026-4.862Zm14.89 2.684c-.132.264-.3.543-.506.836a3.819 3.819 0 0 1-1.87 1.342c-.41.147-.894.22-1.452.22-1.026 0-1.855-.286-2.486-.858-.63-.587-.946-1.423-.946-2.508 0-1.247.433-2.163 1.298-2.75.88-.587 2.127-.88 3.74-.88h2.134v-.946c0-.792-.205-1.357-.616-1.694-.41-.337-1.114-.506-2.112-.506-.704 0-1.371.117-2.002.352-.63.22-1.195.477-1.694.77v-1.738c.411-.249.961-.491 1.65-.726a6.883 6.883 0 0 1 2.31-.374c1.438 0 2.53.301 3.278.902.748.587 1.122 1.503 1.122 2.75v6.6c.015.161.022.33.022.506l.044.506c.015.147.03.271.044.374h-1.76a10.007 10.007 0 0 1-.132-.858 13.315 13.315 0 0 1-.044-.99l-.022-.33Zm-3.41.66c.602 0 1.115-.125 1.54-.374.426-.249.77-.535 1.034-.858.264-.337.455-.66.572-.968.118-.323.176-.55.176-.682v-.836h-1.936c-1.158 0-2.002.169-2.53.506-.513.323-.77.814-.77 1.474 0 .513.154.931.462 1.254.308.323.792.484 1.452.484ZM655.088 216h-1.936v-5.016a4.61 4.61 0 0 1-1.386.726c-.513.161-1.1.242-1.76.242-1.291 0-2.281-.315-2.97-.946-.675-.645-1.012-1.672-1.012-3.08v-3.344h1.958v3.366c0 .895.205 1.518.616 1.87.411.352.99.528 1.738.528a5.12 5.12 0 0 0 1.496-.22 4.046 4.046 0 0 0 1.32-.682v-4.862h1.936V216Zm12.252-.968a6.113 6.113 0 0 1-.594.374 6.934 6.934 0 0 1-.858.396 7.235 7.235 0 0 1-1.144.286 7.081 7.081 0 0 1-1.43.132c-1.921 0-3.381-.521-4.378-1.562-.997-1.041-1.496-2.501-1.496-4.378 0-.924.132-1.753.396-2.486.279-.733.66-1.349 1.144-1.848a4.763 4.763 0 0 1 1.716-1.166 5.481 5.481 0 0 1 2.156-.418c.821 0 1.555.139 2.2.418a3.879 3.879 0 0 1 1.584 1.232c.425.543.711 1.217.858 2.024.161.792.161 1.716 0 2.772h-8.052c.073 1.232.44 2.156 1.1 2.772.66.601 1.643.902 2.948.902.88 0 1.635-.125 2.266-.374s1.159-.521 1.584-.814v1.738Zm-4.532-8.954c-.836 0-1.555.257-2.156.77-.601.513-.983 1.291-1.144 2.332h6.138c.059-1.056-.183-1.833-.726-2.332-.543-.513-1.247-.77-2.112-.77Zm12.212 10.142c-.88 0-1.68-.132-2.398-.396a5.24 5.24 0 0 1-1.804-1.166 5.138 5.138 0 0 1-1.144-1.87c-.264-.733-.396-1.569-.396-2.508 0-.924.132-1.753.396-2.486.278-.733.667-1.349 1.166-1.848a4.819 4.819 0 0 1 1.826-1.166c.718-.279 1.532-.418 2.442-.418.704 0 1.349.081 1.936.242.586.147 1.07.367 1.452.66v1.738a5.151 5.151 0 0 0-1.584-.682 6.546 6.546 0 0 0-1.782-.242c-1.335 0-2.318.345-2.948 1.034-.616.689-.924 1.745-.924 3.168s.3 2.479.902 3.168c.601.689 1.554 1.034 2.86 1.034.689 0 1.32-.081 1.892-.242a7.815 7.815 0 0 0 1.584-.66v1.738c-.411.249-.91.462-1.496.638-.572.176-1.232.264-1.98.264Zm10.67-9.988V216h-1.936v-9.768h-3.586v-1.65h9.174v1.65h-3.652Zm5.886-1.65h4.268c1.379 0 2.42.242 3.124.726.704.469 1.056 1.21 1.056 2.222 0 .675-.176 1.217-.528 1.628-.337.396-.821.682-1.452.858 1.628.264 2.442 1.166 2.442 2.706 0 .587-.117 1.093-.352 1.518a2.891 2.891 0 0 1-.968 1.012c-.41.264-.909.455-1.496.572a9.334 9.334 0 0 1-1.87.176h-4.224v-11.418Zm1.936 1.65v3.102h2.156c.734 0 1.32-.132 1.76-.396.455-.264.682-.645.682-1.144 0-.601-.198-1.012-.594-1.232-.396-.22-.96-.33-1.694-.33h-2.31Zm0 4.642v3.476h2.266a8.2 8.2 0 0 0 1.1-.066c.338-.059.624-.154.858-.286.25-.132.44-.308.572-.528.132-.22.198-.491.198-.814 0-.66-.227-1.122-.682-1.386-.454-.264-1.136-.396-2.046-.396h-2.266Zm16.569 2.948a6.704 6.704 0 0 1-.506.836 3.845 3.845 0 0 1-.77.77 3.9 3.9 0 0 1-1.1.572c-.411.147-.895.22-1.452.22-1.027 0-1.856-.286-2.486-.858-.631-.587-.946-1.423-.946-2.508 0-1.247.432-2.163 1.298-2.75.88-.587 2.126-.88 3.74-.88h2.134v-.946c0-.792-.206-1.357-.616-1.694-.411-.337-1.115-.506-2.112-.506-.704 0-1.372.117-2.002.352a9.51 9.51 0 0 0-1.694.77v-1.738c.41-.249.96-.491 1.65-.726a6.883 6.883 0 0 1 2.31-.374c1.437 0 2.53.301 3.278.902.748.587 1.122 1.503 1.122 2.75v6.6c.014.161.022.33.022.506.014.176.029.345.044.506.014.147.029.271.044.374h-1.76a10.007 10.007 0 0 1-.132-.858c-.03-.381-.044-.711-.044-.99l-.022-.33Zm-3.41.66c.601 0 1.114-.125 1.54-.374a3.79 3.79 0 0 0 1.034-.858c.264-.337.454-.66.572-.968.117-.323.176-.55.176-.682v-.836h-1.936c-1.159 0-2.002.169-2.53.506-.514.323-.77.814-.77 1.474 0 .513.154.931.462 1.254.308.323.792.484 1.452.484ZM949.32 130.498h18.04v1.65h-18.04v-1.65Zm37.205 5.632h2.024v5.61h-1.914l-.22-3.74h-11.33l-.242 3.74h-1.87v-5.61h1.078c.498-.455.894-1.063 1.188-1.826.308-.777.542-1.731.704-2.86.161-1.129.278-2.457.352-3.982.073-1.525.132-3.271.176-5.236h10.054v13.904Zm-2.09 0v-12.012h-6.028c-.044 1.672-.11 3.153-.198 4.444a32.085 32.085 0 0 1-.352 3.366c-.147.968-.338 1.797-.572 2.486-.22.675-.499 1.247-.836 1.716h7.986Zm13.259-.308a6.704 6.704 0 0 1-.506.836 3.819 3.819 0 0 1-1.87 1.342c-.411.147-.895.22-1.452.22-1.027 0-1.855-.286-2.486-.858-.631-.587-.946-1.423-.946-2.508 0-1.247.433-2.163 1.298-2.75.88-.587 2.127-.88 3.74-.88h2.134v-.946c0-.792-.205-1.357-.616-1.694-.411-.337-1.115-.506-2.112-.506-.704 0-1.371.117-2.002.352a9.543 9.543 0 0 0-1.694.77v-1.738c.411-.249.961-.491 1.65-.726a6.883 6.883 0 0 1 2.31-.374c1.437 0 2.53.301 3.278.902.748.587 1.122 1.503 1.122 2.75v6.6c.015.161.022.33.022.506l.044.506c.015.147.029.271.044.374h-1.76a10.007 10.007 0 0 1-.132-.858 13.315 13.315 0 0 1-.044-.99l-.022-.33Zm-3.41.66c.601 0 1.115-.125 1.54-.374a3.79 3.79 0 0 0 1.034-.858c.264-.337.455-.66.572-.968.117-.323.176-.55.176-.682v-.836h-1.936c-1.159 0-2.002.169-2.53.506-.513.323-.77.814-.77 1.474 0 .513.154.931.462 1.254.308.323.792.484 1.452.484Zm15.756-3.542h-5.52V138h-1.93v-11.418h1.93v4.708h5.52v-4.708h1.94V138h-1.94v-5.06Zm12.57 0h-5.52V138h-1.94v-11.418h1.94v4.708h5.52v-4.708h1.94V138h-1.94v-5.06Zm13.56 1.254c0 .66-.12 1.232-.35 1.716-.24.484-.57.88-.99 1.188a4.39 4.39 0 0 1-1.52.682c-.59.147-1.22.22-1.91.22h-3.68v-11.418h1.94v3.982h1.87c1.45 0 2.59.286 3.41.858.82.572 1.23 1.496 1.23 2.772Zm3.59 3.806h-1.94v-11.418h1.94V138Zm-10.1-5.786v4.136h1.74c.83 0 1.51-.154 2.02-.462.53-.323.79-.851.79-1.584 0-.748-.23-1.283-.7-1.606-.47-.323-1.13-.484-1.98-.484h-1.87Zm22.36 4.818c-.16.117-.36.242-.59.374-.24.132-.53.264-.86.396-.34.117-.72.213-1.15.286-.42.088-.9.132-1.43.132-1.92 0-3.38-.521-4.37-1.562-1-1.041-1.5-2.501-1.5-4.378 0-.924.13-1.753.4-2.486.27-.733.66-1.349 1.14-1.848a4.744 4.744 0 0 1 1.72-1.166 5.441 5.441 0 0 1 2.15-.418c.82 0 1.56.139 2.2.418.65.279 1.17.689 1.59 1.232.42.543.71 1.217.85 2.024.16.792.16 1.716 0 2.772h-8.05c.07 1.232.44 2.156 1.1 2.772.66.601 1.64.902 2.95.902.88 0 1.63-.125 2.27-.374a8.045 8.045 0 0 0 1.58-.814v1.738Zm-4.53-8.954c-.84 0-1.56.257-2.16.77-.6.513-.98 1.291-1.14 2.332h6.14c.05-1.056-.19-1.833-.73-2.332-.54-.513-1.25-.77-2.11-.77Zm11.5 8.272c.41-.249.73-.638.97-1.166.23-.528.42-1.195.55-2.002.13-.807.22-1.76.26-2.86.06-1.1.11-2.347.16-3.74h7.85v9.768h1.72v4.906h-1.7l-.24-3.256h-8.49l-.2 3.256h-1.74v-4.906h.86Zm7.85 0v-8.118h-4.18c-.07 2.156-.21 3.887-.41 5.192-.2 1.291-.53 2.266-1.02 2.926h5.61Zm6.56-1.892c.2-.748.33-1.76.39-3.036s.09-2.889.09-4.84h7.68V138h-1.96v-9.768h-3.89a69.667 69.667 0 0 1-.16 4.18c-.07 1.217-.24 2.244-.5 3.08-.25.836-.63 1.474-1.12 1.914-.49.425-1.14.638-1.96.638h-.18c-.06 0-.12-.007-.2-.022v-1.914c.08.015.17.022.29.022.75 0 1.25-.557 1.52-1.672Zm11.3-4.18c0-.645.12-1.195.35-1.65.24-.469.57-.851.99-1.144a4.39 4.39 0 0 1 1.52-.682c.59-.147 1.22-.22 1.91-.22h3.68V138h-1.94v-4.136h-2.09L1086.2 138h-2.31l3.3-4.62c-.8-.235-1.41-.594-1.85-1.078-.43-.484-.64-1.159-.64-2.024Zm6.51 1.936v-3.982h-1.74c-.82 0-1.49.154-2.02.462-.53.308-.79.807-.79 1.496 0 .719.23 1.239.7 1.562.47.308 1.14.462 2 .462h1.85Zm18.04 2.464c0 .645-.13 1.195-.39 1.65-.25.44-.6.807-1.04 1.1a4.46 4.46 0 0 1-1.54.594c-.57.132-1.17.198-1.8.198-.84 0-1.58-.088-2.22-.264-.63-.176-1.13-.389-1.5-.638v-1.738c.45.279 1 .499 1.63.66a8.22 8.22 0 0 0 2.04.242c.84 0 1.54-.132 2.09-.396.58-.279.86-.748.86-1.408 0-.645-.24-1.1-.72-1.364-.47-.264-1.2-.396-2.18-.396h-1.52v-1.562h1.58c.81 0 1.43-.147 1.85-.44.43-.293.64-.719.64-1.276 0-.293-.07-.535-.22-.726a1.379 1.379 0 0 0-.55-.484c-.23-.132-.51-.22-.84-.264-.3-.059-.63-.088-.99-.088-.67 0-1.3.081-1.89.242a6.03 6.03 0 0 0-1.56.682v-1.738c.38-.249.87-.462 1.47-.638.62-.176 1.33-.264 2.14-.264 1.39 0 2.44.264 3.14.792.72.528 1.08 1.291 1.08 2.288 0 .748-.2 1.335-.61 1.76-.4.425-.96.719-1.7.88.91.117 1.59.403 2.05.858.47.455.7 1.034.7 1.738Zm9.53 1.144c-.13.264-.3.543-.51.836-.2.279-.46.535-.77.77-.3.235-.67.425-1.1.572-.41.147-.89.22-1.45.22-1.02 0-1.85-.286-2.48-.858-.63-.587-.95-1.423-.95-2.508 0-1.247.43-2.163 1.3-2.75.88-.587 2.12-.88 3.74-.88h2.13v-.946c0-.792-.2-1.357-.61-1.694-.41-.337-1.12-.506-2.12-.506-.7 0-1.37.117-2 .352-.63.22-1.19.477-1.69.77v-1.738c.41-.249.96-.491 1.65-.726a6.85 6.85 0 0 1 2.31-.374c1.44 0 2.53.301 3.28.902.74.587 1.12 1.503 1.12 2.75v6.6c.01.161.02.33.02.506.01.176.03.345.04.506.02.147.03.271.05.374h-1.76a7.218 7.218 0 0 1-.13-.858c-.03-.381-.05-.711-.05-.99l-.02-.33Zm-3.41.66c.6 0 1.11-.125 1.54-.374a3.64 3.64 0 0 0 1.03-.858c.27-.337.46-.66.58-.968.11-.323.17-.55.17-.682v-.836h-1.93c-1.16 0-2.01.169-2.53.506-.52.323-.77.814-.77 1.474 0 .513.15.931.46 1.254.31.323.79.484 1.45.484Zm7.79-.132c.41-.249.74-.638.97-1.166.24-.528.42-1.195.55-2.002.13-.807.22-1.76.27-2.86.05-1.1.11-2.347.15-3.74h7.85v9.768h1.72v4.906h-1.69l-.25-3.256h-8.49l-.2 3.256h-1.73v-4.906h.85Zm7.86 0v-8.118h-4.18c-.08 2.156-.22 3.887-.42 5.192-.19 1.291-.53 2.266-1.01 2.926h5.61Zm12.25-.528c-.13.264-.3.543-.5.836-.21.279-.47.535-.77.77-.31.235-.68.425-1.1.572-.41.147-.9.22-1.46.22-1.02 0-1.85-.286-2.48-.858-.63-.587-.95-1.423-.95-2.508 0-1.247.43-2.163 1.3-2.75.88-.587 2.13-.88 3.74-.88h2.13v-.946c0-.792-.2-1.357-.61-1.694-.41-.337-1.12-.506-2.11-.506-.71 0-1.38.117-2.01.352-.63.22-1.19.477-1.69.77v-1.738c.41-.249.96-.491 1.65-.726a6.85 6.85 0 0 1 2.31-.374c1.44 0 2.53.301 3.28.902.75.587 1.12 1.503 1.12 2.75v6.6c.01.161.02.33.02.506.02.176.03.345.05.506.01.147.03.271.04.374h-1.76a10.15 10.15 0 0 1-.13-.858c-.03-.381-.05-.711-.05-.99l-.02-.33Zm-3.41.66c.6 0 1.12-.125 1.54-.374.43-.249.77-.535 1.04-.858.26-.337.45-.66.57-.968.12-.323.17-.55.17-.682v-.836h-1.93c-1.16 0-2 .169-2.53.506-.52.323-.77.814-.77 1.474 0 .513.15.931.46 1.254.31.323.79.484 1.45.484Zm15.76-3.542h-5.52V138h-1.94v-11.418h1.94v4.708h5.52v-4.708h1.94V138h-1.94v-5.06Zm7.05 2.42 6.09-8.778h1.96V138h-1.94v-8.756l-6.07 8.756h-1.98v-11.418h1.94v8.778Zm16.25-10.296c-.59 0-1.1-.073-1.54-.22a3.305 3.305 0 0 1-1.08-.638 2.954 2.954 0 0 1-.64-.946c-.13-.367-.2-.763-.2-1.188h1.94c0 .557.13.961.4 1.21.28.249.65.374 1.12.374.47 0 .83-.125 1.1-.374.26-.249.39-.653.39-1.21h1.94c0 .836-.29 1.547-.86 2.134-.55.572-1.41.858-2.57.858Zm-3.1 10.296 6.09-8.778h1.96V138h-1.94v-8.756l-6.07 8.756h-1.98v-11.418h1.94v8.778Zm-226.5 51.138h18.04v1.65h-18.04v-1.65Zm25.171-8.272h11.858V194h-2.09v-13.882h-7.7V194h-2.068v-15.774Zm21.011 15.994c-.88 0-1.643-.205-2.288-.616-.631-.411-1.137-.975-1.518-1.694v5.984h-1.936v-15.312h1.694l.198 2.222c.381-.748.894-1.342 1.54-1.782.645-.44 1.444-.66 2.398-.66a4.9 4.9 0 0 1 1.892.374 4.148 4.148 0 0 1 1.606 1.1c.469.484.836 1.1 1.102 1.848.28.733.42 1.599.42 2.596 0 1.012-.14 1.892-.42 2.64-.281.733-.655 1.349-1.124 1.848a4.706 4.706 0 0 1-1.628 1.1 5.388 5.388 0 0 1-1.936.352Zm-.286-1.738c1.012 0 1.826-.345 2.442-1.034.63-.704.946-1.76.946-3.168 0-1.379-.316-2.42-.946-3.124-.616-.719-1.43-1.078-2.442-1.078-.499 0-.968.088-1.408.264-.426.176-.8.44-1.122.792-.308.337-.558.77-.748 1.298-.176.528-.264 1.144-.264 1.848 0 .704.088 1.32.264 1.848.19.528.44.968.748 1.32.322.352.696.616 1.122.792.44.161.909.242 1.408.242Zm14.314-.66c-.13.264-.3.543-.5.836-.21.279-.47.535-.77.77-.31.235-.68.425-1.1.572-.41.147-.9.22-1.46.22-1.02 0-1.85-.286-2.48-.858-.63-.587-.95-1.423-.95-2.508 0-1.247.43-2.163 1.3-2.75.88-.587 2.13-.88 3.74-.88h2.13v-.946c0-.792-.2-1.357-.61-1.694-.41-.337-1.12-.506-2.11-.506-.71 0-1.38.117-2.01.352-.63.22-1.19.477-1.69.77v-1.738c.41-.249.96-.491 1.65-.726a6.85 6.85 0 0 1 2.31-.374c1.44 0 2.53.301 3.28.902.75.587 1.12 1.503 1.12 2.75v6.6c.01.161.02.33.02.506.02.176.03.345.05.506.01.147.03.271.04.374h-1.76a10.15 10.15 0 0 1-.13-.858c-.03-.381-.05-.711-.05-.99l-.02-.33Zm-3.41.66c.6 0 1.12-.125 1.54-.374.43-.249.77-.535 1.04-.858.26-.337.45-.66.57-.968.12-.323.17-.55.17-.682v-.836h-1.93c-1.16 0-2 .169-2.53.506-.52.323-.77.814-.77 1.474 0 .513.15.931.46 1.254.31.323.79.484 1.45.484Zm8.3-9.9h4.27c1.38 0 2.42.242 3.13.726.7.469 1.05 1.21 1.05 2.222 0 .675-.17 1.217-.53 1.628-.33.396-.82.682-1.45.858 1.63.264 2.44 1.166 2.44 2.706 0 .587-.11 1.093-.35 1.518a2.87 2.87 0 0 1-.97 1.012c-.41.264-.91.455-1.49.572-.57.117-1.2.176-1.87.176h-4.23v-11.418Zm1.94 1.65v3.102h2.16c.73 0 1.32-.132 1.76-.396.45-.264.68-.645.68-1.144 0-.601-.2-1.012-.6-1.232-.39-.22-.96-.33-1.69-.33h-2.31Zm0 4.642v3.476h2.27c.41 0 .77-.022 1.1-.066.33-.059.62-.154.85-.286a1.5 1.5 0 0 0 .58-.528c.13-.22.19-.491.19-.814 0-.66-.22-1.122-.68-1.386-.45-.264-1.13-.396-2.04-.396h-2.27Zm11.82 2.486 6.09-8.778h1.96V194h-1.94v-8.756l-6.07 8.756h-1.98v-11.418h1.94v8.778Zm12.09-.902c.2-.748.34-1.76.39-3.036.06-1.276.09-2.889.09-4.84h7.68V194h-1.96v-9.768h-3.89a69.667 69.667 0 0 1-.16 4.18c-.07 1.217-.24 2.244-.5 3.08-.25.836-.62 1.474-1.12 1.914-.49.425-1.14.638-1.96.638h-.18c-.06 0-.12-.007-.2-.022v-1.914c.08.015.17.022.29.022.75 0 1.25-.557 1.52-1.672Zm19.79-.264c0 .66-.12 1.232-.35 1.716-.23.484-.56.88-.99 1.188a4.39 4.39 0 0 1-1.52.682c-.58.147-1.22.22-1.91.22h-3.79v-11.418h1.94v3.982h1.98c1.45 0 2.59.286 3.41.858.82.572 1.23 1.496 1.23 2.772Zm-6.62-1.98v4.136h1.85c.83 0 1.51-.154 2.02-.462.53-.323.79-.851.79-1.584 0-.748-.23-1.283-.7-1.606-.47-.323-1.13-.484-1.98-.484h-1.98Zm16.55.726h-5.53V194h-1.93v-11.418h1.93v4.708h5.53v-4.708h1.93V194h-1.93v-5.06Zm13.55 1.254c0 .66-.11 1.232-.35 1.716-.23.484-.56.88-.99 1.188-.42.308-.93.535-1.52.682-.58.147-1.22.22-1.91.22h-3.67v-11.418h1.93v3.982h1.87c1.45 0 2.59.286 3.41.858.82.572 1.23 1.496 1.23 2.772Zm3.59 3.806h-1.94v-11.418h1.94V194Zm-10.1-5.786v4.136h1.74c.84 0 1.51-.154 2.02-.462.53-.323.8-.851.8-1.584 0-.748-.24-1.283-.71-1.606-.47-.323-1.13-.484-1.98-.484h-1.87Zm22.36 4.818c-.16.117-.36.242-.59.374-.24.132-.52.264-.86.396-.34.117-.72.213-1.14.286-.43.088-.91.132-1.43.132-1.92 0-3.38-.521-4.38-1.562s-1.5-2.501-1.5-4.378c0-.924.13-1.753.4-2.486.28-.733.66-1.349 1.14-1.848a4.83 4.83 0 0 1 1.72-1.166 5.476 5.476 0 0 1 2.15-.418c.83 0 1.56.139 2.2.418.65.279 1.18.689 1.59 1.232.42.543.71 1.217.86 2.024.16.792.16 1.716 0 2.772h-8.06c.08 1.232.44 2.156 1.1 2.772.66.601 1.65.902 2.95.902.88 0 1.64-.125 2.27-.374.63-.249 1.16-.521 1.58-.814v1.738Zm-4.53-8.954c-.84 0-1.55.257-2.16.77-.6.513-.98 1.291-1.14 2.332h6.14c.06-1.056-.18-1.833-.73-2.332-.54-.513-1.24-.77-2.11-.77Zm16.8 10.142c-.77 0-1.5-.132-2.17-.396a5.032 5.032 0 0 1-1.76-1.144c-.49-.513-.87-1.137-1.15-1.87-.28-.733-.42-1.577-.42-2.53 0-.939.14-1.775.42-2.508.28-.748.66-1.371 1.15-1.87.5-.499 1.08-.88 1.76-1.144.67-.264 1.4-.396 2.17-.396.8 0 1.53.132 2.2.396.68.264 1.26.645 1.74 1.144.5.499.89 1.122 1.17 1.87.29.733.44 1.569.44 2.508 0 .953-.15 1.797-.44 2.53a5.403 5.403 0 0 1-1.17 1.87c-.48.499-1.06.88-1.74 1.144-.67.264-1.4.396-2.2.396Zm0-1.738c.52 0 .99-.081 1.41-.242.44-.176.82-.433 1.15-.77.32-.352.57-.792.74-1.32.18-.528.27-1.151.27-1.87 0-.719-.09-1.342-.27-1.87-.17-.528-.42-.961-.74-1.298a2.944 2.944 0 0 0-1.15-.77 3.616 3.616 0 0 0-1.41-.264 3.6 3.6 0 0 0-1.4.264c-.43.161-.8.418-1.13.77-.3.337-.55.77-.72 1.298-.18.528-.27 1.151-.27 1.87 0 .719.09 1.342.27 1.87.17.528.42.968.72 1.32.33.337.7.594 1.13.77.42.161.89.242 1.4.242Zm12.18-8.25V194h-1.93v-9.768h-3.59v-1.65h9.18v1.65h-3.66Zm5.89-1.65h4.27c1.38 0 2.42.242 3.12.726.71.469 1.06 1.21 1.06 2.222 0 .675-.18 1.217-.53 1.628-.34.396-.82.682-1.45.858 1.63.264 2.44 1.166 2.44 2.706 0 .587-.12 1.093-.35 1.518a2.96 2.96 0 0 1-.97 1.012c-.41.264-.91.455-1.5.572-.57.117-1.19.176-1.87.176h-4.22v-11.418Zm1.94 1.65v3.102h2.15c.74 0 1.32-.132 1.76-.396.46-.264.68-.645.68-1.144 0-.601-.19-1.012-.59-1.232-.4-.22-.96-.33-1.69-.33h-2.31Zm0 4.642v3.476h2.26c.41 0 .78-.022 1.1-.066.34-.059.63-.154.86-.286.25-.132.44-.308.57-.528.13-.22.2-.491.2-.814 0-.66-.23-1.122-.68-1.386-.46-.264-1.14-.396-2.05-.396h-2.26Zm18.96 4.158c-.16.117-.36.242-.59.374-.24.132-.52.264-.86.396-.34.117-.72.213-1.14.286-.43.088-.91.132-1.43.132-1.92 0-3.38-.521-4.38-1.562s-1.5-2.501-1.5-4.378c0-.924.13-1.753.4-2.486.28-.733.66-1.349 1.14-1.848a4.83 4.83 0 0 1 1.72-1.166 5.476 5.476 0 0 1 2.15-.418c.83 0 1.56.139 2.2.418.65.279 1.18.689 1.59 1.232.42.543.71 1.217.86 2.024.16.792.16 1.716 0 2.772h-8.06c.08 1.232.44 2.156 1.1 2.772.66.601 1.65.902 2.95.902.88 0 1.64-.125 2.27-.374.63-.249 1.16-.521 1.58-.814v1.738Zm-4.53-8.954c-.84 0-1.55.257-2.16.77-.6.513-.98 1.291-1.14 2.332h6.14c.06-1.056-.18-1.833-.73-2.332-.54-.513-1.24-.77-2.11-.77Zm11.78.154V194h-1.94v-9.768h-3.59v-1.65h9.18v1.65h-3.65Zm14.33 5.962c0 .66-.12 1.232-.35 1.716-.24.484-.57.88-.99 1.188a4.39 4.39 0 0 1-1.52.682c-.59.147-1.22.22-1.91.22h-3.68v-11.418h1.94v3.982h1.87c1.45 0 2.59.286 3.41.858.82.572 1.23 1.496 1.23 2.772Zm3.59 3.806h-1.94v-11.418h1.94V194Zm-10.1-5.786v4.136h1.74c.83 0 1.51-.154 2.02-.462.53-.323.79-.851.79-1.584 0-.748-.23-1.283-.7-1.606-.47-.323-1.13-.484-1.98-.484h-1.87Zm-216.38 24.284h18.04v1.65h-18.04v-1.65Zm25.171-8.272h11.858V220h-2.09v-13.882h-7.7V220h-2.068v-15.774Zm19.955 15.994a5.919 5.919 0 0 1-2.178-.396 5.06 5.06 0 0 1-1.76-1.144 5.564 5.564 0 0 1-1.144-1.87c-.279-.733-.418-1.577-.418-2.53 0-.939.139-1.775.418-2.508.278-.748.66-1.371 1.144-1.87a5.06 5.06 0 0 1 1.76-1.144 5.919 5.919 0 0 1 2.178-.396c.792 0 1.525.132 2.2.396a4.854 4.854 0 0 1 1.738 1.144c.498.499.887 1.122 1.166 1.87.293.733.44 1.569.44 2.508 0 .953-.147 1.797-.44 2.53a5.41 5.41 0 0 1-1.166 1.87 4.854 4.854 0 0 1-1.738 1.144 5.986 5.986 0 0 1-2.2.396Zm0-1.738c.513 0 .982-.081 1.408-.242.44-.176.821-.433 1.144-.77.322-.352.572-.792.748-1.32.176-.528.264-1.151.264-1.87 0-.719-.088-1.342-.264-1.87-.176-.528-.426-.961-.748-1.298a2.874 2.874 0 0 0-1.144-.77 3.652 3.652 0 0 0-1.408-.264c-.514 0-.983.088-1.408.264-.426.161-.8.418-1.122.77-.308.337-.55.77-.726 1.298-.176.528-.264 1.151-.264 1.87 0 .719.088 1.342.264 1.87.176.528.418.968.726 1.32.322.337.696.594 1.122.77.425.161.894.242 1.408.242Zm7.184-.132c.41-.249.73-.638.96-1.166.24-.528.42-1.195.55-2.002.14-.807.22-1.76.27-2.86.06-1.1.11-2.347.15-3.74h7.86v9.768h1.71v4.906h-1.69l-.24-3.256h-8.5l-.19 3.256h-1.74v-4.906h.86Zm7.85 0v-8.118h-4.18c-.07 2.156-.21 3.887-.42 5.192-.19 1.291-.53 2.266-1.01 2.926h5.61Zm10.39 1.87c-.88 0-1.68-.132-2.4-.396-.7-.279-1.31-.667-1.8-1.166-.5-.513-.88-1.137-1.15-1.87-.26-.733-.39-1.569-.39-2.508 0-.924.13-1.753.39-2.486.28-.733.67-1.349 1.17-1.848.5-.513 1.1-.902 1.82-1.166.72-.279 1.54-.418 2.45-.418.7 0 1.34.081 1.93.242.59.147 1.07.367 1.45.66v1.738a5.087 5.087 0 0 0-1.58-.682 6.553 6.553 0 0 0-1.78-.242c-1.34 0-2.32.345-2.95 1.034-.62.689-.92 1.745-.92 3.168s.3 2.479.9 3.168c.6.689 1.55 1.034 2.86 1.034.69 0 1.32-.081 1.89-.242a7.683 7.683 0 0 0 1.58-.66v1.738c-.41.249-.91.462-1.49.638-.57.176-1.23.264-1.98.264Zm9.02-5.082h-1.01V220h-1.94v-11.418h1.94v4.906h1.1l4-4.906h2.2l-4.69 5.632 4.78 5.786h-2.36l-4.02-4.862Zm14.89 2.684c-.13.264-.3.543-.51.836-.2.279-.46.535-.77.77s-.67.425-1.1.572c-.41.147-.89.22-1.45.22-1.03 0-1.86-.286-2.49-.858-.63-.587-.94-1.423-.94-2.508 0-1.247.43-2.163 1.3-2.75.88-.587 2.12-.88 3.74-.88h2.13v-.946c0-.792-.21-1.357-.62-1.694-.41-.337-1.11-.506-2.11-.506-.7 0-1.37.117-2 .352-.63.22-1.2.477-1.69.77v-1.738c.41-.249.96-.491 1.65-.726a6.85 6.85 0 0 1 2.31-.374c1.43 0 2.53.301 3.27.902.75.587 1.13 1.503 1.13 2.75v6.6c.01.161.02.33.02.506.01.176.03.345.04.506.02.147.03.271.05.374h-1.76a9.478 9.478 0 0 1-.14-.858c-.03-.381-.04-.711-.04-.99l-.02-.33Zm-3.41.66c.6 0 1.11-.125 1.54-.374.42-.249.77-.535 1.03-.858.27-.337.46-.66.57-.968.12-.323.18-.55.18-.682v-.836h-1.94c-1.15 0-2 .169-2.53.506-.51.323-.77.814-.77 1.474 0 .513.16.931.47 1.254.3.323.79.484 1.45.484Zm16.4-1.804c0 .645-.14 1.195-.4 1.65-.25.44-.59.807-1.03 1.1a4.54 4.54 0 0 1-1.54.594 8.11 8.11 0 0 1-1.81.198c-.83 0-1.57-.088-2.22-.264-.63-.176-1.13-.389-1.5-.638v-1.738c.46.279 1 .499 1.63.66.63.161 1.31.242 2.05.242.83 0 1.53-.132 2.09-.396.57-.279.86-.748.86-1.408 0-.645-.25-1.1-.73-1.364-.47-.264-1.2-.396-2.18-.396h-1.52v-1.562h1.59c.8 0 1.42-.147 1.85-.44.42-.293.63-.719.63-1.276 0-.293-.07-.535-.22-.726a1.315 1.315 0 0 0-.55-.484 2.29 2.29 0 0 0-.83-.264 5.293 5.293 0 0 0-.99-.088c-.68 0-1.31.081-1.89.242-.58.161-1.1.389-1.57.682v-1.738c.39-.249.88-.462 1.48-.638.61-.176 1.33-.264 2.13-.264 1.4 0 2.44.264 3.15.792.72.528 1.08 1.291 1.08 2.288 0 .748-.21 1.335-.62 1.76-.4.425-.96.719-1.69.88.91.117 1.59.403 2.04.858.47.455.71 1.034.71 1.738Zm5.78-1.54h-1.01V220h-1.93v-11.418h1.93v4.906h1.1l4.01-4.906h2.2l-4.69 5.632 4.77 5.786h-2.35l-4.03-4.862Zm10.36 2.222 6.09-8.778h1.96V220h-1.94v-8.756l-6.07 8.756h-1.98v-11.418h1.94v8.778Zm15.43.99c.41-.249.73-.638.97-1.166.23-.528.41-1.195.55-2.002.13-.807.22-1.76.26-2.86.06-1.1.11-2.347.15-3.74h7.86v9.768h1.71v4.906h-1.69l-.24-3.256h-8.49l-.2 3.256h-1.74v-4.906h.86Zm7.85 0v-8.118h-4.18c-.07 2.156-.21 3.887-.42 5.192-.19 1.291-.52 2.266-1.01 2.926h5.61Zm6.56-1.892c.2-.748.33-1.76.39-3.036s.09-2.889.09-4.84h7.68V220h-1.96v-9.768h-3.89a69.667 69.667 0 0 1-.16 4.18c-.07 1.217-.24 2.244-.5 3.08-.25.836-.63 1.474-1.13 1.914-.48.425-1.13.638-1.95.638h-.18a.977.977 0 0 1-.2-.022v-1.914c.07.015.17.022.29.022.75 0 1.25-.557 1.52-1.672Zm11.3-4.18c0-.645.11-1.195.35-1.65.23-.469.56-.851.99-1.144.42-.308.93-.535 1.52-.682.58-.147 1.22-.22 1.91-.22h3.67V220h-1.93v-4.136h-2.09l-2.93 4.136h-2.31l3.3-4.62c-.79-.235-1.41-.594-1.85-1.078-.42-.484-.63-1.159-.63-2.024Zm6.51 1.936v-3.982h-1.74c-.82 0-1.5.154-2.02.462-.53.308-.8.807-.8 1.496 0 .719.24 1.239.71 1.562.47.308 1.14.462 2 .462h1.85Zm14.63 6.006c-.78 0-1.5-.132-2.18-.396a5.124 5.124 0 0 1-1.76-1.144c-.48-.513-.86-1.137-1.14-1.87-.28-.733-.42-1.577-.42-2.53 0-.939.14-1.775.42-2.508.28-.748.66-1.371 1.14-1.87.5-.499 1.09-.88 1.76-1.144.68-.264 1.4-.396 2.18-.396.79 0 1.53.132 2.2.396a4.95 4.95 0 0 1 1.74 1.144c.5.499.89 1.122 1.16 1.87.3.733.44 1.569.44 2.508 0 .953-.14 1.797-.44 2.53a5.24 5.24 0 0 1-1.16 1.87 4.95 4.95 0 0 1-1.74 1.144c-.67.264-1.41.396-2.2.396Zm0-1.738c.51 0 .98-.081 1.41-.242.44-.176.82-.433 1.14-.77.32-.352.57-.792.75-1.32.18-.528.26-1.151.26-1.87 0-.719-.08-1.342-.26-1.87s-.43-.961-.75-1.298a2.84 2.84 0 0 0-1.14-.77c-.43-.176-.9-.264-1.41-.264-.51 0-.98.088-1.41.264-.42.161-.8.418-1.12.77-.31.337-.55.77-.73 1.298-.17.528-.26 1.151-.26 1.87 0 .719.09 1.342.26 1.87.18.528.42.968.73 1.32.32.337.7.594 1.12.77.43.161.9.242 1.41.242Zm18.2-4.202c0 .953-.15 1.797-.44 2.53a5.403 5.403 0 0 1-1.17 1.87c-.48.499-1.06.88-1.73 1.144-.68.264-1.41.396-2.2.396-.81 0-1.55-.132-2.23-.396a4.584 4.584 0 0 1-1.73-1.254c-.49-.557-.87-1.261-1.15-2.112-.26-.851-.39-1.855-.39-3.014 0-.953.03-1.863.08-2.728.06-.865.19-1.665.4-2.398.21-.748.5-1.415.88-2.002.4-.601.92-1.1 1.58-1.496.37-.22.75-.381 1.15-.484.39-.117.79-.205 1.19-.264.41-.059.82-.095 1.23-.11l1.21-.044a8.463 8.463 0 0 0 1.47-.22c.4-.103.75-.242 1.06-.418v1.76c-.32.205-.67.352-1.04.44-.35.073-.78.139-1.29.198-.84.073-1.61.132-2.31.176a4.58 4.58 0 0 0-1.9.484c-.73.411-1.25 1.027-1.56 1.848-.29.807-.47 1.767-.55 2.882.76-1.76 2.2-2.64 4.31-2.64.72 0 1.39.132 2.01.396a4.26 4.26 0 0 1 1.62 1.122c.47.499.84 1.115 1.1 1.848.27.719.4 1.547.4 2.486Zm-5.54 4.202c.51 0 .98-.081 1.4-.242.44-.176.83-.433 1.15-.77.32-.352.57-.792.75-1.32.17-.528.26-1.151.26-1.87 0-.719-.09-1.342-.26-1.87-.18-.528-.43-.961-.75-1.298a2.874 2.874 0 0 0-1.15-.77 3.6 3.6 0 0 0-1.4-.264c-1.02 0-1.86.337-2.53 1.012-.66.675-.99 1.716-.99 3.124 0 .733.08 1.371.26 1.914.18.528.42.968.73 1.32.32.352.69.616 1.12.792.42.161.89.242 1.41.242Zm13.36 1.386c-.27.689-.54 1.291-.84 1.804-.29.528-.62.975-.99 1.342-.36.367-.78.638-1.23.814-.45.191-.98.286-1.56.286-.3 0-.57-.022-.82-.066a2.46 2.46 0 0 1-.68-.176v-1.87c.16.117.37.205.62.264.25.073.52.11.81.11.54 0 .99-.132 1.34-.396.36-.249.69-.653 1.02-1.21l-4.65-12.188h2.14l3.63 9.636 3.61-9.636h1.87l-4.27 11.286Zm15.03.132h-1.94v-5.016c-.4.308-.86.55-1.39.726-.51.161-1.1.242-1.76.242-1.29 0-2.28-.315-2.97-.946-.67-.645-1.01-1.672-1.01-3.08v-3.344h1.96v3.366c0 .895.21 1.518.62 1.87.41.352.99.528 1.73.528.52 0 1.02-.073 1.5-.22.48-.147.92-.374 1.32-.682v-4.862h1.94V220Zm12.25-.968a6.912 6.912 0 0 1-1.45.77c-.34.117-.72.213-1.15.286-.42.088-.9.132-1.43.132-1.92 0-3.38-.521-4.38-1.562-.99-1.041-1.49-2.501-1.49-4.378 0-.924.13-1.753.39-2.486.28-.733.66-1.349 1.15-1.848a4.707 4.707 0 0 1 1.71-1.166 5.49 5.49 0 0 1 2.16-.418c.82 0 1.56.139 2.2.418.65.279 1.17.689 1.58 1.232.43.543.72 1.217.86 2.024.16.792.16 1.716 0 2.772h-8.05c.07 1.232.44 2.156 1.1 2.772.66.601 1.64.902 2.95.902.88 0 1.63-.125 2.26-.374a7.873 7.873 0 0 0 1.59-.814v1.738Zm-4.53-8.954c-.84 0-1.56.257-2.16.77-.6.513-.98 1.291-1.14 2.332h6.13c.06-1.056-.18-1.833-.72-2.332-.54-.513-1.25-.77-2.11-.77Zm14.74 4.862h-5.52V220h-1.94v-11.418h1.94v4.708h5.52v-4.708h1.93V220h-1.93v-5.06Zm7.04 2.42 6.1-8.778h1.96V220h-1.94v-8.756l-6.07 8.756h-1.98v-11.418h1.93v8.778Zm11.22-5.082c0-.645.11-1.195.35-1.65.23-.469.56-.851.99-1.144.42-.308.93-.535 1.52-.682.58-.147 1.22-.22 1.91-.22h3.68V220h-1.94v-4.136h-2.09l-2.93 4.136h-2.31l3.3-4.62c-.79-.235-1.4-.594-1.84-1.078-.43-.484-.64-1.159-.64-2.024Zm6.51 1.936v-3.982h-1.74c-.82 0-1.49.154-2.02.462-.53.308-.79.807-.79 1.496 0 .719.23 1.239.7 1.562.47.308 1.14.462 2 .462h1.85Z"/><path fill="#1E2126" fill-opacity=".5" d="M974.603 164.224a9.38 9.38 0 0 1-1.856-3.248 12.325 12.325 0 0 1-.608-3.888c0-.672.048-1.344.144-2.016.107-.672.262-1.317.464-1.936.214-.629.47-1.216.768-1.76a7.53 7.53 0 0 1 1.088-1.472h1.392c-.437.416-.81.896-1.12 1.44-.309.544-.57 1.125-.784 1.744a11.444 11.444 0 0 0-.448 1.936 14.238 14.238 0 0 0-.144 2.016c0 1.365.198 2.661.592 3.888a9.304 9.304 0 0 0 1.904 3.296h-1.392Zm6.331-9.328V162h-1.408v-7.104h-2.608v-1.2h6.672v1.2h-2.656Zm10.654 6.4a4.441 4.441 0 0 1-.432.272 5.056 5.056 0 0 1-.624.288 5.262 5.262 0 0 1-.832.208 5.15 5.15 0 0 1-1.04.096c-1.397 0-2.459-.379-3.184-1.136-.725-.757-1.088-1.819-1.088-3.184 0-.672.096-1.275.288-1.808a3.89 3.89 0 0 1 .832-1.344 3.465 3.465 0 0 1 1.248-.848 3.985 3.985 0 0 1 1.568-.304c.597 0 1.131.101 1.6.304.469.203.853.501 1.152.896.309.395.517.885.624 1.472.117.576.117 1.248 0 2.016h-5.856c.053.896.32 1.568.8 2.016.48.437 1.195.656 2.144.656.64 0 1.189-.091 1.648-.272a5.755 5.755 0 0 0 1.152-.592v1.264Zm-3.296-6.512c-.608 0-1.131.187-1.568.56-.437.373-.715.939-.832 1.696h4.464c.043-.768-.133-1.333-.528-1.696-.395-.373-.907-.56-1.536-.56Zm7.442 3.68h-.736V162h-1.408v-8.304h1.408v3.568h.8l2.912-3.568h1.6l-3.408 4.096 3.468 4.208h-1.708l-2.928-3.536Zm9.396 3.696c-.64 0-1.22-.096-1.75-.288a3.8 3.8 0 0 1-1.31-.848 3.745 3.745 0 0 1-.83-1.36c-.19-.533-.29-1.141-.29-1.824 0-.672.1-1.275.29-1.808.2-.533.48-.981.85-1.344.36-.373.8-.656 1.32-.848.53-.203 1.12-.304 1.78-.304.51 0 .98.059 1.41.176.43.107.78.267 1.05.48v1.264a3.68 3.68 0 0 0-1.15-.496 4.731 4.731 0 0 0-1.29-.176c-.97 0-1.69.251-2.15.752-.45.501-.67 1.269-.67 2.304s.22 1.803.66 2.304c.43.501 1.13.752 2.08.752.5 0 .96-.059 1.37-.176.43-.128.81-.288 1.15-.48v1.264c-.29.181-.66.336-1.08.464-.42.128-.9.192-1.44.192Zm7.76-7.264V162h-1.41v-7.104h-2.61v-1.2h6.67v1.2h-2.65Zm10.42 4.336c0 .48-.08.896-.25 1.248-.18.352-.42.64-.72.864-.31.224-.68.389-1.11.496-.43.107-.89.16-1.39.16h-2.67v-8.304h1.41v2.896h1.36c1.05 0 1.88.208 2.48.624.59.416.89 1.088.89 2.016Zm2.61 2.768h-1.41v-8.304h1.41V162Zm-7.34-4.208v3.008h1.26c.61 0 1.1-.112 1.47-.336.39-.235.58-.619.58-1.152 0-.544-.17-.933-.51-1.168-.35-.235-.83-.352-1.44-.352h-1.36Zm9.36 5.92c.1-.107.19-.235.29-.384.1-.149.18-.304.26-.464.08-.149.15-.299.19-.448a2.5 2.5 0 0 0 .11-.368.94.94 0 0 1-.54-.336.929.929 0 0 1-.21-.608c0-.277.08-.507.25-.688a.97.97 0 0 1 .72-.288c.3 0 .54.101.72.304.2.203.29.475.29.816 0 .224-.03.459-.09.704-.07.235-.15.464-.24.688-.1.224-.21.427-.34.608-.12.192-.23.347-.35.464h-1.06Zm11.22-1.552c-.64 0-1.22-.096-1.75-.288a3.8 3.8 0 0 1-1.31-.848 3.745 3.745 0 0 1-.83-1.36c-.19-.533-.29-1.141-.29-1.824 0-.672.1-1.275.29-1.808.2-.533.49-.981.85-1.344.36-.373.8-.656 1.33-.848.52-.203 1.11-.304 1.77-.304.51 0 .98.059 1.41.176.43.107.78.267 1.06.48v1.264a3.841 3.841 0 0 0-1.16-.496 4.679 4.679 0 0 0-1.29-.176c-.97 0-1.69.251-2.15.752-.44.501-.67 1.269-.67 2.304s.22 1.803.66 2.304c.44.501 1.13.752 2.08.752.5 0 .96-.059 1.37-.176.43-.128.81-.288 1.16-.48v1.264a4.887 4.887 0 0 1-2.53.656Zm8 0c-.64 0-1.22-.096-1.75-.288a3.8 3.8 0 0 1-1.31-.848 3.745 3.745 0 0 1-.83-1.36c-.19-.533-.29-1.141-.29-1.824 0-.672.1-1.275.29-1.808.2-.533.49-.981.85-1.344.36-.373.8-.656 1.33-.848.52-.203 1.11-.304 1.77-.304.51 0 .98.059 1.41.176.43.107.78.267 1.06.48v1.264a3.841 3.841 0 0 0-1.16-.496 4.679 4.679 0 0 0-1.29-.176c-.97 0-1.69.251-2.15.752-.44.501-.67 1.269-.67 2.304s.22 1.803.66 2.304c.44.501 1.13.752 2.08.752.5 0 .96-.059 1.37-.176.43-.128.81-.288 1.16-.48v1.264a4.887 4.887 0 0 1-2.53.656Zm10.56-2.928c0 .48-.09.896-.26 1.248s-.41.64-.72.864a3.22 3.22 0 0 1-1.1.496c-.43.107-.89.16-1.39.16h-2.68v-8.304h1.41v2.896h1.36c1.06 0 1.88.208 2.48.624.6.416.9 1.088.9 2.016Zm2.61 2.768h-1.41v-8.304h1.41V162Zm-7.35-4.208v3.008h1.27c.6 0 1.09-.112 1.47-.336.38-.235.57-.619.57-1.152 0-.544-.17-.933-.51-1.168-.34-.235-.82-.352-1.44-.352h-1.36Zm10.3 1.632c.15-.544.24-1.28.28-2.208.05-.928.07-2.101.07-3.52h5.58V162h-1.42v-7.104h-2.83a43.886 43.886 0 0 1-.12 3.04c-.05.885-.17 1.632-.36 2.24-.18.608-.46 1.072-.82 1.392-.35.309-.83.464-1.42.464h-.13a.853.853 0 0 1-.15-.016v-1.392c.06.011.13.016.21.016.55 0 .91-.405 1.11-1.216Zm10.36-.96h-.74V162h-1.4v-8.304h1.4v3.568h.8l2.92-3.568h1.6l-3.41 4.096 3.47 4.208h-1.71l-2.93-3.536Zm7.53 1.616 4.43-6.384h1.43V162h-1.41v-6.368L1081.2 162h-1.44v-8.304h1.41v6.384Zm17.09-1.76h-4.01V162h-1.41v-8.304h1.41v3.424h4.01v-3.424h1.41V162h-1.41v-3.68Zm8.58 2.096c-.09.192-.21.395-.36.608a2.91 2.91 0 0 1-.56.56c-.23.171-.49.309-.8.416-.3.107-.65.16-1.06.16-.75 0-1.35-.208-1.81-.624-.46-.427-.69-1.035-.69-1.824 0-.907.32-1.573.95-2 .64-.427 1.54-.64 2.72-.64h1.55v-.688c0-.576-.15-.987-.45-1.232-.3-.245-.81-.368-1.53-.368-.52 0-1 .085-1.46.256-.46.16-.87.347-1.23.56v-1.264c.3-.181.7-.357 1.2-.528a4.992 4.992 0 0 1 1.68-.272c1.04 0 1.84.219 2.38.656.55.427.82 1.093.82 2V160.992c.01.117.01.24.01.368.01.128.03.251.04.368.01.107.02.197.03.272h-1.28a6.997 6.997 0 0 1-.1-.624c-.02-.277-.03-.517-.03-.72l-.02-.24Zm-2.48.48c.44 0 .81-.091 1.12-.272.31-.181.56-.389.76-.624.19-.245.33-.48.41-.704.09-.235.13-.4.13-.496v-.608h-1.41c-.84 0-1.45.123-1.84.368-.37.235-.56.592-.56 1.072 0 .373.11.677.34.912.22.235.57.352 1.05.352Zm11.7-2.432h-.73V162h-1.41v-8.304h1.41v3.568h.8l2.91-3.568h1.6l-3.41 4.096 3.47 4.208h-1.71l-2.93-3.536Zm10.83 1.952c-.09.192-.22.395-.37.608a2.77 2.77 0 0 1-1.36.976c-.3.107-.65.16-1.05.16-.75 0-1.35-.208-1.81-.624-.46-.427-.69-1.035-.69-1.824 0-.907.32-1.573.95-2 .64-.427 1.54-.64 2.72-.64h1.55v-.688c0-.576-.15-.987-.45-1.232-.3-.245-.81-.368-1.54-.368-.51 0-.99.085-1.45.256-.46.16-.87.347-1.23.56v-1.264c.29-.181.69-.357 1.2-.528a4.992 4.992 0 0 1 1.68-.272c1.04 0 1.84.219 2.38.656.54.427.82 1.093.82 2V160.992c.01.117.01.24.01.368l.03.368c.01.107.02.197.04.272h-1.28a4.582 4.582 0 0 1-.1-.624c-.02-.277-.03-.517-.03-.72l-.02-.24Zm-2.48.48c.44 0 .81-.091 1.12-.272a2.7 2.7 0 0 0 .75-.624c.2-.245.33-.48.42-.704.08-.235.13-.4.13-.496v-.608h-1.41c-.84 0-1.46.123-1.84.368-.37.235-.56.592-.56 1.072 0 .373.11.677.34.912.22.235.57.352 1.05.352Zm10.21 1.264c-.64 0-1.19-.149-1.66-.448a3.18 3.18 0 0 1-1.1-1.232v4.352h-1.41v-11.136h1.23l.14 1.616c.28-.544.66-.976 1.12-1.296.47-.32 1.06-.48 1.75-.48.48 0 .94.091 1.37.272.45.171.84.437 1.17.8.34.352.61.8.8 1.344.21.533.31 1.163.31 1.888 0 .736-.1 1.376-.31 1.92-.2.533-.47.981-.81 1.344a3.41 3.41 0 0 1-1.19.8c-.45.171-.91.256-1.41.256Zm-.2-1.264c.73 0 1.32-.251 1.77-.752.46-.512.69-1.28.69-2.304 0-1.003-.23-1.76-.69-2.272-.45-.523-1.04-.784-1.77-.784-.37 0-.71.064-1.03.192-.31.128-.58.32-.81.576-.23.245-.41.56-.55.944-.13.384-.19.832-.19 1.344 0 .512.06.96.19 1.344.14.384.32.704.55.96.23.256.5.448.81.576.32.117.66.176 1.03.176Zm8.81-6V162h-1.41v-7.104h-2.61v-1.2h6.68v1.2h-2.66Zm5.69 5.184 4.43-6.384h1.43V162h-1.41v-6.368l-4.42 6.368h-1.44v-8.304h1.41v6.384Zm13.58-1.76h-4.02V162h-1.41v-8.304h1.41v3.424h4.02v-3.424h1.41V162h-1.41v-3.68Zm5.86.144h-.74V162h-1.41v-8.304h1.41v3.568h.8l2.91-3.568h1.6l-3.4 4.096L1173 162h-1.71l-2.93-3.536Zm7.53 1.616 4.43-6.384h1.42V162h-1.4v-6.368l-4.42 6.368h-1.44v-8.304h1.41v6.384Zm13.08 0 4.43-6.384h1.42V162h-1.41v-6.368L1189 162h-1.44v-8.304h1.41v6.384Zm15.01-5.184V162h-1.41v-7.104h-2.61v-1.2h6.68v1.2h-2.66Zm3.77 7.2c-.31 0-.56-.096-.75-.288a.982.982 0 0 1-.29-.72c0-.299.09-.544.29-.736.19-.192.44-.288.75-.288.3 0 .54.096.73.288.2.192.29.437.29.736 0 .277-.09.517-.29.72a.978.978 0 0 1-.73.288Zm2.92-1.296c.3-.181.54-.464.71-.848.17-.384.3-.869.4-1.456.09-.587.16-1.28.19-2.08.04-.8.08-1.707.11-2.72h5.71v7.104h1.25v3.568h-1.23l-.18-2.368h-6.17l-.15 2.368h-1.26V160.8h.62Zm5.71 0v-5.904h-3.04c-.05 1.568-.15 2.827-.3 3.776-.14.939-.38 1.648-.74 2.128h4.08Zm5.31 1.296c-.31 0-.56-.096-.76-.288a1.014 1.014 0 0 1-.28-.72c0-.299.09-.544.28-.736.2-.192.45-.288.76-.288.29 0 .54.096.73.288.19.192.29.437.29.736 0 .277-.1.517-.29.72a.993.993 0 0 1-.73.288Zm3.82 2.128a9.326 9.326 0 0 0 1.86-3.248c.41-1.227.61-2.523.61-3.888 0-.672-.06-1.344-.16-2.016a10.27 10.27 0 0 0-.47-1.936 9.12 9.12 0 0 0-.76-1.76 6.972 6.972 0 0 0-1.08-1.472h-1.39c.44.416.81.896 1.12 1.44.31.544.57 1.125.77 1.744.21.619.37 1.264.46 1.936.1.672.15 1.344.15 2.016 0 1.365-.2 2.661-.61 3.888a8.951 8.951 0 0 1-1.89 3.296h1.39Z"/><path fill="#1E2126" d="M44.31 60.49h16.83V82h-3.66V63.64h-9.54V82h-3.63V60.49ZM73.946 82.3c-1.18 0-2.2-.26-3.06-.78a6.221 6.221 0 0 1-2.04-2.16v7.95h-3.48V66.43h3.18l.24 2.76c.52-.94 1.21-1.68 2.07-2.22.86-.56 1.91-.84 3.15-.84.92 0 1.79.17 2.61.51.84.32 1.57.82 2.19 1.5.62.66 1.11 1.5 1.47 2.52.38 1 .57 2.18.57 3.54 0 1.38-.19 2.58-.57 3.6-.36 1-.86 1.84-1.5 2.52-.62.66-1.35 1.16-2.19 1.5-.84.32-1.72.48-2.64.48Zm-.84-2.91c1.24 0 2.24-.42 3-1.26.78-.86 1.17-2.17 1.17-3.93 0-1.74-.39-3.04-1.17-3.9-.76-.86-1.75-1.29-2.97-1.29-.62 0-1.19.11-1.71.33-.52.2-.98.52-1.38.96-.38.44-.68.99-.9 1.65-.22.64-.33 1.39-.33 2.25 0 .88.11 1.65.33 2.31.22.64.52 1.18.9 1.62.38.42.83.74 1.35.96.54.2 1.11.3 1.71.3Zm17.438 2.91c-1.1 0-2.12-.18-3.06-.54-.94-.36-1.76-.88-2.46-1.56-.68-.7-1.22-1.55-1.62-2.55-.38-1-.57-2.15-.57-3.45 0-1.3.19-2.45.57-3.45.4-1 .94-1.84 1.62-2.52.7-.7 1.52-1.22 2.46-1.56.94-.36 1.96-.54 3.06-.54s2.12.18 3.06.54c.94.34 1.76.86 2.46 1.56.7.68 1.25 1.52 1.65 2.52.4 1 .6 2.15.6 3.45 0 1.3-.2 2.45-.6 3.45-.4 1-.95 1.85-1.65 2.55-.7.68-1.52 1.2-2.46 1.56-.94.36-1.96.54-3.06.54Zm0-2.91c1.2 0 2.19-.42 2.97-1.26.8-.84 1.2-2.15 1.2-3.93 0-1.76-.4-3.06-1.2-3.9-.78-.86-1.77-1.29-2.97-1.29-1.18 0-2.17.43-2.97 1.29-.78.84-1.17 2.14-1.17 3.9 0 1.78.39 3.09 1.17 3.93.8.84 1.79 1.26 2.97 1.26Zm23.701 1.47c-.22.14-.49.3-.81.48-.32.16-.7.31-1.14.45-.44.14-.95.26-1.53.36-.58.1-1.24.15-1.98.15-2.86 0-5-.71-6.42-2.13-1.4-1.42-2.1-3.41-2.1-5.97 0-1.26.19-2.39.57-3.39.38-1 .91-1.84 1.59-2.52.68-.7 1.49-1.23 2.43-1.59.94-.38 1.97-.57 3.09-.57 1.16 0 2.2.19 3.12.57.94.38 1.71.95 2.31 1.71.6.76 1.01 1.7 1.23 2.82.24 1.12.25 2.43.03 3.93h-10.77c.14 1.42.61 2.49 1.41 3.21.8.7 2.05 1.05 3.75 1.05 1.24 0 2.27-.15 3.09-.45.84-.32 1.55-.65 2.13-.99v2.88Zm-6.3-11.97c-1.02 0-1.88.31-2.58.93-.7.62-1.16 1.54-1.38 2.76h7.32c.04-1.26-.24-2.19-.84-2.79-.6-.6-1.44-.9-2.52-.9Zm14.751 6.78h-1.35V82h-3.48V66.43h3.48v6.42h1.47l4.95-6.42h3.66l-5.88 7.5 6.12 8.07h-4.11l-4.86-6.33Zm18.243-6.42V82h-3.48V69.25h-4.71v-2.82h12.99v2.82h-4.8Z"/><path fill="url(#a)" fill-rule="evenodd" d="M274.999 90V54c0-1.1.896-2 1.998-2h46.008c1.102 0 1.998.9 1.998 2v36c0 1.1-.896 2-1.998 2h-46.008c-1.102 0-1.998-.9-1.998-2Z" clip-rule="evenodd"/><path fill="url(#b)" fill-rule="evenodd" d="M274.999 61v-7c0-1.1.896-2 1.998-2h46.008c1.102 0 1.998.9 1.998 2v7h-50.004Z" clip-rule="evenodd"/><path stroke="#0055D9" stroke-linecap="round" stroke-linejoin="round" stroke-miterlimit="79.84" d="m317.128 58.868 4.243-4.243M317.128 54.625l4.243 4.243"/><path stroke="#0055D9" d="M298.45 87.115Zm.015.003.08.013c.078.01.187.022.318.032a12.359 12.359 0 0 0 1.848.003 5.576 5.576 0 0 0 .384-.043.834.834 0 0 0 .258-.147.166.166 0 0 0 .042-.06l.276-1.836c.106-.744.466-1.358 1.081-1.611.615-.253 1.303-.07 1.902.386l.002.001 1.433 1.072.001-.001c.057.04.127.062.193.063.07 0 .106-.021.113-.027l.003-.002c.979-.79 1.529-1.361 2.016-1.986a.316.316 0 0 0 .013-.312l-1.093-1.48-.001-.001c-.452-.601-.632-1.29-.376-1.904.256-.614.873-.97 1.618-1.071h.002l1.773-.255a.342.342 0 0 0 .178-.093.198.198 0 0 0 .063-.104l.001-.01c.093-.793.107-1.12.107-1.446 0-.33-.015-.658-.034-.913a6.134 6.134 0 0 0-.043-.385.78.78 0 0 0-.155-.259.17.17 0 0 0-.083-.047l-1.801-.271h-.002c-.745-.107-1.36-.467-1.613-1.082-.253-.615-.069-1.304.386-1.903l.001-.002 1.091-1.46a.314.314 0 0 0-.008-.323 10.995 10.995 0 0 0-1.965-1.97.316.316 0 0 0-.35.012h-.001l-1.438 1.062-.002.001c-.601.452-1.291.632-1.904.376-.614-.256-.971-.872-1.073-1.617v-.002l-.256-1.776a.327.327 0 0 0-.091-.17.2.2 0 0 0-.108-.064h-.004c-.793-.092-1.121-.106-1.446-.106-.32 0-.642.014-1.409.1l-.008.001c-.014.002-.055.013-.104.063a.329.329 0 0 0-.091.179l-.011.07-.255 1.698v.002c-.106.744-.466 1.359-1.08 1.612-.615.252-1.304.069-1.903-.386l-.001-.001-1.427-1.066h-.001a.19.19 0 0 0-.112-.04.703.703 0 0 0-.278.063c-.458.3-1.247 1.043-1.928 1.918a.317.317 0 0 0 .003.362l.001.002 1.06 1.432.002.002c.452.6.633 1.29.377 1.903-.256.614-.872.971-1.617 1.073l-1.766.255v.004a.188.188 0 0 0-.107.052.751.751 0 0 0-.163.264 6.176 6.176 0 0 0-.046.4c-.021.262-.036.598-.036.937 0 .32.012.64.099 1.405h.001v.006a.191.191 0 0 0 .055.098c.037.04.085.072.137.09l1.818.272h.002c.744.106 1.359.466 1.612 1.08.253.616.069 1.304-.386 1.902l-.642.859-.425.58a.187.187 0 0 0-.039.11.724.724 0 0 0 .062.28c.299.454 1.042 1.242 1.917 1.924a.321.321 0 0 0 .316.028l1.482-1.098c.602-.454 1.291-.634 1.905-.377.613.256.97.873 1.072 1.617v.002l.254 1.77h.007c.006.043.02.073.05.106a.775.775 0 0 0 .267.165Zm-9.479-12.17-.001.003.001-.003Zm21.633.037.001.004-.001-.004ZM301.11 87.12l-.005.001.005-.001Z"/><path fill="#1E2126" d="M497.31 60.49h16.83V82h-3.66V63.64h-9.54V82h-3.63V60.49Zm29.456 21.33c-.34.94-.71 1.77-1.11 2.49-.38.72-.83 1.32-1.35 1.8-.5.5-1.09.87-1.77 1.11-.66.26-1.44.39-2.34.39-.98 0-1.82-.16-2.52-.48v-3.12c.28.22.63.39 1.05.51.42.12.88.18 1.38.18.68 0 1.24-.15 1.68-.45.44-.28.84-.71 1.2-1.29l-6.27-16.53h3.75l4.35 12.09 4.32-12.09h3.24l-5.61 15.39Zm8.067-5.34c.22-1.02.36-2.34.42-3.96.08-1.64.12-3.67.12-6.09h11.19V82h-3.48V69.25h-4.53c-.04 2.06-.12 3.88-.24 5.46s-.37 2.92-.75 4.02c-.36 1.08-.89 1.91-1.59 2.49-.68.58-1.6.87-2.76.87-.16 0-.32-.01-.48-.03-.14 0-.29-.01-.45-.03v-3.24c.2.04.35.06.45.06.54 0 .97-.19 1.29-.57.34-.4.61-1 .81-1.8Z"/><path fill="url(#c)" fill-rule="evenodd" d="M771.002 55v42c0 1.1-.896 2-1.997 2h-32.009c-1.101 0-1.997-.9-1.997-2V55c0-1.1.896-2 1.997-2h32.009c1.101 0 1.997.9 1.997 2Z" clip-rule="evenodd"/><path fill="url(#d)" fill-rule="evenodd" d="M722.999 90V48c0-1.1.896-2 1.997-2h32.009c1.101 0 1.997.9 1.997 2v42c0 1.1-.896 2-1.997 2h-32.009c-1.101 0-1.997-.9-1.997-2Z" clip-rule="evenodd"/><path stroke="#0055D9" stroke-linecap="round" stroke-linejoin="round" stroke-miterlimit="79.84" d="M735.251 69.246h17M735.251 59.247h17"/><path stroke="#0055D9" stroke-linecap="round" stroke-miterlimit="79.84" d="M730.251 57.75c.827 0 1.5.675 1.5 1.5 0 .824-.673 1.5-1.5 1.5s-1.5-.676-1.5-1.5c0-.825.673-1.5 1.5-1.5ZM730.251 67.75c.827 0 1.5.675 1.5 1.5 0 .824-.673 1.5-1.5 1.5s-1.5-.676-1.5-1.5c0-.825.673-1.5 1.5-1.5ZM730.251 77.75c.827 0 1.5.675 1.5 1.5 0 .824-.673 1.5-1.5 1.5s-1.5-.676-1.5-1.5c0-.825.673-1.5 1.5-1.5Z" clip-rule="evenodd"/><path stroke="#0055D9" stroke-linecap="round" stroke-linejoin="round" stroke-miterlimit="79.84" d="M735.251 79.246h17"/><path fill="#1E2126" d="M953.19 72.46v-3.03h3.15c1.26 0 2.23-.27 2.91-.81.7-.54 1.05-1.33 1.05-2.37 0-1.1-.38-1.86-1.14-2.28-.74-.44-1.74-.66-3-.66-1.3 0-2.51.15-3.63.45-1.1.28-2.05.62-2.85 1.02v-3.15c.64-.34 1.5-.66 2.58-.96 1.1-.3 2.46-.45 4.08-.45 1.18 0 2.24.12 3.18.36.94.22 1.74.57 2.4 1.05a4.43 4.43 0 0 1 1.5 1.77c.36.7.54 1.53.54 2.49 0 1.34-.39 2.41-1.17 3.21-.78.78-1.85 1.33-3.21 1.65 1.64.24 2.9.77 3.78 1.59.9.82 1.35 1.99 1.35 3.51 0 1.14-.23 2.12-.69 2.94-.44.8-1.05 1.47-1.83 2.01-.78.52-1.69.9-2.73 1.14-1.04.24-2.16.36-3.36.36-1.6 0-2.97-.17-4.11-.51-1.14-.36-2-.74-2.58-1.14v-3.21c.84.54 1.83.97 2.97 1.29 1.16.32 2.38.48 3.66.48.7 0 1.35-.06 1.95-.18.6-.12 1.12-.31 1.56-.57.44-.28.78-.64 1.02-1.08.26-.46.39-1.02.39-1.68 0-1.2-.39-2.04-1.17-2.52-.76-.48-1.92-.72-3.48-.72h-3.12Zm23.777 6.81c-.16.36-.38.72-.66 1.08-.26.36-.59.69-.99.99-.38.28-.84.51-1.38.69-.54.18-1.17.27-1.89.27-.68 0-1.31-.1-1.89-.3a4.23 4.23 0 0 1-1.53-.84c-.42-.38-.76-.85-1.02-1.41-.24-.58-.36-1.24-.36-1.98 0-1.7.63-2.97 1.89-3.81 1.26-.86 3.04-1.29 5.34-1.29h2.37v-.96c0-1.02-.26-1.72-.78-2.1-.52-.4-1.38-.6-2.58-.6-1.02 0-1.98.15-2.88.45-.88.28-1.66.61-2.34.99v-2.91c.62-.34 1.44-.66 2.46-.96 1.02-.3 2.13-.45 3.33-.45 2 0 3.54.42 4.62 1.26 1.1.82 1.65 2.14 1.65 3.96V80.11c.02.22.03.45.03.69l.06.69c.02.2.04.37.06.51h-3.21c-.06-.28-.12-.67-.18-1.17-.04-.5-.07-.95-.09-1.35l-.03-.21Zm-3.96.33c.74 0 1.35-.15 1.83-.45.5-.32.9-.68 1.2-1.08.3-.42.51-.83.63-1.23s.18-.68.18-.84v-1.05h-2.16c-1.38 0-2.39.22-3.03.66-.64.42-.96 1.02-.96 1.8 0 .68.19 1.22.57 1.62.4.38.98.57 1.74.57Zm10.8-.42c.46-.4.82-.95 1.08-1.65.28-.7.5-1.57.66-2.61.16-1.06.28-2.29.36-3.69.08-1.4.15-3 .21-4.8h11.4v12.75h2.34v7.26h-3.03l-.27-4.44h-10.74l-.27 4.44h-3.06v-7.26h1.32Zm10.23 0v-9.93h-4.92c-.1 2.46-.27 4.5-.51 6.12-.22 1.6-.59 2.87-1.11 3.81h6.54Zm17.263.09c-.16.36-.38.72-.66 1.08-.26.36-.59.69-.99.99-.38.28-.84.51-1.38.69-.54.18-1.17.27-1.89.27-.68 0-1.31-.1-1.89-.3a4.23 4.23 0 0 1-1.53-.84c-.42-.38-.76-.85-1.02-1.41-.24-.58-.36-1.24-.36-1.98 0-1.7.63-2.97 1.89-3.81 1.26-.86 3.04-1.29 5.34-1.29h2.37v-.96c0-1.02-.26-1.72-.78-2.1-.52-.4-1.38-.6-2.58-.6-1.02 0-1.98.15-2.88.45-.88.28-1.66.61-2.34.99v-2.91c.62-.34 1.44-.66 2.46-.96 1.02-.3 2.13-.45 3.33-.45 2 0 3.54.42 4.62 1.26 1.1.82 1.65 2.14 1.65 3.96V80.11c.02.22.03.45.03.69l.06.69c.02.2.04.37.06.51h-3.21c-.06-.28-.12-.67-.18-1.17-.04-.5-.07-.95-.09-1.35l-.03-.21Zm-3.96.33c.74 0 1.35-.15 1.83-.45.5-.32.9-.68 1.2-1.08.3-.42.51-.83.63-1.23s.18-.68.18-.84v-1.05h-2.16c-1.38 0-2.39.22-3.03.66-.64.42-.96 1.02-.96 1.8 0 .68.19 1.22.57 1.62.4.38.98.57 1.74.57Zm21.13-4.17h-6.57V82h-3.48V66.43h3.48v6.18h6.57v-6.18h3.48V82h-3.48v-6.57Zm10.83 1.86 7.2-10.86h3.42V82h-3.45V71.2l-7.14 10.8h-3.48V66.43h3.45v10.86Zm27.56 3.57c-.22.14-.49.3-.81.48-.32.16-.7.31-1.14.45-.44.14-.95.26-1.53.36-.58.1-1.24.15-1.98.15-2.86 0-5-.71-6.42-2.13-1.4-1.42-2.1-3.41-2.1-5.97 0-1.26.19-2.39.57-3.39.38-1 .91-1.84 1.59-2.52.68-.7 1.49-1.23 2.43-1.59.94-.38 1.97-.57 3.09-.57 1.16 0 2.2.19 3.12.57.94.38 1.71.95 2.31 1.71.6.76 1.01 1.7 1.23 2.82.24 1.12.25 2.43.03 3.93h-10.77c.14 1.42.61 2.49 1.41 3.21.8.7 2.05 1.05 3.75 1.05 1.24 0 2.27-.15 3.09-.45.84-.32 1.55-.65 2.13-.99v2.88Zm-6.3-11.97c-1.02 0-1.88.31-2.58.93-.7.62-1.16 1.54-1.38 2.76h7.32c.04-1.26-.24-2.19-.84-2.79-.6-.6-1.44-.9-2.52-.9Z"/><path fill="url(#e)" fill-rule="evenodd" d="M1186.5 75V49c0-1.1.9-2 2-2h37.01c1.1 0 1.99.9 1.99 2v26c0 1.1-.89 2-1.99 2h-37.01c-1.1 0-2-.9-2-2Z" clip-rule="evenodd"/><path stroke="#0055D9" stroke-linecap="round" stroke-linejoin="round" stroke-miterlimit="79.84" d="M1190.19 68 1201 55.5l11.48 12.48 6.02-5.98 6 6"/><path stroke="#0055D9" stroke-linecap="round" stroke-miterlimit="79.84" d="M1214.5 53.487c1.38 0 2.51 1.126 2.51 2.506a2.515 2.515 0 0 1-5.03 0c0-1.38 1.13-2.506 2.52-2.506Z" clip-rule="evenodd"/><path fill="url(#f)" fill-rule="evenodd" d="M1206 74v15c0 1.1-.89 2-1.99 2H1183c-1.1 0-2-.9-2-2V74c0-1.1.9-2 2-2h21.01c1.1 0 1.99.9 1.99 2Z" clip-rule="evenodd"/><path stroke="#0055D9" stroke-linecap="round" stroke-miterlimit="79.84" d="m1191.18 85.91 7.04-4.025c.37-.21.37-.56 0-.77l-7.04-4.025c-.38-.211-.68-.037-.68.39v8.04c0 .427.3.601.68.39v0Z" clip-rule="evenodd"/><path fill="url(#g)" fill-rule="evenodd" d="m1220.18 98.047-8.27-10.947h.02a10.797 10.797 0 0 1-1.93-6.173c0-6.034 4.93-10.927 11-10.927s11 4.893 11 10.927c0 2.286-.71 4.413-1.93 6.173h.02l-8.28 10.947a.94.94 0 0 1-.81.453c-.35 0-.65-.18-.82-.453Zm.82-1.447v-4.747V96.6Z" clip-rule="evenodd"/><path stroke="#0055D9" stroke-linecap="round" stroke-miterlimit="79.84" d="M1221 76.253c2.62 0 4.76 2.127 4.76 4.747s-2.14 4.747-4.76 4.747a4.754 4.754 0 0 1-4.76-4.747c0-2.62 2.13-4.747 4.76-4.747Z" clip-rule="evenodd"/><defs><linearGradient id="a" x1="312.99" x2="312.99" y1="91.809" y2="51.999" gradientUnits="userSpaceOnUse"><stop stop-color="#A1BFFF" stop-opacity=".17"/><stop offset="1" stop-color="#679BFF" stop-opacity=".92"/></linearGradient><linearGradient id="b" x1="304" x2="304" y1="41.25" y2="93.749" gradientUnits="userSpaceOnUse"><stop offset=".02" stop-color="#0064FF"/><stop offset=".06" stop-color="#005FFF" stop-opacity=".86"/><stop offset=".11" stop-color="#005BFF" stop-opacity=".72"/><stop offset=".17" stop-color="#0057FF" stop-opacity=".59"/><stop offset=".23" stop-color="#0053FF" stop-opacity=".48"/><stop offset=".3" stop-color="#0051FF" stop-opacity=".4"/><stop offset=".38" stop-color="#004FFF" stop-opacity=".33"/><stop offset=".48" stop-color="#004DFF" stop-opacity=".28"/><stop offset=".61" stop-color="#004CFF" stop-opacity=".26"/><stop offset="1" stop-color="#004CFF" stop-opacity=".25"/></linearGradient><linearGradient id="c" x1="743.648" x2="743.648" y1="104.749" y2="9.5" gradientUnits="userSpaceOnUse"><stop stop-color="#A1BFFF" stop-opacity=".17"/><stop offset="1" stop-color="#679BFF" stop-opacity=".92"/></linearGradient><linearGradient id="d" x1="741" x2="741" y1="38.5" y2="113.999" gradientUnits="userSpaceOnUse"><stop offset=".02" stop-color="#0064FF"/><stop offset=".06" stop-color="#005FFF" stop-opacity=".86"/><stop offset=".11" stop-color="#005BFF" stop-opacity=".72"/><stop offset=".17" stop-color="#0057FF" stop-opacity=".59"/><stop offset=".23" stop-color="#0053FF" stop-opacity=".48"/><stop offset=".3" stop-color="#0051FF" stop-opacity=".4"/><stop offset=".38" stop-color="#004FFF" stop-opacity=".33"/><stop offset=".48" stop-color="#004DFF" stop-opacity=".28"/><stop offset=".61" stop-color="#004CFF" stop-opacity=".26"/><stop offset="1" stop-color="#004CFF" stop-opacity=".25"/></linearGradient><linearGradient id="e" x1="1217.65" x2="1217.65" y1="76.857" y2="36.75" gradientUnits="userSpaceOnUse"><stop stop-color="#A1BFFF" stop-opacity=".17"/><stop offset="1" stop-color="#679BFF" stop-opacity=".92"/></linearGradient><linearGradient id="f" x1="1193.5" x2="1193.5" y1="65.75" y2="118.25" gradientUnits="userSpaceOnUse"><stop offset=".02" stop-color="#0064FF"/><stop offset=".06" stop-color="#005FFF" stop-opacity=".86"/><stop offset=".11" stop-color="#005BFF" stop-opacity=".72"/><stop offset=".17" stop-color="#0057FF" stop-opacity=".59"/><stop offset=".23" stop-color="#0053FF" stop-opacity=".48"/><stop offset=".3" stop-color="#0051FF" stop-opacity=".4"/><stop offset=".38" stop-color="#004FFF" stop-opacity=".33"/><stop offset=".48" stop-color="#004DFF" stop-opacity=".28"/><stop offset=".61" stop-color="#004CFF" stop-opacity=".26"/><stop offset="1" stop-color="#004CFF" stop-opacity=".25"/></linearGradient><linearGradient id="g" x1="1234.5" x2="1187.25" y1="70" y2="122.5" gradientUnits="userSpaceOnUse"><stop offset=".02" stop-color="#0064FF"/><stop offset=".06" stop-color="#005FFF" stop-opacity=".86"/><stop offset=".11" stop-color="#005BFF" stop-opacity=".72"/><stop offset=".17" stop-color="#0057FF" stop-opacity=".59"/><stop offset=".23" stop-color="#0053FF" stop-opacity=".48"/><stop offset=".3" stop-color="#0051FF" stop-opacity=".4"/><stop offset=".38" stop-color="#004FFF" stop-opacity=".33"/><stop offset=".48" stop-color="#004DFF" stop-opacity=".28"/><stop offset=".61" stop-color="#004CFF" stop-opacity=".26"/><stop offset="1" stop-color="#004CFF" stop-opacity=".25"/></linearGradient></defs></svg>