<svg xmlns="http://www.w3.org/2000/svg" width="16" height="16" viewBox="0 0 16 16" fill="none"><path fill-rule="evenodd" clip-rule="evenodd" d="M3.10899 1.54601C3 1.75992 3 2.03995 3 2.6V13.4C3 13.9601 3 14.2401 3.10899 14.454C3.20487 14.6422 3.35785 14.7951 3.54601 14.891C3.75992 15 4.03995 15 4.6 15H5.4C5.96005 15 6.24008 15 6.45399 14.891C6.64215 14.7951 6.79513 14.6422 6.89101 14.454C7 14.2401 7 13.9601 7 13.4V2.6C7 2.03995 7 1.75992 6.89101 1.54601C6.79513 1.35785 6.64215 1.20487 6.45399 1.10899C6.24008 1 5.96005 1 5.4 1H4.6C4.03995 1 3.75992 1 3.54601 1.10899C3.35785 1.20487 3.20487 1.35785 3.10899 1.54601ZM10 1C9.44772 1 9 1.44772 9 2V14C9 14.5523 9.44772 15 10 15H12C12.5523 15 13 14.5523 13 14V2C13 1.44772 12.5523 1 12 1H10Z" fill="currentColor"></path></svg>
