<svg xmlns="http://www.w3.org/2000/svg" width="16" height="16" fill="none" viewBox="0 0 16 16"><path fill="currentColor" fill-rule="evenodd" d="M3.109 1.546C3 1.76 3 2.04 3 2.6v10.8c0 .56 0 .84.109 1.054a1 1 0 0 0 .437.437C3.76 15 4.04 15 4.6 15h.8c.56 0 .84 0 1.054-.109a1 1 0 0 0 .437-.437C7 14.24 7 13.96 7 13.4V2.6c0-.56 0-.84-.109-1.054a1 1 0 0 0-.437-.437C6.24 1 5.96 1 5.4 1h-.8c-.56 0-.84 0-1.054.109a1 1 0 0 0-.437.437ZM10 1a1 1 0 0 0-1 1v12a1 1 0 0 0 1 1h2a1 1 0 0 0 1-1V2a1 1 0 0 0-1-1h-2Z" clip-rule="evenodd"/></svg>