<svg xmlns="http://www.w3.org/2000/svg" width="700" height="532" fill="none"><rect width="130" height="48" x="83.5" y="49" fill="#0055D9" fill-opacity=".12" rx="8"/><path fill="#1E2126" fill-rule="evenodd" d="M99.614 83h15.885c.681-.028 1.293-.315 1.67-.877.354-.53.402-1.154.307-1.696-.189-1.08-.994-2.19-2.229-2.818-.573-.292-1.232-.507-1.816-.696a25.39 25.39 0 0 0-.081-.026c-.581-.188-1.099-.355-1.555-.564-.475-.217-.786-.438-.974-.676a1.141 1.141 0 0 1-.233-.533c.919-.823 1.348-2.082 1.556-3.182.252-1.334.235-2.738.147-3.703l-.001-.018-.003-.018c-.714-5.59-8.766-5.59-9.481 0l-.002.018-.002.018c-.088.965-.105 2.37.147 3.703.208 1.099.636 2.356 1.553 3.179a1.094 1.094 0 0 1-.246.512c-.205.244-.545.471-1.054.693-.471.204-.999.369-1.581.55l-.14.044c-.604.189-1.282.404-1.86.699-1.256.64-2.014 1.78-2.125 2.892-.056.556.049 1.166.425 1.666.393.523.993.806 1.673.832l.02.001Zm.043-2a.337.337 0 0 1-.125-.026c-.01-.004-.011-.007-.013-.009-.005-.006-.052-.08-.034-.265.038-.373.338-.95 1.044-1.309.404-.206.92-.376 1.548-.572l.156-.049c.559-.173 1.191-.37 1.767-.62.629-.274 1.294-.653 1.787-1.24.521-.62.793-1.402.732-2.345l-.033-.519-.444-.27c-.509-.311-.91-1.065-1.127-2.215-.206-1.09-.198-2.288-.123-3.132.431-3.239 5.079-3.239 5.509 0 .076.844.083 2.043-.122 3.132-.217 1.15-.619 1.904-1.128 2.214l-.444.271-.033.52c-.059.923.186 1.698.678 2.32.468.593 1.104.978 1.711 1.256.566.259 1.189.46 1.739.637l.114.037c.608.196 1.115.367 1.524.575.73.372 1.096.98 1.167 1.382.02.116.012.184.005.217a.46.46 0 0 1-.076.01H99.657Zm15.881-.02-.008.005c.006-.003.009-.004.008-.005Z" clip-rule="evenodd"/><path fill="#1E2126" d="M128.844 67.028h3.84c1.344 0 2.373.267 3.088.8.715.523 1.072 1.35 1.072 2.48 0 1.003-.24 1.77-.72 2.304-.48.523-1.12.875-1.92 1.056l3.12 4.832h-1.696l-2.992-4.656H130.348V78.5h-1.504V67.028Zm3.696 5.456c.821 0 1.483-.16 1.984-.48.501-.32.752-.896.752-1.728 0-.683-.229-1.163-.688-1.44-.448-.288-1.083-.432-1.904-.432h-2.336v4.08h2.192Zm9.98 6.176c-1.387 0-2.448-.379-3.184-1.136-.726-.768-1.088-1.83-1.088-3.184 0-.907.17-1.68.512-2.32a3.6 3.6 0 0 1 1.408-1.472c.597-.341 1.269-.512 2.016-.512 1.269 0 2.202.421 2.8 1.264.597.832.789 1.973.576 3.424h-5.856c.117 1.781 1.098 2.672 2.944 2.672a4.904 4.904 0 0 0 2.8-.864v1.264c-.384.267-.832.48-1.344.64a5.63 5.63 0 0 1-1.584.224Zm-.368-7.376c-.608 0-1.131.187-1.568.56-.438.373-.715.939-.832 1.696h4.464c.032-.715-.134-1.27-.496-1.664-.363-.395-.886-.592-1.568-.592Zm8.292 7.376c-.661 0-1.28-.155-1.856-.464-.565-.32-1.019-.8-1.36-1.44-.341-.64-.512-1.445-.512-2.416 0-.97.171-1.77.512-2.4.352-.64.811-1.115 1.376-1.424a3.702 3.702 0 0 1 1.856-.48c.64 0 1.195.144 1.664.432.48.277.853.667 1.12 1.168l.064-.88c.032-.288.059-.475.08-.56h1.296a9.007 9.007 0 0 0-.064.64c-.011.277-.016.507-.016.688v9.808h-1.408v-4.336a3.19 3.19 0 0 1-1.072 1.216c-.448.299-1.008.448-1.68.448Zm.208-1.264c.725 0 1.333-.25 1.824-.752.491-.501.736-1.27.736-2.304 0-1.024-.245-1.787-.736-2.288-.491-.512-1.099-.768-1.824-.768-.725 0-1.323.261-1.792.784-.469.512-.704 1.27-.704 2.272 0 1.013.235 1.776.704 2.288.469.512 1.067.768 1.792.768Zm11.594-.384c-.224.459-.571.848-1.04 1.168-.459.32-1.062.48-1.808.48-.768 0-1.392-.219-1.872-.656-.47-.437-.704-1.104-.704-2v-5.808h1.424v5.808c0 .544.149.912.448 1.104.298.192.666.288 1.104.288.618 0 1.114-.139 1.488-.416.373-.277.693-.656.96-1.136v-5.648h1.408V78.5h-1.248l-.128-1.488h-.032Zm7.399 1.648c-1.387 0-2.448-.379-3.184-1.136-.726-.768-1.088-1.83-1.088-3.184 0-.907.17-1.68.512-2.32a3.6 3.6 0 0 1 1.408-1.472c.597-.341 1.269-.512 2.016-.512 1.269 0 2.202.421 2.8 1.264.597.832.789 1.973.576 3.424h-5.856c.117 1.781 1.098 2.672 2.944 2.672a4.904 4.904 0 0 0 2.8-.864v1.264c-.384.267-.832.48-1.344.64a5.63 5.63 0 0 1-1.584.224Zm-.368-7.376c-.608 0-1.131.187-1.568.56-.438.373-.715.939-.832 1.696h4.464c.032-.715-.134-1.27-.496-1.664-.363-.395-.886-.592-1.568-.592Zm7.828 7.376a5.897 5.897 0 0 1-1.744-.256c-.544-.181-.987-.421-1.328-.72V76.42c.331.32.773.576 1.328.768a5.336 5.336 0 0 0 1.728.288c1.301 0 1.952-.421 1.952-1.264 0-.245-.059-.443-.176-.592-.107-.16-.309-.293-.608-.4-.299-.117-.731-.23-1.296-.336-1.077-.213-1.829-.501-2.256-.864-.427-.373-.64-.901-.64-1.584 0-.757.293-1.344.88-1.76.587-.427 1.397-.64 2.432-.64.491 0 .971.053 1.44.16.48.096.869.23 1.168.4v1.264c-.619-.427-1.472-.64-2.56-.64-.672 0-1.168.096-1.488.288-.309.192-.464.49-.464.896 0 .213.048.39.144.528.096.139.288.261.576.368.288.107.72.219 1.296.336.736.15 1.317.33 1.744.544.437.203.747.464.928.784.192.32.288.725.288 1.216 0 .779-.293 1.387-.88 1.824-.587.437-1.408.656-2.464.656Zm4.406-7.264v-1.2h.992v-1.744h1.408v1.744h2.416v1.2h-2.416v4.992c0 .352.091.608.272.768.182.16.491.24.928.24a1.96 1.96 0 0 0 1.136-.352v1.28a1.96 1.96 0 0 1-.672.24 3.683 3.683 0 0 1-.832.096c-.533 0-.965-.101-1.296-.304a1.82 1.82 0 0 1-.72-.784 2.36 2.36 0 0 1-.224-1.008v-5.168h-.992Zm10.055 7.264c-1.386 0-2.448-.379-3.184-1.136-.725-.768-1.088-1.83-1.088-3.184 0-.907.171-1.68.512-2.32.342-.64.811-1.13 1.408-1.472.598-.341 1.27-.512 2.016-.512 1.27 0 2.203.421 2.8 1.264.598.832.79 1.973.576 3.424h-5.856c.118 1.781 1.099 2.672 2.944 2.672a4.9 4.9 0 0 0 2.8-.864v1.264c-.384.267-.832.48-1.344.64a5.63 5.63 0 0 1-1.584.224Zm-.368-7.376c-.608 0-1.13.187-1.568.56-.437.373-.714.939-.832 1.696h4.464c.032-.715-.133-1.27-.496-1.664-.362-.395-.885-.592-1.568-.592Zm9.285.32c-.662.053-1.227.219-1.696.496a2.49 2.49 0 0 0-1.008 1.12v5.28h-1.408v-8.304h1.232l.144 1.808h.032a3.558 3.558 0 0 1 1.088-1.344 3.403 3.403 0 0 1 1.616-.624v1.568Z"/><rect width="117" height="48" x="266.5" y="435" fill="#FF8C5F" fill-opacity=".16" rx="8"/><g clip-path="url(#a)"><path fill="#1E2126" fill-rule="evenodd" d="M282.634 469h-.02l-.02-.001c-.68-.026-1.28-.309-1.673-.832-.376-.5-.481-1.11-.426-1.667.112-1.11.87-2.251 2.126-2.891.578-.294 1.256-.51 1.86-.699l.14-.044c.582-.181 1.11-.346 1.581-.55.509-.222.849-.449 1.054-.693.114-.135.204-.296.246-.512-.628-.564-1.027-1.331-1.282-2.111h-7.316c-.353-.014-.437-.282-.393-.676.217-.928 1.054-1.252 1.849-1.559.852-.33 1.655-.64 1.592-1.657-.942-.586-.976-2.392-.893-3.331.291-2.321 3.591-2.321 3.882 0 .083.939.049 2.745-.893 3.331-.063 1.017.74 1.327 1.592 1.657l.158.061c-.086-.967-.06-1.898.004-2.597l.002-.018.002-.018c.715-5.591 8.767-5.591 9.481 0l.003.018.001.018c.063.69.09 1.606.007 2.56l.062-.024c.852-.33 1.655-.64 1.592-1.657-.942-.586-.976-2.392-.893-3.331.291-2.321 3.591-2.321 3.882 0 .083.939.049 2.745-.893 3.331-.063 1.017.74 1.327 1.592 1.657.795.307 1.632.631 1.849 1.559.044.394-.04.662-.393.676h-7.222c-.257.782-.656 1.55-1.286 2.114.039.23.126.397.233.533.188.238.499.459.974.676.456.209.974.376 1.555.564l.081.026c.584.188 1.243.404 1.816.696 1.235.628 2.04 1.738 2.229 2.818.095.542.047 1.167-.307 1.696-.377.562-.989.85-1.67.876l-.02.001h-15.845Zm-.102-2.026a.326.326 0 0 0 .125.026h15.779a.425.425 0 0 0 .076-.01.58.58 0 0 0-.005-.217c-.071-.403-.437-1.01-1.167-1.382-.409-.208-.916-.379-1.524-.575l-.114-.037c-.55-.177-1.173-.378-1.739-.637-.607-.278-1.243-.663-1.711-1.256-.492-.622-.737-1.397-.678-2.321l.033-.519.444-.271c.509-.31.911-1.064 1.128-2.214.205-1.089.198-2.288.122-3.132-.43-3.239-5.078-3.239-5.509 0-.075.844-.083 2.043.123 3.132.217 1.15.618 1.904 1.127 2.214l.444.271.033.519c.061.943-.211 1.726-.732 2.345-.493.587-1.158.966-1.787 1.24-.576.25-1.208.446-1.767.62l-.156.049c-.628.196-1.144.366-1.548.572-.706.36-1.006.937-1.044 1.309-.018.185.029.259.034.265.002.002.004.005.013.009Zm16.004.007.002-.001-.008.005.006-.004Z" clip-rule="evenodd"/></g><path fill="#1E2126" d="M310.98 454.42v-1.392h8.592v1.392h-3.536v10.08h-1.52v-10.08h-3.536Zm12.611 10.24c-.757 0-1.44-.165-2.048-.496a3.712 3.712 0 0 1-1.424-1.472c-.352-.651-.528-1.435-.528-2.352 0-.917.176-1.696.528-2.336a3.606 3.606 0 0 1 1.424-1.456c.608-.341 1.291-.512 2.048-.512.768 0 1.456.171 2.064.512a3.575 3.575 0 0 1 1.44 1.456c.352.64.528 1.419.528 2.336 0 .917-.176 1.701-.528 2.352a3.678 3.678 0 0 1-1.44 1.472c-.608.331-1.296.496-2.064.496Zm0-1.264c.747 0 1.366-.245 1.856-.736.491-.501.736-1.275.736-2.32s-.245-1.813-.736-2.304c-.49-.501-1.109-.752-1.856-.752-.736 0-1.349.251-1.84.752-.48.491-.72 1.259-.72 2.304s.24 1.819.72 2.32c.491.491 1.104.736 1.84.736Zm5.749-10.368h1.408V464.5h-1.408v-11.472Zm7.111 11.632c-.758 0-1.44-.165-2.048-.496a3.706 3.706 0 0 1-1.424-1.472c-.352-.651-.528-1.435-.528-2.352 0-.917.176-1.696.528-2.336.352-.64.826-1.125 1.424-1.456.608-.341 1.29-.512 2.048-.512.768 0 1.456.171 2.064.512a3.575 3.575 0 0 1 1.44 1.456c.352.64.528 1.419.528 2.336 0 .917-.176 1.701-.528 2.352a3.678 3.678 0 0 1-1.44 1.472c-.608.331-1.296.496-2.064.496Zm0-1.264c.746 0 1.365-.245 1.856-.736.49-.501.736-1.275.736-2.32s-.246-1.813-.736-2.304c-.491-.501-1.11-.752-1.856-.752-.736 0-1.35.251-1.84.752-.48.491-.72 1.259-.72 2.304s.24 1.819.72 2.32c.49.491 1.104.736 1.84.736Zm12.532 1.104h-1.712l-2.928-3.536h-.736v3.536h-1.408v-11.472h1.408v6.736h.8l2.912-3.568h1.6l-3.408 4.096 3.472 4.208Zm4.599.16c-1.387 0-2.448-.379-3.184-1.136-.725-.768-1.088-1.829-1.088-3.184 0-.907.171-1.68.512-2.32a3.604 3.604 0 0 1 1.408-1.472c.597-.341 1.269-.512 2.016-.512 1.269 0 2.203.421 2.8 1.264.597.832.789 1.973.576 3.424h-5.856c.117 1.781 1.099 2.672 2.944 2.672a4.902 4.902 0 0 0 2.8-.864v1.264c-.384.267-.832.48-1.344.64a5.64 5.64 0 0 1-1.584.224Zm-.368-7.376c-.608 0-1.131.187-1.568.56-.437.373-.715.939-.832 1.696h4.464c.032-.715-.133-1.269-.496-1.664s-.885-.592-1.568-.592Zm9.284.32c-.661.053-1.226.219-1.696.496a2.5 2.5 0 0 0-1.008 1.12v5.28h-1.408v-8.304h1.232l.144 1.808h.032a3.572 3.572 0 0 1 1.088-1.344 3.413 3.413 0 0 1 1.616-.624v1.568Zm4.216 7.056a5.888 5.888 0 0 1-1.744-.256c-.544-.181-.986-.421-1.328-.72v-1.264c.331.32.774.576 1.328.768a5.345 5.345 0 0 0 1.728.288c1.302 0 1.952-.421 1.952-1.264 0-.245-.058-.443-.176-.592-.106-.16-.309-.293-.608-.4-.298-.117-.73-.229-1.296-.336-1.077-.213-1.829-.501-2.256-.864-.426-.373-.64-.901-.64-1.584 0-.757.294-1.344.88-1.76.587-.427 1.398-.64 2.432-.64.491 0 .971.053 1.44.16.48.096.87.229 1.168.4v1.264c-.618-.427-1.472-.64-2.56-.64-.672 0-1.168.096-1.488.288-.309.192-.464.491-.464.896 0 .213.048.389.144.528.096.139.288.261.576.368.288.107.72.219 1.296.336.736.149 1.318.331 1.744.544.438.203.747.464.928.784.192.32.288.725.288 1.216 0 .779-.293 1.387-.88 1.824-.586.437-1.408.656-2.464.656Z"/><rect width="149" height="48" x="453.5" y="87" fill="#1E2126" fill-opacity=".04" rx="8"/><path fill="#1E2126" fill-rule="evenodd" d="M479.259 101H481.741c.805 0 1.47 0 2.011.044.562.046 1.079.145 1.564.392a3.991 3.991 0 0 1 1.748 1.748c.247.485.346 1.002.392 1.564.044.541.044 1.206.044 2.011V109.241c0 .805 0 1.47-.044 2.011-.046.562-.145 1.079-.392 1.564a3.991 3.991 0 0 1-1.748 1.748c-.485.247-1.002.346-1.564.392-.541.044-1.206.044-2.011.044H481.5V115.241c0 .805 0 1.47-.044 2.011-.046.562-.145 1.079-.392 1.564a3.991 3.991 0 0 1-1.748 1.748c-.485.247-1.002.346-1.564.392-.541.044-1.206.044-2.011.044H473.259c-.805 0-1.47 0-2.011-.044-.562-.046-1.079-.145-1.564-.392a3.991 3.991 0 0 1-1.748-1.748c-.247-.485-.346-1.002-.392-1.564-.044-.541-.044-1.206-.044-2.011V112.759c0-.805 0-1.47.044-2.011.046-.562.145-1.079.392-1.564a3.991 3.991 0 0 1 1.748-1.748c.485-.247 1.002-.346 1.564-.392.541-.044 1.206-.044 2.011-.044H473.5V106.759c0-.805 0-1.47.044-2.011.046-.562.145-1.079.392-1.564a3.991 3.991 0 0 1 1.748-1.748c.485-.247 1.002-.346 1.564-.392.541-.044 1.206-.044 2.011-.044Zm-5.759 8h-.2c-.857 0-1.439.001-1.889.038-.438.035-.663.1-.819.18a2.006 2.006 0 0 0-.874.874c-.08.156-.145.381-.18.819-.037.45-.038 1.032-.038 1.889v2.4c0 .857.001 1.439.038 1.889.035.438.1.663.18.819.192.376.498.682.874.874.156.08.381.145.819.18.45.037 1.032.038 1.889.038h2.4c.857 0 1.439-.001 1.889-.038.438-.035.663-.1.819-.18.376-.192.682-.498.874-.874.08-.156.145-.381.18-.819.037-.45.038-1.032.038-1.889v-.2H479.259c-.805 0-1.47 0-2.011-.044-.562-.046-1.079-.145-1.564-.392a3.991 3.991 0 0 1-1.748-1.748c-.247-.485-.346-1.002-.392-1.564-.044-.541-.044-1.206-.044-2.011V109Zm7 4h-1.2c-.857 0-1.439-.001-1.889-.038-.438-.035-.663-.1-.819-.18a2.006 2.006 0 0 1-.874-.874c-.08-.156-.145-.381-.18-.819-.037-.45-.038-1.032-.038-1.889v-2.4c0-.857.001-1.439.038-1.889.035-.438.1-.663.18-.819.192-.376.498-.682.874-.874.156-.08.381-.145.819-.18.45-.037 1.032-.038 1.889-.038h2.4c.857 0 1.439.001 1.889.038.438.035.663.1.819.18.376.192.682.498.874.874.08.156.145.381.18.819.037.45.038 1.032.038 1.889v2.4c0 .857-.001 1.439-.038 1.889-.035.438-.1.663-.18.819a2.006 2.006 0 0 1-.874.874c-.156.08-.381.145-.819.18-.45.037-1.032.038-1.889.038h-1.2Zm-.429-2.003a.998.998 0 0 0 .729-.397l3-4a1 1 0 0 0-1.6-1.2l-2.308 3.078-.685-.685a.999.999 0 1 0-1.414 1.414l1.5 1.5a.998.998 0 0 0 .778.29Z" clip-rule="evenodd"/><path fill="#1E2126" d="M498.844 105.028h1.504v10.112h5.584v1.36h-7.088v-11.472Zm11.702 4.256c-.885 0-1.781.272-2.688.816v-1.264a5.098 5.098 0 0 1 1.36-.576 5.535 5.535 0 0 1 1.52-.224c1.045 0 1.84.219 2.384.656.544.437.816 1.104.816 2v4.464c0 .181.005.416.016.704.021.277.043.491.064.64h-1.28a7.266 7.266 0 0 1-.096-.624 9.73 9.73 0 0 1-.032-.72l-.016-.24a4.467 4.467 0 0 1-.528.8 2.667 2.667 0 0 1-.896.672c-.363.181-.816.272-1.36.272-.747 0-1.349-.213-1.808-.64-.459-.427-.688-1.029-.688-1.808 0-.907.32-1.573.96-2 .64-.427 1.541-.64 2.704-.64h1.552v-.688c0-.576-.149-.987-.448-1.232-.299-.245-.811-.368-1.536-.368Zm1.984 4.016v-.608h-1.408c-.843 0-1.456.123-1.84.368-.373.245-.56.603-.56 1.072 0 .373.112.677.336.912.235.235.587.352 1.056.352.437 0 .811-.085 1.12-.256a2.63 2.63 0 0 0 .752-.64c.192-.256.331-.496.416-.72.085-.224.128-.384.128-.48Zm3.622-8.272h1.408l-.032 4.784c.277-.533.651-.96 1.12-1.28.469-.331 1.051-.496 1.744-.496.651 0 1.248.16 1.792.48.555.309 1.003.784 1.344 1.424.341.629.512 1.429.512 2.4 0 .971-.176 1.776-.528 2.416-.341.64-.795 1.12-1.36 1.44a3.687 3.687 0 0 1-1.824.464c-.64 0-1.2-.155-1.68-.464a3.307 3.307 0 0 1-1.12-1.264l-.048 1.568h-1.328v-11.472Zm6.432 7.312c0-1.003-.229-1.76-.688-2.272-.459-.523-1.051-.784-1.776-.784-.725 0-1.339.256-1.84.768-.491.501-.736 1.264-.736 2.288 0 1.035.245 1.803.736 2.304.501.501 1.115.752 1.84.752.725 0 1.317-.256 1.776-.768.459-.512.688-1.275.688-2.288Zm6.842 4.32c-1.387 0-2.448-.379-3.184-1.136-.726-.768-1.088-1.829-1.088-3.184 0-.907.17-1.68.512-2.32.341-.64.81-1.131 1.408-1.472.597-.341 1.269-.512 2.016-.512 1.269 0 2.202.421 2.8 1.264.597.832.789 1.973.576 3.424h-5.856c.117 1.781 1.098 2.672 2.944 2.672a4.904 4.904 0 0 0 2.8-.864v1.264c-.384.267-.832.48-1.344.64a5.64 5.64 0 0 1-1.584.224Zm-.368-7.376c-.608 0-1.131.187-1.568.56-.438.373-.715.939-.832 1.696h4.464c.032-.715-.134-1.269-.496-1.664-.363-.395-.886-.592-1.568-.592Zm5.172-4.256h1.408V116.5h-1.408v-11.472Zm7.383 11.632c-1.386 0-2.448-.379-3.184-1.136-.725-.768-1.088-1.829-1.088-3.184 0-.907.171-1.68.512-2.32a3.61 3.61 0 0 1 1.408-1.472c.598-.341 1.27-.512 2.016-.512 1.27 0 2.203.421 2.8 1.264.598.832.79 1.973.576 3.424h-5.856c.118 1.781 1.099 2.672 2.944 2.672a4.9 4.9 0 0 0 2.8-.864v1.264c-.384.267-.832.48-1.344.64a5.64 5.64 0 0 1-1.584.224Zm-.368-7.376c-.608 0-1.13.187-1.568.56-.437.373-.714.939-.832 1.696h4.464c.032-.715-.133-1.269-.496-1.664-.362-.395-.885-.592-1.568-.592Zm4.581 3.056c0-.971.17-1.771.512-2.4.341-.64.794-1.115 1.36-1.424.576-.32 1.2-.48 1.872-.48.629 0 1.173.133 1.632.4.458.256.826.624 1.104 1.104v-4.512h1.408V116.5h-1.232l-.112-1.632a3.284 3.284 0 0 1-1.088 1.312c-.459.32-1.035.48-1.728.48-.662 0-1.28-.155-1.856-.464-.566-.32-1.019-.8-1.36-1.44-.342-.64-.512-1.445-.512-2.416Zm6.496 0c0-1.035-.246-1.803-.736-2.304-.491-.501-1.099-.752-1.824-.752-.726 0-1.323.261-1.792.784-.47.512-.704 1.269-.704 2.272 0 1.013.234 1.776.704 2.288.469.512 1.066.768 1.792.768.725 0 1.333-.251 1.824-.752.49-.501.736-1.269.736-2.304Zm6.301 0c0-.971.17-1.771.512-2.4.341-.64.794-1.115 1.36-1.424.576-.32 1.2-.48 1.872-.48.629 0 1.173.133 1.632.4.458.256.826.624 1.104 1.104v-4.512h1.407V116.5h-1.231l-.112-1.632a3.284 3.284 0 0 1-1.088 1.312c-.459.32-1.035.48-1.728.48-.662 0-1.28-.155-1.856-.464-.566-.32-1.019-.8-1.36-1.44-.342-.64-.512-1.445-.512-2.416Zm6.496 0c0-1.035-.246-1.803-.736-2.304-.491-.501-1.099-.752-1.824-.752-.726 0-1.323.261-1.792.784-.47.512-.705 1.269-.705 2.272 0 1.013.235 1.776.705 2.288.469.512 1.066.768 1.792.768.725 0 1.333-.251 1.824-.752.49-.501.736-1.269.736-2.304Zm6.505-3.056c-.885 0-1.781.272-2.688.816v-1.264a5.098 5.098 0 0 1 1.36-.576 5.541 5.541 0 0 1 1.52-.224c1.046 0 1.84.219 2.384.656.544.437.816 1.104.816 2v4.464c0 .181.006.416.016.704.022.277.043.491.064.64h-1.28a7.266 7.266 0 0 1-.096-.624 9.73 9.73 0 0 1-.032-.72l-.016-.24a4.467 4.467 0 0 1-.528.8 2.657 2.657 0 0 1-.896.672c-.362.181-.816.272-1.36.272-.746 0-1.349-.213-1.808-.64-.458-.427-.688-1.029-.688-1.808 0-.907.32-1.573.96-2 .64-.427 1.542-.64 2.704-.64h1.552v-.688c0-.576-.149-.987-.448-1.232-.298-.245-.81-.368-1.536-.368Zm1.984 4.016v-.608H572.2c-.842 0-1.456.123-1.84.368-.373.245-.56.603-.56 1.072 0 .373.112.677.336.912.235.235.587.352 1.056.352.438 0 .811-.085 1.12-.256.31-.181.56-.395.752-.64.192-.256.331-.496.416-.72.086-.224.128-.384.128-.48Zm2.95-3.904v-1.2h.992v-1.744h1.408v1.744h2.416v1.2h-2.416v4.992c0 .352.091.608.272.768.181.16.491.24.928.24.416 0 .795-.117 1.136-.352v1.28a1.964 1.964 0 0 1-.672.24 3.69 3.69 0 0 1-.832.096c-.533 0-.965-.101-1.296-.304a1.81 1.81 0 0 1-.72-.784 2.36 2.36 0 0 1-.224-1.008v-5.168h-.992Zm9.426-.112c-.886 0-1.782.272-2.688.816v-1.264a5.084 5.084 0 0 1 1.36-.576 5.53 5.53 0 0 1 1.52-.224c1.045 0 1.84.219 2.384.656.544.437.816 1.104.816 2v4.464c0 .181.005.416.016.704.021.277.042.491.064.64h-1.28a7.266 7.266 0 0 1-.096-.624 9.21 9.21 0 0 1-.032-.72l-.016-.24a4.467 4.467 0 0 1-.528.8 2.667 2.667 0 0 1-.896.672c-.363.181-.816.272-1.36.272-.747 0-1.35-.213-1.808-.64-.459-.427-.688-1.029-.688-1.808 0-.907.32-1.573.96-2 .64-.427 1.541-.64 2.704-.64h1.552v-.688c0-.576-.15-.987-.448-1.232-.299-.245-.811-.368-1.536-.368Zm1.984 4.016v-.608h-1.408c-.843 0-1.456.123-1.84.368-.374.245-.56.603-.56 1.072 0 .373.112.677.336.912.234.235.586.352 1.056.352.437 0 .81-.085 1.12-.256a2.63 2.63 0 0 0 .752-.64 3.04 3.04 0 0 0 .416-.72c.085-.224.128-.384.128-.48Z"/><path fill="#1E2126" fill-opacity=".8" d="M155.793 124.707a.999.999 0 0 0 1.414 0l6.364-6.364a.999.999 0 1 0-1.414-1.414l-5.657 5.657-5.657-5.657a.999.999 0 1 0-1.414 1.414l6.364 6.364ZM155.5 97v27h2V97h-2ZM155.793 204.707a.999.999 0 0 0 1.414 0l6.364-6.364a.999.999 0 1 0-1.414-1.414l-5.657 5.657-5.657-5.657a.999.999 0 1 0-1.414 1.414l6.364 6.364ZM155.5 177v27h2v-27h-2Z"/><rect width="146" height="48" x="83.5" y="129" fill="#1E2126" fill-opacity=".04" rx="8"/><path fill="#1E2126" fill-rule="evenodd" d="m110.5 145.001-.309-.001H108.3c-.857 0-1.439.001-1.889.038-.438.035-.663.1-.819.18a2.006 2.006 0 0 0-.874.874c-.08.156-.145.381-.18.819-.037.45-.038 1.032-.038 1.889v4.4c0 .857.001 1.439.038 1.889.035.438.1.663.18.819.192.376.498.682.874.874.156.08.381.145.819.181.45.036 1.032.037 1.889.037h2.4c.857 0 1.439-.001 1.889-.037.438-.036.663-.101.819-.181.376-.192.682-.498.874-.874.08-.156.145-.381.181-.819.036-.45.037-1.032.037-1.889V149h-.6c-1.19 0-1.785 0-2.24-.232a2.113 2.113 0 0 1-.928-.928c-.232-.455-.232-1.05-.232-2.24v-.599Zm-.209-2.001c.623 0 1.094 0 1.548.107.402.094.786.25 1.139.462.401.24.738.568 1.185 1.003l.071.069.509.495.075.073c.464.45.815.791 1.072 1.202.227.362.394.758.496 1.173.115.471.114.96.114 1.607v4.05c0 .805 0 1.47-.044 2.011-.046.562-.145 1.079-.392 1.564a3.991 3.991 0 0 1-1.748 1.748c-.485.247-1.002.346-1.564.392a9.166 9.166 0 0 1-.256.017 4.712 4.712 0 0 1-.069.79 4.003 4.003 0 0 1-3.164 3.164c-.38.073-.812.073-1.395.073h-3.609c-.805 0-1.47 0-2.011-.044-.562-.046-1.079-.145-1.564-.392a3.996 3.996 0 0 1-1.748-1.748c-.247-.485-.346-1.002-.392-1.564-.044-.541-.044-1.206-.044-2.011V151.725c0-.668 0-1.164.096-1.598a4 4 0 0 1 3.031-3.031c.268-.059.559-.082.9-.091.005-.088.01-.174.017-.257.046-.562.145-1.079.392-1.564a4.001 4.001 0 0 1 1.748-1.748c.485-.247 1.002-.346 1.564-.392.541-.044 1.206-.044 2.011-.044h2.032Zm-1.991 16h2.195a2.326 2.326 0 0 1-.032.382 1.998 1.998 0 0 1-1.581 1.581c-.166.032-.387.037-1.115.037H104.3c-.857 0-1.439-.001-1.889-.037-.438-.036-.663-.101-.819-.181a2.006 2.006 0 0 1-.874-.874c-.08-.156-.145-.381-.18-.819-.037-.45-.038-1.032-.038-1.889v-5.36c0-.835.006-1.088.048-1.276a2.001 2.001 0 0 1 1.516-1.516c.1-.022.22-.034.436-.041v4.234c0 .805 0 1.47.044 2.011.046.562.145 1.079.392 1.564a3.996 3.996 0 0 0 1.748 1.748c.485.247 1.002.346 1.564.392.541.044 1.206.044 2.011.044h.041Z" clip-rule="evenodd"/><path fill="#1E2126" d="M128.844 147.028h3.856c.768 0 1.483.091 2.144.272.661.181 1.237.48 1.728.896.491.405.875.949 1.152 1.632.277.683.416 1.531.416 2.544 0 1.344-.245 2.475-.736 3.392-.48.907-1.141 1.589-1.984 2.048-.843.459-1.808.688-2.896.688h-3.68v-11.472Zm3.68 10.112c.789 0 1.483-.16 2.08-.48.597-.331 1.061-.837 1.392-1.52.341-.693.512-1.579.512-2.656 0-1.077-.165-1.909-.496-2.496-.331-.587-.784-.997-1.36-1.232-.565-.235-1.216-.352-1.952-.352h-2.352v8.736h2.176Zm10.241-5.856c-.885 0-1.781.272-2.688.816v-1.264a5.098 5.098 0 0 1 1.36-.576 5.535 5.535 0 0 1 1.52-.224c1.045 0 1.84.219 2.384.656.544.437.816 1.104.816 2v4.464c0 .181.005.416.016.704.021.277.043.491.064.64h-1.28a7.266 7.266 0 0 1-.096-.624 9.73 9.73 0 0 1-.032-.72l-.016-.24a4.467 4.467 0 0 1-.528.8 2.667 2.667 0 0 1-.896.672c-.363.181-.816.272-1.36.272-.747 0-1.349-.213-1.808-.64-.459-.427-.688-1.029-.688-1.808 0-.907.32-1.573.96-2 .64-.427 1.541-.64 2.704-.64h1.552v-.688c0-.576-.149-.987-.448-1.232-.299-.245-.811-.368-1.536-.368Zm1.984 4.016v-.608h-1.408c-.843 0-1.456.123-1.84.368-.373.245-.56.603-.56 1.072 0 .373.112.677.336.912.235.235.587.352 1.056.352.437 0 .811-.085 1.12-.256a2.63 2.63 0 0 0 .752-.64c.192-.256.331-.496.416-.72.085-.224.128-.384.128-.48Zm2.95-3.904v-1.2h.992v-1.744h1.408v1.744h2.416v1.2h-2.416v4.992c0 .352.09.608.272.768.181.16.49.24.928.24a1.96 1.96 0 0 0 1.136-.352v1.28a1.964 1.964 0 0 1-.672.24 3.696 3.696 0 0 1-.832.096c-.534 0-.966-.101-1.296-.304a1.81 1.81 0 0 1-.72-.784 2.346 2.346 0 0 1-.224-1.008v-5.168h-.992Zm9.425-.112c-.885 0-1.781.272-2.688.816v-1.264a5.098 5.098 0 0 1 1.36-.576 5.541 5.541 0 0 1 1.52-.224c1.046 0 1.84.219 2.384.656.544.437.816 1.104.816 2v4.464c0 .181.006.416.016.704.022.277.043.491.064.64h-1.28a7.266 7.266 0 0 1-.096-.624 9.73 9.73 0 0 1-.032-.72l-.016-.24a4.467 4.467 0 0 1-.528.8 2.657 2.657 0 0 1-.896.672c-.362.181-.816.272-1.36.272-.746 0-1.349-.213-1.808-.64-.458-.427-.688-1.029-.688-1.808 0-.907.32-1.573.96-2 .64-.427 1.542-.64 2.704-.64h1.552v-.688c0-.576-.149-.987-.448-1.232-.298-.245-.81-.368-1.536-.368Zm1.984 4.016v-.608H157.7c-.842 0-1.456.123-1.84.368-.373.245-.56.603-.56 1.072 0 .373.112.677.336.912.235.235.587.352 1.056.352.438 0 .811-.085 1.12-.256.31-.181.56-.395.752-.64.192-.256.331-.496.416-.72.086-.224.128-.384.128-.48Zm6.153-3.904v-1.2h.992v-1.744h1.408v1.744h2.416v1.2h-2.416v4.992c0 .352.091.608.272.768.182.16.491.24.928.24.416 0 .795-.117 1.136-.352v1.28c-.17.107-.394.187-.672.24a3.683 3.683 0 0 1-.832.096c-.533 0-.965-.101-1.296-.304a1.823 1.823 0 0 1-.72-.784 2.36 2.36 0 0 1-.224-1.008v-5.168h-.992Zm9.783 7.264c-.757 0-1.44-.165-2.048-.496a3.712 3.712 0 0 1-1.424-1.472c-.352-.651-.528-1.435-.528-2.352 0-.917.176-1.696.528-2.336a3.606 3.606 0 0 1 1.424-1.456c.608-.341 1.291-.512 2.048-.512.768 0 1.456.171 2.064.512a3.575 3.575 0 0 1 1.44 1.456c.352.64.528 1.419.528 2.336 0 .917-.176 1.701-.528 2.352a3.678 3.678 0 0 1-1.44 1.472c-.608.331-1.296.496-2.064.496Zm0-1.264c.747 0 1.366-.245 1.856-.736.491-.501.736-1.275.736-2.32s-.245-1.813-.736-2.304c-.49-.501-1.109-.752-1.856-.752-.736 0-1.349.251-1.84.752-.48.491-.72 1.259-.72 2.304s.24 1.819.72 2.32c.491.491 1.104.736 1.84.736Zm8.952-10.368h1.408V158.5h-1.408v-11.472Zm6.519 4.256c-.885 0-1.781.272-2.688.816v-1.264a5.098 5.098 0 0 1 1.36-.576 5.535 5.535 0 0 1 1.52-.224c1.045 0 1.84.219 2.384.656.544.437.816 1.104.816 2v4.464c0 .181.005.416.016.704.021.277.043.491.064.64h-1.28a7.266 7.266 0 0 1-.096-.624 9.73 9.73 0 0 1-.032-.72l-.016-.24a4.467 4.467 0 0 1-.528.8 2.667 2.667 0 0 1-.896.672c-.363.181-.816.272-1.36.272-.747 0-1.349-.213-1.808-.64-.459-.427-.688-1.029-.688-1.808 0-.907.32-1.573.96-2 .64-.427 1.541-.64 2.704-.64h1.552v-.688c0-.576-.149-.987-.448-1.232-.299-.245-.811-.368-1.536-.368Zm1.984 4.016v-.608h-1.408c-.843 0-1.456.123-1.84.368-.373.245-.56.603-.56 1.072 0 .373.112.677.336.912.235.235.587.352 1.056.352.437 0 .811-.085 1.12-.256a2.63 2.63 0 0 0 .752-.64c.192-.256.331-.496.416-.72.085-.224.128-.384.128-.48Zm3.622-8.272h1.408l-.032 4.784a3.43 3.43 0 0 1 1.12-1.28c.469-.331 1.05-.496 1.744-.496.65 0 1.248.16 1.792.48.554.309 1.002.784 1.344 1.424.341.629.512 1.429.512 2.4 0 .971-.176 1.776-.528 2.416-.342.64-.795 1.12-1.36 1.44a3.687 3.687 0 0 1-1.824.464c-.64 0-1.2-.155-1.68-.464a3.299 3.299 0 0 1-1.12-1.264l-.048 1.568h-1.328v-11.472Zm6.432 7.312c0-1.003-.23-1.76-.688-2.272-.459-.523-1.051-.784-1.776-.784-.726 0-1.339.256-1.84.768-.491.501-.736 1.264-.736 2.288 0 1.035.245 1.803.736 2.304.501.501 1.114.752 1.84.752.725 0 1.317-.256 1.776-.768.458-.512.688-1.275.688-2.288Zm6.842 4.32c-1.387 0-2.448-.379-3.184-1.136-.726-.768-1.088-1.829-1.088-3.184 0-.907.17-1.68.512-2.32.341-.64.81-1.131 1.408-1.472.597-.341 1.269-.512 2.016-.512 1.269 0 2.202.421 2.8 1.264.597.832.789 1.973.576 3.424h-5.856c.117 1.781 1.098 2.672 2.944 2.672a4.904 4.904 0 0 0 2.8-.864v1.264c-.384.267-.832.48-1.344.64a5.64 5.64 0 0 1-1.584.224Zm-.368-7.376c-.608 0-1.131.187-1.568.56-.438.373-.715.939-.832 1.696h4.464c.032-.715-.134-1.269-.496-1.664-.363-.395-.886-.592-1.568-.592Zm5.172-4.256h1.408V158.5h-1.408v-11.472Z"/><rect width="484" height="187" x="83.5" y="210" fill="#1E2126" fill-opacity=".04" rx="8"/><path fill="#1E2126" fill-rule="evenodd" d="M107.5 226.02c-.186-.017-.461-.02-.988-.02H103.3c-.857 0-1.439.001-1.889.038-.438.035-.663.1-.819.18a2.004 2.004 0 0 0-.874.874c-.08.156-.145.381-.18.819-.037.45-.038 1.032-.038 1.889v8.4c0 .857 0 1.439.038 1.889.035.438.1.663.18.819.192.376.498.682.874.874.156.08.381.145.819.181l.096.007.061.004a.968.968 0 0 1 .932.997c0 .552-.495 1.023-1.045.999l-.207-.014c-.562-.046-1.079-.145-1.564-.392a3.996 3.996 0 0 1-1.748-1.748c-.247-.485-.346-1.002-.392-1.564-.044-.541-.044-1.206-.044-2.011V229.759c0-.805 0-1.47.044-2.011.046-.562.145-1.079.392-1.564a4 4 0 0 1 1.748-1.748c.485-.247 1.002-.346 1.564-.392.541-.044 1.206-.044 2.011-.044h3.355c.635 0 1.114 0 1.577.111.408.098.798.259 1.156.479.406.248.745.588 1.194 1.037l.072.072 1.188 1.188.072.072c.45.449.789.788 1.038 1.194.219.358.38.748.478 1.156.089.368-.224.691-.603.691H111.5c-1.4 0-2.1 0-2.635-.272a2.51 2.51 0 0 1-1.093-1.093c-.271-.532-.272-1.228-.272-2.615Zm-6.045 17.95.038.003-.049-.003h.011Zm9.329-10.254 2.314-2.314c.257-.257.607-.402.971-.402a3.431 3.431 0 0 1 3.431 3.432c0 .364-.145.713-.402.97l-2.314 2.314-4.544 4.544a5.003 5.003 0 0 1-2.983 1.434l-1.515.168a1 1 0 0 1-1.104-1.104l.168-1.515a5.003 5.003 0 0 1 1.434-2.983l4.544-4.544Zm.981 1.847-4.111 4.111a3.003 3.003 0 0 0-.86 1.79l-.03.272.272-.03a3.003 3.003 0 0 0 1.79-.86l4.111-4.111a1.695 1.695 0 0 0-1.172-1.172Zm2.673-.329a3.726 3.726 0 0 0-1.172-1.172l1.042-1.042a1.432 1.432 0 0 1 1.172 1.172l-1.042 1.042Z" clip-rule="evenodd"/><path fill="#1E2126" d="M128.844 228.028h3.664c1.301 0 2.309.272 3.024.816.725.533 1.088 1.371 1.088 2.512 0 .864-.181 1.568-.544 2.112-.352.544-.848.944-1.488 1.2-.629.245-1.365.368-2.208.368h-2.032v4.464h-1.504v-11.472Zm3.536 5.648c.811 0 1.467-.176 1.968-.528.501-.352.752-.944.752-1.776 0-.693-.224-1.195-.672-1.504-.448-.309-1.088-.464-1.92-.464h-2.16v4.272h2.032Zm10.072-1.072c-.662.053-1.227.219-1.696.496a2.49 2.49 0 0 0-1.008 1.12v5.28h-1.408v-8.304h1.232l.144 1.808h.032a3.553 3.553 0 0 1 1.088-1.344 3.41 3.41 0 0 1 1.616-.624v1.568Zm4.717 7.056c-.757 0-1.44-.165-2.048-.496a3.712 3.712 0 0 1-1.424-1.472c-.352-.651-.528-1.435-.528-2.352 0-.917.176-1.696.528-2.336a3.606 3.606 0 0 1 1.424-1.456c.608-.341 1.291-.512 2.048-.512.768 0 1.456.171 2.064.512a3.575 3.575 0 0 1 1.44 1.456c.352.64.528 1.419.528 2.336 0 .917-.176 1.701-.528 2.352a3.678 3.678 0 0 1-1.44 1.472c-.608.331-1.296.496-2.064.496Zm0-1.264c.747 0 1.366-.245 1.856-.736.491-.501.736-1.275.736-2.32s-.245-1.813-.736-2.304c-.49-.501-1.109-.752-1.856-.752-.736 0-1.349.251-1.84.752-.48.491-.72 1.259-.72 2.304s.24 1.819.72 2.32c.491.491 1.104.736 1.84.736Zm6.503-8.416c-.278 0-.502-.085-.672-.256a.922.922 0 0 1-.257-.656c0-.256.086-.475.257-.656a.88.88 0 0 1 .672-.272c.277 0 .496.091.656.272.17.181.256.4.256.656a.925.925 0 0 1-.256.656c-.16.171-.379.256-.656.256Zm.704 1.216v9.008c0 .416-.08.795-.24 1.136-.15.352-.395.629-.736.832-.331.213-.763.32-1.296.32-.555 0-1.041-.112-1.457-.336v-1.264c.182.096.374.176.576.24.203.064.416.096.641.096.405 0 .688-.101.848-.304.17-.192.256-.421.256-.688v-9.04h1.408Zm5.972 8.464c-1.387 0-2.448-.379-3.184-1.136-.726-.768-1.088-1.829-1.088-3.184 0-.907.17-1.68.512-2.32.341-.64.81-1.131 1.408-1.472.597-.341 1.269-.512 2.016-.512 1.269 0 2.202.421 2.8 1.264.597.832.789 1.973.576 3.424h-5.856c.117 1.781 1.098 2.672 2.944 2.672a4.904 4.904 0 0 0 2.8-.864v1.264c-.384.267-.832.48-1.344.64a5.64 5.64 0 0 1-1.584.224Zm-.368-7.376c-.608 0-1.131.187-1.568.56-.438.373-.715.939-.832 1.696h4.464c.032-.715-.134-1.269-.496-1.664-.363-.395-.886-.592-1.568-.592Zm8.756 7.376c-1.291 0-2.309-.379-3.056-1.136-.747-.768-1.12-1.829-1.12-3.184 0-1.355.379-2.411 1.136-3.168.757-.757 1.792-1.136 3.104-1.136.501 0 .971.059 1.408.176.437.107.789.267 1.056.48v1.264c-.725-.448-1.541-.672-2.448-.672-.96 0-1.669.256-2.128.768-.459.501-.688 1.264-.688 2.288 0 1.024.219 1.792.656 2.304.448.501 1.141.752 2.08.752a5.08 5.08 0 0 0 2.528-.656v1.264c-.693.437-1.536.656-2.528.656Zm3.65-7.264v-1.2h.992v-1.744h1.408v1.744h2.416v1.2h-2.416v4.992c0 .352.091.608.272.768.182.16.491.24.928.24.416 0 .795-.117 1.136-.352v1.28c-.17.107-.394.187-.672.24a3.683 3.683 0 0 1-.832.096c-.533 0-.965-.101-1.296-.304a1.823 1.823 0 0 1-.72-.784 2.36 2.36 0 0 1-.224-1.008v-5.168h-.992Z"/><rect width="226" height="131" x="95.5" y="254" fill="#F5F8FF" rx="8"/><path fill="#1E2126" fill-rule="evenodd" d="M113.5 270h1c.733 0 1.163.002 1.479.027.16.014.238.03.265.037a.492.492 0 0 1 .192.192c.007.027.023.105.037.265.025.316.027.746.027 1.479v1c0 .733-.002 1.163-.027 1.479-.014.16-.03.238-.037.265a.492.492 0 0 1-.192.192 1.797 1.797 0 0 1-.265.037c-.316.025-.746.027-1.479.027h-1c-.733 0-1.163-.002-1.479-.027a1.797 1.797 0 0 1-.265-.037.492.492 0 0 1-.192-.192 1.797 1.797 0 0 1-.037-.265c-.025-.316-.027-.746-.027-1.479v-1c0-.733.002-1.163.027-1.479.014-.16.03-.238.037-.265a.492.492 0 0 1 .192-.192c.027-.007.105-.023.265-.037.316-.025.746-.027 1.479-.027Zm2.756.067-.003-.001a.008.008 0 0 0 .003.001Zm.177.177.001.003-.001-.003Zm0 4.512.001-.003-.001.003Zm-.177.177-.003.001.003-.001Zm-4.512 0 .003.001-.003-.001Zm-.177-.177-.001-.003.001.003Zm0-4.512-.001.003.001-.003Zm.177-.177.003-.001-.003.001ZM109.5 272c0-1.4 0-2.1.272-2.635a2.51 2.51 0 0 1 1.093-1.093C111.4 268 112.1 268 113.5 268h1c1.4 0 2.1 0 2.635.272.47.24.853.623 1.093 1.093.272.535.272 1.235.272 2.635v1c0 1.4 0 2.1-.272 2.635a2.51 2.51 0 0 1-1.093 1.093c-.535.272-1.235.272-2.635.272h-1c-1.4 0-2.1 0-2.635-.272a2.51 2.51 0 0 1-1.093-1.093c-.272-.535-.272-1.235-.272-2.635v-1Zm4 9h1c.733 0 1.163.002 1.479.027.16.014.238.03.265.037a.492.492 0 0 1 .192.192c.007.027.023.105.037.265.025.316.027.746.027 1.479v1c0 .733-.002 1.163-.027 1.479-.014.16-.03.238-.037.265a.492.492 0 0 1-.192.192 1.797 1.797 0 0 1-.265.037c-.316.025-.746.027-1.479.027h-1c-.733 0-1.163-.002-1.479-.027a1.797 1.797 0 0 1-.265-.037.492.492 0 0 1-.192-.192 1.797 1.797 0 0 1-.037-.265c-.025-.316-.027-.746-.027-1.479v-1c0-.733.002-1.163.027-1.479.014-.16.03-.238.037-.265a.492.492 0 0 1 .192-.192c.027-.007.105-.023.265-.037.316-.025.746-.027 1.479-.027Zm2.753.066.003.001h-.001l-.002-.001Zm.18.178.001.003-.001-.003Zm-4.866 0-.001.003.001-.003Zm.177-.177.003-.001-.003.001ZM109.5 283c0-1.4 0-2.1.272-2.635a2.51 2.51 0 0 1 1.093-1.093C111.4 279 112.1 279 113.5 279h1c1.4 0 2.1 0 2.635.272.47.24.853.623 1.093 1.093.272.535.272 1.235.272 2.635v1c0 1.4 0 2.1-.272 2.635a2.51 2.51 0 0 1-1.093 1.093c-.535.272-1.235.272-2.635.272h-1c-1.4 0-2.1 0-2.635-.272a2.51 2.51 0 0 1-1.093-1.093c-.272-.535-.272-1.235-.272-2.635v-1Zm16-13h-1c-.733 0-1.163.002-1.479.027-.16.014-.238.03-.265.037a.492.492 0 0 0-.192.192 1.797 1.797 0 0 0-.037.265c-.025.316-.027.746-.027 1.479v1c0 .733.002 1.163.027 1.479.014.16.03.238.037.265a.492.492 0 0 0 .192.192c.027.007.105.023.265.037.316.025.746.027 1.479.027h1c.733 0 1.163-.002 1.479-.027.16-.014.238-.03.265-.037a.492.492 0 0 0 .192-.192c.007-.027.023-.105.037-.265.025-.316.027-.746.027-1.479v-1c0-.733-.002-1.163-.027-1.479a1.797 1.797 0 0 0-.037-.265.492.492 0 0 0-.192-.192 1.797 1.797 0 0 0-.265-.037c-.316-.025-.746-.027-1.479-.027Zm-2.756 4.933.003.001-.003-.001Zm-.177-.177-.001-.003.001.003Zm0-4.512-.001.003.001-.003Zm.177-.177.003-.001-.003.001Zm-1.972-.702c-.272.535-.272 1.235-.272 2.635v1c0 1.4 0 2.1.272 2.635.24.47.623.853 1.093 1.093.535.272 1.235.272 2.635.272h1c1.4 0 2.1 0 2.635-.272a2.51 2.51 0 0 0 1.093-1.093c.272-.535.272-1.235.272-2.635v-1c0-1.4 0-2.1-.272-2.635a2.51 2.51 0 0 0-1.093-1.093C127.6 268 126.9 268 125.5 268h-1c-1.4 0-2.1 0-2.635.272a2.51 2.51 0 0 0-1.093 1.093ZM124.5 281h1c.733 0 1.163.002 1.479.027.16.014.238.03.265.037a.492.492 0 0 1 .192.192c.007.027.023.105.037.265.025.316.027.746.027 1.479v1c0 .733-.002 1.163-.027 1.479-.014.16-.03.238-.037.265a.492.492 0 0 1-.192.192 1.797 1.797 0 0 1-.265.037c-.316.025-.746.027-1.479.027h-1c-.733 0-1.163-.002-1.479-.027a1.797 1.797 0 0 1-.265-.037.492.492 0 0 1-.192-.192 1.797 1.797 0 0 1-.037-.265c-.025-.316-.027-.746-.027-1.479v-1c0-.733.002-1.163.027-1.479.014-.16.03-.238.037-.265a.492.492 0 0 1 .192-.192c.027-.007.105-.023.265-.037.316-.025.746-.027 1.479-.027Zm-1.934.247.001-.003v.001l-.001.002Zm.178-.18.003-.001-.003.001ZM120.5 283c0-1.4 0-2.1.272-2.635a2.51 2.51 0 0 1 1.093-1.093C122.4 279 123.1 279 124.5 279h1c1.4 0 2.1 0 2.635.272.47.24.853.623 1.093 1.093.272.535.272 1.235.272 2.635v1c0 1.4 0 2.1-.272 2.635a2.51 2.51 0 0 1-1.093 1.093c-.535.272-1.235.272-2.635.272h-1c-1.4 0-2.1 0-2.635-.272a2.51 2.51 0 0 1-1.093-1.093c-.272-.535-.272-1.235-.272-2.635v-1Z" clip-rule="evenodd"/><path fill="#1E2126" d="M140.844 272.028h3.664c1.301 0 2.309.272 3.024.816.725.533 1.088 1.371 1.088 2.512 0 .864-.181 1.568-.544 2.112-.352.544-.848.944-1.488 1.2-.629.245-1.365.368-2.208.368h-2.032v4.464h-1.504v-11.472Zm3.536 5.648c.811 0 1.467-.176 1.968-.528.501-.352.752-.944.752-1.776 0-.693-.224-1.195-.672-1.504-.448-.309-1.088-.464-1.92-.464h-2.16v4.272h2.032Zm9.039 5.984c-.757 0-1.44-.165-2.048-.496a3.712 3.712 0 0 1-1.424-1.472c-.352-.651-.528-1.435-.528-2.352 0-.917.176-1.696.528-2.336a3.606 3.606 0 0 1 1.424-1.456c.608-.341 1.291-.512 2.048-.512.768 0 1.456.171 2.064.512a3.575 3.575 0 0 1 1.44 1.456c.352.64.528 1.419.528 2.336 0 .917-.176 1.701-.528 2.352a3.678 3.678 0 0 1-1.44 1.472c-.608.331-1.296.496-2.064.496Zm0-1.264c.747 0 1.366-.245 1.856-.736.491-.501.736-1.275.736-2.32s-.245-1.813-.736-2.304c-.49-.501-1.109-.752-1.856-.752-.736 0-1.349.251-1.84.752-.48.491-.72 1.259-.72 2.304s.24 1.819.72 2.32c.491.491 1.104.736 1.84.736Zm9.157 1.264c-.758 0-1.44-.165-2.048-.496a3.706 3.706 0 0 1-1.424-1.472c-.352-.651-.528-1.435-.528-2.352 0-.917.176-1.696.528-2.336.352-.64.826-1.125 1.424-1.456.608-.341 1.29-.512 2.048-.512.768 0 1.456.171 2.064.512a3.575 3.575 0 0 1 1.44 1.456c.352.64.528 1.419.528 2.336 0 .917-.176 1.701-.528 2.352a3.678 3.678 0 0 1-1.44 1.472c-.608.331-1.296.496-2.064.496Zm0-1.264c.746 0 1.365-.245 1.856-.736.49-.501.736-1.275.736-2.32s-.246-1.813-.736-2.304c-.491-.501-1.11-.752-1.856-.752-.736 0-1.35.251-1.84.752-.48.491-.72 1.259-.72 2.304s.24 1.819.72 2.32c.49.491 1.104.736 1.84.736Zm5.748-10.368h1.408V283.5h-1.408v-11.472Z"/><rect width="96" height="75" x="107.5" y="298" fill="#DDE7FF" rx="8"/><path fill="#1E2126" d="M119.98 314.92v-1.392h8.592v1.392h-3.536V325h-1.52v-10.08h-3.536Zm11.941 2.864c-.885 0-1.781.272-2.688.816v-1.264a5.098 5.098 0 0 1 1.36-.576 5.535 5.535 0 0 1 1.52-.224c1.045 0 1.84.219 2.384.656.544.437.816 1.104.816 2v4.464c0 .181.005.416.016.704.021.277.043.491.064.64h-1.28a7.266 7.266 0 0 1-.096-.624 9.73 9.73 0 0 1-.032-.72l-.016-.24a4.467 4.467 0 0 1-.528.8 2.667 2.667 0 0 1-.896.672c-.363.181-.816.272-1.36.272-.747 0-1.349-.213-1.808-.64-.459-.427-.688-1.029-.688-1.808 0-.907.32-1.573.96-2 .64-.427 1.541-.64 2.704-.64h1.552v-.688c0-.576-.149-.987-.448-1.232-.299-.245-.811-.368-1.536-.368Zm1.984 4.016v-.608h-1.408c-.843 0-1.456.123-1.84.368-.373.245-.56.603-.56 1.072 0 .373.112.677.336.912.235.235.587.352 1.056.352.437 0 .811-.085 1.12-.256a2.63 2.63 0 0 0 .752-.64c.192-.256.331-.496.416-.72.085-.224.128-.384.128-.48Zm6.278 3.36a5.888 5.888 0 0 1-1.744-.256c-.544-.181-.987-.421-1.328-.72v-1.264c.331.32.773.576 1.328.768a5.336 5.336 0 0 0 1.728.288c1.301 0 1.952-.421 1.952-1.264 0-.245-.059-.443-.176-.592-.107-.16-.309-.293-.608-.4-.299-.117-.731-.229-1.296-.336-1.077-.213-1.829-.501-2.256-.864-.427-.373-.64-.901-.64-1.584 0-.757.293-1.344.88-1.76.587-.427 1.397-.64 2.432-.64.491 0 .971.053 1.44.16.48.096.869.229 1.168.4v1.264c-.619-.427-1.472-.64-2.56-.64-.672 0-1.168.096-1.488.288-.309.192-.464.491-.464.896 0 .213.048.389.144.528.096.139.288.261.576.368.288.107.72.219 1.296.336.736.149 1.317.331 1.744.544.437.203.747.464.928.784.192.32.288.725.288 1.216 0 .779-.293 1.387-.88 1.824-.587.437-1.408.656-2.464.656Zm11.862-.16h-1.712l-2.928-3.536h-.736V325h-1.408v-11.472h1.408v6.736h.8l2.912-3.568h1.6l-3.408 4.096 3.472 4.208Zm7.013.16a5.888 5.888 0 0 1-1.744-.256c-.544-.181-.987-.421-1.328-.72v-1.264c.331.32.773.576 1.328.768a5.336 5.336 0 0 0 1.728.288c1.301 0 1.952-.421 1.952-1.264 0-.245-.059-.443-.176-.592-.107-.16-.309-.293-.608-.4-.299-.117-.731-.229-1.296-.336-1.077-.213-1.829-.501-2.256-.864-.427-.373-.64-.901-.64-1.584 0-.757.293-1.344.88-1.76.587-.427 1.397-.64 2.432-.64.491 0 .971.053 1.44.16.48.096.869.229 1.168.4v1.264c-.619-.427-1.472-.64-2.56-.64-.672 0-1.168.096-1.488.288-.309.192-.464.491-.464.896 0 .213.048.389.144.528.096.139.288.261.576.368.288.107.72.219 1.296.336.736.149 1.317.331 1.744.544.437.203.747.464.928.784.192.32.288.725.288 1.216 0 .779-.293 1.387-.88 1.824-.587.437-1.408.656-2.464.656Zm10.406-1.648c-.224.459-.57.848-1.04 1.168-.458.32-1.061.48-1.808.48-.768 0-1.392-.219-1.872-.656-.469-.437-.704-1.104-.704-2v-5.808h1.424v5.808c0 .544.15.912.448 1.104.299.192.667.288 1.104.288.619 0 1.115-.139 1.488-.416.374-.277.694-.656.96-1.136v-5.648h1.408V325h-1.248l-.128-1.488h-.032Zm4.439-8.032c-.288 0-.517-.085-.688-.256a.925.925 0 0 1-.256-.656c0-.256.086-.475.256-.656.171-.181.4-.272.688-.272.278 0 .496.091.656.272.16.181.24.4.24.656s-.08.475-.24.656c-.16.171-.378.256-.656.256Zm-.72 1.216h1.408V325h-1.408v-8.304Zm3.031 1.2v-1.2h.992v-1.744h1.408v1.744h2.416v1.2h-2.416v4.992c0 .352.091.608.272.768.182.16.491.24.928.24.416 0 .795-.117 1.136-.352v1.28c-.17.107-.394.187-.672.24a3.683 3.683 0 0 1-.832.096c-.533 0-.965-.101-1.296-.304a1.823 1.823 0 0 1-.72-.784 2.36 2.36 0 0 1-.224-1.008v-5.168h-.992Zm10.056 7.264c-1.387 0-2.448-.379-3.184-1.136-.726-.768-1.088-1.829-1.088-3.184 0-.907.17-1.68.512-2.32.341-.64.81-1.131 1.408-1.472.597-.341 1.269-.512 2.016-.512 1.269 0 2.202.421 2.8 1.264.597.832.789 1.973.576 3.424h-5.856c.117 1.781 1.098 2.672 2.944 2.672a4.904 4.904 0 0 0 2.8-.864v1.264c-.384.267-.832.48-1.344.64a5.64 5.64 0 0 1-1.584.224Zm-.368-7.376c-.608 0-1.131.187-1.568.56-.438.373-.715.939-.832 1.696h4.464c.032-.715-.134-1.269-.496-1.664-.363-.395-.886-.592-1.568-.592Z"/><path fill="#1E2126" fill-rule="evenodd" d="M140.5 347.357V350.643c0 1.084 0 1.958-.058 2.666-.059.728-.185 1.369-.487 1.961a4.994 4.994 0 0 1-2.185 2.185c-.592.302-1.233.428-1.961.487-.708.058-1.582.058-2.666.058H129.857c-1.084 0-1.958 0-2.666-.058-.728-.059-1.369-.185-1.961-.487a4.994 4.994 0 0 1-2.185-2.185c-.302-.592-.428-1.233-.487-1.961-.058-.708-.058-1.582-.058-2.666V347.357c0-1.084 0-1.958.058-2.666.059-.728.185-1.369.487-1.961a4.994 4.994 0 0 1 2.185-2.185c.592-.302 1.233-.428 1.961-.487.708-.058 1.582-.058 2.666-.058H133.143c1.084 0 1.958 0 2.666.058.728.059 1.369.185 1.961.487a4.994 4.994 0 0 1 2.185 2.185c.302.592.428 1.233.487 1.961.058.708.058 1.582.058 2.666Zm-2.051-2.503c-.05-.605-.142-.953-.276-1.216a3.009 3.009 0 0 0-1.311-1.311c-.263-.134-.611-.226-1.216-.276-.617-.05-1.409-.051-2.546-.051h-3.2c-1.137 0-1.929.001-2.546.051-.605.05-.953.142-1.216.276a3.009 3.009 0 0 0-1.311 1.311c-.134.263-.226.611-.276 1.216-.05.617-.051 1.409-.051 2.546v3.2c0 1.137.001 1.929.051 2.546.05.605.142.953.276 1.216a3.009 3.009 0 0 0 1.311 1.311c.263.134.611.226 1.216.276.617.05 1.409.051 2.546.051h3.2c1.137 0 1.929-.001 2.546-.051.605-.05.953-.142 1.216-.276a3.009 3.009 0 0 0 1.311-1.311c.134-.263.226-.611.276-1.216.05-.617.051-1.409.051-2.546v-3.2c0-1.137-.001-1.929-.051-2.546ZM164.5 347.357V350.643c0 1.084 0 1.958-.058 2.666-.059.728-.185 1.369-.487 1.961a4.994 4.994 0 0 1-2.185 2.185c-.592.302-1.233.428-1.961.487-.708.058-1.582.058-2.666.058H153.857c-1.084 0-1.958 0-2.666-.058-.728-.059-1.369-.185-1.961-.487a4.994 4.994 0 0 1-2.185-2.185c-.302-.592-.428-1.233-.487-1.961-.058-.708-.058-1.582-.058-2.666V347.357c0-1.084 0-1.958.058-2.666.059-.728.185-1.369.487-1.961a4.994 4.994 0 0 1 2.185-2.185c.592-.302 1.233-.428 1.961-.487.708-.058 1.582-.058 2.666-.058H157.143c1.084 0 1.958 0 2.666.058.728.059 1.369.185 1.961.487a4.994 4.994 0 0 1 2.185 2.185c.302.592.428 1.233.487 1.961.058.708.058 1.582.058 2.666Zm-2.051-2.503c-.05-.605-.142-.953-.276-1.216a3.009 3.009 0 0 0-1.311-1.311c-.263-.134-.611-.226-1.216-.276-.617-.05-1.409-.051-2.546-.051h-3.2c-1.137 0-1.929.001-2.546.051-.605.05-.953.142-1.216.276a3.009 3.009 0 0 0-1.311 1.311c-.134.263-.226.611-.276 1.216-.05.617-.051 1.409-.051 2.546v3.2c0 1.137.001 1.929.051 2.546.05.605.142.953.276 1.216a3.009 3.009 0 0 0 1.311 1.311c.263.134.611.226 1.216.276.617.05 1.409.051 2.546.051h3.2c1.137 0 1.929-.001 2.546-.051.605-.05.953-.142 1.216-.276a3.009 3.009 0 0 0 1.311-1.311c.134-.263.226-.611.276-1.216.05-.617.051-1.409.051-2.546v-3.2c0-1.137-.001-1.929-.051-2.546ZM188.5 347.357V350.643c0 1.084 0 1.958-.058 2.666-.059.728-.185 1.369-.487 1.961a4.994 4.994 0 0 1-2.185 2.185c-.592.302-1.233.428-1.961.487-.708.058-1.582.058-2.666.058H177.857c-1.084 0-1.958 0-2.666-.058-.728-.059-1.369-.185-1.961-.487a4.994 4.994 0 0 1-2.185-2.185c-.302-.592-.428-1.233-.487-1.961-.058-.708-.058-1.582-.058-2.666V347.357c0-1.084 0-1.958.058-2.666.059-.728.185-1.369.487-1.961a4.994 4.994 0 0 1 2.185-2.185c.592-.302 1.233-.428 1.961-.487.708-.058 1.582-.058 2.666-.058H181.143c1.084 0 1.958 0 2.666.058.728.059 1.369.185 1.961.487a4.994 4.994 0 0 1 2.185 2.185c.302.592.428 1.233.487 1.961.058.708.058 1.582.058 2.666Zm-2.051-2.503c-.05-.605-.142-.953-.276-1.216a3.009 3.009 0 0 0-1.311-1.311c-.263-.134-.611-.226-1.216-.276-.617-.05-1.409-.051-2.546-.051h-3.2c-1.137 0-1.929.001-2.546.051-.605.05-.953.142-1.216.276a3.009 3.009 0 0 0-1.311 1.311c-.134.263-.226.611-.276 1.216-.05.617-.051 1.409-.051 2.546v3.2c0 1.137.001 1.929.051 2.546.05.605.142.953.276 1.216a3.009 3.009 0 0 0 1.311 1.311c.263.134.611.226 1.216.276.617.05 1.409.051 2.546.051h3.2c1.137 0 1.929-.001 2.546-.051.605-.05.953-.142 1.216-.276a3.009 3.009 0 0 0 1.311-1.311c.134-.263.226-.611.276-1.216.05-.617.051-1.409.051-2.546v-3.2c0-1.137-.001-1.929-.051-2.546Z" clip-rule="evenodd"/><rect width="96" height="75" x="213.5" y="298" fill="#DDE7FF" rx="8"/><path fill="#1E2126" d="M225.98 314.92v-1.392h8.592v1.392h-3.536V325h-1.52v-10.08h-3.536Zm11.941 2.864c-.885 0-1.781.272-2.688.816v-1.264a5.098 5.098 0 0 1 1.36-.576 5.535 5.535 0 0 1 1.52-.224c1.045 0 1.84.219 2.384.656.544.437.816 1.104.816 2v4.464c0 .181.005.416.016.704.021.277.043.491.064.64h-1.28a7.266 7.266 0 0 1-.096-.624 9.73 9.73 0 0 1-.032-.72l-.016-.24a4.467 4.467 0 0 1-.528.8 2.667 2.667 0 0 1-.896.672c-.363.181-.816.272-1.36.272-.747 0-1.349-.213-1.808-.64-.459-.427-.688-1.029-.688-1.808 0-.907.32-1.573.96-2 .64-.427 1.541-.64 2.704-.64h1.552v-.688c0-.576-.149-.987-.448-1.232-.299-.245-.811-.368-1.536-.368Zm1.984 4.016v-.608h-1.408c-.843 0-1.456.123-1.84.368-.373.245-.56.603-.56 1.072 0 .373.112.677.336.912.235.235.587.352 1.056.352.437 0 .811-.085 1.12-.256a2.63 2.63 0 0 0 .752-.64c.192-.256.331-.496.416-.72.085-.224.128-.384.128-.48Zm6.278 3.36a5.888 5.888 0 0 1-1.744-.256c-.544-.181-.987-.421-1.328-.72v-1.264c.331.32.773.576 1.328.768a5.336 5.336 0 0 0 1.728.288c1.301 0 1.952-.421 1.952-1.264 0-.245-.059-.443-.176-.592-.107-.16-.309-.293-.608-.4-.299-.117-.731-.229-1.296-.336-1.077-.213-1.829-.501-2.256-.864-.427-.373-.64-.901-.64-1.584 0-.757.293-1.344.88-1.76.587-.427 1.397-.64 2.432-.64.491 0 .971.053 1.44.16.48.096.869.229 1.168.4v1.264c-.619-.427-1.472-.64-2.56-.64-.672 0-1.168.096-1.488.288-.309.192-.464.491-.464.896 0 .213.048.389.144.528.096.139.288.261.576.368.288.107.72.219 1.296.336.736.149 1.317.331 1.744.544.437.203.747.464.928.784.192.32.288.725.288 1.216 0 .779-.293 1.387-.88 1.824-.587.437-1.408.656-2.464.656Zm11.862-.16h-1.712l-2.928-3.536h-.736V325h-1.408v-11.472h1.408v6.736h.8l2.912-3.568h1.6l-3.408 4.096 3.472 4.208Zm7.013.16a5.888 5.888 0 0 1-1.744-.256c-.544-.181-.987-.421-1.328-.72v-1.264c.331.32.773.576 1.328.768a5.336 5.336 0 0 0 1.728.288c1.301 0 1.952-.421 1.952-1.264 0-.245-.059-.443-.176-.592-.107-.16-.309-.293-.608-.4-.299-.117-.731-.229-1.296-.336-1.077-.213-1.829-.501-2.256-.864-.427-.373-.64-.901-.64-1.584 0-.757.293-1.344.88-1.76.587-.427 1.397-.64 2.432-.64.491 0 .971.053 1.44.16.48.096.869.229 1.168.4v1.264c-.619-.427-1.472-.64-2.56-.64-.672 0-1.168.096-1.488.288-.309.192-.464.491-.464.896 0 .213.048.389.144.528.096.139.288.261.576.368.288.107.72.219 1.296.336.736.149 1.317.331 1.744.544.437.203.747.464.928.784.192.32.288.725.288 1.216 0 .779-.293 1.387-.88 1.824-.587.437-1.408.656-2.464.656Zm10.406-1.648c-.224.459-.57.848-1.04 1.168-.458.32-1.061.48-1.808.48-.768 0-1.392-.219-1.872-.656-.469-.437-.704-1.104-.704-2v-5.808h1.424v5.808c0 .544.15.912.448 1.104.299.192.667.288 1.104.288.619 0 1.115-.139 1.488-.416.374-.277.694-.656.96-1.136v-5.648h1.408V325h-1.248l-.128-1.488h-.032Zm4.439-8.032c-.288 0-.517-.085-.688-.256a.925.925 0 0 1-.256-.656c0-.256.086-.475.256-.656.171-.181.4-.272.688-.272.278 0 .496.091.656.272.16.181.24.4.24.656s-.08.475-.24.656c-.16.171-.378.256-.656.256Zm-.72 1.216h1.408V325h-1.408v-8.304Zm3.031 1.2v-1.2h.992v-1.744h1.408v1.744h2.416v1.2h-2.416v4.992c0 .352.091.608.272.768.182.16.491.24.928.24.416 0 .795-.117 1.136-.352v1.28c-.17.107-.394.187-.672.24a3.683 3.683 0 0 1-.832.096c-.533 0-.965-.101-1.296-.304a1.823 1.823 0 0 1-.72-.784 2.36 2.36 0 0 1-.224-1.008v-5.168h-.992Zm10.056 7.264c-1.387 0-2.448-.379-3.184-1.136-.726-.768-1.088-1.829-1.088-3.184 0-.907.17-1.68.512-2.32.341-.64.81-1.131 1.408-1.472.597-.341 1.269-.512 2.016-.512 1.269 0 2.202.421 2.8 1.264.597.832.789 1.973.576 3.424h-5.856c.117 1.781 1.098 2.672 2.944 2.672a4.904 4.904 0 0 0 2.8-.864v1.264c-.384.267-.832.48-1.344.64a5.64 5.64 0 0 1-1.584.224Zm-.368-7.376c-.608 0-1.131.187-1.568.56-.438.373-.715.939-.832 1.696h4.464c.032-.715-.134-1.269-.496-1.664-.363-.395-.886-.592-1.568-.592Z"/><path fill="#1E2126" fill-rule="evenodd" d="M246.5 347.357V350.643c0 1.084 0 1.958-.058 2.666-.059.728-.185 1.369-.487 1.961a4.994 4.994 0 0 1-2.185 2.185c-.592.302-1.233.428-1.961.487-.708.058-1.582.058-2.666.058H235.857c-1.084 0-1.958 0-2.666-.058-.728-.059-1.369-.185-1.961-.487a4.994 4.994 0 0 1-2.185-2.185c-.302-.592-.428-1.233-.487-1.961-.058-.708-.058-1.582-.058-2.666V347.357c0-1.084 0-1.958.058-2.666.059-.728.185-1.369.487-1.961a4.994 4.994 0 0 1 2.185-2.185c.592-.302 1.233-.428 1.961-.487.708-.058 1.582-.058 2.666-.058H239.143c1.084 0 1.958 0 2.666.058.728.059 1.369.185 1.961.487a4.994 4.994 0 0 1 2.185 2.185c.302.592.428 1.233.487 1.961.058.708.058 1.582.058 2.666Zm-2.051-2.503c-.05-.605-.142-.953-.276-1.216a3.009 3.009 0 0 0-1.311-1.311c-.263-.134-.611-.226-1.216-.276-.617-.05-1.409-.051-2.546-.051h-3.2c-1.137 0-1.929.001-2.546.051-.605.05-.953.142-1.216.276a3.009 3.009 0 0 0-1.311 1.311c-.134.263-.226.611-.276 1.216-.05.617-.051 1.409-.051 2.546v3.2c0 1.137.001 1.929.051 2.546.05.605.142.953.276 1.216a3.009 3.009 0 0 0 1.311 1.311c.263.134.611.226 1.216.276.617.05 1.409.051 2.546.051h3.2c1.137 0 1.929-.001 2.546-.051.605-.05.953-.142 1.216-.276a3.009 3.009 0 0 0 1.311-1.311c.134-.263.226-.611.276-1.216.05-.617.051-1.409.051-2.546v-3.2c0-1.137-.001-1.929-.051-2.546ZM270.5 347.357V350.643c0 1.084 0 1.958-.058 2.666-.059.728-.185 1.369-.487 1.961a4.994 4.994 0 0 1-2.185 2.185c-.592.302-1.233.428-1.961.487-.708.058-1.582.058-2.666.058H259.857c-1.084 0-1.958 0-2.666-.058-.728-.059-1.369-.185-1.961-.487a4.994 4.994 0 0 1-2.185-2.185c-.302-.592-.428-1.233-.487-1.961-.058-.708-.058-1.582-.058-2.666V347.357c0-1.084 0-1.958.058-2.666.059-.728.185-1.369.487-1.961a4.994 4.994 0 0 1 2.185-2.185c.592-.302 1.233-.428 1.961-.487.708-.058 1.582-.058 2.666-.058H263.143c1.084 0 1.958 0 2.666.058.728.059 1.369.185 1.961.487a4.994 4.994 0 0 1 2.185 2.185c.302.592.428 1.233.487 1.961.058.708.058 1.582.058 2.666Zm-2.051-2.503c-.05-.605-.142-.953-.276-1.216a3.009 3.009 0 0 0-1.311-1.311c-.263-.134-.611-.226-1.216-.276-.617-.05-1.409-.051-2.546-.051h-3.2c-1.137 0-1.929.001-2.546.051-.605.05-.953.142-1.216.276a3.009 3.009 0 0 0-1.311 1.311c-.134.263-.226.611-.276 1.216-.05.617-.051 1.409-.051 2.546v3.2c0 1.137.001 1.929.051 2.546.05.605.142.953.276 1.216a3.009 3.009 0 0 0 1.311 1.311c.263.134.611.226 1.216.276.617.05 1.409.051 2.546.051h3.2c1.137 0 1.929-.001 2.546-.051.605-.05.953-.142 1.216-.276a3.009 3.009 0 0 0 1.311-1.311c.134-.263.226-.611.276-1.216.05-.617.051-1.409.051-2.546v-3.2c0-1.137-.001-1.929-.051-2.546ZM294.5 347.357V350.643c0 1.084 0 1.958-.058 2.666-.059.728-.185 1.369-.487 1.961a4.994 4.994 0 0 1-2.185 2.185c-.592.302-1.233.428-1.961.487-.708.058-1.582.058-2.666.058H283.857c-1.084 0-1.958 0-2.666-.058-.728-.059-1.369-.185-1.961-.487a4.994 4.994 0 0 1-2.185-2.185c-.302-.592-.428-1.233-.487-1.961-.058-.708-.058-1.582-.058-2.666V347.357c0-1.084 0-1.958.058-2.666.059-.728.185-1.369.487-1.961a4.994 4.994 0 0 1 2.185-2.185c.592-.302 1.233-.428 1.961-.487.708-.058 1.582-.058 2.666-.058H287.143c1.084 0 1.958 0 2.666.058.728.059 1.369.185 1.961.487a4.994 4.994 0 0 1 2.185 2.185c.302.592.428 1.233.487 1.961.058.708.058 1.582.058 2.666Zm-2.051-2.503c-.05-.605-.142-.953-.276-1.216a3.009 3.009 0 0 0-1.311-1.311c-.263-.134-.611-.226-1.216-.276-.617-.05-1.409-.051-2.546-.051h-3.2c-1.137 0-1.929.001-2.546.051-.605.05-.953.142-1.216.276a3.009 3.009 0 0 0-1.311 1.311c-.134.263-.226.611-.276 1.216-.05.617-.051 1.409-.051 2.546v3.2c0 1.137.001 1.929.051 2.546.05.605.142.953.276 1.216a3.009 3.009 0 0 0 1.311 1.311c.263.134.611.226 1.216.276.617.05 1.409.051 2.546.051h3.2c1.137 0 1.929-.001 2.546-.051.605-.05.953-.142 1.216-.276a3.009 3.009 0 0 0 1.311-1.311c.134-.263.226-.611.276-1.216.05-.617.051-1.409.051-2.546v-3.2c0-1.137-.001-1.929-.051-2.546Z" clip-rule="evenodd"/><rect width="225" height="130" x="96" y="254.5" stroke="#0069FF" stroke-opacity=".24" rx="7.5"/><rect width="226" height="131" x="329.5" y="254" fill="#F5F8FF" rx="8"/><path fill="#1E2126" fill-rule="evenodd" d="M347.5 270h1c.733 0 1.163.002 1.479.027.16.014.238.03.265.037a.492.492 0 0 1 .192.192c.007.027.023.105.037.265.025.316.027.746.027 1.479v1c0 .733-.002 1.163-.027 1.479-.014.16-.03.238-.037.265a.492.492 0 0 1-.192.192 1.797 1.797 0 0 1-.265.037c-.316.025-.746.027-1.479.027h-1c-.733 0-1.163-.002-1.479-.027a1.797 1.797 0 0 1-.265-.037.492.492 0 0 1-.192-.192 1.797 1.797 0 0 1-.037-.265c-.025-.316-.027-.746-.027-1.479v-1c0-.733.002-1.163.027-1.479.014-.16.03-.238.037-.265a.492.492 0 0 1 .192-.192c.027-.007.105-.023.265-.037.316-.025.746-.027 1.479-.027Zm2.756.067-.003-.001a.008.008 0 0 0 .003.001Zm.177.177.001.003-.001-.003Zm0 4.512.001-.003-.001.003Zm-.177.177-.003.001.003-.001Zm-4.512 0 .003.001-.003-.001Zm-.177-.177-.001-.003.001.003Zm0-4.512-.001.003.001-.003Zm.177-.177.003-.001-.003.001ZM343.5 272c0-1.4 0-2.1.272-2.635a2.51 2.51 0 0 1 1.093-1.093C345.4 268 346.1 268 347.5 268h1c1.4 0 2.1 0 2.635.272.47.24.853.623 1.093 1.093.272.535.272 1.235.272 2.635v1c0 1.4 0 2.1-.272 2.635a2.51 2.51 0 0 1-1.093 1.093c-.535.272-1.235.272-2.635.272h-1c-1.4 0-2.1 0-2.635-.272a2.51 2.51 0 0 1-1.093-1.093c-.272-.535-.272-1.235-.272-2.635v-1Zm4 9h1c.733 0 1.163.002 1.479.027.16.014.238.03.265.037a.492.492 0 0 1 .192.192c.007.027.023.105.037.265.025.316.027.746.027 1.479v1c0 .733-.002 1.163-.027 1.479-.014.16-.03.238-.037.265a.492.492 0 0 1-.192.192 1.797 1.797 0 0 1-.265.037c-.316.025-.746.027-1.479.027h-1c-.733 0-1.163-.002-1.479-.027a1.797 1.797 0 0 1-.265-.037.492.492 0 0 1-.192-.192 1.797 1.797 0 0 1-.037-.265c-.025-.316-.027-.746-.027-1.479v-1c0-.733.002-1.163.027-1.479.014-.16.03-.238.037-.265a.492.492 0 0 1 .192-.192c.027-.007.105-.023.265-.037.316-.025.746-.027 1.479-.027Zm2.753.066.003.001h-.001l-.002-.001Zm.18.178.001.003-.001-.003Zm-4.866 0-.001.003.001-.003Zm.177-.177.003-.001-.003.001ZM343.5 283c0-1.4 0-2.1.272-2.635a2.51 2.51 0 0 1 1.093-1.093C345.4 279 346.1 279 347.5 279h1c1.4 0 2.1 0 2.635.272.47.24.853.623 1.093 1.093.272.535.272 1.235.272 2.635v1c0 1.4 0 2.1-.272 2.635a2.51 2.51 0 0 1-1.093 1.093c-.535.272-1.235.272-2.635.272h-1c-1.4 0-2.1 0-2.635-.272a2.51 2.51 0 0 1-1.093-1.093c-.272-.535-.272-1.235-.272-2.635v-1Zm16-13h-1c-.733 0-1.163.002-1.479.027-.16.014-.238.03-.265.037a.492.492 0 0 0-.192.192 1.797 1.797 0 0 0-.037.265c-.025.316-.027.746-.027 1.479v1c0 .733.002 1.163.027 1.479.014.16.03.238.037.265a.492.492 0 0 0 .192.192c.027.007.105.023.265.037.316.025.746.027 1.479.027h1c.733 0 1.163-.002 1.479-.027.16-.014.238-.03.265-.037a.492.492 0 0 0 .192-.192c.007-.027.023-.105.037-.265.025-.316.027-.746.027-1.479v-1c0-.733-.002-1.163-.027-1.479a1.797 1.797 0 0 0-.037-.265.492.492 0 0 0-.192-.192 1.797 1.797 0 0 0-.265-.037c-.316-.025-.746-.027-1.479-.027Zm-2.756 4.933.003.001-.003-.001Zm-.177-.177-.001-.003.001.003Zm0-4.512-.001.003.001-.003Zm.177-.177.003-.001-.003.001Zm-1.972-.702c-.272.535-.272 1.235-.272 2.635v1c0 1.4 0 2.1.272 2.635.24.47.623.853 1.093 1.093.535.272 1.235.272 2.635.272h1c1.4 0 2.1 0 2.635-.272a2.51 2.51 0 0 0 1.093-1.093c.272-.535.272-1.235.272-2.635v-1c0-1.4 0-2.1-.272-2.635a2.51 2.51 0 0 0-1.093-1.093C361.6 268 360.9 268 359.5 268h-1c-1.4 0-2.1 0-2.635.272a2.51 2.51 0 0 0-1.093 1.093ZM358.5 281h1c.733 0 1.163.002 1.479.027.16.014.238.03.265.037a.492.492 0 0 1 .192.192c.007.027.023.105.037.265.025.316.027.746.027 1.479v1c0 .733-.002 1.163-.027 1.479-.014.16-.03.238-.037.265a.492.492 0 0 1-.192.192 1.797 1.797 0 0 1-.265.037c-.316.025-.746.027-1.479.027h-1c-.733 0-1.163-.002-1.479-.027a1.797 1.797 0 0 1-.265-.037.492.492 0 0 1-.192-.192 1.797 1.797 0 0 1-.037-.265c-.025-.316-.027-.746-.027-1.479v-1c0-.733.002-1.163.027-1.479.014-.16.03-.238.037-.265a.492.492 0 0 1 .192-.192c.027-.007.105-.023.265-.037.316-.025.746-.027 1.479-.027Zm-1.934.247.001-.003v.001l-.001.002Zm.178-.18.003-.001-.003.001ZM354.5 283c0-1.4 0-2.1.272-2.635a2.51 2.51 0 0 1 1.093-1.093C356.4 279 357.1 279 358.5 279h1c1.4 0 2.1 0 2.635.272.47.24.853.623 1.093 1.093.272.535.272 1.235.272 2.635v1c0 1.4 0 2.1-.272 2.635a2.51 2.51 0 0 1-1.093 1.093c-.535.272-1.235.272-2.635.272h-1c-1.4 0-2.1 0-2.635-.272a2.51 2.51 0 0 1-1.093-1.093c-.272-.535-.272-1.235-.272-2.635v-1Z" clip-rule="evenodd"/><path fill="#1E2126" d="M374.844 272.028h3.664c1.301 0 2.309.272 3.024.816.725.533 1.088 1.371 1.088 2.512 0 .864-.181 1.568-.544 2.112-.352.544-.848.944-1.488 1.2-.629.245-1.365.368-2.208.368h-2.032v4.464h-1.504v-11.472Zm3.536 5.648c.811 0 1.467-.176 1.968-.528.501-.352.752-.944.752-1.776 0-.693-.224-1.195-.672-1.504-.448-.309-1.088-.464-1.92-.464h-2.16v4.272h2.032Zm9.039 5.984c-.757 0-1.44-.165-2.048-.496a3.712 3.712 0 0 1-1.424-1.472c-.352-.651-.528-1.435-.528-2.352 0-.917.176-1.696.528-2.336a3.606 3.606 0 0 1 1.424-1.456c.608-.341 1.291-.512 2.048-.512.768 0 1.456.171 2.064.512a3.575 3.575 0 0 1 1.44 1.456c.352.64.528 1.419.528 2.336 0 .917-.176 1.701-.528 2.352a3.678 3.678 0 0 1-1.44 1.472c-.608.331-1.296.496-2.064.496Zm0-1.264c.747 0 1.366-.245 1.856-.736.491-.501.736-1.275.736-2.32s-.245-1.813-.736-2.304c-.49-.501-1.109-.752-1.856-.752-.736 0-1.349.251-1.84.752-.48.491-.72 1.259-.72 2.304s.24 1.819.72 2.32c.491.491 1.104.736 1.84.736Zm9.157 1.264c-.758 0-1.44-.165-2.048-.496a3.706 3.706 0 0 1-1.424-1.472c-.352-.651-.528-1.435-.528-2.352 0-.917.176-1.696.528-2.336.352-.64.826-1.125 1.424-1.456.608-.341 1.29-.512 2.048-.512.768 0 1.456.171 2.064.512a3.575 3.575 0 0 1 1.44 1.456c.352.64.528 1.419.528 2.336 0 .917-.176 1.701-.528 2.352a3.678 3.678 0 0 1-1.44 1.472c-.608.331-1.296.496-2.064.496Zm0-1.264c.746 0 1.365-.245 1.856-.736.49-.501.736-1.275.736-2.32s-.246-1.813-.736-2.304c-.491-.501-1.11-.752-1.856-.752-.736 0-1.35.251-1.84.752-.48.491-.72 1.259-.72 2.304s.24 1.819.72 2.32c.49.491 1.104.736 1.84.736Zm5.748-10.368h1.408V283.5h-1.408v-11.472Z"/><rect width="96" height="75" x="341.5" y="298" fill="#DDE7FF" rx="8"/><path fill="#1E2126" d="M353.98 314.92v-1.392h8.592v1.392h-3.536V325h-1.52v-10.08h-3.536Zm11.941 2.864c-.885 0-1.781.272-2.688.816v-1.264a5.098 5.098 0 0 1 1.36-.576 5.535 5.535 0 0 1 1.52-.224c1.045 0 1.84.219 2.384.656.544.437.816 1.104.816 2v4.464c0 .181.005.416.016.704.021.277.043.491.064.64h-1.28a7.266 7.266 0 0 1-.096-.624 9.73 9.73 0 0 1-.032-.72l-.016-.24a4.467 4.467 0 0 1-.528.8 2.667 2.667 0 0 1-.896.672c-.363.181-.816.272-1.36.272-.747 0-1.349-.213-1.808-.64-.459-.427-.688-1.029-.688-1.808 0-.907.32-1.573.96-2 .64-.427 1.541-.64 2.704-.64h1.552v-.688c0-.576-.149-.987-.448-1.232-.299-.245-.811-.368-1.536-.368Zm1.984 4.016v-.608h-1.408c-.843 0-1.456.123-1.84.368-.373.245-.56.603-.56 1.072 0 .373.112.677.336.912.235.235.587.352 1.056.352.437 0 .811-.085 1.12-.256a2.63 2.63 0 0 0 .752-.64c.192-.256.331-.496.416-.72.085-.224.128-.384.128-.48Zm6.278 3.36a5.888 5.888 0 0 1-1.744-.256c-.544-.181-.987-.421-1.328-.72v-1.264c.331.32.773.576 1.328.768a5.336 5.336 0 0 0 1.728.288c1.301 0 1.952-.421 1.952-1.264 0-.245-.059-.443-.176-.592-.107-.16-.309-.293-.608-.4-.299-.117-.731-.229-1.296-.336-1.077-.213-1.829-.501-2.256-.864-.427-.373-.64-.901-.64-1.584 0-.757.293-1.344.88-1.76.587-.427 1.397-.64 2.432-.64.491 0 .971.053 1.44.16.48.096.869.229 1.168.4v1.264c-.619-.427-1.472-.64-2.56-.64-.672 0-1.168.096-1.488.288-.309.192-.464.491-.464.896 0 .213.048.389.144.528.096.139.288.261.576.368.288.107.72.219 1.296.336.736.149 1.317.331 1.744.544.437.203.747.464.928.784.192.32.288.725.288 1.216 0 .779-.293 1.387-.88 1.824-.587.437-1.408.656-2.464.656Zm11.862-.16h-1.712l-2.928-3.536h-.736V325h-1.408v-11.472h1.408v6.736h.8l2.912-3.568h1.6l-3.408 4.096 3.472 4.208Zm7.013.16a5.888 5.888 0 0 1-1.744-.256c-.544-.181-.987-.421-1.328-.72v-1.264c.331.32.773.576 1.328.768a5.336 5.336 0 0 0 1.728.288c1.301 0 1.952-.421 1.952-1.264 0-.245-.059-.443-.176-.592-.107-.16-.309-.293-.608-.4-.299-.117-.731-.229-1.296-.336-1.077-.213-1.829-.501-2.256-.864-.427-.373-.64-.901-.64-1.584 0-.757.293-1.344.88-1.76.587-.427 1.397-.64 2.432-.64.491 0 .971.053 1.44.16.48.096.869.229 1.168.4v1.264c-.619-.427-1.472-.64-2.56-.64-.672 0-1.168.096-1.488.288-.309.192-.464.491-.464.896 0 .213.048.389.144.528.096.139.288.261.576.368.288.107.72.219 1.296.336.736.149 1.317.331 1.744.544.437.203.747.464.928.784.192.32.288.725.288 1.216 0 .779-.293 1.387-.88 1.824-.587.437-1.408.656-2.464.656Zm10.406-1.648c-.224.459-.57.848-1.04 1.168-.458.32-1.061.48-1.808.48-.768 0-1.392-.219-1.872-.656-.469-.437-.704-1.104-.704-2v-5.808h1.424v5.808c0 .544.15.912.448 1.104.299.192.667.288 1.104.288.619 0 1.115-.139 1.488-.416.374-.277.694-.656.96-1.136v-5.648h1.408V325h-1.248l-.128-1.488h-.032Zm4.439-8.032c-.288 0-.517-.085-.688-.256a.925.925 0 0 1-.256-.656c0-.256.086-.475.256-.656.171-.181.4-.272.688-.272.278 0 .496.091.656.272.16.181.24.4.24.656s-.08.475-.24.656c-.16.171-.378.256-.656.256Zm-.72 1.216h1.408V325h-1.408v-8.304Zm3.031 1.2v-1.2h.992v-1.744h1.408v1.744h2.416v1.2h-2.416v4.992c0 .352.091.608.272.768.182.16.491.24.928.24.416 0 .795-.117 1.136-.352v1.28c-.17.107-.394.187-.672.24a3.683 3.683 0 0 1-.832.096c-.533 0-.965-.101-1.296-.304a1.823 1.823 0 0 1-.72-.784 2.36 2.36 0 0 1-.224-1.008v-5.168h-.992Zm10.056 7.264c-1.387 0-2.448-.379-3.184-1.136-.726-.768-1.088-1.829-1.088-3.184 0-.907.17-1.68.512-2.32.341-.64.81-1.131 1.408-1.472.597-.341 1.269-.512 2.016-.512 1.269 0 2.202.421 2.8 1.264.597.832.789 1.973.576 3.424h-5.856c.117 1.781 1.098 2.672 2.944 2.672a4.904 4.904 0 0 0 2.8-.864v1.264c-.384.267-.832.48-1.344.64a5.64 5.64 0 0 1-1.584.224Zm-.368-7.376c-.608 0-1.131.187-1.568.56-.438.373-.715.939-.832 1.696h4.464c.032-.715-.134-1.269-.496-1.664-.363-.395-.886-.592-1.568-.592Z"/><path fill="#1E2126" fill-rule="evenodd" d="M374.5 347.357V350.643c0 1.084 0 1.958-.058 2.666-.059.728-.185 1.369-.487 1.961a4.994 4.994 0 0 1-2.185 2.185c-.592.302-1.233.428-1.961.487-.708.058-1.582.058-2.666.058H363.857c-1.084 0-1.958 0-2.666-.058-.728-.059-1.369-.185-1.961-.487a4.994 4.994 0 0 1-2.185-2.185c-.302-.592-.428-1.233-.487-1.961-.058-.708-.058-1.582-.058-2.666V347.357c0-1.084 0-1.958.058-2.666.059-.728.185-1.369.487-1.961a4.994 4.994 0 0 1 2.185-2.185c.592-.302 1.233-.428 1.961-.487.708-.058 1.582-.058 2.666-.058H367.143c1.084 0 1.958 0 2.666.058.728.059 1.369.185 1.961.487a4.994 4.994 0 0 1 2.185 2.185c.302.592.428 1.233.487 1.961.058.708.058 1.582.058 2.666Zm-2.051-2.503c-.05-.605-.142-.953-.276-1.216a3.009 3.009 0 0 0-1.311-1.311c-.263-.134-.611-.226-1.216-.276-.617-.05-1.409-.051-2.546-.051h-3.2c-1.137 0-1.929.001-2.546.051-.605.05-.953.142-1.216.276a3.009 3.009 0 0 0-1.311 1.311c-.134.263-.226.611-.276 1.216-.05.617-.051 1.409-.051 2.546v3.2c0 1.137.001 1.929.051 2.546.05.605.142.953.276 1.216a3.009 3.009 0 0 0 1.311 1.311c.263.134.611.226 1.216.276.617.05 1.409.051 2.546.051h3.2c1.137 0 1.929-.001 2.546-.051.605-.05.953-.142 1.216-.276a3.009 3.009 0 0 0 1.311-1.311c.134-.263.226-.611.276-1.216.05-.617.051-1.409.051-2.546v-3.2c0-1.137-.001-1.929-.051-2.546ZM398.5 347.357V350.643c0 1.084 0 1.958-.058 2.666-.059.728-.185 1.369-.487 1.961a4.994 4.994 0 0 1-2.185 2.185c-.592.302-1.233.428-1.961.487-.708.058-1.582.058-2.666.058H387.857c-1.084 0-1.958 0-2.666-.058-.728-.059-1.369-.185-1.961-.487a4.994 4.994 0 0 1-2.185-2.185c-.302-.592-.428-1.233-.487-1.961-.058-.708-.058-1.582-.058-2.666V347.357c0-1.084 0-1.958.058-2.666.059-.728.185-1.369.487-1.961a4.994 4.994 0 0 1 2.185-2.185c.592-.302 1.233-.428 1.961-.487.708-.058 1.582-.058 2.666-.058H391.143c1.084 0 1.958 0 2.666.058.728.059 1.369.185 1.961.487a4.994 4.994 0 0 1 2.185 2.185c.302.592.428 1.233.487 1.961.058.708.058 1.582.058 2.666Zm-2.051-2.503c-.05-.605-.142-.953-.276-1.216a3.009 3.009 0 0 0-1.311-1.311c-.263-.134-.611-.226-1.216-.276-.617-.05-1.409-.051-2.546-.051h-3.2c-1.137 0-1.929.001-2.546.051-.605.05-.953.142-1.216.276a3.009 3.009 0 0 0-1.311 1.311c-.134.263-.226.611-.276 1.216-.05.617-.051 1.409-.051 2.546v3.2c0 1.137.001 1.929.051 2.546.05.605.142.953.276 1.216a3.009 3.009 0 0 0 1.311 1.311c.263.134.611.226 1.216.276.617.05 1.409.051 2.546.051h3.2c1.137 0 1.929-.001 2.546-.051.605-.05.953-.142 1.216-.276a3.009 3.009 0 0 0 1.311-1.311c.134-.263.226-.611.276-1.216.05-.617.051-1.409.051-2.546v-3.2c0-1.137-.001-1.929-.051-2.546ZM422.5 347.357V350.643c0 1.084 0 1.958-.058 2.666-.059.728-.185 1.369-.487 1.961a4.994 4.994 0 0 1-2.185 2.185c-.592.302-1.233.428-1.961.487-.708.058-1.582.058-2.666.058H411.857c-1.084 0-1.958 0-2.666-.058-.728-.059-1.369-.185-1.961-.487a4.994 4.994 0 0 1-2.185-2.185c-.302-.592-.428-1.233-.487-1.961-.058-.708-.058-1.582-.058-2.666V347.357c0-1.084 0-1.958.058-2.666.059-.728.185-1.369.487-1.961a4.994 4.994 0 0 1 2.185-2.185c.592-.302 1.233-.428 1.961-.487.708-.058 1.582-.058 2.666-.058H415.143c1.084 0 1.958 0 2.666.058.728.059 1.369.185 1.961.487a4.994 4.994 0 0 1 2.185 2.185c.302.592.428 1.233.487 1.961.058.708.058 1.582.058 2.666Zm-2.051-2.503c-.05-.605-.142-.953-.276-1.216a3.009 3.009 0 0 0-1.311-1.311c-.263-.134-.611-.226-1.216-.276-.617-.05-1.409-.051-2.546-.051h-3.2c-1.137 0-1.929.001-2.546.051-.605.05-.953.142-1.216.276a3.009 3.009 0 0 0-1.311 1.311c-.134.263-.226.611-.276 1.216-.05.617-.051 1.409-.051 2.546v3.2c0 1.137.001 1.929.051 2.546.05.605.142.953.276 1.216a3.009 3.009 0 0 0 1.311 1.311c.263.134.611.226 1.216.276.617.05 1.409.051 2.546.051h3.2c1.137 0 1.929-.001 2.546-.051.605-.05.953-.142 1.216-.276a3.009 3.009 0 0 0 1.311-1.311c.134-.263.226-.611.276-1.216.05-.617.051-1.409.051-2.546v-3.2c0-1.137-.001-1.929-.051-2.546Z" clip-rule="evenodd"/><rect width="96" height="75" x="447.5" y="298" fill="#DDE7FF" rx="8"/><path fill="#1E2126" d="M459.98 314.92v-1.392h8.592v1.392h-3.536V325h-1.52v-10.08h-3.536Zm11.941 2.864c-.885 0-1.781.272-2.688.816v-1.264a5.098 5.098 0 0 1 1.36-.576 5.535 5.535 0 0 1 1.52-.224c1.045 0 1.84.219 2.384.656.544.437.816 1.104.816 2v4.464c0 .181.005.416.016.704.021.277.043.491.064.64h-1.28a7.266 7.266 0 0 1-.096-.624 9.73 9.73 0 0 1-.032-.72l-.016-.24a4.467 4.467 0 0 1-.528.8 2.667 2.667 0 0 1-.896.672c-.363.181-.816.272-1.36.272-.747 0-1.349-.213-1.808-.64-.459-.427-.688-1.029-.688-1.808 0-.907.32-1.573.96-2 .64-.427 1.541-.64 2.704-.64h1.552v-.688c0-.576-.149-.987-.448-1.232-.299-.245-.811-.368-1.536-.368Zm1.984 4.016v-.608h-1.408c-.843 0-1.456.123-1.84.368-.373.245-.56.603-.56 1.072 0 .373.112.677.336.912.235.235.587.352 1.056.352.437 0 .811-.085 1.12-.256a2.63 2.63 0 0 0 .752-.64c.192-.256.331-.496.416-.72.085-.224.128-.384.128-.48Zm6.278 3.36a5.888 5.888 0 0 1-1.744-.256c-.544-.181-.987-.421-1.328-.72v-1.264c.331.32.773.576 1.328.768a5.336 5.336 0 0 0 1.728.288c1.301 0 1.952-.421 1.952-1.264 0-.245-.059-.443-.176-.592-.107-.16-.309-.293-.608-.4-.299-.117-.731-.229-1.296-.336-1.077-.213-1.829-.501-2.256-.864-.427-.373-.64-.901-.64-1.584 0-.757.293-1.344.88-1.76.587-.427 1.397-.64 2.432-.64.491 0 .971.053 1.44.16.48.096.869.229 1.168.4v1.264c-.619-.427-1.472-.64-2.56-.64-.672 0-1.168.096-1.488.288-.309.192-.464.491-.464.896 0 .213.048.389.144.528.096.139.288.261.576.368.288.107.72.219 1.296.336.736.149 1.317.331 1.744.544.437.203.747.464.928.784.192.32.288.725.288 1.216 0 .779-.293 1.387-.88 1.824-.587.437-1.408.656-2.464.656Zm11.862-.16h-1.712l-2.928-3.536h-.736V325h-1.408v-11.472h1.408v6.736h.8l2.912-3.568h1.6l-3.408 4.096 3.472 4.208Zm7.013.16a5.888 5.888 0 0 1-1.744-.256c-.544-.181-.987-.421-1.328-.72v-1.264c.331.32.773.576 1.328.768a5.336 5.336 0 0 0 1.728.288c1.301 0 1.952-.421 1.952-1.264 0-.245-.059-.443-.176-.592-.107-.16-.309-.293-.608-.4-.299-.117-.731-.229-1.296-.336-1.077-.213-1.829-.501-2.256-.864-.427-.373-.64-.901-.64-1.584 0-.757.293-1.344.88-1.76.587-.427 1.397-.64 2.432-.64.491 0 .971.053 1.44.16.48.096.869.229 1.168.4v1.264c-.619-.427-1.472-.64-2.56-.64-.672 0-1.168.096-1.488.288-.309.192-.464.491-.464.896 0 .213.048.389.144.528.096.139.288.261.576.368.288.107.72.219 1.296.336.736.149 1.317.331 1.744.544.437.203.747.464.928.784.192.32.288.725.288 1.216 0 .779-.293 1.387-.88 1.824-.587.437-1.408.656-2.464.656Zm10.406-1.648c-.224.459-.57.848-1.04 1.168-.458.32-1.061.48-1.808.48-.768 0-1.392-.219-1.872-.656-.469-.437-.704-1.104-.704-2v-5.808h1.424v5.808c0 .544.15.912.448 1.104.299.192.667.288 1.104.288.619 0 1.115-.139 1.488-.416.374-.277.694-.656.96-1.136v-5.648h1.408V325h-1.248l-.128-1.488h-.032Zm4.439-8.032c-.288 0-.517-.085-.688-.256a.925.925 0 0 1-.256-.656c0-.256.086-.475.256-.656.171-.181.4-.272.688-.272.278 0 .496.091.656.272.16.181.24.4.24.656s-.08.475-.24.656c-.16.171-.378.256-.656.256Zm-.72 1.216h1.408V325h-1.408v-8.304Zm3.031 1.2v-1.2h.992v-1.744h1.408v1.744h2.416v1.2h-2.416v4.992c0 .352.091.608.272.768.182.16.491.24.928.24.416 0 .795-.117 1.136-.352v1.28c-.17.107-.394.187-.672.24a3.683 3.683 0 0 1-.832.096c-.533 0-.965-.101-1.296-.304a1.823 1.823 0 0 1-.72-.784 2.36 2.36 0 0 1-.224-1.008v-5.168h-.992Zm10.056 7.264c-1.387 0-2.448-.379-3.184-1.136-.726-.768-1.088-1.829-1.088-3.184 0-.907.17-1.68.512-2.32.341-.64.81-1.131 1.408-1.472.597-.341 1.269-.512 2.016-.512 1.269 0 2.202.421 2.8 1.264.597.832.789 1.973.576 3.424h-5.856c.117 1.781 1.098 2.672 2.944 2.672a4.904 4.904 0 0 0 2.8-.864v1.264c-.384.267-.832.48-1.344.64a5.64 5.64 0 0 1-1.584.224Zm-.368-7.376c-.608 0-1.131.187-1.568.56-.438.373-.715.939-.832 1.696h4.464c.032-.715-.134-1.269-.496-1.664-.363-.395-.886-.592-1.568-.592Z"/><path fill="#1E2126" fill-rule="evenodd" d="M480.5 347.357V350.643c0 1.084 0 1.958-.058 2.666-.059.728-.185 1.369-.487 1.961a4.994 4.994 0 0 1-2.185 2.185c-.592.302-1.233.428-1.961.487-.708.058-1.582.058-2.666.058H469.857c-1.084 0-1.958 0-2.666-.058-.728-.059-1.369-.185-1.961-.487a4.994 4.994 0 0 1-2.185-2.185c-.302-.592-.428-1.233-.487-1.961-.058-.708-.058-1.582-.058-2.666V347.357c0-1.084 0-1.958.058-2.666.059-.728.185-1.369.487-1.961a4.994 4.994 0 0 1 2.185-2.185c.592-.302 1.233-.428 1.961-.487.708-.058 1.582-.058 2.666-.058H473.143c1.084 0 1.958 0 2.666.058.728.059 1.369.185 1.961.487a4.994 4.994 0 0 1 2.185 2.185c.302.592.428 1.233.487 1.961.058.708.058 1.582.058 2.666Zm-2.051-2.503c-.05-.605-.142-.953-.276-1.216a3.009 3.009 0 0 0-1.311-1.311c-.263-.134-.611-.226-1.216-.276-.617-.05-1.409-.051-2.546-.051h-3.2c-1.137 0-1.929.001-2.546.051-.605.05-.953.142-1.216.276a3.009 3.009 0 0 0-1.311 1.311c-.134.263-.226.611-.276 1.216-.05.617-.051 1.409-.051 2.546v3.2c0 1.137.001 1.929.051 2.546.05.605.142.953.276 1.216a3.009 3.009 0 0 0 1.311 1.311c.263.134.611.226 1.216.276.617.05 1.409.051 2.546.051h3.2c1.137 0 1.929-.001 2.546-.051.605-.05.953-.142 1.216-.276a3.009 3.009 0 0 0 1.311-1.311c.134-.263.226-.611.276-1.216.05-.617.051-1.409.051-2.546v-3.2c0-1.137-.001-1.929-.051-2.546ZM504.5 347.357V350.643c0 1.084 0 1.958-.058 2.666-.059.728-.185 1.369-.487 1.961a4.994 4.994 0 0 1-2.185 2.185c-.592.302-1.233.428-1.961.487-.708.058-1.582.058-2.666.058H493.857c-1.084 0-1.958 0-2.666-.058-.728-.059-1.369-.185-1.961-.487a4.994 4.994 0 0 1-2.185-2.185c-.302-.592-.428-1.233-.487-1.961-.058-.708-.058-1.582-.058-2.666V347.357c0-1.084 0-1.958.058-2.666.059-.728.185-1.369.487-1.961a4.994 4.994 0 0 1 2.185-2.185c.592-.302 1.233-.428 1.961-.487.708-.058 1.582-.058 2.666-.058H497.143c1.084 0 1.958 0 2.666.058.728.059 1.369.185 1.961.487a4.994 4.994 0 0 1 2.185 2.185c.302.592.428 1.233.487 1.961.058.708.058 1.582.058 2.666Zm-2.051-2.503c-.05-.605-.142-.953-.276-1.216a3.009 3.009 0 0 0-1.311-1.311c-.263-.134-.611-.226-1.216-.276-.617-.05-1.409-.051-2.546-.051h-3.2c-1.137 0-1.929.001-2.546.051-.605.05-.953.142-1.216.276a3.009 3.009 0 0 0-1.311 1.311c-.134.263-.226.611-.276 1.216-.05.617-.051 1.409-.051 2.546v3.2c0 1.137.001 1.929.051 2.546.05.605.142.953.276 1.216a3.009 3.009 0 0 0 1.311 1.311c.263.134.611.226 1.216.276.617.05 1.409.051 2.546.051h3.2c1.137 0 1.929-.001 2.546-.051.605-.05.953-.142 1.216-.276a3.009 3.009 0 0 0 1.311-1.311c.134-.263.226-.611.276-1.216.05-.617.051-1.409.051-2.546v-3.2c0-1.137-.001-1.929-.051-2.546ZM528.5 347.357V350.643c0 1.084 0 1.958-.058 2.666-.059.728-.185 1.369-.487 1.961a4.994 4.994 0 0 1-2.185 2.185c-.592.302-1.233.428-1.961.487-.708.058-1.582.058-2.666.058H517.857c-1.084 0-1.958 0-2.666-.058-.728-.059-1.369-.185-1.961-.487a4.994 4.994 0 0 1-2.185-2.185c-.302-.592-.428-1.233-.487-1.961-.058-.708-.058-1.582-.058-2.666V347.357c0-1.084 0-1.958.058-2.666.059-.728.185-1.369.487-1.961a4.994 4.994 0 0 1 2.185-2.185c.592-.302 1.233-.428 1.961-.487.708-.058 1.582-.058 2.666-.058H521.143c1.084 0 1.958 0 2.666.058.728.059 1.369.185 1.961.487a4.994 4.994 0 0 1 2.185 2.185c.302.592.428 1.233.487 1.961.058.708.058 1.582.058 2.666Zm-2.051-2.503c-.05-.605-.142-.953-.276-1.216a3.009 3.009 0 0 0-1.311-1.311c-.263-.134-.611-.226-1.216-.276-.617-.05-1.409-.051-2.546-.051h-3.2c-1.137 0-1.929.001-2.546.051-.605.05-.953.142-1.216.276a3.009 3.009 0 0 0-1.311 1.311c-.134.263-.226.611-.276 1.216-.05.617-.051 1.409-.051 2.546v3.2c0 1.137.001 1.929.051 2.546.05.605.142.953.276 1.216a3.009 3.009 0 0 0 1.311 1.311c.263.134.611.226 1.216.276.617.05 1.409.051 2.546.051h3.2c1.137 0 1.929-.001 2.546-.051.605-.05.953-.142 1.216-.276a3.009 3.009 0 0 0 1.311-1.311c.134-.263.226-.611.276-1.216.05-.617.051-1.409.051-2.546v-3.2c0-1.137-.001-1.929-.051-2.546Z" clip-rule="evenodd"/><rect width="225" height="130" x="330" y="254.5" stroke="#0069FF" stroke-opacity=".24" rx="7.5"/><rect width="483" height="186" x="84" y="210.5" stroke="#1E2126" stroke-opacity=".08" rx="7.5"/><path fill="#1E2126" fill-opacity=".8" d="M262.207 374.293a.999.999 0 0 0-1.414 0l-6.364 6.364a.999.999 0 1 0 1.414 1.414l5.657-5.657 5.657 5.657a.999.999 0 1 0 1.414-1.414l-6.364-6.364Zm14.577 26.701.363-.932-.363.932Zm10.826 4.22-.364.932.364-.932Zm9.63 4.649.65-.76-.65.76Zm4.553 17.844a.999.999 0 0 0 1.414 0l6.364-6.364a.999.999 0 1 0-1.414-1.414l-5.657 5.657-5.657-5.657a.999.999 0 1 0-1.414 1.414l6.364 6.364Zm-.127-11.369.944-.328-.944.328Zm-39.206-26.273.936-.352-.936.352Zm4.021 5.883.668-.744-.668.744ZM260.5 375v3.633h2V375h-2Zm15.92 26.926 10.826 4.22.727-1.864-10.826-4.22-.727 1.864Zm10.826 4.22c5.204 2.028 7.575 2.967 9.345 4.478l1.299-1.521c-2.089-1.784-4.853-2.846-9.917-4.821l-.727 1.864ZM303.5 427c0-5.436.013-8.397-.89-10.99l-1.888.657c.765 2.198.778 4.748.778 10.333h2Zm-6.909-16.376a14.006 14.006 0 0 1 4.131 6.043l1.888-.657a15.996 15.996 0 0 0-4.72-6.907l-1.299 1.521ZM260.5 378.633c0 5.839-.015 9.02 1.024 11.784l1.872-.704c-.881-2.342-.896-5.08-.896-11.08h-2Zm16.647 21.429c-5.59-2.179-8.136-3.187-9.998-4.858l-1.336 1.488c2.198 1.973 5.168 3.113 10.607 5.234l.727-1.864Zm-15.623-9.645a16 16 0 0 0 4.289 6.275l1.336-1.488a14.009 14.009 0 0 1-3.753-5.491l-1.872.704ZM156.207 374.293a.999.999 0 0 0-1.414 0l-6.364 6.364a.999.999 0 1 0 1.414 1.414l5.657-5.657 5.657 5.657a.999.999 0 1 0 1.414-1.414l-6.364-6.364Zm7.975 28.969-.675.737.018.017.019.016.638-.77Zm58.155 48.214-.638.77.638-.77Zm33.87 6.231a.999.999 0 0 0 0-1.414l-6.364-6.364a.999.999 0 1 0-1.414 1.414l5.657 5.657-5.657 5.657a.999.999 0 1 0 1.414 1.414l6.364-6.364Zm-28.785-2.434-.466.885.466-.885Zm3.895 1.405.206-.979-.206.979Zm-75.299-63.755.965-.26-.965.26Zm8.164 10.339.676-.737-.018-.017-.02-.016-.638.77Zm-5.934-5.592-.816.577.816-.577ZM154.5 375v9.786h2V375h-2Zm9.044 29.032 58.155 48.214 1.276-1.54-58.155-48.214-1.276 1.54ZM237.655 458H255.5v-2h-17.845v2Zm-15.956-5.754c2.436 2.02 3.761 3.124 5.257 3.912l.932-1.77c-1.27-.668-2.413-1.609-4.913-3.682l-1.276 1.54ZM237.655 456c-3.247 0-4.728-.005-6.132-.301l-.412 1.957c1.655.349 3.379.344 6.544.344v-2Zm-10.699.158a16 16 0 0 0 4.155 1.498l.412-1.957a13.991 13.991 0 0 1-3.635-1.311l-.932 1.77ZM154.5 384.786c0 4.091-.008 6.32.553 8.398l1.93-.521c-.475-1.762-.483-3.677-.483-7.877h-2Zm10.358 17.739-1.352 1.474h.001l1.351-1.474Zm-.038-.033c-3.232-2.68-4.702-3.909-5.755-5.399l-1.633 1.154c1.241 1.758 2.963 3.174 6.112 5.785l1.276-1.54Zm-9.767-9.308a15.996 15.996 0 0 0 2.379 5.063l1.633-1.154a14.034 14.034 0 0 1-2.082-4.43l-1.93.521ZM388.793 374.293a.999.999 0 0 1 1.414 0l6.364 6.364a.999.999 0 1 1-1.414 1.414l-5.657-5.657-5.657 5.657a.999.999 0 1 1-1.414-1.414l6.364-6.364Zm-14.577 26.701-.363-.932.363.932Zm-10.826 4.22.364.932-.364-.932Zm-9.63 4.649-.65-.76.65.76Zm-4.553 17.844a.999.999 0 0 1-1.414 0l-6.364-6.364a.999.999 0 1 1 1.414-1.414l5.657 5.657 5.657-5.657a.999.999 0 1 1 1.414 1.414l-6.364 6.364Zm.127-11.369-.944-.328.944.328Zm39.206-26.273-.936-.352.936.352Zm-4.021 5.883-.668-.744.668.744ZM390.5 375v3.633h-2V375h2Zm-15.92 26.926-10.826 4.22-.727-1.864 10.826-4.22.727 1.864Zm-10.826 4.22c-5.204 2.028-7.575 2.967-9.345 4.478l-1.299-1.521c2.089-1.784 4.853-2.846 9.917-4.821l.727 1.864ZM347.5 427c0-5.436-.013-8.397.89-10.99l1.888.657c-.765 2.198-.778 4.748-.778 10.333h-2Zm6.909-16.376a14.006 14.006 0 0 0-4.131 6.043l-1.888-.657a15.996 15.996 0 0 1 4.72-6.907l1.299 1.521Zm36.091-31.991c0 5.839.015 9.02-1.024 11.784l-1.872-.704c.881-2.342.896-5.08.896-11.08h2Zm-16.647 21.429c5.59-2.179 8.136-3.187 9.998-4.858l1.336 1.488c-2.198 1.973-5.168 3.113-10.607 5.234l-.727-1.864Zm15.623-9.645a16 16 0 0 1-4.289 6.275l-1.336-1.488a14.009 14.009 0 0 0 3.753-5.491l1.872.704ZM494.793 374.293a.999.999 0 0 1 1.414 0l6.364 6.364a.999.999 0 1 1-1.414 1.414l-5.657-5.657-5.657 5.657a.999.999 0 1 1-1.414-1.414l6.364-6.364Zm-7.975 28.969.675.737-.018.017-.019.016-.638-.77Zm-58.155 48.214.638.77-.638-.77Zm-33.87 6.231a.999.999 0 0 1 0-1.414l6.364-6.364a.999.999 0 1 1 1.414 1.414L396.914 457l5.657 5.657a.999.999 0 1 1-1.414 1.414l-6.364-6.364Zm28.785-2.434.466.885-.466-.885Zm-3.895 1.405-.206-.979.206.979Zm75.299-63.755-.965-.26.965.26Zm-8.164 10.339-.676-.737.018-.017.02-.016.638.77Zm5.934-5.592.816.577-.816-.577ZM496.5 375v9.786h-2V375h2Zm-9.044 29.032-58.155 48.214-1.276-1.54 58.155-48.214 1.276 1.54ZM413.345 458H395.5v-2h17.845v2Zm15.956-5.754c-2.436 2.02-3.761 3.124-5.257 3.912l-.932-1.77c1.27-.668 2.413-1.609 4.913-3.682l1.276 1.54ZM413.345 456c3.247 0 4.728-.005 6.132-.301l.412 1.957c-1.655.349-3.379.344-6.544.344v-2Zm10.699.158a16 16 0 0 1-4.155 1.498l-.412-1.957a13.991 13.991 0 0 0 3.635-1.311l.932 1.77Zm72.456-71.372c0 4.091.008 6.32-.553 8.398l-1.93-.521c.475-1.762.483-3.677.483-7.877h2Zm-10.358 17.739 1.352 1.474h-.001l-1.351-1.474Zm.038-.033c3.232-2.68 4.702-3.909 5.755-5.399l1.633 1.154c-1.241 1.758-2.963 3.174-6.112 5.785l-1.276-1.54Zm9.767-9.308a15.996 15.996 0 0 1-2.379 5.063l-1.633-1.154a14.034 14.034 0 0 0 2.082-4.43l1.93.521ZM215.293 73.707a1 1 0 0 1 0-1.414l6.364-6.364a1 1 0 1 1 1.414 1.414L217.414 73l5.657 5.657a1 1 0 1 1-1.414 1.414l-6.364-6.364Zm399.572 7.483-.891.454.891-.454Zm-6.555-6.555-.454.89.454-.89Zm0 257.73.454.891-.454-.891Zm6.555-6.555.891.454-.891-.454ZM567.5 333h25v2h-25v-2Zm48-23V97h2v213h-2Zm-23-236H216v-2h376.5v2Zm23 23c0-4.217-.001-7.32-.201-9.77-.199-2.44-.591-4.146-1.325-5.586l1.782-.908c.901 1.769 1.327 3.767 1.536 6.33.209 2.552.208 5.75.208 9.934h-2Zm-23-25c4.184 0 7.382 0 9.933.208 2.564.21 4.562.635 6.331 1.536l-.908 1.782c-1.44-.734-3.146-1.126-5.585-1.325-2.452-.2-5.554-.201-9.771-.201v-2Zm21.474 9.644a14 14 0 0 0-6.118-6.118l.908-1.782a16.003 16.003 0 0 1 6.992 6.992l-1.782.908ZM592.5 333c4.217 0 7.319-.001 9.771-.201 2.439-.199 4.145-.591 5.585-1.325l.908 1.782c-1.769.901-3.767 1.327-6.331 1.536-2.551.209-5.749.208-9.933.208v-2Zm25-23c0 4.184.001 7.382-.208 9.933-.209 2.564-.635 4.562-1.536 6.331l-1.782-.908c.734-1.44 1.126-3.146 1.325-5.585.2-2.452.201-5.554.201-9.771h2Zm-9.644 21.474a14 14 0 0 0 6.118-6.118l1.782.908a16.005 16.005 0 0 1-6.992 6.992l-.908-1.782Z"/><rect width="699" height="531" x=".5" y=".5" stroke="#1E2126" stroke-opacity=".1" rx="7.5"/><defs><clipPath id="a"><path fill="#fff" d="M278.5 447h24v24h-24z"/></clipPath></defs></svg>