<svg xmlns="http://www.w3.org/2000/svg" width="16" height="21" fill="none" viewBox="0 0 16 21"><path fill="#7F8285" fill-rule="evenodd" d="M8.663.5H7.337c-1.069 0-1.49.09-1.921.27a2.689 2.689 0 0 0-1.084.82c-.292.365-.493.746-.784 1.774L3.368 4H1a1 1 0 0 0 0 2h.563l.703 11.25c.082 1.32.123 1.98.407 2.481a2.5 2.5 0 0 0 1.083 1.017C4.273 21 4.935 21 6.258 21h3.484c1.323 0 1.985 0 2.502-.252a2.5 2.5 0 0 0 1.083-1.017c.284-.5.325-1.16.407-2.482L14.437 6H15a1 1 0 1 0 0-2h-2.367l-.18-.636c-.292-1.028-.493-1.409-.785-1.775A2.694 2.694 0 0 0 10.584.77C10.153.59 9.732.5 8.664.5h-.001Zm1.89 3.5-.025-.09c-.203-.717-.29-.905-.424-1.074a.696.696 0 0 0-.292-.221c-.2-.084-.404-.115-1.149-.115H7.337c-.745 0-.95.031-1.149.115a.696.696 0 0 0-.292.221c-.135.169-.221.357-.424 1.074L5.446 4h5.108-.001ZM5.61 7.506a.75.75 0 0 0-.724.776l.297 8.495a.75.75 0 0 0 1.499-.053L6.385 8.23a.75.75 0 0 0-.775-.724Zm4.008.724a.75.75 0 0 1 1.499.052l-.297 8.495a.75.75 0 0 1-1.499-.053l.297-8.494Z" clip-rule="evenodd"/></svg>