<svg xmlns="http://www.w3.org/2000/svg" width="16" height="16" viewBox="0 0 16 16"><path d="M4.5 8c0-.398.352-.75.75-.75S6 7.602 6 8s-.352.75-.75.75A.771.771 0 0 1 4.5 8Zm2.75 0c0-.398.352-.75.75-.75s.75.352.75.75-.352.75-.75.75A.771.771 0 0 1 7.25 8Zm3.5-.75A.771.771 0 0 0 10 8c0 .398.352.75.75.75s.75-.352.75-.75a.771.771 0 0 0-.75-.75Zm0 0" style="stroke:none;fill-rule:evenodd;fill:#000;fill-opacity:1"/><path d="M.398 4.398c0-2.195 1.805-4 4-4h23.204c2.195 0 4 1.805 4 4v23.204c0 2.195-1.805 4-4 4H4.398c-2.195 0-4-1.805-4-4Zm0 0" style="fill:none;stroke-width:1;stroke-linecap:butt;stroke-linejoin:miter;stroke:#b8bec3;stroke-opacity:1;stroke-miterlimit:10" transform="scale(.5)"/></svg>