<svg xmlns="http://www.w3.org/2000/svg" width="32" height="32">
<style type="text/css">
	.st0{fill-rule:evenodd;clip-rule:evenodd;}
	.st1{fill:none;stroke:#B8BEC3;stroke-miterlimit:10;}
</style>
<path class="st0" d="M9,16c0-0.8,0.7-1.5,1.5-1.5S12,15.2,12,16c0,0.8-0.7,1.5-1.5,1.5S9,16.8,9,16z M14.5,16c0-0.8,0.7-1.5,1.5-1.5
	c0.8,0,1.5,0.7,1.5,1.5c0,0.8-0.7,1.5-1.5,1.5S14.5,16.8,14.5,16z M21.5,14.5c-0.8,0-1.5,0.7-1.5,1.5c0,0.8,0.7,1.5,1.5,1.5
	S23,16.8,23,16C23,15.2,22.3,14.5,21.5,14.5z"/>
<g>
	<path class="st1" d="M0.4,4.4c0-2.2,1.8-4,4-4h23.2c2.2,0,4,1.8,4,4v23.2c0,2.2-1.8,4-4,4H4.4c-2.2,0-4-1.8-4-4V4.4z"/>
</g>
</svg>
