<?xml version="1.0" encoding="UTF-8"?>
<svg xmlns="http://www.w3.org/2000/svg" xmlns:xlink="http://www.w3.org/1999/xlink" width="16px" height="16px" viewBox="0 0 16 16" version="1.1">
<g id="surface1">
<path style=" stroke:none;fill-rule:evenodd;fill:rgb(0%,0%,0%);fill-opacity:1;" d="M 4.5 8 C 4.5 7.601562 4.851562 7.25 5.25 7.25 C 5.648438 7.25 6 7.601562 6 8 C 6 8.398438 5.648438 8.75 5.25 8.75 C 4.851562 8.75 4.5 8.398438 4.5 8 Z M 7.25 8 C 7.25 7.601562 7.601562 7.25 8 7.25 C 8.398438 7.25 8.75 7.601562 8.75 8 C 8.75 8.398438 8.398438 8.75 8 8.75 C 7.601562 8.75 7.25 8.398438 7.25 8 Z M 10.75 7.25 C 10.351562 7.25 10 7.601562 10 8 C 10 8.398438 10.351562 8.75 10.75 8.75 C 11.148438 8.75 11.5 8.398438 11.5 8 C 11.5 7.601562 11.148438 7.25 10.75 7.25 Z M 10.75 7.25 "/>
<path style="fill:none;stroke-width:1;stroke-linecap:butt;stroke-linejoin:miter;stroke:rgb(72.156863%,74.509804%,76.470588%);stroke-opacity:1;stroke-miterlimit:10;" d="M 0.398438 4.398438 C 0.398438 2.203125 2.203125 0.398438 4.398438 0.398438 L 27.601562 0.398438 C 29.796875 0.398438 31.601562 2.203125 31.601562 4.398438 L 31.601562 27.601562 C 31.601562 29.796875 29.796875 31.601562 27.601562 31.601562 L 4.398438 31.601562 C 2.203125 31.601562 0.398438 29.796875 0.398438 27.601562 Z M 0.398438 4.398438 " transform="matrix(0.5,0,0,0.5,0,0)"/>
</g>
</svg>
