<svg xmlns="http://www.w3.org/2000/svg" width="698" height="265" fill="none"><rect width="222" height="233" y="16" fill="#1E2126" fill-opacity=".04" rx="8"/><path fill="#1E2126" fill-rule="evenodd" d="M40 46.02c-.186-.017-.46-.02-.988-.02H35.8c-.857 0-1.439 0-1.889.038-.438.035-.663.1-.819.18a2 2 0 0 0-.874.874c-.08.157-.145.38-.18.82C32 48.361 32 48.943 32 49.8v8.4c0 .857 0 1.439.038 1.889.035.438.1.663.18.819a2 2 0 0 0 .874.874c.156.08.38.145.819.18l.096.008.06.004a.969.969 0 0 1 .933.997c0 .552-.495 1.024-1.045 1a9.154 9.154 0 0 1-.207-.015c-.562-.046-1.079-.145-1.564-.392a4 4 0 0 1-1.748-1.748c-.247-.485-.346-1.002-.392-1.564C30 59.71 30 59.046 30 58.242v-8.483c0-.805 0-1.47.044-2.01.046-.563.145-1.08.392-1.565a4 4 0 0 1 1.748-1.748c.485-.247 1.002-.346 1.564-.392C34.29 44 34.954 44 35.758 44h3.356c.635 0 1.114 0 1.577.11a4 4 0 0 1 1.156.48c.406.248.745.588 1.194 1.037l.072.072 1.188 1.188.072.072c.45.449.789.788 1.038 1.194.219.358.38.748.478 1.156.089.369-.224.691-.603.691H44c-1.4 0-2.1 0-2.635-.272a2.5 2.5 0 0 1-1.093-1.093c-.27-.532-.272-1.228-.272-2.615Zm-6.045 17.95.038.003-.049-.003h.011Zm9.329-10.254 2.314-2.314c.257-.257.607-.402.97-.402A3.431 3.431 0 0 1 50 54.431c0 .365-.145.714-.402.971l-2.314 2.314-4.544 4.544a5 5 0 0 1-2.983 1.434l-1.515.168a1 1 0 0 1-1.104-1.104l.168-1.515a5 5 0 0 1 1.434-2.983l4.544-4.544Zm.981 1.847-4.11 4.111a3 3 0 0 0-.86 1.79l-.031.272.272-.03a3 3 0 0 0 1.79-.86l4.111-4.111a1.697 1.697 0 0 0-1.172-1.172Zm2.673-.329a3.713 3.713 0 0 0-1.172-1.172l1.042-1.042c.599.101 1.071.573 1.172 1.172l-1.042 1.042Z" clip-rule="evenodd"/><path fill="#1E2126" d="M63.697 46.226h5.148c1.907 0 3.388.381 4.444 1.144 1.056.763 1.584 1.973 1.584 3.63 0 .91-.147 1.694-.44 2.354a4.194 4.194 0 0 1-1.254 1.628c-.528.425-1.173.74-1.936.946-.748.19-1.584.286-2.508.286h-2.376V62h-2.662V46.226Zm2.662 2.31v5.39h2.376c1.07 0 1.914-.213 2.53-.638.616-.425.924-1.159.924-2.2 0-.895-.286-1.54-.858-1.936-.557-.41-1.386-.616-2.486-.616h-2.486Zm17.053 4.51c-.836-.015-1.591.117-2.266.396s-1.188.719-1.54 1.32V62h-2.552V50.582h2.332l.176 2.376h.044a5.103 5.103 0 0 1 1.496-1.76c.645-.47 1.415-.748 2.31-.836v2.684Zm6.8 9.174a6.222 6.222 0 0 1-2.245-.396 5.254 5.254 0 0 1-1.804-1.144 5.667 5.667 0 0 1-1.188-1.87c-.279-.733-.418-1.577-.418-2.53 0-.953.14-1.797.418-2.53.293-.733.69-1.35 1.188-1.848a4.854 4.854 0 0 1 1.804-1.144 6.222 6.222 0 0 1 2.244-.396c.807 0 1.555.132 2.244.396.69.25 1.29.63 1.804 1.144.513.499.917 1.115 1.21 1.848.293.733.44 1.577.44 2.53 0 .953-.147 1.797-.44 2.53a5.492 5.492 0 0 1-1.21 1.87 5.256 5.256 0 0 1-1.804 1.144 6.223 6.223 0 0 1-2.244.396Zm0-2.134c.88 0 1.605-.308 2.177-.924.587-.616.88-1.577.88-2.882 0-1.29-.293-2.244-.88-2.86-.572-.63-1.298-.946-2.178-.946-.865 0-1.591.315-2.178.946-.572.616-.858 1.57-.858 2.86 0 1.305.286 2.266.858 2.882.587.616 1.313.924 2.178.924Zm9.35-10.956c-.454 0-.836-.154-1.144-.462a1.54 1.54 0 0 1-.44-1.1c0-.425.147-.792.44-1.1.308-.308.69-.462 1.144-.462.47 0 .851.154 1.144.462.308.308.462.675.462 1.1 0 .425-.154.792-.462 1.1-.293.308-.674.462-1.144.462Zm1.298 13.552c0 1.012-.3 1.833-.902 2.464-.601.645-1.503.968-2.706.968-.337 0-.682-.037-1.034-.11a3.448 3.448 0 0 1-1.056-.352v-2.2a2.382 2.382 0 0 0 1.584.55c.572 0 .976-.147 1.21-.44.235-.279.352-.623.352-1.034V50.582h2.552v12.1Zm12.404-1.518c-.161.103-.359.22-.594.352a5.852 5.852 0 0 1-.836.33c-.323.103-.697.19-1.122.264-.425.073-.909.11-1.452.11-2.097 0-3.667-.52-4.708-1.562-1.027-1.041-1.54-2.5-1.54-4.378 0-.924.139-1.753.418-2.486.279-.733.667-1.35 1.166-1.848a4.894 4.894 0 0 1 1.782-1.166 5.99 5.99 0 0 1 2.266-.418c.851 0 1.613.14 2.288.418a4.049 4.049 0 0 1 1.694 1.254c.44.557.741 1.247.902 2.068.176.821.183 1.782.022 2.882h-7.898c.103 1.041.447 1.826 1.034 2.354.587.513 1.503.77 2.75.77.909 0 1.665-.11 2.266-.33a10.512 10.512 0 0 0 1.562-.726v2.112Zm-4.62-8.778c-.748 0-1.379.227-1.892.682-.513.455-.851 1.13-1.012 2.024h5.368c.029-.924-.176-1.606-.616-2.046-.44-.44-1.056-.66-1.848-.66Zm12.426 9.834c-.924 0-1.753-.132-2.486-.396a5.395 5.395 0 0 1-1.87-1.166 5.243 5.243 0 0 1-1.188-1.87c-.279-.733-.418-1.57-.418-2.508 0-.924.139-1.753.418-2.486a5.028 5.028 0 0 1 1.188-1.848c.513-.513 1.144-.902 1.892-1.166.748-.279 1.584-.418 2.508-.418.792 0 1.481.088 2.068.264.601.176 1.078.396 1.43.66v2.112a5.782 5.782 0 0 0-1.496-.682c-.528-.161-1.144-.242-1.848-.242-2.361 0-3.542 1.269-3.542 3.806s1.159 3.806 3.476 3.806c.748 0 1.386-.08 1.914-.242a7.7 7.7 0 0 0 1.496-.66v2.112c-.381.25-.858.47-1.43.66-.572.176-1.276.264-2.112.264Zm11.987-.572a3.665 3.665 0 0 1-.99.396c-.396.117-.85.176-1.364.176-.616 0-1.136-.08-1.562-.242a2.85 2.85 0 0 1-1.012-.704 2.675 2.675 0 0 1-.572-1.012 4.404 4.404 0 0 1-.176-1.254V52.65h-1.364v-2.068h1.364v-2.398h2.552v2.398h3.278v2.068h-3.278v6.072c0 .47.11.814.33 1.034.235.22.616.33 1.144.33.352 0 .66-.051.924-.154.264-.103.506-.242.726-.418v2.134Z"/><path stroke="#1E2126" stroke-linecap="round" stroke-linejoin="round" stroke-miterlimit="79.84" stroke-opacity=".12" d="M28 84h166"/><path fill="#1E2126" d="M34.896 113.256h-.672l.016-.016-3.472-7.6V115h-1.424v-11.472h2.096l3.568 8.048 3.728-8.048h1.952V115h-1.52v-9.232l-3.52 7.472-.752.016Zm11.088-5.472c-.886 0-1.782.272-2.688.816v-1.264a5.093 5.093 0 0 1 1.36-.576 5.536 5.536 0 0 1 1.52-.224c1.045 0 1.84.219 2.384.656.544.437.816 1.104.816 2v4.464c0 .181.005.416.016.704.021.277.042.491.064.64h-1.28a7.266 7.266 0 0 1-.096-.624 9.568 9.568 0 0 1-.032-.72l-.016-.24a4.467 4.467 0 0 1-.528.8 2.663 2.663 0 0 1-.896.672c-.363.181-.816.272-1.36.272-.747 0-1.35-.213-1.808-.64-.459-.427-.688-1.029-.688-1.808 0-.907.32-1.573.96-2 .64-.427 1.541-.64 2.704-.64h1.552v-.688c0-.576-.15-.987-.448-1.232-.299-.245-.811-.368-1.536-.368Zm1.984 4.016v-.608H46.56c-.843 0-1.456.123-1.84.368-.374.245-.56.603-.56 1.072 0 .373.112.677.336.912.234.235.586.352 1.056.352.437 0 .81-.085 1.12-.256.309-.181.56-.395.752-.64.192-.256.33-.496.416-.72.085-.224.128-.384.128-.48Zm4.341-6.32c-.287 0-.517-.085-.688-.256a.922.922 0 0 1-.256-.656c0-.256.086-.475.256-.656.171-.181.4-.272.688-.272.278 0 .497.091.657.272.16.181.24.4.24.656s-.08.475-.24.656c-.16.171-.38.256-.657.256Zm-.72 1.216h1.409V115H51.59v-8.304Zm7.64 1.088c-.64 0-1.163.149-1.568.448a3.271 3.271 0 0 0-.96 1.12V115h-1.408v-8.304h1.328l.048 1.488h.032a2.835 2.835 0 0 1 1.056-1.168c.48-.32 1.088-.48 1.824-.48.821 0 1.472.219 1.952.656.49.437.736 1.099.736 1.984V115H60.86v-5.68c0-.565-.15-.96-.448-1.184-.288-.235-.683-.352-1.184-.352Zm7.878 3.056c0-.971.17-1.771.512-2.4.341-.64.794-1.115 1.36-1.424.576-.32 1.2-.48 1.872-.48.63 0 1.173.133 1.632.4a2.89 2.89 0 0 1 1.104 1.104v-4.512h1.408V115h-1.232l-.112-1.632a3.282 3.282 0 0 1-1.088 1.312c-.459.32-1.035.48-1.728.48-.661 0-1.28-.155-1.856-.464-.566-.32-1.019-.8-1.36-1.44-.341-.64-.512-1.445-.512-2.416Zm6.496 0c0-1.035-.245-1.803-.736-2.304-.49-.501-1.099-.752-1.824-.752-.726 0-1.323.261-1.792.784-.47.512-.704 1.269-.704 2.272 0 1.013.234 1.776.704 2.288.47.512 1.066.768 1.792.768.725 0 1.333-.251 1.824-.752.49-.501.736-1.269.736-2.304Zm7.37 4.32c-1.387 0-2.448-.379-3.184-1.136-.726-.768-1.088-1.829-1.088-3.184 0-.907.17-1.68.512-2.32.341-.64.81-1.131 1.408-1.472.597-.341 1.269-.512 2.016-.512 1.269 0 2.202.421 2.8 1.264.597.832.789 1.973.576 3.424h-5.856c.117 1.781 1.098 2.672 2.944 2.672a4.901 4.901 0 0 0 2.8-.864v1.264c-.384.267-.832.48-1.344.64a5.64 5.64 0 0 1-1.584.224Zm-.368-7.376c-.608 0-1.131.187-1.568.56-.438.373-.715.939-.832 1.696h4.464c.032-.715-.134-1.269-.496-1.664-.363-.395-.886-.592-1.568-.592Zm7.828 7.376c-.608 0-1.19-.085-1.744-.256-.544-.181-.987-.421-1.328-.72v-1.264c.33.32.773.576 1.328.768a5.339 5.339 0 0 0 1.728.288c1.301 0 1.952-.421 1.952-1.264 0-.245-.059-.443-.176-.592-.107-.16-.31-.293-.608-.4-.299-.117-.73-.229-1.296-.336-1.077-.213-1.83-.501-2.256-.864-.427-.373-.64-.901-.64-1.584 0-.757.293-1.344.88-1.76.587-.427 1.397-.64 2.432-.64.49 0 .97.053 1.44.16.48.096.87.229 1.168.4v1.264c-.619-.427-1.472-.64-2.56-.64-.672 0-1.168.096-1.488.288-.31.192-.464.491-.464.896 0 .213.048.389.144.528.096.139.288.261.576.368.288.107.72.219 1.296.336.736.149 1.317.331 1.744.544.437.203.747.464.928.784.192.32.288.725.288 1.216 0 .779-.293 1.387-.88 1.824-.587.437-1.408.656-2.464.656Zm8.662 0c-1.29 0-2.309-.379-3.056-1.136-.746-.768-1.12-1.829-1.12-3.184 0-1.355.379-2.411 1.136-3.168.758-.757 1.792-1.136 3.104-1.136.502 0 .971.059 1.408.176.438.107.79.267 1.056.48v1.264c-.725-.448-1.541-.672-2.448-.672-.96 0-1.669.256-2.128.768-.458.501-.688 1.264-.688 2.288 0 1.024.219 1.792.656 2.304.448.501 1.142.752 2.08.752.907 0 1.75-.219 2.528-.656v1.264c-.693.437-1.536.656-2.528.656Zm8.357-7.056c-.662.053-1.227.219-1.696.496a2.49 2.49 0 0 0-1.008 1.12V115h-1.408v-8.304h1.232l.144 1.808h.032a3.553 3.553 0 0 1 1.088-1.344 3.41 3.41 0 0 1 1.616-.624v1.568Zm2.436-2.624c-.288 0-.518-.085-.688-.256a.92.92 0 0 1-.256-.656.92.92 0 0 1 .256-.656c.17-.181.4-.272.688-.272.277 0 .496.091.656.272.16.181.24.4.24.656s-.08.475-.24.656c-.16.171-.379.256-.656.256Zm-.72 1.216h1.408V115h-1.408v-8.304Zm3.703 0h1.232l.144 1.616c.266-.533.634-.96 1.104-1.28.48-.331 1.066-.496 1.76-.496.65 0 1.248.16 1.792.48.554.309 1.002.784 1.344 1.424.341.629.512 1.429.512 2.4 0 .971-.176 1.776-.528 2.416-.342.64-.795 1.12-1.36 1.44a3.687 3.687 0 0 1-1.824.464c-.63 0-1.179-.149-1.648-.448a3.203 3.203 0 0 1-1.12-1.232v4.352h-1.408v-11.136Zm6.432 4.144c0-1.003-.23-1.76-.688-2.272-.459-.523-1.051-.784-1.776-.784-.726 0-1.339.256-1.84.768-.491.501-.736 1.264-.736 2.288 0 1.035.245 1.803.736 2.304.501.501 1.114.752 1.84.752.725 0 1.317-.256 1.776-.768.458-.512.688-1.275.688-2.288Zm2.411-2.944v-1.2h.992v-1.744h1.408v1.744h2.416v1.2h-2.416v4.992c0 .352.091.608.272.768.182.16.491.24.928.24.416 0 .795-.117 1.136-.352v1.28c-.17.107-.394.187-.672.24a3.683 3.683 0 0 1-.832.096c-.533 0-.965-.101-1.296-.304a1.823 1.823 0 0 1-.72-.784 2.36 2.36 0 0 1-.224-1.008v-5.168h-.992Zm7.33-2.416c-.288 0-.517-.085-.688-.256a.92.92 0 0 1-.256-.656.92.92 0 0 1 .256-.656c.171-.181.4-.272.688-.272.277 0 .496.091.656.272.16.181.24.4.24.656s-.08.475-.24.656c-.16.171-.379.256-.656.256Zm-.72 1.216h1.408V115h-1.408v-8.304Zm7.111 8.464c-.757 0-1.44-.165-2.048-.496a3.712 3.712 0 0 1-1.424-1.472c-.352-.651-.528-1.435-.528-2.352 0-.917.176-1.696.528-2.336a3.606 3.606 0 0 1 1.424-1.456c.608-.341 1.291-.512 2.048-.512.768 0 1.456.171 2.064.512a3.575 3.575 0 0 1 1.44 1.456c.352.64.528 1.419.528 2.336 0 .917-.176 1.701-.528 2.352a3.678 3.678 0 0 1-1.44 1.472c-.608.331-1.296.496-2.064.496Zm0-1.264c.747 0 1.365-.245 1.856-.736.491-.501.736-1.275.736-2.32s-.245-1.813-.736-2.304c-.491-.501-1.109-.752-1.856-.752-.736 0-1.349.251-1.84.752-.48.491-.72 1.259-.72 2.304s.24 1.819.72 2.32c.491.491 1.104.736 1.84.736Zm9.684-6.112c-.64 0-1.162.149-1.568.448a3.284 3.284 0 0 0-.96 1.12V115h-1.408v-8.304h1.328l.048 1.488h.032a2.835 2.835 0 0 1 1.056-1.168c.48-.32 1.088-.48 1.824-.48.822 0 1.472.219 1.952.656.491.437.736 1.099.736 1.984V115h-1.408v-5.68c0-.565-.149-.96-.448-1.184-.288-.235-.682-.352-1.184-.352ZM29.344 132.528h1.504V144h-1.504v-11.472Zm7.916 4.256c-.64 0-1.163.149-1.568.448a3.269 3.269 0 0 0-.96 1.12V144h-1.408v-8.304h1.328l.048 1.488h.032a2.835 2.835 0 0 1 1.056-1.168c.48-.32 1.088-.48 1.824-.48.821 0 1.472.219 1.952.656.49.437.736 1.099.736 1.984V144h-1.408v-5.68c0-.565-.15-.96-.448-1.184-.288-.235-.683-.352-1.184-.352Zm4.595.112v-1.2h.992v-1.744h1.408v1.744h2.416v1.2h-2.416v4.992c0 .352.09.608.272.768.181.16.49.24.928.24.416 0 .795-.117 1.136-.352v1.28a1.96 1.96 0 0 1-.672.24 3.69 3.69 0 0 1-.832.096c-.533 0-.965-.101-1.296-.304a1.814 1.814 0 0 1-.72-.784 2.356 2.356 0 0 1-.224-1.008v-5.168h-.992Zm10.055 7.264c-1.386 0-2.448-.379-3.184-1.136-.725-.768-1.088-1.829-1.088-3.184 0-.907.17-1.68.512-2.32.342-.64.81-1.131 1.408-1.472.598-.341 1.27-.512 2.016-.512 1.27 0 2.203.421 2.8 1.264.597.832.79 1.973.576 3.424h-5.856c.117 1.781 1.099 2.672 2.944 2.672a4.901 4.901 0 0 0 2.8-.864v1.264c-.384.267-.832.48-1.344.64a5.64 5.64 0 0 1-1.584.224Zm-.368-7.376c-.608 0-1.13.187-1.568.56-.437.373-.714.939-.832 1.696h4.464c.032-.715-.133-1.269-.496-1.664-.362-.395-.885-.592-1.568-.592Zm9.285.32c-.662.053-1.227.219-1.697.496a2.493 2.493 0 0 0-1.008 1.12V144h-1.407v-8.304h1.231l.145 1.808h.032a3.563 3.563 0 0 1 1.088-1.344 3.41 3.41 0 0 1 1.616-.624v1.568ZM63.039 144v-7.104H62.03v-1.2h1.008v-.208c0-.981.261-1.744.784-2.288.522-.544 1.237-.816 2.144-.816.405 0 .757.048 1.056.144v1.28a1.855 1.855 0 0 0-.416-.112 3.312 3.312 0 0 0-.576-.048c-.491 0-.88.149-1.168.448-.278.299-.416.763-.416 1.392v.208h2.4v1.2h-2.4V144h-1.408Zm8.038-7.216c-.885 0-1.781.272-2.688.816v-1.264a5.092 5.092 0 0 1 1.36-.576 5.535 5.535 0 0 1 1.52-.224c1.046 0 1.84.219 2.384.656.544.437.816 1.104.816 2v4.464c0 .181.006.416.016.704.022.277.043.491.064.64h-1.28a7.266 7.266 0 0 1-.096-.624 9.515 9.515 0 0 1-.032-.72l-.016-.24a4.467 4.467 0 0 1-.528.8 2.664 2.664 0 0 1-.896.672c-.362.181-.816.272-1.36.272-.746 0-1.349-.213-1.808-.64-.458-.427-.688-1.029-.688-1.808 0-.907.32-1.573.96-2 .64-.427 1.542-.64 2.704-.64h1.552v-.688c0-.576-.149-.987-.448-1.232-.298-.245-.81-.368-1.536-.368Zm1.984 4.016v-.608h-1.408c-.842 0-1.456.123-1.84.368-.373.245-.56.603-.56 1.072 0 .373.112.677.336.912.235.235.587.352 1.056.352.438 0 .811-.085 1.12-.256.31-.181.56-.395.752-.64a3.02 3.02 0 0 0 .416-.72c.086-.224.128-.384.128-.48Zm7.206 3.36c-1.29 0-2.31-.379-3.056-1.136-.746-.768-1.12-1.829-1.12-3.184 0-1.355.379-2.411 1.136-3.168.758-.757 1.792-1.136 3.104-1.136.502 0 .97.059 1.408.176.438.107.79.267 1.056.48v1.264c-.725-.448-1.541-.672-2.448-.672-.96 0-1.67.256-2.128.768-.458.501-.688 1.264-.688 2.288 0 1.024.219 1.792.656 2.304.448.501 1.142.752 2.08.752.907 0 1.75-.219 2.528-.656v1.264c-.693.437-1.536.656-2.528.656Zm7.924 0c-1.386 0-2.448-.379-3.184-1.136-.725-.768-1.088-1.829-1.088-3.184 0-.907.171-1.68.512-2.32.342-.64.811-1.131 1.408-1.472.598-.341 1.27-.512 2.016-.512 1.27 0 2.203.421 2.8 1.264.598.832.79 1.973.576 3.424h-5.856c.118 1.781 1.099 2.672 2.944 2.672a4.902 4.902 0 0 0 2.8-.864v1.264c-.384.267-.832.48-1.344.64a5.64 5.64 0 0 1-1.584.224Zm-.368-7.376c-.608 0-1.13.187-1.568.56-.437.373-.714.939-.832 1.696h4.464c.032-.715-.133-1.269-.496-1.664-.362-.395-.885-.592-1.568-.592ZM28.48 162.92v-1.392h8.592v1.392h-3.536V173h-1.52v-10.08H28.48Zm11.941 2.864c-.885 0-1.781.272-2.688.816v-1.264a5.093 5.093 0 0 1 1.36-.576 5.536 5.536 0 0 1 1.52-.224c1.045 0 1.84.219 2.384.656.544.437.816 1.104.816 2v4.464c0 .181.005.416.016.704.021.277.043.491.064.64h-1.28a7.266 7.266 0 0 1-.096-.624 9.568 9.568 0 0 1-.032-.72l-.016-.24a4.467 4.467 0 0 1-.528.8 2.663 2.663 0 0 1-.896.672c-.363.181-.816.272-1.36.272-.747 0-1.35-.213-1.808-.64-.459-.427-.688-1.029-.688-1.808 0-.907.32-1.573.96-2 .64-.427 1.541-.64 2.704-.64h1.552v-.688c0-.576-.15-.987-.448-1.232-.299-.245-.81-.368-1.536-.368Zm1.984 4.016v-.608h-1.408c-.843 0-1.456.123-1.84.368-.373.245-.56.603-.56 1.072 0 .373.112.677.336.912.235.235.587.352 1.056.352.438 0 .81-.085 1.12-.256.31-.181.56-.395.752-.64.192-.256.33-.496.416-.72.085-.224.128-.384.128-.48Zm6.278 3.36c-.608 0-1.19-.085-1.744-.256-.544-.181-.987-.421-1.328-.72v-1.264c.33.32.773.576 1.328.768a5.339 5.339 0 0 0 1.728.288c1.301 0 1.952-.421 1.952-1.264 0-.245-.059-.443-.176-.592-.107-.16-.31-.293-.608-.4-.299-.117-.73-.229-1.296-.336-1.077-.213-1.83-.501-2.256-.864-.427-.373-.64-.901-.64-1.584 0-.757.293-1.344.88-1.76.587-.427 1.397-.64 2.432-.64.49 0 .97.053 1.44.16.48.096.87.229 1.168.4v1.264c-.619-.427-1.472-.64-2.56-.64-.672 0-1.168.096-1.488.288-.31.192-.464.491-.464.896 0 .213.048.389.144.528.096.139.288.261.576.368.288.107.72.219 1.296.336.736.149 1.317.331 1.744.544.437.203.747.464.928.784.192.32.288.725.288 1.216 0 .779-.293 1.387-.88 1.824-.587.437-1.408.656-2.464.656Zm11.862-.16h-1.712l-2.928-3.536h-.736V173h-1.408v-11.472h1.408v6.736h.8l2.912-3.568h1.6l-3.408 4.096L60.545 173Zm5.077-9.52c-.288 0-.517-.085-.688-.256a.922.922 0 0 1-.256-.656c0-.256.085-.475.256-.656.17-.181.4-.272.688-.272.277 0 .496.091.656.272.16.181.24.4.24.656s-.08.475-.24.656c-.16.171-.379.256-.656.256Zm-.72 1.216h1.408V173h-1.408v-8.304Zm7.64 1.088c-.64 0-1.163.149-1.569.448a3.271 3.271 0 0 0-.96 1.12V173h-1.408v-8.304h1.328l.048 1.488h.032a2.835 2.835 0 0 1 1.056-1.168c.48-.32 1.088-.48 1.824-.48.822 0 1.472.219 1.952.656.49.437.736 1.099.736 1.984V173h-1.408v-5.68c0-.565-.15-.96-.448-1.184-.288-.235-.682-.352-1.184-.352Zm7.922 7.376c-.608 0-1.19-.085-1.744-.256-.544-.181-.986-.421-1.328-.72v-1.264c.33.32.774.576 1.328.768a5.339 5.339 0 0 0 1.728.288c1.302 0 1.952-.421 1.952-1.264 0-.245-.058-.443-.176-.592-.106-.16-.31-.293-.608-.4-.298-.117-.73-.229-1.296-.336-1.077-.213-1.83-.501-2.256-.864-.426-.373-.64-.901-.64-1.584 0-.757.294-1.344.88-1.76.587-.427 1.398-.64 2.432-.64.49 0 .97.053 1.44.16.48.096.87.229 1.168.4v1.264c-.618-.427-1.472-.64-2.56-.64-.672 0-1.168.096-1.488.288-.31.192-.464.491-.464.896 0 .213.048.389.144.528.096.139.288.261.576.368.288.107.72.219 1.296.336.736.149 1.318.331 1.744.544.438.203.747.464.928.784.192.32.288.725.288 1.216 0 .779-.293 1.387-.88 1.824-.586.437-1.408.656-2.464.656Zm4.407-7.264v-1.2h.992v-1.744h1.408v1.744h2.416v1.2H87.27v4.992c0 .352.09.608.272.768.181.16.49.24.928.24.416 0 .794-.117 1.136-.352v1.28c-.171.107-.395.187-.672.24a3.689 3.689 0 0 1-.832.096c-.534 0-.966-.101-1.296-.304a1.815 1.815 0 0 1-.72-.784 2.356 2.356 0 0 1-.224-1.008v-5.168h-.992Zm10.721.208c-.661.053-1.227.219-1.696.496a2.494 2.494 0 0 0-1.008 1.12V173H91.48v-8.304h1.232l.144 1.808h.032a3.564 3.564 0 0 1 1.088-1.344 3.411 3.411 0 0 1 1.616-.624v1.568Zm7.044 5.408c-.224.459-.57.848-1.04 1.168-.458.32-1.061.48-1.808.48-.768 0-1.392-.219-1.872-.656-.47-.437-.704-1.104-.704-2v-5.808h1.424v5.808c0 .544.15.912.448 1.104.299.192.667.288 1.104.288.619 0 1.115-.139 1.488-.416.374-.277.694-.656.96-1.136v-5.648h1.408V173h-1.248l-.128-1.488h-.032Zm7.303 1.648c-1.291 0-2.309-.379-3.056-1.136-.747-.768-1.12-1.829-1.12-3.184 0-1.355.379-2.411 1.136-3.168.757-.757 1.792-1.136 3.104-1.136.501 0 .971.059 1.408.176.437.107.789.267 1.056.48v1.264c-.725-.448-1.541-.672-2.448-.672-.96 0-1.669.256-2.128.768-.459.501-.688 1.264-.688 2.288 0 1.024.219 1.792.656 2.304.448.501 1.141.752 2.08.752a5.08 5.08 0 0 0 2.528-.656v1.264c-.693.437-1.536.656-2.528.656Zm3.65-7.264v-1.2h.992v-1.744h1.408v1.744h2.416v1.2h-2.416v4.992c0 .352.091.608.272.768.182.16.491.24.928.24.416 0 .795-.117 1.136-.352v1.28c-.17.107-.394.187-.672.24a3.683 3.683 0 0 1-.832.096c-.533 0-.965-.101-1.296-.304a1.823 1.823 0 0 1-.72-.784 2.36 2.36 0 0 1-.224-1.008v-5.168h-.992Zm7.33-2.416c-.288 0-.517-.085-.688-.256a.92.92 0 0 1-.256-.656.92.92 0 0 1 .256-.656c.171-.181.4-.272.688-.272.277 0 .496.091.656.272.16.181.24.4.24.656s-.08.475-.24.656c-.16.171-.379.256-.656.256Zm-.72 1.216h1.408V173h-1.408v-8.304Zm7.111 8.464c-.757 0-1.44-.165-2.048-.496a3.712 3.712 0 0 1-1.424-1.472c-.352-.651-.528-1.435-.528-2.352 0-.917.176-1.696.528-2.336a3.606 3.606 0 0 1 1.424-1.456c.608-.341 1.291-.512 2.048-.512.768 0 1.456.171 2.064.512a3.575 3.575 0 0 1 1.44 1.456c.352.64.528 1.419.528 2.336 0 .917-.176 1.701-.528 2.352a3.678 3.678 0 0 1-1.44 1.472c-.608.331-1.296.496-2.064.496Zm0-1.264c.747 0 1.365-.245 1.856-.736.491-.501.736-1.275.736-2.32s-.245-1.813-.736-2.304c-.491-.501-1.109-.752-1.856-.752-.736 0-1.349.251-1.84.752-.48.491-.72 1.259-.72 2.304s.24 1.819.72 2.32c.491.491 1.104.736 1.84.736Zm9.684-6.112c-.64 0-1.162.149-1.568.448a3.284 3.284 0 0 0-.96 1.12V173h-1.408v-8.304h1.328l.048 1.488h.032a2.835 2.835 0 0 1 1.056-1.168c.48-.32 1.088-.48 1.824-.48.822 0 1.472.219 1.952.656.491.437.736 1.099.736 1.984V173h-1.408v-5.68c0-.565-.149-.96-.448-1.184-.288-.235-.682-.352-1.184-.352Zm7.923 7.376a5.888 5.888 0 0 1-1.744-.256c-.544-.181-.986-.421-1.328-.72v-1.264c.331.32.774.576 1.328.768a5.345 5.345 0 0 0 1.728.288c1.302 0 1.952-.421 1.952-1.264 0-.245-.058-.443-.176-.592-.106-.16-.309-.293-.608-.4-.298-.117-.73-.229-1.296-.336-1.077-.213-1.829-.501-2.256-.864-.426-.373-.64-.901-.64-1.584 0-.757.294-1.344.88-1.76.587-.427 1.398-.64 2.432-.64.491 0 .971.053 1.44.16.48.096.87.229 1.168.4v1.264c-.618-.427-1.472-.64-2.56-.64-.672 0-1.168.096-1.488.288-.309.192-.464.491-.464.896 0 .213.048.389.144.528.096.139.288.261.576.368.288.107.72.219 1.296.336.736.149 1.318.331 1.744.544.438.203.747.464.928.784.192.32.288.725.288 1.216 0 .779-.293 1.387-.88 1.824-.586.437-1.408.656-2.464.656ZM29.344 190.528h1.504V202h-1.504v-11.472Zm7.916 4.256c-.64 0-1.163.149-1.568.448a3.269 3.269 0 0 0-.96 1.12V202h-1.408v-8.304h1.328l.048 1.488h.032a2.835 2.835 0 0 1 1.056-1.168c.48-.32 1.088-.48 1.824-.48.821 0 1.472.219 1.952.656.49.437.736 1.099.736 1.984V202h-1.408v-5.68c0-.565-.15-.96-.448-1.184-.288-.235-.683-.352-1.184-.352Zm5.267-1.088h1.232l.144 1.616a3.31 3.31 0 0 1 1.104-1.28c.48-.331 1.067-.496 1.76-.496.65 0 1.248.16 1.792.48.555.309 1.003.784 1.344 1.424.341.629.512 1.429.512 2.4 0 .971-.176 1.776-.528 2.416-.341.64-.795 1.12-1.36 1.44a3.685 3.685 0 0 1-1.824.464c-.63 0-1.179-.149-1.648-.448a3.21 3.21 0 0 1-1.12-1.232v4.352h-1.408v-11.136Zm6.432 4.144c0-1.003-.23-1.76-.688-2.272-.459-.523-1.05-.784-1.776-.784-.725 0-1.339.256-1.84.768-.49.501-.736 1.264-.736 2.288 0 1.035.245 1.803.736 2.304.501.501 1.115.752 1.84.752.725 0 1.317-.256 1.776-.768.459-.512.688-1.275.688-2.288Zm8.49 2.672c-.224.459-.57.848-1.04 1.168-.459.32-1.062.48-1.808.48-.768 0-1.392-.219-1.872-.656-.47-.437-.704-1.104-.704-2v-5.808h1.424v5.808c0 .544.15.912.448 1.104.298.192.666.288 1.104.288.618 0 1.114-.139 1.488-.416.373-.277.693-.656.96-1.136v-5.648h1.408V202h-1.248l-.128-1.488h-.032Zm3.047-5.616v-1.2h.992v-1.744h1.408v1.744h2.416v1.2h-2.416v4.992c0 .352.09.608.272.768.181.16.49.24.928.24.416 0 .794-.117 1.136-.352v1.28c-.171.107-.395.187-.672.24a3.689 3.689 0 0 1-.832.096c-.534 0-.966-.101-1.296-.304a1.815 1.815 0 0 1-.72-.784 2.356 2.356 0 0 1-.224-1.008v-5.168h-.992Zm12.628-.112c-.885 0-1.781.272-2.688.816v-1.264a5.092 5.092 0 0 1 1.36-.576 5.535 5.535 0 0 1 1.52-.224c1.046 0 1.84.219 2.384.656.544.437.816 1.104.816 2v4.464c0 .181.006.416.016.704.022.277.043.491.064.64h-1.28a7.266 7.266 0 0 1-.096-.624 9.515 9.515 0 0 1-.032-.72l-.016-.24a4.467 4.467 0 0 1-.528.8 2.664 2.664 0 0 1-.896.672c-.362.181-.816.272-1.36.272-.746 0-1.35-.213-1.808-.64-.458-.427-.688-1.029-.688-1.808 0-.907.32-1.573.96-2 .64-.427 1.542-.64 2.704-.64h1.552v-.688c0-.576-.15-.987-.448-1.232-.298-.245-.81-.368-1.536-.368Zm1.984 4.016v-.608H73.7c-.842 0-1.456.123-1.84.368-.373.245-.56.603-.56 1.072 0 .373.112.677.336.912.235.235.587.352 1.056.352.438 0 .81-.085 1.12-.256.31-.181.56-.395.752-.64a3.02 3.02 0 0 0 .416-.72c.086-.224.128-.384.128-.48Zm7.558-4.016c-.64 0-1.162.149-1.568.448a3.271 3.271 0 0 0-.96 1.12V202H78.73v-8.304h1.328l.048 1.488h.032a2.835 2.835 0 0 1 1.056-1.168c.48-.32 1.088-.48 1.824-.48.822 0 1.472.219 1.952.656.49.437.736 1.099.736 1.984V202h-1.408v-5.68c0-.565-.15-.96-.448-1.184-.288-.235-.682-.352-1.184-.352Zm4.675 3.056c0-.971.17-1.771.512-2.4.342-.64.795-1.115 1.36-1.424.576-.32 1.2-.48 1.872-.48.63 0 1.174.133 1.632.4a2.89 2.89 0 0 1 1.104 1.104v-4.512h1.408V202h-1.232l-.112-1.632a3.282 3.282 0 0 1-1.088 1.312c-.458.32-1.034.48-1.728.48-.661 0-1.28-.155-1.856-.464-.565-.32-1.018-.8-1.36-1.44-.341-.64-.512-1.445-.512-2.416Zm6.496 0c0-1.035-.245-1.803-.736-2.304-.49-.501-1.098-.752-1.824-.752-.725 0-1.322.261-1.792.784-.47.512-.704 1.269-.704 2.272 0 1.013.235 1.776.704 2.288.47.512 1.067.768 1.792.768.726 0 1.334-.251 1.824-.752s.736-1.269.736-2.304Zm10.301 4.32c-.757 0-1.44-.165-2.048-.496a3.712 3.712 0 0 1-1.424-1.472c-.352-.651-.528-1.435-.528-2.352 0-.917.176-1.696.528-2.336a3.606 3.606 0 0 1 1.424-1.456c.608-.341 1.291-.512 2.048-.512.768 0 1.456.171 2.064.512a3.575 3.575 0 0 1 1.44 1.456c.352.64.528 1.419.528 2.336 0 .917-.176 1.701-.528 2.352a3.678 3.678 0 0 1-1.44 1.472c-.608.331-1.296.496-2.064.496Zm0-1.264c.747 0 1.365-.245 1.856-.736.491-.501.736-1.275.736-2.32s-.245-1.813-.736-2.304c-.491-.501-1.109-.752-1.856-.752-.736 0-1.349.251-1.84.752-.48.491-.72 1.259-.72 2.304s.24 1.819.72 2.32c.491.491 1.104.736 1.84.736Zm11.076-.384c-.224.459-.57.848-1.04 1.168-.458.32-1.061.48-1.808.48-.768 0-1.392-.219-1.872-.656-.469-.437-.704-1.104-.704-2v-5.808h1.424v5.808c0 .544.15.912.448 1.104.299.192.667.288 1.104.288.619 0 1.115-.139 1.488-.416.374-.277.694-.656.96-1.136v-5.648h1.408V202h-1.248l-.128-1.488h-.032Zm3.047-5.616v-1.2h.992v-1.744h1.408v1.744h2.416v1.2h-2.416v4.992c0 .352.091.608.272.768.182.16.491.24.928.24.416 0 .795-.117 1.136-.352v1.28c-.17.107-.394.187-.672.24a3.683 3.683 0 0 1-.832.096c-.533 0-.965-.101-1.296-.304a1.823 1.823 0 0 1-.72-.784 2.36 2.36 0 0 1-.224-1.008v-5.168h-.992Zm6.61-1.2h1.232l.144 1.616c.266-.533.634-.96 1.104-1.28.48-.331 1.066-.496 1.76-.496.65 0 1.248.16 1.792.48.554.309 1.002.784 1.344 1.424.341.629.512 1.429.512 2.4 0 .971-.176 1.776-.528 2.416-.342.64-.795 1.12-1.36 1.44a3.687 3.687 0 0 1-1.824.464c-.63 0-1.179-.149-1.648-.448a3.203 3.203 0 0 1-1.12-1.232v4.352h-1.408v-11.136Zm6.432 4.144c0-1.003-.23-1.76-.688-2.272-.459-.523-1.051-.784-1.776-.784-.726 0-1.339.256-1.84.768-.491.501-.736 1.264-.736 2.288 0 1.035.245 1.803.736 2.304.501.501 1.114.752 1.84.752.725 0 1.317-.256 1.776-.768.458-.512.688-1.275.688-2.288Zm8.49 2.672c-.224.459-.571.848-1.04 1.168-.459.32-1.062.48-1.808.48-.768 0-1.392-.219-1.872-.656-.47-.437-.705-1.104-.705-2v-5.808h1.425v5.808c0 .544.149.912.448 1.104.298.192.666.288 1.104.288.618 0 1.114-.139 1.488-.416.373-.277.693-.656.96-1.136v-5.648h1.408V202h-1.248l-.128-1.488h-.032Zm3.046-5.616v-1.2h.992v-1.744h1.408v1.744h2.416v1.2h-2.416v4.992c0 .352.091.608.272.768.182.16.491.24.928.24.416 0 .795-.117 1.136-.352v1.28c-.17.107-.394.187-.672.24a3.683 3.683 0 0 1-.832.096c-.533 0-.965-.101-1.296-.304a1.823 1.823 0 0 1-.72-.784 2.36 2.36 0 0 1-.224-1.008v-5.168h-.992ZM28.56 216.84c0-.971.17-1.771.512-2.4.341-.64.795-1.115 1.36-1.424.576-.32 1.2-.48 1.872-.48.63 0 1.173.133 1.632.4.459.256.827.624 1.104 1.104v-4.512h1.408V221h-1.232l-.112-1.632a3.282 3.282 0 0 1-1.088 1.312c-.459.32-1.035.48-1.728.48-.661 0-1.28-.155-1.856-.464-.565-.32-1.019-.8-1.36-1.44-.341-.64-.512-1.445-.512-2.416Zm6.496 0c0-1.035-.245-1.803-.736-2.304-.49-.501-1.099-.752-1.824-.752-.725 0-1.323.261-1.792.784-.47.512-.704 1.269-.704 2.272 0 1.013.235 1.776.704 2.288.47.512 1.067.768 1.792.768.725 0 1.333-.251 1.824-.752.49-.501.736-1.269.736-2.304Zm6.506-3.056c-.886 0-1.782.272-2.688.816v-1.264a5.092 5.092 0 0 1 1.36-.576 5.535 5.535 0 0 1 1.52-.224c1.045 0 1.84.219 2.384.656.544.437.816 1.104.816 2v4.464c0 .181.005.416.016.704.021.277.042.491.064.64h-1.28a7.266 7.266 0 0 1-.096-.624 9.515 9.515 0 0 1-.032-.72l-.016-.24a4.467 4.467 0 0 1-.528.8 2.664 2.664 0 0 1-.896.672c-.363.181-.816.272-1.36.272-.747 0-1.35-.213-1.808-.64-.459-.427-.688-1.029-.688-1.808 0-.907.32-1.573.96-2 .64-.427 1.541-.64 2.704-.64h1.552v-.688c0-.576-.15-.987-.448-1.232-.299-.245-.81-.368-1.536-.368Zm1.984 4.016v-.608h-1.408c-.843 0-1.456.123-1.84.368-.374.245-.56.603-.56 1.072 0 .373.112.677.336.912.234.235.586.352 1.056.352.437 0 .81-.085 1.12-.256.31-.181.56-.395.752-.64a3.02 3.02 0 0 0 .416-.72c.085-.224.128-.384.128-.48Zm2.95-3.904v-1.2h.992v-1.744h1.408v1.744h2.416v1.2h-2.416v4.992c0 .352.09.608.272.768.181.16.49.24.928.24.416 0 .794-.117 1.136-.352v1.28c-.171.107-.395.187-.672.24a3.689 3.689 0 0 1-.832.096c-.534 0-.966-.101-1.296-.304a1.815 1.815 0 0 1-.72-.784 2.356 2.356 0 0 1-.224-1.008v-5.168h-.992Zm9.425-.112c-.885 0-1.781.272-2.688.816v-1.264a5.093 5.093 0 0 1 1.36-.576 5.536 5.536 0 0 1 1.52-.224c1.045 0 1.84.219 2.384.656.544.437.816 1.104.816 2v4.464c0 .181.005.416.016.704.021.277.043.491.064.64h-1.28a7.266 7.266 0 0 1-.096-.624 9.568 9.568 0 0 1-.032-.72l-.016-.24a4.467 4.467 0 0 1-.528.8 2.663 2.663 0 0 1-.896.672c-.363.181-.816.272-1.36.272-.747 0-1.35-.213-1.808-.64-.459-.427-.688-1.029-.688-1.808 0-.907.32-1.573.96-2 .64-.427 1.541-.64 2.704-.64h1.552v-.688c0-.576-.15-.987-.448-1.232-.299-.245-.81-.368-1.536-.368Zm1.984 4.016v-.608h-1.408c-.843 0-1.456.123-1.84.368-.373.245-.56.603-.56 1.072 0 .373.112.677.336.912.235.235.587.352 1.056.352.438 0 .81-.085 1.12-.256.31-.181.56-.395.752-.64.192-.256.33-.496.416-.72.085-.224.128-.384.128-.48Zm9.481 3.36c-.608 0-1.19-.085-1.744-.256-.544-.181-.986-.421-1.328-.72v-1.264c.33.32.774.576 1.328.768a5.34 5.34 0 0 0 1.728.288c1.301 0 1.952-.421 1.952-1.264 0-.245-.059-.443-.176-.592-.106-.16-.31-.293-.608-.4-.298-.117-.73-.229-1.296-.336-1.077-.213-1.83-.501-2.256-.864-.427-.373-.64-.901-.64-1.584 0-.757.293-1.344.88-1.76.587-.427 1.398-.64 2.432-.64.49 0 .97.053 1.44.16.48.096.87.229 1.168.4v1.264c-.619-.427-1.472-.64-2.56-.64-.672 0-1.168.096-1.488.288-.31.192-.464.491-.464.896 0 .213.048.389.144.528.096.139.288.261.576.368.288.107.72.219 1.296.336.736.149 1.318.331 1.744.544.438.203.747.464.928.784.192.32.288.725.288 1.216 0 .779-.293 1.387-.88 1.824-.587.437-1.408.656-2.464.656Zm5.079-8.464h1.231l.145 1.616a3.31 3.31 0 0 1 1.104-1.28c.48-.331 1.066-.496 1.76-.496.65 0 1.248.16 1.791.48.555.309 1.003.784 1.345 1.424.34.629.512 1.429.512 2.4 0 .971-.176 1.776-.528 2.416-.342.64-.795 1.12-1.36 1.44a3.685 3.685 0 0 1-1.825.464c-.629 0-1.178-.149-1.647-.448a3.21 3.21 0 0 1-1.12-1.232v4.352h-1.409v-11.136Zm6.431 4.144c0-1.003-.229-1.76-.688-2.272-.458-.523-1.05-.784-1.775-.784-.726 0-1.34.256-1.84.768-.491.501-.737 1.264-.737 2.288 0 1.035.246 1.803.737 2.304.5.501 1.114.752 1.84.752.725 0 1.317-.256 1.775-.768.46-.512.689-1.275.689-2.288Zm6.842 4.32c-1.386 0-2.448-.379-3.184-1.136-.725-.768-1.088-1.829-1.088-3.184 0-.907.17-1.68.512-2.32.342-.64.81-1.131 1.408-1.472.598-.341 1.27-.512 2.016-.512 1.27 0 2.203.421 2.8 1.264.598.832.79 1.973.576 3.424h-5.856c.118 1.781 1.099 2.672 2.944 2.672a4.902 4.902 0 0 0 2.8-.864v1.264c-.384.267-.832.48-1.344.64a5.64 5.64 0 0 1-1.584.224Zm-.368-7.376c-.608 0-1.13.187-1.568.56-.437.373-.714.939-.832 1.696h4.464c.032-.715-.133-1.269-.496-1.664-.362-.395-.885-.592-1.568-.592Zm8.757 7.376c-1.291 0-2.31-.379-3.056-1.136-.747-.768-1.12-1.829-1.12-3.184 0-1.355.378-2.411 1.136-3.168.757-.757 1.792-1.136 3.104-1.136.501 0 .97.059 1.408.176.437.107.789.267 1.056.48v1.264c-.726-.448-1.542-.672-2.448-.672-.96 0-1.67.256-2.128.768-.459.501-.688 1.264-.688 2.288 0 1.024.218 1.792.656 2.304.448.501 1.141.752 2.08.752a5.08 5.08 0 0 0 2.528-.656v1.264c-.694.437-1.536.656-2.528.656Zm4.964-9.68c-.288 0-.518-.085-.688-.256a.922.922 0 0 1-.256-.656c0-.256.085-.475.256-.656.17-.181.4-.272.688-.272.277 0 .496.091.656.272.16.181.24.4.24.656s-.08.475-.24.656c-.16.171-.379.256-.656.256Zm-.72 1.216h1.408V221H98.37v-8.304ZM102.57 221v-7.104h-1.008v-1.2h1.008v-.208c0-.981.261-1.744.784-2.288.523-.544 1.237-.816 2.144-.816.405 0 .757.048 1.056.144v1.28a1.861 1.861 0 0 0-.416-.112 3.307 3.307 0 0 0-.576-.048c-.491 0-.88.149-1.168.448-.277.299-.416.763-.416 1.392v.208h2.4v1.2h-2.4V221h-1.408Zm6.177-9.52c-.288 0-.517-.085-.688-.256a.92.92 0 0 1-.256-.656.92.92 0 0 1 .256-.656c.171-.181.4-.272.688-.272.277 0 .496.091.656.272.16.181.24.4.24.656s-.08.475-.24.656c-.16.171-.379.256-.656.256Zm-.72 1.216h1.408V221h-1.408v-8.304Zm7.287 8.464c-1.291 0-2.309-.379-3.056-1.136-.747-.768-1.12-1.829-1.12-3.184 0-1.355.379-2.411 1.136-3.168.757-.757 1.792-1.136 3.104-1.136.501 0 .971.059 1.408.176.437.107.789.267 1.056.48v1.264c-.725-.448-1.541-.672-2.448-.672-.96 0-1.669.256-2.128.768-.459.501-.688 1.264-.688 2.288 0 1.024.219 1.792.656 2.304.448.501 1.141.752 2.08.752a5.08 5.08 0 0 0 2.528-.656v1.264c-.693.437-1.536.656-2.528.656Zm7.06-7.376c-.885 0-1.781.272-2.688.816v-1.264a5.098 5.098 0 0 1 1.36-.576 5.541 5.541 0 0 1 1.52-.224c1.046 0 1.84.219 2.384.656.544.437.816 1.104.816 2v4.464c0 .181.006.416.016.704.022.277.043.491.064.64h-1.28a7.266 7.266 0 0 1-.096-.624 9.73 9.73 0 0 1-.032-.72l-.016-.24a4.467 4.467 0 0 1-.528.8 2.657 2.657 0 0 1-.896.672c-.362.181-.816.272-1.36.272-.746 0-1.349-.213-1.808-.64-.458-.427-.688-1.029-.688-1.808 0-.907.32-1.573.96-2 .64-.427 1.542-.64 2.704-.64h1.552v-.688c0-.576-.149-.987-.448-1.232-.298-.245-.81-.368-1.536-.368Zm1.984 4.016v-.608h-1.408c-.842 0-1.456.123-1.84.368-.373.245-.56.603-.56 1.072 0 .373.112.677.336.912.235.235.587.352 1.056.352.438 0 .811-.085 1.12-.256.31-.181.56-.395.752-.64.192-.256.331-.496.416-.72.086-.224.128-.384.128-.48Zm2.95-3.904v-1.2h.992v-1.744h1.408v1.744h2.416v1.2h-2.416v4.992c0 .352.091.608.272.768.181.16.491.24.928.24.416 0 .795-.117 1.136-.352v1.28a1.964 1.964 0 0 1-.672.24 3.69 3.69 0 0 1-.832.096c-.533 0-.965-.101-1.296-.304a1.81 1.81 0 0 1-.72-.784 2.36 2.36 0 0 1-.224-1.008v-5.168h-.992Zm7.33-2.416c-.288 0-.518-.085-.688-.256a.92.92 0 0 1-.256-.656.92.92 0 0 1 .256-.656c.17-.181.4-.272.688-.272.277 0 .496.091.656.272.16.181.24.4.24.656s-.08.475-.24.656c-.16.171-.379.256-.656.256Zm-.72 1.216h1.408V221h-1.408v-8.304Zm7.111 8.464c-.758 0-1.44-.165-2.048-.496a3.706 3.706 0 0 1-1.424-1.472c-.352-.651-.528-1.435-.528-2.352 0-.917.176-1.696.528-2.336.352-.64.826-1.125 1.424-1.456.608-.341 1.29-.512 2.048-.512.768 0 1.456.171 2.064.512a3.575 3.575 0 0 1 1.44 1.456c.352.64.528 1.419.528 2.336 0 .917-.176 1.701-.528 2.352a3.678 3.678 0 0 1-1.44 1.472c-.608.331-1.296.496-2.064.496Zm0-1.264c.746 0 1.365-.245 1.856-.736.49-.501.736-1.275.736-2.32s-.246-1.813-.736-2.304c-.491-.501-1.11-.752-1.856-.752-.736 0-1.35.251-1.84.752-.48.491-.72 1.259-.72 2.304s.24 1.819.72 2.32c.49.491 1.104.736 1.84.736Zm9.684-6.112c-.64 0-1.163.149-1.568.448a3.263 3.263 0 0 0-.96 1.12V221h-1.408v-8.304h1.328l.048 1.488h.032a2.835 2.835 0 0 1 1.056-1.168c.48-.32 1.088-.48 1.824-.48.821 0 1.472.219 1.952.656.491.437.736 1.099.736 1.984V221h-1.408v-5.68c0-.565-.149-.96-.448-1.184-.288-.235-.683-.352-1.184-.352Zm7.923 7.376a5.888 5.888 0 0 1-1.744-.256c-.544-.181-.987-.421-1.328-.72v-1.264c.331.32.773.576 1.328.768a5.336 5.336 0 0 0 1.728.288c1.301 0 1.952-.421 1.952-1.264 0-.245-.059-.443-.176-.592-.107-.16-.309-.293-.608-.4-.299-.117-.731-.229-1.296-.336-1.077-.213-1.829-.501-2.256-.864-.427-.373-.64-.901-.64-1.584 0-.757.293-1.344.88-1.76.587-.427 1.397-.64 2.432-.64.491 0 .971.053 1.44.16.48.096.869.229 1.168.4v1.264c-.619-.427-1.472-.64-2.56-.64-.672 0-1.168.096-1.488.288-.309.192-.464.491-.464.896 0 .213.048.389.144.528.096.139.288.261.576.368.288.107.72.219 1.296.336.736.149 1.317.331 1.744.544.437.203.747.464.928.784.192.32.288.725.288 1.216 0 .779-.293 1.387-.88 1.824-.587.437-1.408.656-2.464.656Z"/><rect width="221" height="232" x=".5" y="16.5" stroke="#1E2126" stroke-opacity=".08" rx="7.5"/><rect width="222" height="233" x="238" y="16" fill="#1E2126" fill-opacity=".04" rx="8"/><path fill="#1E2126" fill-rule="evenodd" d="M272 46h1c.733 0 1.163.002 1.479.027.16.014.238.03.265.037a.496.496 0 0 1 .192.192 1.8 1.8 0 0 1 .037.265c.025.316.027.746.027 1.479v1c0 .733-.002 1.163-.027 1.48a1.8 1.8 0 0 1-.037.264.496.496 0 0 1-.192.192 1.736 1.736 0 0 1-.265.037c-.316.025-.746.027-1.479.027h-1c-.733 0-1.163-.002-1.479-.027a1.736 1.736 0 0 1-.265-.037.496.496 0 0 1-.192-.192 1.8 1.8 0 0 1-.037-.265c-.025-.316-.027-.746-.027-1.479v-1c0-.733.002-1.163.027-1.48a1.8 1.8 0 0 1 .037-.264.496.496 0 0 1 .192-.192c.027-.007.105-.023.265-.037.316-.025.746-.027 1.479-.027Zm2.756.067h-.003.003Zm.177.177.001.003-.001-.003Zm0 4.512.001-.003-.001.003Zm-.177.177h-.003.003Zm-4.512 0h.003-.003Zm-.177-.177-.001-.003.001.003Zm0-4.512-.001.003.001-.003Zm.177-.177h.003-.003ZM268 48c0-1.4 0-2.1.272-2.635.24-.47.623-.853 1.093-1.093C269.9 44 270.6 44 272 44h1c1.4 0 2.1 0 2.635.273.47.24.853.622 1.093 1.092C277 45.9 277 46.6 277 48v1c0 1.4 0 2.1-.272 2.635-.24.47-.623.853-1.093 1.093C275.1 53 274.4 53 273 53h-1c-1.4 0-2.1 0-2.635-.273a2.505 2.505 0 0 1-1.093-1.092C268 51.1 268 50.4 268 49v-1Zm4 9h1c.733 0 1.163.002 1.479.027.16.014.238.03.265.037a.496.496 0 0 1 .192.192 1.8 1.8 0 0 1 .037.265c.025.316.027.746.027 1.479v1c0 .733-.002 1.163-.027 1.48a1.8 1.8 0 0 1-.037.264.496.496 0 0 1-.192.192 1.736 1.736 0 0 1-.265.037c-.316.025-.746.027-1.479.027h-1c-.733 0-1.163-.002-1.479-.027a1.736 1.736 0 0 1-.265-.037.496.496 0 0 1-.192-.192 1.8 1.8 0 0 1-.037-.265c-.025-.316-.027-.746-.027-1.479v-1c0-.733.002-1.163.027-1.48a1.8 1.8 0 0 1 .037-.264.496.496 0 0 1 .192-.192c.027-.007.105-.023.265-.037.316-.025.746-.027 1.479-.027Zm2.753.066.003.001h-.003Zm.18.178.001.003-.001-.003Zm-4.866 0-.001.003.001-.003Zm.177-.177h.003-.003ZM268 59c0-1.4 0-2.1.272-2.635.24-.47.623-.853 1.093-1.093C269.9 55 270.6 55 272 55h1c1.4 0 2.1 0 2.635.273.47.24.853.622 1.093 1.092C277 56.9 277 57.6 277 59v1c0 1.4 0 2.1-.272 2.635-.24.47-.623.853-1.093 1.093C275.1 64 274.4 64 273 64h-1c-1.4 0-2.1 0-2.635-.273a2.505 2.505 0 0 1-1.093-1.092C268 62.1 268 61.4 268 60v-1Zm16-13h-1c-.733 0-1.163.002-1.479.027-.16.014-.238.03-.265.037a.496.496 0 0 0-.192.192 1.8 1.8 0 0 0-.037.265c-.025.316-.027.746-.027 1.479v1c0 .733.002 1.163.027 1.48.014.16.03.237.037.264.045.08.111.147.192.192.027.007.105.023.265.037.316.025.746.027 1.479.027h1c.733 0 1.163-.002 1.479-.027.16-.014.238-.03.265-.037a.496.496 0 0 0 .192-.192 1.8 1.8 0 0 0 .037-.265c.025-.316.027-.746.027-1.479v-1c0-.733-.002-1.163-.027-1.48a1.8 1.8 0 0 0-.037-.264.496.496 0 0 0-.192-.192 1.736 1.736 0 0 0-.265-.037c-.316-.025-.746-.027-1.479-.027Zm-2.756 4.933h.003-.003Zm-.177-.177-.001-.003.001.003Zm0-4.512-.001.003.001-.003Zm.177-.177h.003-.003Zm-1.972-.702C279 45.9 279 46.6 279 48v1c0 1.4 0 2.1.272 2.635.24.47.623.853 1.093 1.093C280.9 53 281.6 53 283 53h1c1.4 0 2.1 0 2.635-.273.47-.24.853-.622 1.093-1.092C288 51.1 288 50.4 288 49v-1c0-1.4 0-2.1-.272-2.635a2.505 2.505 0 0 0-1.093-1.093C286.1 44 285.4 44 284 44h-1c-1.4 0-2.1 0-2.635.273-.47.24-.853.622-1.093 1.092ZM283 57h1c.733 0 1.163.002 1.479.027.16.014.238.03.265.037a.496.496 0 0 1 .192.192 1.8 1.8 0 0 1 .037.265c.025.316.027.746.027 1.479v1c0 .733-.002 1.163-.027 1.48a1.8 1.8 0 0 1-.037.264.496.496 0 0 1-.192.192 1.736 1.736 0 0 1-.265.037c-.316.025-.746.027-1.479.027h-1c-.733 0-1.163-.002-1.479-.027a1.736 1.736 0 0 1-.265-.037.496.496 0 0 1-.192-.192 1.8 1.8 0 0 1-.037-.265c-.025-.316-.027-.746-.027-1.479v-1c0-.733.002-1.163.027-1.48a1.8 1.8 0 0 1 .037-.264.496.496 0 0 1 .192-.192c.027-.007.105-.023.265-.037.316-.025.746-.027 1.479-.027Zm-1.934.247.001-.003v.001l-.001.002Zm.178-.18h.003-.003ZM279 59c0-1.4 0-2.1.272-2.635.24-.47.623-.853 1.093-1.093C280.9 55 281.6 55 283 55h1c1.4 0 2.1 0 2.635.273.47.24.853.622 1.093 1.092C288 56.9 288 57.6 288 59v1c0 1.4 0 2.1-.272 2.635-.24.47-.623.853-1.093 1.093C286.1 64 285.4 64 284 64h-1c-1.4 0-2.1 0-2.635-.273a2.505 2.505 0 0 1-1.093-1.092C279 62.1 279 61.4 279 60v-1Z" clip-rule="evenodd"/><path fill="#1E2126" d="M302.087 46.226h5.148c1.906 0 3.388.381 4.444 1.144 1.056.763 1.584 1.973 1.584 3.63 0 .91-.147 1.694-.44 2.354a4.207 4.207 0 0 1-1.254 1.628c-.528.425-1.174.74-1.936.946-.748.19-1.584.286-2.508.286h-2.376V62h-2.662V46.226Zm2.662 2.31v5.39h2.376c1.07 0 1.914-.213 2.53-.638.616-.425.924-1.159.924-2.2 0-.895-.286-1.54-.858-1.936-.558-.41-1.386-.616-2.486-.616h-2.486Zm15.258 13.684a6.22 6.22 0 0 1-2.244-.396 5.255 5.255 0 0 1-1.804-1.144 5.657 5.657 0 0 1-1.188-1.87c-.279-.733-.418-1.577-.418-2.53 0-.953.139-1.797.418-2.53.293-.733.689-1.35 1.188-1.848a4.855 4.855 0 0 1 1.804-1.144 6.22 6.22 0 0 1 2.244-.396 6.22 6.22 0 0 1 2.244.396c.689.25 1.291.63 1.804 1.144a5.259 5.259 0 0 1 1.21 1.848c.293.733.44 1.577.44 2.53 0 .953-.147 1.797-.44 2.53a5.49 5.49 0 0 1-1.21 1.87 5.255 5.255 0 0 1-1.804 1.144 6.22 6.22 0 0 1-2.244.396Zm0-2.134c.88 0 1.606-.308 2.178-.924.587-.616.88-1.577.88-2.882 0-1.29-.293-2.244-.88-2.86-.572-.63-1.298-.946-2.178-.946-.865 0-1.591.315-2.178.946-.572.616-.858 1.57-.858 2.86 0 1.305.286 2.266.858 2.882.587.616 1.313.924 2.178.924Zm12.783 2.134a6.22 6.22 0 0 1-2.244-.396 5.255 5.255 0 0 1-1.804-1.144 5.657 5.657 0 0 1-1.188-1.87c-.279-.733-.418-1.577-.418-2.53 0-.953.139-1.797.418-2.53.293-.733.689-1.35 1.188-1.848a4.855 4.855 0 0 1 1.804-1.144 6.22 6.22 0 0 1 2.244-.396 6.22 6.22 0 0 1 2.244.396c.689.25 1.291.63 1.804 1.144a5.259 5.259 0 0 1 1.21 1.848c.293.733.44 1.577.44 2.53 0 .953-.147 1.797-.44 2.53a5.49 5.49 0 0 1-1.21 1.87 5.255 5.255 0 0 1-1.804 1.144 6.22 6.22 0 0 1-2.244.396Zm0-2.134c.88 0 1.606-.308 2.178-.924.587-.616.88-1.577.88-2.882 0-1.29-.293-2.244-.88-2.86-.572-.63-1.298-.946-2.178-.946-.865 0-1.591.315-2.178.946-.572.616-.858 1.57-.858 2.86 0 1.305.286 2.266.858 2.882.587.616 1.313.924 2.178.924Zm10.385-13.86V62h-2.552V46.226h2.552Z"/><path stroke="#1E2126" stroke-linecap="round" stroke-linejoin="round" stroke-miterlimit="79.84" stroke-opacity=".12" d="M266 84h166"/><path fill="#1E2126" d="M267.344 103.528h3.664c1.301 0 2.309.272 3.024.816.725.533 1.088 1.371 1.088 2.512 0 .864-.181 1.568-.544 2.112-.352.544-.848.944-1.488 1.2-.629.245-1.365.368-2.208.368h-2.032V115h-1.504v-11.472Zm3.536 5.648c.811 0 1.467-.176 1.968-.528.501-.352.752-.944.752-1.776 0-.693-.224-1.195-.672-1.504-.448-.309-1.088-.464-1.92-.464h-2.16v4.272h2.032Zm10.072-1.072c-.662.053-1.227.219-1.696.496a2.49 2.49 0 0 0-1.008 1.12V115h-1.408v-8.304h1.232l.144 1.808h.032a3.553 3.553 0 0 1 1.088-1.344 3.41 3.41 0 0 1 1.616-.624v1.568Zm2.436-2.624c-.288 0-.518-.085-.688-.256a.92.92 0 0 1-.256-.656.92.92 0 0 1 .256-.656c.17-.181.4-.272.688-.272.277 0 .496.091.656.272.16.181.24.4.24.656s-.08.475-.24.656c-.16.171-.379.256-.656.256Zm-.72 1.216h1.408V115h-1.408v-8.304Zm7.287 8.464c-1.291 0-2.31-.379-3.056-1.136-.747-.768-1.12-1.829-1.12-3.184 0-1.355.378-2.411 1.136-3.168.757-.757 1.792-1.136 3.104-1.136.501 0 .97.059 1.408.176.437.107.789.267 1.056.48v1.264c-.726-.448-1.542-.672-2.448-.672-.96 0-1.67.256-2.128.768-.459.501-.688 1.264-.688 2.288 0 1.024.218 1.792.656 2.304.448.501 1.141.752 2.08.752.906 0 1.749-.219 2.528-.656v1.264c-.694.437-1.536.656-2.528.656Zm7.924 0c-1.387 0-2.448-.379-3.184-1.136-.725-.768-1.088-1.829-1.088-3.184 0-.907.171-1.68.512-2.32a3.604 3.604 0 0 1 1.408-1.472c.597-.341 1.269-.512 2.016-.512 1.269 0 2.203.421 2.8 1.264.597.832.789 1.973.576 3.424h-5.856c.117 1.781 1.099 2.672 2.944 2.672a4.902 4.902 0 0 0 2.8-.864v1.264c-.384.267-.832.48-1.344.64a5.64 5.64 0 0 1-1.584.224Zm-.368-7.376c-.608 0-1.131.187-1.568.56-.437.373-.715.939-.832 1.696h4.464c.032-.715-.133-1.269-.496-1.664s-.885-.592-1.568-.592ZM266.48 133.92v-1.392h8.592v1.392h-3.536V144h-1.52v-10.08h-3.536Zm12.611 10.24c-.757 0-1.44-.165-2.048-.496a3.712 3.712 0 0 1-1.424-1.472c-.352-.651-.528-1.435-.528-2.352 0-.917.176-1.696.528-2.336a3.606 3.606 0 0 1 1.424-1.456c.608-.341 1.291-.512 2.048-.512.768 0 1.456.171 2.064.512a3.575 3.575 0 0 1 1.44 1.456c.352.64.528 1.419.528 2.336 0 .917-.176 1.701-.528 2.352a3.678 3.678 0 0 1-1.44 1.472c-.608.331-1.296.496-2.064.496Zm0-1.264c.747 0 1.366-.245 1.856-.736.491-.501.736-1.275.736-2.32s-.245-1.813-.736-2.304c-.49-.501-1.109-.752-1.856-.752-.736 0-1.349.251-1.84.752-.48.491-.72 1.259-.72 2.304s.24 1.819.72 2.32c.491.491 1.104.736 1.84.736Zm5.749-10.368h1.408V144h-1.408v-11.472Zm7.111 11.632c-.758 0-1.44-.165-2.048-.496a3.706 3.706 0 0 1-1.424-1.472c-.352-.651-.528-1.435-.528-2.352 0-.917.176-1.696.528-2.336.352-.64.826-1.125 1.424-1.456.608-.341 1.29-.512 2.048-.512.768 0 1.456.171 2.064.512a3.575 3.575 0 0 1 1.44 1.456c.352.64.528 1.419.528 2.336 0 .917-.176 1.701-.528 2.352a3.678 3.678 0 0 1-1.44 1.472c-.608.331-1.296.496-2.064.496Zm0-1.264c.746 0 1.365-.245 1.856-.736.49-.501.736-1.275.736-2.32s-.246-1.813-.736-2.304c-.491-.501-1.11-.752-1.856-.752-.736 0-1.35.251-1.84.752-.48.491-.72 1.259-.72 2.304s.24 1.819.72 2.32c.49.491 1.104.736 1.84.736ZM304.483 144h-1.712l-2.928-3.536h-.736V144h-1.408v-11.472h1.408v6.736h.8l2.912-3.568h1.6l-3.408 4.096 3.472 4.208Zm4.599.16c-1.387 0-2.448-.379-3.184-1.136-.725-.768-1.088-1.829-1.088-3.184 0-.907.171-1.68.512-2.32a3.604 3.604 0 0 1 1.408-1.472c.597-.341 1.269-.512 2.016-.512 1.269 0 2.203.421 2.8 1.264.597.832.789 1.973.576 3.424h-5.856c.117 1.781 1.099 2.672 2.944 2.672a4.902 4.902 0 0 0 2.8-.864v1.264c-.384.267-.832.48-1.344.64a5.64 5.64 0 0 1-1.584.224Zm-.368-7.376c-.608 0-1.131.187-1.568.56-.437.373-.715.939-.832 1.696h4.464c.032-.715-.133-1.269-.496-1.664s-.885-.592-1.568-.592Zm9.284.32c-.661.053-1.226.219-1.696.496a2.5 2.5 0 0 0-1.008 1.12V144h-1.408v-8.304h1.232l.144 1.808h.032a3.572 3.572 0 0 1 1.088-1.344 3.413 3.413 0 0 1 1.616-.624v1.568Zm7.576 7.056c-.608 0-1.19-.085-1.744-.256-.544-.181-.987-.421-1.328-.72v-1.264c.33.32.773.576 1.328.768a5.336 5.336 0 0 0 1.728.288c1.301 0 1.952-.421 1.952-1.264 0-.245-.059-.443-.176-.592-.107-.16-.31-.293-.608-.4-.299-.117-.731-.229-1.296-.336-1.078-.213-1.83-.501-2.256-.864-.427-.373-.64-.901-.64-1.584 0-.757.293-1.344.88-1.76.586-.427 1.397-.64 2.432-.64.49 0 .97.053 1.44.16.48.096.869.229 1.168.4v1.264c-.619-.427-1.472-.64-2.56-.64-.672 0-1.168.096-1.488.288-.31.192-.464.491-.464.896 0 .213.048.389.144.528.096.139.288.261.576.368.288.107.72.219 1.296.336.736.149 1.317.331 1.744.544.437.203.746.464.928.784.192.32.288.725.288 1.216 0 .779-.294 1.387-.88 1.824-.587.437-1.408.656-2.464.656Zm8.758 0c-1.387 0-2.448-.379-3.184-1.136-.725-.768-1.088-1.829-1.088-3.184 0-.907.171-1.68.512-2.32a3.604 3.604 0 0 1 1.408-1.472c.597-.341 1.269-.512 2.016-.512 1.269 0 2.203.421 2.8 1.264.597.832.789 1.973.576 3.424h-5.856c.117 1.781 1.099 2.672 2.944 2.672a4.902 4.902 0 0 0 2.8-.864v1.264c-.384.267-.832.48-1.344.64a5.64 5.64 0 0 1-1.584.224Zm-.368-7.376c-.608 0-1.131.187-1.568.56-.437.373-.715.939-.832 1.696h4.464c.032-.715-.133-1.269-.496-1.664s-.885-.592-1.568-.592Zm5.172-4.256h1.408V144h-1.408v-11.472Zm7.384 11.632c-1.387 0-2.448-.379-3.184-1.136-.726-.768-1.088-1.829-1.088-3.184 0-.907.17-1.68.512-2.32.341-.64.81-1.131 1.408-1.472.597-.341 1.269-.512 2.016-.512 1.269 0 2.202.421 2.8 1.264.597.832.789 1.973.576 3.424h-5.856c.117 1.781 1.098 2.672 2.944 2.672a4.904 4.904 0 0 0 2.8-.864v1.264c-.384.267-.832.48-1.344.64a5.64 5.64 0 0 1-1.584.224Zm-.368-7.376c-.608 0-1.131.187-1.568.56-.438.373-.715.939-.832 1.696h4.464c.032-.715-.134-1.269-.496-1.664-.363-.395-.886-.592-1.568-.592Zm8.756 7.376c-1.291 0-2.309-.379-3.056-1.136-.747-.768-1.12-1.829-1.12-3.184 0-1.355.379-2.411 1.136-3.168.757-.757 1.792-1.136 3.104-1.136.501 0 .971.059 1.408.176.437.107.789.267 1.056.48v1.264c-.725-.448-1.541-.672-2.448-.672-.96 0-1.669.256-2.128.768-.459.501-.688 1.264-.688 2.288 0 1.024.219 1.792.656 2.304.448.501 1.141.752 2.08.752a5.08 5.08 0 0 0 2.528-.656v1.264c-.693.437-1.536.656-2.528.656Zm3.65-7.264v-1.2h.992v-1.744h1.408v1.744h2.416v1.2h-2.416v4.992c0 .352.091.608.272.768.181.16.491.24.928.24.416 0 .795-.117 1.136-.352v1.28a1.964 1.964 0 0 1-.672.24 3.69 3.69 0 0 1-.832.096c-.533 0-.965-.101-1.296-.304a1.81 1.81 0 0 1-.72-.784 2.36 2.36 0 0 1-.224-1.008v-5.168h-.992Zm7.33-2.416c-.288 0-.518-.085-.688-.256a.92.92 0 0 1-.256-.656.92.92 0 0 1 .256-.656c.17-.181.4-.272.688-.272.277 0 .496.091.656.272.16.181.24.4.24.656s-.08.475-.24.656c-.16.171-.379.256-.656.256Zm-.72 1.216h1.408V144h-1.408v-8.304Zm7.111 8.464c-.758 0-1.44-.165-2.048-.496a3.706 3.706 0 0 1-1.424-1.472c-.352-.651-.528-1.435-.528-2.352 0-.917.176-1.696.528-2.336.352-.64.826-1.125 1.424-1.456.608-.341 1.29-.512 2.048-.512.768 0 1.456.171 2.064.512a3.575 3.575 0 0 1 1.44 1.456c.352.64.528 1.419.528 2.336 0 .917-.176 1.701-.528 2.352a3.678 3.678 0 0 1-1.44 1.472c-.608.331-1.296.496-2.064.496Zm0-1.264c.746 0 1.365-.245 1.856-.736.49-.501.736-1.275.736-2.32s-.246-1.813-.736-2.304c-.491-.501-1.11-.752-1.856-.752-.736 0-1.35.251-1.84.752-.48.491-.72 1.259-.72 2.304s.24 1.819.72 2.32c.49.491 1.104.736 1.84.736Zm9.684-6.112c-.64 0-1.163.149-1.568.448a3.263 3.263 0 0 0-.96 1.12V144h-1.408v-8.304h1.328l.048 1.488h.032a2.835 2.835 0 0 1 1.056-1.168c.48-.32 1.088-.48 1.824-.48.821 0 1.472.219 1.952.656.491.437.736 1.099.736 1.984V144h-1.408v-5.68c0-.565-.149-.96-.448-1.184-.288-.235-.683-.352-1.184-.352ZM272.16 173.16c-1.024 0-1.952-.229-2.784-.688-.832-.459-1.493-1.125-1.984-2-.48-.885-.72-1.968-.72-3.248 0-1.28.24-2.352.72-3.216.491-.875 1.152-1.531 1.984-1.968.832-.437 1.76-.656 2.784-.656 1.045 0 1.979.224 2.8.672.832.437 1.488 1.088 1.968 1.952.48.864.72 1.941.72 3.232 0 1.269-.24 2.347-.72 3.232-.48.875-1.136 1.541-1.968 2-.821.459-1.755.688-2.8.688Zm0-1.36c.736 0 1.397-.149 1.984-.448.587-.299 1.045-.779 1.376-1.44.341-.672.512-1.552.512-2.64 0-1.099-.171-1.979-.512-2.64-.331-.661-.789-1.141-1.376-1.44-.587-.299-1.248-.448-1.984-.448s-1.397.149-1.984.448c-.576.299-1.035.779-1.376 1.44-.341.661-.512 1.541-.512 2.64 0 1.088.171 1.968.512 2.64.341.661.8 1.141 1.376 1.44.587.299 1.248.448 1.984.448Zm6.469-7.104h1.52l2.528 7.552 2.512-7.552h1.408L283.749 173h-2.272l-2.848-8.304Zm12.719 8.464c-1.387 0-2.448-.379-3.184-1.136-.726-.768-1.088-1.829-1.088-3.184 0-.907.17-1.68.512-2.32.341-.64.81-1.131 1.408-1.472.597-.341 1.269-.512 2.016-.512 1.269 0 2.202.421 2.8 1.264.597.832.789 1.973.576 3.424h-5.856c.117 1.781 1.098 2.672 2.944 2.672a4.904 4.904 0 0 0 2.8-.864v1.264c-.384.267-.832.48-1.344.64a5.64 5.64 0 0 1-1.584.224Zm-.368-7.376c-.608 0-1.131.187-1.568.56-.438.373-.715.939-.832 1.696h4.464c.032-.715-.134-1.269-.496-1.664-.363-.395-.886-.592-1.568-.592Zm9.284.32c-.661.053-1.227.219-1.696.496a2.49 2.49 0 0 0-1.008 1.12V173h-1.408v-8.304h1.232l.144 1.808h.032a3.563 3.563 0 0 1 1.088-1.344 3.41 3.41 0 0 1 1.616-.624v1.568Zm1.56-4.576h1.408V173h-1.408v-11.472Zm6.519 4.256c-.885 0-1.781.272-2.688.816v-1.264a5.098 5.098 0 0 1 1.36-.576 5.535 5.535 0 0 1 1.52-.224c1.045 0 1.84.219 2.384.656.544.437.816 1.104.816 2v4.464c0 .181.005.416.016.704.021.277.043.491.064.64h-1.28a7.266 7.266 0 0 1-.096-.624 9.73 9.73 0 0 1-.032-.72l-.016-.24a4.467 4.467 0 0 1-.528.8 2.667 2.667 0 0 1-.896.672c-.363.181-.816.272-1.36.272-.747 0-1.349-.213-1.808-.64-.459-.427-.688-1.029-.688-1.808 0-.907.32-1.573.96-2 .64-.427 1.541-.64 2.704-.64h1.552v-.688c0-.576-.149-.987-.448-1.232-.299-.245-.811-.368-1.536-.368Zm1.984 4.016v-.608h-1.408c-.843 0-1.456.123-1.84.368-.373.245-.56.603-.56 1.072 0 .373.112.677.336.912.235.235.587.352 1.056.352.437 0 .811-.085 1.12-.256a2.63 2.63 0 0 0 .752-.64c.192-.256.331-.496.416-.72.085-.224.128-.384.128-.48Zm3.622-5.104h1.232l.144 1.616c.267-.533.635-.96 1.104-1.28.48-.331 1.067-.496 1.76-.496.651 0 1.248.16 1.792.48.555.309 1.003.784 1.344 1.424.341.629.512 1.429.512 2.4 0 .971-.176 1.776-.528 2.416-.341.64-.795 1.12-1.36 1.44a3.687 3.687 0 0 1-1.824.464c-.629 0-1.179-.149-1.648-.448a3.21 3.21 0 0 1-1.12-1.232v4.352h-1.408v-11.136Zm6.432 4.144c0-1.003-.229-1.76-.688-2.272-.459-.523-1.051-.784-1.776-.784-.725 0-1.339.256-1.84.768-.491.501-.736 1.264-.736 2.288 0 1.035.245 1.803.736 2.304.501.501 1.115.752 1.84.752.725 0 1.317-.256 1.776-.768.459-.512.688-1.275.688-2.288Zm-50.221 33.048a6.138 6.138 0 0 1-1.808-1.12c-.523-.469-.933-1.067-1.232-1.792-.299-.736-.448-1.621-.448-2.656 0-1.28.24-2.357.72-3.232.48-.885 1.131-1.557 1.952-2.016.832-.459 1.765-.688 2.8-.688s1.963.219 2.784.656c.832.437 1.493 1.093 1.984 1.968.491.864.736 1.936.736 3.216 0 .917-.133 1.755-.4 2.512a4.664 4.664 0 0 1-1.312 1.952c-.608.533-1.419.928-2.432 1.184.629.192 1.296.363 2 .512a25.23 25.23 0 0 0 2.288.368l-.544 1.408a31.571 31.571 0 0 1-2.976-.752 30.244 30.244 0 0 1-2.272-.8 84.885 84.885 0 0 0-1.84-.72Zm5.872-5.616c0-1.099-.171-1.979-.512-2.64-.331-.661-.789-1.141-1.376-1.44-.587-.299-1.248-.448-1.984-.448s-1.397.149-1.984.448c-.576.299-1.035.779-1.376 1.44-.341.661-.512 1.541-.512 2.64 0 1.088.171 1.968.512 2.64.341.661.8 1.141 1.376 1.44.587.299 1.248.448 1.984.448s1.397-.149 1.984-.448c.587-.299 1.045-.779 1.376-1.44.341-.672.512-1.552.512-2.64Zm8.761 4.24c-.224.459-.571.848-1.04 1.168-.459.32-1.062.48-1.808.48-.768 0-1.392-.219-1.872-.656-.47-.437-.705-1.104-.705-2v-5.808h1.425v5.808c0 .544.149.912.448 1.104.298.192.666.288 1.104.288.618 0 1.114-.139 1.488-.416.373-.277.693-.656.96-1.136v-5.648h1.408V202h-1.248l-.128-1.488h-.032Zm6.534-5.728c-.885 0-1.781.272-2.688.816v-1.264a5.098 5.098 0 0 1 1.36-.576 5.541 5.541 0 0 1 1.52-.224c1.046 0 1.84.219 2.384.656.544.437.816 1.104.816 2v4.464c0 .181.006.416.016.704.022.277.043.491.064.64h-1.28a7.266 7.266 0 0 1-.096-.624 9.73 9.73 0 0 1-.032-.72l-.016-.24a4.467 4.467 0 0 1-.528.8 2.657 2.657 0 0 1-.896.672c-.362.181-.816.272-1.36.272-.746 0-1.349-.213-1.808-.64-.458-.427-.688-1.029-.688-1.808 0-.907.32-1.573.96-2 .64-.427 1.542-.64 2.704-.64h1.552v-.688c0-.576-.149-.987-.448-1.232-.298-.245-.81-.368-1.536-.368Zm1.984 4.016v-.608h-1.408c-.842 0-1.456.123-1.84.368-.373.245-.56.603-.56 1.072 0 .373.112.677.336.912.235.235.587.352 1.056.352.438 0 .811-.085 1.12-.256.31-.181.56-.395.752-.64.192-.256.331-.496.416-.72.086-.224.128-.384.128-.48Zm3.622-8.272h1.408V202h-1.408v-11.472Zm4.423 1.952c-.288 0-.517-.085-.688-.256a.925.925 0 0 1-.256-.656c0-.256.086-.475.256-.656.171-.181.4-.272.688-.272.278 0 .496.091.656.272.16.181.24.4.24.656s-.08.475-.24.656c-.16.171-.378.256-.656.256Zm-.72 1.216h1.408V202h-1.408v-8.304Zm3.032 1.2v-1.2h.992v-1.744h1.408v1.744h2.416v1.2h-2.416v4.992c0 .352.09.608.272.768.181.16.49.24.928.24a1.96 1.96 0 0 0 1.136-.352v1.28a1.964 1.964 0 0 1-.672.24 3.696 3.696 0 0 1-.832.096c-.534 0-.966-.101-1.296-.304a1.81 1.81 0 0 1-.72-.784 2.346 2.346 0 0 1-.224-1.008v-5.168h-.992Zm7.407 10.096c-.437 0-.8-.059-1.088-.176v-1.36c.213.181.56.272 1.04.272.373 0 .688-.091.944-.272.267-.171.523-.469.768-.896l-3.376-8.864h1.552l2.64 7.008 2.624-7.008h1.36l-3.104 8.208c-.427 1.099-.901 1.888-1.424 2.368-.523.48-1.168.72-1.936.72Zm14.567-2.832c-1.29 0-2.309-.379-3.056-1.136-.746-.768-1.12-1.829-1.12-3.184 0-1.355.379-2.411 1.136-3.168.758-.757 1.792-1.136 3.104-1.136.502 0 .971.059 1.408.176.438.107.79.267 1.056.48v1.264c-.725-.448-1.541-.672-2.448-.672-.96 0-1.669.256-2.128.768-.458.501-.688 1.264-.688 2.288 0 1.024.219 1.792.656 2.304.448.501 1.142.752 2.08.752.907 0 1.75-.219 2.528-.656v1.264c-.693.437-1.536.656-2.528.656Zm7.652 0c-.757 0-1.44-.165-2.048-.496a3.712 3.712 0 0 1-1.424-1.472c-.352-.651-.528-1.435-.528-2.352 0-.917.176-1.696.528-2.336a3.606 3.606 0 0 1 1.424-1.456c.608-.341 1.291-.512 2.048-.512.768 0 1.456.171 2.064.512a3.575 3.575 0 0 1 1.44 1.456c.352.64.528 1.419.528 2.336 0 .917-.176 1.701-.528 2.352a3.678 3.678 0 0 1-1.44 1.472c-.608.331-1.296.496-2.064.496Zm0-1.264c.747 0 1.366-.245 1.856-.736.491-.501.736-1.275.736-2.32s-.245-1.813-.736-2.304c-.49-.501-1.109-.752-1.856-.752-.736 0-1.349.251-1.84.752-.48.491-.72 1.259-.72 2.304s.24 1.819.72 2.32c.491.491 1.104.736 1.84.736Zm9.685-6.112c-.64 0-1.163.149-1.568.448a3.263 3.263 0 0 0-.96 1.12V202h-1.408v-8.304h1.328l.048 1.488h.032a2.835 2.835 0 0 1 1.056-1.168c.48-.32 1.088-.48 1.824-.48.821 0 1.472.219 1.952.656.49.437.736 1.099.736 1.984V202h-1.408v-5.68c0-.565-.15-.96-.448-1.184-.288-.235-.683-.352-1.184-.352Zm4.595.112v-1.2h.992v-1.744h1.408v1.744h2.416v1.2h-2.416v4.992c0 .352.09.608.272.768.181.16.49.24.928.24a1.96 1.96 0 0 0 1.136-.352v1.28a1.964 1.964 0 0 1-.672.24 3.696 3.696 0 0 1-.832.096c-.534 0-.966-.101-1.296-.304a1.81 1.81 0 0 1-.72-.784 2.346 2.346 0 0 1-.224-1.008v-5.168h-.992Zm10.721.208c-.661.053-1.226.219-1.696.496a2.5 2.5 0 0 0-1.008 1.12V202h-1.408v-8.304h1.232l.144 1.808h.032a3.572 3.572 0 0 1 1.088-1.344 3.413 3.413 0 0 1 1.616-.624v1.568Zm4.718 7.056c-.757 0-1.44-.165-2.048-.496a3.712 3.712 0 0 1-1.424-1.472c-.352-.651-.528-1.435-.528-2.352 0-.917.176-1.696.528-2.336a3.606 3.606 0 0 1 1.424-1.456c.608-.341 1.291-.512 2.048-.512.768 0 1.456.171 2.064.512a3.575 3.575 0 0 1 1.44 1.456c.352.64.528 1.419.528 2.336 0 .917-.176 1.701-.528 2.352a3.678 3.678 0 0 1-1.44 1.472c-.608.331-1.296.496-2.064.496Zm0-1.264c.747 0 1.365-.245 1.856-.736.491-.501.736-1.275.736-2.32s-.245-1.813-.736-2.304c-.491-.501-1.109-.752-1.856-.752-.736 0-1.349.251-1.84.752-.48.491-.72 1.259-.72 2.304s.24 1.819.72 2.32c.491.491 1.104.736 1.84.736Zm5.748-10.368h1.408V202h-1.408v-11.472Z"/><rect width="221" height="232" x="238.5" y="16.5" stroke="#1E2126" stroke-opacity=".08" rx="7.5"/><rect width="222" height="233" x="476" y="16" fill="#1E2126" fill-opacity=".04" rx="8"/><path fill="#1E2126" fill-rule="evenodd" d="M525 52.357V55.643c0 1.084 0 1.958-.058 2.666-.059.729-.185 1.369-.487 1.961a4.996 4.996 0 0 1-2.185 2.185c-.592.302-1.233.428-1.961.487-.708.058-1.582.058-2.666.058H514.357c-1.084 0-1.958 0-2.666-.058-.728-.06-1.369-.185-1.961-.487a4.996 4.996 0 0 1-2.185-2.185c-.302-.592-.428-1.233-.487-1.961C507 57.6 507 56.727 507 55.643V52.357c0-1.084 0-1.958.058-2.666.059-.729.185-1.369.487-1.961a4.996 4.996 0 0 1 2.185-2.185c.592-.302 1.233-.428 1.961-.487.708-.058 1.582-.058 2.666-.058H517.643c1.084 0 1.958 0 2.666.058.728.06 1.369.185 1.961.487a4.996 4.996 0 0 1 2.185 2.185c.302.592.428 1.233.487 1.961.058.708.058 1.582.058 2.666Zm-2.051-2.503c-.05-.605-.142-.953-.276-1.216a3.004 3.004 0 0 0-1.311-1.311c-.263-.134-.611-.226-1.216-.276-.617-.05-1.409-.051-2.546-.051h-3.2c-1.137 0-1.929 0-2.546.051-.605.05-.953.142-1.216.276a3.004 3.004 0 0 0-1.311 1.311c-.134.263-.226.611-.276 1.216-.05.617-.051 1.41-.051 2.546v3.2c0 1.137.001 1.929.051 2.546.05.605.142.953.276 1.216a3.004 3.004 0 0 0 1.311 1.311c.263.134.611.226 1.216.276.617.05 1.409.051 2.546.051h3.2c1.137 0 1.929 0 2.546-.051.605-.05.953-.142 1.216-.276a3.004 3.004 0 0 0 1.311-1.311c.134-.263.226-.611.276-1.216.05-.617.051-1.41.051-2.546v-3.2c0-1.137-.001-1.929-.051-2.546Z" clip-rule="evenodd"/><path fill="#1E2126" d="M546.116 48.536V62h-2.684V48.536h-4.796v-2.31h12.254v2.31h-4.774Zm11.903 11.462a3.877 3.877 0 0 1-.484.792 3.42 3.42 0 0 1-.726.726 3.634 3.634 0 0 1-1.012.506c-.396.132-.858.198-1.386.198-.499 0-.961-.073-1.386-.22a3.09 3.09 0 0 1-1.122-.616 3.17 3.17 0 0 1-.748-1.034 3.769 3.769 0 0 1-.264-1.452c0-1.247.462-2.178 1.386-2.794.924-.63 2.229-.946 3.916-.946h1.738v-.704c0-.748-.191-1.261-.572-1.54-.382-.293-1.012-.44-1.892-.44-.748 0-1.452.11-2.112.33a9.245 9.245 0 0 0-1.716.726v-2.134c.454-.25 1.056-.484 1.804-.704a8.624 8.624 0 0 1 2.442-.33c1.466 0 2.596.308 3.388.924.806.601 1.21 1.57 1.21 2.904V60.614c.014.161.022.33.022.506.014.176.029.345.044.506.014.147.029.271.044.374h-2.354a10.046 10.046 0 0 1-.132-.858 29.52 29.52 0 0 1-.066-.99l-.022-.154Zm-2.904.242c.542 0 .99-.11 1.342-.33.366-.235.66-.499.88-.792.22-.308.374-.609.462-.902.088-.293.132-.499.132-.616v-.77h-1.584c-1.012 0-1.753.161-2.222.484-.47.308-.704.748-.704 1.32 0 .499.139.895.418 1.188.293.279.718.418 1.276.418Zm11.883 1.98a7.319 7.319 0 0 1-1.562-.154 7.531 7.531 0 0 1-1.21-.33 5.801 5.801 0 0 1-.902-.418 6.039 6.039 0 0 1-.572-.396v-2.024c.146.132.344.279.594.44.264.147.564.293.902.44a7.54 7.54 0 0 0 2.662.462c.806 0 1.393-.117 1.76-.352.381-.25.572-.609.572-1.078 0-.308-.074-.55-.22-.726a1.502 1.502 0 0 0-.594-.418 3.517 3.517 0 0 0-.88-.22c-.323-.059-.66-.125-1.012-.198-.455-.088-.91-.198-1.364-.33a4.88 4.88 0 0 1-1.21-.594 3.101 3.101 0 0 1-.88-.968c-.22-.396-.33-.902-.33-1.518 0-1.085.403-1.936 1.21-2.552.806-.616 1.958-.924 3.454-.924.85 0 1.584.088 2.2.264.63.176 1.092.36 1.386.55V53.2c-.352-.235-.807-.44-1.364-.616-.558-.176-1.262-.264-2.112-.264-.836 0-1.445.11-1.826.33-.382.22-.572.565-.572 1.034 0 .264.066.477.198.638.146.147.33.264.55.352.234.088.498.161.792.22.308.044.623.095.946.154.454.088.916.198 1.386.33.484.117.916.308 1.298.572.396.25.718.587.968 1.012.249.425.374.975.374 1.65 0 .69-.132 1.269-.396 1.738a3.161 3.161 0 0 1-1.056 1.1c-.44.279-.939.477-1.496.594a8.208 8.208 0 0 1-1.694.176Zm10.329-4.862h-1.012V62h-2.552V46.226h2.552v9.064h1.078l3.63-4.708h2.684l-4.334 5.5 4.51 5.918h-2.992l-3.564-4.642Z"/><path stroke="#1E2126" stroke-linecap="round" stroke-linejoin="round" stroke-miterlimit="79.84" stroke-opacity=".12" d="M504 84h166"/><path fill="#1E2126" d="M504.48 104.92v-1.392h8.592v1.392h-3.536V115h-1.52v-10.08h-3.536Zm11.941 2.864c-.885 0-1.781.272-2.688.816v-1.264a5.098 5.098 0 0 1 1.36-.576 5.535 5.535 0 0 1 1.52-.224c1.045 0 1.84.219 2.384.656.544.437.816 1.104.816 2v4.464c0 .181.005.416.016.704.021.277.043.491.064.64h-1.28a7.266 7.266 0 0 1-.096-.624 9.73 9.73 0 0 1-.032-.72l-.016-.24a4.467 4.467 0 0 1-.528.8 2.667 2.667 0 0 1-.896.672c-.363.181-.816.272-1.36.272-.747 0-1.349-.213-1.808-.64-.459-.427-.688-1.029-.688-1.808 0-.907.32-1.573.96-2 .64-.427 1.541-.64 2.704-.64h1.552v-.688c0-.576-.149-.987-.448-1.232-.299-.245-.811-.368-1.536-.368Zm1.984 4.016v-.608h-1.408c-.843 0-1.456.123-1.84.368-.373.245-.56.603-.56 1.072 0 .373.112.677.336.912.235.235.587.352 1.056.352.437 0 .811-.085 1.12-.256a2.63 2.63 0 0 0 .752-.64c.192-.256.331-.496.416-.72.085-.224.128-.384.128-.48Zm6.278 3.36a5.888 5.888 0 0 1-1.744-.256c-.544-.181-.987-.421-1.328-.72v-1.264c.331.32.773.576 1.328.768a5.336 5.336 0 0 0 1.728.288c1.301 0 1.952-.421 1.952-1.264 0-.245-.059-.443-.176-.592-.107-.16-.309-.293-.608-.4-.299-.117-.731-.229-1.296-.336-1.077-.213-1.829-.501-2.256-.864-.427-.373-.64-.901-.64-1.584 0-.757.293-1.344.88-1.76.587-.427 1.397-.64 2.432-.64.491 0 .971.053 1.44.16.48.096.869.229 1.168.4v1.264c-.619-.427-1.472-.64-2.56-.64-.672 0-1.168.096-1.488.288-.309.192-.464.491-.464.896 0 .213.048.389.144.528.096.139.288.261.576.368.288.107.72.219 1.296.336.736.149 1.317.331 1.744.544.437.203.747.464.928.784.192.32.288.725.288 1.216 0 .779-.293 1.387-.88 1.824-.587.437-1.408.656-2.464.656Zm11.862-.16h-1.712l-2.928-3.536h-.736V115h-1.408v-11.472h1.408v6.736h.8l2.912-3.568h1.6l-3.408 4.096 3.472 4.208Zm3.765-4.16c0-.971.171-1.771.512-2.4.341-.64.795-1.115 1.36-1.424.576-.32 1.2-.48 1.872-.48.629 0 1.173.133 1.632.4.459.256.827.624 1.104 1.104v-4.512h1.408V115h-1.232l-.112-1.632a3.284 3.284 0 0 1-1.088 1.312c-.459.32-1.035.48-1.728.48-.661 0-1.28-.155-1.856-.464-.565-.32-1.019-.8-1.36-1.44-.341-.64-.512-1.445-.512-2.416Zm6.496 0c0-1.035-.245-1.803-.736-2.304-.491-.501-1.099-.752-1.824-.752-.725 0-1.323.261-1.792.784-.469.512-.704 1.269-.704 2.272 0 1.013.235 1.776.704 2.288.469.512 1.067.768 1.792.768.725 0 1.333-.251 1.824-.752.491-.501.736-1.269.736-2.304Zm6.506-3.056c-.886 0-1.782.272-2.688.816v-1.264a5.084 5.084 0 0 1 1.36-.576 5.53 5.53 0 0 1 1.52-.224c1.045 0 1.84.219 2.384.656.544.437.816 1.104.816 2v4.464c0 .181.005.416.016.704.021.277.042.491.064.64h-1.28a7.266 7.266 0 0 1-.096-.624 9.21 9.21 0 0 1-.032-.72l-.016-.24a4.467 4.467 0 0 1-.528.8 2.667 2.667 0 0 1-.896.672c-.363.181-.816.272-1.36.272-.747 0-1.35-.213-1.808-.64-.459-.427-.688-1.029-.688-1.808 0-.907.32-1.573.96-2 .64-.427 1.541-.64 2.704-.64h1.552v-.688c0-.576-.15-.987-.448-1.232-.299-.245-.811-.368-1.536-.368Zm1.984 4.016v-.608h-1.408c-.843 0-1.456.123-1.84.368-.374.245-.56.603-.56 1.072 0 .373.112.677.336.912.234.235.586.352 1.056.352.437 0 .81-.085 1.12-.256a2.63 2.63 0 0 0 .752-.64 3.04 3.04 0 0 0 .416-.72c.085-.224.128-.384.128-.48Zm2.95-3.904v-1.2h.992v-1.744h1.408v1.744h2.416v1.2h-2.416v4.992c0 .352.09.608.272.768.181.16.49.24.928.24a1.96 1.96 0 0 0 1.136-.352v1.28a1.964 1.964 0 0 1-.672.24 3.696 3.696 0 0 1-.832.096c-.534 0-.966-.101-1.296-.304a1.81 1.81 0 0 1-.72-.784 2.346 2.346 0 0 1-.224-1.008v-5.168h-.992Zm9.425-.112c-.885 0-1.781.272-2.688.816v-1.264a5.098 5.098 0 0 1 1.36-.576 5.535 5.535 0 0 1 1.52-.224c1.045 0 1.84.219 2.384.656.544.437.816 1.104.816 2v4.464c0 .181.005.416.016.704.021.277.043.491.064.64h-1.28a7.266 7.266 0 0 1-.096-.624 9.73 9.73 0 0 1-.032-.72l-.016-.24a4.467 4.467 0 0 1-.528.8 2.667 2.667 0 0 1-.896.672c-.363.181-.816.272-1.36.272-.747 0-1.349-.213-1.808-.64-.459-.427-.688-1.029-.688-1.808 0-.907.32-1.573.96-2 .64-.427 1.541-.64 2.704-.64h1.552v-.688c0-.576-.149-.987-.448-1.232-.299-.245-.811-.368-1.536-.368Zm1.984 4.016v-.608h-1.408c-.843 0-1.456.123-1.84.368-.373.245-.56.603-.56 1.072 0 .373.112.677.336.912.235.235.587.352 1.056.352.437 0 .811-.085 1.12-.256a2.63 2.63 0 0 0 .752-.64c.192-.256.331-.496.416-.72.085-.224.128-.384.128-.48Zm-59.335 46.36c-1.131 0-2.123-.235-2.976-.704a4.903 4.903 0 0 1-1.968-2.016c-.469-.885-.704-1.941-.704-3.168 0-1.845.485-3.285 1.456-4.32.971-1.045 2.357-1.568 4.16-1.568a8.04 8.04 0 0 1 1.92.224c.619.139 1.141.341 1.568.608v1.44a5.708 5.708 0 0 0-1.616-.672 7.386 7.386 0 0 0-1.888-.24c-1.344 0-2.341.379-2.992 1.136-.651.757-.976 1.888-.976 3.392 0 1.515.352 2.651 1.056 3.408.704.747 1.733 1.12 3.088 1.12 1.28 0 2.389-.352 3.328-1.056v1.44c-.373.299-.869.539-1.488.72a7.36 7.36 0 0 1-1.968.256Zm8.818 0c-.757 0-1.44-.165-2.048-.496a3.712 3.712 0 0 1-1.424-1.472c-.352-.651-.528-1.435-.528-2.352 0-.917.176-1.696.528-2.336a3.606 3.606 0 0 1 1.424-1.456c.608-.341 1.291-.512 2.048-.512.768 0 1.456.171 2.064.512a3.575 3.575 0 0 1 1.44 1.456c.352.64.528 1.419.528 2.336 0 .917-.176 1.701-.528 2.352a3.678 3.678 0 0 1-1.44 1.472c-.608.331-1.296.496-2.064.496Zm0-1.264c.747 0 1.365-.245 1.856-.736.491-.501.736-1.275.736-2.32s-.245-1.813-.736-2.304c-.491-.501-1.109-.752-1.856-.752-.736 0-1.349.251-1.84.752-.48.491-.72 1.259-.72 2.304s.24 1.819.72 2.32c.491.491 1.104.736 1.84.736Zm9.86-5.792c-.661.053-1.226.219-1.696.496a2.5 2.5 0 0 0-1.008 1.12V158h-1.408v-8.304h1.232l.144 1.808h.032a3.572 3.572 0 0 1 1.088-1.344 3.413 3.413 0 0 1 1.616-.624v1.568Zm5.829 0c-.662.053-1.227.219-1.696.496a2.49 2.49 0 0 0-1.008 1.12V158h-1.408v-8.304h1.232l.144 1.808h.032a3.553 3.553 0 0 1 1.088-1.344 3.41 3.41 0 0 1 1.616-.624v1.568Zm4.989 7.056c-1.386 0-2.448-.379-3.184-1.136-.725-.768-1.088-1.829-1.088-3.184 0-.907.171-1.68.512-2.32a3.61 3.61 0 0 1 1.408-1.472c.598-.341 1.27-.512 2.016-.512 1.27 0 2.203.421 2.8 1.264.598.832.79 1.973.576 3.424H537c.118 1.781 1.099 2.672 2.944 2.672a4.9 4.9 0 0 0 2.8-.864v1.264c-.384.267-.832.48-1.344.64a5.64 5.64 0 0 1-1.584.224Zm-.368-7.376c-.608 0-1.13.187-1.568.56-.437.373-.714.939-.832 1.696h4.464c.032-.715-.133-1.269-.496-1.664-.362-.395-.885-.592-1.568-.592Zm8.757 7.376c-1.291 0-2.31-.379-3.056-1.136-.747-.768-1.12-1.829-1.12-3.184 0-1.355.378-2.411 1.136-3.168.757-.757 1.792-1.136 3.104-1.136.501 0 .97.059 1.408.176.437.107.789.267 1.056.48v1.264c-.726-.448-1.542-.672-2.448-.672-.96 0-1.67.256-2.128.768-.459.501-.688 1.264-.688 2.288 0 1.024.218 1.792.656 2.304.448.501 1.141.752 2.08.752.906 0 1.749-.219 2.528-.656v1.264c-.694.437-1.536.656-2.528.656Zm3.65-7.264v-1.2h.992v-1.744h1.408v1.744h2.416v1.2h-2.416v4.992c0 .352.091.608.272.768.181.16.491.24.928.24.416 0 .795-.117 1.136-.352v1.28a1.964 1.964 0 0 1-.672.24 3.69 3.69 0 0 1-.832.096c-.533 0-.965-.101-1.296-.304a1.81 1.81 0 0 1-.72-.784 2.36 2.36 0 0 1-.224-1.008v-5.168h-.992Zm13.925.208c-.662.053-1.227.219-1.696.496a2.49 2.49 0 0 0-1.008 1.12V158h-1.408v-8.304h1.232l.144 1.808h.032a3.553 3.553 0 0 1 1.088-1.344 3.41 3.41 0 0 1 1.616-.624v1.568Zm4.99 7.056c-1.387 0-2.448-.379-3.184-1.136-.726-.768-1.088-1.829-1.088-3.184 0-.907.17-1.68.512-2.32.341-.64.81-1.131 1.408-1.472.597-.341 1.269-.512 2.016-.512 1.269 0 2.202.421 2.8 1.264.597.832.789 1.973.576 3.424h-5.856c.117 1.781 1.098 2.672 2.944 2.672a4.904 4.904 0 0 0 2.8-.864v1.264c-.384.267-.832.48-1.344.64a5.64 5.64 0 0 1-1.584.224Zm-.368-7.376c-.608 0-1.131.187-1.568.56-.438.373-.715.939-.832 1.696h4.464c.032-.715-.134-1.269-.496-1.664-.363-.395-.886-.592-1.568-.592Zm7.828 7.376a5.888 5.888 0 0 1-1.744-.256c-.544-.181-.987-.421-1.328-.72v-1.264c.331.32.773.576 1.328.768a5.336 5.336 0 0 0 1.728.288c1.301 0 1.952-.421 1.952-1.264 0-.245-.059-.443-.176-.592-.107-.16-.309-.293-.608-.4-.299-.117-.731-.229-1.296-.336-1.077-.213-1.829-.501-2.256-.864-.427-.373-.64-.901-.64-1.584 0-.757.293-1.344.88-1.76.587-.427 1.397-.64 2.432-.64.491 0 .971.053 1.44.16.48.096.869.229 1.168.4v1.264c-.619-.427-1.472-.64-2.56-.64-.672 0-1.168.096-1.488.288-.309.192-.464.491-.464.896 0 .213.048.389.144.528.096.139.288.261.576.368.288.107.72.219 1.296.336.736.149 1.317.331 1.744.544.437.203.747.464.928.784.192.32.288.725.288 1.216 0 .779-.293 1.387-.88 1.824-.587.437-1.408.656-2.464.656Zm5.078-8.464h1.232l.144 1.616c.267-.533.635-.96 1.104-1.28.48-.331 1.067-.496 1.76-.496.651 0 1.248.16 1.792.48.555.309 1.003.784 1.344 1.424.342.629.512 1.429.512 2.4 0 .971-.176 1.776-.528 2.416-.341.64-.794 1.12-1.36 1.44a3.682 3.682 0 0 1-1.824.464c-.629 0-1.178-.149-1.648-.448a3.218 3.218 0 0 1-1.12-1.232v4.352h-1.408v-11.136Zm6.432 4.144c0-1.003-.229-1.76-.688-2.272-.458-.523-1.05-.784-1.776-.784-.725 0-1.338.256-1.84.768-.49.501-.736 1.264-.736 2.288 0 1.035.246 1.803.736 2.304a2.505 2.505 0 0 0 1.84.752c.726 0 1.318-.256 1.776-.768.459-.512.688-1.275.688-2.288Zm6.57 4.32c-.757 0-1.44-.165-2.048-.496a3.712 3.712 0 0 1-1.424-1.472c-.352-.651-.528-1.435-.528-2.352 0-.917.176-1.696.528-2.336a3.606 3.606 0 0 1 1.424-1.456c.608-.341 1.291-.512 2.048-.512.768 0 1.456.171 2.064.512a3.575 3.575 0 0 1 1.44 1.456c.352.64.528 1.419.528 2.336 0 .917-.176 1.701-.528 2.352a3.678 3.678 0 0 1-1.44 1.472c-.608.331-1.296.496-2.064.496Zm0-1.264c.747 0 1.365-.245 1.856-.736.491-.501.736-1.275.736-2.32s-.245-1.813-.736-2.304c-.491-.501-1.109-.752-1.856-.752-.736 0-1.349.251-1.84.752-.48.491-.72 1.259-.72 2.304s.24 1.819.72 2.32c.491.491 1.104.736 1.84.736Zm9.684-6.112c-.64 0-1.162.149-1.568.448a3.284 3.284 0 0 0-.96 1.12V158h-1.408v-8.304h1.328l.048 1.488h.032a2.835 2.835 0 0 1 1.056-1.168c.48-.32 1.088-.48 1.824-.48.822 0 1.472.219 1.952.656.491.437.736 1.099.736 1.984V158h-1.408v-5.68c0-.565-.149-.96-.448-1.184-.288-.235-.682-.352-1.184-.352Zm7.923 7.376a5.888 5.888 0 0 1-1.744-.256c-.544-.181-.986-.421-1.328-.72v-1.264c.331.32.774.576 1.328.768a5.345 5.345 0 0 0 1.728.288c1.302 0 1.952-.421 1.952-1.264 0-.245-.058-.443-.176-.592-.106-.16-.309-.293-.608-.4-.298-.117-.73-.229-1.296-.336-1.077-.213-1.829-.501-2.256-.864-.426-.373-.64-.901-.64-1.584 0-.757.294-1.344.88-1.76.587-.427 1.398-.64 2.432-.64.491 0 .971.053 1.44.16.48.096.87.229 1.168.4v1.264c-.618-.427-1.472-.64-2.56-.64-.672 0-1.168.096-1.488.288-.309.192-.464.491-.464.896 0 .213.048.389.144.528.096.139.288.261.576.368.288.107.72.219 1.296.336.736.149 1.318.331 1.744.544.438.203.747.464.928.784.192.32.288.725.288 1.216 0 .779-.293 1.387-.88 1.824-.586.437-1.408.656-2.464.656Zm8.759 0c-1.387 0-2.448-.379-3.184-1.136-.726-.768-1.088-1.829-1.088-3.184 0-.907.17-1.68.512-2.32.341-.64.81-1.131 1.408-1.472.597-.341 1.269-.512 2.016-.512 1.269 0 2.202.421 2.8 1.264.597.832.789 1.973.576 3.424h-5.856c.117 1.781 1.098 2.672 2.944 2.672a4.904 4.904 0 0 0 2.8-.864v1.264c-.384.267-.832.48-1.344.64a5.64 5.64 0 0 1-1.584.224Zm-.368-7.376c-.608 0-1.131.187-1.568.56-.438.373-.715.939-.832 1.696h4.464c.032-.715-.134-1.269-.496-1.664-.363-.395-.886-.592-1.568-.592Zm7.828 7.376a5.888 5.888 0 0 1-1.744-.256c-.544-.181-.987-.421-1.328-.72v-1.264c.331.32.773.576 1.328.768a5.336 5.336 0 0 0 1.728.288c1.301 0 1.952-.421 1.952-1.264 0-.245-.059-.443-.176-.592-.107-.16-.309-.293-.608-.4-.299-.117-.731-.229-1.296-.336-1.077-.213-1.829-.501-2.256-.864-.427-.373-.64-.901-.64-1.584 0-.757.293-1.344.88-1.76.587-.427 1.397-.64 2.432-.64.491 0 .971.053 1.44.16.48.096.869.229 1.168.4v1.264c-.619-.427-1.472-.64-2.56-.64-.672 0-1.168.096-1.488.288-.309.192-.464.491-.464.896 0 .213.048.389.144.528.096.139.288.261.576.368.288.107.72.219 1.296.336.736.149 1.317.331 1.744.544.437.203.747.464.928.784.192.32.288.725.288 1.216 0 .779-.293 1.387-.88 1.824-.587.437-1.408.656-2.464.656ZM504.48 176.92v-1.392h8.592v1.392h-3.536V187h-1.52v-10.08h-3.536Zm10.97.56c-.288 0-.517-.085-.688-.256a.92.92 0 0 1-.256-.656.92.92 0 0 1 .256-.656c.171-.181.4-.272.688-.272.277 0 .496.091.656.272.16.181.24.4.24.656s-.08.475-.24.656c-.16.171-.379.256-.656.256Zm-.72 1.216h1.408V187h-1.408v-8.304Zm3.703 0h1.232l.144 1.616c.267-.533.635-.96 1.104-1.28.48-.331 1.067-.496 1.76-.496.651 0 1.248.16 1.792.48.555.309 1.003.784 1.344 1.424.342.629.512 1.429.512 2.4 0 .971-.176 1.776-.528 2.416-.341.64-.794 1.12-1.36 1.44a3.682 3.682 0 0 1-1.824.464c-.629 0-1.178-.149-1.648-.448a3.218 3.218 0 0 1-1.12-1.232v4.352h-1.408v-11.136Zm6.432 4.144c0-1.003-.229-1.76-.688-2.272-.458-.523-1.05-.784-1.776-.784-.725 0-1.338.256-1.84.768-.49.501-.736 1.264-.736 2.288 0 1.035.246 1.803.736 2.304a2.505 2.505 0 0 0 1.84.752c.726 0 1.318-.256 1.776-.768.459-.512.688-1.275.688-2.288Zm5.818 4.32a5.888 5.888 0 0 1-1.744-.256c-.544-.181-.987-.421-1.328-.72v-1.264c.331.32.773.576 1.328.768a5.336 5.336 0 0 0 1.728.288c1.301 0 1.952-.421 1.952-1.264 0-.245-.059-.443-.176-.592-.107-.16-.309-.293-.608-.4-.299-.117-.731-.229-1.296-.336-1.077-.213-1.829-.501-2.256-.864-.427-.373-.64-.901-.64-1.584 0-.757.293-1.344.88-1.76.587-.427 1.397-.64 2.432-.64.491 0 .971.053 1.44.16.48.096.869.229 1.168.4v1.264c-.619-.427-1.472-.64-2.56-.64-.672 0-1.168.096-1.488.288-.309.192-.464.491-.464.896 0 .213.048.389.144.528.096.139.288.261.576.368.288.107.72.219 1.296.336.736.149 1.317.331 1.744.544.437.203.747.464.928.784.192.32.288.725.288 1.216 0 .779-.293 1.387-.88 1.824-.587.437-1.408.656-2.464.656Zm8.778-.16v-7.104h-1.008v-1.2h1.008v-.208c0-.981.261-1.744.784-2.288.522-.544 1.237-.816 2.144-.816.405 0 .757.048 1.056.144v1.28a1.861 1.861 0 0 0-.416-.112 3.324 3.324 0 0 0-.576-.048c-.491 0-.88.149-1.168.448-.278.299-.416.763-.416 1.392v.208h2.4v1.2h-2.4V187h-1.408Zm8.38.16c-.757 0-1.44-.165-2.048-.496a3.712 3.712 0 0 1-1.424-1.472c-.352-.651-.528-1.435-.528-2.352 0-.917.176-1.696.528-2.336a3.606 3.606 0 0 1 1.424-1.456c.608-.341 1.291-.512 2.048-.512.768 0 1.456.171 2.064.512a3.575 3.575 0 0 1 1.44 1.456c.352.64.528 1.419.528 2.336 0 .917-.176 1.701-.528 2.352a3.678 3.678 0 0 1-1.44 1.472c-.608.331-1.296.496-2.064.496Zm0-1.264c.747 0 1.366-.245 1.856-.736.491-.501.736-1.275.736-2.32s-.245-1.813-.736-2.304c-.49-.501-1.109-.752-1.856-.752-.736 0-1.349.251-1.84.752-.48.491-.72 1.259-.72 2.304s.24 1.819.72 2.32c.491.491 1.104.736 1.84.736Zm9.861-5.792c-.662.053-1.227.219-1.696.496a2.49 2.49 0 0 0-1.008 1.12V187h-1.408v-8.304h1.232l.144 1.808h.032a3.553 3.553 0 0 1 1.088-1.344 3.41 3.41 0 0 1 1.616-.624v1.568Zm4.247-.208v-1.2h.992v-1.744h1.408v1.744h2.416v1.2h-2.416v4.992c0 .352.09.608.272.768.181.16.49.24.928.24a1.96 1.96 0 0 0 1.136-.352v1.28a1.964 1.964 0 0 1-.672.24 3.696 3.696 0 0 1-.832.096c-.534 0-.966-.101-1.296-.304a1.81 1.81 0 0 1-.72-.784 2.346 2.346 0 0 1-.224-1.008v-5.168h-.992Zm10.721.208c-.661.053-1.226.219-1.696.496a2.5 2.5 0 0 0-1.008 1.12V187h-1.408v-8.304h1.232l.144 1.808h.032a3.572 3.572 0 0 1 1.088-1.344 3.413 3.413 0 0 1 1.616-.624v1.568Zm4.376-.32c-.885 0-1.781.272-2.688.816v-1.264a5.098 5.098 0 0 1 1.36-.576 5.535 5.535 0 0 1 1.52-.224c1.045 0 1.84.219 2.384.656.544.437.816 1.104.816 2v4.464c0 .181.005.416.016.704.021.277.043.491.064.64h-1.28a7.266 7.266 0 0 1-.096-.624 9.73 9.73 0 0 1-.032-.72l-.016-.24a4.467 4.467 0 0 1-.528.8 2.667 2.667 0 0 1-.896.672c-.363.181-.816.272-1.36.272-.747 0-1.349-.213-1.808-.64-.459-.427-.688-1.029-.688-1.808 0-.907.32-1.573.96-2 .64-.427 1.541-.64 2.704-.64h1.552v-.688c0-.576-.149-.987-.448-1.232-.299-.245-.811-.368-1.536-.368Zm1.984 4.016v-.608h-1.408c-.843 0-1.456.123-1.84.368-.373.245-.56.603-.56 1.072 0 .373.112.677.336.912.235.235.587.352 1.056.352.437 0 .811-.085 1.12-.256a2.63 2.63 0 0 0 .752-.64c.192-.256.331-.496.416-.72.085-.224.128-.384.128-.48Zm4.342-6.32c-.288 0-.517-.085-.688-.256a.92.92 0 0 1-.256-.656.92.92 0 0 1 .256-.656c.171-.181.4-.272.688-.272.277 0 .496.091.656.272.16.181.24.4.24.656s-.08.475-.24.656c-.16.171-.379.256-.656.256Zm-.72 1.216h1.408V187h-1.408v-8.304Zm7.639 1.088c-.64 0-1.163.149-1.568.448a3.263 3.263 0 0 0-.96 1.12V187h-1.408v-8.304h1.328l.048 1.488h.032a2.835 2.835 0 0 1 1.056-1.168c.48-.32 1.088-.48 1.824-.48.821 0 1.472.219 1.952.656.491.437.736 1.099.736 1.984V187h-1.408v-5.68c0-.565-.149-.96-.448-1.184-.288-.235-.683-.352-1.184-.352Zm5.987-2.304c-.288 0-.517-.085-.688-.256a.925.925 0 0 1-.256-.656c0-.256.086-.475.256-.656.171-.181.4-.272.688-.272.278 0 .496.091.656.272.16.181.24.4.24.656s-.08.475-.24.656c-.16.171-.378.256-.656.256Zm-.72 1.216h1.408V187h-1.408v-8.304Zm7.639 1.088c-.64 0-1.162.149-1.568.448a3.284 3.284 0 0 0-.96 1.12V187h-1.408v-8.304h1.328l.048 1.488h.032a2.835 2.835 0 0 1 1.056-1.168c.48-.32 1.088-.48 1.824-.48.822 0 1.472.219 1.952.656.491.437.736 1.099.736 1.984V187h-1.408v-5.68c0-.565-.149-.96-.448-1.184-.288-.235-.682-.352-1.184-.352Zm8.324 6.88a3.84 3.84 0 0 1-1.824-.448c-.555-.309-1.003-.763-1.344-1.36-.331-.597-.496-1.344-.496-2.24 0-.907.165-1.659.496-2.256.341-.608.789-1.061 1.344-1.36a3.806 3.806 0 0 1 1.856-.464c.661 0 1.216.149 1.664.448a3.05 3.05 0 0 1 1.072 1.216l.016-.176c0-.192.01-.421.032-.688.021-.277.042-.491.064-.64h1.28a8.46 8.46 0 0 0-.064.64c-.011.277-.016.507-.016.688v6.272c0 .715-.144 1.339-.432 1.872-.278.533-.72.949-1.328 1.248-.608.299-1.414.448-2.417.448-1.215 0-2.17-.229-2.863-.688v-1.264c.448.245.896.421 1.344.528.448.107.96.16 1.536.16 1.024 0 1.738-.197 2.144-.592.405-.384.608-.949.608-1.696v-1.28a3.025 3.025 0 0 1-1.04 1.184c-.438.299-.982.448-1.632.448Zm.256-1.264c.693 0 1.269-.229 1.728-.688.469-.459.704-1.157.704-2.096 0-.949-.235-1.659-.704-2.128-.459-.469-1.04-.704-1.744-.704s-1.296.235-1.776.704c-.47.469-.704 1.179-.704 2.128 0 .928.234 1.627.704 2.096.48.459 1.077.688 1.792.688Z"/><path fill="#1E2126" fill-opacity=".56" d="M504.3 124.56v-.75h.62v-1.09h.88v1.09h1.51v.75h-1.51v3.12c0 .22.057.38.17.48.113.1.307.15.58.15.26 0 .497-.073.71-.22v.8a1.224 1.224 0 0 1-.42.15c-.173.04-.347.06-.52.06-.333 0-.603-.063-.81-.19a1.13 1.13 0 0 1-.45-.49c-.093-.2-.14-.41-.14-.63v-3.23h-.62Zm6.284 4.54c-.866 0-1.53-.237-1.99-.71-.453-.48-.68-1.143-.68-1.99 0-.567.107-1.05.32-1.45.214-.4.507-.707.88-.92a2.5 2.5 0 0 1 1.26-.32c.794 0 1.377.263 1.75.79.374.52.494 1.233.36 2.14h-3.66c.074 1.113.687 1.67 1.84 1.67.634 0 1.217-.18 1.75-.54v.79c-.24.167-.52.3-.84.4-.32.093-.65.14-.99.14Zm-.23-4.61c-.38 0-.706.117-.98.35-.273.233-.446.587-.52 1.06h2.79c.02-.447-.083-.793-.31-1.04-.226-.247-.553-.37-.98-.37Zm2.834-.68h1.02l1.24 1.83 1.25-1.83h.91l-1.72 2.48 1.81 2.71h-1.02l-1.39-2.06-1.4 2.06h-.92l1.88-2.69-1.66-2.5Zm4.96.75v-.75h.62v-1.09h.88v1.09h1.51v.75h-1.51v3.12c0 .22.056.38.17.48.113.1.306.15.58.15.26 0 .496-.073.71-.22v.8a1.224 1.224 0 0 1-.42.15c-.174.04-.347.06-.52.06-.334 0-.604-.063-.81-.19a1.13 1.13 0 0 1-.45-.49c-.094-.2-.14-.41-.14-.63v-3.23h-.62Zm4.708 5.51h-.66c.127-.14.24-.317.34-.53.107-.213.17-.383.19-.51a.603.603 0 0 1-.34-.21.588.588 0 0 1-.13-.38c0-.173.054-.317.16-.43a.592.592 0 0 1 .45-.18c.187 0 .337.063.45.19.12.127.18.297.18.51 0 .187-.033.38-.1.58-.066.2-.15.383-.25.55-.093.173-.19.31-.29.41Zm4.365-7.02a.579.579 0 0 1-.43-.16.575.575 0 0 1-.16-.41.563.563 0 0 1 .59-.58.52.52 0 0 1 .41.17c.1.113.15.25.15.41 0 .16-.05.297-.15.41a.534.534 0 0 1-.41.16Zm-.45.76h.88V129h-.88v-5.19Zm5.594 1.56c0-.333-.083-.563-.25-.69-.166-.127-.393-.19-.68-.19-.373 0-.67.093-.89.28-.22.18-.413.417-.58.71V129h-.88v-5.19h.77l.09.93h.02c.14-.293.35-.537.63-.73.287-.2.654-.3 1.1-.3.394 0 .72.097.98.29.26.187.434.47.52.85.147-.353.37-.63.67-.83.307-.207.677-.31 1.11-.31.474 0 .85.137 1.13.41.287.273.43.687.43 1.24V129h-.89v-3.53c0-.34-.083-.587-.25-.74-.166-.16-.393-.24-.68-.24-.38 0-.68.11-.9.33a3.15 3.15 0 0 0-.57.76V129h-.88v-3.63Zm7.308-.88c-.553 0-1.113.17-1.68.51v-.79c.247-.153.53-.273.85-.36a3.47 3.47 0 0 1 .95-.14c.654 0 1.15.137 1.49.41.34.273.51.69.51 1.25v2.79c0 .113.004.26.01.44.014.173.027.307.04.4h-.8a4.525 4.525 0 0 1-.06-.39 6.145 6.145 0 0 1-.02-.45l-.01-.15c-.08.16-.19.327-.33.5-.14.167-.326.307-.56.42-.226.113-.51.17-.85.17-.466 0-.843-.133-1.13-.4-.286-.267-.43-.643-.43-1.13 0-.567.2-.983.6-1.25.4-.267.964-.4 1.69-.4h.97v-.43c0-.36-.093-.617-.28-.77-.186-.153-.506-.23-.96-.23Zm1.24 2.51v-.38h-.88c-.526 0-.91.077-1.15.23a.753.753 0 0 0-.35.67c0 .233.07.423.21.57.147.147.367.22.66.22.274 0 .507-.053.7-.16.194-.113.35-.247.47-.4.12-.16.207-.31.26-.45.054-.14.08-.24.08-.3Zm4.174 1.79c-.407 0-.787-.093-1.14-.28a2.187 2.187 0 0 1-.84-.85c-.207-.373-.31-.84-.31-1.4 0-.567.103-1.037.31-1.41.213-.38.493-.663.84-.85a2.38 2.38 0 0 1 1.16-.29c.413 0 .76.093 1.04.28.287.187.51.44.67.76l.01-.11c0-.12.007-.263.02-.43a6.62 6.62 0 0 1 .04-.4h.8a5.65 5.65 0 0 0-.04.4c-.007.173-.01.317-.01.43v3.92c0 .447-.09.837-.27 1.17-.173.333-.45.593-.83.78-.38.187-.883.28-1.51.28-.76 0-1.357-.143-1.79-.43v-.79c.28.153.56.263.84.33.28.067.6.1.96.1.64 0 1.087-.123 1.34-.37.253-.24.38-.593.38-1.06v-.8c-.153.307-.37.553-.65.74-.273.187-.613.28-1.02.28Zm.16-.79c.433 0 .793-.143 1.08-.43.293-.287.44-.723.44-1.31 0-.593-.147-1.037-.44-1.33-.287-.293-.65-.44-1.09-.44-.44 0-.81.147-1.11.44-.293.293-.44.737-.44 1.33 0 .58.147 1.017.44 1.31.3.287.673.43 1.12.43Zm6.119 1.1c-.867 0-1.53-.237-1.99-.71-.454-.48-.68-1.143-.68-1.99 0-.567.106-1.05.32-1.45.213-.4.506-.707.88-.92.373-.213.793-.32 1.26-.32.793 0 1.376.263 1.75.79.373.52.493 1.233.36 2.14h-3.66c.073 1.113.686 1.67 1.84 1.67.633 0 1.216-.18 1.75-.54v.79c-.24.167-.52.3-.84.4-.32.093-.65.14-.99.14Zm-.23-4.61c-.38 0-.707.117-.98.35-.274.233-.447.587-.52 1.06h2.79c.02-.447-.084-.793-.31-1.04-.227-.247-.554-.37-.98-.37Zm5.184 2.07v-4.73h.95v4.72c0 .573.167 1.003.5 1.29.334.28.784.42 1.35.42.374 0 .704-.063.99-.19.294-.127.524-.317.69-.57.174-.253.26-.57.26-.95v-4.72h.9v4.69c0 .553-.126 1.023-.38 1.41-.246.38-.586.67-1.02.87-.433.2-.92.3-1.46.3-.526 0-1-.093-1.42-.28a2.325 2.325 0 0 1-1-.86c-.24-.38-.36-.847-.36-1.4Zm7.094-4.73h2.4c.84 0 1.484.167 1.93.5.447.327.67.843.67 1.55 0 .627-.15 1.107-.45 1.44-.3.327-.7.547-1.2.66l1.95 3.02h-1.06l-1.87-2.91H564.354V129h-.94v-7.17Zm2.31 3.41c.514 0 .927-.1 1.24-.3.314-.2.47-.56.47-1.08 0-.427-.143-.727-.43-.9-.28-.18-.676-.27-1.19-.27h-1.46v2.55h1.37Zm4.204-3.41h.94v6.32h3.49v.85h-4.43v-7.17Zm7.263 7.27c-.38 0-.744-.053-1.09-.16a2.381 2.381 0 0 1-.83-.45v-.79c.206.2.483.36.83.48.353.12.713.18 1.08.18.813 0 1.22-.263 1.22-.79a.584.584 0 0 0-.11-.37c-.067-.1-.194-.183-.38-.25a4.826 4.826 0 0 0-.81-.21c-.674-.133-1.144-.313-1.41-.54-.267-.233-.4-.563-.4-.99 0-.473.183-.84.55-1.1.366-.267.873-.4 1.52-.4.306 0 .606.033.9.1.3.06.543.143.73.25v.79c-.387-.267-.92-.4-1.6-.4-.42 0-.73.06-.93.18-.194.12-.29.307-.29.56 0 .133.03.243.09.33.06.087.18.163.36.23s.45.137.81.21c.46.093.823.207 1.09.34.273.127.466.29.58.49.12.2.18.453.18.76 0 .487-.184.867-.55 1.14-.367.273-.88.41-1.54.41Zm3.654.97h-.66c.126-.14.24-.317.34-.53.106-.213.17-.383.19-.51a.6.6 0 0 1-.34-.21.582.582 0 0 1-.13-.38c0-.173.053-.317.16-.43a.589.589 0 0 1 .45-.18c.186 0 .336.063.45.19.12.127.18.297.18.51 0 .187-.034.38-.1.58-.067.2-.15.383-.25.55-.094.173-.19.31-.29.41Zm5.674-5.58c-.553 0-1.113.17-1.68.51v-.79c.247-.153.53-.273.85-.36.327-.093.643-.14.95-.14.653 0 1.15.137 1.49.41.34.273.51.69.51 1.25v2.79c0 .113.003.26.01.44.013.173.027.307.04.4h-.8a4.525 4.525 0 0 1-.06-.39 6.145 6.145 0 0 1-.02-.45l-.01-.15c-.08.16-.19.327-.33.5-.14.167-.327.307-.56.42-.227.113-.51.17-.85.17-.467 0-.843-.133-1.13-.4-.287-.267-.43-.643-.43-1.13 0-.567.2-.983.6-1.25.4-.267.963-.4 1.69-.4h.97v-.43c0-.36-.093-.617-.28-.77-.187-.153-.507-.23-.96-.23Zm1.24 2.51v-.38h-.88c-.527 0-.91.077-1.15.23a.753.753 0 0 0-.35.67c0 .233.07.423.21.57.147.147.367.22.66.22.273 0 .507-.053.7-.16.193-.113.35-.247.47-.4.12-.16.207-.31.26-.45.053-.14.08-.24.08-.3Zm4.724-2.51c-.4 0-.727.093-.98.28-.247.18-.447.413-.6.7V129h-.88v-5.19h.83l.03.93h.02c.14-.293.36-.537.66-.73.3-.2.68-.3 1.14-.3.513 0 .92.137 1.22.41.306.273.46.687.46 1.24V129h-.88v-3.55c0-.353-.094-.6-.28-.74-.18-.147-.427-.22-.74-.22Zm2.922 1.91c0-.607.106-1.107.32-1.5.213-.4.496-.697.85-.89.36-.2.75-.3 1.17-.3.393 0 .733.083 1.02.25.286.16.516.39.69.69v-2.82h.88V129h-.77l-.07-1.02c-.16.34-.387.613-.68.82-.287.2-.647.3-1.08.3-.414 0-.8-.097-1.16-.29-.354-.2-.637-.5-.85-.9-.214-.4-.32-.903-.32-1.51Zm4.06 0c0-.647-.154-1.127-.46-1.44a1.534 1.534 0 0 0-1.14-.47c-.454 0-.827.163-1.12.49-.294.32-.44.793-.44 1.42 0 .633.146 1.11.44 1.43.293.32.666.48 1.12.48.453 0 .833-.157 1.14-.47.306-.313.46-.793.46-1.44Zm7.588-1.03c0-.333-.084-.563-.25-.69-.167-.127-.394-.19-.68-.19-.374 0-.67.093-.89.28a2.49 2.49 0 0 0-.58.71V129h-.88v-5.19h.77l.09.93h.02c.14-.293.35-.537.63-.73.286-.2.653-.3 1.1-.3.393 0 .72.097.98.29.26.187.433.47.52.85.146-.353.37-.63.67-.83.306-.207.676-.31 1.11-.31.473 0 .85.137 1.13.41.286.273.43.687.43 1.24V129h-.89v-3.53c0-.34-.084-.587-.25-.74-.167-.16-.394-.24-.68-.24-.38 0-.68.11-.9.33a3.15 3.15 0 0 0-.57.76V129h-.88v-3.63Zm7.678 3.73c-.473 0-.9-.103-1.28-.31a2.32 2.32 0 0 1-.89-.92c-.22-.407-.33-.897-.33-1.47s.11-1.06.33-1.46c.22-.4.517-.703.89-.91.38-.213.807-.32 1.28-.32.48 0 .91.107 1.29.32.38.207.68.51.9.91.22.4.33.887.33 1.46s-.11 1.063-.33 1.47c-.22.4-.52.707-.9.92-.38.207-.81.31-1.29.31Zm0-.79c.467 0 .853-.153 1.16-.46.307-.313.46-.797.46-1.45 0-.653-.153-1.133-.46-1.44-.307-.313-.693-.47-1.16-.47-.46 0-.843.157-1.15.47-.3.307-.45.787-.45 1.44 0 .653.15 1.137.45 1.45.307.307.69.46 1.15.46Zm6.163-3.62c-.414.033-.767.137-1.06.31a1.554 1.554 0 0 0-.63.7v3.3h-.88v-5.19h.77l.09 1.13h.02c.166-.347.393-.627.68-.84.293-.213.63-.343 1.01-.39v.98Zm3.118 4.41c-.866 0-1.53-.237-1.99-.71-.453-.48-.68-1.143-.68-1.99 0-.567.107-1.05.32-1.45.214-.4.507-.707.88-.92a2.5 2.5 0 0 1 1.26-.32c.794 0 1.377.263 1.75.79.374.52.494 1.233.36 2.14h-3.66c.074 1.113.687 1.67 1.84 1.67.634 0 1.217-.18 1.75-.54v.79c-.24.167-.52.3-.84.4-.32.093-.65.14-.99.14Zm-.23-4.61c-.38 0-.706.117-.98.35-.273.233-.446.587-.52 1.06h2.79c.02-.447-.083-.793-.31-1.04-.226-.247-.553-.37-.98-.37Z"/><rect width="221" height="232" x="476.5" y="16.5" stroke="#1E2126" stroke-opacity=".08" rx="7.5"/></svg>