<svg xmlns="http://www.w3.org/2000/svg" width="16" height="16" viewBox="0 0 16 16" fill="none"><g clip-path="url(#clip0_li18Pl9Q53fi3iDb1zTBP)"><path fill-rule="evenodd" clip-rule="evenodd" d="M7.22284 5.0632C7.22284 6.99663 6.05591 8.65583 4.5 8.65583C2.94409 8.65583 1.77716 6.99663 1.77716 5.0632C1.77716 3.12976 2.78139 2 4.5 2C6.21861 2 7.22284 3.12976 7.22284 5.0632ZM0.159172 12.8561C0.735801 13.3226 2.18282 14 4.50023 14C6.81689 14 8.26372 13.3228 8.84072 12.8565C8.94729 12.7704 9.00786 12.6199 8.99918 12.463C8.99918 10.9895 7.21992 10 4.49696 10C1.77401 10 0.000752984 10.9895 0.000752984 12.464C-0.00753134 12.6204 0.053012 12.7702 0.159172 12.8561ZM12 12C11.4477 12 11 11.5523 11 11V9H9C8.44772 9 8 8.55228 8 8C8 7.44772 8.44772 7 9 7H11V5C11 4.44772 11.4477 4 12 4C12.5523 4 13 4.44772 13 5V7H15C15.5523 7 16 7.44772 16 8C16 8.55228 15.5523 9 15 9H13V11C13 11.5523 12.5523 12 12 12Z" fill="black"></path></g><defs><clipPath id="clip0_li18Pl9Q53fi3iDb1zTBP"><rect width="16" height="16" fill="white"></rect></clipPath></defs></svg>
