<svg xmlns="http://www.w3.org/2000/svg" preserveAspectRatio="xMidYMid" width="16" height="16" viewBox="0 0 16 16"><defs><style>.cls-2 { fill: #000000; }</style></defs><path d="M1.944 8.007c0 .22.013.438.038.652l-1.99 1.441 1.329 2.656 2.371-.636c.309.301.651.569 1.02.799l-.103 2.413 2.954.665.988-2.201c.509-.052.999-.165 1.462-.334l1.893 1.574 2.352-1.862-1.208-2.186c.206-.336.379-.693.513-1.068l2.445-.445v-2.936l-2.445-.444c-.137-.384-.315-.749-.527-1.092l1.19-2.146-2.356-1.86-1.87 1.55c-.436-.158-.896-.266-1.373-.321l-.999-2.224-2.954.664.102 2.389c-.373.225-.718.489-1.03.786l-2.383-.639-1.329 2.655 1.957 1.419c-.031.239-.047.483-.047.731zm5.975-2.912c1.65 0 2.988 1.304 2.988 2.912 0 1.608-1.338 2.911-2.988 2.911s-2.987-1.303-2.987-2.911 1.337-2.912 2.987-2.912z" id="path-1" class="cls-2" fill-rule="evenodd"/></svg>