<svg xmlns="http://www.w3.org/2000/svg" width="138" height="36" fill="none"><path fill="#2C3C4F" d="M0 8a8 8 0 0 1 8-8h122a8 8 0 0 1 8 8v20a8 8 0 0 1-8 8H8a8 8 0 0 1-8-8V8Z"/><path fill="#fff" d="M22.121 23.14c-.774 0-1.474-.117-2.1-.35a4.533 4.533 0 0 1-1.61-1.008 4.672 4.672 0 0 1-1.022-1.624c-.233-.644-.35-1.367-.35-2.17 0-.812.112-1.535.336-2.17a4.47 4.47 0 0 1 .994-1.61c.439-.448.97-.789 1.596-1.022.625-.233 1.34-.35 2.142-.35.69 0 1.279.07 1.764.21.495.13.887.285 1.176.462v1.512a4.222 4.222 0 0 0-1.316-.532 6.221 6.221 0 0 0-1.568-.196c-1.13 0-1.97.308-2.52.924-.541.607-.812 1.53-.812 2.772 0 2.464 1.139 3.696 3.416 3.696.532 0 1.032-.065 1.498-.196.476-.13.91-.336 1.302-.616v1.498c-.261.196-.64.373-1.134.532-.494.159-1.092.238-1.792.238Zm7.674 0a3.96 3.96 0 0 1-1.428-.252 3.344 3.344 0 0 1-1.148-.728 3.605 3.605 0 0 1-.756-1.19c-.177-.467-.266-1.003-.266-1.61 0-.607.089-1.143.266-1.61.187-.467.439-.859.756-1.176.327-.327.71-.57 1.148-.728a3.96 3.96 0 0 1 1.428-.252c.514 0 .99.084 1.428.252a3.09 3.09 0 0 1 1.148.728c.327.317.584.71.77 1.176.187.467.28 1.003.28 1.61 0 .607-.093 1.143-.28 1.61a3.495 3.495 0 0 1-.77 1.19c-.326.317-.709.56-1.148.728a3.96 3.96 0 0 1-1.428.252Zm0-1.358c.56 0 1.022-.196 1.386-.588.374-.392.56-1.003.56-1.834 0-.821-.186-1.428-.56-1.82-.364-.401-.826-.602-1.386-.602-.55 0-1.012.2-1.386.602-.364.392-.546.999-.546 1.82 0 .83.182 1.442.546 1.834.374.392.836.588 1.386.588Zm8.541-4.844c-.476 0-.868.103-1.176.308-.308.196-.56.453-.756.77V23H34.78v-7.266h1.54l.056 1.19h.028c.196-.383.49-.7.882-.952.401-.252.91-.378 1.526-.378.71 0 1.288.191 1.736.574.457.383.686.966.686 1.75V23h-1.638v-4.914c0-.42-.112-.714-.336-.882-.224-.177-.532-.266-.924-.266Zm8.54 5.838a2.329 2.329 0 0 1-.63.252 3.06 3.06 0 0 1-.868.112c-.392 0-.724-.051-.994-.154a1.809 1.809 0 0 1-.644-.448 1.696 1.696 0 0 1-.364-.644 2.794 2.794 0 0 1-.112-.798V17.05h-.868v-1.316h.868v-1.526h1.624v1.526h2.086v1.316h-2.086v3.864c0 .299.07.518.21.658.149.14.392.21.728.21.224 0 .42-.033.588-.098a1.75 1.75 0 0 0 .462-.266v1.358Zm5.694-1.05a2.435 2.435 0 0 1-.308.504 2.165 2.165 0 0 1-.462.462c-.178.13-.392.238-.644.322a2.792 2.792 0 0 1-.882.126 2.69 2.69 0 0 1-.882-.14 1.975 1.975 0 0 1-.714-.392 2.024 2.024 0 0 1-.476-.658 2.399 2.399 0 0 1-.168-.924c0-.793.294-1.386.882-1.778.588-.401 1.418-.602 2.492-.602h1.106v-.448c0-.476-.122-.803-.364-.98-.243-.187-.644-.28-1.204-.28-.476 0-.924.07-1.344.21-.411.13-.775.285-1.092.462v-1.358c.289-.159.672-.308 1.148-.448.476-.14.994-.21 1.554-.21.933 0 1.652.196 2.156.588.513.383.77.999.77 1.848v4.088c.009.103.014.21.014.322.009.112.018.22.028.322.009.093.018.173.028.238H52.71a6.4 6.4 0 0 1-.084-.546 21.79 21.79 0 0 1-.042-.63l-.014-.098Zm-1.848.154c.345 0 .63-.07.854-.21.233-.15.42-.317.56-.504.14-.196.238-.387.294-.574a1.63 1.63 0 0 0 .084-.392v-.49h-1.008c-.644 0-1.116.103-1.414.308a.946.946 0 0 0-.448.84c0 .317.088.57.266.756.186.177.457.266.812.266Zm8.514 1.26a4.65 4.65 0 0 1-1.582-.252 3.433 3.433 0 0 1-1.19-.742 3.33 3.33 0 0 1-.756-1.19c-.178-.467-.267-.999-.267-1.596 0-.588.09-1.115.267-1.582a3.162 3.162 0 0 1 1.96-1.918 4.544 4.544 0 0 1 1.596-.266 4.6 4.6 0 0 1 1.316.168c.382.112.686.252.91.42v1.344a3.68 3.68 0 0 0-.953-.434 4.036 4.036 0 0 0-1.175-.154c-1.503 0-2.255.807-2.255 2.422 0 1.615.738 2.422 2.212 2.422.476 0 .883-.051 1.218-.154a4.9 4.9 0 0 0 .953-.42v1.344a3.945 3.945 0 0 1-.91.42c-.364.112-.813.168-1.344.168Zm7.628-.364a2.329 2.329 0 0 1-.63.252 3.06 3.06 0 0 1-.868.112c-.392 0-.724-.051-.994-.154a1.809 1.809 0 0 1-.644-.448 1.696 1.696 0 0 1-.364-.644 2.794 2.794 0 0 1-.112-.798V17.05h-.868v-1.316h.868v-1.526h1.624v1.526h2.086v1.316h-2.086v3.864c0 .299.07.518.21.658.15.14.392.21.728.21.224 0 .42-.033.588-.098a1.75 1.75 0 0 0 .462-.266v1.358Zm6.978.364c-.364 0-.695-.033-.994-.098a4.8 4.8 0 0 1-.77-.21 3.708 3.708 0 0 1-.574-.266 3.907 3.907 0 0 1-.364-.252v-1.288c.093.084.22.177.378.28.168.093.36.187.574.28a4.8 4.8 0 0 0 1.694.294c.513 0 .887-.075 1.12-.224a.77.77 0 0 0 .364-.686c0-.196-.047-.35-.14-.462a.952.952 0 0 0-.378-.266 2.233 2.233 0 0 0-.56-.14c-.205-.037-.42-.08-.644-.126a9.773 9.773 0 0 1-.868-.21 3.108 3.108 0 0 1-.77-.378 1.979 1.979 0 0 1-.56-.616c-.14-.252-.21-.574-.21-.966 0-.69.257-1.232.77-1.624.513-.392 1.246-.588 2.198-.588.541 0 1.008.056 1.4.168.401.112.695.229.882.35V17.4a3.438 3.438 0 0 0-.868-.392c-.355-.112-.803-.168-1.344-.168-.532 0-.92.07-1.162.21-.243.14-.364.36-.364.658 0 .168.042.303.126.406.093.093.21.168.35.224.15.056.317.103.504.14a10.936 10.936 0 0 1 1.484.308c.308.075.583.196.826.364.252.159.457.373.616.644.159.27.238.62.238 1.05 0 .439-.084.807-.252 1.106-.168.29-.392.523-.672.7-.28.177-.597.303-.952.378a5.217 5.217 0 0 1-1.078.112Zm8.94-1.33c-.197.373-.49.69-.883.952-.382.252-.886.378-1.512.378-.681 0-1.236-.196-1.666-.588-.429-.392-.644-.99-.644-1.792v-5.026h1.638v4.984c0 .42.117.705.35.854.234.14.518.21.854.21.458 0 .831-.093 1.12-.28.29-.196.537-.457.742-.784v-4.984h1.61V23h-1.484l-.098-1.19h-.028Zm7.45 1.33c-.551 0-1.027-.121-1.429-.364a2.903 2.903 0 0 1-.952-1.008v3.71h-1.624v-9.744h1.484l.112 1.288c.243-.439.565-.784.966-1.036.402-.261.892-.392 1.47-.392.43 0 .836.08 1.218.238.392.15.733.383 1.022.7.29.308.518.7.686 1.176.178.467.266 1.017.266 1.652 0 .644-.088 1.204-.266 1.68a3.341 3.341 0 0 1-.7 1.176c-.289.308-.63.541-1.022.7-.392.15-.802.224-1.232.224Zm-.393-1.358c.579 0 1.046-.196 1.4-.588.364-.401.546-1.013.546-1.834 0-.812-.182-1.419-.546-1.82-.354-.401-.816-.602-1.386-.602-.289 0-.555.051-.798.154a1.677 1.677 0 0 0-.644.448 2.25 2.25 0 0 0-.42.77 3.232 3.232 0 0 0-.154 1.05c0 .41.052.77.154 1.078.103.299.243.55.42.756.178.196.388.345.63.448.252.093.518.14.798.14Zm8.992 1.358c-.55 0-1.027-.121-1.428-.364a2.904 2.904 0 0 1-.952-1.008v3.71h-1.624v-9.744h1.484l.112 1.288c.243-.439.565-.784.966-1.036.401-.261.891-.392 1.47-.392.43 0 .835.08 1.218.238.392.15.733.383 1.022.7.289.308.518.7.686 1.176.177.467.266 1.017.266 1.652 0 .644-.089 1.204-.266 1.68a3.335 3.335 0 0 1-.7 1.176c-.289.308-.63.541-1.022.7-.392.15-.803.224-1.232.224Zm-.392-1.358c.579 0 1.045-.196 1.4-.588.364-.401.546-1.013.546-1.834 0-.812-.182-1.419-.546-1.82-.355-.401-.817-.602-1.386-.602-.29 0-.555.051-.798.154a1.678 1.678 0 0 0-.644.448 2.253 2.253 0 0 0-.42.77 3.232 3.232 0 0 0-.154 1.05c0 .41.051.77.154 1.078.103.299.243.55.42.756.177.196.387.345.63.448.252.093.518.14.798.14Zm8.138 1.358c-.514 0-.99-.084-1.428-.252a3.336 3.336 0 0 1-1.148-.728 3.585 3.585 0 0 1-.756-1.19c-.178-.467-.266-1.003-.266-1.61 0-.607.088-1.143.266-1.61a3.43 3.43 0 0 1 .756-1.176c.326-.327.709-.57 1.148-.728a3.955 3.955 0 0 1 1.428-.252c.513 0 .989.084 1.428.252.438.159.821.401 1.148.728.326.317.583.71.77 1.176.186.467.28 1.003.28 1.61 0 .607-.094 1.143-.28 1.61a3.509 3.509 0 0 1-.77 1.19c-.327.317-.71.56-1.148.728a3.962 3.962 0 0 1-1.428.252Zm0-1.358c.56 0 1.022-.196 1.386-.588.373-.392.56-1.003.56-1.834 0-.821-.187-1.428-.56-1.82-.364-.401-.826-.602-1.386-.602-.551 0-1.013.2-1.386.602-.364.392-.546.999-.546 1.82 0 .83.182 1.442.546 1.834.373.392.835.588 1.386.588Zm9.03-4.48a3.58 3.58 0 0 0-1.442.252 1.973 1.973 0 0 0-.98.84V23h-1.624v-7.266h1.484l.112 1.512h.028c.234-.448.551-.821.952-1.12.411-.299.901-.476 1.47-.532v1.708Zm5.302 5.474a2.329 2.329 0 0 1-.63.252 3.062 3.062 0 0 1-.868.112c-.392 0-.724-.051-.994-.154a1.804 1.804 0 0 1-.644-.448 1.688 1.688 0 0 1-.364-.644 2.783 2.783 0 0 1-.112-.798V17.05h-.868v-1.316h.868v-1.526h1.624v1.526h2.086v1.316h-2.086v3.864c0 .299.07.518.21.658.149.14.392.21.728.21.224 0 .42-.033.588-.098a1.75 1.75 0 0 0 .462-.266v1.358Z"/></svg>