<svg xmlns="http://www.w3.org/2000/svg" width="1132" height="486" fill="none"><path fill="#fff" d="M0 0h1132v486H0z"/><rect width="304" height="88" x="414" y="1" fill="#fff" rx="5"/><path fill="#1E2126" d="M506.208 50.3h1.84v5.1h-1.74l-.2-3.4h-10.3l-.22 3.4h-1.7v-5.1h.98c.453-.413.813-.967 1.08-1.66.28-.707.493-1.573.64-2.6.147-1.027.253-2.233.32-3.62s.12-2.973.16-4.76h9.14V50.3Zm-1.9 0V39.38h-5.48c-.04 1.52-.1 2.867-.18 4.04a28.926 28.926 0 0 1-.32 3.06c-.133.88-.307 1.633-.52 2.26-.2.613-.453 1.133-.76 1.56h7.26Zm14.136.82a5.65 5.65 0 0 1-.54.34c-.213.12-.473.24-.78.36a6.577 6.577 0 0 1-1.04.26c-.387.08-.82.12-1.3.12-1.747 0-3.073-.473-3.98-1.42s-1.36-2.273-1.36-3.98c0-.84.12-1.593.36-2.26.253-.667.6-1.227 1.04-1.68.44-.467.96-.82 1.56-1.06.6-.253 1.253-.38 1.96-.38.747 0 1.413.127 2 .38a3.518 3.518 0 0 1 1.44 1.12c.387.493.647 1.107.78 1.84.147.72.147 1.56 0 2.52h-7.32c.067 1.12.4 1.96 1 2.52.6.547 1.493.82 2.68.82.8 0 1.487-.113 2.06-.34a7.235 7.235 0 0 0 1.44-.74v1.58Zm-4.12-8.14c-.76 0-1.413.233-1.96.7-.547.467-.893 1.173-1.04 2.12h5.58c.053-.96-.167-1.667-.66-2.12-.493-.467-1.133-.7-1.92-.7Zm9.302 4.6h-.92V52h-1.76V41.62h1.76v4.46h1l3.64-4.46h2l-4.26 5.12 4.34 5.26h-2.14l-3.66-4.42Zm11.521 4.62a5.39 5.39 0 0 1-1.98-.36 4.622 4.622 0 0 1-1.6-1.04 5.079 5.079 0 0 1-1.04-1.7c-.253-.667-.38-1.433-.38-2.3 0-.853.127-1.613.38-2.28.254-.68.6-1.247 1.04-1.7.454-.453.987-.8 1.6-1.04a5.39 5.39 0 0 1 1.98-.36c.72 0 1.387.12 2 .36.614.24 1.14.587 1.58 1.04.454.453.807 1.02 1.06 1.7.267.667.4 1.427.4 2.28 0 .867-.133 1.633-.4 2.3a4.89 4.89 0 0 1-1.06 1.7c-.44.453-.966.8-1.58 1.04a5.44 5.44 0 0 1-2 .36Zm0-1.58c.467 0 .894-.073 1.28-.22.4-.16.747-.393 1.04-.7.294-.32.52-.72.68-1.2.16-.48.24-1.047.24-1.7s-.08-1.22-.24-1.7c-.16-.48-.386-.873-.68-1.18a2.612 2.612 0 0 0-1.04-.7 3.313 3.313 0 0 0-1.28-.24c-.466 0-.893.08-1.28.24-.386.147-.726.38-1.02.7-.28.307-.5.7-.66 1.18-.16.48-.24 1.047-.24 1.7s.08 1.22.24 1.7c.16.48.38.88.66 1.2.294.307.634.54 1.02.7.387.147.814.22 1.28.22Zm17.086-6.96-3.52 7.18h-1.4l-3.32-7.22V52h-1.66V41.62h2.62l3.18 6.96 3.4-6.96h2.44V52h-1.74v-8.34Zm4.611-2.04h8.32V52h-1.76v-8.88h-4.8V52h-1.76V41.62Zm15.452 10.58c-.707 0-1.367-.12-1.98-.36a4.603 4.603 0 0 1-1.6-1.04 5.063 5.063 0 0 1-1.04-1.7c-.254-.667-.38-1.433-.38-2.3 0-.853.126-1.613.38-2.28.253-.68.6-1.247 1.04-1.7.453-.453.986-.8 1.6-1.04a5.383 5.383 0 0 1 1.98-.36c.72 0 1.386.12 2 .36.613.24 1.14.587 1.58 1.04.453.453.806 1.02 1.06 1.7.266.667.4 1.427.4 2.28 0 .867-.134 1.633-.4 2.3a4.92 4.92 0 0 1-1.06 1.7c-.44.453-.967.8-1.58 1.04-.614.24-1.28.36-2 .36Zm0-1.58c.466 0 .893-.073 1.28-.22.4-.16.746-.393 1.04-.7.293-.32.52-.72.68-1.2.16-.48.24-1.047.24-1.7s-.08-1.22-.24-1.7c-.16-.48-.387-.873-.68-1.18a2.62 2.62 0 0 0-1.04-.7 3.32 3.32 0 0 0-1.28-.24c-.467 0-.894.08-1.28.24-.387.147-.727.38-1.02.7-.28.307-.5.7-.66 1.18-.16.48-.24 1.047-.24 1.7s.08 1.22.24 1.7c.16.48.38.88.66 1.2.293.307.633.54 1.02.7.386.147.813.22 1.28.22Zm14.447-1.64c0 .587-.12 1.087-.36 1.5-.226.4-.54.733-.94 1-.4.253-.866.433-1.4.54a7.27 7.27 0 0 1-1.64.18c-.76 0-1.433-.08-2.02-.24-.573-.16-1.026-.353-1.36-.58V49.8c.414.253.907.453 1.48.6.574.147 1.194.22 1.86.22.76 0 1.394-.12 1.9-.36.52-.253.78-.68.78-1.28 0-.587-.22-1-.66-1.24-.426-.24-1.086-.36-1.98-.36h-1.38v-1.42h1.44c.734 0 1.294-.133 1.68-.4.387-.267.58-.653.58-1.16 0-.267-.066-.487-.2-.66a1.233 1.233 0 0 0-.5-.44c-.213-.12-.466-.2-.76-.24-.28-.053-.58-.08-.9-.08-.613 0-1.186.073-1.72.22-.52.147-.993.353-1.42.62v-1.58c.347-.227.794-.42 1.34-.58.56-.16 1.207-.24 1.94-.24 1.267 0 2.22.24 2.86.72.654.48.98 1.173.98 2.08 0 .68-.186 1.213-.56 1.6-.36.387-.873.653-1.54.8.827.107 1.447.367 1.86.78.427.413.64.94.64 1.58Zm4.342.62 5.54-7.98h1.78V52h-1.76v-7.96l-5.52 7.96h-1.8V41.62h1.76v7.98Zm18.653 2.4h-8.46V41.62h1.76v8.88h5.1v-8.88h1.76v8.88h1.56v4.46h-1.5l-.22-2.96Zm5.312-2.4 5.54-7.98h1.78V52h-1.76v-7.96L615.09 52h-1.8V41.62h1.76v7.98Zm10.193-4.62c0-.587.106-1.087.32-1.5.213-.427.513-.773.9-1.04.386-.28.846-.487 1.38-.62a7.161 7.161 0 0 1 1.74-.2h3.34V52h-1.76v-3.76h-1.9l-2.66 3.76h-2.1l3-4.2c-.72-.213-1.28-.54-1.68-.98-.387-.44-.58-1.053-.58-1.84Zm5.92 1.76v-3.62h-1.58c-.747 0-1.36.14-1.84.42-.48.28-.72.733-.72 1.36 0 .653.213 1.127.64 1.42.426.28 1.033.42 1.82.42h1.68Z"/><rect width="304" height="88" x="414" y="1" stroke="#1E2126" stroke-width="2" rx="5"/><rect width="306" height="90" x="413" y="396" fill="url(#a)" rx="6"/><path fill="#0055D9" d="M501.242 434.094h9.702V447h-1.71v-11.358h-6.3V447h-1.692v-12.906Zm16.327 13.086c-.636 0-1.23-.108-1.782-.324a4.15 4.15 0 0 1-1.44-.936 4.561 4.561 0 0 1-.936-1.53c-.228-.6-.342-1.29-.342-2.07 0-.768.114-1.452.342-2.052.228-.612.54-1.122.936-1.53a4.15 4.15 0 0 1 1.44-.936 4.847 4.847 0 0 1 1.782-.324c.648 0 1.248.108 1.8.324a3.97 3.97 0 0 1 1.422.936c.408.408.726.918.954 1.53.24.6.36 1.284.36 2.052 0 .78-.12 1.47-.36 2.07-.228.6-.546 1.11-.954 1.53a3.97 3.97 0 0 1-1.422.936 4.897 4.897 0 0 1-1.8.324Zm0-1.422c.42 0 .804-.066 1.152-.198.36-.144.672-.354.936-.63.264-.288.468-.648.612-1.08.144-.432.216-.942.216-1.53 0-.588-.072-1.098-.216-1.53-.144-.432-.348-.786-.612-1.062a2.353 2.353 0 0 0-.936-.63 2.985 2.985 0 0 0-1.152-.216c-.42 0-.804.072-1.152.216a2.378 2.378 0 0 0-.918.63c-.252.276-.45.63-.594 1.062-.144.432-.216.942-.216 1.53 0 .588.072 1.098.216 1.53.144.432.342.792.594 1.08.264.276.57.486.918.63.348.132.732.198 1.152.198Zm6.467-8.1h7.488V447h-1.584v-7.992h-4.32V447h-1.584v-9.342Zm13.907 9.522c-.636 0-1.23-.108-1.782-.324a4.15 4.15 0 0 1-1.44-.936 4.561 4.561 0 0 1-.936-1.53c-.228-.6-.342-1.29-.342-2.07 0-.768.114-1.452.342-2.052.228-.612.54-1.122.936-1.53a4.15 4.15 0 0 1 1.44-.936 4.847 4.847 0 0 1 1.782-.324c.648 0 1.248.108 1.8.324a3.97 3.97 0 0 1 1.422.936c.408.408.726.918.954 1.53.24.6.36 1.284.36 2.052 0 .78-.12 1.47-.36 2.07-.228.6-.546 1.11-.954 1.53a3.97 3.97 0 0 1-1.422.936 4.897 4.897 0 0 1-1.8.324Zm0-1.422c.42 0 .804-.066 1.152-.198.36-.144.672-.354.936-.63.264-.288.468-.648.612-1.08.144-.432.216-.942.216-1.53 0-.588-.072-1.098-.216-1.53-.144-.432-.348-.786-.612-1.062a2.353 2.353 0 0 0-.936-.63 2.985 2.985 0 0 0-1.152-.216c-.42 0-.804.072-1.152.216a2.378 2.378 0 0 0-.918.63c-.252.276-.45.63-.594 1.062-.144.432-.217.942-.217 1.53 0 .588.073 1.098.217 1.53.144.432.342.792.594 1.08.264.276.57.486.918.63.348.132.732.198 1.152.198Zm6.923-1.656c.168-.612.276-1.44.324-2.484.048-1.044.072-2.364.072-3.96h6.282V447h-1.602v-7.992h-3.186a55.125 55.125 0 0 1-.126 3.42c-.06.996-.198 1.836-.414 2.52-.204.684-.51 1.206-.918 1.566-.396.348-.93.522-1.602.522h-.144a.834.834 0 0 1-.162-.018v-1.566c.06.012.138.018.234.018.612 0 1.026-.456 1.242-1.368Zm15.348-1.242h-4.518V447h-1.584v-9.342h1.584v3.852h4.518v-3.852h1.584V447h-1.584v-4.14Zm5.766 1.98 4.986-7.182h1.602V447h-1.584v-7.164L566.016 447h-1.62v-9.342h1.584v7.182Zm12.935-5.832V447h-1.584v-7.992h-2.934v-1.35h7.506v1.35h-2.988Zm11.765 4.878c0 .54-.096 1.008-.288 1.404-.192.396-.462.72-.81.972a3.57 3.57 0 0 1-1.242.558c-.48.12-1.002.18-1.566.18h-3.096v-9.342h1.584v3.258h1.62c1.188 0 2.118.234 2.79.702.672.468 1.008 1.224 1.008 2.268Zm-5.418-1.62v3.384h1.512c.684 0 1.236-.126 1.656-.378.432-.264.648-.696.648-1.296 0-.612-.192-1.05-.576-1.314-.384-.264-.924-.396-1.62-.396h-1.62Zm15.421 4.914c-.72 0-1.374-.108-1.962-.324a4.292 4.292 0 0 1-1.476-.954c-.408-.42-.72-.93-.936-1.53-.216-.6-.324-1.284-.324-2.052 0-.756.108-1.434.324-2.034.228-.6.546-1.104.954-1.512.408-.42.906-.738 1.494-.954.588-.228 1.254-.342 1.998-.342.576 0 1.104.066 1.584.198.48.12.876.3 1.188.54v1.422a4.197 4.197 0 0 0-1.296-.558 5.345 5.345 0 0 0-1.458-.198c-1.092 0-1.896.282-2.412.846-.504.564-.756 1.428-.756 2.592 0 1.164.246 2.028.738 2.592.492.564 1.272.846 2.34.846.564 0 1.08-.066 1.548-.198.48-.144.912-.324 1.296-.54v1.422a5.286 5.286 0 0 1-1.224.522c-.468.144-1.008.216-1.62.216ZM612.8 447h-1.584v-4.104c-.324.252-.702.45-1.134.594-.42.132-.9.198-1.44.198-1.056 0-1.866-.258-2.43-.774-.552-.528-.828-1.368-.828-2.52v-2.736h1.602v2.754c0 .732.168 1.242.504 1.53.336.288.81.432 1.422.432.42 0 .828-.06 1.224-.18s.756-.306 1.08-.558v-3.978h1.584V447Zm10.024-.792a5.016 5.016 0 0 1-.486.306 5.636 5.636 0 0 1-.702.324 5.92 5.92 0 0 1-.936.234 5.796 5.796 0 0 1-1.17.108c-1.572 0-2.766-.426-3.582-1.278-.816-.852-1.224-2.046-1.224-3.582 0-.756.108-1.434.324-2.034.228-.6.54-1.104.936-1.512.396-.42.864-.738 1.404-.954a4.489 4.489 0 0 1 1.764-.342c.672 0 1.272.114 1.8.342.528.228.96.564 1.296 1.008.348.444.582.996.702 1.656.132.648.132 1.404 0 2.268h-6.588c.06 1.008.36 1.764.9 2.268.54.492 1.344.738 2.412.738.72 0 1.338-.102 1.854-.306a6.495 6.495 0 0 0 1.296-.666v1.422Zm-3.708-7.326c-.684 0-1.272.21-1.764.63-.492.42-.804 1.056-.936 1.908h5.022c.048-.864-.15-1.5-.594-1.908-.444-.42-1.02-.63-1.728-.63Zm9.633.126V447h-1.584v-7.992h-2.934v-1.35h7.506v1.35h-2.988Z"/><rect width="306" height="90" x="826" y="396" fill="url(#b)" rx="6"/><path fill="#0055D9" d="M922.861 441.096v-1.44h1.818c.9 0 1.584-.192 2.052-.576.468-.396.702-.936.702-1.62 0-.732-.246-1.248-.738-1.548-.492-.312-1.14-.468-1.944-.468-.828 0-1.572.09-2.232.27-.66.18-1.242.402-1.746.666v-1.602c.396-.204.912-.396 1.548-.576.648-.18 1.464-.27 2.448-.27 1.344 0 2.412.282 3.204.846.792.552 1.188 1.41 1.188 2.574 0 .756-.228 1.38-.684 1.872-.444.492-1.098.84-1.962 1.044 1.02.132 1.788.444 2.304.936.528.48.792 1.17.792 2.07 0 .684-.132 1.278-.396 1.782a3.37 3.37 0 0 1-1.08 1.206 4.782 4.782 0 0 1-1.584.702 8.466 8.466 0 0 1-1.944.216c-.972 0-1.806-.114-2.502-.342-.696-.24-1.206-.498-1.53-.774v-1.62c1.116.804 2.442 1.206 3.978 1.206a7.04 7.04 0 0 0 1.26-.108 3.375 3.375 0 0 0 1.044-.396c.3-.18.534-.42.702-.72.18-.3.27-.672.27-1.116 0-.816-.264-1.386-.792-1.71-.516-.336-1.29-.504-2.322-.504h-1.854Zm14.444 4.122a5.472 5.472 0 0 1-.414.684 3.132 3.132 0 0 1-1.53 1.098c-.336.12-.732.18-1.188.18-.84 0-1.518-.234-2.034-.702-.516-.48-.774-1.164-.774-2.052 0-1.02.354-1.77 1.062-2.25.72-.48 1.74-.72 3.06-.72h1.746v-.774c0-.648-.168-1.11-.504-1.386-.336-.276-.912-.414-1.728-.414-.576 0-1.122.096-1.638.288-.516.18-.978.39-1.386.63v-1.422c.336-.204.786-.402 1.35-.594a5.625 5.625 0 0 1 1.89-.306c1.176 0 2.07.246 2.682.738.612.48.918 1.23.918 2.25v5.4c.012.132.018.27.018.414l.036.414c.012.12.024.222.036.306h-1.44a8.223 8.223 0 0 1-.108-.702 10.76 10.76 0 0 1-.036-.81l-.018-.27Zm-2.79.54c.492 0 .912-.102 1.26-.306.348-.204.63-.438.846-.702a3.1 3.1 0 0 0 .468-.792c.096-.264.144-.45.144-.558v-.684h-1.584c-.948 0-1.638.138-2.07.414-.42.264-.63.666-.63 1.206 0 .42.126.762.378 1.026s.648.396 1.188.396Zm6.793-8.1h7.488V447h-1.584v-7.992h-4.32V447h-1.584v-9.342Zm14.662 9.234a10.698 10.698 0 0 1-.684 1.476c-.24.432-.51.798-.81 1.098-.3.3-.636.522-1.008.666a3.28 3.28 0 0 1-1.278.234c-.24 0-.462-.018-.666-.054a2.004 2.004 0 0 1-.558-.144v-1.53c.132.096.3.168.504.216.204.06.426.09.666.09.444 0 .81-.108 1.098-.324.288-.204.564-.534.828-.99l-3.798-9.972h1.746l2.97 7.884 2.952-7.884h1.53l-3.492 9.234Zm8.917.288c-.72 0-1.374-.108-1.962-.324a4.292 4.292 0 0 1-1.476-.954c-.408-.42-.72-.93-.936-1.53-.216-.6-.324-1.284-.324-2.052 0-.756.108-1.434.324-2.034.228-.6.546-1.104.954-1.512.408-.42.906-.738 1.494-.954.588-.228 1.254-.342 1.998-.342.576 0 1.104.066 1.584.198.48.12.876.3 1.188.54v1.422a4.197 4.197 0 0 0-1.296-.558 5.345 5.345 0 0 0-1.458-.198c-1.092 0-1.896.282-2.412.846-.504.564-.756 1.428-.756 2.592 0 1.164.246 2.028.738 2.592.492.564 1.272.846 2.34.846.564 0 1.08-.066 1.548-.198.48-.144.912-.324 1.296-.54v1.422a5.286 5.286 0 0 1-1.224.522c-.468.144-1.008.216-1.62.216Zm8.73-8.172V447h-1.584v-7.992h-2.934v-1.35h7.506v1.35h-2.988Zm6.4 5.832 4.986-7.182h1.602V447h-1.584v-7.164L980.053 447h-1.62v-9.342h1.584v7.182Zm12.936-5.832V447h-1.584v-7.992h-2.934v-1.35h7.506v1.35h-2.988Zm11.767 4.878c0 .54-.1 1.008-.29 1.404-.19.396-.46.72-.81.972-.35.252-.76.438-1.24.558-.48.12-1.01.18-1.57.18h-3.095v-9.342h1.584v3.258h1.621c1.19 0 2.12.234 2.79.702.67.468 1.01 1.224 1.01 2.268Zm-5.421-1.62v3.384h1.511c.68 0 1.24-.126 1.66-.378.43-.264.64-.696.64-1.296 0-.612-.19-1.05-.57-1.314-.39-.264-.93-.396-1.62-.396h-1.621Zm11.391-4.608h7.49V447h-1.59v-7.992h-4.32V447h-1.58v-9.342Zm14.66 9.234c-.22.564-.44 1.056-.68 1.476-.24.432-.51.798-.81 1.098-.3.3-.64.522-1.01.666-.37.156-.8.234-1.28.234-.24 0-.46-.018-.67-.054-.2-.024-.39-.072-.55-.144v-1.53c.13.096.3.168.5.216.2.06.43.09.67.09.44 0 .81-.108 1.09-.324.29-.204.57-.534.83-.99l-3.8-9.972h1.75l2.97 7.884 2.95-7.884h1.53l-3.49 9.234Zm5.06-2.79c.17-.612.28-1.44.32-2.484.05-1.044.08-2.364.08-3.96h6.28V447h-1.6v-7.992h-3.19a48.096 48.096 0 0 1-.13 3.42c-.06.996-.19 1.836-.41 2.52-.2.684-.51 1.206-.92 1.566-.39.348-.93.522-1.6.522h-.14a.895.895 0 0 1-.17-.018v-1.566c.06.012.14.018.24.018.61 0 1.02-.456 1.24-1.368Z"/><rect width="306" height="90" y="396" fill="url(#c)" rx="6"/><path fill="#0055D9" d="M53.548 441.096v-1.44h1.818c.9 0 1.584-.192 2.052-.576.468-.396.702-.936.702-1.62 0-.732-.246-1.248-.738-1.548-.492-.312-1.14-.468-1.944-.468-.828 0-1.572.09-2.232.27-.66.18-1.242.402-1.746.666v-1.602c.396-.204.912-.396 1.548-.576.648-.18 1.464-.27 2.448-.27 1.344 0 2.412.282 3.204.846.792.552 1.188 1.41 1.188 2.574 0 .756-.228 1.38-.684 1.872-.444.492-1.098.84-1.962 1.044 1.02.132 1.788.444 2.304.936.528.48.792 1.17.792 2.07 0 .684-.132 1.278-.396 1.782a3.37 3.37 0 0 1-1.08 1.206 4.782 4.782 0 0 1-1.584.702 8.466 8.466 0 0 1-1.944.216c-.972 0-1.806-.114-2.502-.342-.696-.24-1.206-.498-1.53-.774v-1.62c1.116.804 2.442 1.206 3.978 1.206a7.04 7.04 0 0 0 1.26-.108 3.375 3.375 0 0 0 1.044-.396c.3-.18.534-.42.702-.72.18-.3.27-.672.27-1.116 0-.816-.264-1.386-.792-1.71-.516-.336-1.29-.504-2.322-.504h-1.854Zm14.445 4.122a5.472 5.472 0 0 1-.414.684 3.132 3.132 0 0 1-1.53 1.098c-.336.12-.732.18-1.188.18-.84 0-1.518-.234-2.034-.702-.516-.48-.774-1.164-.774-2.052 0-1.02.354-1.77 1.062-2.25.72-.48 1.74-.72 3.06-.72h1.746v-.774c0-.648-.168-1.11-.504-1.386-.336-.276-.912-.414-1.728-.414-.576 0-1.122.096-1.638.288-.516.18-.978.39-1.386.63v-1.422c.336-.204.786-.402 1.35-.594a5.625 5.625 0 0 1 1.89-.306c1.176 0 2.07.246 2.682.738.612.48.918 1.23.918 2.25v5.4c.012.132.018.27.018.414l.036.414c.012.12.024.222.036.306h-1.44a8.223 8.223 0 0 1-.108-.702 10.76 10.76 0 0 1-.036-.81l-.018-.27Zm-2.79.54c.492 0 .912-.102 1.26-.306.348-.204.63-.438.846-.702a3.1 3.1 0 0 0 .468-.792c.096-.264.144-.45.144-.558v-.684h-1.584c-.948 0-1.638.138-2.07.414-.42.264-.63.666-.63 1.206 0 .42.126.762.378 1.026s.648.396 1.188.396Zm6.792-8.1h5.94v1.35H73.58V447h-1.584v-9.342Zm12.556 9.522c-.72 0-1.344-.168-1.872-.504a3.665 3.665 0 0 1-1.242-1.386v4.896h-1.584v-12.528h1.386l.162 1.818a3.832 3.832 0 0 1 1.26-1.458c.528-.36 1.182-.54 1.962-.54.54 0 1.056.102 1.548.306.504.192.942.492 1.314.9.384.396.684.9.9 1.512.228.6.342 1.308.342 2.124 0 .828-.114 1.548-.342 2.16a4.515 4.515 0 0 1-.918 1.512 3.85 3.85 0 0 1-1.332.9 4.412 4.412 0 0 1-1.584.288Zm-.234-1.422c.828 0 1.494-.282 1.998-.846.516-.576.774-1.44.774-2.592 0-1.128-.258-1.98-.774-2.556-.504-.588-1.17-.882-1.998-.882-.408 0-.792.072-1.152.216-.348.144-.654.36-.918.648-.252.276-.456.63-.612 1.062-.144.432-.216.936-.216 1.512s.072 1.08.216 1.512c.156.432.36.792.612 1.08.264.288.57.504.918.648.36.132.744.198 1.152.198Zm10.83 1.134a10.698 10.698 0 0 1-.683 1.476c-.24.432-.51.798-.81 1.098-.3.3-.636.522-1.008.666a3.28 3.28 0 0 1-1.278.234c-.24 0-.462-.018-.666-.054a2.004 2.004 0 0 1-.558-.144v-1.53c.132.096.3.168.504.216.204.06.426.09.666.09.444 0 .81-.108 1.098-.324.288-.204.564-.534.828-.99l-3.798-9.972h1.746l2.97 7.884 2.952-7.884h1.53l-3.492 9.234Zm11.685-2.61c0 .528-.108.978-.324 1.35-.204.36-.486.66-.846.9-.36.228-.78.39-1.26.486-.468.108-.96.162-1.476.162-.684 0-1.29-.072-1.818-.216-.516-.144-.924-.318-1.224-.522v-1.422c.372.228.816.408 1.332.54a6.74 6.74 0 0 0 1.674.198c.684 0 1.254-.108 1.71-.324.468-.228.702-.612.702-1.152 0-.528-.198-.9-.594-1.116-.384-.216-.978-.324-1.782-.324h-1.242v-1.278h1.296c.66 0 1.164-.12 1.512-.36.348-.24.522-.588.522-1.044 0-.24-.06-.438-.18-.594a1.114 1.114 0 0 0-.45-.396 1.91 1.91 0 0 0-.684-.216 4.328 4.328 0 0 0-.81-.072c-.552 0-1.068.066-1.548.198a4.912 4.912 0 0 0-1.278.558v-1.422c.312-.204.714-.378 1.206-.522.504-.144 1.086-.216 1.746-.216 1.14 0 1.998.216 2.574.648.588.432.882 1.056.882 1.872 0 .612-.168 1.092-.504 1.44-.324.348-.786.588-1.386.72.744.096 1.302.33 1.674.702.384.372.576.846.576 1.422Zm3.907.558 4.986-7.182h1.602V447h-1.584v-7.164L110.775 447h-1.62v-9.342h1.584v7.182Zm12.936-5.832V447h-1.584v-7.992h-2.934v-1.35h7.506v1.35h-2.988Zm11.764 4.878c0 .54-.096 1.008-.288 1.404-.192.396-.462.72-.81.972a3.57 3.57 0 0 1-1.242.558c-.48.12-1.002.18-1.566.18h-3.096v-9.342h1.584v3.258h1.62c1.188 0 2.118.234 2.79.702.672.468 1.008 1.224 1.008 2.268Zm-5.418-1.62v3.384h1.512c.684 0 1.236-.126 1.656-.378.432-.264.648-.696.648-1.296 0-.612-.192-1.05-.576-1.314-.384-.264-.924-.396-1.62-.396h-1.62Zm18.014 2.016c0 .528-.108.978-.324 1.35-.204.36-.486.66-.846.9-.36.228-.78.39-1.26.486-.468.108-.96.162-1.476.162-.684 0-1.29-.072-1.818-.216-.516-.144-.924-.318-1.224-.522v-1.422c.372.228.816.408 1.332.54a6.74 6.74 0 0 0 1.674.198c.684 0 1.254-.108 1.71-.324.468-.228.702-.612.702-1.152 0-.528-.198-.9-.594-1.116-.384-.216-.978-.324-1.782-.324h-1.242v-1.278h1.296c.66 0 1.164-.12 1.512-.36.348-.24.522-.588.522-1.044 0-.24-.06-.438-.18-.594a1.114 1.114 0 0 0-.45-.396 1.91 1.91 0 0 0-.684-.216 4.328 4.328 0 0 0-.81-.072c-.552 0-1.068.066-1.548.198a4.912 4.912 0 0 0-1.278.558v-1.422c.312-.204.714-.378 1.206-.522.504-.144 1.086-.216 1.746-.216 1.14 0 1.998.216 2.574.648.588.432.882 1.056.882 1.872 0 .612-.168 1.092-.504 1.44-.324.348-.786.588-1.386.72.744.096 1.302.33 1.674.702.384.372.576.846.576 1.422Zm7.796.936a5.472 5.472 0 0 1-.414.684 3.132 3.132 0 0 1-1.53 1.098c-.336.12-.732.18-1.188.18-.84 0-1.518-.234-2.034-.702-.516-.48-.774-1.164-.774-2.052 0-1.02.354-1.77 1.062-2.25.72-.48 1.74-.72 3.06-.72h1.746v-.774c0-.648-.168-1.11-.504-1.386-.336-.276-.912-.414-1.728-.414-.576 0-1.122.096-1.638.288-.516.18-.978.39-1.386.63v-1.422c.336-.204.786-.402 1.35-.594a5.625 5.625 0 0 1 1.89-.306c1.176 0 2.07.246 2.682.738.612.48.918 1.23.918 2.25v5.4c.012.132.018.27.018.414l.036.414c.012.12.024.222.036.306h-1.44a8.223 8.223 0 0 1-.108-.702 10.76 10.76 0 0 1-.036-.81l-.018-.27Zm-2.79.54c.492 0 .912-.102 1.26-.306.348-.204.63-.438.846-.702a3.1 3.1 0 0 0 .468-.792c.096-.264.144-.45.144-.558v-.684h-1.584c-.948 0-1.638.138-2.07.414-.42.264-.63.666-.63 1.206 0 .42.126.762.378 1.026s.648.396 1.188.396Zm6.376-.108c.336-.204.6-.522.792-.954.192-.432.342-.978.45-1.638.108-.66.18-1.44.216-2.34.048-.9.09-1.92.126-3.06h6.426v7.992h1.404v4.014h-1.386l-.198-2.664h-6.948l-.162 2.664h-1.422v-4.014h.702Zm6.426 0v-6.642h-3.42c-.06 1.764-.174 3.18-.342 4.248-.156 1.056-.432 1.854-.828 2.394h4.59Zm10.027-.432a5.472 5.472 0 0 1-.414.684 3.132 3.132 0 0 1-1.53 1.098c-.336.12-.732.18-1.188.18-.84 0-1.518-.234-2.034-.702-.516-.48-.774-1.164-.774-2.052 0-1.02.354-1.77 1.062-2.25.72-.48 1.74-.72 3.06-.72h1.746v-.774c0-.648-.168-1.11-.504-1.386-.336-.276-.912-.414-1.728-.414-.576 0-1.122.096-1.638.288-.516.18-.978.39-1.386.63v-1.422c.336-.204.786-.402 1.35-.594a5.625 5.625 0 0 1 1.89-.306c1.176 0 2.07.246 2.682.738.612.48.918 1.23.918 2.25v5.4c.012.132.018.27.018.414l.036.414c.012.12.024.222.036.306h-1.44a8.223 8.223 0 0 1-.108-.702 10.76 10.76 0 0 1-.036-.81l-.018-.27Zm-2.79.54c.492 0 .912-.102 1.26-.306.348-.204.63-.438.846-.702a3.1 3.1 0 0 0 .468-.792c.096-.264.144-.45.144-.558v-.684h-1.584c-.948 0-1.638.138-2.07.414-.42.264-.63.666-.63 1.206 0 .42.126.762.378 1.026s.648.396 1.188.396Zm12.894-2.898h-4.518V447h-1.584v-9.342h1.584v3.852h4.518v-3.852h1.584V447h-1.584v-4.14Zm5.765 1.98 4.986-7.182h1.602V447h-1.584v-7.164L191.775 447h-1.62v-9.342h1.584v7.182Zm9.174-4.158c0-.528.096-.978.288-1.35.192-.384.462-.696.81-.936a3.57 3.57 0 0 1 1.242-.558c.48-.12 1.002-.18 1.566-.18h3.006V447h-1.584v-3.384h-1.71L202.137 447h-1.89l2.7-3.78c-.648-.192-1.152-.486-1.512-.882-.348-.396-.522-.948-.522-1.656Zm5.328 1.584v-3.258h-1.422c-.672 0-1.224.126-1.656.378-.432.252-.648.66-.648 1.224 0 .588.192 1.014.576 1.278.384.252.93.378 1.638.378h1.512Zm8.137-4.608h3.492c1.128 0 1.98.198 2.556.594.576.384.864.99.864 1.818 0 .552-.144.996-.432 1.332-.276.324-.672.558-1.188.702 1.332.216 1.998.954 1.998 2.214 0 .48-.096.894-.288 1.242a2.375 2.375 0 0 1-.792.828c-.336.216-.744.372-1.224.468a7.619 7.619 0 0 1-1.53.144h-3.456v-9.342Zm1.584 1.35v2.538h1.764c.6 0 1.08-.108 1.44-.324.372-.216.558-.528.558-.936 0-.492-.162-.828-.486-1.008-.324-.18-.786-.27-1.386-.27h-1.89Zm0 3.798v2.844h1.854c.336 0 .636-.018.9-.054.276-.048.51-.126.702-.234.204-.108.36-.252.468-.432.108-.18.162-.402.162-.666 0-.54-.186-.918-.558-1.134-.372-.216-.93-.324-1.674-.324h-1.854Zm12.039-5.148h7.488V447h-1.584v-7.992h-4.32V447h-1.584v-9.342Zm14.662 9.234a10.698 10.698 0 0 1-.684 1.476c-.24.432-.51.798-.81 1.098-.3.3-.636.522-1.008.666a3.28 3.28 0 0 1-1.278.234c-.24 0-.462-.018-.666-.054a2.004 2.004 0 0 1-.558-.144v-1.53c.132.096.3.168.504.216.204.06.426.09.666.09.444 0 .81-.108 1.098-.324.288-.204.564-.534.828-.99l-3.798-9.972h1.746l2.97 7.884 2.952-7.884h1.53l-3.492 9.234Zm5.06-2.79c.168-.612.276-1.44.324-2.484.048-1.044.072-2.364.072-3.96h6.282V447h-1.602v-7.992h-3.186a55.125 55.125 0 0 1-.126 3.42c-.06.996-.198 1.836-.414 2.52-.204.684-.51 1.206-.918 1.566-.396.348-.93.522-1.602.522h-.144a.834.834 0 0 1-.162-.018v-1.566c.06.012.138.018.234.018.612 0 1.026-.456 1.242-1.368Z"/><path stroke="#1E2126" stroke-width="2.009" d="M153.042 342v51.991"/><path fill="#1E2126" fill-rule="evenodd" d="m152.995 392.712 7.458-7.458 1.631 1.63-9.116 9.116-8.968-8.969 1.657-1.657 7.338 7.338Z" clip-rule="evenodd"/><path stroke="#1E2126" stroke-width="2.009" d="M153.042 144v51.991"/><path fill="#1E2126" fill-rule="evenodd" d="m152.995 194.712 7.458-7.458 1.631 1.63-9.116 9.116-8.968-8.969 1.657-1.657 7.338 7.338Z" clip-rule="evenodd"/><path stroke="#1E2126" stroke-width="2.009" d="M719 440.958h104.991"/><path fill="#1E2126" fill-rule="evenodd" d="m822.712 441.005-7.458-7.458 1.63-1.631 9.116 9.116-8.969 8.968-1.657-1.657 7.338-7.338Z" clip-rule="evenodd"/><path stroke="#1E2126" stroke-width="2.009" d="M306 440.958h104.991"/><path fill="#1E2126" fill-rule="evenodd" d="m409.712 441.005-7.458-7.458 1.63-1.631 9.116 9.116-8.969 8.968-1.657-1.657 7.338-7.338Z" clip-rule="evenodd"/><rect width="306" height="90" y="198" fill="url(#d)" rx="6"/><path fill="#0055D9" d="M86.74 243.366h-6.623V249h-1.692v-12.906h1.692v5.742h6.624v-5.742h1.71V249h-1.71v-5.634Zm9.967 3.852a5.472 5.472 0 0 1-.414.684 3.132 3.132 0 0 1-1.53 1.098c-.337.12-.733.18-1.189.18-.84 0-1.517-.234-2.034-.702-.516-.48-.774-1.164-.774-2.052 0-1.02.355-1.77 1.063-2.25.72-.48 1.74-.72 3.06-.72h1.746v-.774c0-.648-.169-1.11-.505-1.386-.335-.276-.911-.414-1.727-.414-.577 0-1.123.096-1.639.288-.515.18-.977.39-1.385.63v-1.422c.335-.204.785-.402 1.35-.594a5.625 5.625 0 0 1 1.89-.306c1.175 0 2.07.246 2.681.738.612.48.919 1.23.919 2.25v5.4c.012.132.018.27.018.414l.035.414c.012.12.024.222.036.306h-1.44a8.223 8.223 0 0 1-.108-.702 10.76 10.76 0 0 1-.035-.81l-.018-.27Zm-2.79.54c.492 0 .912-.102 1.26-.306.347-.204.63-.438.845-.702a3.1 3.1 0 0 0 .468-.792c.097-.264.145-.45.145-.558v-.684H95.05c-.947 0-1.638.138-2.07.414-.42.264-.63.666-.63 1.206 0 .42.127.762.379 1.026s.647.396 1.188.396Zm10.824 1.422c-.72 0-1.374-.108-1.962-.324a4.292 4.292 0 0 1-1.476-.954c-.408-.42-.72-.93-.936-1.53-.216-.6-.324-1.284-.324-2.052 0-.756.108-1.434.324-2.034.228-.6.546-1.104.954-1.512.408-.42.906-.738 1.494-.954.588-.228 1.254-.342 1.998-.342.576 0 1.104.066 1.584.198.48.12.876.3 1.188.54v1.422a4.197 4.197 0 0 0-1.296-.558 5.345 5.345 0 0 0-1.458-.198c-1.092 0-1.896.282-2.412.846-.504.564-.756 1.428-.756 2.592 0 1.164.246 2.028.738 2.592.492.564 1.272.846 2.34.846.564 0 1.08-.066 1.548-.198.48-.144.912-.324 1.296-.54v1.422a5.286 5.286 0 0 1-1.224.522c-.468.144-1.008.216-1.62.216Zm8.73-8.172V249h-1.584v-7.992h-2.934v-1.35h7.506v1.35h-2.988Zm9.514 8.172c-.72 0-1.344-.168-1.872-.504a3.665 3.665 0 0 1-1.242-1.386v4.896h-1.584v-12.528h1.386l.162 1.818a3.832 3.832 0 0 1 1.26-1.458c.528-.36 1.182-.54 1.962-.54.54 0 1.056.102 1.548.306.504.192.942.492 1.314.9.384.396.684.9.9 1.512.228.6.342 1.308.342 2.124 0 .828-.114 1.548-.342 2.16a4.515 4.515 0 0 1-.918 1.512 3.85 3.85 0 0 1-1.332.9 4.412 4.412 0 0 1-1.584.288Zm-.234-1.422c.828 0 1.494-.282 1.998-.846.516-.576.774-1.44.774-2.592 0-1.128-.258-1.98-.774-2.556-.504-.588-1.17-.882-1.998-.882-.408 0-.792.072-1.152.216-.348.144-.654.36-.918.648-.252.276-.456.63-.612 1.062-.144.432-.216.936-.216 1.512s.072 1.08.216 1.512c.156.432.36.792.612 1.08.264.288.57.504.918.648.36.132.744.198 1.152.198Zm10.163 1.422c-.636 0-1.23-.108-1.782-.324a4.15 4.15 0 0 1-1.44-.936 4.561 4.561 0 0 1-.936-1.53c-.228-.6-.342-1.29-.342-2.07 0-.768.114-1.452.342-2.052.228-.612.54-1.122.936-1.53a4.15 4.15 0 0 1 1.44-.936 4.847 4.847 0 0 1 1.782-.324c.648 0 1.248.108 1.8.324a3.97 3.97 0 0 1 1.422.936c.408.408.726.918.954 1.53.24.6.36 1.284.36 2.052 0 .78-.12 1.47-.36 2.07-.228.6-.546 1.11-.954 1.53a3.97 3.97 0 0 1-1.422.936 4.897 4.897 0 0 1-1.8.324Zm0-1.422c.42 0 .804-.066 1.152-.198.36-.144.672-.354.936-.63.264-.288.468-.648.612-1.08.144-.432.216-.942.216-1.53 0-.588-.072-1.098-.216-1.53-.144-.432-.348-.786-.612-1.062a2.353 2.353 0 0 0-.936-.63 2.985 2.985 0 0 0-1.152-.216c-.42 0-.804.072-1.152.216a2.378 2.378 0 0 0-.918.63c-.252.276-.45.63-.594 1.062-.144.432-.216.942-.216 1.53 0 .588.072 1.098.216 1.53.144.432.342.792.594 1.08.264.276.57.486.918.63.348.132.732.198 1.152.198Zm8.051-.918 4.986-7.182h1.602V249h-1.584v-7.164L141.001 249h-1.62v-9.342h1.584v7.182Zm12.936-5.832V249h-1.584v-7.992h-2.934v-1.35h7.506v1.35h-2.988Zm11.764 4.878c0 .54-.096 1.008-.288 1.404-.192.396-.462.72-.81.972a3.57 3.57 0 0 1-1.242.558c-.48.12-1.002.18-1.566.18h-3.096v-9.342h1.584v3.258h1.62c1.188 0 2.118.234 2.79.702.672.468 1.008 1.224 1.008 2.268Zm-5.418-1.62v3.384h1.512c.684 0 1.236-.126 1.656-.378.432-.264.648-.696.648-1.296 0-.612-.192-1.05-.576-1.314-.384-.264-.924-.396-1.62-.396h-1.62Zm11.39-4.608h7.488V249h-1.584v-7.992h-4.32V249h-1.584v-9.342Zm14.77 9.522c-.72 0-1.344-.168-1.872-.504a3.665 3.665 0 0 1-1.242-1.386v4.896h-1.584v-12.528h1.386l.162 1.818a3.832 3.832 0 0 1 1.26-1.458c.528-.36 1.182-.54 1.962-.54.54 0 1.056.102 1.548.306.504.192.942.492 1.314.9.384.396.684.9.9 1.512.228.6.342 1.308.342 2.124 0 .828-.114 1.548-.342 2.16a4.515 4.515 0 0 1-.918 1.512 3.85 3.85 0 0 1-1.332.9 4.412 4.412 0 0 1-1.584.288Zm-.234-1.422c.828 0 1.494-.282 1.998-.846.516-.576.774-1.44.774-2.592 0-1.128-.258-1.98-.774-2.556-.504-.588-1.17-.882-1.998-.882-.408 0-.792.072-1.152.216-.348.144-.654.36-.918.648-.252.276-.456.63-.612 1.062-.144.432-.216.936-.216 1.512s.072 1.08.216 1.512c.156.432.36.792.612 1.08.264.288.57.504.918.648.36.132.744.198 1.152.198Zm10.163 1.422c-.636 0-1.23-.108-1.782-.324a4.15 4.15 0 0 1-1.44-.936 4.561 4.561 0 0 1-.936-1.53c-.228-.6-.342-1.29-.342-2.07 0-.768.114-1.452.342-2.052.228-.612.54-1.122.936-1.53a4.15 4.15 0 0 1 1.44-.936 4.847 4.847 0 0 1 1.782-.324c.648 0 1.248.108 1.8.324a3.97 3.97 0 0 1 1.422.936c.408.408.726.918.954 1.53.24.6.36 1.284.36 2.052 0 .78-.12 1.47-.36 2.07-.228.6-.546 1.11-.954 1.53a3.97 3.97 0 0 1-1.422.936 4.897 4.897 0 0 1-1.8.324Zm0-1.422c.42 0 .804-.066 1.152-.198.36-.144.672-.354.936-.63.264-.288.468-.648.612-1.08.144-.432.216-.942.216-1.53 0-.588-.072-1.098-.216-1.53-.144-.432-.348-.786-.612-1.062a2.353 2.353 0 0 0-.936-.63 2.985 2.985 0 0 0-1.152-.216c-.42 0-.804.072-1.152.216a2.378 2.378 0 0 0-.918.63c-.252.276-.45.63-.594 1.062-.144.432-.216.942-.216 1.53 0 .588.072 1.098.216 1.53.144.432.342.792.594 1.08.264.276.57.486.918.63.348.132.732.198 1.152.198Zm13.901.45a5.016 5.016 0 0 1-.486.306 5.636 5.636 0 0 1-.702.324 5.92 5.92 0 0 1-.936.234 5.796 5.796 0 0 1-1.17.108c-1.572 0-2.766-.426-3.582-1.278-.816-.852-1.224-2.046-1.224-3.582 0-.756.108-1.434.324-2.034.228-.6.54-1.104.936-1.512.396-.42.864-.738 1.404-.954a4.489 4.489 0 0 1 1.764-.342c.672 0 1.272.114 1.8.342.528.228.96.564 1.296 1.008.348.444.582.996.702 1.656.132.648.132 1.404 0 2.268h-6.588c.06 1.008.36 1.764.9 2.268.54.492 1.344.738 2.412.738.72 0 1.338-.102 1.854-.306a6.495 6.495 0 0 0 1.296-.666v1.422Zm-3.708-7.326c-.684 0-1.272.21-1.764.63-.492.42-.804 1.056-.936 1.908h5.022c.048-.864-.15-1.5-.594-1.908-.444-.42-1.02-.63-1.728-.63Zm8.371 4.14h-.828V249h-1.584v-9.342h1.584v4.014h.9l3.276-4.014h1.8l-3.834 4.608L220.12 249h-1.926l-3.294-3.978Zm10.649-4.014V249h-1.584v-7.992h-2.934v-1.35h7.506v1.35h-2.988Z"/><rect width="306" height="90" x="413" y="198" fill="url(#e)" rx="6"/><path fill="#0055D9" d="M494.275 247.47h1.656v4.59h-1.566l-.18-3.06h-9.27l-.198 3.06h-1.53v-4.59h.882c.408-.372.732-.87.972-1.494.252-.636.444-1.416.576-2.34.132-.924.228-2.01.288-3.258.06-1.248.108-2.676.144-4.284h8.226v11.376Zm-1.71 0v-9.828h-4.932a88.222 88.222 0 0 1-.162 3.636 26.033 26.033 0 0 1-.288 2.754c-.12.792-.276 1.47-.468 2.034a5.101 5.101 0 0 1-.684 1.404h6.534Zm9.123 1.71c-.636 0-1.23-.108-1.782-.324a4.15 4.15 0 0 1-1.44-.936 4.561 4.561 0 0 1-.936-1.53c-.228-.6-.342-1.29-.342-2.07 0-.768.114-1.452.342-2.052.228-.612.54-1.122.936-1.53a4.15 4.15 0 0 1 1.44-.936 4.847 4.847 0 0 1 1.782-.324c.648 0 1.248.108 1.8.324a3.97 3.97 0 0 1 1.422.936c.408.408.726.918.954 1.53.24.6.36 1.284.36 2.052 0 .78-.12 1.47-.36 2.07-.228.6-.546 1.11-.954 1.53a3.97 3.97 0 0 1-1.422.936 4.897 4.897 0 0 1-1.8.324Zm0-1.422c.42 0 .804-.066 1.152-.198.36-.144.672-.354.936-.63.264-.288.468-.648.612-1.08.144-.432.216-.942.216-1.53 0-.588-.072-1.098-.216-1.53-.144-.432-.348-.786-.612-1.062a2.353 2.353 0 0 0-.936-.63 2.985 2.985 0 0 0-1.152-.216c-.42 0-.804.072-1.152.216a2.378 2.378 0 0 0-.918.63c-.252.276-.45.63-.594 1.062-.144.432-.216.942-.216 1.53 0 .588.072 1.098.216 1.53.144.432.342.792.594 1.08.264.276.57.486.918.63.348.132.732.198 1.152.198Zm14.89-3.438c0 .78-.12 1.47-.36 2.07-.228.6-.546 1.11-.954 1.53a3.97 3.97 0 0 1-1.422.936 4.897 4.897 0 0 1-1.8.324c-.66 0-1.266-.108-1.818-.324a3.763 3.763 0 0 1-1.422-1.026c-.396-.456-.708-1.032-.936-1.728-.216-.696-.324-1.518-.324-2.466 0-.78.024-1.524.072-2.232a9.708 9.708 0 0 1 .324-1.962 5.8 5.8 0 0 1 .72-1.638c.324-.492.756-.9 1.296-1.224.3-.18.612-.312.936-.396.324-.096.648-.168.972-.216a9.527 9.527 0 0 1 1.008-.09l.99-.036c.48-.036.882-.096 1.206-.18.324-.084.612-.198.864-.342v1.44a2.77 2.77 0 0 1-.846.36c-.288.06-.642.114-1.062.162-.684.06-1.314.108-1.89.144a3.694 3.694 0 0 0-1.548.396c-.6.336-1.026.84-1.278 1.512-.24.66-.39 1.446-.45 2.358.624-1.44 1.8-2.16 3.528-2.16.588 0 1.134.108 1.638.324.516.204.96.51 1.332.918.384.408.684.912.9 1.512.216.588.324 1.266.324 2.034Zm-4.536 3.438c.42 0 .804-.066 1.152-.198.36-.144.672-.354.936-.63.264-.288.468-.648.612-1.08.144-.432.216-.942.216-1.53 0-.588-.072-1.098-.216-1.53-.144-.432-.348-.786-.612-1.062a2.353 2.353 0 0 0-.936-.63 2.985 2.985 0 0 0-1.152-.216c-.828 0-1.518.276-2.07.828-.54.552-.81 1.404-.81 2.556 0 .6.072 1.122.216 1.566.144.432.342.792.594 1.08.264.288.57.504.918.648.348.132.732.198 1.152.198Zm11.991-.54a5.472 5.472 0 0 1-.414.684 3.132 3.132 0 0 1-1.53 1.098c-.336.12-.732.18-1.188.18-.84 0-1.518-.234-2.034-.702-.516-.48-.774-1.164-.774-2.052 0-1.02.354-1.77 1.062-2.25.72-.48 1.74-.72 3.06-.72h1.746v-.774c0-.648-.168-1.11-.504-1.386-.336-.276-.912-.414-1.728-.414-.576 0-1.122.096-1.638.288-.516.18-.978.39-1.386.63v-1.422c.336-.204.786-.402 1.35-.594a5.625 5.625 0 0 1 1.89-.306c1.176 0 2.07.246 2.682.738.612.48.918 1.23.918 2.25v5.4c.012.132.018.27.018.414l.036.414c.012.12.024.222.036.306h-1.44a8.223 8.223 0 0 1-.108-.702 10.76 10.76 0 0 1-.036-.81l-.018-.27Zm-2.79.54c.492 0 .912-.102 1.26-.306.348-.204.63-.438.846-.702a3.1 3.1 0 0 0 .468-.792c.096-.264.144-.45.144-.558v-.684h-1.584c-.948 0-1.638.138-2.07.414-.42.264-.63.666-.63 1.206 0 .42.126.762.378 1.026s.648.396 1.188.396Zm6.792-8.1h3.492c1.128 0 1.98.198 2.556.594.576.384.864.99.864 1.818 0 .552-.144.996-.432 1.332-.276.324-.672.558-1.188.702 1.332.216 1.998.954 1.998 2.214 0 .48-.096.894-.288 1.242a2.375 2.375 0 0 1-.792.828c-.336.216-.744.372-1.224.468a7.619 7.619 0 0 1-1.53.144h-3.456v-9.342Zm1.584 1.35v2.538h1.764c.6 0 1.08-.108 1.44-.324.372-.216.558-.528.558-.936 0-.492-.162-.828-.486-1.008-.324-.18-.786-.27-1.386-.27h-1.89Zm0 3.798v2.844h1.854c.336 0 .636-.018.9-.054.276-.048.51-.126.702-.234.204-.108.36-.252.468-.432.108-.18.162-.402.162-.666 0-.54-.186-.918-.558-1.134-.372-.216-.93-.324-1.674-.324h-1.854Zm9.668 2.034 4.986-7.182h1.602V249h-1.584v-7.164L539.323 249h-1.62v-9.342h1.584v7.182Zm12.936-5.832V249h-1.584v-7.992h-2.934v-1.35h7.506v1.35h-2.988Zm11.764 4.878c0 .54-.096 1.008-.288 1.404-.192.396-.462.72-.81.972a3.57 3.57 0 0 1-1.242.558c-.48.12-1.002.18-1.566.18h-3.096v-9.342h1.584v3.258h1.62c1.188 0 2.118.234 2.79.702.672.468 1.008 1.224 1.008 2.268Zm-5.418-1.62v3.384h1.512c.684 0 1.236-.126 1.656-.378.432-.264.648-.696.648-1.296 0-.612-.192-1.05-.576-1.314-.384-.264-.924-.396-1.62-.396h-1.62Zm15.224 4.914c-.636 0-1.23-.108-1.782-.324a4.15 4.15 0 0 1-1.44-.936 4.561 4.561 0 0 1-.936-1.53c-.228-.6-.342-1.29-.342-2.07 0-.768.114-1.452.342-2.052.228-.612.54-1.122.936-1.53a4.15 4.15 0 0 1 1.44-.936 4.847 4.847 0 0 1 1.782-.324c.648 0 1.248.108 1.8.324a3.97 3.97 0 0 1 1.422.936c.408.408.726.918.954 1.53.24.6.36 1.284.36 2.052 0 .78-.12 1.47-.36 2.07-.228.6-.546 1.11-.954 1.53a3.97 3.97 0 0 1-1.422.936 4.897 4.897 0 0 1-1.8.324Zm0-1.422c.42 0 .804-.066 1.152-.198.36-.144.672-.354.936-.63.264-.288.468-.648.612-1.08.144-.432.216-.942.216-1.53 0-.588-.072-1.098-.216-1.53-.144-.432-.348-.786-.612-1.062a2.353 2.353 0 0 0-.936-.63 2.985 2.985 0 0 0-1.152-.216c-.42 0-.804.072-1.152.216a2.378 2.378 0 0 0-.918.63c-.252.276-.45.63-.594 1.062-.144.432-.216.942-.216 1.53 0 .588.072 1.098.216 1.53.144.432.342.792.594 1.08.264.276.57.486.918.63.348.132.732.198 1.152.198Zm14.891-3.438c0 .78-.12 1.47-.36 2.07-.228.6-.546 1.11-.954 1.53a3.97 3.97 0 0 1-1.422.936 4.897 4.897 0 0 1-1.8.324c-.66 0-1.266-.108-1.818-.324a3.763 3.763 0 0 1-1.422-1.026c-.396-.456-.708-1.032-.936-1.728-.216-.696-.324-1.518-.324-2.466 0-.78.024-1.524.072-2.232a9.708 9.708 0 0 1 .324-1.962 5.8 5.8 0 0 1 .72-1.638c.324-.492.756-.9 1.296-1.224.3-.18.612-.312.936-.396.324-.096.648-.168.972-.216a9.527 9.527 0 0 1 1.008-.09l.99-.036c.48-.036.882-.096 1.206-.18.324-.084.612-.198.864-.342v1.44a2.77 2.77 0 0 1-.846.36c-.288.06-.642.114-1.062.162-.684.06-1.314.108-1.89.144a3.694 3.694 0 0 0-1.548.396c-.6.336-1.026.84-1.278 1.512-.24.66-.39 1.446-.45 2.358.624-1.44 1.8-2.16 3.528-2.16.588 0 1.134.108 1.638.324.516.204.96.51 1.332.918.384.408.684.912.9 1.512.216.588.324 1.266.324 2.034Zm-4.536 3.438c.42 0 .804-.066 1.152-.198.36-.144.672-.354.936-.63.264-.288.468-.648.612-1.08.144-.432.216-.942.216-1.53 0-.588-.072-1.098-.216-1.53-.144-.432-.348-.786-.612-1.062a2.353 2.353 0 0 0-.936-.63 2.985 2.985 0 0 0-1.152-.216c-.828 0-1.518.276-2.07.828-.54.552-.81 1.404-.81 2.556 0 .6.072 1.122.216 1.566.144.432.342.792.594 1.08.264.288.57.504.918.648.348.132.732.198 1.152.198Zm10.932 1.134a10.698 10.698 0 0 1-.684 1.476c-.24.432-.51.798-.81 1.098-.3.3-.636.522-1.008.666a3.28 3.28 0 0 1-1.278.234c-.24 0-.462-.018-.666-.054a2.004 2.004 0 0 1-.558-.144v-1.53c.132.096.3.168.504.216.204.06.426.09.666.09.444 0 .81-.108 1.098-.324.288-.204.564-.534.828-.99l-3.798-9.972h1.746l2.97 7.884 2.952-7.884h1.53l-3.492 9.234Zm12.297.108h-1.584v-4.104c-.324.252-.702.45-1.134.594-.42.132-.9.198-1.44.198-1.056 0-1.866-.258-2.43-.774-.552-.528-.828-1.368-.828-2.52v-2.736h1.602v2.754c0 .732.168 1.242.504 1.53.336.288.81.432 1.422.432.42 0 .828-.06 1.224-.18s.756-.306 1.08-.558v-3.978h1.584V249Zm10.024-.792a5.016 5.016 0 0 1-.486.306 5.636 5.636 0 0 1-.702.324 5.92 5.92 0 0 1-.936.234 5.796 5.796 0 0 1-1.17.108c-1.572 0-2.766-.426-3.582-1.278-.816-.852-1.224-2.046-1.224-3.582 0-.756.108-1.434.324-2.034.228-.6.54-1.104.936-1.512.396-.42.864-.738 1.404-.954a4.489 4.489 0 0 1 1.764-.342c.672 0 1.272.114 1.8.342.528.228.96.564 1.296 1.008.348.444.582.996.702 1.656.132.648.132 1.404 0 2.268h-6.588c.06 1.008.36 1.764.9 2.268.54.492 1.344.738 2.412.738.72 0 1.338-.102 1.854-.306a6.495 6.495 0 0 0 1.296-.666v1.422Zm-3.708-7.326c-.684 0-1.272.21-1.764.63-.492.42-.804 1.056-.936 1.908h5.022c.048-.864-.15-1.5-.594-1.908-.444-.42-1.02-.63-1.728-.63Zm12.061 3.978h-4.518V249h-1.584v-9.342h1.584v3.852h4.518v-3.852h1.584V249h-1.584v-4.14Zm5.766 1.98 4.986-7.182h1.602V249h-1.584v-7.164L631.556 249h-1.62v-9.342h1.584v7.182Zm16.607 1.368a5.016 5.016 0 0 1-.486.306 5.636 5.636 0 0 1-.702.324 5.92 5.92 0 0 1-.936.234 5.796 5.796 0 0 1-1.17.108c-1.572 0-2.766-.426-3.582-1.278-.816-.852-1.224-2.046-1.224-3.582 0-.756.108-1.434.324-2.034.228-.6.54-1.104.936-1.512.396-.42.864-.738 1.404-.954a4.489 4.489 0 0 1 1.764-.342c.672 0 1.272.114 1.8.342.528.228.96.564 1.296 1.008.348.444.582.996.702 1.656.132.648.132 1.404 0 2.268h-6.588c.06 1.008.36 1.764.9 2.268.54.492 1.344.738 2.412.738.72 0 1.338-.102 1.854-.306a6.495 6.495 0 0 0 1.296-.666v1.422Zm-3.708-7.326c-.684 0-1.272.21-1.764.63-.492.42-.804 1.056-.936 1.908h5.022c.048-.864-.15-1.5-.594-1.908-.444-.42-1.02-.63-1.728-.63Z"/><rect width="306" height="90" x="826" y="198" fill="url(#f)" rx="6"/><path fill="#0055D9" d="M927.621 243.366h-6.624V249h-1.692v-12.906h1.692v5.742h6.624v-5.742h1.71V249h-1.71v-5.634Zm9.965 3.852a5.472 5.472 0 0 1-.414.684 3.132 3.132 0 0 1-1.53 1.098c-.336.12-.732.18-1.188.18-.84 0-1.518-.234-2.034-.702-.516-.48-.774-1.164-.774-2.052 0-1.02.354-1.77 1.062-2.25.72-.48 1.74-.72 3.06-.72h1.746v-.774c0-.648-.168-1.11-.504-1.386-.336-.276-.912-.414-1.728-.414-.576 0-1.122.096-1.638.288-.516.18-.978.39-1.386.63v-1.422c.336-.204.786-.402 1.35-.594a5.625 5.625 0 0 1 1.89-.306c1.176 0 2.07.246 2.682.738.612.48.918 1.23.918 2.25v5.4c.012.132.018.27.018.414l.036.414c.012.12.024.222.036.306h-1.44a8.223 8.223 0 0 1-.108-.702 10.76 10.76 0 0 1-.036-.81l-.018-.27Zm-2.79.54c.492 0 .912-.102 1.26-.306.348-.204.63-.438.846-.702a3.1 3.1 0 0 0 .468-.792c.096-.264.144-.45.144-.558v-.684h-1.584c-.948 0-1.638.138-2.07.414-.42.264-.63.666-.63 1.206 0 .42.126.762.378 1.026s.648.396 1.188.396Zm10.825 1.422c-.72 0-1.374-.108-1.962-.324a4.292 4.292 0 0 1-1.476-.954c-.408-.42-.72-.93-.936-1.53-.216-.6-.324-1.284-.324-2.052 0-.756.108-1.434.324-2.034.228-.6.546-1.104.954-1.512.408-.42.906-.738 1.494-.954.588-.228 1.254-.342 1.998-.342.576 0 1.104.066 1.584.198.48.12.876.3 1.188.54v1.422a4.197 4.197 0 0 0-1.296-.558 5.345 5.345 0 0 0-1.458-.198c-1.092 0-1.896.282-2.412.846-.504.564-.756 1.428-.756 2.592 0 1.164.246 2.028.738 2.592.492.564 1.272.846 2.34.846.564 0 1.08-.066 1.548-.198.48-.144.912-.324 1.296-.54v1.422a5.286 5.286 0 0 1-1.224.522c-.468.144-1.008.216-1.62.216Zm8.73-8.172V249h-1.584v-7.992h-2.934v-1.35h7.506v1.35h-2.988Zm9.514 8.172c-.72 0-1.344-.168-1.872-.504a3.665 3.665 0 0 1-1.242-1.386v4.896h-1.584v-12.528h1.386l.162 1.818a3.832 3.832 0 0 1 1.26-1.458c.528-.36 1.182-.54 1.962-.54.54 0 1.056.102 1.548.306.504.192.942.492 1.314.9.384.396.684.9.9 1.512.228.6.342 1.308.342 2.124 0 .828-.114 1.548-.342 2.16a4.515 4.515 0 0 1-.918 1.512 3.85 3.85 0 0 1-1.332.9 4.412 4.412 0 0 1-1.584.288Zm-.234-1.422c.828 0 1.494-.282 1.998-.846.516-.576.774-1.44.774-2.592 0-1.128-.258-1.98-.774-2.556-.504-.588-1.17-.882-1.998-.882-.408 0-.792.072-1.152.216-.348.144-.654.36-.918.648-.252.276-.456.63-.612 1.062-.144.432-.216.936-.216 1.512s.072 1.08.216 1.512c.156.432.36.792.612 1.08.264.288.57.504.918.648.36.132.744.198 1.152.198Zm10.163 1.422c-.636 0-1.23-.108-1.782-.324a4.15 4.15 0 0 1-1.44-.936 4.561 4.561 0 0 1-.936-1.53c-.228-.6-.342-1.29-.342-2.07 0-.768.114-1.452.342-2.052.228-.612.54-1.122.936-1.53a4.15 4.15 0 0 1 1.44-.936 4.847 4.847 0 0 1 1.782-.324c.648 0 1.248.108 1.8.324a3.97 3.97 0 0 1 1.422.936c.408.408.726.918.954 1.53.24.6.36 1.284.36 2.052 0 .78-.12 1.47-.36 2.07-.228.6-.546 1.11-.954 1.53a3.97 3.97 0 0 1-1.422.936 4.897 4.897 0 0 1-1.8.324Zm0-1.422c.42 0 .804-.066 1.152-.198.36-.144.672-.354.936-.63.264-.288.468-.648.612-1.08.144-.432.216-.942.216-1.53 0-.588-.072-1.098-.216-1.53-.144-.432-.348-.786-.612-1.062a2.353 2.353 0 0 0-.936-.63 2.985 2.985 0 0 0-1.152-.216c-.42 0-.804.072-1.152.216a2.378 2.378 0 0 0-.918.63c-.252.276-.45.63-.594 1.062-.144.432-.216.942-.216 1.53 0 .588.072 1.098.216 1.53.144.432.342.792.594 1.08.264.276.57.486.918.63.348.132.732.198 1.152.198Zm8.051-.918 4.986-7.182h1.602V249h-1.584v-7.164L981.881 249h-1.62v-9.342h1.584v7.182Zm12.936-5.832V249h-1.584v-7.992h-2.934v-1.35h7.506v1.35h-2.988Zm11.759 4.878c0 .54-.09 1.008-.28 1.404-.2.396-.47.72-.81.972-.35.252-.77.438-1.25.558-.48.12-1 .18-1.56.18h-3.097v-9.342h1.587v3.258h1.62c1.18 0 2.11.234 2.79.702.67.468 1 1.224 1 2.268Zm-5.41-1.62v3.384h1.51c.68 0 1.23-.126 1.65-.378.44-.264.65-.696.65-1.296 0-.612-.19-1.05-.57-1.314-.39-.264-.93-.396-1.62-.396h-1.62Zm11.39-4.608h7.48V249h-1.58v-7.992h-4.32V249h-1.58v-9.342Zm14.66 9.234c-.22.564-.45 1.056-.69 1.476-.24.432-.51.798-.81 1.098-.3.3-.63.522-1 .666-.38.156-.8.234-1.28.234-.24 0-.46-.018-.67-.054-.2-.024-.39-.072-.56-.144v-1.53c.14.096.3.168.51.216.2.06.42.09.66.09.45 0 .81-.108 1.1-.324.29-.204.57-.534.83-.99l-3.8-9.972h1.75l2.97 7.884 2.95-7.884h1.53l-3.49 9.234Zm5.06-2.79c.17-.612.27-1.44.32-2.484.05-1.044.07-2.364.07-3.96h6.29V249h-1.61v-7.992h-3.18a54.87 54.87 0 0 1-.13 3.42c-.06.996-.2 1.836-.41 2.52-.21.684-.51 1.206-.92 1.566-.4.348-.93.522-1.6.522h-.15c-.04 0-.1-.006-.16-.018v-1.566c.06.012.14.018.24.018.61 0 1.02-.456 1.24-1.368Z"/><path stroke="#1E2126" stroke-width="2.009" d="M306 242.958h104.991"/><path fill="#1E2126" fill-rule="evenodd" d="m409.712 243.005-7.458-7.458 1.63-1.631 9.116 9.116-8.969 8.968-1.657-1.657 7.338-7.338Z" clip-rule="evenodd"/><path stroke="#1E2126" stroke-width="2.009" d="M719 242.958h104.991"/><path fill="#1E2126" fill-rule="evenodd" d="m822.712 243.005-7.458-7.458 1.63-1.631 9.116 9.116-8.969 8.968-1.657-1.657 7.338-7.338Z" clip-rule="evenodd"/><path stroke="#1E2126" stroke-width="2" d="M979 288v54.5M566 90v54.5M980 343H152.5M567 145H153.5"/><defs><linearGradient id="a" x1="565.997" x2="565.997" y1="364" y2="529.043" gradientUnits="userSpaceOnUse"><stop offset=".02" stop-color="#0064FF"/><stop offset=".06" stop-color="#005FFF" stop-opacity=".86"/><stop offset=".11" stop-color="#005BFF" stop-opacity=".72"/><stop offset=".17" stop-color="#0057FF" stop-opacity=".59"/><stop offset=".23" stop-color="#0053FF" stop-opacity=".48"/><stop offset=".3" stop-color="#0051FF" stop-opacity=".4"/><stop offset=".38" stop-color="#004FFF" stop-opacity=".33"/><stop offset=".48" stop-color="#004DFF" stop-opacity=".28"/><stop offset=".61" stop-color="#004CFF" stop-opacity=".26"/><stop offset="1" stop-color="#004CFF" stop-opacity=".25"/></linearGradient><linearGradient id="b" x1="978.997" x2="978.997" y1="364" y2="529.043" gradientUnits="userSpaceOnUse"><stop offset=".02" stop-color="#0064FF"/><stop offset=".06" stop-color="#005FFF" stop-opacity=".86"/><stop offset=".11" stop-color="#005BFF" stop-opacity=".72"/><stop offset=".17" stop-color="#0057FF" stop-opacity=".59"/><stop offset=".23" stop-color="#0053FF" stop-opacity=".48"/><stop offset=".3" stop-color="#0051FF" stop-opacity=".4"/><stop offset=".38" stop-color="#004FFF" stop-opacity=".33"/><stop offset=".48" stop-color="#004DFF" stop-opacity=".28"/><stop offset=".61" stop-color="#004CFF" stop-opacity=".26"/><stop offset="1" stop-color="#004CFF" stop-opacity=".25"/></linearGradient><linearGradient id="c" x1="152.997" x2="152.997" y1="364" y2="529.043" gradientUnits="userSpaceOnUse"><stop offset=".02" stop-color="#0064FF"/><stop offset=".06" stop-color="#005FFF" stop-opacity=".86"/><stop offset=".11" stop-color="#005BFF" stop-opacity=".72"/><stop offset=".17" stop-color="#0057FF" stop-opacity=".59"/><stop offset=".23" stop-color="#0053FF" stop-opacity=".48"/><stop offset=".3" stop-color="#0051FF" stop-opacity=".4"/><stop offset=".38" stop-color="#004FFF" stop-opacity=".33"/><stop offset=".48" stop-color="#004DFF" stop-opacity=".28"/><stop offset=".61" stop-color="#004CFF" stop-opacity=".26"/><stop offset="1" stop-color="#004CFF" stop-opacity=".25"/></linearGradient><linearGradient id="d" x1="152.997" x2="152.997" y1="166" y2="331.043" gradientUnits="userSpaceOnUse"><stop offset=".02" stop-color="#0064FF"/><stop offset=".06" stop-color="#005FFF" stop-opacity=".86"/><stop offset=".11" stop-color="#005BFF" stop-opacity=".72"/><stop offset=".17" stop-color="#0057FF" stop-opacity=".59"/><stop offset=".23" stop-color="#0053FF" stop-opacity=".48"/><stop offset=".3" stop-color="#0051FF" stop-opacity=".4"/><stop offset=".38" stop-color="#004FFF" stop-opacity=".33"/><stop offset=".48" stop-color="#004DFF" stop-opacity=".28"/><stop offset=".61" stop-color="#004CFF" stop-opacity=".26"/><stop offset="1" stop-color="#004CFF" stop-opacity=".25"/></linearGradient><linearGradient id="e" x1="565.997" x2="565.997" y1="166" y2="331.043" gradientUnits="userSpaceOnUse"><stop offset=".02" stop-color="#0064FF"/><stop offset=".06" stop-color="#005FFF" stop-opacity=".86"/><stop offset=".11" stop-color="#005BFF" stop-opacity=".72"/><stop offset=".17" stop-color="#0057FF" stop-opacity=".59"/><stop offset=".23" stop-color="#0053FF" stop-opacity=".48"/><stop offset=".3" stop-color="#0051FF" stop-opacity=".4"/><stop offset=".38" stop-color="#004FFF" stop-opacity=".33"/><stop offset=".48" stop-color="#004DFF" stop-opacity=".28"/><stop offset=".61" stop-color="#004CFF" stop-opacity=".26"/><stop offset="1" stop-color="#004CFF" stop-opacity=".25"/></linearGradient><linearGradient id="f" x1="978.997" x2="978.997" y1="166" y2="331.043" gradientUnits="userSpaceOnUse"><stop offset=".02" stop-color="#0064FF"/><stop offset=".06" stop-color="#005FFF" stop-opacity=".86"/><stop offset=".11" stop-color="#005BFF" stop-opacity=".72"/><stop offset=".17" stop-color="#0057FF" stop-opacity=".59"/><stop offset=".23" stop-color="#0053FF" stop-opacity=".48"/><stop offset=".3" stop-color="#0051FF" stop-opacity=".4"/><stop offset=".38" stop-color="#004FFF" stop-opacity=".33"/><stop offset=".48" stop-color="#004DFF" stop-opacity=".28"/><stop offset=".61" stop-color="#004CFF" stop-opacity=".26"/><stop offset="1" stop-color="#004CFF" stop-opacity=".25"/></linearGradient></defs></svg>