<svg xmlns="http://www.w3.org/2000/svg" width="16" height="16" fill="none"><path fill="#000" d="M14.5 3v.5a.5.5 0 0 0 .399-.801L14.5 3Zm-13 0-.401-.299A.5.5 0 0 0 1.5 3.5V3Zm11.79-1.603.398-.301-.399.301ZM3.49 1.5h9v-1h-9v1Zm9.4.199L14.1 3.3l.798-.602-1.21-1.603-.799.603ZM14.5 2.5h-13v1h13v-1Zm-12.599.799L3.091 1.7l-.803-.597L1.1 2.701l.802.598ZM12.491 1.5a.5.5 0 0 1 .4.199l.797-.603A1.5 1.5 0 0 0 12.491.5v1Zm-9-1a1.5 1.5 0 0 0-1.203.604l.802.597a.5.5 0 0 1 .401-.201v-1Z"/><path fill="#000" fill-rule="evenodd" d="M15 3H1v10a2 2 0 0 0 2 2h10a2 2 0 0 0 2-2V3Zm-3 6H9.5V6h-3v3H4l4 3 4-3Z" clip-rule="evenodd"/></svg>