<svg width="16" height="16" viewBox="0 0 16 16" fill="none" xmlns="http://www.w3.org/2000/svg">
<path fill-rule="evenodd" clip-rule="evenodd" d="M7.92913 2.71156C8.23969 1.65565 9.56725 1.31713 10.3455 2.0954L14.3348 6.08464C15.113 6.86291 14.7745 8.19046 13.7186 8.50103L12.3339 8.90828C12.1333 8.9673 11.9506 9.07572 11.8027 9.22361L11.2723 9.75405C11.0613 9.96504 10.9327 10.2446 10.9099 10.5421L10.7298 12.8831C10.6348 14.1183 9.13472 14.6732 8.25875 13.7972L5.97609 11.5146L3.46588 14.0248C3.17298 14.3177 2.69811 14.3177 2.40522 14.0248C2.11232 13.7319 2.11232 13.257 2.40522 12.9641L4.91543 10.4539L2.63294 8.17141C1.75697 7.29543 2.31187 5.79539 3.54704 5.70037L5.88809 5.52029C6.1856 5.49741 6.46511 5.36885 6.6761 5.15786L7.20655 4.62741C7.35444 4.47952 7.46286 4.29689 7.52187 4.09624L7.92913 2.71156Z" fill="#1E2126"/>
</svg>
