<svg xmlns="http://www.w3.org/2000/svg" width="121" height="120" fill="none"><g clip-path="url(#a)"><g clip-path="url(#b)"><path fill="url(#c)" d="M119.623 6.809V94.01a4.801 4.801 0 0 1-4.809 4.81H53.073a4.8 4.8 0 0 1-4.81-4.81V6.81A4.8 4.8 0 0 1 53.074 2h61.741a4.801 4.801 0 0 1 4.809 4.809Z"/><path fill="url(#d)" d="M95.493 16.899V104.1a4.801 4.801 0 0 1-4.809 4.809H28.943a4.801 4.801 0 0 1-4.81-4.809V16.899a4.8 4.8 0 0 1 4.81-4.809h61.741a4.8 4.8 0 0 1 4.81 4.809Z"/><path fill="url(#e)" d="M71.363 26.989v87.202A4.801 4.801 0 0 1 66.554 119H4.813a4.801 4.801 0 0 1-4.81-4.809V26.989a4.8 4.8 0 0 1 4.81-4.81h61.741a4.8 4.8 0 0 1 4.81 4.81Z"/><path stroke="#0055D9" stroke-linejoin="round" stroke-width="2" d="M12.584 46.91h46.199M12.584 62.668h46.199M12.584 78.469h46.199M12.584 94.269h23.1"/></g></g><defs><linearGradient id="c" x1="102.48" x2="102.48" y1="-10.102" y2="190.378" gradientUnits="userSpaceOnUse"><stop stop-color="#679BFF" stop-opacity=".92"/><stop offset="1" stop-color="#A1BFFF" stop-opacity=".17"/></linearGradient><linearGradient id="d" x1="78.35" x2="78.35" y1="-.013" y2="200.468" gradientUnits="userSpaceOnUse"><stop stop-color="#679BFF" stop-opacity=".92"/><stop offset="1" stop-color="#A1BFFF" stop-opacity=".17"/></linearGradient><linearGradient id="e" x1="35.683" x2="35.683" y1="6.394" y2="165.305" gradientUnits="userSpaceOnUse"><stop offset=".02" stop-color="#0064FF"/><stop offset=".06" stop-color="#005FFF" stop-opacity=".86"/><stop offset=".11" stop-color="#005BFF" stop-opacity=".72"/><stop offset=".17" stop-color="#0057FF" stop-opacity=".59"/><stop offset=".23" stop-color="#0053FF" stop-opacity=".48"/><stop offset=".3" stop-color="#0051FF" stop-opacity=".4"/><stop offset=".38" stop-color="#004FFF" stop-opacity=".33"/><stop offset=".48" stop-color="#004DFF" stop-opacity=".28"/><stop offset=".61" stop-color="#004CFF" stop-opacity=".26"/><stop offset="1" stop-color="#004CFF" stop-opacity=".25"/></linearGradient><clipPath id="a"><path fill="#fff" d="M.004 0h120v120h-120z"/></clipPath><clipPath id="b"><path fill="#fff" d="M.004 2h119.619v117H.003z"/></clipPath></defs></svg>