<svg xmlns="http://www.w3.org/2000/svg" width="121" height="121" fill="none"><path fill="url(#a)" fill-rule="evenodd" d="M51.493 115.494c-2.157-.88-3.008-2-3.219-3.32l-.024.08-1.285-8.987c-.872-6.387-5.757-8.44-10.912-4.547l-7.581 5.614a4.097 4.097 0 0 1-4.408-.267c-4.63-3.6-8.683-7.88-10.312-10.467-.883-2.106-.694-3.493.096-4.573l-.07.027 5.425-7.254c3.909-5.133 1.893-10.026-4.496-10.933l-9.273-1.386c-1.573-.414-2.77-1.76-2.912-3.134-.442-3.893-.514-5.586-.514-7.306 0-3.534.322-6.987.55-7.52.871-2.147 1.988-3 3.314-3.214l-.059-.013L14.75 47c6.392-.867 8.432-5.76 4.547-10.907l-5.328-7.2a4.078 4.078 0 0 1 .002-4.787c3.595-4.626 7.875-8.68 10.483-10.32 2.09-.88 3.486-.693 4.573.093l-.01-.013 7.194 5.373c5.14 3.907 10.035 1.894 10.934-4.493l1.333-8.88h.003c.277-1.76 1.701-3.16 3.202-3.306 3.896-.44 5.603-.52 7.326-.52 1.754 0 3.496.08 7.522.546 1.483.16 2.894 1.52 3.195 3.254l1.288 8.946c.87 6.387 5.755 8.427 10.915 4.547l7.237-5.347-.01.014a4.08 4.08 0 0 1 4.685-.067 57.35 57.35 0 0 1 10.376 10.4c.93 1.307.976 3.107.104 4.493l-5.544 7.413c-3.907 5.147-1.894 10.04 4.501 10.947l9.128 1.373c1.224.267 2.24 1.08 3.077 3.16.219.507.526 3.88.526 7.32 0 1.76-.083 3.494-.555 7.52-.147 1.507-1.539 2.92-3.304 3.214l-8.917 1.28c-6.395.867-8.435 5.746-4.552 10.906l5.565 7.534c.824 1.373.757 3.146-.157 4.413-2.579 3.32-5.475 6.32-10.518 10.387-1.138.933-3.13.96-4.581-.094l.016.027-7.235-5.413c-5.136-3.907-10.032-1.894-10.936 4.493l-1.413 9.4c-.323 1.107-1.101 2.013-3.11 2.813-.517.227-3.877.52-7.303.52-3.534 0-6.99-.32-7.515-.546Z" clip-rule="evenodd"/><path fill="url(#b)" d="M34.535 83.513C21.021 70 21.021 48.086 34.537 34.57c13.516-13.515 35.429-13.516 48.943-.002 13.515 13.515 13.514 35.428-.002 48.944-13.515 13.515-35.428 13.516-48.943.001Z"/><path stroke="#0055D9" stroke-linecap="round" stroke-linejoin="round" stroke-miterlimit="79.84" stroke-width="2" d="M48.004 48.84c0-5.965 4.93-10.8 11-10.8s11 4.835 11 10.8c0 3.01-1.264 5.748-3.299 7.704l-6.733 5.704c-1.193 1.022-.921 2-.972 3.02l.002 2.772M59.004 76.04v3"/><defs><linearGradient id="a" x1="88.621" x2="88.621" y1="115.497" y2="2.039" gradientUnits="userSpaceOnUse"><stop stop-color="#A1BFFF" stop-opacity=".17"/><stop offset="1" stop-color="#679BFF" stop-opacity=".92"/></linearGradient><linearGradient id="b" x1="84.004" x2="31.504" y1="25.541" y2="93.541" gradientUnits="userSpaceOnUse"><stop offset=".02" stop-color="#0064FF"/><stop offset=".06" stop-color="#005FFF" stop-opacity=".86"/><stop offset=".11" stop-color="#005BFF" stop-opacity=".72"/><stop offset=".17" stop-color="#0057FF" stop-opacity=".59"/><stop offset=".23" stop-color="#0053FF" stop-opacity=".48"/><stop offset=".3" stop-color="#0051FF" stop-opacity=".4"/><stop offset=".38" stop-color="#004FFF" stop-opacity=".33"/><stop offset=".48" stop-color="#004DFF" stop-opacity=".28"/><stop offset=".61" stop-color="#004CFF" stop-opacity=".26"/><stop offset="1" stop-color="#004CFF" stop-opacity=".25"/></linearGradient></defs></svg>