<svg xmlns="http://www.w3.org/2000/svg" width="121" height="121" fill="none"><path fill="url(#a)" fill-rule="evenodd" d="M6.004 72.641c0-30.133 24.194-54.599 54.002-54.599 29.807 0 54.002 24.466 54.002 54.6 0 9.173-2.239 17.813-6.191 25.4H12.193c-3.952-7.587-6.19-16.227-6.19-25.4Z" clip-rule="evenodd"/><path stroke="#0055D9" stroke-linecap="round" stroke-linejoin="round" stroke-miterlimit="79.84" stroke-width="2" d="M49.747 84.735 73.64 68.148c.694-.466 1.339.027.778.747l-17.794 22.72-6.877-6.88Z" clip-rule="evenodd"/><path stroke="#0055D9" stroke-linecap="round" stroke-miterlimit="79.84" stroke-width="2" d="M50.415 46.215c-13.484 0-25.414 6.694-32.654 16.92-.4.573-.893.427-.54-.547 5.836-18.173 22.888-31.346 42.994-31.346 23.604 0 42.997 18.147 44.977 41.24H87.971c-5.596-15.32-20.304-26.267-37.556-26.267Z" clip-rule="evenodd"/><defs><linearGradient id="a" x1="60.004" x2="60.004" y1="4.041" y2="156.041" gradientUnits="userSpaceOnUse"><stop offset=".02" stop-color="#0064FF"/><stop offset=".06" stop-color="#005FFF" stop-opacity=".86"/><stop offset=".11" stop-color="#005BFF" stop-opacity=".72"/><stop offset=".17" stop-color="#0057FF" stop-opacity=".59"/><stop offset=".23" stop-color="#0053FF" stop-opacity=".48"/><stop offset=".3" stop-color="#0051FF" stop-opacity=".4"/><stop offset=".38" stop-color="#004FFF" stop-opacity=".33"/><stop offset=".48" stop-color="#004DFF" stop-opacity=".28"/><stop offset=".61" stop-color="#004CFF" stop-opacity=".26"/><stop offset="1" stop-color="#004CFF" stop-opacity=".25"/></linearGradient></defs></svg>