<svg width="121" height="121" viewBox="0 0 121 121" fill="none" xmlns="http://www.w3.org/2000/svg">
<path fill-rule="evenodd" clip-rule="evenodd" d="M22.2999 109.081L10.9613 97.7477C8.3346 95.121 8.09725 91.8411 9.43058 88.8278L42.7292 15.5745C44.2332 12.7212 47.5238 11.5881 50.4385 14.5081L105.542 69.601C108.454 72.521 107.318 75.8144 104.47 77.321L31.2146 110.614C28.2066 111.948 24.9239 111.708 22.2999 109.081Z" fill="url(#paint0_linear)"/>
<path d="M77.6251 89.4946C80.3158 94.7612 79.4571 101.388 75.0464 105.801C69.5664 111.281 60.6758 111.281 55.1958 105.801C53.7638 104.361 52.7051 102.694 52.0225 100.921" stroke="#0055D9" stroke-width="2" stroke-miterlimit="79.8403" stroke-linecap="round" stroke-linejoin="round"/>
<path d="M81.7056 38.4946L102.783 17.4146" stroke="#0055D9" stroke-width="2" stroke-miterlimit="79.8403" stroke-linecap="round" stroke-linejoin="round"/>
<path d="M70.8252 27.5745L79.6145 3.33464" stroke="#0055D9" stroke-width="2" stroke-miterlimit="79.8403" stroke-linecap="round" stroke-linejoin="round"/>
<path d="M92.4893 49.241L116.74 40.4545" stroke="#0055D9" stroke-width="2" stroke-miterlimit="79.8403" stroke-linecap="round" stroke-linejoin="round"/>
<defs>
<linearGradient id="paint0_linear" x1="12.5035" y1="43.541" x2="123.004" y2="94.5398" gradientUnits="userSpaceOnUse">
<stop offset="0.02" stop-color="#0064FF"/>
<stop offset="0.06" stop-color="#005FFF" stop-opacity="0.86"/>
<stop offset="0.11" stop-color="#005BFF" stop-opacity="0.72"/>
<stop offset="0.17" stop-color="#0057FF" stop-opacity="0.59"/>
<stop offset="0.23" stop-color="#0053FF" stop-opacity="0.48"/>
<stop offset="0.3" stop-color="#0051FF" stop-opacity="0.4"/>
<stop offset="0.38" stop-color="#004FFF" stop-opacity="0.33"/>
<stop offset="0.48" stop-color="#004DFF" stop-opacity="0.28"/>
<stop offset="0.61" stop-color="#004CFF" stop-opacity="0.26"/>
<stop offset="1" stop-color="#004CFF" stop-opacity="0.25"/>
</linearGradient>
</defs>
</svg>
