<svg width="1132" height="486" viewBox="0 0 1132 486" fill="none" xmlns="http://www.w3.org/2000/svg">
<rect width="1132" height="486" fill="white"/>
<rect x="414" y="1" width="304" height="88" rx="5" fill="white"/>
<path d="M506.208 50.3H508.048V55.4H506.308L506.108 52H495.808L495.588 55.4H493.888V50.3H494.868C495.321 49.8867 495.681 49.3333 495.948 48.64C496.228 47.9333 496.441 47.0667 496.588 46.04C496.735 45.0133 496.841 43.8067 496.908 42.42C496.975 41.0333 497.028 39.4467 497.068 37.66H506.208V50.3ZM504.308 50.3V39.38H498.828C498.788 40.9 498.728 42.2467 498.648 43.42C498.581 44.58 498.475 45.6 498.328 46.48C498.195 47.36 498.021 48.1133 497.808 48.74C497.608 49.3533 497.355 49.8733 497.048 50.3H504.308ZM518.444 51.12C518.297 51.2267 518.117 51.34 517.904 51.46C517.691 51.58 517.431 51.7 517.124 51.82C516.817 51.9267 516.471 52.0133 516.084 52.08C515.697 52.16 515.264 52.2 514.784 52.2C513.037 52.2 511.711 51.7267 510.804 50.78C509.897 49.8333 509.444 48.5067 509.444 46.8C509.444 45.96 509.564 45.2067 509.804 44.54C510.057 43.8733 510.404 43.3133 510.844 42.86C511.284 42.3933 511.804 42.04 512.404 41.8C513.004 41.5467 513.657 41.42 514.364 41.42C515.111 41.42 515.777 41.5467 516.364 41.8C516.951 42.0533 517.431 42.4267 517.804 42.92C518.191 43.4133 518.451 44.0267 518.584 44.76C518.731 45.48 518.731 46.32 518.584 47.28H511.264C511.331 48.4 511.664 49.24 512.264 49.8C512.864 50.3467 513.757 50.62 514.944 50.62C515.744 50.62 516.431 50.5067 517.004 50.28C517.577 50.0533 518.057 49.8067 518.444 49.54V51.12ZM514.324 42.98C513.564 42.98 512.911 43.2133 512.364 43.68C511.817 44.1467 511.471 44.8533 511.324 45.8H516.904C516.957 44.84 516.737 44.1333 516.244 43.68C515.751 43.2133 515.111 42.98 514.324 42.98ZM523.626 47.58H522.706V52H520.946V41.62H522.706V46.08H523.706L527.346 41.62H529.346L525.086 46.74L529.426 52H527.286L523.626 47.58ZM535.147 52.2C534.441 52.2 533.781 52.08 533.167 51.84C532.554 51.6 532.021 51.2533 531.567 50.8C531.127 50.3333 530.781 49.7667 530.527 49.1C530.274 48.4333 530.147 47.6667 530.147 46.8C530.147 45.9467 530.274 45.1867 530.527 44.52C530.781 43.84 531.127 43.2733 531.567 42.82C532.021 42.3667 532.554 42.02 533.167 41.78C533.781 41.54 534.441 41.42 535.147 41.42C535.867 41.42 536.534 41.54 537.147 41.78C537.761 42.02 538.287 42.3667 538.727 42.82C539.181 43.2733 539.534 43.84 539.787 44.52C540.054 45.1867 540.187 45.9467 540.187 46.8C540.187 47.6667 540.054 48.4333 539.787 49.1C539.534 49.7667 539.181 50.3333 538.727 50.8C538.287 51.2533 537.761 51.6 537.147 51.84C536.534 52.08 535.867 52.2 535.147 52.2ZM535.147 50.62C535.614 50.62 536.041 50.5467 536.427 50.4C536.827 50.24 537.174 50.0067 537.467 49.7C537.761 49.38 537.987 48.98 538.147 48.5C538.307 48.02 538.387 47.4533 538.387 46.8C538.387 46.1467 538.307 45.58 538.147 45.1C537.987 44.62 537.761 44.2267 537.467 43.92C537.174 43.6 536.827 43.3667 536.427 43.22C536.041 43.06 535.614 42.98 535.147 42.98C534.681 42.98 534.254 43.06 533.867 43.22C533.481 43.3667 533.141 43.6 532.847 43.92C532.567 44.2267 532.347 44.62 532.187 45.1C532.027 45.58 531.947 46.1467 531.947 46.8C531.947 47.4533 532.027 48.02 532.187 48.5C532.347 48.98 532.567 49.38 532.847 49.7C533.141 50.0067 533.481 50.24 533.867 50.4C534.254 50.5467 534.681 50.62 535.147 50.62ZM552.233 43.66L548.713 50.84H547.313L543.993 43.62V52H542.333V41.62H544.953L548.133 48.58L551.533 41.62H553.973V52H552.233V43.66ZM556.844 41.62H565.164V52H563.404V43.12H558.604V52H556.844V41.62ZM572.296 52.2C571.589 52.2 570.929 52.08 570.316 51.84C569.702 51.6 569.169 51.2533 568.716 50.8C568.276 50.3333 567.929 49.7667 567.676 49.1C567.422 48.4333 567.296 47.6667 567.296 46.8C567.296 45.9467 567.422 45.1867 567.676 44.52C567.929 43.84 568.276 43.2733 568.716 42.82C569.169 42.3667 569.702 42.02 570.316 41.78C570.929 41.54 571.589 41.42 572.296 41.42C573.016 41.42 573.682 41.54 574.296 41.78C574.909 42.02 575.436 42.3667 575.876 42.82C576.329 43.2733 576.682 43.84 576.936 44.52C577.202 45.1867 577.336 45.9467 577.336 46.8C577.336 47.6667 577.202 48.4333 576.936 49.1C576.682 49.7667 576.329 50.3333 575.876 50.8C575.436 51.2533 574.909 51.6 574.296 51.84C573.682 52.08 573.016 52.2 572.296 52.2ZM572.296 50.62C572.762 50.62 573.189 50.5467 573.576 50.4C573.976 50.24 574.322 50.0067 574.616 49.7C574.909 49.38 575.136 48.98 575.296 48.5C575.456 48.02 575.536 47.4533 575.536 46.8C575.536 46.1467 575.456 45.58 575.296 45.1C575.136 44.62 574.909 44.2267 574.616 43.92C574.322 43.6 573.976 43.3667 573.576 43.22C573.189 43.06 572.762 42.98 572.296 42.98C571.829 42.98 571.402 43.06 571.016 43.22C570.629 43.3667 570.289 43.6 569.996 43.92C569.716 44.2267 569.496 44.62 569.336 45.1C569.176 45.58 569.096 46.1467 569.096 46.8C569.096 47.4533 569.176 48.02 569.336 48.5C569.496 48.98 569.716 49.38 569.996 49.7C570.289 50.0067 570.629 50.24 571.016 50.4C571.402 50.5467 571.829 50.62 572.296 50.62ZM586.743 48.98C586.743 49.5667 586.623 50.0667 586.383 50.48C586.157 50.88 585.843 51.2133 585.443 51.48C585.043 51.7333 584.577 51.9133 584.043 52.02C583.523 52.14 582.977 52.2 582.403 52.2C581.643 52.2 580.97 52.12 580.383 51.96C579.81 51.8 579.357 51.6067 579.023 51.38V49.8C579.437 50.0533 579.93 50.2533 580.503 50.4C581.077 50.5467 581.697 50.62 582.363 50.62C583.123 50.62 583.757 50.5 584.263 50.26C584.783 50.0067 585.043 49.58 585.043 48.98C585.043 48.3933 584.823 47.98 584.383 47.74C583.957 47.5 583.297 47.38 582.403 47.38H581.023V45.96H582.463C583.197 45.96 583.757 45.8267 584.143 45.56C584.53 45.2933 584.723 44.9067 584.723 44.4C584.723 44.1333 584.657 43.9133 584.523 43.74C584.403 43.5533 584.237 43.4067 584.023 43.3C583.81 43.18 583.557 43.1 583.263 43.06C582.983 43.0067 582.683 42.98 582.363 42.98C581.75 42.98 581.177 43.0533 580.643 43.2C580.123 43.3467 579.65 43.5533 579.223 43.82V42.24C579.57 42.0133 580.017 41.82 580.563 41.66C581.123 41.5 581.77 41.42 582.503 41.42C583.77 41.42 584.723 41.66 585.363 42.14C586.017 42.62 586.343 43.3133 586.343 44.22C586.343 44.9 586.157 45.4333 585.783 45.82C585.423 46.2067 584.91 46.4733 584.243 46.62C585.07 46.7267 585.69 46.9867 586.103 47.4C586.53 47.8133 586.743 48.34 586.743 48.98ZM591.085 49.6L596.625 41.62H598.405V52H596.645V44.04L591.125 52H589.325V41.62H591.085V49.6ZM609.738 52H601.278V41.62H603.038V50.5H608.138V41.62H609.898V50.5H611.458V54.96H609.958L609.738 52ZM615.05 49.6L620.59 41.62H622.37V52H620.61V44.04L615.09 52H613.29V41.62H615.05V49.6ZM625.243 44.98C625.243 44.3933 625.349 43.8933 625.563 43.48C625.776 43.0533 626.076 42.7067 626.463 42.44C626.849 42.16 627.309 41.9533 627.843 41.82C628.376 41.6867 628.956 41.62 629.583 41.62H632.923V52H631.163V48.24H629.263L626.603 52H624.503L627.503 47.8C626.783 47.5867 626.223 47.26 625.823 46.82C625.436 46.38 625.243 45.7667 625.243 44.98ZM631.163 46.74V43.12H629.583C628.836 43.12 628.223 43.26 627.743 43.54C627.263 43.82 627.023 44.2733 627.023 44.9C627.023 45.5533 627.236 46.0267 627.663 46.32C628.089 46.6 628.696 46.74 629.483 46.74H631.163Z" fill="#1E2126"/>
<rect x="414" y="1" width="304" height="88" rx="5" stroke="#1E2126" stroke-width="2"/>
<rect x="413" y="396" width="306" height="90" rx="6" fill="url(#paint0_linear)"/>
<path d="M501.242 434.094H510.944V447H509.234V435.642H502.934V447H501.242V434.094ZM517.569 447.18C516.933 447.18 516.339 447.072 515.787 446.856C515.235 446.64 514.755 446.328 514.347 445.92C513.951 445.5 513.639 444.99 513.411 444.39C513.183 443.79 513.069 443.1 513.069 442.32C513.069 441.552 513.183 440.868 513.411 440.268C513.639 439.656 513.951 439.146 514.347 438.738C514.755 438.33 515.235 438.018 515.787 437.802C516.339 437.586 516.933 437.478 517.569 437.478C518.217 437.478 518.817 437.586 519.369 437.802C519.921 438.018 520.395 438.33 520.791 438.738C521.199 439.146 521.517 439.656 521.745 440.268C521.985 440.868 522.105 441.552 522.105 442.32C522.105 443.1 521.985 443.79 521.745 444.39C521.517 444.99 521.199 445.5 520.791 445.92C520.395 446.328 519.921 446.64 519.369 446.856C518.817 447.072 518.217 447.18 517.569 447.18ZM517.569 445.758C517.989 445.758 518.373 445.692 518.721 445.56C519.081 445.416 519.393 445.206 519.657 444.93C519.921 444.642 520.125 444.282 520.269 443.85C520.413 443.418 520.485 442.908 520.485 442.32C520.485 441.732 520.413 441.222 520.269 440.79C520.125 440.358 519.921 440.004 519.657 439.728C519.393 439.44 519.081 439.23 518.721 439.098C518.373 438.954 517.989 438.882 517.569 438.882C517.149 438.882 516.765 438.954 516.417 439.098C516.069 439.23 515.763 439.44 515.499 439.728C515.247 440.004 515.049 440.358 514.905 440.79C514.761 441.222 514.689 441.732 514.689 442.32C514.689 442.908 514.761 443.418 514.905 443.85C515.049 444.282 515.247 444.642 515.499 444.93C515.763 445.206 516.069 445.416 516.417 445.56C516.765 445.692 517.149 445.758 517.569 445.758ZM524.036 437.658H531.524V447H529.94V439.008H525.62V447H524.036V437.658ZM537.943 447.18C537.307 447.18 536.713 447.072 536.161 446.856C535.609 446.64 535.129 446.328 534.721 445.92C534.325 445.5 534.013 444.99 533.785 444.39C533.557 443.79 533.443 443.1 533.443 442.32C533.443 441.552 533.557 440.868 533.785 440.268C534.013 439.656 534.325 439.146 534.721 438.738C535.129 438.33 535.609 438.018 536.161 437.802C536.713 437.586 537.307 437.478 537.943 437.478C538.591 437.478 539.191 437.586 539.743 437.802C540.295 438.018 540.769 438.33 541.165 438.738C541.573 439.146 541.891 439.656 542.119 440.268C542.359 440.868 542.479 441.552 542.479 442.32C542.479 443.1 542.359 443.79 542.119 444.39C541.891 444.99 541.573 445.5 541.165 445.92C540.769 446.328 540.295 446.64 539.743 446.856C539.191 447.072 538.591 447.18 537.943 447.18ZM537.943 445.758C538.363 445.758 538.747 445.692 539.095 445.56C539.455 445.416 539.767 445.206 540.031 444.93C540.295 444.642 540.499 444.282 540.643 443.85C540.787 443.418 540.859 442.908 540.859 442.32C540.859 441.732 540.787 441.222 540.643 440.79C540.499 440.358 540.295 440.004 540.031 439.728C539.767 439.44 539.455 439.23 539.095 439.098C538.747 438.954 538.363 438.882 537.943 438.882C537.523 438.882 537.139 438.954 536.791 439.098C536.443 439.23 536.137 439.44 535.873 439.728C535.621 440.004 535.423 440.358 535.279 440.79C535.135 441.222 535.062 441.732 535.062 442.32C535.062 442.908 535.135 443.418 535.279 443.85C535.423 444.282 535.621 444.642 535.873 444.93C536.137 445.206 536.443 445.416 536.791 445.56C537.139 445.692 537.523 445.758 537.943 445.758ZM544.866 444.102C545.034 443.49 545.142 442.662 545.19 441.618C545.238 440.574 545.262 439.254 545.262 437.658H551.544V447H549.942V439.008H546.756C546.744 440.292 546.702 441.432 546.63 442.428C546.57 443.424 546.432 444.264 546.216 444.948C546.012 445.632 545.706 446.154 545.298 446.514C544.902 446.862 544.368 447.036 543.696 447.036C543.648 447.036 543.6 447.036 543.552 447.036C543.504 447.036 543.45 447.03 543.39 447.018V445.452C543.45 445.464 543.528 445.47 543.624 445.47C544.236 445.47 544.65 445.014 544.866 444.102ZM560.214 442.86H555.696V447H554.112V437.658H555.696V441.51H560.214V437.658H561.798V447H560.214V442.86ZM565.98 444.84L570.966 437.658H572.568V447H570.984V439.836L566.016 447H564.396V437.658H565.98V444.84ZM578.915 439.008V447H577.331V439.008H574.397V437.658H581.903V439.008H578.915ZM590.68 443.886C590.68 444.426 590.584 444.894 590.392 445.29C590.2 445.686 589.93 446.01 589.582 446.262C589.234 446.514 588.82 446.7 588.34 446.82C587.86 446.94 587.338 447 586.774 447H583.678V437.658H585.262V440.916H586.882C588.07 440.916 589 441.15 589.672 441.618C590.344 442.086 590.68 442.842 590.68 443.886ZM585.262 442.266V445.65H586.774C587.458 445.65 588.01 445.524 588.43 445.272C588.862 445.008 589.078 444.576 589.078 443.976C589.078 443.364 588.886 442.926 588.502 442.662C588.118 442.398 587.578 442.266 586.882 442.266H585.262ZM600.683 447.18C599.963 447.18 599.309 447.072 598.721 446.856C598.145 446.628 597.653 446.31 597.245 445.902C596.837 445.482 596.525 444.972 596.309 444.372C596.093 443.772 595.985 443.088 595.985 442.32C595.985 441.564 596.093 440.886 596.309 440.286C596.537 439.686 596.855 439.182 597.263 438.774C597.671 438.354 598.169 438.036 598.757 437.82C599.345 437.592 600.011 437.478 600.755 437.478C601.331 437.478 601.859 437.544 602.339 437.676C602.819 437.796 603.215 437.976 603.527 438.216V439.638C603.143 439.386 602.711 439.2 602.231 439.08C601.763 438.948 601.277 438.882 600.773 438.882C599.681 438.882 598.877 439.164 598.361 439.728C597.857 440.292 597.605 441.156 597.605 442.32C597.605 443.484 597.851 444.348 598.343 444.912C598.835 445.476 599.615 445.758 600.683 445.758C601.247 445.758 601.763 445.692 602.231 445.56C602.711 445.416 603.143 445.236 603.527 445.02V446.442C603.191 446.646 602.783 446.82 602.303 446.964C601.835 447.108 601.295 447.18 600.683 447.18ZM612.8 447H611.216V442.896C610.892 443.148 610.514 443.346 610.082 443.49C609.662 443.622 609.182 443.688 608.642 443.688C607.586 443.688 606.776 443.43 606.212 442.914C605.66 442.386 605.384 441.546 605.384 440.394V437.658H606.986V440.412C606.986 441.144 607.154 441.654 607.49 441.942C607.826 442.23 608.3 442.374 608.912 442.374C609.332 442.374 609.74 442.314 610.136 442.194C610.532 442.074 610.892 441.888 611.216 441.636V437.658H612.8V447ZM622.824 446.208C622.692 446.304 622.53 446.406 622.338 446.514C622.146 446.622 621.912 446.73 621.636 446.838C621.36 446.934 621.048 447.012 620.7 447.072C620.352 447.144 619.962 447.18 619.53 447.18C617.958 447.18 616.764 446.754 615.948 445.902C615.132 445.05 614.724 443.856 614.724 442.32C614.724 441.564 614.832 440.886 615.048 440.286C615.276 439.686 615.588 439.182 615.984 438.774C616.38 438.354 616.848 438.036 617.388 437.82C617.928 437.592 618.516 437.478 619.152 437.478C619.824 437.478 620.424 437.592 620.952 437.82C621.48 438.048 621.912 438.384 622.248 438.828C622.596 439.272 622.83 439.824 622.95 440.484C623.082 441.132 623.082 441.888 622.95 442.752H616.362C616.422 443.76 616.722 444.516 617.262 445.02C617.802 445.512 618.606 445.758 619.674 445.758C620.394 445.758 621.012 445.656 621.528 445.452C622.044 445.248 622.476 445.026 622.824 444.786V446.208ZM619.116 438.882C618.432 438.882 617.844 439.092 617.352 439.512C616.86 439.932 616.548 440.568 616.416 441.42H621.438C621.486 440.556 621.288 439.92 620.844 439.512C620.4 439.092 619.824 438.882 619.116 438.882ZM628.749 439.008V447H627.165V439.008H624.231V437.658H631.737V439.008H628.749Z" fill="#0055D9"/>
<rect x="826" y="396" width="306" height="90" rx="6" fill="url(#paint1_linear)"/>
<path d="M922.861 441.096V439.656H924.679C925.579 439.656 926.263 439.464 926.731 439.08C927.199 438.684 927.433 438.144 927.433 437.46C927.433 436.728 927.187 436.212 926.695 435.912C926.203 435.6 925.555 435.444 924.751 435.444C923.923 435.444 923.179 435.534 922.519 435.714C921.859 435.894 921.277 436.116 920.773 436.38V434.778C921.169 434.574 921.685 434.382 922.321 434.202C922.969 434.022 923.785 433.932 924.769 433.932C926.113 433.932 927.181 434.214 927.973 434.778C928.765 435.33 929.161 436.188 929.161 437.352C929.161 438.108 928.933 438.732 928.477 439.224C928.033 439.716 927.379 440.064 926.515 440.268C927.535 440.4 928.303 440.712 928.819 441.204C929.347 441.684 929.611 442.374 929.611 443.274C929.611 443.958 929.479 444.552 929.215 445.056C928.951 445.548 928.591 445.95 928.135 446.262C927.691 446.574 927.163 446.808 926.551 446.964C925.939 447.108 925.291 447.18 924.607 447.18C923.635 447.18 922.801 447.066 922.105 446.838C921.409 446.598 920.899 446.34 920.575 446.064V444.444C921.691 445.248 923.017 445.65 924.553 445.65C924.997 445.65 925.417 445.614 925.813 445.542C926.209 445.458 926.557 445.326 926.857 445.146C927.157 444.966 927.391 444.726 927.559 444.426C927.739 444.126 927.829 443.754 927.829 443.31C927.829 442.494 927.565 441.924 927.037 441.6C926.521 441.264 925.747 441.096 924.715 441.096H922.861ZM937.305 445.218C937.197 445.434 937.059 445.662 936.891 445.902C936.723 446.13 936.513 446.34 936.261 446.532C936.009 446.724 935.709 446.88 935.361 447C935.025 447.12 934.629 447.18 934.173 447.18C933.333 447.18 932.655 446.946 932.139 446.478C931.623 445.998 931.365 445.314 931.365 444.426C931.365 443.406 931.719 442.656 932.427 442.176C933.147 441.696 934.167 441.456 935.487 441.456H937.233V440.682C937.233 440.034 937.065 439.572 936.729 439.296C936.393 439.02 935.817 438.882 935.001 438.882C934.425 438.882 933.879 438.978 933.363 439.17C932.847 439.35 932.385 439.56 931.977 439.8V438.378C932.313 438.174 932.763 437.976 933.327 437.784C933.903 437.58 934.533 437.478 935.217 437.478C936.393 437.478 937.287 437.724 937.899 438.216C938.511 438.696 938.817 439.446 938.817 440.466V445.488C938.817 445.596 938.817 445.722 938.817 445.866C938.829 445.998 938.835 446.136 938.835 446.28C938.847 446.424 938.859 446.562 938.871 446.694C938.883 446.814 938.895 446.916 938.907 447H937.467C937.431 446.832 937.395 446.598 937.359 446.298C937.335 445.986 937.323 445.716 937.323 445.488L937.305 445.218ZM934.515 445.758C935.007 445.758 935.427 445.656 935.775 445.452C936.123 445.248 936.405 445.014 936.621 444.75C936.837 444.474 936.993 444.21 937.089 443.958C937.185 443.694 937.233 443.508 937.233 443.4V442.716H935.649C934.701 442.716 934.011 442.854 933.579 443.13C933.159 443.394 932.949 443.796 932.949 444.336C932.949 444.756 933.075 445.098 933.327 445.362C933.579 445.626 933.975 445.758 934.515 445.758ZM941.308 437.658H948.796V447H947.212V439.008H942.892V447H941.308V437.658ZM955.97 446.892C955.754 447.456 955.526 447.948 955.286 448.368C955.046 448.8 954.776 449.166 954.476 449.466C954.176 449.766 953.84 449.988 953.468 450.132C953.096 450.288 952.67 450.366 952.19 450.366C951.95 450.366 951.728 450.348 951.524 450.312C951.32 450.288 951.134 450.24 950.966 450.168V448.638C951.098 448.734 951.266 448.806 951.47 448.854C951.674 448.914 951.896 448.944 952.136 448.944C952.58 448.944 952.946 448.836 953.234 448.62C953.522 448.416 953.798 448.086 954.062 447.63L950.264 437.658H952.01L954.98 445.542L957.932 437.658H959.462L955.97 446.892ZM964.887 447.18C964.167 447.18 963.513 447.072 962.925 446.856C962.349 446.628 961.857 446.31 961.449 445.902C961.041 445.482 960.729 444.972 960.513 444.372C960.297 443.772 960.189 443.088 960.189 442.32C960.189 441.564 960.297 440.886 960.513 440.286C960.741 439.686 961.059 439.182 961.467 438.774C961.875 438.354 962.373 438.036 962.961 437.82C963.549 437.592 964.215 437.478 964.959 437.478C965.535 437.478 966.063 437.544 966.543 437.676C967.023 437.796 967.419 437.976 967.731 438.216V439.638C967.347 439.386 966.915 439.2 966.435 439.08C965.967 438.948 965.481 438.882 964.977 438.882C963.885 438.882 963.081 439.164 962.565 439.728C962.061 440.292 961.809 441.156 961.809 442.32C961.809 443.484 962.055 444.348 962.547 444.912C963.039 445.476 963.819 445.758 964.887 445.758C965.451 445.758 965.967 445.692 966.435 445.56C966.915 445.416 967.347 445.236 967.731 445.02V446.442C967.395 446.646 966.987 446.82 966.507 446.964C966.039 447.108 965.499 447.18 964.887 447.18ZM973.617 439.008V447H972.033V439.008H969.099V437.658H976.605V439.008H973.617ZM980.017 444.84L985.003 437.658H986.605V447H985.021V439.836L980.053 447H978.433V437.658H980.017V444.84ZM992.953 439.008V447H991.369V439.008H988.435V437.658H995.941V439.008H992.953ZM1004.72 443.886C1004.72 444.426 1004.62 444.894 1004.43 445.29C1004.24 445.686 1003.97 446.01 1003.62 446.262C1003.27 446.514 1002.86 446.7 1002.38 446.82C1001.9 446.94 1001.37 447 1000.81 447H997.715V437.658H999.299V440.916H1000.92C1002.11 440.916 1003.04 441.15 1003.71 441.618C1004.38 442.086 1004.72 442.842 1004.72 443.886ZM999.299 442.266V445.65H1000.81C1001.49 445.65 1002.05 445.524 1002.47 445.272C1002.9 445.008 1003.11 444.576 1003.11 443.976C1003.11 443.364 1002.92 442.926 1002.54 442.662C1002.15 442.398 1001.61 442.266 1000.92 442.266H999.299ZM1010.69 437.658H1018.18V447H1016.59V439.008H1012.27V447H1010.69V437.658ZM1025.35 446.892C1025.13 447.456 1024.91 447.948 1024.67 448.368C1024.43 448.8 1024.16 449.166 1023.86 449.466C1023.56 449.766 1023.22 449.988 1022.85 450.132C1022.48 450.288 1022.05 450.366 1021.57 450.366C1021.33 450.366 1021.11 450.348 1020.9 450.312C1020.7 450.288 1020.51 450.24 1020.35 450.168V448.638C1020.48 448.734 1020.65 448.806 1020.85 448.854C1021.05 448.914 1021.28 448.944 1021.52 448.944C1021.96 448.944 1022.33 448.836 1022.61 448.62C1022.9 448.416 1023.18 448.086 1023.44 447.63L1019.64 437.658H1021.39L1024.36 445.542L1027.31 437.658H1028.84L1025.35 446.892ZM1030.41 444.102C1030.58 443.49 1030.69 442.662 1030.73 441.618C1030.78 440.574 1030.81 439.254 1030.81 437.658H1037.09V447H1035.49V439.008H1032.3C1032.29 440.292 1032.25 441.432 1032.17 442.428C1032.11 443.424 1031.98 444.264 1031.76 444.948C1031.56 445.632 1031.25 446.154 1030.84 446.514C1030.45 446.862 1029.91 447.036 1029.24 447.036C1029.19 447.036 1029.14 447.036 1029.1 447.036C1029.05 447.036 1028.99 447.03 1028.93 447.018V445.452C1028.99 445.464 1029.07 445.47 1029.17 445.47C1029.78 445.47 1030.19 445.014 1030.41 444.102Z" fill="#0055D9"/>
<rect y="396" width="306" height="90" rx="6" fill="url(#paint2_linear)"/>
<path d="M53.5482 441.096V439.656H55.3662C56.2662 439.656 56.9502 439.464 57.4182 439.08C57.8862 438.684 58.1202 438.144 58.1202 437.46C58.1202 436.728 57.8742 436.212 57.3822 435.912C56.8902 435.6 56.2422 435.444 55.4382 435.444C54.6102 435.444 53.8662 435.534 53.2062 435.714C52.5462 435.894 51.9642 436.116 51.4602 436.38V434.778C51.8562 434.574 52.3722 434.382 53.0082 434.202C53.6562 434.022 54.4722 433.932 55.4562 433.932C56.8002 433.932 57.8682 434.214 58.6602 434.778C59.4522 435.33 59.8482 436.188 59.8482 437.352C59.8482 438.108 59.6202 438.732 59.1642 439.224C58.7202 439.716 58.0662 440.064 57.2022 440.268C58.2222 440.4 58.9902 440.712 59.5062 441.204C60.0342 441.684 60.2982 442.374 60.2982 443.274C60.2982 443.958 60.1662 444.552 59.9022 445.056C59.6382 445.548 59.2782 445.95 58.8222 446.262C58.3782 446.574 57.8502 446.808 57.2382 446.964C56.6262 447.108 55.9782 447.18 55.2942 447.18C54.3222 447.18 53.4882 447.066 52.7922 446.838C52.0962 446.598 51.5862 446.34 51.2622 446.064V444.444C52.3782 445.248 53.7042 445.65 55.2402 445.65C55.6842 445.65 56.1042 445.614 56.5002 445.542C56.8962 445.458 57.2442 445.326 57.5442 445.146C57.8442 444.966 58.0782 444.726 58.2462 444.426C58.4262 444.126 58.5162 443.754 58.5162 443.31C58.5162 442.494 58.2522 441.924 57.7242 441.6C57.2082 441.264 56.4342 441.096 55.4022 441.096H53.5482ZM67.9926 445.218C67.8846 445.434 67.7466 445.662 67.5786 445.902C67.4106 446.13 67.2006 446.34 66.9486 446.532C66.6966 446.724 66.3966 446.88 66.0486 447C65.7126 447.12 65.3166 447.18 64.8606 447.18C64.0206 447.18 63.3426 446.946 62.8266 446.478C62.3106 445.998 62.0526 445.314 62.0526 444.426C62.0526 443.406 62.4066 442.656 63.1146 442.176C63.8346 441.696 64.8546 441.456 66.1746 441.456H67.9206V440.682C67.9206 440.034 67.7526 439.572 67.4166 439.296C67.0806 439.02 66.5046 438.882 65.6886 438.882C65.1126 438.882 64.5666 438.978 64.0506 439.17C63.5346 439.35 63.0726 439.56 62.6646 439.8V438.378C63.0006 438.174 63.4506 437.976 64.0146 437.784C64.5906 437.58 65.2206 437.478 65.9046 437.478C67.0806 437.478 67.9746 437.724 68.5866 438.216C69.1986 438.696 69.5046 439.446 69.5046 440.466V445.488C69.5046 445.596 69.5046 445.722 69.5046 445.866C69.5166 445.998 69.5226 446.136 69.5226 446.28C69.5346 446.424 69.5466 446.562 69.5586 446.694C69.5706 446.814 69.5826 446.916 69.5946 447H68.1546C68.1186 446.832 68.0826 446.598 68.0466 446.298C68.0226 445.986 68.0106 445.716 68.0106 445.488L67.9926 445.218ZM65.2026 445.758C65.6946 445.758 66.1146 445.656 66.4626 445.452C66.8106 445.248 67.0926 445.014 67.3086 444.75C67.5246 444.474 67.6806 444.21 67.7766 443.958C67.8726 443.694 67.9206 443.508 67.9206 443.4V442.716H66.3366C65.3886 442.716 64.6986 442.854 64.2666 443.13C63.8466 443.394 63.6366 443.796 63.6366 444.336C63.6366 444.756 63.7626 445.098 64.0146 445.362C64.2666 445.626 64.6626 445.758 65.2026 445.758ZM71.9952 437.658H77.9352V439.008H73.5792V447H71.9952V437.658ZM84.5506 447.18C83.8306 447.18 83.2066 447.012 82.6786 446.676C82.1626 446.34 81.7486 445.878 81.4366 445.29V450.186H79.8526V437.658H81.2386L81.4006 439.476C81.7126 438.864 82.1326 438.378 82.6606 438.018C83.1886 437.658 83.8426 437.478 84.6226 437.478C85.1626 437.478 85.6786 437.58 86.1706 437.784C86.6746 437.976 87.1126 438.276 87.4846 438.684C87.8686 439.08 88.1686 439.584 88.3846 440.196C88.6126 440.796 88.7266 441.504 88.7266 442.32C88.7266 443.148 88.6126 443.868 88.3846 444.48C88.1566 445.08 87.8506 445.584 87.4666 445.992C87.0826 446.388 86.6386 446.688 86.1346 446.892C85.6306 447.084 85.1026 447.18 84.5506 447.18ZM84.3166 445.758C85.1446 445.758 85.8106 445.476 86.3146 444.912C86.8306 444.336 87.0886 443.472 87.0886 442.32C87.0886 441.192 86.8306 440.34 86.3146 439.764C85.8106 439.176 85.1446 438.882 84.3166 438.882C83.9086 438.882 83.5246 438.954 83.1646 439.098C82.8166 439.242 82.5106 439.458 82.2466 439.746C81.9946 440.022 81.7906 440.376 81.6346 440.808C81.4906 441.24 81.4186 441.744 81.4186 442.32C81.4186 442.896 81.4906 443.4 81.6346 443.832C81.7906 444.264 81.9946 444.624 82.2466 444.912C82.5106 445.2 82.8166 445.416 83.1646 445.56C83.5246 445.692 83.9086 445.758 84.3166 445.758ZM95.1477 446.892C94.9317 447.456 94.7037 447.948 94.4637 448.368C94.2237 448.8 93.9537 449.166 93.6537 449.466C93.3537 449.766 93.0177 449.988 92.6457 450.132C92.2737 450.288 91.8477 450.366 91.3677 450.366C91.1277 450.366 90.9057 450.348 90.7017 450.312C90.4977 450.288 90.3117 450.24 90.1437 450.168V448.638C90.2757 448.734 90.4437 448.806 90.6477 448.854C90.8517 448.914 91.0737 448.944 91.3137 448.944C91.7577 448.944 92.1237 448.836 92.4117 448.62C92.6997 448.416 92.9757 448.086 93.2397 447.63L89.4417 437.658H91.1877L94.1577 445.542L97.1097 437.658H98.6397L95.1477 446.892ZM106.832 444.282C106.832 444.81 106.724 445.26 106.508 445.632C106.304 445.992 106.022 446.292 105.662 446.532C105.302 446.76 104.882 446.922 104.402 447.018C103.934 447.126 103.442 447.18 102.926 447.18C102.242 447.18 101.636 447.108 101.108 446.964C100.592 446.82 100.184 446.646 99.8841 446.442V445.02C100.256 445.248 100.7 445.428 101.216 445.56C101.732 445.692 102.29 445.758 102.89 445.758C103.574 445.758 104.144 445.65 104.6 445.434C105.068 445.206 105.302 444.822 105.302 444.282C105.302 443.754 105.104 443.382 104.708 443.166C104.324 442.95 103.73 442.842 102.926 442.842H101.684V441.564H102.98C103.64 441.564 104.144 441.444 104.492 441.204C104.84 440.964 105.014 440.616 105.014 440.16C105.014 439.92 104.954 439.722 104.834 439.566C104.726 439.398 104.576 439.266 104.384 439.17C104.192 439.062 103.964 438.99 103.7 438.954C103.448 438.906 103.178 438.882 102.89 438.882C102.338 438.882 101.822 438.948 101.342 439.08C100.874 439.212 100.448 439.398 100.064 439.638V438.216C100.376 438.012 100.778 437.838 101.27 437.694C101.774 437.55 102.356 437.478 103.016 437.478C104.156 437.478 105.014 437.694 105.59 438.126C106.178 438.558 106.472 439.182 106.472 439.998C106.472 440.61 106.304 441.09 105.968 441.438C105.644 441.786 105.182 442.026 104.582 442.158C105.326 442.254 105.884 442.488 106.256 442.86C106.64 443.232 106.832 443.706 106.832 444.282ZM110.739 444.84L115.725 437.658H117.327V447H115.743V439.836L110.775 447H109.155V437.658H110.739V444.84ZM123.675 439.008V447H122.091V439.008H119.157V437.658H126.663V439.008H123.675ZM135.439 443.886C135.439 444.426 135.343 444.894 135.151 445.29C134.959 445.686 134.689 446.01 134.341 446.262C133.993 446.514 133.579 446.7 133.099 446.82C132.619 446.94 132.097 447 131.533 447H128.437V437.658H130.021V440.916H131.641C132.829 440.916 133.759 441.15 134.431 441.618C135.103 442.086 135.439 442.842 135.439 443.886ZM130.021 442.266V445.65H131.533C132.217 445.65 132.769 445.524 133.189 445.272C133.621 445.008 133.837 444.576 133.837 443.976C133.837 443.364 133.645 442.926 133.261 442.662C132.877 442.398 132.337 442.266 131.641 442.266H130.021ZM148.035 444.282C148.035 444.81 147.927 445.26 147.711 445.632C147.507 445.992 147.225 446.292 146.865 446.532C146.505 446.76 146.085 446.922 145.605 447.018C145.137 447.126 144.645 447.18 144.129 447.18C143.445 447.18 142.839 447.108 142.311 446.964C141.795 446.82 141.387 446.646 141.087 446.442V445.02C141.459 445.248 141.903 445.428 142.419 445.56C142.935 445.692 143.493 445.758 144.093 445.758C144.777 445.758 145.347 445.65 145.803 445.434C146.271 445.206 146.505 444.822 146.505 444.282C146.505 443.754 146.307 443.382 145.911 443.166C145.527 442.95 144.933 442.842 144.129 442.842H142.887V441.564H144.183C144.843 441.564 145.347 441.444 145.695 441.204C146.043 440.964 146.217 440.616 146.217 440.16C146.217 439.92 146.157 439.722 146.037 439.566C145.929 439.398 145.779 439.266 145.587 439.17C145.395 439.062 145.167 438.99 144.903 438.954C144.651 438.906 144.381 438.882 144.093 438.882C143.541 438.882 143.025 438.948 142.545 439.08C142.077 439.212 141.651 439.398 141.267 439.638V438.216C141.579 438.012 141.981 437.838 142.473 437.694C142.977 437.55 143.559 437.478 144.219 437.478C145.359 437.478 146.217 437.694 146.793 438.126C147.381 438.558 147.675 439.182 147.675 439.998C147.675 440.61 147.507 441.09 147.171 441.438C146.847 441.786 146.385 442.026 145.785 442.158C146.529 442.254 147.087 442.488 147.459 442.86C147.843 443.232 148.035 443.706 148.035 444.282ZM155.831 445.218C155.723 445.434 155.585 445.662 155.417 445.902C155.249 446.13 155.039 446.34 154.787 446.532C154.535 446.724 154.235 446.88 153.887 447C153.551 447.12 153.155 447.18 152.699 447.18C151.859 447.18 151.181 446.946 150.665 446.478C150.149 445.998 149.891 445.314 149.891 444.426C149.891 443.406 150.245 442.656 150.953 442.176C151.673 441.696 152.693 441.456 154.013 441.456H155.759V440.682C155.759 440.034 155.591 439.572 155.255 439.296C154.919 439.02 154.343 438.882 153.527 438.882C152.951 438.882 152.405 438.978 151.889 439.17C151.373 439.35 150.911 439.56 150.503 439.8V438.378C150.839 438.174 151.289 437.976 151.853 437.784C152.429 437.58 153.059 437.478 153.743 437.478C154.919 437.478 155.813 437.724 156.425 438.216C157.037 438.696 157.343 439.446 157.343 440.466V445.488C157.343 445.596 157.343 445.722 157.343 445.866C157.355 445.998 157.361 446.136 157.361 446.28C157.373 446.424 157.385 446.562 157.397 446.694C157.409 446.814 157.421 446.916 157.433 447H155.993C155.957 446.832 155.921 446.598 155.885 446.298C155.861 445.986 155.849 445.716 155.849 445.488L155.831 445.218ZM153.041 445.758C153.533 445.758 153.953 445.656 154.301 445.452C154.649 445.248 154.931 445.014 155.147 444.75C155.363 444.474 155.519 444.21 155.615 443.958C155.711 443.694 155.759 443.508 155.759 443.4V442.716H154.175C153.227 442.716 152.537 442.854 152.105 443.13C151.685 443.394 151.475 443.796 151.475 444.336C151.475 444.756 151.601 445.098 151.853 445.362C152.105 445.626 152.501 445.758 153.041 445.758ZM159.417 445.65C159.753 445.446 160.017 445.128 160.209 444.696C160.401 444.264 160.551 443.718 160.659 443.058C160.767 442.398 160.839 441.618 160.875 440.718C160.923 439.818 160.965 438.798 161.001 437.658H167.427V445.65H168.831V449.664H167.445L167.247 447H160.299L160.137 449.664H158.715V445.65H159.417ZM165.843 445.65V439.008H162.423C162.363 440.772 162.249 442.188 162.081 443.256C161.925 444.312 161.649 445.11 161.253 445.65H165.843ZM175.87 445.218C175.762 445.434 175.624 445.662 175.456 445.902C175.288 446.13 175.078 446.34 174.826 446.532C174.574 446.724 174.274 446.88 173.926 447C173.59 447.12 173.194 447.18 172.738 447.18C171.898 447.18 171.22 446.946 170.704 446.478C170.188 445.998 169.93 445.314 169.93 444.426C169.93 443.406 170.284 442.656 170.992 442.176C171.712 441.696 172.732 441.456 174.052 441.456H175.798V440.682C175.798 440.034 175.63 439.572 175.294 439.296C174.958 439.02 174.382 438.882 173.566 438.882C172.99 438.882 172.444 438.978 171.928 439.17C171.412 439.35 170.95 439.56 170.542 439.8V438.378C170.878 438.174 171.328 437.976 171.892 437.784C172.468 437.58 173.098 437.478 173.782 437.478C174.958 437.478 175.852 437.724 176.464 438.216C177.076 438.696 177.382 439.446 177.382 440.466V445.488C177.382 445.596 177.382 445.722 177.382 445.866C177.394 445.998 177.4 446.136 177.4 446.28C177.412 446.424 177.424 446.562 177.436 446.694C177.448 446.814 177.46 446.916 177.472 447H176.032C175.996 446.832 175.96 446.598 175.924 446.298C175.9 445.986 175.888 445.716 175.888 445.488L175.87 445.218ZM173.08 445.758C173.572 445.758 173.992 445.656 174.34 445.452C174.688 445.248 174.97 445.014 175.186 444.75C175.402 444.474 175.558 444.21 175.654 443.958C175.75 443.694 175.798 443.508 175.798 443.4V442.716H174.214C173.266 442.716 172.576 442.854 172.144 443.13C171.724 443.394 171.514 443.796 171.514 444.336C171.514 444.756 171.64 445.098 171.892 445.362C172.144 445.626 172.54 445.758 173.08 445.758ZM185.974 442.86H181.456V447H179.872V437.658H181.456V441.51H185.974V437.658H187.558V447H185.974V442.86ZM191.739 444.84L196.725 437.658H198.327V447H196.743V439.836L191.775 447H190.155V437.658H191.739V444.84ZM200.913 440.682C200.913 440.154 201.009 439.704 201.201 439.332C201.393 438.948 201.663 438.636 202.011 438.396C202.359 438.144 202.773 437.958 203.253 437.838C203.733 437.718 204.255 437.658 204.819 437.658H207.825V447H206.241V443.616H204.531L202.137 447H200.247L202.947 443.22C202.299 443.028 201.795 442.734 201.435 442.338C201.087 441.942 200.913 441.39 200.913 440.682ZM206.241 442.266V439.008H204.819C204.147 439.008 203.595 439.134 203.163 439.386C202.731 439.638 202.515 440.046 202.515 440.61C202.515 441.198 202.707 441.624 203.091 441.888C203.475 442.14 204.021 442.266 204.729 442.266H206.241ZM214.378 437.658H217.87C218.998 437.658 219.85 437.856 220.426 438.252C221.002 438.636 221.29 439.242 221.29 440.07C221.29 440.622 221.146 441.066 220.858 441.402C220.582 441.726 220.186 441.96 219.67 442.104C221.002 442.32 221.668 443.058 221.668 444.318C221.668 444.798 221.572 445.212 221.38 445.56C221.188 445.896 220.924 446.172 220.588 446.388C220.252 446.604 219.844 446.76 219.364 446.856C218.896 446.952 218.386 447 217.834 447H214.378V437.658ZM215.962 439.008V441.546H217.726C218.326 441.546 218.806 441.438 219.166 441.222C219.538 441.006 219.724 440.694 219.724 440.286C219.724 439.794 219.562 439.458 219.238 439.278C218.914 439.098 218.452 439.008 217.852 439.008H215.962ZM215.962 442.806V445.65H217.816C218.152 445.65 218.452 445.632 218.716 445.596C218.992 445.548 219.226 445.47 219.418 445.362C219.622 445.254 219.778 445.11 219.886 444.93C219.994 444.75 220.048 444.528 220.048 444.264C220.048 443.724 219.862 443.346 219.49 443.13C219.118 442.914 218.56 442.806 217.816 442.806H215.962ZM228.001 437.658H235.489V447H233.905V439.008H229.585V447H228.001V437.658ZM242.663 446.892C242.447 447.456 242.219 447.948 241.979 448.368C241.739 448.8 241.469 449.166 241.169 449.466C240.869 449.766 240.533 449.988 240.161 450.132C239.789 450.288 239.363 450.366 238.883 450.366C238.643 450.366 238.421 450.348 238.217 450.312C238.013 450.288 237.827 450.24 237.659 450.168V448.638C237.791 448.734 237.959 448.806 238.163 448.854C238.367 448.914 238.589 448.944 238.829 448.944C239.273 448.944 239.639 448.836 239.927 448.62C240.215 448.416 240.491 448.086 240.755 447.63L236.957 437.658H238.703L241.673 445.542L244.625 437.658H246.155L242.663 446.892ZM247.723 444.102C247.891 443.49 247.999 442.662 248.047 441.618C248.095 440.574 248.119 439.254 248.119 437.658H254.401V447H252.799V439.008H249.613C249.601 440.292 249.559 441.432 249.487 442.428C249.427 443.424 249.289 444.264 249.073 444.948C248.869 445.632 248.563 446.154 248.155 446.514C247.759 446.862 247.225 447.036 246.553 447.036C246.505 447.036 246.457 447.036 246.409 447.036C246.361 447.036 246.307 447.03 246.247 447.018V445.452C246.307 445.464 246.385 445.47 246.481 445.47C247.093 445.47 247.507 445.014 247.723 444.102Z" fill="#0055D9"/>
<path d="M153.042 342L153.042 393.991" stroke="#1E2126" stroke-width="2.00935"/>
<path fill-rule="evenodd" clip-rule="evenodd" d="M152.995 392.712L160.453 385.254L162.084 386.884L152.968 396L144 387.031L145.657 385.374L152.995 392.712Z" fill="#1E2126"/>
<path d="M153.042 144L153.042 195.991" stroke="#1E2126" stroke-width="2.00935"/>
<path fill-rule="evenodd" clip-rule="evenodd" d="M152.995 194.712L160.453 187.254L162.084 188.884L152.968 198L144 189.031L145.657 187.374L152.995 194.712Z" fill="#1E2126"/>
<path d="M719 440.958L823.991 440.958" stroke="#1E2126" stroke-width="2.00935"/>
<path fill-rule="evenodd" clip-rule="evenodd" d="M822.712 441.005L815.254 433.547L816.884 431.916L826 441.032L817.031 450L815.374 448.343L822.712 441.005Z" fill="#1E2126"/>
<path d="M306 440.958L410.991 440.958" stroke="#1E2126" stroke-width="2.00935"/>
<path fill-rule="evenodd" clip-rule="evenodd" d="M409.712 441.005L402.254 433.547L403.884 431.916L413 441.032L404.031 450L402.374 448.343L409.712 441.005Z" fill="#1E2126"/>
<rect y="198" width="306" height="90" rx="6" fill="url(#paint3_linear)"/>
<path d="M86.7407 243.366H80.1167V249H78.4247V236.094H80.1167V241.836H86.7407V236.094H88.4507V249H86.7407V243.366ZM96.7065 247.218C96.5985 247.434 96.4605 247.662 96.2925 247.902C96.1245 248.13 95.9145 248.34 95.6625 248.532C95.4105 248.724 95.1105 248.88 94.7625 249C94.4265 249.12 94.0305 249.18 93.5745 249.18C92.7345 249.18 92.0565 248.946 91.5405 248.478C91.0245 247.998 90.7665 247.314 90.7665 246.426C90.7665 245.406 91.1205 244.656 91.8285 244.176C92.5485 243.696 93.5685 243.456 94.8885 243.456H96.6345V242.682C96.6345 242.034 96.4665 241.572 96.1305 241.296C95.7945 241.02 95.2185 240.882 94.4025 240.882C93.8265 240.882 93.2805 240.978 92.7645 241.17C92.2485 241.35 91.7865 241.56 91.3785 241.8V240.378C91.7145 240.174 92.1645 239.976 92.7285 239.784C93.3045 239.58 93.9345 239.478 94.6185 239.478C95.7945 239.478 96.6885 239.724 97.3005 240.216C97.9125 240.696 98.2185 241.446 98.2185 242.466V247.488C98.2185 247.596 98.2185 247.722 98.2185 247.866C98.2305 247.998 98.2365 248.136 98.2365 248.28C98.2485 248.424 98.2605 248.562 98.2725 248.694C98.2845 248.814 98.2965 248.916 98.3085 249H96.8685C96.8325 248.832 96.7965 248.598 96.7605 248.298C96.7365 247.986 96.7245 247.716 96.7245 247.488L96.7065 247.218ZM93.9165 247.758C94.4085 247.758 94.8285 247.656 95.1765 247.452C95.5245 247.248 95.8065 247.014 96.0225 246.75C96.2385 246.474 96.3945 246.21 96.4905 245.958C96.5865 245.694 96.6345 245.508 96.6345 245.4V244.716H95.0505C94.1025 244.716 93.4125 244.854 92.9805 245.13C92.5605 245.394 92.3505 245.796 92.3505 246.336C92.3505 246.756 92.4765 247.098 92.7285 247.362C92.9805 247.626 93.3765 247.758 93.9165 247.758ZM104.741 249.18C104.021 249.18 103.367 249.072 102.779 248.856C102.203 248.628 101.711 248.31 101.303 247.902C100.895 247.482 100.583 246.972 100.367 246.372C100.151 245.772 100.043 245.088 100.043 244.32C100.043 243.564 100.151 242.886 100.367 242.286C100.595 241.686 100.913 241.182 101.321 240.774C101.729 240.354 102.227 240.036 102.815 239.82C103.403 239.592 104.069 239.478 104.813 239.478C105.389 239.478 105.917 239.544 106.397 239.676C106.877 239.796 107.273 239.976 107.585 240.216V241.638C107.201 241.386 106.769 241.2 106.289 241.08C105.821 240.948 105.335 240.882 104.831 240.882C103.739 240.882 102.935 241.164 102.419 241.728C101.915 242.292 101.663 243.156 101.663 244.32C101.663 245.484 101.909 246.348 102.401 246.912C102.893 247.476 103.673 247.758 104.741 247.758C105.305 247.758 105.821 247.692 106.289 247.56C106.769 247.416 107.201 247.236 107.585 247.02V248.442C107.249 248.646 106.841 248.82 106.361 248.964C105.893 249.108 105.353 249.18 104.741 249.18ZM113.471 241.008V249H111.887V241.008H108.953V239.658H116.459V241.008H113.471ZM122.985 249.18C122.265 249.18 121.641 249.012 121.113 248.676C120.597 248.34 120.183 247.878 119.871 247.29V252.186H118.287V239.658H119.673L119.835 241.476C120.147 240.864 120.567 240.378 121.095 240.018C121.623 239.658 122.277 239.478 123.057 239.478C123.597 239.478 124.113 239.58 124.605 239.784C125.109 239.976 125.547 240.276 125.919 240.684C126.303 241.08 126.603 241.584 126.819 242.196C127.047 242.796 127.161 243.504 127.161 244.32C127.161 245.148 127.047 245.868 126.819 246.48C126.591 247.08 126.285 247.584 125.901 247.992C125.517 248.388 125.073 248.688 124.569 248.892C124.065 249.084 123.537 249.18 122.985 249.18ZM122.751 247.758C123.579 247.758 124.245 247.476 124.749 246.912C125.265 246.336 125.523 245.472 125.523 244.32C125.523 243.192 125.265 242.34 124.749 241.764C124.245 241.176 123.579 240.882 122.751 240.882C122.343 240.882 121.959 240.954 121.599 241.098C121.251 241.242 120.945 241.458 120.681 241.746C120.429 242.022 120.225 242.376 120.069 242.808C119.925 243.24 119.853 243.744 119.853 244.32C119.853 244.896 119.925 245.4 120.069 245.832C120.225 246.264 120.429 246.624 120.681 246.912C120.945 247.2 121.251 247.416 121.599 247.56C121.959 247.692 122.343 247.758 122.751 247.758ZM132.914 249.18C132.278 249.18 131.684 249.072 131.132 248.856C130.58 248.64 130.1 248.328 129.692 247.92C129.296 247.5 128.984 246.99 128.756 246.39C128.528 245.79 128.414 245.1 128.414 244.32C128.414 243.552 128.528 242.868 128.756 242.268C128.984 241.656 129.296 241.146 129.692 240.738C130.1 240.33 130.58 240.018 131.132 239.802C131.684 239.586 132.278 239.478 132.914 239.478C133.562 239.478 134.162 239.586 134.714 239.802C135.266 240.018 135.74 240.33 136.136 240.738C136.544 241.146 136.862 241.656 137.09 242.268C137.33 242.868 137.45 243.552 137.45 244.32C137.45 245.1 137.33 245.79 137.09 246.39C136.862 246.99 136.544 247.5 136.136 247.92C135.74 248.328 135.266 248.64 134.714 248.856C134.162 249.072 133.562 249.18 132.914 249.18ZM132.914 247.758C133.334 247.758 133.718 247.692 134.066 247.56C134.426 247.416 134.738 247.206 135.002 246.93C135.266 246.642 135.47 246.282 135.614 245.85C135.758 245.418 135.83 244.908 135.83 244.32C135.83 243.732 135.758 243.222 135.614 242.79C135.47 242.358 135.266 242.004 135.002 241.728C134.738 241.44 134.426 241.23 134.066 241.098C133.718 240.954 133.334 240.882 132.914 240.882C132.494 240.882 132.11 240.954 131.762 241.098C131.414 241.23 131.108 241.44 130.844 241.728C130.592 242.004 130.394 242.358 130.25 242.79C130.106 243.222 130.034 243.732 130.034 244.32C130.034 244.908 130.106 245.418 130.25 245.85C130.394 246.282 130.592 246.642 130.844 246.93C131.108 247.206 131.414 247.416 131.762 247.56C132.11 247.692 132.494 247.758 132.914 247.758ZM140.965 246.84L145.951 239.658H147.553V249H145.969V241.836L141.001 249H139.381V239.658H140.965V246.84ZM153.901 241.008V249H152.317V241.008H149.383V239.658H156.889V241.008H153.901ZM165.665 245.886C165.665 246.426 165.569 246.894 165.377 247.29C165.185 247.686 164.915 248.01 164.567 248.262C164.219 248.514 163.805 248.7 163.325 248.82C162.845 248.94 162.323 249 161.759 249H158.663V239.658H160.247V242.916H161.867C163.055 242.916 163.985 243.15 164.657 243.618C165.329 244.086 165.665 244.842 165.665 245.886ZM160.247 244.266V247.65H161.759C162.443 247.65 162.995 247.524 163.415 247.272C163.847 247.008 164.063 246.576 164.063 245.976C164.063 245.364 163.871 244.926 163.487 244.662C163.103 244.398 162.563 244.266 161.867 244.266H160.247ZM171.637 239.658H179.125V249H177.541V241.008H173.221V249H171.637V239.658ZM186.407 249.18C185.687 249.18 185.063 249.012 184.535 248.676C184.019 248.34 183.605 247.878 183.293 247.29V252.186H181.709V239.658H183.095L183.257 241.476C183.569 240.864 183.989 240.378 184.517 240.018C185.045 239.658 185.699 239.478 186.479 239.478C187.019 239.478 187.535 239.58 188.027 239.784C188.531 239.976 188.969 240.276 189.341 240.684C189.725 241.08 190.025 241.584 190.241 242.196C190.469 242.796 190.583 243.504 190.583 244.32C190.583 245.148 190.469 245.868 190.241 246.48C190.013 247.08 189.707 247.584 189.323 247.992C188.939 248.388 188.495 248.688 187.991 248.892C187.487 249.084 186.959 249.18 186.407 249.18ZM186.173 247.758C187.001 247.758 187.667 247.476 188.171 246.912C188.687 246.336 188.945 245.472 188.945 244.32C188.945 243.192 188.687 242.34 188.171 241.764C187.667 241.176 187.001 240.882 186.173 240.882C185.765 240.882 185.381 240.954 185.021 241.098C184.673 241.242 184.367 241.458 184.103 241.746C183.851 242.022 183.647 242.376 183.491 242.808C183.347 243.24 183.275 243.744 183.275 244.32C183.275 244.896 183.347 245.4 183.491 245.832C183.647 246.264 183.851 246.624 184.103 246.912C184.367 247.2 184.673 247.416 185.021 247.56C185.381 247.692 185.765 247.758 186.173 247.758ZM196.336 249.18C195.7 249.18 195.106 249.072 194.554 248.856C194.002 248.64 193.522 248.328 193.114 247.92C192.718 247.5 192.406 246.99 192.178 246.39C191.95 245.79 191.836 245.1 191.836 244.32C191.836 243.552 191.95 242.868 192.178 242.268C192.406 241.656 192.718 241.146 193.114 240.738C193.522 240.33 194.002 240.018 194.554 239.802C195.106 239.586 195.7 239.478 196.336 239.478C196.984 239.478 197.584 239.586 198.136 239.802C198.688 240.018 199.162 240.33 199.558 240.738C199.966 241.146 200.284 241.656 200.512 242.268C200.752 242.868 200.872 243.552 200.872 244.32C200.872 245.1 200.752 245.79 200.512 246.39C200.284 246.99 199.966 247.5 199.558 247.92C199.162 248.328 198.688 248.64 198.136 248.856C197.584 249.072 196.984 249.18 196.336 249.18ZM196.336 247.758C196.756 247.758 197.14 247.692 197.488 247.56C197.848 247.416 198.16 247.206 198.424 246.93C198.688 246.642 198.892 246.282 199.036 245.85C199.18 245.418 199.252 244.908 199.252 244.32C199.252 243.732 199.18 243.222 199.036 242.79C198.892 242.358 198.688 242.004 198.424 241.728C198.16 241.44 197.848 241.23 197.488 241.098C197.14 240.954 196.756 240.882 196.336 240.882C195.916 240.882 195.532 240.954 195.184 241.098C194.836 241.23 194.53 241.44 194.266 241.728C194.014 242.004 193.816 242.358 193.672 242.79C193.528 243.222 193.456 243.732 193.456 244.32C193.456 244.908 193.528 245.418 193.672 245.85C193.816 246.282 194.014 246.642 194.266 246.93C194.53 247.206 194.836 247.416 195.184 247.56C195.532 247.692 195.916 247.758 196.336 247.758ZM210.237 248.208C210.105 248.304 209.943 248.406 209.751 248.514C209.559 248.622 209.325 248.73 209.049 248.838C208.773 248.934 208.461 249.012 208.113 249.072C207.765 249.144 207.375 249.18 206.943 249.18C205.371 249.18 204.177 248.754 203.361 247.902C202.545 247.05 202.137 245.856 202.137 244.32C202.137 243.564 202.245 242.886 202.461 242.286C202.689 241.686 203.001 241.182 203.397 240.774C203.793 240.354 204.261 240.036 204.801 239.82C205.341 239.592 205.929 239.478 206.565 239.478C207.237 239.478 207.837 239.592 208.365 239.82C208.893 240.048 209.325 240.384 209.661 240.828C210.009 241.272 210.243 241.824 210.363 242.484C210.495 243.132 210.495 243.888 210.363 244.752H203.775C203.835 245.76 204.135 246.516 204.675 247.02C205.215 247.512 206.019 247.758 207.087 247.758C207.807 247.758 208.425 247.656 208.941 247.452C209.457 247.248 209.889 247.026 210.237 246.786V248.208ZM206.529 240.882C205.845 240.882 205.257 241.092 204.765 241.512C204.273 241.932 203.961 242.568 203.829 243.42H208.851C208.899 242.556 208.701 241.92 208.257 241.512C207.813 241.092 207.237 240.882 206.529 240.882ZM214.9 245.022H214.072V249H212.488V239.658H214.072V243.672H214.972L218.248 239.658H220.048L216.214 244.266L220.12 249H218.194L214.9 245.022ZM225.549 241.008V249H223.965V241.008H221.031V239.658H228.537V241.008H225.549Z" fill="#0055D9"/>
<rect x="413" y="198" width="306" height="90" rx="6" fill="url(#paint4_linear)"/>
<path d="M494.275 247.47H495.931V252.06H494.365L494.185 249H484.915L484.717 252.06H483.187V247.47H484.069C484.477 247.098 484.801 246.6 485.041 245.976C485.293 245.34 485.485 244.56 485.617 243.636C485.749 242.712 485.845 241.626 485.905 240.378C485.965 239.13 486.013 237.702 486.049 236.094H494.275V247.47ZM492.565 247.47V237.642H487.633C487.597 239.01 487.543 240.222 487.471 241.278C487.411 242.322 487.315 243.24 487.183 244.032C487.063 244.824 486.907 245.502 486.715 246.066C486.535 246.618 486.307 247.086 486.031 247.47H492.565ZM501.688 249.18C501.052 249.18 500.458 249.072 499.906 248.856C499.354 248.64 498.874 248.328 498.466 247.92C498.07 247.5 497.758 246.99 497.53 246.39C497.302 245.79 497.188 245.1 497.188 244.32C497.188 243.552 497.302 242.868 497.53 242.268C497.758 241.656 498.07 241.146 498.466 240.738C498.874 240.33 499.354 240.018 499.906 239.802C500.458 239.586 501.052 239.478 501.688 239.478C502.336 239.478 502.936 239.586 503.488 239.802C504.04 240.018 504.514 240.33 504.91 240.738C505.318 241.146 505.636 241.656 505.864 242.268C506.104 242.868 506.224 243.552 506.224 244.32C506.224 245.1 506.104 245.79 505.864 246.39C505.636 246.99 505.318 247.5 504.91 247.92C504.514 248.328 504.04 248.64 503.488 248.856C502.936 249.072 502.336 249.18 501.688 249.18ZM501.688 247.758C502.108 247.758 502.492 247.692 502.84 247.56C503.2 247.416 503.512 247.206 503.776 246.93C504.04 246.642 504.244 246.282 504.388 245.85C504.532 245.418 504.604 244.908 504.604 244.32C504.604 243.732 504.532 243.222 504.388 242.79C504.244 242.358 504.04 242.004 503.776 241.728C503.512 241.44 503.2 241.23 502.84 241.098C502.492 240.954 502.108 240.882 501.688 240.882C501.268 240.882 500.884 240.954 500.536 241.098C500.188 241.23 499.882 241.44 499.618 241.728C499.366 242.004 499.168 242.358 499.024 242.79C498.88 243.222 498.808 243.732 498.808 244.32C498.808 244.908 498.88 245.418 499.024 245.85C499.168 246.282 499.366 246.642 499.618 246.93C499.882 247.206 500.188 247.416 500.536 247.56C500.884 247.692 501.268 247.758 501.688 247.758ZM516.578 244.32C516.578 245.1 516.458 245.79 516.218 246.39C515.99 246.99 515.672 247.5 515.264 247.92C514.868 248.328 514.394 248.64 513.842 248.856C513.29 249.072 512.69 249.18 512.042 249.18C511.382 249.18 510.776 249.072 510.224 248.856C509.672 248.628 509.198 248.286 508.802 247.83C508.406 247.374 508.094 246.798 507.866 246.102C507.65 245.406 507.542 244.584 507.542 243.636C507.542 242.856 507.566 242.112 507.614 241.404C507.662 240.696 507.77 240.042 507.938 239.442C508.106 238.83 508.346 238.284 508.658 237.804C508.982 237.312 509.414 236.904 509.954 236.58C510.254 236.4 510.566 236.268 510.89 236.184C511.214 236.088 511.538 236.016 511.862 235.968C512.198 235.92 512.534 235.89 512.87 235.878C513.206 235.866 513.536 235.854 513.86 235.842C514.34 235.806 514.742 235.746 515.066 235.662C515.39 235.578 515.678 235.464 515.93 235.32V236.76C515.666 236.928 515.384 237.048 515.084 237.12C514.796 237.18 514.442 237.234 514.022 237.282C513.338 237.342 512.708 237.39 512.132 237.426C511.568 237.45 511.052 237.582 510.584 237.822C509.984 238.158 509.558 238.662 509.306 239.334C509.066 239.994 508.916 240.78 508.856 241.692C509.48 240.252 510.656 239.532 512.384 239.532C512.972 239.532 513.518 239.64 514.022 239.856C514.538 240.06 514.982 240.366 515.354 240.774C515.738 241.182 516.038 241.686 516.254 242.286C516.47 242.874 516.578 243.552 516.578 244.32ZM512.042 247.758C512.462 247.758 512.846 247.692 513.194 247.56C513.554 247.416 513.866 247.206 514.13 246.93C514.394 246.642 514.598 246.282 514.742 245.85C514.886 245.418 514.958 244.908 514.958 244.32C514.958 243.732 514.886 243.222 514.742 242.79C514.598 242.358 514.394 242.004 514.13 241.728C513.866 241.44 513.554 241.23 513.194 241.098C512.846 240.954 512.462 240.882 512.042 240.882C511.214 240.882 510.524 241.158 509.972 241.71C509.432 242.262 509.162 243.114 509.162 244.266C509.162 244.866 509.234 245.388 509.378 245.832C509.522 246.264 509.72 246.624 509.972 246.912C510.236 247.2 510.542 247.416 510.89 247.56C511.238 247.692 511.622 247.758 512.042 247.758ZM524.033 247.218C523.925 247.434 523.787 247.662 523.619 247.902C523.451 248.13 523.241 248.34 522.989 248.532C522.737 248.724 522.437 248.88 522.089 249C521.753 249.12 521.357 249.18 520.901 249.18C520.061 249.18 519.383 248.946 518.867 248.478C518.351 247.998 518.093 247.314 518.093 246.426C518.093 245.406 518.447 244.656 519.155 244.176C519.875 243.696 520.895 243.456 522.215 243.456H523.961V242.682C523.961 242.034 523.793 241.572 523.457 241.296C523.121 241.02 522.545 240.882 521.729 240.882C521.153 240.882 520.607 240.978 520.091 241.17C519.575 241.35 519.113 241.56 518.705 241.8V240.378C519.041 240.174 519.491 239.976 520.055 239.784C520.631 239.58 521.261 239.478 521.945 239.478C523.121 239.478 524.015 239.724 524.627 240.216C525.239 240.696 525.545 241.446 525.545 242.466V247.488C525.545 247.596 525.545 247.722 525.545 247.866C525.557 247.998 525.563 248.136 525.563 248.28C525.575 248.424 525.587 248.562 525.599 248.694C525.611 248.814 525.623 248.916 525.635 249H524.195C524.159 248.832 524.123 248.598 524.087 248.298C524.063 247.986 524.051 247.716 524.051 247.488L524.033 247.218ZM521.243 247.758C521.735 247.758 522.155 247.656 522.503 247.452C522.851 247.248 523.133 247.014 523.349 246.75C523.565 246.474 523.721 246.21 523.817 245.958C523.913 245.694 523.961 245.508 523.961 245.4V244.716H522.377C521.429 244.716 520.739 244.854 520.307 245.13C519.887 245.394 519.677 245.796 519.677 246.336C519.677 246.756 519.803 247.098 520.055 247.362C520.307 247.626 520.703 247.758 521.243 247.758ZM528.035 239.658H531.527C532.655 239.658 533.507 239.856 534.083 240.252C534.659 240.636 534.947 241.242 534.947 242.07C534.947 242.622 534.803 243.066 534.515 243.402C534.239 243.726 533.843 243.96 533.327 244.104C534.659 244.32 535.325 245.058 535.325 246.318C535.325 246.798 535.229 247.212 535.037 247.56C534.845 247.896 534.581 248.172 534.245 248.388C533.909 248.604 533.501 248.76 533.021 248.856C532.553 248.952 532.043 249 531.491 249H528.035V239.658ZM529.619 241.008V243.546H531.383C531.983 243.546 532.463 243.438 532.823 243.222C533.195 243.006 533.381 242.694 533.381 242.286C533.381 241.794 533.219 241.458 532.895 241.278C532.571 241.098 532.109 241.008 531.509 241.008H529.619ZM529.619 244.806V247.65H531.473C531.809 247.65 532.109 247.632 532.373 247.596C532.649 247.548 532.883 247.47 533.075 247.362C533.279 247.254 533.435 247.11 533.543 246.93C533.651 246.75 533.705 246.528 533.705 246.264C533.705 245.724 533.519 245.346 533.147 245.13C532.775 244.914 532.217 244.806 531.473 244.806H529.619ZM539.287 246.84L544.273 239.658H545.875V249H544.291V241.836L539.323 249H537.703V239.658H539.287V246.84ZM552.223 241.008V249H550.639V241.008H547.705V239.658H555.211V241.008H552.223ZM563.987 245.886C563.987 246.426 563.891 246.894 563.699 247.29C563.507 247.686 563.237 248.01 562.889 248.262C562.541 248.514 562.127 248.7 561.647 248.82C561.167 248.94 560.645 249 560.081 249H556.985V239.658H558.569V242.916H560.189C561.377 242.916 562.307 243.15 562.979 243.618C563.651 244.086 563.987 244.842 563.987 245.886ZM558.569 244.266V247.65H560.081C560.765 247.65 561.317 247.524 561.737 247.272C562.169 247.008 562.385 246.576 562.385 245.976C562.385 245.364 562.193 244.926 561.809 244.662C561.425 244.398 560.885 244.266 560.189 244.266H558.569ZM573.793 249.18C573.157 249.18 572.563 249.072 572.011 248.856C571.459 248.64 570.979 248.328 570.571 247.92C570.175 247.5 569.863 246.99 569.635 246.39C569.407 245.79 569.293 245.1 569.293 244.32C569.293 243.552 569.407 242.868 569.635 242.268C569.863 241.656 570.175 241.146 570.571 240.738C570.979 240.33 571.459 240.018 572.011 239.802C572.563 239.586 573.157 239.478 573.793 239.478C574.441 239.478 575.041 239.586 575.593 239.802C576.145 240.018 576.619 240.33 577.015 240.738C577.423 241.146 577.741 241.656 577.969 242.268C578.209 242.868 578.329 243.552 578.329 244.32C578.329 245.1 578.209 245.79 577.969 246.39C577.741 246.99 577.423 247.5 577.015 247.92C576.619 248.328 576.145 248.64 575.593 248.856C575.041 249.072 574.441 249.18 573.793 249.18ZM573.793 247.758C574.213 247.758 574.597 247.692 574.945 247.56C575.305 247.416 575.617 247.206 575.881 246.93C576.145 246.642 576.349 246.282 576.493 245.85C576.637 245.418 576.709 244.908 576.709 244.32C576.709 243.732 576.637 243.222 576.493 242.79C576.349 242.358 576.145 242.004 575.881 241.728C575.617 241.44 575.305 241.23 574.945 241.098C574.597 240.954 574.213 240.882 573.793 240.882C573.373 240.882 572.989 240.954 572.641 241.098C572.293 241.23 571.987 241.44 571.723 241.728C571.471 242.004 571.273 242.358 571.129 242.79C570.985 243.222 570.913 243.732 570.913 244.32C570.913 244.908 570.985 245.418 571.129 245.85C571.273 246.282 571.471 246.642 571.723 246.93C571.987 247.206 572.293 247.416 572.641 247.56C572.989 247.692 573.373 247.758 573.793 247.758ZM588.684 244.32C588.684 245.1 588.564 245.79 588.324 246.39C588.096 246.99 587.778 247.5 587.37 247.92C586.974 248.328 586.5 248.64 585.948 248.856C585.396 249.072 584.796 249.18 584.148 249.18C583.488 249.18 582.882 249.072 582.33 248.856C581.778 248.628 581.304 248.286 580.908 247.83C580.512 247.374 580.2 246.798 579.972 246.102C579.756 245.406 579.648 244.584 579.648 243.636C579.648 242.856 579.672 242.112 579.72 241.404C579.768 240.696 579.876 240.042 580.044 239.442C580.212 238.83 580.452 238.284 580.764 237.804C581.088 237.312 581.52 236.904 582.06 236.58C582.36 236.4 582.672 236.268 582.996 236.184C583.32 236.088 583.644 236.016 583.968 235.968C584.304 235.92 584.64 235.89 584.976 235.878C585.312 235.866 585.642 235.854 585.966 235.842C586.446 235.806 586.848 235.746 587.172 235.662C587.496 235.578 587.784 235.464 588.036 235.32V236.76C587.772 236.928 587.49 237.048 587.19 237.12C586.902 237.18 586.548 237.234 586.128 237.282C585.444 237.342 584.814 237.39 584.238 237.426C583.674 237.45 583.158 237.582 582.69 237.822C582.09 238.158 581.664 238.662 581.412 239.334C581.172 239.994 581.022 240.78 580.962 241.692C581.586 240.252 582.762 239.532 584.49 239.532C585.078 239.532 585.624 239.64 586.128 239.856C586.644 240.06 587.088 240.366 587.46 240.774C587.844 241.182 588.144 241.686 588.36 242.286C588.576 242.874 588.684 243.552 588.684 244.32ZM584.148 247.758C584.568 247.758 584.952 247.692 585.3 247.56C585.66 247.416 585.972 247.206 586.236 246.93C586.5 246.642 586.704 246.282 586.848 245.85C586.992 245.418 587.064 244.908 587.064 244.32C587.064 243.732 586.992 243.222 586.848 242.79C586.704 242.358 586.5 242.004 586.236 241.728C585.972 241.44 585.66 241.23 585.3 241.098C584.952 240.954 584.568 240.882 584.148 240.882C583.32 240.882 582.63 241.158 582.078 241.71C581.538 242.262 581.268 243.114 581.268 244.266C581.268 244.866 581.34 245.388 581.484 245.832C581.628 246.264 581.826 246.624 582.078 246.912C582.342 247.2 582.648 247.416 582.996 247.56C583.344 247.692 583.728 247.758 584.148 247.758ZM595.08 248.892C594.864 249.456 594.636 249.948 594.396 250.368C594.156 250.8 593.886 251.166 593.586 251.466C593.286 251.766 592.95 251.988 592.578 252.132C592.206 252.288 591.78 252.366 591.3 252.366C591.06 252.366 590.838 252.348 590.634 252.312C590.43 252.288 590.244 252.24 590.076 252.168V250.638C590.208 250.734 590.376 250.806 590.58 250.854C590.784 250.914 591.006 250.944 591.246 250.944C591.69 250.944 592.056 250.836 592.344 250.62C592.632 250.416 592.908 250.086 593.172 249.63L589.374 239.658H591.12L594.09 247.542L597.042 239.658H598.572L595.08 248.892ZM607.377 249H605.793V244.896C605.469 245.148 605.091 245.346 604.659 245.49C604.239 245.622 603.759 245.688 603.219 245.688C602.163 245.688 601.353 245.43 600.789 244.914C600.237 244.386 599.961 243.546 599.961 242.394V239.658H601.563V242.412C601.563 243.144 601.731 243.654 602.067 243.942C602.403 244.23 602.877 244.374 603.489 244.374C603.909 244.374 604.317 244.314 604.713 244.194C605.109 244.074 605.469 243.888 605.793 243.636V239.658H607.377V249ZM617.401 248.208C617.269 248.304 617.107 248.406 616.915 248.514C616.723 248.622 616.489 248.73 616.213 248.838C615.937 248.934 615.625 249.012 615.277 249.072C614.929 249.144 614.539 249.18 614.107 249.18C612.535 249.18 611.341 248.754 610.525 247.902C609.709 247.05 609.301 245.856 609.301 244.32C609.301 243.564 609.409 242.886 609.625 242.286C609.853 241.686 610.165 241.182 610.561 240.774C610.957 240.354 611.425 240.036 611.965 239.82C612.505 239.592 613.093 239.478 613.729 239.478C614.401 239.478 615.001 239.592 615.529 239.82C616.057 240.048 616.489 240.384 616.825 240.828C617.173 241.272 617.407 241.824 617.527 242.484C617.659 243.132 617.659 243.888 617.527 244.752H610.939C610.999 245.76 611.299 246.516 611.839 247.02C612.379 247.512 613.183 247.758 614.251 247.758C614.971 247.758 615.589 247.656 616.105 247.452C616.621 247.248 617.053 247.026 617.401 246.786V248.208ZM613.693 240.882C613.009 240.882 612.421 241.092 611.929 241.512C611.437 241.932 611.125 242.568 610.993 243.42H616.015C616.063 242.556 615.865 241.92 615.421 241.512C614.977 241.092 614.401 240.882 613.693 240.882ZM625.754 244.86H621.236V249H619.652V239.658H621.236V243.51H625.754V239.658H627.338V249H625.754V244.86ZM631.52 246.84L636.506 239.658H638.108V249H636.524V241.836L631.556 249H629.936V239.658H631.52V246.84ZM648.127 248.208C647.995 248.304 647.833 248.406 647.641 248.514C647.449 248.622 647.215 248.73 646.939 248.838C646.663 248.934 646.351 249.012 646.003 249.072C645.655 249.144 645.265 249.18 644.833 249.18C643.261 249.18 642.067 248.754 641.251 247.902C640.435 247.05 640.027 245.856 640.027 244.32C640.027 243.564 640.135 242.886 640.351 242.286C640.579 241.686 640.891 241.182 641.287 240.774C641.683 240.354 642.151 240.036 642.691 239.82C643.231 239.592 643.819 239.478 644.455 239.478C645.127 239.478 645.727 239.592 646.255 239.82C646.783 240.048 647.215 240.384 647.551 240.828C647.899 241.272 648.133 241.824 648.253 242.484C648.385 243.132 648.385 243.888 648.253 244.752H641.665C641.725 245.76 642.025 246.516 642.565 247.02C643.105 247.512 643.909 247.758 644.977 247.758C645.697 247.758 646.315 247.656 646.831 247.452C647.347 247.248 647.779 247.026 648.127 246.786V248.208ZM644.419 240.882C643.735 240.882 643.147 241.092 642.655 241.512C642.163 241.932 641.851 242.568 641.719 243.42H646.741C646.789 242.556 646.591 241.92 646.147 241.512C645.703 241.092 645.127 240.882 644.419 240.882Z" fill="#0055D9"/>
<rect x="826" y="198" width="306" height="90" rx="6" fill="url(#paint5_linear)"/>
<path d="M927.621 243.366H920.997V249H919.305V236.094H920.997V241.836H927.621V236.094H929.331V249H927.621V243.366ZM937.586 247.218C937.478 247.434 937.34 247.662 937.172 247.902C937.004 248.13 936.794 248.34 936.542 248.532C936.29 248.724 935.99 248.88 935.642 249C935.306 249.12 934.91 249.18 934.454 249.18C933.614 249.18 932.936 248.946 932.42 248.478C931.904 247.998 931.646 247.314 931.646 246.426C931.646 245.406 932 244.656 932.708 244.176C933.428 243.696 934.448 243.456 935.768 243.456H937.514V242.682C937.514 242.034 937.346 241.572 937.01 241.296C936.674 241.02 936.098 240.882 935.282 240.882C934.706 240.882 934.16 240.978 933.644 241.17C933.128 241.35 932.666 241.56 932.258 241.8V240.378C932.594 240.174 933.044 239.976 933.608 239.784C934.184 239.58 934.814 239.478 935.498 239.478C936.674 239.478 937.568 239.724 938.18 240.216C938.792 240.696 939.098 241.446 939.098 242.466V247.488C939.098 247.596 939.098 247.722 939.098 247.866C939.11 247.998 939.116 248.136 939.116 248.28C939.128 248.424 939.14 248.562 939.152 248.694C939.164 248.814 939.176 248.916 939.188 249H937.748C937.712 248.832 937.676 248.598 937.64 248.298C937.616 247.986 937.604 247.716 937.604 247.488L937.586 247.218ZM934.796 247.758C935.288 247.758 935.708 247.656 936.056 247.452C936.404 247.248 936.686 247.014 936.902 246.75C937.118 246.474 937.274 246.21 937.37 245.958C937.466 245.694 937.514 245.508 937.514 245.4V244.716H935.93C934.982 244.716 934.292 244.854 933.86 245.13C933.44 245.394 933.23 245.796 933.23 246.336C933.23 246.756 933.356 247.098 933.608 247.362C933.86 247.626 934.256 247.758 934.796 247.758ZM945.621 249.18C944.901 249.18 944.247 249.072 943.659 248.856C943.083 248.628 942.591 248.31 942.183 247.902C941.775 247.482 941.463 246.972 941.247 246.372C941.031 245.772 940.923 245.088 940.923 244.32C940.923 243.564 941.031 242.886 941.247 242.286C941.475 241.686 941.793 241.182 942.201 240.774C942.609 240.354 943.107 240.036 943.695 239.82C944.283 239.592 944.949 239.478 945.693 239.478C946.269 239.478 946.797 239.544 947.277 239.676C947.757 239.796 948.153 239.976 948.465 240.216V241.638C948.081 241.386 947.649 241.2 947.169 241.08C946.701 240.948 946.215 240.882 945.711 240.882C944.619 240.882 943.815 241.164 943.299 241.728C942.795 242.292 942.543 243.156 942.543 244.32C942.543 245.484 942.789 246.348 943.281 246.912C943.773 247.476 944.553 247.758 945.621 247.758C946.185 247.758 946.701 247.692 947.169 247.56C947.649 247.416 948.081 247.236 948.465 247.02V248.442C948.129 248.646 947.721 248.82 947.241 248.964C946.773 249.108 946.233 249.18 945.621 249.18ZM954.351 241.008V249H952.767V241.008H949.833V239.658H957.339V241.008H954.351ZM963.865 249.18C963.145 249.18 962.521 249.012 961.993 248.676C961.477 248.34 961.063 247.878 960.751 247.29V252.186H959.167V239.658H960.553L960.715 241.476C961.027 240.864 961.447 240.378 961.975 240.018C962.503 239.658 963.157 239.478 963.937 239.478C964.477 239.478 964.993 239.58 965.485 239.784C965.989 239.976 966.427 240.276 966.799 240.684C967.183 241.08 967.483 241.584 967.699 242.196C967.927 242.796 968.041 243.504 968.041 244.32C968.041 245.148 967.927 245.868 967.699 246.48C967.471 247.08 967.165 247.584 966.781 247.992C966.397 248.388 965.953 248.688 965.449 248.892C964.945 249.084 964.417 249.18 963.865 249.18ZM963.631 247.758C964.459 247.758 965.125 247.476 965.629 246.912C966.145 246.336 966.403 245.472 966.403 244.32C966.403 243.192 966.145 242.34 965.629 241.764C965.125 241.176 964.459 240.882 963.631 240.882C963.223 240.882 962.839 240.954 962.479 241.098C962.131 241.242 961.825 241.458 961.561 241.746C961.309 242.022 961.105 242.376 960.949 242.808C960.805 243.24 960.733 243.744 960.733 244.32C960.733 244.896 960.805 245.4 960.949 245.832C961.105 246.264 961.309 246.624 961.561 246.912C961.825 247.2 962.131 247.416 962.479 247.56C962.839 247.692 963.223 247.758 963.631 247.758ZM973.794 249.18C973.158 249.18 972.564 249.072 972.012 248.856C971.46 248.64 970.98 248.328 970.572 247.92C970.176 247.5 969.864 246.99 969.636 246.39C969.408 245.79 969.294 245.1 969.294 244.32C969.294 243.552 969.408 242.868 969.636 242.268C969.864 241.656 970.176 241.146 970.572 240.738C970.98 240.33 971.46 240.018 972.012 239.802C972.564 239.586 973.158 239.478 973.794 239.478C974.442 239.478 975.042 239.586 975.594 239.802C976.146 240.018 976.62 240.33 977.016 240.738C977.424 241.146 977.742 241.656 977.97 242.268C978.21 242.868 978.33 243.552 978.33 244.32C978.33 245.1 978.21 245.79 977.97 246.39C977.742 246.99 977.424 247.5 977.016 247.92C976.62 248.328 976.146 248.64 975.594 248.856C975.042 249.072 974.442 249.18 973.794 249.18ZM973.794 247.758C974.214 247.758 974.598 247.692 974.946 247.56C975.306 247.416 975.618 247.206 975.882 246.93C976.146 246.642 976.35 246.282 976.494 245.85C976.638 245.418 976.71 244.908 976.71 244.32C976.71 243.732 976.638 243.222 976.494 242.79C976.35 242.358 976.146 242.004 975.882 241.728C975.618 241.44 975.306 241.23 974.946 241.098C974.598 240.954 974.214 240.882 973.794 240.882C973.374 240.882 972.99 240.954 972.642 241.098C972.294 241.23 971.988 241.44 971.724 241.728C971.472 242.004 971.274 242.358 971.13 242.79C970.986 243.222 970.914 243.732 970.914 244.32C970.914 244.908 970.986 245.418 971.13 245.85C971.274 246.282 971.472 246.642 971.724 246.93C971.988 247.206 972.294 247.416 972.642 247.56C972.99 247.692 973.374 247.758 973.794 247.758ZM981.845 246.84L986.831 239.658H988.433V249H986.849V241.836L981.881 249H980.261V239.658H981.845V246.84ZM994.781 241.008V249H993.197V241.008H990.263V239.658H997.769V241.008H994.781ZM1006.54 245.886C1006.54 246.426 1006.45 246.894 1006.26 247.29C1006.06 247.686 1005.79 248.01 1005.45 248.262C1005.1 248.514 1004.68 248.7 1004.2 248.82C1003.72 248.94 1003.2 249 1002.64 249H999.543V239.658H1001.13V242.916H1002.75C1003.93 242.916 1004.86 243.15 1005.54 243.618C1006.21 244.086 1006.54 244.842 1006.54 245.886ZM1001.13 244.266V247.65H1002.64C1003.32 247.65 1003.87 247.524 1004.29 247.272C1004.73 247.008 1004.94 246.576 1004.94 245.976C1004.94 245.364 1004.75 244.926 1004.37 244.662C1003.98 244.398 1003.44 244.266 1002.75 244.266H1001.13ZM1012.52 239.658H1020V249H1018.42V241.008H1014.1V249H1012.52V239.658ZM1027.18 248.892C1026.96 249.456 1026.73 249.948 1026.49 250.368C1026.25 250.8 1025.98 251.166 1025.68 251.466C1025.38 251.766 1025.05 251.988 1024.68 252.132C1024.3 252.288 1023.88 252.366 1023.4 252.366C1023.16 252.366 1022.94 252.348 1022.73 252.312C1022.53 252.288 1022.34 252.24 1022.17 252.168V250.638C1022.31 250.734 1022.47 250.806 1022.68 250.854C1022.88 250.914 1023.1 250.944 1023.34 250.944C1023.79 250.944 1024.15 250.836 1024.44 250.62C1024.73 250.416 1025.01 250.086 1025.27 249.63L1021.47 239.658H1023.22L1026.19 247.542L1029.14 239.658H1030.67L1027.18 248.892ZM1032.24 246.102C1032.41 245.49 1032.51 244.662 1032.56 243.618C1032.61 242.574 1032.63 241.254 1032.63 239.658H1038.92V249H1037.31V241.008H1034.13C1034.12 242.292 1034.07 243.432 1034 244.428C1033.94 245.424 1033.8 246.264 1033.59 246.948C1033.38 247.632 1033.08 248.154 1032.67 248.514C1032.27 248.862 1031.74 249.036 1031.07 249.036C1031.02 249.036 1030.97 249.036 1030.92 249.036C1030.88 249.036 1030.82 249.03 1030.76 249.018V247.452C1030.82 247.464 1030.9 247.47 1031 247.47C1031.61 247.47 1032.02 247.014 1032.24 246.102Z" fill="#0055D9"/>
<path d="M306 242.958L410.991 242.958" stroke="#1E2126" stroke-width="2.00935"/>
<path fill-rule="evenodd" clip-rule="evenodd" d="M409.712 243.005L402.254 235.547L403.884 233.916L413 243.032L404.031 252L402.374 250.343L409.712 243.005Z" fill="#1E2126"/>
<path d="M719 242.958L823.991 242.958" stroke="#1E2126" stroke-width="2.00935"/>
<path fill-rule="evenodd" clip-rule="evenodd" d="M822.712 243.005L815.254 235.547L816.884 233.916L826 243.032L817.031 252L815.374 250.343L822.712 243.005Z" fill="#1E2126"/>
<path d="M979 288L979 342.5" stroke="#1E2126" stroke-width="2"/>
<path d="M566 90L566 144.5" stroke="#1E2126" stroke-width="2"/>
<path d="M980 343L152.5 343" stroke="#1E2126" stroke-width="2"/>
<path d="M567 145H153.5" stroke="#1E2126" stroke-width="2"/>
<defs>
<linearGradient id="paint0_linear" x1="565.997" y1="364" x2="565.997" y2="529.043" gradientUnits="userSpaceOnUse">
<stop offset="0.02" stop-color="#0064FF"/>
<stop offset="0.06" stop-color="#005FFF" stop-opacity="0.86"/>
<stop offset="0.11" stop-color="#005BFF" stop-opacity="0.72"/>
<stop offset="0.17" stop-color="#0057FF" stop-opacity="0.59"/>
<stop offset="0.23" stop-color="#0053FF" stop-opacity="0.48"/>
<stop offset="0.3" stop-color="#0051FF" stop-opacity="0.4"/>
<stop offset="0.38" stop-color="#004FFF" stop-opacity="0.33"/>
<stop offset="0.48" stop-color="#004DFF" stop-opacity="0.28"/>
<stop offset="0.61" stop-color="#004CFF" stop-opacity="0.26"/>
<stop offset="1" stop-color="#004CFF" stop-opacity="0.25"/>
</linearGradient>
<linearGradient id="paint1_linear" x1="978.997" y1="364" x2="978.997" y2="529.043" gradientUnits="userSpaceOnUse">
<stop offset="0.02" stop-color="#0064FF"/>
<stop offset="0.06" stop-color="#005FFF" stop-opacity="0.86"/>
<stop offset="0.11" stop-color="#005BFF" stop-opacity="0.72"/>
<stop offset="0.17" stop-color="#0057FF" stop-opacity="0.59"/>
<stop offset="0.23" stop-color="#0053FF" stop-opacity="0.48"/>
<stop offset="0.3" stop-color="#0051FF" stop-opacity="0.4"/>
<stop offset="0.38" stop-color="#004FFF" stop-opacity="0.33"/>
<stop offset="0.48" stop-color="#004DFF" stop-opacity="0.28"/>
<stop offset="0.61" stop-color="#004CFF" stop-opacity="0.26"/>
<stop offset="1" stop-color="#004CFF" stop-opacity="0.25"/>
</linearGradient>
<linearGradient id="paint2_linear" x1="152.997" y1="364" x2="152.997" y2="529.043" gradientUnits="userSpaceOnUse">
<stop offset="0.02" stop-color="#0064FF"/>
<stop offset="0.06" stop-color="#005FFF" stop-opacity="0.86"/>
<stop offset="0.11" stop-color="#005BFF" stop-opacity="0.72"/>
<stop offset="0.17" stop-color="#0057FF" stop-opacity="0.59"/>
<stop offset="0.23" stop-color="#0053FF" stop-opacity="0.48"/>
<stop offset="0.3" stop-color="#0051FF" stop-opacity="0.4"/>
<stop offset="0.38" stop-color="#004FFF" stop-opacity="0.33"/>
<stop offset="0.48" stop-color="#004DFF" stop-opacity="0.28"/>
<stop offset="0.61" stop-color="#004CFF" stop-opacity="0.26"/>
<stop offset="1" stop-color="#004CFF" stop-opacity="0.25"/>
</linearGradient>
<linearGradient id="paint3_linear" x1="152.997" y1="166" x2="152.997" y2="331.043" gradientUnits="userSpaceOnUse">
<stop offset="0.02" stop-color="#0064FF"/>
<stop offset="0.06" stop-color="#005FFF" stop-opacity="0.86"/>
<stop offset="0.11" stop-color="#005BFF" stop-opacity="0.72"/>
<stop offset="0.17" stop-color="#0057FF" stop-opacity="0.59"/>
<stop offset="0.23" stop-color="#0053FF" stop-opacity="0.48"/>
<stop offset="0.3" stop-color="#0051FF" stop-opacity="0.4"/>
<stop offset="0.38" stop-color="#004FFF" stop-opacity="0.33"/>
<stop offset="0.48" stop-color="#004DFF" stop-opacity="0.28"/>
<stop offset="0.61" stop-color="#004CFF" stop-opacity="0.26"/>
<stop offset="1" stop-color="#004CFF" stop-opacity="0.25"/>
</linearGradient>
<linearGradient id="paint4_linear" x1="565.997" y1="166" x2="565.997" y2="331.043" gradientUnits="userSpaceOnUse">
<stop offset="0.02" stop-color="#0064FF"/>
<stop offset="0.06" stop-color="#005FFF" stop-opacity="0.86"/>
<stop offset="0.11" stop-color="#005BFF" stop-opacity="0.72"/>
<stop offset="0.17" stop-color="#0057FF" stop-opacity="0.59"/>
<stop offset="0.23" stop-color="#0053FF" stop-opacity="0.48"/>
<stop offset="0.3" stop-color="#0051FF" stop-opacity="0.4"/>
<stop offset="0.38" stop-color="#004FFF" stop-opacity="0.33"/>
<stop offset="0.48" stop-color="#004DFF" stop-opacity="0.28"/>
<stop offset="0.61" stop-color="#004CFF" stop-opacity="0.26"/>
<stop offset="1" stop-color="#004CFF" stop-opacity="0.25"/>
</linearGradient>
<linearGradient id="paint5_linear" x1="978.997" y1="166" x2="978.997" y2="331.043" gradientUnits="userSpaceOnUse">
<stop offset="0.02" stop-color="#0064FF"/>
<stop offset="0.06" stop-color="#005FFF" stop-opacity="0.86"/>
<stop offset="0.11" stop-color="#005BFF" stop-opacity="0.72"/>
<stop offset="0.17" stop-color="#0057FF" stop-opacity="0.59"/>
<stop offset="0.23" stop-color="#0053FF" stop-opacity="0.48"/>
<stop offset="0.3" stop-color="#0051FF" stop-opacity="0.4"/>
<stop offset="0.38" stop-color="#004FFF" stop-opacity="0.33"/>
<stop offset="0.48" stop-color="#004DFF" stop-opacity="0.28"/>
<stop offset="0.61" stop-color="#004CFF" stop-opacity="0.26"/>
<stop offset="1" stop-color="#004CFF" stop-opacity="0.25"/>
</linearGradient>
</defs>
</svg>
