<svg xmlns="http://www.w3.org/2000/svg" width="31" height="31" fill="none" viewBox="0 0 31 31"><g clip-path="url(#a)"><rect width="30" height="30" x=".014" y=".831" fill="#1E2126" rx="15"/><path fill="#fff" fill-rule="evenodd" d="M17.514 3.802c.216 0 .391.175.391.391V14.5a.391.391 0 1 1-.782 0V4.193c0-.216.175-.39.39-.39ZM11.904 4.919c.2-.083.428.012.511.211l3.944 9.521a.391.391 0 1 1-.723.3L11.692 5.43a.391.391 0 0 1 .212-.511ZM7.148 8.097a.391.391 0 0 1 .553 0l7.287 7.287a.391.391 0 1 1-.553.553L7.148 8.65a.391.391 0 0 1 0-.553ZM3.97 12.851a.391.391 0 0 1 .511-.212l9.521 3.944a.391.391 0 0 1-.3.723l-9.52-3.944a.391.391 0 0 1-.212-.51ZM2.854 18.462c0-.216.175-.391.391-.391H13.55a.391.391 0 0 1 0 .782H3.245a.391.391 0 0 1-.391-.39ZM14.214 19.83a.391.391 0 0 1-.212.511l-9.52 3.944a.391.391 0 0 1-.3-.723l9.52-3.944c.2-.082.43.012.512.212ZM14.988 20.988c.153.153.153.4 0 .554l-7.287 7.287a.391.391 0 1 1-.553-.553l7.287-7.288a.391.391 0 0 1 .553 0ZM16.147 21.763c.2.083.295.312.212.511l-3.944 9.521a.391.391 0 1 1-.723-.3l3.944-9.52a.391.391 0 0 1 .511-.212ZM17.514 22.036c.216 0 .391.175.391.391v10.306a.391.391 0 1 1-.782 0V22.427c0-.216.175-.391.39-.391ZM18.881 21.763c.2-.083.429.012.512.212l3.944 9.52a.391.391 0 0 1-.723.3l-3.944-9.52a.391.391 0 0 1 .211-.512ZM20.04 20.988a.391.391 0 0 1 .553 0l7.288 7.288a.391.391 0 1 1-.554.553l-7.287-7.287a.391.391 0 0 1 0-.554ZM20.815 19.83a.391.391 0 0 1 .51-.212l9.522 3.944a.391.391 0 1 1-.3.723l-9.52-3.944a.391.391 0 0 1-.212-.511ZM21.087 18.462c0-.216.175-.391.391-.391h10.306a.391.391 0 0 1 0 .782H21.478a.391.391 0 0 1-.391-.39ZM31.058 12.851a.391.391 0 0 1-.211.511l-9.521 3.944a.391.391 0 1 1-.3-.723l9.521-3.943c.2-.083.429.012.511.211ZM27.88 8.097c.153.152.153.4 0 .553l-7.287 7.287a.391.391 0 1 1-.553-.553l7.287-7.287a.391.391 0 0 1 .554 0ZM23.125 4.919c.2.082.294.311.212.51l-3.944 9.522a.391.391 0 0 1-.723-.3l3.944-9.52a.391.391 0 0 1 .51-.212Z" clip-rule="evenodd"/><path fill="#fff" fill-rule="evenodd" d="M17.514 3.15c.576 0 1.043.468 1.043 1.044V9.25a1.043 1.043 0 1 1-2.086 0V4.194c0-.576.467-1.043 1.043-1.043ZM11.654 4.317a1.043 1.043 0 0 1 1.363.564l2.267 5.473a1.043 1.043 0 0 1-1.928.798L11.09 5.68a1.043 1.043 0 0 1 .564-1.363ZM6.687 7.636a1.043 1.043 0 0 1 1.475 0l4.658 4.657a1.043 1.043 0 0 1-1.476 1.476L6.688 9.111a1.043 1.043 0 0 1 0-1.475ZM3.368 12.602c.22-.532.83-.785 1.363-.564l6.462 2.677a1.043 1.043 0 0 1-.799 1.927l-6.462-2.677a1.043 1.043 0 0 1-.564-1.363ZM2.202 18.463c0-.576.467-1.044 1.043-1.044h7.135a1.043 1.043 0 0 1 0 2.087H3.245a1.043 1.043 0 0 1-1.043-1.043ZM11.758 20.847a1.043 1.043 0 0 1-.565 1.363L4.73 24.887a1.043 1.043 0 1 1-.799-1.928l6.462-2.677a1.043 1.043 0 0 1 1.364.565ZM12.82 23.156a1.043 1.043 0 0 1 0 1.475L8.162 29.29a1.043 1.043 0 0 1-1.475-1.476l4.657-4.658a1.043 1.043 0 0 1 1.476 0ZM14.72 25.21c.532.22.785.83.564 1.362l-2.267 5.472a1.043 1.043 0 0 1-1.927-.798l2.266-5.472c.22-.533.831-.785 1.363-.565ZM17.514 26.633c.576 0 1.043.467 1.043 1.044v5.056a1.043 1.043 0 1 1-2.086 0v-5.056c0-.577.467-1.044 1.043-1.044ZM21.005 26.891a1.043 1.043 0 0 1 1.364.565l1.57 3.79a1.043 1.043 0 1 1-1.928.798l-1.57-3.79a1.043 1.043 0 0 1 .564-1.363ZM24.586 25.535a1.043 1.043 0 0 1 1.476 0l2.28 2.28a1.043 1.043 0 0 1-1.476 1.475l-2.28-2.28a1.043 1.043 0 0 1 0-1.475ZM27.33 22.528c.22-.532.83-.785 1.363-.565l2.403.996a1.043 1.043 0 0 1-.798 1.928l-2.404-.996a1.043 1.043 0 0 1-.564-1.363ZM28.362 18.463c0-.576.467-1.044 1.043-1.044h2.379a1.043 1.043 0 1 1 0 2.087h-2.379a1.043 1.043 0 0 1-1.043-1.043ZM31.661 12.602a1.043 1.043 0 0 1-.565 1.363l-2.403.996a1.043 1.043 0 1 1-.799-1.928l2.404-.995a1.043 1.043 0 0 1 1.363.564ZM28.342 7.636a1.043 1.043 0 0 1 0 1.475l-2.28 2.28a1.043 1.043 0 0 1-1.476-1.475l2.28-2.28a1.043 1.043 0 0 1 1.476 0ZM23.374 4.317c.533.22.785.83.565 1.363l-1.57 3.79a1.043 1.043 0 0 1-1.928-.799l1.57-3.79c.22-.532.831-.785 1.363-.564Z" clip-rule="evenodd"/></g><defs><clipPath id="a"><rect width="30" height="30" x=".014" y=".831" fill="#fff" rx="15"/></clipPath></defs></svg>