<svg xmlns="http://www.w3.org/2000/svg" width="30" height="30" fill="none"><path fill="#000" d="M27.988 7.838a14.935 14.935 0 0 0-5.46-5.46C20.232 1.039 17.722.368 15 .368c-2.722 0-5.231.67-7.53 2.012a14.933 14.933 0 0 0-5.458 5.459C.67 10.136 0 12.645 0 15.366c0 3.269.954 6.208 2.861 8.819 1.908 2.61 4.372 4.417 7.393 5.42.351.064.612.019.78-.137a.764.764 0 0 0 .255-.586l-.01-1.055c-.007-.664-.01-1.243-.01-1.738l-.45.078a5.737 5.737 0 0 1-1.083.068 8.256 8.256 0 0 1-1.358-.136 3.033 3.033 0 0 1-1.308-.586 2.478 2.478 0 0 1-.86-1.2l-.195-.45a4.88 4.88 0 0 0-.615-.996c-.28-.365-.563-.612-.85-.742l-.136-.098a1.433 1.433 0 0 1-.254-.235 1.072 1.072 0 0 1-.176-.273c-.039-.091-.006-.166.098-.225.104-.059.293-.087.566-.087l.39.058c.261.052.583.208.968.469.384.26.7.598.947 1.015.3.534.66.94 1.084 1.22.423.28.85.42 1.279.42.43 0 .8-.032 1.113-.097.312-.065.605-.163.879-.293.117-.873.436-1.543.957-2.012a13.358 13.358 0 0 1-2.002-.351 7.966 7.966 0 0 1-1.836-.762 5.258 5.258 0 0 1-1.572-1.309c-.417-.52-.759-1.204-1.025-2.05-.267-.847-.4-1.824-.4-2.93 0-1.576.514-2.917 1.542-4.024-.481-1.184-.436-2.512.137-3.984.378-.117.938-.029 1.68.264.742.293 1.285.544 1.63.752.346.208.622.384.83.527A13.868 13.868 0 0 1 15 7.613c1.29 0 2.54.169 3.75.507l.743-.468a10.51 10.51 0 0 1 1.797-.86c.69-.26 1.217-.332 1.582-.215.586 1.472.638 2.8.156 3.985 1.029 1.106 1.543 2.448 1.543 4.023 0 1.107-.134 2.086-.4 2.94-.267.852-.612 1.535-1.035 2.05a5.461 5.461 0 0 1-1.582 1.299 7.986 7.986 0 0 1-1.836.762c-.593.156-1.26.274-2.002.352.677.585 1.015 1.51 1.015 2.773v4.12c0 .235.082.43.245.586.162.156.42.202.771.137 3.021-1.003 5.485-2.81 7.393-5.42 1.907-2.61 2.86-5.55 2.86-8.818 0-2.72-.67-5.23-2.011-7.528Z"/></svg>