<svg xmlns="http://www.w3.org/2000/svg" width="30" height="30" fill="none"><path fill="#000" d="M25.879 1.856c.015.345-.072.688-.25.983a1.74 1.74 0 0 1-.75.678 1.721 1.721 0 0 1-1.905-.297 1.762 1.762 0 0 1 .149-2.7 1.725 1.725 0 0 1 2.196.123c.338.313.54.75.56 1.213ZM15.767 22.42c-4.617 0-8.65-1.692-10.744-4.196a11.473 11.473 0 0 0 4.158 5.572 11.32 11.32 0 0 0 6.589 2.118c2.36 0 4.663-.74 6.588-2.118a11.474 11.474 0 0 0 4.158-5.572c-2.098 2.504-6.13 4.196-10.749 4.196ZM15.767 6.13c4.617 0 8.65 1.692 10.744 4.196a11.473 11.473 0 0 0-4.159-5.572 11.32 11.32 0 0 0-6.588-2.118c-2.36 0-4.663.74-6.588 2.118a11.473 11.473 0 0 0-4.158 5.572c2.098-2.5 6.13-4.197 10.749-4.197ZM9.428 27.29c.019.436-.09.868-.315 1.24-.225.374-.554.671-.946.855a2.168 2.168 0 0 1-2.401-.375 2.222 2.222 0 0 1-.574-2.381c.149-.41.415-.766.764-1.023a2.173 2.173 0 0 1 2.767.158c.426.395.68.944.705 1.527ZM5.55 5.563a1.274 1.274 0 0 1-1.218-.747 1.304 1.304 0 0 1 .218-1.421 1.28 1.28 0 0 1 1.386-.34 1.3 1.3 0 0 1 .503 2.09c-.23.253-.55.403-.889.418Z"/></svg>