<svg width="30" height="31" viewBox="0 0 30 31" fill="none" xmlns="http://www.w3.org/2000/svg">
<path d="M3.35294 16.7647C3.35294 17.7059 3.29412 18 3.11765 18.1765C2.88235 18.3529 2.64706 18.4706 2.35294 18.4706L2.41176 19C2.82353 19 3.29412 18.8235 3.58824 18.5882C3.76471 18.3529 3.88235 18.1176 4 17.8235C4.05882 17.5294 4.11765 17.2941 4.05882 17V13.5294H3.35294V16.7647Z" fill="#4E4E4E"/>
<path d="M8.58824 16.3529C8.58824 16.7647 8.58824 17.1176 8.64706 17.4118H8L7.94118 16.7647C7.82353 17 7.64706 17.1765 7.41176 17.2941C7.17647 17.4118 6.94118 17.4706 6.70588 17.4706C6.11765 17.4706 5.35294 17.1176 5.35294 15.8235V13.5882H6.05882V15.7059C6.05882 16.4118 6.29412 16.9412 6.94118 16.9412C7.05882 16.9412 7.17647 16.9412 7.29412 16.8824C7.41176 16.8235 7.52941 16.7647 7.58824 16.6471C7.70588 16.5294 7.76471 16.4706 7.82353 16.3529C7.88235 16.2353 7.88235 16.1176 7.88235 16V13.6471H8.58824V16.3529Z" fill="#4E4E4E"/>
<path d="M9.88235 14.8235C9.88235 14.3529 9.88235 13.9412 9.82353 13.5882H10.4706L10.5294 14.2353C10.6471 14 10.8824 13.8235 11.1176 13.6471C11.3529 13.5294 11.6471 13.4706 11.8824 13.4706C12.8235 13.4706 13.5294 14.2353 13.5294 15.4118C13.5294 16.7647 12.7059 17.4706 11.7647 17.4706C11.5294 17.4706 11.2941 17.4118 11.1176 17.3529C10.8824 17.2353 10.7059 17.1176 10.5882 16.8824V19H9.88235V14.8235ZM10.5882 15.8824C10.5882 16 10.5882 16.0588 10.6471 16.1765C10.7059 16.4118 10.8235 16.5882 11.0588 16.7647C11.2353 16.8824 11.4706 17 11.7059 17C12.4706 17 12.8824 16.4118 12.8824 15.5294C12.8824 14.7647 12.4706 14.1176 11.7647 14.1176C11.4706 14.1176 11.1765 14.2941 11 14.4706C10.8235 14.6471 10.7059 14.9412 10.6471 15.2353V15.8824H10.5882Z" fill="#4E4E4E"/>
<path d="M14.7647 13.5882L15.5882 15.8235C15.7059 16.0588 15.7647 16.3529 15.8235 16.5882C15.8824 16.3529 16 16.0588 16.0588 15.7647L16.8235 13.5294H17.5882L16.5882 16.2941C16.0588 17.5882 15.7647 18.2941 15.2353 18.7059C15 18.9412 14.7059 19.0588 14.3529 19.1765L14.1765 18.5882C14.4118 18.5294 14.5882 18.4118 14.7647 18.2353C15 18 15.2353 17.7647 15.3529 17.4706C15.3529 17.4118 15.4118 17.3529 15.4118 17.2941C15.4118 17.2353 15.4118 17.1765 15.3529 17.1176L13.9412 13.5882H14.7647Z" fill="#4E4E4E"/>
<path d="M19.4706 12.4706V13.5882H20.4706V14.1176H19.4706V16.1765C19.4706 16.6471 19.5882 16.9412 20 16.9412C20.1176 16.9412 20.2941 16.9412 20.4118 16.8824L20.4706 17.4118C20.2353 17.4706 20.0588 17.5294 19.8235 17.4706C19.7059 17.4706 19.5294 17.4706 19.4118 17.4118C19.2941 17.3529 19.1765 17.2941 19.0588 17.1765C18.8235 16.8824 18.7647 16.5294 18.7647 16.1765V14.0588H18.1765V13.5294H18.7647V12.5882L19.4706 12.4706Z" fill="#4E4E4E"/>
<path d="M21.7647 15.6471C21.7647 15.8235 21.7647 16 21.8235 16.1765C21.8824 16.3529 22 16.4706 22.1176 16.6471C22.2353 16.7647 22.4118 16.8824 22.5882 16.9412C22.7647 17 22.9412 17 23.1176 17C23.4706 17 23.8235 16.9412 24.1765 16.8235L24.2941 17.3529C23.8824 17.5294 23.4706 17.5882 23 17.5882C22.7647 17.5882 22.4706 17.5882 22.2353 17.4706C22 17.3529 21.7647 17.2353 21.5882 17.0588C21.4118 16.8824 21.2941 16.6471 21.1765 16.4118C21.1176 16.1765 21.0588 15.9412 21.0588 15.6471C21.0588 14.4706 21.7647 13.5882 22.8824 13.5882C24.1176 13.5882 24.4706 14.7059 24.4706 15.4118C24.4706 15.5294 24.4706 15.6471 24.4706 15.7647L21.7647 15.6471ZM23.8235 15.1176C23.8235 15 23.8235 14.8235 23.7647 14.7059C23.7059 14.5882 23.6471 14.4706 23.5882 14.3529C23.4706 14.2353 23.3529 14.1765 23.2353 14.1176C23.1176 14.0588 22.9412 14 22.8235 14C22.5294 14 22.2941 14.1765 22.0588 14.3529C21.8824 14.5882 21.7647 14.8235 21.7647 15.1176H23.8235Z" fill="#4E4E4E"/>
<path d="M25.5294 14.7647C25.5294 14.2941 25.5294 13.9412 25.4706 13.5882H26.1176V14.3529H26.1765C26.2353 14.1176 26.3529 13.9412 26.5882 13.7647C26.7647 13.5882 27 13.5294 27.2353 13.5294C27.2941 13.5294 27.3529 13.5294 27.4118 13.5294V14.1765C27.3529 14.1765 27.2353 14.1765 27.1765 14.1765C26.9412 14.1765 26.7059 14.2941 26.5294 14.4706C26.3529 14.6471 26.2353 14.8824 26.2353 15.1176C26.2353 15.2353 26.1765 15.3529 26.1765 15.4706V17.5294H25.5294V14.7647Z" fill="#4E4E4E"/>
<path d="M25.2353 3.05882C25.2353 3.41176 25.1765 3.76471 25 4.05882C24.8235 4.35294 24.5294 4.58824 24.2353 4.76471C23.9412 4.94118 23.5882 5 23.2353 4.94118C22.8824 4.88235 22.5882 4.76471 22.2941 4.52941C22 4.29412 21.8235 3.94118 21.7647 3.58824C21.7059 3.23529 21.7059 2.88235 21.8235 2.52941C21.9412 2.17647 22.1765 1.88235 22.4706 1.70588C22.7647 1.47059 23.1176 1.35294 23.4706 1.35294C23.7059 1.35294 23.9412 1.35294 24.1765 1.47059C24.4118 1.52941 24.5882 1.64706 24.7647 1.82353C24.9412 2 25.0588 2.17647 25.1765 2.35294C25.2941 2.52941 25.2353 2.82353 25.2353 3.05882Z" fill="#767677"/>
<path d="M14.8824 23.5882C10.1765 23.5882 6 21.8824 3.88235 19.4118C4.70588 21.6471 6.23529 23.5882 8.17647 24.9412C10.1176 26.2941 12.4706 27.0588 14.8824 27.0588C17.2941 27.0588 19.5882 26.3529 21.5882 24.9412C23.5294 23.5882 25.0588 21.6471 25.8824 19.4118C23.7647 21.8824 19.6471 23.5882 14.8824 23.5882Z" fill="#F37726"/>
<path d="M14.8824 7.35294C19.5882 7.35294 23.7647 9.05882 25.8824 11.5294C25.0588 9.29412 23.5294 7.35294 21.5882 6C19.6471 4.58824 17.2941 3.88235 14.8824 3.88235C12.4706 3.88235 10.1765 4.58824 8.17647 6C6.23529 7.35294 4.70588 9.29412 3.88235 11.5294C6.05882 9 10.1765 7.35294 14.8824 7.35294Z" fill="#F37726"/>
<path d="M8.41176 28.4706C8.41176 28.9412 8.35294 29.3529 8.11765 29.7647C7.88235 30.1176 7.52941 30.4118 7.11765 30.5882C6.70588 30.7647 6.29412 30.8235 5.82353 30.7647C5.41176 30.7059 5 30.5294 4.64706 30.2353C4.29412 29.9412 4.05882 29.5294 4 29.1176C3.88235 28.7059 3.94118 28.2353 4.05882 27.8235C4.23529 27.4118 4.47059 27.0588 4.82353 26.7647C5.17647 26.5294 5.58824 26.3529 6.05882 26.3529C6.35294 26.3529 6.64706 26.3529 6.94118 26.4706C7.23529 26.5882 7.47059 26.7059 7.70588 26.9412C7.94118 27.1765 8.11765 27.3529 8.23529 27.6471C8.29412 27.8824 8.35294 28.1765 8.41176 28.4706Z" fill="#9E9E9E"/>
<path d="M4.41176 6.76471C4.17647 6.76471 3.88235 6.70588 3.70588 6.58824C3.47059 6.47059 3.29412 6.23529 3.23529 6C3.11765 5.76471 3.05882 5.52941 3.11765 5.29412C3.17647 5.05882 3.29412 4.82353 3.47059 4.64706C3.64706 4.47059 3.88235 4.35294 4.11765 4.29412C4.35294 4.17647 4.58824 4.17647 4.82353 4.29412C5.05882 4.41176 5.29412 4.52941 5.41177 4.76471C5.58824 4.94118 5.64706 5.23529 5.64706 5.47059C5.64706 5.82353 5.52941 6.17647 5.29412 6.41176C5.11765 6.58824 4.76471 6.76471 4.41176 6.76471Z" fill="#616262"/>
</svg>
