<svg xmlns="http://www.w3.org/2000/svg" width="30" height="30" fill="none"><path fill="#007AB9" d="M15 30c8.284 0 15-6.716 15-15 0-8.284-6.716-15-15-15C6.716 0 0 6.716 0 15c0 8.284 6.716 15 15 15Z"/><path fill="#F1F2F2" d="M23.962 16.207v6.184h-3.585v-5.77c0-1.448-.518-2.438-1.816-2.438-.99 0-1.58.667-1.839 1.311-.094.23-.119.551-.119.874v6.023h-3.585s.048-9.772 0-10.784h3.585v1.529c-.007.012-.017.023-.023.035h.024v-.035c.476-.734 1.326-1.782 3.23-1.782 2.36 0 4.128 1.541 4.128 4.853ZM9.267 6.409c-1.227 0-2.03.805-2.03 1.863 0 1.036.78 1.864 1.983 1.864h.023c1.25 0 2.028-.828 2.028-1.864-.024-1.058-.778-1.863-2.004-1.863ZM7.45 22.391h3.584V11.607H7.451v10.784Z"/></svg>