<svg xmlns="http://www.w3.org/2000/svg" width="32" height="32" fill="none" viewBox="0 0 32 32"><rect width="32" height="32" x="-.001" fill="#420047" rx="16"/><path fill="#36C5F0" fill-rule="evenodd" d="M13.332 6a2 2 0 1 0 0 4h2.001V8a2.001 2.001 0 0 0-2.001-2Zm0 5.333H7.999a2 2 0 0 0 0 4h5.333a2 2 0 1 0 0-4Z" clip-rule="evenodd"/><path fill="#2EB67D" fill-rule="evenodd" d="M26 13.333a2 2 0 0 0-4.001 0v2h2a2 2 0 0 0 2-2Zm-5.334 0V8a2 2 0 0 0-4 0v5.333a2 2 0 1 0 4 0Z" clip-rule="evenodd"/><path fill="#ECB22E" fill-rule="evenodd" d="M18.665 26a2 2 0 1 0 0-3.999h-2v2c0 1.102.895 1.997 2 2Zm0-5.334H24a2 2 0 0 0 0-4h-5.333a2 2 0 0 0 0 4Z" clip-rule="evenodd"/><path fill="#E01E5A" fill-rule="evenodd" d="M5.999 18.666a2 2 0 0 0 4 0v-2H8a2 2 0 0 0-2 2Zm5.333 0V24a2 2 0 0 0 4 .001v-5.332a2 2 0 0 0-4-.002Z" clip-rule="evenodd"/></svg>