<svg xmlns="http://www.w3.org/2000/svg" width="30" height="30" fill="none"><path fill="#FF810F" fill-rule="evenodd" d="M15 30c8.284 0 15-6.716 15-15 0-8.284-6.716-15-15-15C6.716 0 0 6.716 0 15c0 8.284 6.716 15 15 15Z" clip-rule="evenodd"/><path fill="#fff" fill-rule="evenodd" d="m17.536 22.33-7.963.004v-1.686l7.962-.005v1.687Zm5.38-9.55L21.555 5l-1.675.288 1.362 7.78 1.676-.288Zm-5.189 5.701-7.929-.724-.156 1.68 7.93.723.155-1.679Zm.523-2.2-7.69-2.05-.441 1.628 7.69 2.05.441-1.628Zm1.004-1.93-6.858-4.01-.865 1.451 6.86 4.012.863-1.453Zm1.682-1.18-1.405.95-4.487-6.524 1.406-.95 4.486 6.523Zm-2.048 3.612h1.354V25H7.083v-8.217h1.36v6.894h10.445v-6.894Z" clip-rule="evenodd"/></svg>