<svg xmlns="http://www.w3.org/2000/svg" width="30" height="30" fill="none" viewBox="0 0 30 30"><g clip-path="url(#a)"><path fill="url(#b)" d="M0 15c0 8.284 6.716 15 15 15 8.284 0 15-6.716 15-15 0-8.284-6.716-15-15-15C6.716 0 0 6.716 0 15"/><path fill="#C8DAEA" d="m10.154 16.096 1.78 4.926s.222.46.46.46c.238 0 3.782-3.685 3.782-3.685l3.94-7.612-9.899 4.64-.063 1.271Z"/><path fill="#A9C6D8" d="m12.513 17.36-.341 3.63s-.144 1.113.969 0c1.112-1.112 2.177-1.97 2.177-1.97"/><path fill="#fff" d="m10.186 16.272-3.66-1.192s-.438-.178-.297-.58c.029-.083.087-.154.262-.276.811-.565 15.013-5.67 15.013-5.67s.401-.135.638-.045c.108.041.178.087.236.257.021.061.033.192.032.323-.002.094-.013.18-.021.318-.087 1.395-2.675 11.811-2.675 11.811s-.155.61-.71.63c-.202.008-.448-.033-.741-.285-1.09-.937-4.853-3.466-5.684-4.023-.047-.03-.06-.072-.069-.111-.011-.059.051-.132.051-.132s6.554-5.825 6.728-6.436c.013-.048-.037-.071-.106-.05-.435.16-7.98 4.924-8.813 5.45-.049.031-.185.011-.185.011"/></g><defs><linearGradient id="b" x1="15" x2="15" y1="30" y2="0" gradientUnits="userSpaceOnUse"><stop stop-color="#1D93D2"/><stop offset="1" stop-color="#38B0E3"/></linearGradient><clipPath id="a"><path fill="#fff" d="M0 0h30v30H0z"/></clipPath></defs></svg>