<svg xmlns="http://www.w3.org/2000/svg" width="30" height="30" fill="none" viewBox="0 0 30 30"><path fill="#2CBDE2" d="M15 30c8.284 0 15-6.716 15-15 0-8.284-6.716-15-15-15C6.716 0 0 6.716 0 15c0 8.284 6.716 15 15 15Z"/><path fill="#fff" d="M8.373 9.504s2.379 2.69 6.317 3.129c0 0-.188-2.25 1.81-3.504 0 0 2.063-1.377 3.627.627 0 0 1.5-.31 2.063-.686 0 0-.44.85-1.19 1.582l1.688-.334-1.565 1.688s.627 5.69-5.596 8.69c0 0-4.845 1.751-8.22-.563 0 0 4.125-.627 4.564-1.565 0 0-2.191-.252-2.754-2.127l1.19-.064s-2.063-.188-2.315-3.129l1.377.188c.006.005-2.185-.616-.996-3.932Z"/></svg>