<svg xmlns="http://www.w3.org/2000/svg" width="31" height="31" fill="none" viewBox="0 0 31 31"><path fill="#B00" d="M14.299.774C9.338 1.105 4.812 3.93 2.323 8.252A15.005 15.005 0 0 0 .577 18.506a15.02 15.02 0 0 0 7.253 10.23 15.006 15.006 0 0 0 10.255 1.746 14.936 14.936 0 0 0 6.5-2.95 14.978 14.978 0 0 0 5.476-9.026c.343-1.791.343-3.74 0-5.532a15.02 15.02 0 0 0-7.253-10.23 15.065 15.065 0 0 0-8.509-1.97Zm-2.994 5.604c.218.805.404 1.483.415 1.507.014.02.186-.584.383-1.348.198-.768.37-1.445.388-1.508l.03-.11h1.18l-.024.093c-.01.055-.325 1.093-.695 2.31l-.671 2.216v3.16h-1.176V9.5l-.138-.543c-.138-.543-.515-1.711-1.034-3.202a26.4 26.4 0 0 1-.28-.822c0-.007.277-.014.616-.014h.615l.39 1.459Zm4.522.55c.263.09.477.248.654.487.314.429.377.937.349 2.742-.02 1.268-.049 1.493-.218 1.842-.2.412-.643.716-1.11.76-.543.056-.94-.061-1.272-.376-.235-.225-.38-.505-.453-.888-.076-.405-.055-3.285.028-3.551.18-.588.629-1.006 1.178-1.09.243-.037.62-.006.844.073Zm2.915 2.295c0 1.95.007 2.354.048 2.455.1.235.367.19.664-.11l.187-.191.007-2.237.01-2.233.529-.01.525-.011V12.698H19.641V12.1l-.197.19c-.37.352-.64.48-1 .48-.373 0-.577-.145-.694-.498-.052-.162-.06-.425-.073-2.734-.007-1.404-.004-2.576.007-2.6.014-.038.128-.049.54-.049h.518v2.334Zm.622 4.581c1.418.059 2.476.138 2.818.21.097.022.304.101.467.177.238.114.345.194.573.425.512.516.671 1.024.813 2.61.1 1.162.093 4.028-.02 5.187-.143 1.504-.284 1.932-.81 2.454-.48.477-.76.585-1.766.671-1.722.152-3.79.207-6.863.183-3.524-.03-5.463-.145-6.013-.349a2.215 2.215 0 0 1-1.262-1.252c-.263-.694-.387-2.112-.387-4.37 0-1.887.07-2.924.249-3.861.083-.436.159-.633.366-.951.26-.398.623-.681 1.072-.847.443-.16 2.223-.287 4.747-.335 1.027-.021 5.186.013 6.016.048Z"/><path fill="#B00" d="M15.022 7.854a.52.52 0 0 0-.173.214c-.063.142-.066.267-.076 1.632-.01 1.66.003 1.822.2 2.002.232.214.54.142.692-.162l.086-.173V8.22l-.083-.166a.478.478 0 0 0-.18-.215.506.506 0 0 0-.466.014ZM8.197 16.31v.537h1.21v6.603H10.582v-6.604h1.245V15.775h-3.63v.536ZM15.872 19.612v3.838H16.875v-.26c0-.141.01-.259.02-.259.014 0 .128.1.256.222.28.262.515.366.84.366.478-.003.758-.287.851-.864.048-.301.048-3.814 0-4.111-.104-.646-.494-.975-1.048-.871-.262.048-.432.142-.695.387l-.224.21v-2.495h-1.002v3.837Zm1.77-.957c.035.024.1.11.142.197.076.152.076.186.087 1.632.013 1.673-.004 1.825-.208 2.012-.097.086-.124.097-.294.083a.622.622 0 0 1-.332-.118l-.145-.104-.01-1.749-.007-1.753.12-.097c.222-.176.464-.214.647-.103ZM20.961 17.68c-.383.065-.76.318-.971.646a1.99 1.99 0 0 0-.183.443c-.073.263-.076.332-.08 1.794 0 1.072.014 1.573.042 1.698.086.36.186.567.376.774.325.35.647.484 1.152.484.508 0 .809-.117 1.096-.422.321-.339.428-.653.428-1.244v-.374h-1.026l-.025.367c-.038.57-.145.74-.477.74-.224 0-.356-.08-.453-.277-.069-.142-.076-.214-.086-.84l-.014-.681h2.081v-.764c0-1.076-.069-1.442-.345-1.815-.311-.415-.934-.633-1.515-.53Zm.581.995c.187.135.225.26.235.771l.014.477h-1.044v-.362c0-.44.048-.678.163-.813a.486.486 0 0 1 .632-.073ZM11.965 20.12c0 1.349.018 2.528.035 2.673.069.54.283.74.76.72.329-.015.574-.132.9-.433a2.03 2.03 0 0 1 .255-.218c.01 0 .021.132.021.294v.294H14.939v-5.74H13.936v4.395l-.18.194c-.1.103-.225.21-.276.238-.1.052-.298.063-.363.021-.108-.066-.115-.242-.115-2.534V17.71h-1.037v2.41Z"/></svg>