<svg width="121" height="120" viewBox="0 0 121 120" fill="none" xmlns="http://www.w3.org/2000/svg">
<path fill-rule="evenodd" clip-rule="evenodd" d="M110.007 65.9998L110.007 106C110.007 108.2 108.215 110 106.012 110L13.9932 110C11.7906 110 9.99857 108.2 9.99857 106L9.99857 65.9997C9.99857 63.7997 11.7906 61.9997 13.9932 61.9997L106.012 61.9998C108.215 61.9998 110.007 63.7998 110.007 65.9998Z" fill="url(#paint0_linear_121_6726)"/>
<path d="M26.38 103L50.004 76L74.004 102L84.004 92L94.9613 102.96" stroke="#0064FF" stroke-width="2" stroke-miterlimit="79.8403" stroke-linecap="round" stroke-linejoin="round"/>
<path d="M72.9533 77.9867C72.9533 75.2179 75.2086 72.9733 77.9907 72.9733C80.7727 72.9733 83.028 75.2179 83.028 77.9867C83.028 80.7555 80.7727 83 77.9907 83C75.2086 83 72.9533 80.7555 72.9533 77.9867Z" stroke="#0064FF" stroke-width="2" stroke-miterlimit="79.8403" stroke-linecap="round"/>
<path fill-rule="evenodd" clip-rule="evenodd" d="M110.007 14L110.007 54C110.007 56.2 108.215 58 106.012 58L13.9933 58C11.7906 58 9.99863 56.2 9.99863 54L9.99863 14C9.99863 11.8 11.7906 9.99999 13.9933 9.99999L106.012 10C108.215 10 110.007 11.8 110.007 14Z" fill="url(#paint1_linear_121_6726)"/>
<path d="M26.38 51L50.004 24L74.9613 50.96L95.004 51" stroke="#0064FF" stroke-width="2" stroke-miterlimit="79.8403" stroke-linecap="round" stroke-linejoin="round"/>
<path d="M73.5 26.5C73.5 23.7386 75.7386 21.5 78.5 21.5C81.2615 21.5 83.5 23.7386 83.5 26.5C83.5 29.2614 81.2615 31.5 78.5 31.5C75.7386 31.5 73.5 29.2614 73.5 26.5Z" stroke="#0064FF" stroke-width="2" stroke-miterlimit="79.8403" stroke-linecap="round"/>
<defs>
<linearGradient id="paint0_linear_121_6726" x1="60.0146" y1="29.4998" x2="60.0146" y2="123.5" gradientUnits="userSpaceOnUse">
<stop offset="0.02" stop-color="#0064FF"/>
<stop offset="0.06" stop-color="#0064FF" stop-opacity="0.86"/>
<stop offset="0.11" stop-color="#0064FF" stop-opacity="0.72"/>
<stop offset="0.17" stop-color="#0064FF" stop-opacity="0.59"/>
<stop offset="0.23" stop-color="#0064FF" stop-opacity="0.48"/>
<stop offset="0.3" stop-color="#0064FF" stop-opacity="0.4"/>
<stop offset="0.38" stop-color="#0064FF" stop-opacity="0.33"/>
<stop offset="0.48" stop-color="#0064FF" stop-opacity="0.28"/>
<stop offset="0.61" stop-color="#0064FF" stop-opacity="0.26"/>
<stop offset="1" stop-color="#0064FF" stop-opacity="0.25"/>
</linearGradient>
<linearGradient id="paint1_linear_121_6726" x1="60.0147" y1="3.99976" x2="60.0147" y2="211" gradientUnits="userSpaceOnUse">
<stop offset="0.02" stop-color="#0064FF"/>
<stop offset="0.06" stop-color="#0064FF" stop-opacity="0.86"/>
<stop offset="0.11" stop-color="#0064FF" stop-opacity="0.72"/>
<stop offset="0.17" stop-color="#0064FF" stop-opacity="0.59"/>
<stop offset="0.23" stop-color="#0064FF" stop-opacity="0.48"/>
<stop offset="0.3" stop-color="#0064FF" stop-opacity="0.4"/>
<stop offset="0.38" stop-color="#0064FF" stop-opacity="0.33"/>
<stop offset="0.48" stop-color="#0064FF" stop-opacity="0.28"/>
<stop offset="0.61" stop-color="#0064FF" stop-opacity="0.26"/>
<stop offset="0.777778" stop-color="#0064FF" stop-opacity="0.255698"/>
<stop offset="1" stop-color="#0064FF" stop-opacity="0.25"/>
</linearGradient>
</defs>
</svg>
