<svg xmlns="http://www.w3.org/2000/svg" width="121" height="121" fill="none" viewBox="0 0 121 121"><path fill="url(#a)" d="M113.824 33.21a14.02 14.02 0 0 0-9.863-9.864c-8.757-2.304-43.786-2.304-43.786-2.304s-35.028 0-43.785 2.304a14.021 14.021 0 0 0-9.863 9.863c-2.305 8.758-2.305 26.917-2.305 26.917s0 18.252 2.305 26.917a14.021 14.021 0 0 0 9.863 9.863c8.757 2.304 43.785 2.304 43.785 2.304s35.029 0 43.786-2.304a14.02 14.02 0 0 0 9.863-9.863c2.305-8.758 2.305-26.917 2.305-26.917s0-18.16-2.305-26.916Z"/><path stroke="#0055D9" stroke-width="2" d="m48.93 76.995 29.128-16.777L48.93 43.349v33.646Z"/><defs><linearGradient id="a" x1="60.162" x2="60.162" y1="7.041" y2="153.041" gradientUnits="userSpaceOnUse"><stop offset=".02" stop-color="#0064FF"/><stop offset=".06" stop-color="#005FFF" stop-opacity=".86"/><stop offset=".11" stop-color="#005BFF" stop-opacity=".72"/><stop offset=".17" stop-color="#0057FF" stop-opacity=".59"/><stop offset=".23" stop-color="#0053FF" stop-opacity=".48"/><stop offset=".3" stop-color="#0051FF" stop-opacity=".4"/><stop offset=".38" stop-color="#004FFF" stop-opacity=".33"/><stop offset=".48" stop-color="#004DFF" stop-opacity=".28"/><stop offset=".61" stop-color="#004CFF" stop-opacity=".26"/><stop offset="1" stop-color="#004CFF" stop-opacity=".25"/></linearGradient></defs></svg>