<svg width="215" height="36" viewBox="0 0 215 36" fill="none" xmlns="http://www.w3.org/2000/svg">
<path d="M0 8C0 3.58172 3.58172 0 8 0H207C211.418 0 215 3.58172 215 8V28C215 32.4183 211.418 36 207 36H7.99999C3.58172 36 0 32.4183 0 28V8Z" fill="#2C3C4F"/>
<path d="M17.4208 12.962H20.8368C22.0314 12.962 22.9414 13.1487 23.5668 13.522C24.1921 13.8953 24.5048 14.5253 24.5048 15.412C24.5048 15.776 24.4534 16.0933 24.3508 16.364C24.2481 16.6253 24.0988 16.854 23.9028 17.05C23.7161 17.2367 23.4874 17.3907 23.2168 17.512C22.9461 17.6333 22.6474 17.7267 22.3208 17.792C23.1608 17.8947 23.7954 18.1233 24.2248 18.478C24.6541 18.8327 24.8688 19.374 24.8688 20.102C24.8688 20.6247 24.7661 21.0727 24.5608 21.446C24.3554 21.81 24.0708 22.1087 23.7068 22.342C23.3428 22.566 22.9134 22.734 22.4188 22.846C21.9241 22.9487 21.3874 23 20.8088 23H17.4208V12.962ZM19.1148 14.432V17.106H20.9208C21.4808 17.106 21.9334 16.9893 22.2788 16.756C22.6241 16.5133 22.7968 16.1353 22.7968 15.622C22.7968 15.1553 22.6381 14.8427 22.3208 14.684C22.0128 14.516 21.5741 14.432 21.0048 14.432H19.1148ZM19.1148 18.562V21.544H20.9768C21.2941 21.544 21.5834 21.5207 21.8448 21.474C22.1061 21.418 22.3301 21.334 22.5168 21.222C22.7034 21.1007 22.8481 20.9467 22.9508 20.76C23.0534 20.564 23.1048 20.326 23.1048 20.046C23.1048 19.4953 22.9228 19.1127 22.5588 18.898C22.2041 18.674 21.6301 18.562 20.8368 18.562H19.1148ZM29.7589 23.14C29.1709 23.14 28.6436 23.056 28.1769 22.888C27.7103 22.7107 27.3136 22.4633 26.9869 22.146C26.6603 21.8193 26.4083 21.4227 26.2309 20.956C26.0536 20.4893 25.9649 19.9573 25.9649 19.36C25.9649 18.772 26.0536 18.2447 26.2309 17.778C26.4083 17.3113 26.6603 16.9193 26.9869 16.602C27.3136 16.2753 27.7149 16.028 28.1909 15.86C28.6669 15.6827 29.1989 15.594 29.7869 15.594C30.2909 15.594 30.7296 15.65 31.1029 15.762C31.4856 15.874 31.7889 16.014 32.0129 16.182V17.526C31.7236 17.3393 31.4063 17.1947 31.0609 17.092C30.7249 16.9893 30.3329 16.938 29.8849 16.938C28.3823 16.938 27.6309 17.7453 27.6309 19.36C27.6309 20.9747 28.3683 21.782 29.8429 21.782C30.3189 21.782 30.7249 21.7307 31.0609 21.628C31.4063 21.516 31.7236 21.376 32.0129 21.208V22.552C31.7703 22.7107 31.4669 22.8507 31.1029 22.972C30.7389 23.084 30.2909 23.14 29.7589 23.14ZM38.0166 14.572C37.746 14.572 37.522 14.4833 37.3446 14.306C37.1673 14.1193 37.0786 13.9 37.0786 13.648C37.0786 13.3867 37.1673 13.1673 37.3446 12.99C37.522 12.8127 37.746 12.724 38.0166 12.724C38.2873 12.724 38.5113 12.8127 38.6886 12.99C38.866 13.1673 38.9546 13.3867 38.9546 13.648C38.9546 13.9 38.866 14.1193 38.6886 14.306C38.5113 14.4833 38.2873 14.572 38.0166 14.572ZM35.1606 14.572C34.8993 14.572 34.68 14.4833 34.5026 14.306C34.3253 14.1193 34.2366 13.9 34.2366 13.648C34.2366 13.3867 34.3253 13.1673 34.5026 12.99C34.68 12.8127 34.8993 12.724 35.1606 12.724C35.4313 12.724 35.6553 12.8127 35.8326 12.99C36.0193 13.1673 36.1126 13.3867 36.1126 13.648C36.1126 13.9 36.0193 14.1193 35.8326 14.306C35.6553 14.4833 35.4313 14.572 35.1606 14.572ZM39.5846 22.468C39.482 22.5333 39.356 22.608 39.2066 22.692C39.0573 22.7667 38.88 22.8367 38.6746 22.902C38.4693 22.9673 38.2313 23.0233 37.9606 23.07C37.69 23.1167 37.382 23.14 37.0366 23.14C35.702 23.14 34.7033 22.8087 34.0406 22.146C33.3873 21.4833 33.0606 20.5547 33.0606 19.36C33.0606 18.772 33.1493 18.2447 33.3266 17.778C33.504 17.3113 33.7513 16.9193 34.0686 16.602C34.386 16.2753 34.764 16.028 35.2026 15.86C35.6413 15.6827 36.122 15.594 36.6446 15.594C37.186 15.594 37.6713 15.6827 38.1006 15.86C38.5393 16.0373 38.8986 16.3033 39.1786 16.658C39.4586 17.0127 39.65 17.4513 39.7526 17.974C39.8646 18.4967 39.8693 19.108 39.7666 19.808H34.7406C34.806 20.4707 35.0253 20.97 35.3986 21.306C35.772 21.6327 36.3553 21.796 37.1486 21.796C37.7273 21.796 38.208 21.726 38.5906 21.586C38.9826 21.4367 39.314 21.2827 39.5846 21.124V22.468ZM36.6446 16.882C36.1686 16.882 35.7673 17.0267 35.4406 17.316C35.114 17.6053 34.8993 18.0347 34.7966 18.604H38.2126C38.2313 18.016 38.1006 17.582 37.8206 17.302C37.5406 17.022 37.1486 16.882 36.6446 16.882ZM47.6964 23.14C47.1084 23.14 46.5811 23.056 46.1144 22.888C45.6478 22.7107 45.2511 22.4633 44.9244 22.146C44.5978 21.8193 44.3458 21.4227 44.1684 20.956C43.9911 20.4893 43.9024 19.9573 43.9024 19.36C43.9024 18.772 43.9911 18.2447 44.1684 17.778C44.3458 17.3113 44.5978 16.9193 44.9244 16.602C45.2511 16.2753 45.6524 16.028 46.1284 15.86C46.6044 15.6827 47.1364 15.594 47.7244 15.594C48.2284 15.594 48.6671 15.65 49.0404 15.762C49.4231 15.874 49.7264 16.014 49.9504 16.182V17.526C49.6611 17.3393 49.3438 17.1947 48.9984 17.092C48.6624 16.9893 48.2704 16.938 47.8224 16.938C46.3198 16.938 45.5684 17.7453 45.5684 19.36C45.5684 20.9747 46.3058 21.782 47.7804 21.782C48.2564 21.782 48.6624 21.7307 48.9984 21.628C49.3438 21.516 49.6611 21.376 49.9504 21.208V22.552C49.7078 22.7107 49.4044 22.8507 49.0404 22.972C48.6764 23.084 48.2284 23.14 47.6964 23.14ZM52.0761 20.424C52.1788 19.948 52.2441 19.332 52.2721 18.576C52.3095 17.8107 52.3281 16.8633 52.3281 15.734H57.5501V23H55.9261V17.05H53.8121C53.7935 18.0113 53.7561 18.8607 53.7001 19.598C53.6441 20.3353 53.5275 20.9607 53.3501 21.474C53.1821 21.978 52.9348 22.3653 52.6081 22.636C52.2908 22.9067 51.8615 23.042 51.3201 23.042C51.2455 23.042 51.1708 23.0373 51.0961 23.028C51.0308 23.028 50.9608 23.0233 50.8861 23.014V21.502C50.9795 21.5207 51.0495 21.53 51.0961 21.53C51.3481 21.53 51.5488 21.4413 51.6981 21.264C51.8568 21.0773 51.9828 20.7973 52.0761 20.424ZM62.5395 23.14C62.0262 23.14 61.5502 23.056 61.1115 22.888C60.6728 22.72 60.2902 22.4773 59.9635 22.16C59.6462 21.8333 59.3942 21.4367 59.2075 20.97C59.0302 20.5033 58.9415 19.9667 58.9415 19.36C58.9415 18.7533 59.0302 18.2167 59.2075 17.75C59.3942 17.2833 59.6462 16.8913 59.9635 16.574C60.2902 16.2473 60.6728 16.0047 61.1115 15.846C61.5502 15.678 62.0262 15.594 62.5395 15.594C63.0528 15.594 63.5288 15.678 63.9675 15.846C64.4062 16.0047 64.7888 16.2473 65.1155 16.574C65.4422 16.8913 65.6988 17.2833 65.8855 17.75C66.0722 18.2167 66.1655 18.7533 66.1655 19.36C66.1655 19.9667 66.0722 20.5033 65.8855 20.97C65.6988 21.4367 65.4422 21.8333 65.1155 22.16C64.7888 22.4773 64.4062 22.72 63.9675 22.888C63.5288 23.056 63.0528 23.14 62.5395 23.14ZM62.5395 21.782C63.0995 21.782 63.5615 21.586 63.9255 21.194C64.2988 20.802 64.4855 20.1907 64.4855 19.36C64.4855 18.5387 64.2988 17.932 63.9255 17.54C63.5615 17.1387 63.0995 16.938 62.5395 16.938C61.9888 16.938 61.5268 17.1387 61.1535 17.54C60.7895 17.932 60.6075 18.5387 60.6075 19.36C60.6075 20.1907 60.7895 20.802 61.1535 21.194C61.5268 21.586 61.9888 21.782 62.5395 21.782ZM72.5445 15.734V18.73H73.1465L75.2325 15.734H76.8985L74.4205 19.22L77.0385 23H75.1345L73.1045 20.046H72.5445V23H70.9205V20.046H70.3605L68.2885 23H66.4405L69.0585 19.29L66.5665 15.734H68.2885L70.3325 18.73H70.9205V15.734H72.5445ZM82.81 19.934H79.744V23H78.12V15.734H79.744V18.618H82.81V15.734H84.434V23H82.81V19.934ZM89.4047 23.14C88.8914 23.14 88.4154 23.056 87.9767 22.888C87.5381 22.72 87.1554 22.4773 86.8287 22.16C86.5114 21.8333 86.2594 21.4367 86.0727 20.97C85.8954 20.5033 85.8067 19.9667 85.8067 19.36C85.8067 18.7533 85.8954 18.2167 86.0727 17.75C86.2594 17.2833 86.5114 16.8913 86.8287 16.574C87.1554 16.2473 87.5381 16.0047 87.9767 15.846C88.4154 15.678 88.8914 15.594 89.4047 15.594C89.9181 15.594 90.3941 15.678 90.8327 15.846C91.2714 16.0047 91.6541 16.2473 91.9807 16.574C92.3074 16.8913 92.5641 17.2833 92.7507 17.75C92.9374 18.2167 93.0307 18.7533 93.0307 19.36C93.0307 19.9667 92.9374 20.5033 92.7507 20.97C92.5641 21.4367 92.3074 21.8333 91.9807 22.16C91.6541 22.4773 91.2714 22.72 90.8327 22.888C90.3941 23.056 89.9181 23.14 89.4047 23.14ZM89.4047 21.782C89.9647 21.782 90.4267 21.586 90.7907 21.194C91.1641 20.802 91.3507 20.1907 91.3507 19.36C91.3507 18.5387 91.1641 17.932 90.7907 17.54C90.4267 17.1387 89.9647 16.938 89.4047 16.938C88.8541 16.938 88.3921 17.1387 88.0187 17.54C87.6547 17.932 87.4727 18.5387 87.4727 19.36C87.4727 20.1907 87.6547 20.802 88.0187 21.194C88.3921 21.586 88.8541 21.782 89.4047 21.782ZM93.851 24.54C94.0284 24.344 94.1917 24.092 94.341 23.784C94.4997 23.4853 94.607 23.2147 94.663 22.972C94.411 22.9067 94.2197 22.7853 94.089 22.608C93.9584 22.4213 93.893 22.216 93.893 21.992C93.893 21.6933 93.991 21.446 94.187 21.25C94.383 21.0447 94.6444 20.942 94.971 20.942C95.2977 20.942 95.5637 21.0493 95.769 21.264C95.9744 21.4693 96.077 21.768 96.077 22.16C96.077 22.3933 96.0444 22.6267 95.979 22.86C95.9137 23.0933 95.8297 23.3127 95.727 23.518C95.6244 23.7327 95.5077 23.9287 95.377 24.106C95.2557 24.2833 95.1344 24.428 95.013 24.54H93.851ZM105.423 19.934H102.357V23H100.733V15.734H102.357V18.618H105.423V15.734H107.047V23H105.423V19.934ZM112.788 22.916C112.629 23.3547 112.457 23.742 112.27 24.078C112.093 24.414 111.883 24.694 111.64 24.918C111.407 25.1513 111.131 25.324 110.814 25.436C110.506 25.5573 110.142 25.618 109.722 25.618C109.265 25.618 108.873 25.5433 108.546 25.394V23.938C108.677 24.0407 108.84 24.12 109.036 24.176C109.232 24.232 109.447 24.26 109.68 24.26C109.997 24.26 110.259 24.19 110.464 24.05C110.669 23.9193 110.856 23.7187 111.024 23.448L108.098 15.734H109.848L111.878 21.376L113.894 15.734H115.406L112.788 22.916ZM121.873 15.734V18.73H122.475L124.561 15.734H126.227L123.749 19.22L126.367 23H124.463L122.433 20.046H121.873V23H120.249V20.046H119.689L117.617 23H115.769L118.387 19.29L115.895 15.734H117.617L119.661 18.73H120.249V15.734H121.873ZM132.138 19.934H129.072V23H127.448V15.734H129.072V18.618H132.138V15.734H133.762V23H132.138V19.934ZM139.769 21.726C139.694 21.894 139.592 22.062 139.461 22.23C139.34 22.398 139.186 22.552 138.999 22.692C138.822 22.8227 138.607 22.93 138.355 23.014C138.103 23.098 137.809 23.14 137.473 23.14C137.156 23.14 136.862 23.0933 136.591 23C136.32 22.916 136.082 22.7853 135.877 22.608C135.681 22.4307 135.522 22.2113 135.401 21.95C135.289 21.6793 135.233 21.3713 135.233 21.026C135.233 20.2327 135.527 19.64 136.115 19.248C136.703 18.8467 137.534 18.646 138.607 18.646H139.713V18.198C139.713 17.722 139.592 17.3953 139.349 17.218C139.106 17.0313 138.705 16.938 138.145 16.938C137.669 16.938 137.221 17.008 136.801 17.148C136.39 17.2787 136.026 17.4327 135.709 17.61V16.252C135.998 16.0933 136.381 15.944 136.857 15.804C137.333 15.664 137.851 15.594 138.411 15.594C139.344 15.594 140.063 15.79 140.567 16.182C141.08 16.5647 141.337 17.1807 141.337 18.03V21.824C141.337 21.908 141.337 22.006 141.337 22.118C141.346 22.2207 141.351 22.328 141.351 22.44C141.36 22.552 141.37 22.6593 141.379 22.762C141.388 22.8553 141.398 22.9347 141.407 23H139.909C139.881 22.8693 139.853 22.6873 139.825 22.454C139.806 22.2207 139.792 22.0107 139.783 21.824L139.769 21.726ZM137.921 21.88C138.266 21.88 138.551 21.81 138.775 21.67C139.008 21.5207 139.195 21.3527 139.335 21.166C139.475 20.97 139.573 20.7787 139.629 20.592C139.685 20.4053 139.713 20.2747 139.713 20.2V19.71H138.705C138.061 19.71 137.59 19.8127 137.291 20.018C136.992 20.214 136.843 20.494 136.843 20.858C136.843 21.1753 136.932 21.4273 137.109 21.614C137.296 21.7913 137.566 21.88 137.921 21.88ZM146.165 15.734H152.339V23H150.715V17.05H147.789V23H146.165V15.734ZM157.313 23.14C156.8 23.14 156.324 23.056 155.885 22.888C155.446 22.72 155.064 22.4773 154.737 22.16C154.42 21.8333 154.168 21.4367 153.981 20.97C153.804 20.5033 153.715 19.9667 153.715 19.36C153.715 18.7533 153.804 18.2167 153.981 17.75C154.168 17.2833 154.42 16.8913 154.737 16.574C155.064 16.2473 155.446 16.0047 155.885 15.846C156.324 15.678 156.8 15.594 157.313 15.594C157.826 15.594 158.302 15.678 158.741 15.846C159.18 16.0047 159.562 16.2473 159.889 16.574C160.216 16.8913 160.472 17.2833 160.659 17.75C160.846 18.2167 160.939 18.7533 160.939 19.36C160.939 19.9667 160.846 20.5033 160.659 20.97C160.472 21.4367 160.216 21.8333 159.889 22.16C159.562 22.4773 159.18 22.72 158.741 22.888C158.302 23.056 157.826 23.14 157.313 23.14ZM157.313 21.782C157.873 21.782 158.335 21.586 158.699 21.194C159.072 20.802 159.259 20.1907 159.259 19.36C159.259 18.5387 159.072 17.932 158.699 17.54C158.335 17.1387 157.873 16.938 157.313 16.938C156.762 16.938 156.3 17.1387 155.927 17.54C155.563 17.932 155.381 18.5387 155.381 19.36C155.381 20.1907 155.563 20.802 155.927 21.194C156.3 21.586 156.762 21.782 157.313 21.782ZM169.116 17.736L166.974 22.3H165.784L163.768 17.694V23H162.298V15.734H164.524L166.512 20.242L168.612 15.734H170.74V23H169.116V17.736ZM175.715 23.14C175.202 23.14 174.726 23.056 174.287 22.888C173.849 22.72 173.466 22.4773 173.139 22.16C172.822 21.8333 172.57 21.4367 172.383 20.97C172.206 20.5033 172.117 19.9667 172.117 19.36C172.117 18.7533 172.206 18.2167 172.383 17.75C172.57 17.2833 172.822 16.8913 173.139 16.574C173.466 16.2473 173.849 16.0047 174.287 15.846C174.726 15.678 175.202 15.594 175.715 15.594C176.229 15.594 176.705 15.678 177.143 15.846C177.582 16.0047 177.965 16.2473 178.291 16.574C178.618 16.8913 178.875 17.2833 179.061 17.75C179.248 18.2167 179.341 18.7533 179.341 19.36C179.341 19.9667 179.248 20.5033 179.061 20.97C178.875 21.4367 178.618 21.8333 178.291 22.16C177.965 22.4773 177.582 22.72 177.143 22.888C176.705 23.056 176.229 23.14 175.715 23.14ZM175.715 21.782C176.275 21.782 176.737 21.586 177.101 21.194C177.475 20.802 177.661 20.1907 177.661 19.36C177.661 18.5387 177.475 17.932 177.101 17.54C176.737 17.1387 176.275 16.938 175.715 16.938C175.165 16.938 174.703 17.1387 174.329 17.54C173.965 17.932 173.783 18.5387 173.783 19.36C173.783 20.1907 173.965 20.802 174.329 21.194C174.703 21.586 175.165 21.782 175.715 21.782ZM190.08 21.684H191.158V25.072H189.772L189.632 23H180.7V15.734H182.324V21.684H184.578V15.734H186.202V21.684H188.442V15.734H190.08V21.684ZM198.241 20.494C198.241 20.914 198.162 21.2827 198.003 21.6C197.854 21.9173 197.644 22.1787 197.373 22.384C197.103 22.5893 196.781 22.7433 196.407 22.846C196.034 22.9487 195.623 23 195.175 23H192.375V15.734H193.999V18.086H195.217C196.169 18.086 196.911 18.282 197.443 18.674C197.975 19.066 198.241 19.6727 198.241 20.494ZM193.999 19.374V21.726H195.049C195.497 21.726 195.861 21.6373 196.141 21.46C196.421 21.2733 196.561 20.97 196.561 20.55C196.561 20.13 196.435 19.8313 196.183 19.654C195.931 19.4673 195.567 19.374 195.091 19.374H193.999Z" fill="white"/>
</svg>
