<svg xmlns="http://www.w3.org/2000/svg" width="16" height="16" viewBox="0 0 16 16"><path fill-rule="evenodd" clip-rule="evenodd" d="M3 3.003a3 3 0 013-3h2a3 3 0 013 3h2a1 1 0 110 2h-.654l-.74 9.615a1.5 1.5 0 01-1.495 1.385H3.889a1.5 1.5 0 01-1.496-1.385l-.74-9.615H1a1 1 0 110-2h2zm1.586 2.95a.8.8 0 00-.736.86l.425 5.505a.8.8 0 001.596-.124L5.445 6.69a.8.8 0 00-.86-.736h.001zm3.969.742a.8.8 0 011.595.123l-.425 5.493a.8.8 0 11-1.595-.123l.425-5.493zM6 2.003a1 1 0 00-1 1h4a1 1 0 00-1-1H6z" fill="#b8bec3"></path></svg>
