<?xml version="1.0" encoding="UTF-8" standalone="no"?>
<svg
   xmlns:dc="http://purl.org/dc/elements/1.1/"
   xmlns:cc="http://creativecommons.org/ns#"
   xmlns:rdf="http://www.w3.org/1999/02/22-rdf-syntax-ns#"
   xmlns:svg="http://www.w3.org/2000/svg"
   xmlns="http://www.w3.org/2000/svg"
   xmlns:sodipodi="http://sodipodi.sourceforge.net/DTD/sodipodi-0.dtd"
   xmlns:inkscape="http://www.inkscape.org/namespaces/inkscape"
   width="12px"
   height="14px"
   viewBox="0 0 12 14"
   version="1.1"
   id="svg2"
   inkscape:version="0.91 r13725"
   sodipodi:docname="bin.svg">
  <metadata
     id="metadata13">
    <rdf:RDF>
      <cc:Work
         rdf:about="">
        <dc:format>image/svg+xml</dc:format>
        <dc:type
           rdf:resource="http://purl.org/dc/dcmitype/StillImage" />
      </cc:Work>
    </rdf:RDF>
  </metadata>
  <sodipodi:namedview
     pagecolor="#ffffff"
     bordercolor="#666666"
     borderopacity="1"
     objecttolerance="10"
     gridtolerance="10"
     guidetolerance="10"
     inkscape:pageopacity="0"
     inkscape:pageshadow="2"
     inkscape:window-width="640"
     inkscape:window-height="480"
     id="namedview11"
     showgrid="false"
     inkscape:zoom="16.857143"
     inkscape:cx="4.9618644"
     inkscape:cy="7"
     inkscape:window-x="0"
     inkscape:window-y="0"
     inkscape:window-maximized="0"
     inkscape:current-layer="svg2" />
  <defs
     id="defs4" />
  <g
     style="fill:#666666;fill-rule:evenodd;stroke:none;stroke-width:1"
     transform="translate(-1103,-420)"
     id="customer_skills-hover">
    <g
       transform="translate(128.4,199)"
       id="table-big-copy-4">
      <g
         transform="translate(0,107)"
         id="Group-Copy-10">
        <path
           inkscape:connector-curvature="0"
           id="path-1-copy-2"
           d="m 974.6,118 0,-2 4,0 0,-2 4,0 0,2 4,0 0,2 -12,0 z m 1.9954,10 c -0.54975,0 -0.9954,-0.44631 -0.9954,-0.99755 l 0,-8.00245 10,0 0,8.00245 c 0,0.55093 -0.45566,0.99755 -0.9954,0.99755 l -8.0092,0 z m 1.0046,-7 2,0 0,5 -2,0 0,-5 z m 4,0 2,0 0,5 -2,0 0,-5 z" />
      </g>
    </g>
  </g>
</svg>
