<svg width="440" height="202" viewBox="0 0 440 202" fill="none" xmlns="http://www.w3.org/2000/svg">
<rect x="0.5" y="0.5" width="439" height="201" rx="3.5" fill="white"/>
<path d="M38.12 39.26C38.12 40.1 37.9867 40.8867 37.72 41.62C37.4667 42.34 37.08 42.9667 36.56 43.5C36.04 44.02 35.38 44.4333 34.58 44.74C33.7933 45.0467 32.8667 45.2 31.8 45.2C30.7333 45.2 29.7667 45.0333 28.9 44.7C28.0333 44.3533 27.2867 43.86 26.66 43.22C26.0467 42.58 25.5667 41.8067 25.22 40.9C24.8867 39.9933 24.72 38.9733 24.72 37.84C24.72 36.7067 24.8867 35.6867 25.22 34.78C25.5533 33.8733 26.04 33.1 26.68 32.46C27.3333 31.82 28.1333 31.3333 29.08 31C30.04 30.6533 31.14 30.48 32.38 30.48C32.98 30.48 33.5133 30.5133 33.98 30.58C34.46 30.6467 34.8867 30.74 35.26 30.86C35.6333 30.9667 35.9667 31.0933 36.26 31.24C36.5533 31.3733 36.82 31.5067 37.06 31.64V34.1C36.46 33.7533 35.8 33.46 35.08 33.22C34.36 32.98 33.5067 32.86 32.52 32.86C30.8133 32.86 29.58 33.3 28.82 34.18C28.0733 35.0467 27.7 36.2667 27.7 37.84C27.7 39.4267 28.0533 40.6533 28.76 41.52C29.48 42.3867 30.5 42.82 31.82 42.82C32.42 42.82 32.9333 42.74 33.36 42.58C33.8 42.4067 34.16 42.18 34.44 41.9C34.72 41.6067 34.92 41.2667 35.04 40.88C35.1733 40.48 35.24 40.0533 35.24 39.6H31.4V37.22H38.12V39.26ZM46.3428 37.24C45.5828 37.1733 44.8961 37.2467 44.2828 37.46C43.6695 37.66 43.1895 37.9867 42.8428 38.44V45H40.0828V34.62H42.6628L42.8028 36.72H42.8428C43.2161 36.04 43.6961 35.5 44.2828 35.1C44.8828 34.7 45.5695 34.4733 46.3428 34.42V37.24ZM53.9758 45C53.9358 44.8 53.8958 44.54 53.8558 44.22C53.8291 43.8867 53.8024 43.6 53.7758 43.36C53.6691 43.5867 53.5291 43.8067 53.3558 44.02C53.1958 44.2333 52.9891 44.4333 52.7358 44.62C52.4824 44.7933 52.1824 44.9333 51.8358 45.04C51.5024 45.1467 51.1091 45.2 50.6558 45.2C50.2158 45.2 49.7958 45.14 49.3958 45.02C49.0091 44.9 48.6624 44.7133 48.3558 44.46C48.0624 44.2067 47.8291 43.8933 47.6558 43.52C47.4824 43.1467 47.3958 42.7067 47.3958 42.2C47.3958 41.0933 47.8291 40.24 48.6958 39.64C49.5624 39.04 50.7958 38.74 52.3958 38.74H53.6758V38.28C53.6758 37.64 53.5091 37.2067 53.1758 36.98C52.8558 36.74 52.3358 36.62 51.6158 36.62C50.8958 36.62 50.2358 36.7133 49.6358 36.9C49.0358 37.0867 48.5091 37.2933 48.0558 37.52V35.32C48.5091 35.0933 49.0891 34.8867 49.7958 34.7C50.5024 34.5133 51.2758 34.42 52.1158 34.42C53.4758 34.42 54.5358 34.7067 55.2958 35.28C56.0691 35.8533 56.4558 36.7667 56.4558 38.02V43.32C56.4558 43.44 56.4558 43.58 56.4558 43.74C56.4691 43.8867 56.4758 44.04 56.4758 44.2C56.4891 44.36 56.5024 44.5133 56.5158 44.66C56.5291 44.7933 56.5424 44.9067 56.5558 45H53.9758ZM51.4958 43.22C51.9491 43.22 52.3158 43.1267 52.5958 42.94C52.8758 42.74 53.0958 42.5133 53.2558 42.26C53.4158 42.0067 53.5224 41.76 53.5758 41.52C53.6424 41.2667 53.6758 41.0867 53.6758 40.98V40.36H52.4958C51.6691 40.36 51.0624 40.5 50.6758 40.78C50.3024 41.0467 50.1158 41.4133 50.1158 41.88C50.1158 42.3067 50.2358 42.64 50.4758 42.88C50.7291 43.1067 51.0691 43.22 51.4958 43.22ZM63.9742 36.62C63.4142 36.62 62.9276 36.7333 62.5142 36.96C62.1142 37.1867 61.7876 37.48 61.5342 37.84V45H58.7742V34.62H61.3742L61.4942 36.18H61.5342C61.8142 35.6733 62.2276 35.2533 62.7742 34.92C63.3209 34.5867 64.0142 34.42 64.8542 34.42C65.3476 34.42 65.8076 34.4933 66.2342 34.64C66.6742 34.7733 67.0476 34.98 67.3542 35.26C67.6742 35.5267 67.9209 35.8667 68.0942 36.28C68.2809 36.6933 68.3742 37.18 68.3742 37.74V45H65.5942V38.04C65.5942 37.52 65.4476 37.1533 65.1542 36.94C64.8742 36.7267 64.4809 36.62 63.9742 36.62ZM76.6292 44.6C76.3626 44.7733 76.0359 44.9133 75.6492 45.02C75.2759 45.14 74.8092 45.2 74.2492 45.2C73.6492 45.2 73.1492 45.12 72.7492 44.96C72.3492 44.7867 72.0226 44.56 71.7692 44.28C71.5292 44 71.3559 43.6733 71.2492 43.3C71.1426 42.9133 71.0892 42.5 71.0892 42.06V36.8H69.8492V34.62H71.0892V32.44H73.8492V34.62H76.7892V36.8H73.8492V41.76C73.8492 42.1733 73.9426 42.48 74.1292 42.68C74.3159 42.88 74.6226 42.98 75.0492 42.98C75.4092 42.98 75.7159 42.9267 75.9692 42.82C76.2226 42.7 76.4426 42.56 76.6292 42.4V44.6ZM89.1516 45C89.1116 44.8 89.0716 44.54 89.0316 44.22C89.0049 43.8867 88.9782 43.6 88.9516 43.36C88.8449 43.5867 88.7049 43.8067 88.5316 44.02C88.3716 44.2333 88.1649 44.4333 87.9116 44.62C87.6582 44.7933 87.3582 44.9333 87.0116 45.04C86.6782 45.1467 86.2849 45.2 85.8316 45.2C85.3916 45.2 84.9716 45.14 84.5716 45.02C84.1849 44.9 83.8382 44.7133 83.5316 44.46C83.2382 44.2067 83.0049 43.8933 82.8316 43.52C82.6582 43.1467 82.5716 42.7067 82.5716 42.2C82.5716 41.0933 83.0049 40.24 83.8716 39.64C84.7382 39.04 85.9716 38.74 87.5716 38.74H88.8516V38.28C88.8516 37.64 88.6849 37.2067 88.3516 36.98C88.0316 36.74 87.5116 36.62 86.7916 36.62C86.0716 36.62 85.4116 36.7133 84.8116 36.9C84.2116 37.0867 83.6849 37.2933 83.2316 37.52V35.32C83.6849 35.0933 84.2649 34.8867 84.9716 34.7C85.6782 34.5133 86.4516 34.42 87.2916 34.42C88.6516 34.42 89.7116 34.7067 90.4716 35.28C91.2449 35.8533 91.6316 36.7667 91.6316 38.02V43.32C91.6316 43.44 91.6316 43.58 91.6316 43.74C91.6449 43.8867 91.6516 44.04 91.6516 44.2C91.6649 44.36 91.6782 44.5133 91.6916 44.66C91.7049 44.7933 91.7182 44.9067 91.7316 45H89.1516ZM86.6716 43.22C87.1249 43.22 87.4916 43.1267 87.7716 42.94C88.0516 42.74 88.2716 42.5133 88.4316 42.26C88.5916 42.0067 88.6982 41.76 88.7516 41.52C88.8182 41.2667 88.8516 41.0867 88.8516 40.98V40.36H87.6716C86.8449 40.36 86.2382 40.5 85.8516 40.78C85.4782 41.0467 85.2916 41.4133 85.2916 41.88C85.2916 42.3067 85.4116 42.64 85.6516 42.88C85.9049 43.1067 86.2449 43.22 86.6716 43.22ZM98.95 45.2C98.0833 45.2 97.3033 45.08 96.61 44.84C95.93 44.5867 95.35 44.2333 94.87 43.78C94.39 43.3133 94.0167 42.7467 93.75 42.08C93.4967 41.4133 93.37 40.6533 93.37 39.8C93.37 38.96 93.4967 38.2067 93.75 37.54C94.0167 36.8733 94.39 36.3133 94.87 35.86C95.35 35.3933 95.9367 35.04 96.63 34.8C97.3233 34.5467 98.1033 34.42 98.97 34.42C99.77 34.42 100.437 34.5067 100.97 34.68C101.503 34.84 101.923 35.0333 102.23 35.26V37.46C101.83 37.2067 101.403 37.0067 100.95 36.86C100.497 36.7 99.9167 36.62 99.21 36.62C97.21 36.62 96.21 37.68 96.21 39.8C96.21 41.92 97.1967 42.98 99.17 42.98C99.9033 42.98 100.497 42.9067 100.95 42.76C101.403 42.6 101.83 42.4 102.23 42.16V44.34C101.923 44.5667 101.497 44.7667 100.95 44.94C100.417 45.1133 99.75 45.2 98.95 45.2ZM109.126 45.2C108.259 45.2 107.479 45.08 106.786 44.84C106.106 44.5867 105.526 44.2333 105.046 43.78C104.566 43.3133 104.192 42.7467 103.926 42.08C103.672 41.4133 103.546 40.6533 103.546 39.8C103.546 38.96 103.672 38.2067 103.926 37.54C104.192 36.8733 104.566 36.3133 105.046 35.86C105.526 35.3933 106.112 35.04 106.806 34.8C107.499 34.5467 108.279 34.42 109.146 34.42C109.946 34.42 110.612 34.5067 111.146 34.68C111.679 34.84 112.099 35.0333 112.406 35.26V37.46C112.006 37.2067 111.579 37.0067 111.126 36.86C110.672 36.7 110.092 36.62 109.386 36.62C107.386 36.62 106.386 37.68 106.386 39.8C106.386 41.92 107.372 42.98 109.346 42.98C110.079 42.98 110.672 42.9067 111.126 42.76C111.579 42.6 112.006 42.4 112.406 42.16V44.34C112.099 44.5667 111.672 44.7667 111.126 44.94C110.592 45.1133 109.926 45.2 109.126 45.2ZM123.322 44.32C123.162 44.4133 122.975 44.5133 122.762 44.62C122.562 44.7133 122.315 44.8067 122.022 44.9C121.742 44.98 121.408 45.0467 121.022 45.1C120.648 45.1667 120.202 45.2 119.682 45.2C117.655 45.2 116.155 44.7267 115.182 43.78C114.208 42.8333 113.722 41.5067 113.722 39.8C113.722 38.96 113.848 38.2067 114.102 37.54C114.368 36.8733 114.735 36.3133 115.202 35.86C115.668 35.3933 116.222 35.04 116.862 34.8C117.515 34.5467 118.235 34.42 119.022 34.42C119.822 34.42 120.542 34.5533 121.182 34.82C121.822 35.0733 122.348 35.4533 122.762 35.96C123.188 36.4667 123.482 37.1067 123.642 37.88C123.802 38.6533 123.802 39.5467 123.642 40.56H116.602C116.708 41.3733 117.002 41.9867 117.482 42.4C117.975 42.8 118.755 43 119.822 43C120.675 43 121.368 42.9067 121.902 42.72C122.448 42.5333 122.922 42.34 123.322 42.14V44.32ZM119.062 36.48C118.448 36.48 117.935 36.6667 117.522 37.04C117.108 37.4133 116.828 37.9533 116.682 38.66H121.002C121.015 37.9267 120.855 37.38 120.522 37.02C120.188 36.66 119.702 36.48 119.062 36.48ZM129.129 45.2C128.623 45.2 128.163 45.16 127.749 45.08C127.336 45 126.963 44.9 126.629 44.78C126.309 44.66 126.036 44.5333 125.809 44.4C125.583 44.2667 125.403 44.1467 125.269 44.04V42C125.403 42.12 125.583 42.2467 125.809 42.38C126.036 42.5133 126.303 42.64 126.609 42.76C126.929 42.8667 127.289 42.96 127.689 43.04C128.089 43.1067 128.529 43.14 129.009 43.14C129.729 43.14 130.223 43.04 130.489 42.84C130.756 42.64 130.889 42.38 130.889 42.06C130.889 41.8067 130.823 41.6133 130.689 41.48C130.556 41.3333 130.376 41.2267 130.149 41.16C129.936 41.08 129.689 41.02 129.409 40.98C129.129 40.94 128.836 40.8867 128.529 40.82C128.143 40.74 127.749 40.64 127.349 40.52C126.963 40.3867 126.609 40.2067 126.289 39.98C125.983 39.7533 125.729 39.46 125.529 39.1C125.329 38.7267 125.229 38.26 125.229 37.7C125.229 36.6733 125.603 35.8733 126.349 35.3C127.096 34.7133 128.163 34.42 129.549 34.42C130.349 34.42 131.029 34.5067 131.589 34.68C132.149 34.8533 132.549 35.0267 132.789 35.2V37.24C132.496 37.04 132.096 36.86 131.589 36.7C131.096 36.54 130.456 36.46 129.669 36.46C128.936 36.46 128.423 36.5467 128.129 36.72C127.849 36.8933 127.709 37.1467 127.709 37.48C127.709 37.7067 127.769 37.88 127.889 38C128.023 38.12 128.196 38.2133 128.409 38.28C128.623 38.3467 128.863 38.4 129.129 38.44C129.409 38.4667 129.696 38.5 129.989 38.54C130.376 38.6067 130.769 38.7 131.169 38.82C131.569 38.9267 131.929 39.1 132.249 39.34C132.583 39.58 132.849 39.9 133.049 40.3C133.263 40.6867 133.369 41.18 133.369 41.78C133.369 42.42 133.249 42.96 133.009 43.4C132.769 43.8267 132.449 44.18 132.049 44.46C131.649 44.7267 131.196 44.9133 130.689 45.02C130.183 45.14 129.663 45.2 129.129 45.2ZM138.485 45.2C137.978 45.2 137.518 45.16 137.105 45.08C136.691 45 136.318 44.9 135.985 44.78C135.665 44.66 135.391 44.5333 135.165 44.4C134.938 44.2667 134.758 44.1467 134.625 44.04V42C134.758 42.12 134.938 42.2467 135.165 42.38C135.391 42.5133 135.658 42.64 135.965 42.76C136.285 42.8667 136.645 42.96 137.045 43.04C137.445 43.1067 137.885 43.14 138.365 43.14C139.085 43.14 139.578 43.04 139.845 42.84C140.111 42.64 140.245 42.38 140.245 42.06C140.245 41.8067 140.178 41.6133 140.045 41.48C139.911 41.3333 139.731 41.2267 139.505 41.16C139.291 41.08 139.045 41.02 138.765 40.98C138.485 40.94 138.191 40.8867 137.885 40.82C137.498 40.74 137.105 40.64 136.705 40.52C136.318 40.3867 135.965 40.2067 135.645 39.98C135.338 39.7533 135.085 39.46 134.885 39.1C134.685 38.7267 134.585 38.26 134.585 37.7C134.585 36.6733 134.958 35.8733 135.705 35.3C136.451 34.7133 137.518 34.42 138.905 34.42C139.705 34.42 140.385 34.5067 140.945 34.68C141.505 34.8533 141.905 35.0267 142.145 35.2V37.24C141.851 37.04 141.451 36.86 140.945 36.7C140.451 36.54 139.811 36.46 139.025 36.46C138.291 36.46 137.778 36.5467 137.485 36.72C137.205 36.8933 137.065 37.1467 137.065 37.48C137.065 37.7067 137.125 37.88 137.245 38C137.378 38.12 137.551 38.2133 137.765 38.28C137.978 38.3467 138.218 38.4 138.485 38.44C138.765 38.4667 139.051 38.5 139.345 38.54C139.731 38.6067 140.125 38.7 140.525 38.82C140.925 38.9267 141.285 39.1 141.605 39.34C141.938 39.58 142.205 39.9 142.405 40.3C142.618 40.6867 142.725 41.18 142.725 41.78C142.725 42.42 142.605 42.96 142.365 43.4C142.125 43.8267 141.805 44.18 141.405 44.46C141.005 44.7267 140.551 44.9133 140.045 45.02C139.538 45.14 139.018 45.2 138.485 45.2ZM152.451 36.8V45H149.691V36.8H148.471V34.62H149.691V34.5C149.691 33.86 149.791 33.2933 149.991 32.8C150.191 32.3067 150.478 31.8867 150.851 31.54C151.224 31.1933 151.671 30.9333 152.191 30.76C152.711 30.5733 153.284 30.48 153.911 30.48C154.311 30.48 154.631 30.5 154.871 30.54C155.111 30.5667 155.324 30.6067 155.511 30.66V32.9C155.391 32.8467 155.211 32.8 154.971 32.76C154.744 32.7067 154.471 32.68 154.151 32.68C153.644 32.68 153.231 32.8267 152.911 33.12C152.604 33.4133 152.451 33.8733 152.451 34.5V34.62H155.291V36.8H152.451ZM161.442 45.2C160.695 45.2 160.002 45.0867 159.362 44.86C158.735 44.62 158.182 44.2733 157.702 43.82C157.235 43.3533 156.869 42.7867 156.602 42.12C156.335 41.44 156.202 40.6667 156.202 39.8C156.202 38.9333 156.335 38.1667 156.602 37.5C156.869 36.82 157.235 36.2533 157.702 35.8C158.182 35.3467 158.735 35.0067 159.362 34.78C160.002 34.54 160.695 34.42 161.442 34.42C162.189 34.42 162.882 34.54 163.522 34.78C164.175 35.0067 164.735 35.3467 165.202 35.8C165.682 36.2533 166.055 36.82 166.322 37.5C166.602 38.1667 166.742 38.9333 166.742 39.8C166.742 40.6667 166.602 41.44 166.322 42.12C166.055 42.7867 165.682 43.3533 165.202 43.82C164.735 44.2733 164.175 44.62 163.522 44.86C162.882 45.0867 162.189 45.2 161.442 45.2ZM161.442 42.98C162.162 42.98 162.749 42.72 163.202 42.2C163.655 41.68 163.882 40.88 163.882 39.8C163.882 38.7333 163.655 37.94 163.202 37.42C162.749 36.9 162.162 36.64 161.442 36.64C160.762 36.64 160.189 36.9 159.722 37.42C159.269 37.94 159.042 38.7333 159.042 39.8C159.042 40.88 159.269 41.68 159.722 42.2C160.189 42.72 160.762 42.98 161.442 42.98ZM174.819 37.24C174.059 37.1733 173.373 37.2467 172.759 37.46C172.146 37.66 171.666 37.9867 171.319 38.44V45H168.559V34.62H171.139L171.279 36.72H171.319C171.693 36.04 172.173 35.5 172.759 35.1C173.359 34.7 174.046 34.4733 174.819 34.42V37.24ZM186.922 44.88C186.696 45.5067 186.456 46.06 186.202 46.54C185.949 47.02 185.649 47.42 185.302 47.74C184.969 48.0733 184.569 48.32 184.102 48.48C183.636 48.6533 183.076 48.74 182.422 48.74C182.022 48.74 181.669 48.7067 181.362 48.64C181.056 48.5867 180.756 48.4933 180.462 48.36V45.96C180.689 46.12 180.962 46.2467 181.282 46.34C181.616 46.4467 181.976 46.5 182.362 46.5C182.789 46.5 183.136 46.42 183.402 46.26C183.669 46.1133 183.896 45.8867 184.082 45.58L179.942 34.62H182.882L185.482 42.12L188.022 34.62H190.562L186.922 44.88ZM196.403 45.2C195.656 45.2 194.963 45.0867 194.323 44.86C193.696 44.62 193.143 44.2733 192.663 43.82C192.196 43.3533 191.83 42.7867 191.563 42.12C191.296 41.44 191.163 40.6667 191.163 39.8C191.163 38.9333 191.296 38.1667 191.563 37.5C191.83 36.82 192.196 36.2533 192.663 35.8C193.143 35.3467 193.696 35.0067 194.323 34.78C194.963 34.54 195.656 34.42 196.403 34.42C197.15 34.42 197.843 34.54 198.483 34.78C199.136 35.0067 199.696 35.3467 200.163 35.8C200.643 36.2533 201.016 36.82 201.283 37.5C201.563 38.1667 201.703 38.9333 201.703 39.8C201.703 40.6667 201.563 41.44 201.283 42.12C201.016 42.7867 200.643 43.3533 200.163 43.82C199.696 44.2733 199.136 44.62 198.483 44.86C197.843 45.0867 197.15 45.2 196.403 45.2ZM196.403 42.98C197.123 42.98 197.71 42.72 198.163 42.2C198.616 41.68 198.843 40.88 198.843 39.8C198.843 38.7333 198.616 37.94 198.163 37.42C197.71 36.9 197.123 36.64 196.403 36.64C195.723 36.64 195.15 36.9 194.683 37.42C194.23 37.94 194.003 38.7333 194.003 39.8C194.003 40.88 194.23 41.68 194.683 42.2C195.15 42.72 195.723 42.98 196.403 42.98ZM210.1 43.44C209.82 43.9333 209.414 44.3533 208.88 44.7C208.36 45.0333 207.667 45.2 206.8 45.2C206.307 45.2 205.854 45.1333 205.44 45C205.027 44.8533 204.667 44.6333 204.36 44.34C204.067 44.0467 203.834 43.6867 203.66 43.26C203.5 42.8333 203.42 42.3267 203.42 41.74V34.62H206.22V41.62C206.22 42.1533 206.367 42.5133 206.66 42.7C206.967 42.8867 207.334 42.98 207.76 42.98C208.32 42.98 208.787 42.8733 209.16 42.66C209.534 42.4333 209.847 42.14 210.1 41.78V34.62H212.84V45H210.28L210.14 43.44H210.1ZM221.519 37.24C220.759 37.1733 220.072 37.2467 219.459 37.46C218.845 37.66 218.365 37.9867 218.019 38.44V45H215.259V34.62H217.839L217.979 36.72H218.019C218.392 36.04 218.872 35.5 219.459 35.1C220.059 34.7 220.745 34.4733 221.519 34.42V37.24ZM233.621 44.6C233.355 44.7733 233.028 44.9133 232.641 45.02C232.268 45.14 231.801 45.2 231.241 45.2C230.641 45.2 230.141 45.12 229.741 44.96C229.341 44.7867 229.015 44.56 228.761 44.28C228.521 44 228.348 43.6733 228.241 43.3C228.135 42.9133 228.081 42.5 228.081 42.06V36.8H226.841V34.62H228.081V32.44H230.841V34.62H233.781V36.8H230.841V41.76C230.841 42.1733 230.935 42.48 231.121 42.68C231.308 42.88 231.615 42.98 232.041 42.98C232.401 42.98 232.708 42.9267 232.961 42.82C233.215 42.7 233.435 42.56 233.621 42.4V44.6ZM244.572 44.32C244.412 44.4133 244.225 44.5133 244.012 44.62C243.812 44.7133 243.565 44.8067 243.272 44.9C242.992 44.98 242.658 45.0467 242.272 45.1C241.898 45.1667 241.452 45.2 240.932 45.2C238.905 45.2 237.405 44.7267 236.432 43.78C235.458 42.8333 234.972 41.5067 234.972 39.8C234.972 38.96 235.098 38.2067 235.352 37.54C235.618 36.8733 235.985 36.3133 236.452 35.86C236.918 35.3933 237.472 35.04 238.112 34.8C238.765 34.5467 239.485 34.42 240.272 34.42C241.072 34.42 241.792 34.5533 242.432 34.82C243.072 35.0733 243.598 35.4533 244.012 35.96C244.438 36.4667 244.732 37.1067 244.892 37.88C245.052 38.6533 245.052 39.5467 244.892 40.56H237.852C237.958 41.3733 238.252 41.9867 238.732 42.4C239.225 42.8 240.005 43 241.072 43C241.925 43 242.618 42.9067 243.152 42.72C243.698 42.5333 244.172 42.34 244.572 42.14V44.32ZM240.312 36.48C239.698 36.48 239.185 36.6667 238.772 37.04C238.358 37.4133 238.078 37.9533 237.932 38.66H242.252C242.265 37.9267 242.105 37.38 241.772 37.02C241.438 36.66 240.952 36.48 240.312 36.48ZM252.999 45C252.959 44.8 252.919 44.54 252.879 44.22C252.853 43.8867 252.826 43.6 252.799 43.36C252.693 43.5867 252.553 43.8067 252.379 44.02C252.219 44.2333 252.013 44.4333 251.759 44.62C251.506 44.7933 251.206 44.9333 250.859 45.04C250.526 45.1467 250.133 45.2 249.679 45.2C249.239 45.2 248.819 45.14 248.419 45.02C248.033 44.9 247.686 44.7133 247.379 44.46C247.086 44.2067 246.853 43.8933 246.679 43.52C246.506 43.1467 246.419 42.7067 246.419 42.2C246.419 41.0933 246.853 40.24 247.719 39.64C248.586 39.04 249.819 38.74 251.419 38.74H252.699V38.28C252.699 37.64 252.533 37.2067 252.199 36.98C251.879 36.74 251.359 36.62 250.639 36.62C249.919 36.62 249.259 36.7133 248.659 36.9C248.059 37.0867 247.533 37.2933 247.079 37.52V35.32C247.533 35.0933 248.113 34.8867 248.819 34.7C249.526 34.5133 250.299 34.42 251.139 34.42C252.499 34.42 253.559 34.7067 254.319 35.28C255.093 35.8533 255.479 36.7667 255.479 38.02V43.32C255.479 43.44 255.479 43.58 255.479 43.74C255.493 43.8867 255.499 44.04 255.499 44.2C255.513 44.36 255.526 44.5133 255.539 44.66C255.553 44.7933 255.566 44.9067 255.579 45H252.999ZM250.519 43.22C250.973 43.22 251.339 43.1267 251.619 42.94C251.899 42.74 252.119 42.5133 252.279 42.26C252.439 42.0067 252.546 41.76 252.599 41.52C252.666 41.2667 252.699 41.0867 252.699 40.98V40.36H251.519C250.693 40.36 250.086 40.5 249.699 40.78C249.326 41.0467 249.139 41.4133 249.139 41.88C249.139 42.3067 249.259 42.64 249.499 42.88C249.753 43.1067 250.093 43.22 250.519 43.22ZM260.558 45H257.798V34.62H260.378L260.518 36.18H260.558C260.838 35.6733 261.231 35.2533 261.738 34.92C262.258 34.5867 262.918 34.42 263.718 34.42C264.451 34.42 265.084 34.5867 265.618 34.92C266.164 35.2533 266.551 35.76 266.778 36.44C267.084 35.8267 267.518 35.34 268.078 34.98C268.651 34.6067 269.344 34.42 270.158 34.42C270.624 34.42 271.058 34.4933 271.458 34.64C271.858 34.7733 272.198 34.98 272.478 35.26C272.771 35.5267 272.998 35.8667 273.158 36.28C273.331 36.6933 273.418 37.18 273.418 37.74V45H270.638V38.1C270.638 37.5933 270.498 37.22 270.218 36.98C269.951 36.74 269.598 36.62 269.158 36.62C268.638 36.62 268.204 36.7533 267.858 37.02C267.511 37.2733 267.224 37.5867 266.998 37.96V45H264.218V38C264.218 37.48 264.084 37.12 263.818 36.92C263.551 36.72 263.204 36.62 262.778 36.62C262.231 36.62 261.784 36.7333 261.438 36.96C261.091 37.1867 260.798 37.4733 260.558 37.82V45ZM278.448 45H275.688V34.62H278.268L278.408 36.18H278.448C278.728 35.6733 279.122 35.2533 279.628 34.92C280.148 34.5867 280.808 34.42 281.608 34.42C282.342 34.42 282.975 34.5867 283.508 34.92C284.055 35.2533 284.442 35.76 284.668 36.44C284.975 35.8267 285.408 35.34 285.968 34.98C286.542 34.6067 287.235 34.42 288.048 34.42C288.515 34.42 288.948 34.4933 289.348 34.64C289.748 34.7733 290.088 34.98 290.368 35.26C290.662 35.5267 290.888 35.8667 291.048 36.28C291.222 36.6933 291.308 37.18 291.308 37.74V45H288.528V38.1C288.528 37.5933 288.388 37.22 288.108 36.98C287.842 36.74 287.488 36.62 287.048 36.62C286.528 36.62 286.095 36.7533 285.748 37.02C285.402 37.2733 285.115 37.5867 284.888 37.96V45H282.108V38C282.108 37.48 281.975 37.12 281.708 36.92C281.442 36.72 281.095 36.62 280.668 36.62C280.122 36.62 279.675 36.7333 279.328 36.96C278.982 37.1867 278.688 37.4733 278.448 37.82V45ZM299.679 45C299.639 44.8 299.599 44.54 299.559 44.22C299.532 43.8867 299.506 43.6 299.479 43.36C299.372 43.5867 299.232 43.8067 299.059 44.02C298.899 44.2333 298.692 44.4333 298.439 44.62C298.186 44.7933 297.886 44.9333 297.539 45.04C297.206 45.1467 296.812 45.2 296.359 45.2C295.919 45.2 295.499 45.14 295.099 45.02C294.712 44.9 294.366 44.7133 294.059 44.46C293.766 44.2067 293.532 43.8933 293.359 43.52C293.186 43.1467 293.099 42.7067 293.099 42.2C293.099 41.0933 293.532 40.24 294.399 39.64C295.266 39.04 296.499 38.74 298.099 38.74H299.379V38.28C299.379 37.64 299.212 37.2067 298.879 36.98C298.559 36.74 298.039 36.62 297.319 36.62C296.599 36.62 295.939 36.7133 295.339 36.9C294.739 37.0867 294.212 37.2933 293.759 37.52V35.32C294.212 35.0933 294.792 34.8867 295.499 34.7C296.206 34.5133 296.979 34.42 297.819 34.42C299.179 34.42 300.239 34.7067 300.999 35.28C301.772 35.8533 302.159 36.7667 302.159 38.02V43.32C302.159 43.44 302.159 43.58 302.159 43.74C302.172 43.8867 302.179 44.04 302.179 44.2C302.192 44.36 302.206 44.5133 302.219 44.66C302.232 44.7933 302.246 44.9067 302.259 45H299.679ZM297.199 43.22C297.652 43.22 298.019 43.1267 298.299 42.94C298.579 42.74 298.799 42.5133 298.959 42.26C299.119 42.0067 299.226 41.76 299.279 41.52C299.346 41.2667 299.379 41.0867 299.379 40.98V40.36H298.199C297.372 40.36 296.766 40.5 296.379 40.78C296.006 41.0467 295.819 41.4133 295.819 41.88C295.819 42.3067 295.939 42.64 296.179 42.88C296.432 43.1067 296.772 43.22 297.199 43.22ZM310.457 44.6C310.191 44.7733 309.864 44.9133 309.477 45.02C309.104 45.14 308.637 45.2 308.077 45.2C307.477 45.2 306.977 45.12 306.577 44.96C306.177 44.7867 305.851 44.56 305.597 44.28C305.357 44 305.184 43.6733 305.077 43.3C304.971 42.9133 304.917 42.5 304.917 42.06V36.8H303.677V34.62H304.917V32.44H307.677V34.62H310.617V36.8H307.677V41.76C307.677 42.1733 307.771 42.48 307.957 42.68C308.144 42.88 308.451 42.98 308.877 42.98C309.237 42.98 309.544 42.9267 309.797 42.82C310.051 42.7 310.271 42.56 310.457 42.4V44.6ZM321.408 44.32C321.248 44.4133 321.061 44.5133 320.848 44.62C320.648 44.7133 320.401 44.8067 320.108 44.9C319.828 44.98 319.494 45.0467 319.108 45.1C318.734 45.1667 318.288 45.2 317.768 45.2C315.741 45.2 314.241 44.7267 313.268 43.78C312.294 42.8333 311.808 41.5067 311.808 39.8C311.808 38.96 311.934 38.2067 312.188 37.54C312.454 36.8733 312.821 36.3133 313.288 35.86C313.754 35.3933 314.308 35.04 314.948 34.8C315.601 34.5467 316.321 34.42 317.108 34.42C317.908 34.42 318.628 34.5533 319.268 34.82C319.908 35.0733 320.434 35.4533 320.848 35.96C321.274 36.4667 321.568 37.1067 321.728 37.88C321.888 38.6533 321.888 39.5467 321.728 40.56H314.688C314.794 41.3733 315.088 41.9867 315.568 42.4C316.061 42.8 316.841 43 317.908 43C318.761 43 319.454 42.9067 319.988 42.72C320.534 42.5333 321.008 42.34 321.408 42.14V44.32ZM317.148 36.48C316.534 36.48 316.021 36.6667 315.608 37.04C315.194 37.4133 314.914 37.9533 314.768 38.66H319.088C319.101 37.9267 318.941 37.38 318.608 37.02C318.274 36.66 317.788 36.48 317.148 36.48Z" fill="black"/>
<path d="M30.851 81H25.092V71.679H26.314V79.895H30.851V81ZM35.0175 81.13C34.5582 81.13 34.1292 81.052 33.7305 80.896C33.3318 80.74 32.9852 80.5147 32.6905 80.22C32.4045 79.9167 32.1792 79.5483 32.0145 79.115C31.8498 78.6817 31.7675 78.1833 31.7675 77.62C31.7675 77.0653 31.8498 76.5713 32.0145 76.138C32.1792 75.696 32.4045 75.3277 32.6905 75.033C32.9852 74.7383 33.3318 74.513 33.7305 74.357C34.1292 74.201 34.5582 74.123 35.0175 74.123C35.4855 74.123 35.9188 74.201 36.3175 74.357C36.7162 74.513 37.0585 74.7383 37.3445 75.033C37.6392 75.3277 37.8688 75.696 38.0335 76.138C38.2068 76.5713 38.2935 77.0653 38.2935 77.62C38.2935 78.1833 38.2068 78.6817 38.0335 79.115C37.8688 79.5483 37.6392 79.9167 37.3445 80.22C37.0585 80.5147 36.7162 80.74 36.3175 80.896C35.9188 81.052 35.4855 81.13 35.0175 81.13ZM35.0175 80.103C35.3208 80.103 35.5982 80.0553 35.8495 79.96C36.1095 79.856 36.3348 79.7043 36.5255 79.505C36.7162 79.297 36.8635 79.037 36.9675 78.725C37.0715 78.413 37.1235 78.0447 37.1235 77.62C37.1235 77.1953 37.0715 76.827 36.9675 76.515C36.8635 76.203 36.7162 75.9473 36.5255 75.748C36.3348 75.54 36.1095 75.3883 35.8495 75.293C35.5982 75.189 35.3208 75.137 35.0175 75.137C34.7142 75.137 34.4368 75.189 34.1855 75.293C33.9342 75.3883 33.7132 75.54 33.5225 75.748C33.3405 75.9473 33.1975 76.203 33.0935 76.515C32.9895 76.827 32.9375 77.1953 32.9375 77.62C32.9375 78.0447 32.9895 78.413 33.0935 78.725C33.1975 79.037 33.3405 79.297 33.5225 79.505C33.7132 79.7043 33.9342 79.856 34.1855 79.96C34.4368 80.0553 34.7142 80.103 35.0175 80.103ZM45.486 80.428C45.486 80.8613 45.421 81.2557 45.291 81.611C45.1696 81.975 44.9703 82.2827 44.693 82.534C44.4243 82.7853 44.0733 82.9803 43.64 83.119C43.2153 83.2577 42.6996 83.327 42.093 83.327C41.7636 83.327 41.4733 83.3097 41.222 83.275C40.9706 83.2403 40.7496 83.1927 40.559 83.132C40.377 83.08 40.221 83.0193 40.091 82.95C39.961 82.8893 39.8526 82.8287 39.766 82.768V81.741C39.9046 81.819 40.0476 81.8883 40.195 81.949C40.351 82.0183 40.52 82.079 40.702 82.131C40.884 82.183 41.0876 82.222 41.313 82.248C41.547 82.2827 41.8113 82.3 42.106 82.3C42.938 82.3 43.5186 82.144 43.848 81.832C44.1773 81.52 44.342 81.0563 44.342 80.441V79.401C44.1426 79.7997 43.861 80.1203 43.497 80.363C43.1416 80.6057 42.6996 80.727 42.171 80.727C41.7723 80.727 41.391 80.6577 41.027 80.519C40.6716 80.3803 40.3553 80.1767 40.078 79.908C39.8093 79.6307 39.5926 79.2883 39.428 78.881C39.272 78.465 39.194 77.984 39.194 77.438C39.194 76.8833 39.272 76.4023 39.428 75.995C39.5926 75.579 39.8093 75.2323 40.078 74.955C40.3553 74.6777 40.676 74.4697 41.04 74.331C41.404 74.1923 41.7896 74.123 42.197 74.123C42.7343 74.123 43.185 74.2443 43.549 74.487C43.9216 74.7297 44.212 75.059 44.42 75.475L44.433 75.332C44.433 75.176 44.4416 74.9897 44.459 74.773C44.4763 74.5477 44.4936 74.3743 44.511 74.253H45.551C45.5336 74.3743 45.5163 74.5477 45.499 74.773C45.4903 74.9983 45.486 75.1847 45.486 75.332V80.428ZM42.379 79.7C42.665 79.7 42.925 79.6567 43.159 79.57C43.4016 79.4747 43.6096 79.3317 43.783 79.141C43.965 78.9503 44.1036 78.7163 44.199 78.439C44.303 78.153 44.355 77.8193 44.355 77.438C44.355 76.6667 44.1643 76.0903 43.783 75.709C43.4103 75.3277 42.938 75.137 42.366 75.137C42.08 75.137 41.8113 75.1847 41.56 75.28C41.3173 75.3753 41.105 75.5183 40.923 75.709C40.7496 75.8997 40.611 76.1423 40.507 76.437C40.403 76.723 40.351 77.0567 40.351 77.438C40.351 77.8193 40.403 78.153 40.507 78.439C40.611 78.7163 40.754 78.9503 40.936 79.141C41.118 79.323 41.3303 79.4617 41.573 79.557C41.8243 79.6523 42.093 79.7 42.379 79.7ZM47.9282 73.265C47.6942 73.265 47.5079 73.1957 47.3692 73.057C47.2306 72.9097 47.1612 72.732 47.1612 72.524C47.1612 72.316 47.2306 72.1383 47.3692 71.991C47.5079 71.8437 47.6942 71.77 47.9282 71.77C48.1536 71.77 48.3312 71.8437 48.4612 71.991C48.5912 72.1383 48.6562 72.316 48.6562 72.524C48.6562 72.732 48.5912 72.9097 48.4612 73.057C48.3312 73.1957 48.1536 73.265 47.9282 73.265ZM48.4872 74.253V81H47.3432V74.253H48.4872ZM53.55 75.137C53.03 75.137 52.6053 75.2583 52.276 75.501C51.9553 75.735 51.6953 76.0383 51.496 76.411V81H50.352V74.253H51.431L51.47 75.462H51.496C51.678 75.072 51.964 74.7513 52.354 74.5C52.744 74.2487 53.238 74.123 53.836 74.123C54.5033 74.123 55.032 74.3007 55.422 74.656C55.8207 75.0027 56.02 75.54 56.02 76.268V81H54.876V76.385C54.876 75.917 54.759 75.592 54.525 75.41C54.291 75.228 53.966 75.137 53.55 75.137ZM64.638 79.713C64.56 79.869 64.4603 80.0337 64.339 80.207C64.2177 80.3717 64.066 80.5233 63.884 80.662C63.702 80.8007 63.4853 80.9133 63.234 81C62.9913 81.0867 62.7053 81.13 62.376 81.13C61.7693 81.13 61.2797 80.961 60.907 80.623C60.5343 80.2763 60.348 79.7823 60.348 79.141C60.348 78.4043 60.6037 77.8627 61.115 77.516C61.635 77.1693 62.3717 76.996 63.325 76.996H64.586V76.437C64.586 75.969 64.4647 75.6353 64.222 75.436C63.9793 75.2367 63.5633 75.137 62.974 75.137C62.558 75.137 62.1637 75.2063 61.791 75.345C61.4183 75.475 61.0847 75.6267 60.79 75.8V74.773C61.0327 74.6257 61.3577 74.4827 61.765 74.344C62.181 74.1967 62.636 74.123 63.13 74.123C63.9793 74.123 64.625 74.3007 65.067 74.656C65.509 75.0027 65.73 75.5443 65.73 76.281V79.908C65.73 79.986 65.73 80.077 65.73 80.181C65.7387 80.2763 65.743 80.376 65.743 80.48C65.7517 80.584 65.7603 80.6837 65.769 80.779C65.7777 80.8657 65.7863 80.9393 65.795 81H64.755C64.729 80.8787 64.703 80.7097 64.677 80.493C64.6597 80.2677 64.651 80.0727 64.651 79.908L64.638 79.713ZM62.623 80.103C62.9783 80.103 63.2817 80.0293 63.533 79.882C63.7843 79.7347 63.988 79.5657 64.144 79.375C64.3 79.1757 64.4127 78.985 64.482 78.803C64.5513 78.6123 64.586 78.478 64.586 78.4V77.906H63.442C62.7573 77.906 62.259 78.0057 61.947 78.205C61.6437 78.3957 61.492 78.686 61.492 79.076C61.492 79.3793 61.583 79.6263 61.765 79.817C61.947 80.0077 62.233 80.103 62.623 80.103ZM70.8308 80.857C70.6921 80.935 70.5144 81 70.2978 81.052C70.0811 81.104 69.8514 81.13 69.6088 81.13C69.2794 81.13 68.9978 81.0823 68.7638 80.987C68.5384 80.8917 68.3521 80.766 68.2048 80.61C68.0574 80.4453 67.9491 80.2633 67.8798 80.064C67.8191 79.856 67.7888 79.6437 67.7888 79.427V75.228H66.9828V74.253H67.7888V72.836H68.9328V74.253H70.8958V75.228H68.9328V79.284C68.9328 79.57 69.0021 79.778 69.1408 79.908C69.2881 80.038 69.5438 80.103 69.9078 80.103C70.2458 80.103 70.5534 80.0077 70.8308 79.817V80.857ZM78.7714 72.81V81H77.5364V72.81H74.6634V71.679H81.6444V72.81H78.7714ZM84.9101 81.13C84.4507 81.13 84.0217 81.052 83.6231 80.896C83.2244 80.74 82.8777 80.5147 82.5831 80.22C82.2971 79.9167 82.0717 79.5483 81.9071 79.115C81.7424 78.6817 81.6601 78.1833 81.6601 77.62C81.6601 77.0653 81.7424 76.5713 81.9071 76.138C82.0717 75.696 82.2971 75.3277 82.5831 75.033C82.8777 74.7383 83.2244 74.513 83.6231 74.357C84.0217 74.201 84.4507 74.123 84.9101 74.123C85.3781 74.123 85.8114 74.201 86.2101 74.357C86.6087 74.513 86.9511 74.7383 87.2371 75.033C87.5317 75.3277 87.7614 75.696 87.9261 76.138C88.0994 76.5713 88.1861 77.0653 88.1861 77.62C88.1861 78.1833 88.0994 78.6817 87.9261 79.115C87.7614 79.5483 87.5317 79.9167 87.2371 80.22C86.9511 80.5147 86.6087 80.74 86.2101 80.896C85.8114 81.052 85.3781 81.13 84.9101 81.13ZM84.9101 80.103C85.2134 80.103 85.4907 80.0553 85.7421 79.96C86.0021 79.856 86.2274 79.7043 86.4181 79.505C86.6087 79.297 86.7561 79.037 86.8601 78.725C86.9641 78.413 87.0161 78.0447 87.0161 77.62C87.0161 77.1953 86.9641 76.827 86.8601 76.515C86.7561 76.203 86.6087 75.9473 86.4181 75.748C86.2274 75.54 86.0021 75.3883 85.7421 75.293C85.4907 75.189 85.2134 75.137 84.9101 75.137C84.6067 75.137 84.3294 75.189 84.0781 75.293C83.8267 75.3883 83.6057 75.54 83.4151 75.748C83.2331 75.9473 83.0901 76.203 82.9861 76.515C82.8821 76.827 82.8301 77.1953 82.8301 77.62C82.8301 78.0447 82.8821 78.413 82.9861 78.725C83.0901 79.037 83.2331 79.297 83.4151 79.505C83.6057 79.7043 83.8267 79.856 84.0781 79.96C84.3294 80.0553 84.6067 80.103 84.9101 80.103ZM90.7245 71.679V81H89.5805V71.679H90.7245ZM95.3583 81.13C94.899 81.13 94.47 81.052 94.0713 80.896C93.6727 80.74 93.326 80.5147 93.0313 80.22C92.7453 79.9167 92.52 79.5483 92.3553 79.115C92.1907 78.6817 92.1083 78.1833 92.1083 77.62C92.1083 77.0653 92.1907 76.5713 92.3553 76.138C92.52 75.696 92.7453 75.3277 93.0313 75.033C93.326 74.7383 93.6727 74.513 94.0713 74.357C94.47 74.201 94.899 74.123 95.3583 74.123C95.8263 74.123 96.2597 74.201 96.6583 74.357C97.057 74.513 97.3993 74.7383 97.6853 75.033C97.98 75.3277 98.2097 75.696 98.3743 76.138C98.5477 76.5713 98.6343 77.0653 98.6343 77.62C98.6343 78.1833 98.5477 78.6817 98.3743 79.115C98.2097 79.5483 97.98 79.9167 97.6853 80.22C97.3993 80.5147 97.057 80.74 96.6583 80.896C96.2597 81.052 95.8263 81.13 95.3583 81.13ZM95.3583 80.103C95.6617 80.103 95.939 80.0553 96.1903 79.96C96.4503 79.856 96.6757 79.7043 96.8663 79.505C97.057 79.297 97.2043 79.037 97.3083 78.725C97.4123 78.413 97.4643 78.0447 97.4643 77.62C97.4643 77.1953 97.4123 76.827 97.3083 76.515C97.2043 76.203 97.057 75.9473 96.8663 75.748C96.6757 75.54 96.4503 75.3883 96.1903 75.293C95.939 75.189 95.6617 75.137 95.3583 75.137C95.055 75.137 94.7777 75.189 94.5263 75.293C94.275 75.3883 94.054 75.54 93.8633 75.748C93.6813 75.9473 93.5383 76.203 93.4343 76.515C93.3303 76.827 93.2783 77.1953 93.2783 77.62C93.2783 78.0447 93.3303 78.413 93.4343 78.725C93.5383 79.037 93.6813 79.297 93.8633 79.505C94.054 79.7043 94.275 79.856 94.5263 79.96C94.7777 80.0553 95.055 80.103 95.3583 80.103ZM101.771 78.127H101.173V81H100.029V71.679H101.173V77.152H101.823L104.189 74.253H105.489L102.72 77.581L105.541 81H104.15L101.771 78.127ZM110.303 79.713C110.225 79.869 110.125 80.0337 110.004 80.207C109.883 80.3717 109.731 80.5233 109.549 80.662C109.367 80.8007 109.15 80.9133 108.899 81C108.656 81.0867 108.37 81.13 108.041 81.13C107.434 81.13 106.945 80.961 106.572 80.623C106.199 80.2763 106.013 79.7823 106.013 79.141C106.013 78.4043 106.269 77.8627 106.78 77.516C107.3 77.1693 108.037 76.996 108.99 76.996H110.251V76.437C110.251 75.969 110.13 75.6353 109.887 75.436C109.644 75.2367 109.228 75.137 108.639 75.137C108.223 75.137 107.829 75.2063 107.456 75.345C107.083 75.475 106.75 75.6267 106.455 75.8V74.773C106.698 74.6257 107.023 74.4827 107.43 74.344C107.846 74.1967 108.301 74.123 108.795 74.123C109.644 74.123 110.29 74.3007 110.732 74.656C111.174 75.0027 111.395 75.5443 111.395 76.281V79.908C111.395 79.986 111.395 80.077 111.395 80.181C111.404 80.2763 111.408 80.376 111.408 80.48C111.417 80.584 111.425 80.6837 111.434 80.779C111.443 80.8657 111.451 80.9393 111.46 81H110.42C110.394 80.8787 110.368 80.7097 110.342 80.493C110.325 80.2677 110.316 80.0727 110.316 79.908L110.303 79.713ZM108.288 80.103C108.643 80.103 108.947 80.0293 109.198 79.882C109.449 79.7347 109.653 79.5657 109.809 79.375C109.965 79.1757 110.078 78.985 110.147 78.803C110.216 78.6123 110.251 78.478 110.251 78.4V77.906H109.107C108.422 77.906 107.924 78.0057 107.612 78.205C107.309 78.3957 107.157 78.686 107.157 79.076C107.157 79.3793 107.248 79.6263 107.43 79.817C107.612 80.0077 107.898 80.103 108.288 80.103Z" fill="black"/>
<rect x="24.5" y="90.5" width="236" height="31" rx="3.5" stroke="#B8BEC3"/>
<path d="M241.936 106L237.694 101.755L238.754 100.695L242.997 104.937L247.24 100.697L248.3 101.757L244.062 105.999L248.305 110.242L247.245 111.302L242.997 107.064L238.754 111.302L237.694 110.242L241.936 106Z" fill="#7F8285"/>
<path d="M282.092 100.679H287.786V101.797H283.314V104.891H287.11V105.996H283.314V110H282.092V100.679ZM293.463 108.791C293.281 109.172 293 109.493 292.618 109.753C292.246 110.004 291.756 110.13 291.149 110.13C290.525 110.13 290.018 109.957 289.628 109.61C289.247 109.255 289.056 108.709 289.056 107.972V103.253H290.213V107.972C290.213 108.197 290.244 108.384 290.304 108.531C290.374 108.67 290.465 108.782 290.577 108.869C290.69 108.956 290.82 109.016 290.967 109.051C291.123 109.086 291.292 109.103 291.474 109.103C291.977 109.103 292.38 108.99 292.683 108.765C292.987 108.54 293.247 108.232 293.463 107.842V103.253H294.607V110H293.593L293.489 108.791H293.463ZM297.629 100.679V110H296.485V100.679H297.629ZM300.638 100.679V110H299.494V100.679H300.638ZM309.311 108.713C309.233 108.869 309.133 109.034 309.012 109.207C308.891 109.372 308.739 109.523 308.557 109.662C308.375 109.801 308.158 109.913 307.907 110C307.664 110.087 307.378 110.13 307.049 110.13C306.442 110.13 305.953 109.961 305.58 109.623C305.207 109.276 305.021 108.782 305.021 108.141C305.021 107.404 305.277 106.863 305.788 106.516C306.308 106.169 307.045 105.996 307.998 105.996H309.259V105.437C309.259 104.969 309.138 104.635 308.895 104.436C308.652 104.237 308.236 104.137 307.647 104.137C307.231 104.137 306.837 104.206 306.464 104.345C306.091 104.475 305.758 104.627 305.463 104.8V103.773C305.706 103.626 306.031 103.483 306.438 103.344C306.854 103.197 307.309 103.123 307.803 103.123C308.652 103.123 309.298 103.301 309.74 103.656C310.182 104.003 310.403 104.544 310.403 105.281V108.908C310.403 108.986 310.403 109.077 310.403 109.181C310.412 109.276 310.416 109.376 310.416 109.48C310.425 109.584 310.433 109.684 310.442 109.779C310.451 109.866 310.459 109.939 310.468 110H309.428C309.402 109.879 309.376 109.71 309.35 109.493C309.333 109.268 309.324 109.073 309.324 108.908L309.311 108.713ZM307.296 109.103C307.651 109.103 307.955 109.029 308.206 108.882C308.457 108.735 308.661 108.566 308.817 108.375C308.973 108.176 309.086 107.985 309.155 107.803C309.224 107.612 309.259 107.478 309.259 107.4V106.906H308.115C307.43 106.906 306.932 107.006 306.62 107.205C306.317 107.396 306.165 107.686 306.165 108.076C306.165 108.379 306.256 108.626 306.438 108.817C306.62 109.008 306.906 109.103 307.296 109.103ZM315.114 110.13C314.594 110.13 314.121 110.052 313.697 109.896C313.281 109.731 312.925 109.502 312.631 109.207C312.336 108.904 312.111 108.535 311.955 108.102C311.799 107.669 311.721 107.175 311.721 106.62C311.721 106.074 311.799 105.584 311.955 105.151C312.119 104.718 312.349 104.354 312.644 104.059C312.938 103.756 313.298 103.526 313.723 103.37C314.147 103.205 314.628 103.123 315.166 103.123C315.582 103.123 315.963 103.171 316.31 103.266C316.656 103.353 316.942 103.483 317.168 103.656V104.683C316.89 104.501 316.578 104.367 316.232 104.28C315.894 104.185 315.543 104.137 315.179 104.137C314.39 104.137 313.809 104.341 313.437 104.748C313.073 105.155 312.891 105.779 312.891 106.62C312.891 107.461 313.068 108.085 313.424 108.492C313.779 108.899 314.342 109.103 315.114 109.103C315.521 109.103 315.894 109.055 316.232 108.96C316.578 108.856 316.89 108.726 317.168 108.57V109.597C316.925 109.744 316.63 109.87 316.284 109.974C315.946 110.078 315.556 110.13 315.114 110.13ZM321.474 110.13C320.954 110.13 320.482 110.052 320.057 109.896C319.641 109.731 319.286 109.502 318.991 109.207C318.696 108.904 318.471 108.535 318.315 108.102C318.159 107.669 318.081 107.175 318.081 106.62C318.081 106.074 318.159 105.584 318.315 105.151C318.48 104.718 318.709 104.354 319.004 104.059C319.299 103.756 319.658 103.526 320.083 103.37C320.508 103.205 320.989 103.123 321.526 103.123C321.942 103.123 322.323 103.171 322.67 103.266C323.017 103.353 323.303 103.483 323.528 103.656V104.683C323.251 104.501 322.939 104.367 322.592 104.28C322.254 104.185 321.903 104.137 321.539 104.137C320.75 104.137 320.17 104.341 319.797 104.748C319.433 105.155 319.251 105.779 319.251 106.62C319.251 107.461 319.429 108.085 319.784 108.492C320.139 108.899 320.703 109.103 321.474 109.103C321.881 109.103 322.254 109.055 322.592 108.96C322.939 108.856 323.251 108.726 323.528 108.57V109.597C323.285 109.744 322.991 109.87 322.644 109.974C322.306 110.078 321.916 110.13 321.474 110.13ZM330.291 109.428C330.196 109.497 330.079 109.571 329.94 109.649C329.802 109.727 329.633 109.805 329.433 109.883C329.234 109.952 329.009 110.009 328.757 110.052C328.506 110.104 328.224 110.13 327.912 110.13C326.777 110.13 325.915 109.822 325.325 109.207C324.736 108.592 324.441 107.729 324.441 106.62C324.441 106.074 324.519 105.584 324.675 105.151C324.84 104.718 325.065 104.354 325.351 104.059C325.637 103.756 325.975 103.526 326.365 103.37C326.755 103.205 327.18 103.123 327.639 103.123C328.125 103.123 328.558 103.205 328.939 103.37C329.321 103.535 329.633 103.777 329.875 104.098C330.127 104.419 330.296 104.817 330.382 105.294C330.478 105.762 330.478 106.308 330.382 106.932H325.624C325.668 107.66 325.884 108.206 326.274 108.57C326.664 108.925 327.245 109.103 328.016 109.103C328.536 109.103 328.983 109.029 329.355 108.882C329.728 108.735 330.04 108.574 330.291 108.401V109.428ZM327.613 104.137C327.119 104.137 326.695 104.289 326.339 104.592C325.984 104.895 325.759 105.355 325.663 105.97H329.29C329.325 105.346 329.182 104.887 328.861 104.592C328.541 104.289 328.125 104.137 327.613 104.137ZM333.974 110.13C333.619 110.13 333.302 110.1 333.025 110.039C332.756 109.987 332.518 109.922 332.31 109.844C332.111 109.757 331.942 109.671 331.803 109.584C331.664 109.489 331.556 109.406 331.478 109.337V108.31C331.565 108.397 331.682 108.492 331.829 108.596C331.976 108.691 332.154 108.782 332.362 108.869C332.57 108.956 332.804 109.029 333.064 109.09C333.333 109.142 333.632 109.168 333.961 109.168C334.446 109.168 334.832 109.09 335.118 108.934C335.404 108.778 335.547 108.514 335.547 108.141C335.547 107.942 335.499 107.781 335.404 107.66C335.317 107.539 335.196 107.443 335.04 107.374C334.884 107.296 334.702 107.235 334.494 107.192C334.295 107.149 334.082 107.105 333.857 107.062C333.571 107.001 333.289 106.936 333.012 106.867C332.735 106.789 332.483 106.681 332.258 106.542C332.033 106.395 331.851 106.208 331.712 105.983C331.573 105.749 331.504 105.446 331.504 105.073C331.504 104.466 331.738 103.99 332.206 103.643C332.683 103.296 333.346 103.123 334.195 103.123C334.672 103.123 335.092 103.171 335.456 103.266C335.829 103.361 336.115 103.465 336.314 103.578V104.605C336.089 104.458 335.807 104.336 335.469 104.241C335.14 104.137 334.728 104.085 334.234 104.085C333.723 104.085 333.328 104.154 333.051 104.293C332.782 104.432 332.648 104.683 332.648 105.047C332.648 105.229 332.687 105.376 332.765 105.489C332.843 105.593 332.947 105.68 333.077 105.749C333.216 105.81 333.372 105.857 333.545 105.892C333.718 105.927 333.9 105.966 334.091 106.009C334.386 106.07 334.689 106.135 335.001 106.204C335.313 106.273 335.59 106.382 335.833 106.529C336.084 106.676 336.288 106.876 336.444 107.127C336.609 107.37 336.691 107.699 336.691 108.115C336.691 108.505 336.613 108.83 336.457 109.09C336.301 109.35 336.093 109.558 335.833 109.714C335.582 109.861 335.291 109.965 334.962 110.026C334.641 110.095 334.312 110.13 333.974 110.13ZM340.258 110.13C339.903 110.13 339.586 110.1 339.309 110.039C339.04 109.987 338.802 109.922 338.594 109.844C338.395 109.757 338.226 109.671 338.087 109.584C337.948 109.489 337.84 109.406 337.762 109.337V108.31C337.849 108.397 337.966 108.492 338.113 108.596C338.26 108.691 338.438 108.782 338.646 108.869C338.854 108.956 339.088 109.029 339.348 109.09C339.617 109.142 339.916 109.168 340.245 109.168C340.73 109.168 341.116 109.09 341.402 108.934C341.688 108.778 341.831 108.514 341.831 108.141C341.831 107.942 341.783 107.781 341.688 107.66C341.601 107.539 341.48 107.443 341.324 107.374C341.168 107.296 340.986 107.235 340.778 107.192C340.579 107.149 340.366 107.105 340.141 107.062C339.855 107.001 339.573 106.936 339.296 106.867C339.019 106.789 338.767 106.681 338.542 106.542C338.317 106.395 338.135 106.208 337.996 105.983C337.857 105.749 337.788 105.446 337.788 105.073C337.788 104.466 338.022 103.99 338.49 103.643C338.967 103.296 339.63 103.123 340.479 103.123C340.956 103.123 341.376 103.171 341.74 103.266C342.113 103.361 342.399 103.465 342.598 103.578V104.605C342.373 104.458 342.091 104.336 341.753 104.241C341.424 104.137 341.012 104.085 340.518 104.085C340.007 104.085 339.612 104.154 339.335 104.293C339.066 104.432 338.932 104.683 338.932 105.047C338.932 105.229 338.971 105.376 339.049 105.489C339.127 105.593 339.231 105.68 339.361 105.749C339.5 105.81 339.656 105.857 339.829 105.892C340.002 105.927 340.184 105.966 340.375 106.009C340.67 106.07 340.973 106.135 341.285 106.204C341.597 106.273 341.874 106.382 342.117 106.529C342.368 106.676 342.572 106.876 342.728 107.127C342.893 107.37 342.975 107.699 342.975 108.115C342.975 108.505 342.897 108.83 342.741 109.09C342.585 109.35 342.377 109.558 342.117 109.714C341.866 109.861 341.575 109.965 341.246 110.026C340.925 110.095 340.596 110.13 340.258 110.13Z" fill="black"/>
<path fill-rule="evenodd" clip-rule="evenodd" d="M393 104L398 109L403 104H393Z" fill="black"/>
<rect x="269.5" y="90.5" width="146" height="31" rx="3.5" stroke="#B8BEC3"/>
<path d="M251.725 166.13C251.005 166.13 250.355 166.022 249.775 165.805C249.194 165.588 248.696 165.276 248.28 164.869C247.872 164.453 247.556 163.95 247.331 163.361C247.114 162.763 247.006 162.091 247.006 161.346C247.006 160.592 247.11 159.92 247.318 159.331C247.534 158.742 247.842 158.243 248.241 157.836C248.648 157.42 249.142 157.104 249.723 156.887C250.303 156.67 250.966 156.562 251.712 156.562C252.353 156.562 252.899 156.627 253.35 156.757C253.809 156.878 254.173 157.021 254.442 157.186V158.59C254.104 158.373 253.696 158.209 253.22 158.096C252.752 157.975 252.266 157.914 251.764 157.914C250.715 157.914 249.935 158.2 249.424 158.772C248.921 159.335 248.67 160.193 248.67 161.346C248.67 163.634 249.727 164.778 251.842 164.778C252.336 164.778 252.799 164.717 253.233 164.596C253.675 164.475 254.078 164.284 254.442 164.024V165.415C254.199 165.597 253.848 165.762 253.389 165.909C252.929 166.056 252.375 166.13 251.725 166.13ZM259.813 164.817C259.743 164.973 259.648 165.129 259.527 165.285C259.414 165.441 259.271 165.584 259.098 165.714C258.933 165.835 258.734 165.935 258.5 166.013C258.266 166.091 257.993 166.13 257.681 166.13C257.386 166.13 257.113 166.087 256.862 166C256.61 165.922 256.389 165.801 256.199 165.636C256.017 165.471 255.869 165.268 255.757 165.025C255.653 164.774 255.601 164.488 255.601 164.167C255.601 163.43 255.874 162.88 256.42 162.516C256.966 162.143 257.737 161.957 258.734 161.957H259.761V161.541C259.761 161.099 259.648 160.796 259.423 160.631C259.197 160.458 258.825 160.371 258.305 160.371C257.863 160.371 257.447 160.436 257.057 160.566C256.675 160.687 256.337 160.83 256.043 160.995V159.734C256.311 159.587 256.667 159.448 257.109 159.318C257.551 159.188 258.032 159.123 258.552 159.123C259.418 159.123 260.086 159.305 260.554 159.669C261.03 160.024 261.269 160.596 261.269 161.385V164.908C261.269 164.986 261.269 165.077 261.269 165.181C261.277 165.276 261.282 165.376 261.282 165.48C261.29 165.584 261.299 165.684 261.308 165.779C261.316 165.866 261.325 165.939 261.334 166H259.943C259.917 165.879 259.891 165.71 259.865 165.493C259.847 165.276 259.834 165.081 259.826 164.908L259.813 164.817ZM258.097 164.96C258.417 164.96 258.682 164.895 258.89 164.765C259.106 164.626 259.28 164.47 259.41 164.297C259.54 164.115 259.631 163.937 259.683 163.764C259.735 163.591 259.761 163.469 259.761 163.4V162.945H258.825C258.227 162.945 257.789 163.04 257.512 163.231C257.234 163.413 257.096 163.673 257.096 164.011C257.096 164.306 257.178 164.54 257.343 164.713C257.516 164.878 257.767 164.96 258.097 164.96ZM266.197 160.371C265.755 160.371 265.391 160.466 265.105 160.657C264.819 160.839 264.585 161.077 264.403 161.372V166H262.895V159.253H264.325L264.377 160.358H264.403C264.585 160.003 264.858 159.708 265.222 159.474C265.595 159.24 266.067 159.123 266.639 159.123C267.298 159.123 267.835 159.301 268.251 159.656C268.676 160.011 268.888 160.553 268.888 161.281V166H267.367V161.437C267.367 161.047 267.263 160.774 267.055 160.618C266.847 160.453 266.561 160.371 266.197 160.371ZM273.607 166.13C273.061 166.13 272.571 166.052 272.138 165.896C271.704 165.731 271.336 165.502 271.033 165.207C270.729 164.904 270.495 164.535 270.331 164.102C270.166 163.669 270.084 163.175 270.084 162.62C270.084 162.074 270.166 161.584 270.331 161.151C270.495 160.718 270.729 160.354 271.033 160.059C271.336 159.756 271.709 159.526 272.151 159.37C272.593 159.205 273.087 159.123 273.633 159.123C274.101 159.123 274.508 159.175 274.855 159.279C275.21 159.383 275.492 159.513 275.7 159.669V160.917C275.431 160.744 275.136 160.609 274.816 160.514C274.504 160.419 274.14 160.371 273.724 160.371C272.328 160.371 271.631 161.121 271.631 162.62C271.631 164.119 272.315 164.869 273.685 164.869C274.127 164.869 274.504 164.821 274.816 164.726C275.136 164.622 275.431 164.492 275.7 164.336V165.584C275.474 165.731 275.193 165.861 274.855 165.974C274.517 166.078 274.101 166.13 273.607 166.13ZM282.642 165.506C282.546 165.567 282.429 165.636 282.291 165.714C282.152 165.783 281.987 165.848 281.797 165.909C281.606 165.97 281.385 166.022 281.134 166.065C280.882 166.108 280.596 166.13 280.276 166.13C279.036 166.13 278.109 165.822 277.494 165.207C276.887 164.592 276.584 163.729 276.584 162.62C276.584 162.074 276.666 161.584 276.831 161.151C276.995 160.718 277.225 160.354 277.52 160.059C277.814 159.756 278.165 159.526 278.573 159.37C278.98 159.205 279.426 159.123 279.912 159.123C280.414 159.123 280.865 159.205 281.264 159.37C281.671 159.535 282.005 159.782 282.265 160.111C282.525 160.44 282.702 160.848 282.798 161.333C282.902 161.818 282.906 162.386 282.811 163.036H278.144C278.204 163.651 278.408 164.115 278.755 164.427C279.101 164.73 279.643 164.882 280.38 164.882C280.917 164.882 281.363 164.817 281.719 164.687C282.083 164.548 282.39 164.405 282.642 164.258V165.506ZM279.912 160.319C279.47 160.319 279.097 160.453 278.794 160.722C278.49 160.991 278.291 161.389 278.196 161.918H281.368C281.385 161.372 281.264 160.969 281.004 160.709C280.744 160.449 280.38 160.319 279.912 160.319ZM285.655 156.679V166H284.147V156.679H285.655Z" fill="black"/>
<rect x="234.5" y="146.5" width="64" height="31" rx="3.5" stroke="#B8BEC3"/>
<rect x="315" y="146" width="101" height="32" rx="4" fill="#2C3C4F"/>
<path d="M336.349 162.308C336.349 162.854 336.266 163.361 336.102 163.829C335.937 164.288 335.686 164.691 335.348 165.038C335.01 165.376 334.585 165.645 334.074 165.844C333.571 166.035 332.977 166.13 332.293 166.13C331.617 166.13 331.001 166.017 330.447 165.792C329.892 165.567 329.415 165.246 329.017 164.83C328.618 164.414 328.31 163.911 328.094 163.322C327.877 162.733 327.769 162.074 327.769 161.346C327.769 160.618 327.873 159.959 328.081 159.37C328.297 158.781 328.609 158.278 329.017 157.862C329.433 157.446 329.944 157.125 330.551 156.9C331.166 156.675 331.872 156.562 332.67 156.562C333.068 156.562 333.419 156.588 333.723 156.64C334.035 156.683 334.312 156.744 334.555 156.822C334.797 156.891 335.01 156.974 335.192 157.069C335.374 157.164 335.538 157.255 335.686 157.342V158.746C335.287 158.512 334.849 158.317 334.373 158.161C333.905 157.996 333.346 157.914 332.696 157.914C331.56 157.914 330.733 158.217 330.213 158.824C329.693 159.422 329.433 160.263 329.433 161.346C329.433 162.438 329.68 163.283 330.174 163.881C330.676 164.479 331.387 164.778 332.306 164.778C332.739 164.778 333.112 164.722 333.424 164.609C333.736 164.488 333.987 164.327 334.178 164.128C334.377 163.92 334.52 163.677 334.607 163.4C334.702 163.114 334.75 162.802 334.75 162.464V162.386H332.02V161.034H336.349V162.308ZM341.512 160.709C341.018 160.7 340.572 160.778 340.173 160.943C339.774 161.108 339.471 161.368 339.263 161.723V166H337.755V159.253H339.133L339.237 160.657H339.263C339.48 160.241 339.774 159.894 340.147 159.617C340.528 159.34 340.983 159.175 341.512 159.123V160.709ZM346.504 164.817C346.435 164.973 346.34 165.129 346.218 165.285C346.106 165.441 345.963 165.584 345.789 165.714C345.625 165.835 345.425 165.935 345.191 166.013C344.957 166.091 344.684 166.13 344.372 166.13C344.078 166.13 343.805 166.087 343.553 166C343.302 165.922 343.081 165.801 342.89 165.636C342.708 165.471 342.561 165.268 342.448 165.025C342.344 164.774 342.292 164.488 342.292 164.167C342.292 163.43 342.565 162.88 343.111 162.516C343.657 162.143 344.429 161.957 345.425 161.957H346.452V161.541C346.452 161.099 346.34 160.796 346.114 160.631C345.889 160.458 345.516 160.371 344.996 160.371C344.554 160.371 344.138 160.436 343.748 160.566C343.367 160.687 343.029 160.83 342.734 160.995V159.734C343.003 159.587 343.358 159.448 343.8 159.318C344.242 159.188 344.723 159.123 345.243 159.123C346.11 159.123 346.777 159.305 347.245 159.669C347.722 160.024 347.96 160.596 347.96 161.385V164.908C347.96 164.986 347.96 165.077 347.96 165.181C347.969 165.276 347.973 165.376 347.973 165.48C347.982 165.584 347.991 165.684 347.999 165.779C348.008 165.866 348.017 165.939 348.025 166H346.634C346.608 165.879 346.582 165.71 346.556 165.493C346.539 165.276 346.526 165.081 346.517 164.908L346.504 164.817ZM344.788 164.96C345.109 164.96 345.373 164.895 345.581 164.765C345.798 164.626 345.971 164.47 346.101 164.297C346.231 164.115 346.322 163.937 346.374 163.764C346.426 163.591 346.452 163.469 346.452 163.4V162.945H345.516C344.918 162.945 344.481 163.04 344.203 163.231C343.926 163.413 343.787 163.673 343.787 164.011C343.787 164.306 343.87 164.54 344.034 164.713C344.208 164.878 344.459 164.96 344.788 164.96ZM352.889 160.371C352.447 160.371 352.083 160.466 351.797 160.657C351.511 160.839 351.277 161.077 351.095 161.372V166H349.587V159.253H351.017L351.069 160.358H351.095C351.277 160.003 351.55 159.708 351.914 159.474C352.287 159.24 352.759 159.123 353.331 159.123C353.99 159.123 354.527 159.301 354.943 159.656C355.368 160.011 355.58 160.553 355.58 161.281V166H354.059V161.437C354.059 161.047 353.955 160.774 353.747 160.618C353.539 160.453 353.253 160.371 352.889 160.371ZM360.819 165.792C360.663 165.887 360.468 165.965 360.234 166.026C360 166.095 359.731 166.13 359.428 166.13C359.064 166.13 358.756 166.082 358.505 165.987C358.262 165.883 358.063 165.744 357.907 165.571C357.751 165.398 357.638 165.198 357.569 164.973C357.499 164.739 357.465 164.492 357.465 164.232V160.475H356.659V159.253H357.465V157.836H358.973V159.253H360.91V160.475H358.973V164.063C358.973 164.34 359.038 164.544 359.168 164.674C359.306 164.804 359.532 164.869 359.844 164.869C360.052 164.869 360.234 164.839 360.39 164.778C360.546 164.717 360.689 164.635 360.819 164.531V165.792ZM368.962 164.817C368.893 164.973 368.798 165.129 368.676 165.285C368.564 165.441 368.421 165.584 368.247 165.714C368.083 165.835 367.883 165.935 367.649 166.013C367.415 166.091 367.142 166.13 366.83 166.13C366.536 166.13 366.263 166.087 366.011 166C365.76 165.922 365.539 165.801 365.348 165.636C365.166 165.471 365.019 165.268 364.906 165.025C364.802 164.774 364.75 164.488 364.75 164.167C364.75 163.43 365.023 162.88 365.569 162.516C366.115 162.143 366.887 161.957 367.883 161.957H368.91V161.541C368.91 161.099 368.798 160.796 368.572 160.631C368.347 160.458 367.974 160.371 367.454 160.371C367.012 160.371 366.596 160.436 366.206 160.566C365.825 160.687 365.487 160.83 365.192 160.995V159.734C365.461 159.587 365.816 159.448 366.258 159.318C366.7 159.188 367.181 159.123 367.701 159.123C368.568 159.123 369.235 159.305 369.703 159.669C370.18 160.024 370.418 160.596 370.418 161.385V164.908C370.418 164.986 370.418 165.077 370.418 165.181C370.427 165.276 370.431 165.376 370.431 165.48C370.44 165.584 370.449 165.684 370.457 165.779C370.466 165.866 370.475 165.939 370.483 166H369.092C369.066 165.879 369.04 165.71 369.014 165.493C368.997 165.276 368.984 165.081 368.975 164.908L368.962 164.817ZM367.246 164.96C367.567 164.96 367.831 164.895 368.039 164.765C368.256 164.626 368.429 164.47 368.559 164.297C368.689 164.115 368.78 163.937 368.832 163.764C368.884 163.591 368.91 163.469 368.91 163.4V162.945H367.974C367.376 162.945 366.939 163.04 366.661 163.231C366.384 163.413 366.245 163.673 366.245 164.011C366.245 164.306 366.328 164.54 366.492 164.713C366.666 164.878 366.917 164.96 367.246 164.96ZM375.152 166.13C374.606 166.13 374.117 166.052 373.683 165.896C373.25 165.731 372.882 165.502 372.578 165.207C372.275 164.904 372.041 164.535 371.876 164.102C371.712 163.669 371.629 163.175 371.629 162.62C371.629 162.074 371.712 161.584 371.876 161.151C372.041 160.718 372.275 160.354 372.578 160.059C372.882 159.756 373.254 159.526 373.696 159.37C374.138 159.205 374.632 159.123 375.178 159.123C375.646 159.123 376.054 159.175 376.4 159.279C376.756 159.383 377.037 159.513 377.245 159.669V160.917C376.977 160.744 376.682 160.609 376.361 160.514C376.049 160.419 375.685 160.371 375.269 160.371C373.874 160.371 373.176 161.121 373.176 162.62C373.176 164.119 373.861 164.869 375.23 164.869C375.672 164.869 376.049 164.821 376.361 164.726C376.682 164.622 376.977 164.492 377.245 164.336V165.584C377.02 165.731 376.738 165.861 376.4 165.974C376.062 166.078 375.646 166.13 375.152 166.13ZM381.652 166.13C381.106 166.13 380.617 166.052 380.183 165.896C379.75 165.731 379.382 165.502 379.078 165.207C378.775 164.904 378.541 164.535 378.376 164.102C378.212 163.669 378.129 163.175 378.129 162.62C378.129 162.074 378.212 161.584 378.376 161.151C378.541 160.718 378.775 160.354 379.078 160.059C379.382 159.756 379.754 159.526 380.196 159.37C380.638 159.205 381.132 159.123 381.678 159.123C382.146 159.123 382.554 159.175 382.9 159.279C383.256 159.383 383.537 159.513 383.745 159.669V160.917C383.477 160.744 383.182 160.609 382.861 160.514C382.549 160.419 382.185 160.371 381.769 160.371C380.374 160.371 379.676 161.121 379.676 162.62C379.676 164.119 380.361 164.869 381.73 164.869C382.172 164.869 382.549 164.821 382.861 164.726C383.182 164.622 383.477 164.492 383.745 164.336V165.584C383.52 165.731 383.238 165.861 382.9 165.974C382.562 166.078 382.146 166.13 381.652 166.13ZM390.687 165.506C390.592 165.567 390.475 165.636 390.336 165.714C390.198 165.783 390.033 165.848 389.842 165.909C389.652 165.97 389.431 166.022 389.179 166.065C388.928 166.108 388.642 166.13 388.321 166.13C387.082 166.13 386.155 165.822 385.539 165.207C384.933 164.592 384.629 163.729 384.629 162.62C384.629 162.074 384.712 161.584 384.876 161.151C385.041 160.718 385.271 160.354 385.565 160.059C385.86 159.756 386.211 159.526 386.618 159.37C387.026 159.205 387.472 159.123 387.957 159.123C388.46 159.123 388.911 159.205 389.309 159.37C389.717 159.535 390.05 159.782 390.31 160.111C390.57 160.44 390.748 160.848 390.843 161.333C390.947 161.818 390.952 162.386 390.856 163.036H386.189C386.25 163.651 386.454 164.115 386.8 164.427C387.147 164.73 387.689 164.882 388.425 164.882C388.963 164.882 389.409 164.817 389.764 164.687C390.128 164.548 390.436 164.405 390.687 164.258V165.506ZM387.957 160.319C387.515 160.319 387.143 160.453 386.839 160.722C386.536 160.991 386.337 161.389 386.241 161.918H389.413C389.431 161.372 389.309 160.969 389.049 160.709C388.789 160.449 388.425 160.319 387.957 160.319ZM394.416 166.13C394.078 166.13 393.77 166.1 393.493 166.039C393.224 165.987 392.986 165.922 392.778 165.844C392.57 165.766 392.392 165.684 392.245 165.597C392.106 165.51 391.993 165.432 391.907 165.363V164.167C391.993 164.245 392.11 164.332 392.258 164.427C392.414 164.514 392.591 164.6 392.791 164.687C392.999 164.765 393.233 164.83 393.493 164.882C393.753 164.934 394.043 164.96 394.364 164.96C394.84 164.96 395.187 164.891 395.404 164.752C395.629 164.605 395.742 164.392 395.742 164.115C395.742 163.933 395.698 163.79 395.612 163.686C395.525 163.582 395.408 163.5 395.261 163.439C395.113 163.378 394.94 163.335 394.741 163.309C394.55 163.274 394.351 163.235 394.143 163.192C393.874 163.14 393.605 163.075 393.337 162.997C393.077 162.91 392.838 162.793 392.622 162.646C392.414 162.499 392.24 162.308 392.102 162.074C391.972 161.84 391.907 161.541 391.907 161.177C391.907 160.536 392.145 160.033 392.622 159.669C393.098 159.305 393.779 159.123 394.663 159.123C395.165 159.123 395.599 159.175 395.963 159.279C396.335 159.383 396.608 159.491 396.782 159.604V160.8C396.574 160.661 396.305 160.54 395.976 160.436C395.646 160.332 395.23 160.28 394.728 160.28C394.234 160.28 393.874 160.345 393.649 160.475C393.423 160.605 393.311 160.809 393.311 161.086C393.311 161.242 393.35 161.368 393.428 161.463C393.514 161.55 393.623 161.619 393.753 161.671C393.891 161.723 394.047 161.766 394.221 161.801C394.403 161.827 394.589 161.857 394.78 161.892C395.048 161.944 395.321 162.009 395.599 162.087C395.885 162.156 396.14 162.269 396.366 162.425C396.6 162.572 396.79 162.772 396.938 163.023C397.085 163.274 397.159 163.599 397.159 163.998C397.159 164.405 397.081 164.748 396.925 165.025C396.769 165.294 396.561 165.51 396.301 165.675C396.041 165.84 395.746 165.957 395.417 166.026C395.087 166.095 394.754 166.13 394.416 166.13ZM400.586 166.13C400.248 166.13 399.94 166.1 399.663 166.039C399.394 165.987 399.156 165.922 398.948 165.844C398.74 165.766 398.562 165.684 398.415 165.597C398.276 165.51 398.163 165.432 398.077 165.363V164.167C398.163 164.245 398.28 164.332 398.428 164.427C398.584 164.514 398.761 164.6 398.961 164.687C399.169 164.765 399.403 164.83 399.663 164.882C399.923 164.934 400.213 164.96 400.534 164.96C401.01 164.96 401.357 164.891 401.574 164.752C401.799 164.605 401.912 164.392 401.912 164.115C401.912 163.933 401.868 163.79 401.782 163.686C401.695 163.582 401.578 163.5 401.431 163.439C401.283 163.378 401.11 163.335 400.911 163.309C400.72 163.274 400.521 163.235 400.313 163.192C400.044 163.14 399.775 163.075 399.507 162.997C399.247 162.91 399.008 162.793 398.792 162.646C398.584 162.499 398.41 162.308 398.272 162.074C398.142 161.84 398.077 161.541 398.077 161.177C398.077 160.536 398.315 160.033 398.792 159.669C399.268 159.305 399.949 159.123 400.833 159.123C401.335 159.123 401.769 159.175 402.133 159.279C402.505 159.383 402.778 159.491 402.952 159.604V160.8C402.744 160.661 402.475 160.54 402.146 160.436C401.816 160.332 401.4 160.28 400.898 160.28C400.404 160.28 400.044 160.345 399.819 160.475C399.593 160.605 399.481 160.809 399.481 161.086C399.481 161.242 399.52 161.368 399.598 161.463C399.684 161.55 399.793 161.619 399.923 161.671C400.061 161.723 400.217 161.766 400.391 161.801C400.573 161.827 400.759 161.857 400.95 161.892C401.218 161.944 401.491 162.009 401.769 162.087C402.055 162.156 402.31 162.269 402.536 162.425C402.77 162.572 402.96 162.772 403.108 163.023C403.255 163.274 403.329 163.599 403.329 163.998C403.329 164.405 403.251 164.748 403.095 165.025C402.939 165.294 402.731 165.51 402.471 165.675C402.211 165.84 401.916 165.957 401.587 166.026C401.257 166.095 400.924 166.13 400.586 166.13Z" fill="white"/>
<path d="M418.936 20.0001L414.694 15.7551L415.754 14.6951L419.997 18.9371L424.24 14.6971L425.3 15.7571L421.062 19.9991L425.305 24.2421L424.245 25.3021L419.997 21.0641L415.754 25.3021L414.694 24.2421L418.936 20.0001Z" fill="#7F8285"/>
<rect x="0.5" y="0.5" width="439" height="201" rx="3.5" stroke="#B8BEC3"/>
</svg>
