<svg xmlns="http://www.w3.org/2000/svg" width="243" height="70" fill="none"><path fill="#fff" d="M55.26 26.663V23.83H37.451v2.834h7.16v19.072h3.454V26.663h7.195ZM64.788 30.448a8.335 8.335 0 0 0-4.066-.947h-.158a8.14 8.14 0 0 0-4.006.963 6.61 6.61 0 0 0-2.71 2.786 9.51 9.51 0 0 0-.96 4.444v.23a9.2 9.2 0 0 0 .977 4.373 6.703 6.703 0 0 0 2.693 2.787 8.072 8.072 0 0 0 3.999.962h.158a8.233 8.233 0 0 0 4.067-.962 6.792 6.792 0 0 0 2.733-2.77 9.036 9.036 0 0 0 1-4.404v-.23a9.306 9.306 0 0 0-.993-4.46 6.664 6.664 0 0 0-2.734-2.772Zm.208 7.462a7.751 7.751 0 0 1-.529 3.12 3.656 3.656 0 0 1-1.468 1.752 4.43 4.43 0 0 1-2.277.57h-.158a4.21 4.21 0 0 1-2.237-.565 3.622 3.622 0 0 1-1.424-1.769 8.16 8.16 0 0 1-.496-3.087v-.25a8.34 8.34 0 0 1 .496-3.101 3.684 3.684 0 0 1 1.424-1.796 4.108 4.108 0 0 1 2.237-.584h.158a4.382 4.382 0 0 1 2.272.568 3.615 3.615 0 0 1 1.468 1.78 8.138 8.138 0 0 1 .513 3.133l.02.23ZM74.729 23.828H71.34v21.903h3.388V23.828ZM89.486 30.448a8.325 8.325 0 0 0-4.066-.947h-.158a8.152 8.152 0 0 0-4.004.963 6.64 6.64 0 0 0-2.705 2.786 9.509 9.509 0 0 0-.958 4.445v.23a9.17 9.17 0 0 0 .974 4.382 6.703 6.703 0 0 0 2.69 2.777 8.078 8.078 0 0 0 3.998.962h.159a8.231 8.231 0 0 0 4.066-.962 6.79 6.79 0 0 0 2.728-2.77 9.062 9.062 0 0 0 1.002-4.404v-.23a9.328 9.328 0 0 0-1.002-4.458 6.65 6.65 0 0 0-2.724-2.774Zm.208 7.462a7.752 7.752 0 0 1-.53 3.12 3.655 3.655 0 0 1-1.467 1.752c-.684.38-1.46.572-2.244.554h-.159a4.21 4.21 0 0 1-2.237-.565 3.612 3.612 0 0 1-1.423-1.769 8.162 8.162 0 0 1-.508-3.092v-.245a8.331 8.331 0 0 1 .496-3.103 3.663 3.663 0 0 1 1.424-1.797 4.11 4.11 0 0 1 2.237-.585h.17a4.363 4.363 0 0 1 2.272.57 3.605 3.605 0 0 1 1.456 1.786 8.14 8.14 0 0 1 .522 3.145l-.01.23ZM109.996 29.878h-3.868l-6.68 6.999V23.828h-3.393v21.906h3.392v-7.63l6.97 7.63h4.218l-7.799-8.448 7.16-7.408ZM124.784 44.438a12.918 12.918 0 0 1-.11-1.667v-7.72c0-1.976-.576-3.395-1.729-4.259-1.152-.863-2.776-1.294-4.87-1.29h-.093a13.847 13.847 0 0 0-3.661.459c-.84.197-1.652.499-2.416.898v3.057a4.81 4.81 0 0 1 1.501-.801 14.67 14.67 0 0 1 2.148-.582c.731-.153 1.476-.23 2.223-.23h.126a4.397 4.397 0 0 1 2.542.614c.587.409.88 1.139.879 2.189v.944h-2.564c-2.557 0-4.48.41-5.769 1.231-1.29.82-1.933 2.07-1.932 3.749v.16c0 1.532.5 2.718 1.501 3.56a5.713 5.713 0 0 0 3.805 1.26h.191a6.45 6.45 0 0 0 2.941-.598 4.44 4.44 0 0 0 1.887-1.837c-.002.432.035.864.11 1.29.047.307.139.606.272.887h3.3a6.563 6.563 0 0 1-.282-1.314Zm-3.465-3.34a3.136 3.136 0 0 1-1.398 1.576 4.718 4.718 0 0 1-2.44.598h-.13a3.602 3.602 0 0 1-2.156-.566 1.907 1.907 0 0 1-.603-.722 1.88 1.88 0 0 1-.182-.918v-.114a1.954 1.954 0 0 1 .245-1.102c.188-.336.471-.61.815-.791.716-.377 1.818-.57 3.311-.57h2.538v2.61Z"/><path fill="#fff" fill-rule="evenodd" d="M14.735 20.626c.208 0 .376.168.376.376v9.917a.376.376 0 1 1-.753 0v-9.917c0-.207.169-.376.377-.376ZM9.337 21.7a.376.376 0 0 1 .492.203l3.795 9.162a.376.376 0 0 1-.696.288l-3.795-9.162a.376.376 0 0 1 .204-.491ZM4.76 24.758a.376.376 0 0 1 .532 0l7.012 7.012a.376.376 0 1 1-.532.532L4.76 25.29a.376.376 0 0 1 0-.532ZM1.702 29.335c.08-.192.3-.283.492-.204l9.162 3.795a.377.377 0 0 1-.288.696l-9.162-3.795a.376.376 0 0 1-.204-.492ZM.628 34.734c0-.208.168-.377.376-.377h9.917a.377.377 0 0 1 0 .753H1.004a.377.377 0 0 1-.376-.376ZM11.56 36.049a.377.377 0 0 1-.204.492l-9.162 3.795a.377.377 0 0 1-.288-.696l9.162-3.795a.376.376 0 0 1 .492.204ZM12.304 37.165a.376.376 0 0 1 0 .532L5.292 44.71a.376.376 0 0 1-.532-.533l7.012-7.012a.376.376 0 0 1 .532 0ZM13.42 37.91c.192.08.284.3.204.492l-3.795 9.161a.376.376 0 1 1-.696-.288l3.795-9.162c.08-.192.3-.283.492-.203ZM14.735 38.172c.208 0 .376.168.376.376v9.917a.376.376 0 1 1-.753 0v-9.917c0-.208.169-.376.377-.376ZM16.05 37.91a.376.376 0 0 1 .493.203l3.795 9.162a.376.376 0 1 1-.696.288l-3.795-9.162a.376.376 0 0 1 .204-.491ZM17.166 37.165a.376.376 0 0 1 .532 0l7.013 7.012a.376.376 0 0 1-.533.533l-7.012-7.013a.376.376 0 0 1 0-.532ZM17.911 36.049c.08-.192.3-.283.492-.204l9.162 3.795a.376.376 0 1 1-.288.696l-9.162-3.795a.376.376 0 0 1-.204-.492ZM18.173 34.734c0-.208.168-.377.376-.377h9.917a.377.377 0 0 1 0 .753h-9.917a.376.376 0 0 1-.376-.376ZM27.768 29.335a.377.377 0 0 1-.203.492l-9.162 3.795a.376.376 0 1 1-.288-.696l9.162-3.795a.376.376 0 0 1 .491.204ZM24.71 24.758a.376.376 0 0 1 0 .532l-7.012 7.012a.376.376 0 0 1-.532-.532l7.012-7.012a.376.376 0 0 1 .533 0ZM20.134 21.7c.192.08.283.3.204.492l-3.795 9.161a.376.376 0 1 1-.696-.288l3.795-9.162c.08-.192.3-.283.492-.203Z" clip-rule="evenodd"/><path fill="#fff" fill-rule="evenodd" d="M14.734 20c.555 0 1.004.45 1.004 1.004v4.865a1.004 1.004 0 0 1-2.008 0v-4.865c0-.555.45-1.004 1.004-1.004ZM9.096 21.122c.512-.213 1.1.03 1.311.543l2.181 5.266a1.004 1.004 0 1 1-1.855.768l-2.18-5.266c-.213-.512.03-1.1.543-1.311ZM4.316 24.316a1.004 1.004 0 0 1 1.42 0l4.481 4.482a1.004 1.004 0 0 1-1.42 1.42l-4.481-4.483a1.004 1.004 0 0 1 0-1.42ZM1.122 29.096c.212-.512.8-.755 1.311-.543l6.219 2.576a1.004 1.004 0 0 1-.769 1.855l-6.218-2.576a1.004 1.004 0 0 1-.543-1.312ZM0 34.735c0-.554.45-1.004 1.004-1.004H7.87a1.004 1.004 0 0 1 0 2.008H1.004C.449 35.74 0 35.29 0 34.735ZM9.195 37.028c.212.512-.031 1.1-.543 1.312l-6.219 2.576a1.004 1.004 0 1 1-.768-1.855l6.218-2.576c.513-.212 1.1.03 1.312.543ZM10.217 39.251a1.004 1.004 0 0 1 0 1.42l-4.482 4.482a1.004 1.004 0 1 1-1.42-1.42l4.482-4.482a1.004 1.004 0 0 1 1.42 0ZM12.045 41.227c.512.212.756.8.543 1.312l-2.18 5.265a1.004 1.004 0 0 1-1.856-.768l2.181-5.266c.213-.512.8-.755 1.312-.543ZM14.734 42.597c.555 0 1.004.45 1.004 1.004v4.865a1.004 1.004 0 0 1-2.008 0v-4.865c0-.555.45-1.004 1.004-1.004ZM18.094 42.843c.512-.212 1.1.031 1.312.543l1.51 3.648a1.004 1.004 0 0 1-1.854.768l-1.511-3.647c-.212-.512.03-1.1.543-1.312ZM21.54 41.54a1.004 1.004 0 0 1 1.42 0l2.193 2.193a1.004 1.004 0 0 1-1.42 1.42l-2.193-2.194a1.004 1.004 0 0 1 0-1.42ZM24.18 38.646c.211-.512.799-.755 1.31-.543l2.314.958a1.004 1.004 0 1 1-.768 1.855l-2.314-.958a1.004 1.004 0 0 1-.543-1.312ZM25.173 34.735c0-.554.45-1.004 1.004-1.004h2.289a1.004 1.004 0 0 1 0 2.008h-2.289c-.554 0-1.004-.45-1.004-1.004ZM28.347 29.097c.212.512-.03 1.1-.543 1.311l-2.313.958a1.004 1.004 0 0 1-.768-1.855l2.313-.958c.512-.212 1.099.031 1.311.544ZM25.153 24.316a1.004 1.004 0 0 1 0 1.42l-2.194 2.193a1.004 1.004 0 0 1-1.42-1.42l2.194-2.194a1.004 1.004 0 0 1 1.42 0ZM20.374 21.122c.512.212.755.8.543 1.311l-1.511 3.647a1.004 1.004 0 1 1-1.855-.768l1.51-3.647c.213-.512.8-.756 1.313-.543Z" clip-rule="evenodd"/></svg>