<svg xmlns="http://www.w3.org/2000/svg" width="12" height="12" fill="none" viewBox="0 0 12 12"><g clip-path="url(#a)"><path fill="#0069FF" d="M10.235 2.815a.375.375 0 0 0 0-.53l-.52-.52a.375.375 0 0 0-.53 0L6 4.95 2.815 1.765a.375.375 0 0 0-.53 0l-.52.52a.375.375 0 0 0 0 .53L4.95 6 1.765 9.185a.375.375 0 0 0 0 .53l.52.52a.375.375 0 0 0 .53 0L6 7.05l3.185 3.185a.375.375 0 0 0 .53 0l.52-.52a.375.375 0 0 0 0-.53L7.05 6l3.185-3.185Z"/></g><defs><clipPath id="a"><path fill="#fff" d="M0 0h12v12H0z"/></clipPath></defs></svg>