<svg xmlns="http://www.w3.org/2000/svg" width="12" height="12" fill="none" viewBox="0 0 12 12"><g clip-path="url(#a)"><path fill="#0069FF" d="M11.246 6.743a.375.375 0 0 0 .375-.375v-.735a.375.375 0 0 0-.375-.375H6.742V.754A.375.375 0 0 0 6.367.38h-.734a.375.375 0 0 0-.375.375v4.504H.754a.375.375 0 0 0-.376.375v.735c0 .207.168.375.376.375h4.504v4.504c0 .207.167.375.375.375h.734a.375.375 0 0 0 .375-.375V6.743h4.504Z"/></g><defs><clipPath id="a"><path fill="#fff" d="M0 .001h12v12H0z"/></clipPath></defs></svg>