<svg width="33" height="33" viewBox="0 0 33 33" fill="none" xmlns="http://www.w3.org/2000/svg">
<g clip-path="url(#clip0_16_143)">
<rect width="33" height="33" fill="white"/>
<path fill-rule="evenodd" clip-rule="evenodd" d="M16.028 2.27688C16.211 2.27688 16.3592 2.41364 16.3592 2.58234V12.6703C16.3592 12.839 16.211 12.9758 16.028 12.9758C15.8451 12.9758 15.6969 12.839 15.6969 12.6703V2.58234C15.6969 2.41364 15.8451 2.27688 16.028 2.27688Z" fill="#1E2126"/>
<path fill-rule="evenodd" clip-rule="evenodd" d="M10.1057 3.36277C10.2747 3.29821 10.4684 3.37222 10.5385 3.52808L14.7245 12.8482C14.7945 13.004 14.7142 13.1827 14.5452 13.2473C14.3762 13.3118 14.1825 13.2378 14.1125 13.082L9.92648 3.76187C9.85647 3.60602 9.93672 3.42733 10.1057 3.36277Z" fill="#1E2126"/>
<path fill-rule="evenodd" clip-rule="evenodd" d="M5.08508 6.4576C5.21443 6.33832 5.42414 6.33832 5.55347 6.4576L13.2873 13.5904C13.4167 13.7096 13.4167 13.9031 13.2873 14.0224C13.158 14.1416 12.9483 14.1416 12.8189 14.0224L5.08508 6.88959C4.95575 6.77029 4.95575 6.5769 5.08508 6.4576Z" fill="#1E2126"/>
<path fill-rule="evenodd" clip-rule="evenodd" d="M1.72954 11.0879C1.79954 10.9321 1.99328 10.8581 2.16227 10.9226L12.2678 14.7833C12.4368 14.8479 12.517 15.0265 12.447 15.1824C12.377 15.3383 12.1833 15.4123 12.0143 15.3477L1.90877 11.487C1.73978 11.4225 1.65954 11.2438 1.72954 11.0879Z" fill="#1E2126"/>
<path fill-rule="evenodd" clip-rule="evenodd" d="M0.551952 16.55C0.551952 16.3813 0.700235 16.2445 0.883152 16.2445H11.8213C12.0042 16.2445 12.1525 16.3813 12.1525 16.55C12.1525 16.7187 12.0042 16.8555 11.8213 16.8555H0.883152C0.700235 16.8555 0.551952 16.7187 0.551952 16.55Z" fill="#1E2126"/>
<path fill-rule="evenodd" clip-rule="evenodd" d="M12.447 17.9179C12.517 18.0738 12.4368 18.2524 12.2678 18.317L2.16227 22.1776C1.99328 22.2423 1.79954 22.1683 1.72954 22.0123C1.65954 21.8565 1.73978 21.6778 1.90877 21.6133L12.0143 17.7526C12.1833 17.688 12.377 17.762 12.447 17.9179Z" fill="#1E2126"/>
<path fill-rule="evenodd" clip-rule="evenodd" d="M13.2873 19.078C13.4167 19.1972 13.4167 19.3906 13.2873 19.5099L5.55349 26.6435C5.42414 26.7626 5.21445 26.7626 5.0851 26.6435C4.95575 26.5241 4.95575 26.3308 5.08508 26.2114L12.8189 19.078C12.9483 18.9587 13.158 18.9587 13.2873 19.078Z" fill="#1E2126"/>
<path fill-rule="evenodd" clip-rule="evenodd" d="M14.5452 19.8528C14.7142 19.9174 14.7945 20.0961 14.7245 20.2519L10.5385 29.5719C10.4684 29.7279 10.2747 29.8019 10.1057 29.7374C9.93672 29.6727 9.85647 29.4941 9.92648 29.3381L14.1125 20.0181C14.1825 19.8623 14.3762 19.7883 14.5452 19.8528Z" fill="#1E2126"/>
<path fill-rule="evenodd" clip-rule="evenodd" d="M16.028 20.1243C16.211 20.1243 16.3592 20.261 16.3592 20.4297V30.5183C16.3592 30.687 16.211 30.8238 16.028 30.8238C15.8451 30.8238 15.6969 30.687 15.6969 30.5183V20.4297C15.6969 20.261 15.8451 20.1243 16.028 20.1243Z" fill="#1E2126"/>
<path fill-rule="evenodd" clip-rule="evenodd" d="M17.5116 19.8528C17.6806 19.7883 17.8743 19.8623 17.9443 20.0181L22.1304 29.3381C22.2003 29.4941 22.1201 29.6727 21.9512 29.7374C21.7821 29.8019 21.5884 29.7279 21.5184 29.5719L17.3324 20.2519C17.2623 20.0961 17.3426 19.9174 17.5116 19.8528Z" fill="#1E2126"/>
<path fill-rule="evenodd" clip-rule="evenodd" d="M18.7688 19.078C18.8982 18.9587 19.1079 18.9587 19.2372 19.078L26.9717 26.2114C27.1011 26.3308 27.1011 26.5241 26.9717 26.6435C26.8425 26.7626 26.6329 26.7626 26.5035 26.6435L18.7688 19.51C18.6395 19.3907 18.6395 19.1973 18.7688 19.078Z" fill="#1E2126"/>
<path fill-rule="evenodd" clip-rule="evenodd" d="M19.6091 17.9179C19.6791 17.762 19.8729 17.688 20.0419 17.7526L30.1474 21.6133C30.3165 21.6778 30.3965 21.8565 30.3266 22.0123C30.2566 22.1683 30.0629 22.2423 29.8939 22.1776L19.7884 18.317C19.6194 18.2524 19.5391 18.0738 19.6091 17.9179Z" fill="#1E2126"/>
<path fill-rule="evenodd" clip-rule="evenodd" d="M19.9037 16.55C19.9037 16.3813 20.0519 16.2445 20.2349 16.2445H31.1738C31.3567 16.2445 31.505 16.3813 31.505 16.55C31.505 16.7187 31.3567 16.8555 31.1738 16.8555H20.2349C20.0519 16.8555 19.9037 16.7187 19.9037 16.55Z" fill="#1E2126"/>
<path fill-rule="evenodd" clip-rule="evenodd" d="M30.3266 11.0879C30.3965 11.2438 30.3165 11.4225 30.1474 11.487L20.0419 15.3477C19.8729 15.4123 19.6791 15.3383 19.6091 15.1824C19.5391 15.0265 19.6194 14.8479 19.7884 14.7833L29.8939 10.9226C30.0629 10.8581 30.2566 10.9321 30.3266 11.0879Z" fill="#1E2126"/>
<path fill-rule="evenodd" clip-rule="evenodd" d="M26.9719 6.45762C27.1011 6.57692 27.1011 6.77031 26.9717 6.88961L19.2372 14.0224C19.1079 14.1416 18.8982 14.1416 18.7688 14.0223C18.6395 13.903 18.6395 13.7096 18.7689 13.5903L26.5035 6.4576C26.6329 6.3383 26.8426 6.33832 26.9719 6.45762Z" fill="#1E2126"/>
<path fill-rule="evenodd" clip-rule="evenodd" d="M21.9512 3.36277C22.1201 3.42733 22.2003 3.60602 22.1304 3.76187L17.9443 13.082C17.8743 13.2378 17.6806 13.3118 17.5116 13.2473C17.3426 13.1827 17.2623 13.004 17.3324 12.8482L21.5184 3.52808C21.5884 3.37222 21.7821 3.29821 21.9512 3.36277Z" fill="#1E2126"/>
<path fill-rule="evenodd" clip-rule="evenodd" d="M16.0281 1.76786C16.5159 1.76786 16.9113 2.13254 16.9113 2.58241V7.53195C16.9113 7.98182 16.5159 8.34651 16.0281 8.34651C15.5403 8.34651 15.1449 7.98182 15.1449 7.53195V2.58241C15.1449 2.13254 15.5403 1.76786 16.0281 1.76786Z" fill="#1E2126"/>
<path fill-rule="evenodd" clip-rule="evenodd" d="M9.89459 2.89261C10.3452 2.72048 10.8619 2.91787 11.0485 3.3335L13.4543 8.69093C13.6409 9.10655 13.4269 9.58304 12.9763 9.75517C12.5256 9.9273 12.009 9.72993 11.8223 9.31428L9.41655 3.95685C9.22992 3.54122 9.44395 3.06475 9.89459 2.89261Z" fill="#1E2126"/>
<path fill-rule="evenodd" clip-rule="evenodd" d="M4.6948 6.09768C5.03969 5.77957 5.5989 5.77957 5.94382 6.09768L10.8875 10.6571C11.2324 10.9752 11.2324 11.491 10.8875 11.8091C10.5426 12.1272 9.98337 12.1272 9.63845 11.8091L4.6948 7.24964C4.34988 6.93153 4.34988 6.41579 4.6948 6.09768Z" fill="#1E2126"/>
<path fill-rule="evenodd" clip-rule="evenodd" d="M1.2196 10.8933C1.40627 10.4777 1.92291 10.2803 2.37354 10.4525L9.23324 13.073C9.68389 13.2452 9.89789 13.7217 9.71123 14.1373C9.52455 14.5529 9.00791 14.7503 8.55727 14.5781L1.69758 11.9576C1.24694 11.7854 1.03294 11.3089 1.2196 10.8933Z" fill="#1E2126"/>
<path fill-rule="evenodd" clip-rule="evenodd" d="M0 16.5501C0 16.1003 0.39542 15.7356 0.883195 15.7356H8.45527C8.94305 15.7356 9.33847 16.1003 9.33847 16.5501C9.33847 17 8.94305 17.3647 8.45527 17.3647H0.883195C0.39542 17.3647 0 17 0 16.5501Z" fill="#1E2126"/>
<path fill-rule="evenodd" clip-rule="evenodd" d="M9.71123 18.9634C9.89789 19.379 9.68389 19.8555 9.23324 20.0276L2.37354 22.6483C1.92291 22.8204 1.40627 22.623 1.2196 22.2073C1.03294 21.7917 1.24694 21.3152 1.69758 21.1431L8.55727 18.5225C9.00791 18.3504 9.52455 18.5478 9.71123 18.9634Z" fill="#1E2126"/>
<path fill-rule="evenodd" clip-rule="evenodd" d="M10.8874 21.2911C11.2324 21.6092 11.2324 22.125 10.8875 22.443L5.94386 27.0031C5.59899 27.3213 5.03978 27.3213 4.69484 27.0033C4.3499 26.6852 4.34986 26.1694 4.69475 25.8514L9.63841 21.2912C9.9833 20.9731 10.5425 20.973 10.8874 21.2911Z" fill="#1E2126"/>
<path fill-rule="evenodd" clip-rule="evenodd" d="M12.9763 23.3451C13.4269 23.5172 13.6409 23.9938 13.4543 24.4094L11.0485 29.7667C10.8619 30.1824 10.3452 30.3798 9.89459 30.2077C9.44395 30.0355 9.22992 29.559 9.41655 29.1435L11.8223 23.786C12.009 23.3704 12.5256 23.173 12.9763 23.3451Z" fill="#1E2126"/>
<path fill-rule="evenodd" clip-rule="evenodd" d="M16.0281 24.7547C16.5159 24.7547 16.9113 25.1194 16.9113 25.5692V30.5188C16.9113 30.9686 16.5159 31.3333 16.0281 31.3333C15.5403 31.3333 15.1449 30.9686 15.1449 30.5188V25.5692C15.1449 25.1194 15.5403 24.7547 16.0281 24.7547Z" fill="#1E2126"/>
<path fill-rule="evenodd" clip-rule="evenodd" d="M19.8197 24.9926C20.2703 24.8204 20.7869 25.0179 20.9736 25.4333L22.6402 29.1435C22.8271 29.5592 22.613 30.0355 22.1624 30.2079C21.7118 30.38 21.1952 30.1826 21.0085 29.7671L19.3418 26.0569C19.1551 25.6412 19.369 25.1649 19.8197 24.9926Z" fill="#1E2126"/>
<path fill-rule="evenodd" clip-rule="evenodd" d="M23.6932 23.6198C24.038 23.3016 24.5972 23.3016 24.9422 23.6198L27.3621 25.8514C27.7069 26.1696 27.7069 26.6854 27.3621 27.0035C27.0171 27.3215 26.4579 27.3215 26.1131 27.0035L23.6932 24.7717C23.3482 24.4535 23.3482 23.9377 23.6932 23.6198Z" fill="#1E2126"/>
<path fill-rule="evenodd" clip-rule="evenodd" d="M26.6533 20.6099C26.8399 20.1942 27.3566 19.9969 27.8073 20.169L30.3586 21.1436C30.8091 21.3157 31.0231 21.7922 30.8365 22.2079C30.6499 22.6234 30.1332 22.8208 29.6827 22.6487L27.1314 21.6741C26.6807 21.502 26.4667 21.0255 26.6533 20.6099Z" fill="#1E2126"/>
<path fill-rule="evenodd" clip-rule="evenodd" d="M27.7661 16.5501C27.7661 16.1003 28.1615 15.7356 28.6493 15.7356H31.1738C31.6615 15.7356 32.057 16.1003 32.057 16.5501C32.057 17 31.6615 17.3647 31.1738 17.3647H28.6493C28.1615 17.3647 27.7661 17 27.7661 16.5501Z" fill="#1E2126"/>
<path fill-rule="evenodd" clip-rule="evenodd" d="M30.8365 10.8933C31.0231 11.3089 30.8091 11.7854 30.3586 11.9576L27.8073 12.9321C27.3566 13.1043 26.8399 12.9069 26.6533 12.4913C26.4667 12.0757 26.6807 11.5992 27.1314 11.427L29.6827 10.4525C30.1332 10.2803 30.6499 10.4777 30.8365 10.8933Z" fill="#1E2126"/>
<path fill-rule="evenodd" clip-rule="evenodd" d="M27.3621 6.09768C27.7069 6.41579 27.7069 6.93154 27.3621 7.24962L24.9422 9.48144C24.5972 9.79955 24.038 9.79955 23.6932 9.48144C23.3482 9.16335 23.3482 8.6476 23.6932 8.3295L26.1131 6.09768C26.4579 5.77957 27.0171 5.77957 27.3621 6.09768Z" fill="#1E2126"/>
<path fill-rule="evenodd" clip-rule="evenodd" d="M22.1624 2.89263C22.6131 3.0648 22.8271 3.54129 22.6405 3.95691L20.9737 7.66769C20.7871 8.08332 20.2704 8.28067 19.8198 8.1085C19.3691 7.93633 19.1551 7.45984 19.3418 7.04422L21.0085 3.33344C21.1952 2.91783 21.7118 2.72047 22.1624 2.89263Z" fill="#1E2126"/>
</g>
<defs>
<clipPath id="clip0_16_143">
<rect width="33" height="33" fill="white"/>
</clipPath>
</defs>
</svg>
