<svg xmlns="http://www.w3.org/2000/svg" width="121" height="122" fill="none" viewBox="0 0 121 122"><path stroke="#0055D9" stroke-linecap="round" stroke-width="2" d="M90.004 91.041c-5.41 11.244-16.815 19-30 19-13.185 0-24.59-7.751-30-19M60.004 110.041v10"/><path fill="url(#a)" fill-rule="evenodd" d="M35.006 37.041v38c0 13.8 11.2 25 24.997 25h.001c13.798 0 24.997-11.2 24.997-25v-38c0-13.8-11.2-25-24.997-25h-.001c-13.797 0-24.997 11.2-24.997 25Z" clip-rule="evenodd"/><path fill="url(#b)" fill-rule="evenodd" d="M119.004 72.041h-118l12.872-13.946c2.067-2.39 4.955-4.191 8.582 0 3.97 4.806 6.518 3.447 8.582 0l4.574-9.27c2.326-4.934 5.1-5.063 8.299-.386l3.94 5.822c1.841 2.875 3.954 3.104 5.418.057L59.766 40c3.32-7.41 9.756-8.382 14.18-.229l9.784 18.023c2.372 4.191 5.088 3.848 7.637.515l4.549-6.35c2.722-3.906 5.37-4.406 8.856-.172 5.644 6.637 10.027 13.26 14.232 20.254Z" clip-rule="evenodd"/><defs><linearGradient id="a" x1="72.991" x2="72.991" y1="99.621" y2="12.04" gradientUnits="userSpaceOnUse"><stop stop-color="#A1BFFF" stop-opacity=".17"/><stop offset="1" stop-color="#679BFF" stop-opacity=".92"/></linearGradient><linearGradient id="b" x1="60.004" x2="60.004" y1="34.041" y2="145.041" gradientUnits="userSpaceOnUse"><stop offset=".02" stop-color="#0064FF"/><stop offset=".06" stop-color="#005FFF" stop-opacity=".86"/><stop offset=".11" stop-color="#005BFF" stop-opacity=".72"/><stop offset=".17" stop-color="#0057FF" stop-opacity=".59"/><stop offset=".23" stop-color="#0053FF" stop-opacity=".48"/><stop offset=".3" stop-color="#0051FF" stop-opacity=".4"/><stop offset=".38" stop-color="#004FFF" stop-opacity=".33"/><stop offset=".48" stop-color="#004DFF" stop-opacity=".28"/><stop offset=".61" stop-color="#004CFF" stop-opacity=".26"/><stop offset="1" stop-color="#004CFF" stop-opacity=".25"/></linearGradient></defs></svg>