<svg xmlns="http://www.w3.org/2000/svg" width="120" height="120" fill="none" viewBox="0 0 120 120"><path fill="url(#a)" fill-rule="evenodd" d="M17.998 112.016V13.997a4 4 0 0 1 3.994-3.995h28.203c.928-4.563 4.965-8 9.803-8 4.834 0 8.872 3.437 9.8 8h28.2a4 4 0 0 1 3.995 3.995v98.019a4 4 0 0 1-3.995 3.994H21.992a3.999 3.999 0 0 1-3.994-3.994Z" clip-rule="evenodd"/><path stroke="#0064FF" stroke-linecap="round" stroke-linejoin="round" stroke-miterlimit="79.84" stroke-width="2" d="M42.998 17.002v6c0 2.739 1.976 4 4 4h26c2.024 0 4-1.261 4-4v-6M31.998 44.002l6 6 10-10M31.998 64.002l6 6 10-10M31.998 84.002l6 6 10-10M54.998 45.002h28M54.998 65.002h28M54.998 85.002h28"/><defs><linearGradient id="a" x1="59.985" x2="59.985" y1="4.156" y2="113.917" gradientUnits="userSpaceOnUse"><stop offset=".02" stop-color="#0064FF"/><stop offset=".06" stop-color="#0064FF" stop-opacity=".86"/><stop offset=".11" stop-color="#0064FF" stop-opacity=".72"/><stop offset=".17" stop-color="#0064FF" stop-opacity=".59"/><stop offset=".23" stop-color="#0064FF" stop-opacity=".48"/><stop offset=".3" stop-color="#0064FF" stop-opacity=".4"/><stop offset=".38" stop-color="#0064FF" stop-opacity=".33"/><stop offset=".48" stop-color="#0064FF" stop-opacity=".28"/><stop offset=".61" stop-color="#0064FF" stop-opacity=".26"/><stop offset="1" stop-color="#0064FF" stop-opacity=".25"/></linearGradient></defs></svg>