<svg xmlns="http://www.w3.org/2000/svg" width="121" height="120" fill="none"><path fill="url(#a)" fill-rule="evenodd" d="M110.007 66v40c0 2.2-1.792 4-3.995 4H13.993A4.005 4.005 0 0 1 10 106V66c0-2.2 1.792-4 3.994-4h92.019c2.203 0 3.995 1.8 3.995 4Z" clip-rule="evenodd"/><path stroke="#0064FF" stroke-linecap="round" stroke-linejoin="round" stroke-miterlimit="79.84" stroke-width="2" d="m26.38 103 23.624-27 24 26 10-10 10.957 10.96"/><path stroke="#0064FF" stroke-linecap="round" stroke-miterlimit="79.84" stroke-width="2" d="M72.953 77.987c0-2.77 2.256-5.014 5.038-5.014 2.782 0 5.037 2.245 5.037 5.014S80.773 83 77.991 83s-5.038-2.245-5.038-5.013Z"/><path fill="url(#b)" fill-rule="evenodd" d="M110.007 14v40c0 2.2-1.792 4-3.995 4H13.993A4.005 4.005 0 0 1 10 54V14c0-2.2 1.792-4 3.994-4h92.019c2.203 0 3.995 1.8 3.995 4Z" clip-rule="evenodd"/><path stroke="#0064FF" stroke-linecap="round" stroke-linejoin="round" stroke-miterlimit="79.84" stroke-width="2" d="m26.38 51 23.624-27 24.957 26.96 20.043.04"/><path stroke="#0064FF" stroke-linecap="round" stroke-miterlimit="79.84" stroke-width="2" d="M73.5 26.5a5 5 0 1 1 10 0 5 5 0 0 1-10 0Z"/><defs><linearGradient id="a" x1="60.015" x2="60.015" y1="29.5" y2="123.5" gradientUnits="userSpaceOnUse"><stop offset=".02" stop-color="#0064FF"/><stop offset=".06" stop-color="#0064FF" stop-opacity=".86"/><stop offset=".11" stop-color="#0064FF" stop-opacity=".72"/><stop offset=".17" stop-color="#0064FF" stop-opacity=".59"/><stop offset=".23" stop-color="#0064FF" stop-opacity=".48"/><stop offset=".3" stop-color="#0064FF" stop-opacity=".4"/><stop offset=".38" stop-color="#0064FF" stop-opacity=".33"/><stop offset=".48" stop-color="#0064FF" stop-opacity=".28"/><stop offset=".61" stop-color="#0064FF" stop-opacity=".26"/><stop offset="1" stop-color="#0064FF" stop-opacity=".25"/></linearGradient><linearGradient id="b" x1="60.015" x2="60.015" y1="4" y2="211" gradientUnits="userSpaceOnUse"><stop offset=".02" stop-color="#0064FF"/><stop offset=".06" stop-color="#0064FF" stop-opacity=".86"/><stop offset=".11" stop-color="#0064FF" stop-opacity=".72"/><stop offset=".17" stop-color="#0064FF" stop-opacity=".59"/><stop offset=".23" stop-color="#0064FF" stop-opacity=".48"/><stop offset=".3" stop-color="#0064FF" stop-opacity=".4"/><stop offset=".38" stop-color="#0064FF" stop-opacity=".33"/><stop offset=".48" stop-color="#0064FF" stop-opacity=".28"/><stop offset=".61" stop-color="#0064FF" stop-opacity=".26"/><stop offset=".778" stop-color="#0064FF" stop-opacity=".256"/><stop offset="1" stop-color="#0064FF" stop-opacity=".25"/></linearGradient></defs></svg>