<svg xmlns="http://www.w3.org/2000/svg" width="1132" height="486" fill="none"><path fill="#fff" d="M0 0h1132v486H0z"/><rect width="304" height="88" x="414" y="1" fill="#fff" rx="5"/><path fill="#1E2126" d="M499.457 37.66h4.82c.96 0 1.854.113 2.68.34.827.227 1.547.6 2.16 1.12.614.52 1.094 1.207 1.44 2.06.347.853.52 1.907.52 3.16 0 1.267-.18 2.38-.54 3.34-.346.947-.833 1.74-1.46 2.38a6.019 6.019 0 0 1-2.22 1.46c-.853.32-1.786.48-2.8.48h-4.6V37.66Zm1.88 1.72V50.3h2.72c.734 0 1.407-.113 2.02-.34a4.083 4.083 0 0 0 1.58-1.04c.44-.48.78-1.087 1.02-1.82.24-.733.36-1.607.36-2.62 0-1-.12-1.827-.36-2.48-.24-.667-.573-1.193-1-1.58a3.335 3.335 0 0 0-1.5-.8 7.196 7.196 0 0 0-1.9-.24h-2.94Zm20.359 11.74a5.65 5.65 0 0 1-.54.34c-.213.12-.473.24-.78.36a6.577 6.577 0 0 1-1.04.26c-.387.08-.82.12-1.3.12-1.747 0-3.073-.473-3.98-1.42s-1.36-2.273-1.36-3.98c0-.84.12-1.593.36-2.26.253-.667.6-1.227 1.04-1.68.44-.467.96-.82 1.56-1.06.6-.253 1.253-.38 1.96-.38.747 0 1.413.127 2 .38a3.518 3.518 0 0 1 1.44 1.12c.387.493.647 1.107.78 1.84.147.72.147 1.56 0 2.52h-7.32c.067 1.12.4 1.96 1 2.52.6.547 1.493.82 2.68.82.8 0 1.487-.113 2.06-.34a7.235 7.235 0 0 0 1.44-.74v1.58Zm-4.12-8.14c-.76 0-1.413.233-1.96.7-.547.467-.893 1.173-1.04 2.12h5.58c.053-.96-.167-1.667-.66-2.12-.493-.467-1.133-.7-1.92-.7Zm10.946 9.22c-.8 0-1.527-.12-2.18-.36a4.766 4.766 0 0 1-1.64-1.06 4.666 4.666 0 0 1-1.04-1.7c-.24-.667-.36-1.427-.36-2.28 0-.84.12-1.593.36-2.26a4.683 4.683 0 0 1 1.06-1.68 4.376 4.376 0 0 1 1.66-1.06c.653-.253 1.393-.38 2.22-.38.64 0 1.226.073 1.76.22.533.133.973.333 1.32.6v1.58a4.67 4.67 0 0 0-1.44-.62 5.938 5.938 0 0 0-1.62-.22c-1.214 0-2.107.313-2.68.94-.56.627-.84 1.587-.84 2.88s.273 2.253.82 2.88c.546.627 1.413.94 2.6.94.626 0 1.2-.073 1.72-.22a7.092 7.092 0 0 0 1.44-.6v1.58a5.89 5.89 0 0 1-1.36.58c-.52.16-1.12.24-1.8.24Zm9.565 0c-.707 0-1.367-.12-1.98-.36a4.603 4.603 0 0 1-1.6-1.04 5.063 5.063 0 0 1-1.04-1.7c-.254-.667-.38-1.433-.38-2.3 0-.853.126-1.613.38-2.28.253-.68.6-1.247 1.04-1.7.453-.453.986-.8 1.6-1.04a5.383 5.383 0 0 1 1.98-.36c.72 0 1.386.12 2 .36.613.24 1.14.587 1.58 1.04.453.453.806 1.02 1.06 1.7.266.667.4 1.427.4 2.28 0 .867-.134 1.633-.4 2.3a4.92 4.92 0 0 1-1.06 1.7c-.44.453-.967.8-1.58 1.04-.614.24-1.28.36-2 .36Zm0-1.58c.466 0 .893-.073 1.28-.22.4-.16.746-.393 1.04-.7.293-.32.52-.72.68-1.2.16-.48.24-1.047.24-1.7s-.08-1.22-.24-1.7c-.16-.48-.387-.873-.68-1.18a2.62 2.62 0 0 0-1.04-.7 3.32 3.32 0 0 0-1.28-.24c-.467 0-.894.08-1.28.24-.387.147-.727.38-1.02.7-.28.307-.5.7-.66 1.18-.16.48-.24 1.047-.24 1.7s.08 1.22.24 1.7c.16.48.38.88.66 1.2.293.307.633.54 1.02.7.386.147.813.22 1.28.22Zm8.945 1.38h-1.76V41.62h1.54l.18 1.86h.04c.28-.587.7-1.073 1.26-1.46.56-.4 1.293-.6 2.2-.6.8 0 1.453.193 1.96.58.52.373.867.94 1.04 1.7.293-.707.74-1.26 1.34-1.66.613-.413 1.353-.62 2.22-.62.96 0 1.72.273 2.28.82.56.533.84 1.36.84 2.48V52h-1.78v-7.06c0-.68-.167-1.173-.5-1.48-.333-.32-.787-.48-1.36-.48-.387 0-.727.06-1.02.18-.293.107-.553.26-.78.46-.227.2-.433.433-.62.7a8.81 8.81 0 0 0-.52.84V52h-1.76v-7.26c0-.667-.167-1.127-.5-1.38-.333-.253-.787-.38-1.36-.38-.373 0-.707.047-1 .14-.293.093-.56.227-.8.4a3.15 3.15 0 0 0-.62.64c-.187.24-.36.507-.52.8V52Zm21.116.2c-.8 0-1.493-.187-2.08-.56a4.078 4.078 0 0 1-1.38-1.54v5.44h-1.76V41.62h1.54l.18 2.02c.347-.68.814-1.22 1.4-1.62.587-.4 1.314-.6 2.18-.6.6 0 1.174.113 1.72.34.56.213 1.047.547 1.46 1 .427.44.76 1 1 1.68.254.667.38 1.453.38 2.36 0 .92-.126 1.72-.38 2.4-.253.667-.593 1.227-1.02 1.68-.426.44-.92.773-1.48 1a4.9 4.9 0 0 1-1.76.32Zm-.26-1.58c.92 0 1.66-.313 2.22-.94.574-.64.86-1.6.86-2.88 0-1.253-.286-2.2-.86-2.84-.56-.653-1.3-.98-2.22-.98-.453 0-.88.08-1.28.24-.386.16-.726.4-1.02.72-.28.307-.506.7-.68 1.18-.16.48-.24 1.04-.24 1.68 0 .64.08 1.2.24 1.68.174.48.4.88.68 1.2.294.32.634.56 1.02.72.4.147.827.22 1.28.22Zm11.292 1.58a5.39 5.39 0 0 1-1.98-.36 4.622 4.622 0 0 1-1.6-1.04 5.079 5.079 0 0 1-1.04-1.7c-.253-.667-.38-1.433-.38-2.3 0-.853.127-1.613.38-2.28.254-.68.6-1.247 1.04-1.7.454-.453.987-.8 1.6-1.04a5.39 5.39 0 0 1 1.98-.36c.72 0 1.387.12 2 .36.614.24 1.14.587 1.58 1.04.454.453.807 1.02 1.06 1.7.267.667.4 1.427.4 2.28 0 .867-.133 1.633-.4 2.3a4.89 4.89 0 0 1-1.06 1.7c-.44.453-.966.8-1.58 1.04a5.44 5.44 0 0 1-2 .36Zm0-1.58c.467 0 .894-.073 1.28-.22.4-.16.747-.393 1.04-.7.294-.32.52-.72.68-1.2.16-.48.24-1.047.24-1.7s-.08-1.22-.24-1.7c-.16-.48-.386-.873-.68-1.18a2.612 2.612 0 0 0-1.04-.7 3.313 3.313 0 0 0-1.28-.24c-.466 0-.893.08-1.28.24-.386.147-.726.38-1.02.7-.28.307-.5.7-.66 1.18-.16.48-.24 1.047-.24 1.7s.08 1.22.24 1.7c.16.48.38.88.66 1.2.294.307.634.54 1.02.7.387.147.814.22 1.28.22Zm10.506 1.58a6.864 6.864 0 0 1-1.46-.14c-.414-.08-.78-.18-1.1-.3a5.949 5.949 0 0 1-.78-.4 5.183 5.183 0 0 1-.5-.38V49.4c.133.133.313.28.54.44.226.147.5.287.82.42.32.133.68.247 1.08.34.413.08.873.12 1.38.12.746 0 1.34-.12 1.78-.36.44-.24.66-.647.66-1.22 0-.307-.074-.553-.22-.74a1.34 1.34 0 0 0-.56-.44 3.45 3.45 0 0 0-.84-.28 42.727 42.727 0 0 0-.98-.2c-.44-.093-.874-.193-1.3-.3a4.537 4.537 0 0 1-1.16-.5 2.714 2.714 0 0 1-.84-.86c-.214-.36-.32-.827-.32-1.4 0-.933.36-1.667 1.08-2.2.733-.533 1.753-.8 3.06-.8.733 0 1.38.073 1.94.22.573.147 1.013.307 1.32.48v1.58c-.347-.227-.78-.413-1.3-.56-.507-.16-1.14-.24-1.9-.24-.787 0-1.394.107-1.82.32-.414.213-.62.6-.62 1.16 0 .28.06.507.18.68.12.16.28.293.48.4.213.093.453.167.72.22.266.053.546.113.84.18.453.093.92.193 1.4.3.48.107.906.273 1.28.5.386.227.7.533.94.92.253.373.38.88.38 1.52 0 .6-.12 1.1-.36 1.5-.24.4-.56.72-.96.96a4.101 4.101 0 0 1-1.34.48c-.494.107-1 .16-1.52.16Zm7.248-12.1c-.36 0-.647-.107-.86-.32a1.15 1.15 0 0 1-.32-.82c0-.32.106-.593.32-.82.213-.227.5-.34.86-.34.346 0 .62.113.82.34.2.227.3.5.3.82 0 .32-.1.593-.3.82-.2.213-.474.32-.82.32Zm.86 1.52V52h-1.76V41.62h1.76Zm7.949 10.16c-.214.12-.487.22-.82.3-.334.08-.687.12-1.06.12-.507 0-.94-.073-1.3-.22a2.498 2.498 0 0 1-.86-.58 2.45 2.45 0 0 1-.5-.84 3.459 3.459 0 0 1-.14-.98v-6.46h-1.24v-1.5h1.24v-2.18h1.76v2.18h3.02v1.5h-3.02v6.24c0 .44.106.76.32.96.226.2.62.3 1.18.3.52 0 .993-.147 1.42-.44v1.6Zm3.242-11.68c-.36 0-.647-.107-.86-.32a1.15 1.15 0 0 1-.32-.82c0-.32.106-.593.32-.82.213-.227.5-.34.86-.34.346 0 .62.113.82.34.2.227.3.5.3.82 0 .32-.1.593-.3.82-.2.213-.474.32-.82.32Zm.86 1.52V52h-1.76V41.62h1.76Zm7.128 10.58a5.39 5.39 0 0 1-1.98-.36 4.622 4.622 0 0 1-1.6-1.04 5.079 5.079 0 0 1-1.04-1.7c-.253-.667-.38-1.433-.38-2.3 0-.853.127-1.613.38-2.28.254-.68.6-1.247 1.04-1.7.454-.453.987-.8 1.6-1.04a5.39 5.39 0 0 1 1.98-.36c.72 0 1.387.12 2 .36.614.24 1.14.587 1.58 1.04.454.453.807 1.02 1.06 1.7.267.667.4 1.427.4 2.28 0 .867-.133 1.633-.4 2.3a4.89 4.89 0 0 1-1.06 1.7c-.44.453-.966.8-1.58 1.04a5.44 5.44 0 0 1-2 .36Zm0-1.58c.467 0 .894-.073 1.28-.22.4-.16.747-.393 1.04-.7.294-.32.52-.72.68-1.2.16-.48.24-1.047.24-1.7s-.08-1.22-.24-1.7c-.16-.48-.386-.873-.68-1.18a2.612 2.612 0 0 0-1.04-.7 3.313 3.313 0 0 0-1.28-.24c-.466 0-.893.08-1.28.24-.386.147-.726.38-1.02.7-.28.307-.5.7-.66 1.18-.16.48-.24 1.047-.24 1.7s.08 1.22.24 1.7c.16.48.38.88.66 1.2.294.307.634.54 1.02.7.387.147.814.22 1.28.22Zm12.106-7.64c-.8 0-1.454.187-1.96.56-.494.36-.894.827-1.2 1.4V52h-1.76V41.62h1.66l.06 1.86h.04c.28-.6.72-1.093 1.32-1.48.6-.387 1.36-.58 2.28-.58 1.026 0 1.84.273 2.44.82.613.533.92 1.36.92 2.48V52h-1.76v-7.1c0-.72-.18-1.22-.54-1.5-.36-.28-.86-.42-1.5-.42Z"/><rect width="304" height="88" x="414" y="1" stroke="#1E2126" stroke-width="2" rx="5"/><rect width="306" height="90" x="413" y="396" fill="url(#a)" rx="6"/><path fill="#0055D9" d="M471.998 435.66V447h-1.71v-11.34h-3.978v-1.566h9.666v1.566h-3.978Zm8.499 11.52c-.636 0-1.23-.108-1.782-.324a4.15 4.15 0 0 1-1.44-.936 4.561 4.561 0 0 1-.936-1.53c-.228-.6-.342-1.29-.342-2.07 0-.768.114-1.452.342-2.052.228-.612.54-1.122.936-1.53a4.15 4.15 0 0 1 1.44-.936 4.847 4.847 0 0 1 1.782-.324c.648 0 1.248.108 1.8.324a3.97 3.97 0 0 1 1.422.936c.408.408.726.918.954 1.53.24.6.36 1.284.36 2.052 0 .78-.12 1.47-.36 2.07-.228.6-.546 1.11-.954 1.53a3.97 3.97 0 0 1-1.422.936 4.897 4.897 0 0 1-1.8.324Zm0-1.422c.42 0 .804-.066 1.152-.198.36-.144.672-.354.936-.63.264-.288.468-.648.612-1.08.144-.432.216-.942.216-1.53 0-.588-.072-1.098-.216-1.53-.144-.432-.348-.786-.612-1.062a2.353 2.353 0 0 0-.936-.63 2.985 2.985 0 0 0-1.152-.216c-.42 0-.804.072-1.152.216a2.378 2.378 0 0 0-.918.63c-.252.276-.45.63-.594 1.062-.144.432-.216.942-.216 1.53 0 .588.072 1.098.216 1.53.144.432.342.792.594 1.08.264.276.57.486.918.63.348.132.732.198 1.152.198Zm11.165 1.422c-.72 0-1.344-.168-1.872-.504a3.665 3.665 0 0 1-1.242-1.386v4.896h-1.584v-12.528h1.386l.162 1.818a3.832 3.832 0 0 1 1.26-1.458c.528-.36 1.182-.54 1.962-.54.54 0 1.056.102 1.548.306.504.192.942.492 1.314.9.384.396.684.9.9 1.512.228.6.342 1.308.342 2.124 0 .828-.114 1.548-.342 2.16a4.515 4.515 0 0 1-.918 1.512 3.85 3.85 0 0 1-1.332.9 4.412 4.412 0 0 1-1.584.288Zm-.234-1.422c.828 0 1.494-.282 1.998-.846.516-.576.774-1.44.774-2.592 0-1.128-.258-1.98-.774-2.556-.504-.588-1.17-.882-1.998-.882-.408 0-.792.072-1.152.216-.348.144-.654.36-.918.648-.252.276-.456.63-.612 1.062-.144.432-.216.936-.216 1.512s.072 1.08.216 1.512c.156.432.36.792.612 1.08.264.288.57.504.918.648.36.132.744.198 1.152.198Zm11.027 1.422c-.72 0-1.344-.168-1.872-.504a3.665 3.665 0 0 1-1.242-1.386v4.896h-1.584v-12.528h1.386l.162 1.818a3.832 3.832 0 0 1 1.26-1.458c.528-.36 1.182-.54 1.962-.54.54 0 1.056.102 1.548.306.504.192.942.492 1.314.9.384.396.684.9.9 1.512.228.6.342 1.308.342 2.124 0 .828-.114 1.548-.342 2.16a4.515 4.515 0 0 1-.918 1.512 3.85 3.85 0 0 1-1.332.9 4.412 4.412 0 0 1-1.584.288Zm-.234-1.422c.828 0 1.494-.282 1.998-.846.516-.576.774-1.44.774-2.592 0-1.128-.258-1.98-.774-2.556-.504-.588-1.17-.882-1.998-.882-.408 0-.792.072-1.152.216-.348.144-.654.36-.918.648-.252.276-.456.63-.612 1.062-.144.432-.216.936-.216 1.512s.072 1.08.216 1.512c.156.432.36.792.612 1.08.264.288.57.504.918.648.36.132.744.198 1.152.198Zm7.139-9.468c-.324 0-.582-.096-.774-.288a1.038 1.038 0 0 1-.288-.738c0-.288.096-.534.288-.738.192-.204.45-.306.774-.306.312 0 .558.102.738.306.18.204.27.45.27.738s-.09.534-.27.738c-.18.192-.426.288-.738.288Zm.774 1.368V447h-1.584v-9.342h1.584Zm7.01 1.224c-.72 0-1.308.168-1.764.504a3.682 3.682 0 0 0-1.08 1.26V447h-1.584v-9.342h1.494l.054 1.674h.036c.252-.54.648-.984 1.188-1.332.54-.348 1.224-.522 2.052-.522.924 0 1.656.246 2.196.738.552.48.828 1.224.828 2.232V447h-1.584v-6.39c0-.648-.162-1.098-.486-1.35-.324-.252-.774-.378-1.35-.378Zm13.953 7.326c0 .6-.09 1.146-.27 1.638-.168.504-.444.93-.828 1.278-.372.348-.858.618-1.458.81-.588.192-1.302.288-2.142.288-.456 0-.858-.024-1.206-.072a5.547 5.547 0 0 1-.918-.198 3.32 3.32 0 0 1-.648-.252 3.013 3.013 0 0 1-.45-.252v-1.422c.192.108.39.204.594.288.216.096.45.18.702.252a5.3 5.3 0 0 0 .846.162c.324.048.69.072 1.098.072 1.152 0 1.956-.216 2.412-.648.456-.432.684-1.074.684-1.926v-1.44a3.397 3.397 0 0 1-1.17 1.332c-.492.336-1.104.504-1.836.504-.552 0-1.08-.096-1.584-.288a3.92 3.92 0 0 1-1.314-.846 4.368 4.368 0 0 1-.9-1.422c-.216-.576-.324-1.242-.324-1.998 0-.768.108-1.434.324-1.998.228-.576.528-1.056.9-1.44a3.754 3.754 0 0 1 1.332-.864 4.462 4.462 0 0 1 1.602-.288c.744 0 1.368.168 1.872.504.516.336.918.792 1.206 1.368l.018-.198c0-.216.012-.474.036-.774.024-.312.048-.552.072-.72h1.44c-.024.168-.048.408-.072.72-.012.312-.018.57-.018.774v7.056Zm-4.302-1.008c.396 0 .756-.06 1.08-.18.336-.132.624-.33.864-.594.252-.264.444-.588.576-.972.144-.396.216-.858.216-1.386 0-1.068-.264-1.866-.792-2.394-.516-.528-1.17-.792-1.962-.792a3.12 3.12 0 0 0-1.116.198 2.44 2.44 0 0 0-.882.594c-.24.264-.432.6-.576 1.008-.144.396-.216.858-.216 1.386 0 .528.072.99.216 1.386.144.384.342.708.594.972.252.252.546.444.882.576.348.132.72.198 1.116.198Zm16.823.126a3.35 3.35 0 0 1-1.17 1.332c-.516.348-1.194.522-2.034.522-.864 0-1.566-.24-2.106-.72-.528-.492-.792-1.248-.792-2.268v-6.534h1.602v6.534c0 .312.042.57.126.774a1.329 1.329 0 0 0 .918.72c.216.048.45.072.702.072.696 0 1.254-.156 1.674-.468.42-.312.78-.738 1.08-1.278v-6.354h1.584V447h-1.404l-.144-1.674h-.036Zm8.882 1.854c-.72 0-1.344-.168-1.872-.504a3.665 3.665 0 0 1-1.242-1.386v4.896h-1.584v-12.528h1.386l.162 1.818a3.832 3.832 0 0 1 1.26-1.458c.528-.36 1.182-.54 1.962-.54.54 0 1.056.102 1.548.306.504.192.942.492 1.314.9.384.396.684.9.9 1.512.228.6.342 1.308.342 2.124 0 .828-.114 1.548-.342 2.16a4.515 4.515 0 0 1-.918 1.512 3.85 3.85 0 0 1-1.332.9 4.412 4.412 0 0 1-1.584.288Zm-.234-1.422c.828 0 1.494-.282 1.998-.846.516-.576.774-1.44.774-2.592 0-1.128-.258-1.98-.774-2.556-.504-.588-1.17-.882-1.998-.882-.408 0-.792.072-1.152.216-.348.144-.654.36-.918.648-.252.276-.456.63-.612 1.062-.144.432-.216.936-.216 1.512s.072 1.08.216 1.512c.156.432.36.792.612 1.08.264.288.57.504.918.648.36.132.744.198 1.152.198Zm14.874 1.134a10.698 10.698 0 0 1-.684 1.476c-.24.432-.51.798-.81 1.098-.3.3-.636.522-1.008.666a3.28 3.28 0 0 1-1.278.234c-.24 0-.462-.018-.666-.054a2.004 2.004 0 0 1-.558-.144v-1.53c.132.096.3.168.504.216.204.06.426.09.666.09.444 0 .81-.108 1.098-.324.288-.204.564-.534.828-.99l-3.798-9.972h1.746l2.97 7.884 2.952-7.884h1.53l-3.492 9.234Zm8.631.288c-.636 0-1.23-.108-1.782-.324a4.15 4.15 0 0 1-1.44-.936 4.561 4.561 0 0 1-.936-1.53c-.228-.6-.342-1.29-.342-2.07 0-.768.114-1.452.342-2.052.228-.612.54-1.122.936-1.53a4.15 4.15 0 0 1 1.44-.936 4.847 4.847 0 0 1 1.782-.324c.648 0 1.248.108 1.8.324a3.97 3.97 0 0 1 1.422.936c.408.408.726.918.954 1.53.24.6.36 1.284.36 2.052 0 .78-.12 1.47-.36 2.07-.228.6-.546 1.11-.954 1.53a3.97 3.97 0 0 1-1.422.936 4.897 4.897 0 0 1-1.8.324Zm0-1.422c.42 0 .804-.066 1.152-.198.36-.144.672-.354.936-.63.264-.288.468-.648.612-1.08.144-.432.216-.942.216-1.53 0-.588-.072-1.098-.216-1.53-.144-.432-.348-.786-.612-1.062a2.353 2.353 0 0 0-.936-.63 2.985 2.985 0 0 0-1.152-.216c-.42 0-.804.072-1.152.216a2.378 2.378 0 0 0-.918.63c-.252.276-.45.63-.594 1.062-.144.432-.216.942-.216 1.53 0 .588.072 1.098.216 1.53.144.432.342.792.594 1.08.264.276.57.486.918.63.348.132.732.198 1.152.198Zm12.46-.432a3.35 3.35 0 0 1-1.17 1.332c-.516.348-1.194.522-2.034.522-.864 0-1.566-.24-2.106-.72-.528-.492-.792-1.248-.792-2.268v-6.534h1.602v6.534c0 .312.042.57.126.774a1.329 1.329 0 0 0 .918.72c.216.048.45.072.702.072.696 0 1.254-.156 1.674-.468.42-.312.78-.738 1.08-1.278v-6.354h1.584V447h-1.404l-.144-1.674h-.036Zm8.81-6.084a4.862 4.862 0 0 0-1.836.522c-.54.276-.942.708-1.206 1.296V447h-1.584v-9.342h1.386l.162 2.034h.036a4.225 4.225 0 0 1 1.134-1.44c.504-.42 1.14-.678 1.908-.774v1.764Zm11.358 5.976a5.472 5.472 0 0 1-.414.684 3.132 3.132 0 0 1-1.53 1.098c-.336.12-.732.18-1.188.18-.84 0-1.518-.234-2.034-.702-.516-.48-.774-1.164-.774-2.052 0-1.02.354-1.77 1.062-2.25.72-.48 1.74-.72 3.06-.72h1.746v-.774c0-.648-.168-1.11-.504-1.386-.336-.276-.912-.414-1.728-.414-.576 0-1.122.096-1.638.288-.516.18-.978.39-1.386.63v-1.422c.336-.204.786-.402 1.35-.594a5.625 5.625 0 0 1 1.89-.306c1.176 0 2.07.246 2.682.738.612.48.918 1.23.918 2.25v5.4c.012.132.018.27.018.414l.036.414c.012.12.024.222.036.306h-1.44a8.223 8.223 0 0 1-.108-.702 10.76 10.76 0 0 1-.036-.81l-.018-.27Zm-2.79.54c.492 0 .912-.102 1.26-.306.348-.204.63-.438.846-.702a3.1 3.1 0 0 0 .468-.792c.096-.264.144-.45.144-.558v-.684h-1.584c-.948 0-1.638.138-2.07.414-.42.264-.63.666-.63 1.206 0 .42.126.762.378 1.026s.648.396 1.188.396Zm10.824 1.422c-.72 0-1.374-.108-1.962-.324a4.292 4.292 0 0 1-1.476-.954c-.408-.42-.72-.93-.936-1.53-.216-.6-.324-1.284-.324-2.052 0-.756.108-1.434.324-2.034.228-.6.546-1.104.954-1.512.408-.42.906-.738 1.494-.954.588-.228 1.254-.342 1.998-.342.576 0 1.104.066 1.584.198.48.12.876.3 1.188.54v1.422a4.197 4.197 0 0 0-1.296-.558 5.345 5.345 0 0 0-1.458-.198c-1.092 0-1.896.282-2.412.846-.504.564-.756 1.428-.756 2.592 0 1.164.246 2.028.738 2.592.492.564 1.272.846 2.34.846.564 0 1.08-.066 1.548-.198.48-.144.912-.324 1.296-.54v1.422a5.286 5.286 0 0 1-1.224.522c-.468.144-1.008.216-1.62.216Zm8.807 0c-.72 0-1.374-.108-1.962-.324a4.292 4.292 0 0 1-1.476-.954c-.408-.42-.72-.93-.936-1.53-.216-.6-.324-1.284-.324-2.052 0-.756.108-1.434.324-2.034.228-.6.546-1.104.954-1.512.408-.42.906-.738 1.494-.954.588-.228 1.254-.342 1.998-.342.576 0 1.104.066 1.584.198.48.12.876.3 1.188.54v1.422a4.197 4.197 0 0 0-1.296-.558 5.345 5.345 0 0 0-1.458-.198c-1.092 0-1.896.282-2.412.846-.504.564-.756 1.428-.756 2.592 0 1.164.246 2.028.738 2.592.492.564 1.272.846 2.34.846.564 0 1.08-.066 1.548-.198.48-.144.912-.324 1.296-.54v1.422a5.286 5.286 0 0 1-1.224.522c-.468.144-1.008.216-1.62.216Zm8.609 0c-.636 0-1.23-.108-1.782-.324a4.15 4.15 0 0 1-1.44-.936 4.561 4.561 0 0 1-.936-1.53c-.228-.6-.342-1.29-.342-2.07 0-.768.114-1.452.342-2.052.228-.612.54-1.122.936-1.53a4.15 4.15 0 0 1 1.44-.936 4.847 4.847 0 0 1 1.782-.324c.648 0 1.248.108 1.8.324a3.97 3.97 0 0 1 1.422.936c.408.408.726.918.954 1.53.24.6.36 1.284.36 2.052 0 .78-.12 1.47-.36 2.07-.228.6-.546 1.11-.954 1.53a3.97 3.97 0 0 1-1.422.936 4.897 4.897 0 0 1-1.8.324Zm0-1.422c.42 0 .804-.066 1.152-.198.36-.144.672-.354.936-.63.264-.288.468-.648.612-1.08.144-.432.216-.942.216-1.53 0-.588-.072-1.098-.216-1.53-.144-.432-.348-.786-.612-1.062a2.353 2.353 0 0 0-.936-.63 2.985 2.985 0 0 0-1.152-.216c-.42 0-.804.072-1.152.216a2.378 2.378 0 0 0-.918.63c-.252.276-.45.63-.594 1.062-.144.432-.216.942-.216 1.53 0 .588.072 1.098.216 1.53.144.432.342.792.594 1.08.264.276.57.486.918.63.348.132.732.198 1.152.198Zm12.461-.432a3.35 3.35 0 0 1-1.17 1.332c-.516.348-1.194.522-2.034.522-.864 0-1.566-.24-2.106-.72-.528-.492-.792-1.248-.792-2.268v-6.534h1.602v6.534c0 .312.042.57.126.774a1.329 1.329 0 0 0 .918.72c.216.048.45.072.702.072.696 0 1.254-.156 1.674-.468.42-.312.78-.738 1.08-1.278v-6.354h1.584V447h-1.404l-.144-1.674h-.036Zm8.611-6.444c-.72 0-1.308.168-1.764.504a3.682 3.682 0 0 0-1.08 1.26V447h-1.584v-9.342h1.494l.054 1.674h.036c.252-.54.648-.984 1.188-1.332.54-.348 1.224-.522 2.052-.522.924 0 1.656.246 2.196.738.552.48.828 1.224.828 2.232V447h-1.584v-6.39c0-.648-.162-1.098-.486-1.35-.324-.252-.774-.378-1.35-.378Zm10.498 7.92a2.895 2.895 0 0 1-.738.27c-.3.072-.618.108-.954.108-.456 0-.846-.066-1.17-.198a2.256 2.256 0 0 1-.774-.522 2.22 2.22 0 0 1-.45-.756 3.134 3.134 0 0 1-.126-.882v-5.814h-1.116v-1.35h1.116v-1.962h1.584v1.962h2.718v1.35h-2.718v5.616c0 .396.096.684.288.864.204.18.558.27 1.062.27.468 0 .894-.132 1.278-.396v1.44Z"/><rect width="306" height="90" x="826" y="396" fill="url(#b)" rx="6"/><path fill="#0055D9" d="M916.515 447.18a9.018 9.018 0 0 1-1.584-.126 7.605 7.605 0 0 1-1.242-.288 6.397 6.397 0 0 1-.9-.414 3.57 3.57 0 0 1-.576-.45v-1.62c.18.156.414.318.702.486.288.156.618.3.99.432.384.132.792.24 1.224.324.444.084.906.126 1.386.126.936 0 1.68-.174 2.232-.522.552-.36.828-.9.828-1.62 0-.36-.066-.654-.198-.882a1.604 1.604 0 0 0-.576-.594 3.355 3.355 0 0 0-.954-.414c-.372-.12-.81-.246-1.314-.378a24.048 24.048 0 0 1-1.512-.45 5.57 5.57 0 0 1-1.368-.666 3.37 3.37 0 0 1-.972-1.044c-.24-.42-.36-.954-.36-1.602 0-1.116.39-1.986 1.17-2.61.78-.624 1.974-.936 3.582-.936.468 0 .882.03 1.242.09.372.048.696.114.972.198.288.072.534.156.738.252.216.096.408.186.576.27v1.62a5.052 5.052 0 0 0-1.638-.684 7.785 7.785 0 0 0-1.89-.216c-.576 0-1.062.048-1.458.144-.384.084-.696.21-.936.378-.24.168-.414.372-.522.612-.108.24-.162.51-.162.81 0 .36.078.66.234.9.168.24.384.444.648.612.276.156.588.288.936.396.348.108.714.204 1.098.288.504.12 1.02.258 1.548.414a5.312 5.312 0 0 1 1.422.648c.42.276.762.636 1.026 1.08.276.432.414.996.414 1.692 0 .684-.138 1.266-.414 1.746a3.37 3.37 0 0 1-1.062 1.152 4.5 4.5 0 0 1-1.53.648 8.034 8.034 0 0 1-1.8.198Zm11.303-.378a2.895 2.895 0 0 1-.738.27c-.3.072-.618.108-.954.108-.456 0-.846-.066-1.17-.198a2.256 2.256 0 0 1-.774-.522 2.22 2.22 0 0 1-.45-.756 3.134 3.134 0 0 1-.126-.882v-5.814h-1.116v-1.35h1.116v-1.962h1.584v1.962h2.718v1.35h-2.718v5.616c0 .396.096.684.288.864.204.18.558.27 1.062.27.468 0 .894-.132 1.278-.396v1.44Zm7.58-1.584a5.472 5.472 0 0 1-.414.684 3.132 3.132 0 0 1-1.53 1.098c-.336.12-.732.18-1.188.18-.84 0-1.518-.234-2.034-.702-.516-.48-.774-1.164-.774-2.052 0-1.02.354-1.77 1.062-2.25.72-.48 1.74-.72 3.06-.72h1.746v-.774c0-.648-.168-1.11-.504-1.386-.336-.276-.912-.414-1.728-.414-.576 0-1.122.096-1.638.288-.516.18-.978.39-1.386.63v-1.422c.336-.204.786-.402 1.35-.594a5.625 5.625 0 0 1 1.89-.306c1.176 0 2.07.246 2.682.738.612.48.918 1.23.918 2.25v5.4c.012.132.018.27.018.414l.036.414c.012.12.024.222.036.306h-1.44a8.223 8.223 0 0 1-.108-.702 10.76 10.76 0 0 1-.036-.81l-.018-.27Zm-2.79.54c.492 0 .912-.102 1.26-.306.348-.204.63-.438.846-.702a3.1 3.1 0 0 0 .468-.792c.096-.264.144-.45.144-.558v-.684h-1.584c-.948 0-1.638.138-2.07.414-.42.264-.63.666-.63 1.206 0 .42.126.762.378 1.026s.648.396 1.188.396Zm11.418-6.516a4.862 4.862 0 0 0-1.836.522c-.54.276-.942.708-1.206 1.296V447H939.4v-9.342h1.386l.162 2.034h.036a4.225 4.225 0 0 1 1.134-1.44c.504-.42 1.14-.678 1.908-.774v1.764Zm6.591 7.56a2.895 2.895 0 0 1-.738.27c-.3.072-.618.108-.954.108-.456 0-.846-.066-1.17-.198a2.256 2.256 0 0 1-.774-.522 2.22 2.22 0 0 1-.45-.756 3.134 3.134 0 0 1-.126-.882v-5.814h-1.116v-1.35h1.116v-1.962h1.584v1.962h2.718v1.35h-2.718v5.616c0 .396.096.684.288.864.204.18.558.27 1.062.27.468 0 .894-.132 1.278-.396v1.44Zm2.918-10.512c-.324 0-.582-.096-.774-.288a1.038 1.038 0 0 1-.288-.738c0-.288.096-.534.288-.738.192-.204.45-.306.774-.306.312 0 .558.102.738.306.18.204.27.45.27.738s-.09.534-.27.738c-.18.192-.426.288-.738.288Zm.774 1.368V447h-1.584v-9.342h1.584Zm7.01 1.224c-.72 0-1.308.168-1.764.504a3.682 3.682 0 0 0-1.08 1.26V447h-1.584v-9.342h1.494l.054 1.674h.036c.252-.54.648-.984 1.188-1.332.54-.348 1.224-.522 2.052-.522.924 0 1.656.246 2.196.738.552.48.828 1.224.828 2.232V447h-1.584v-6.39c0-.648-.162-1.098-.486-1.35-.324-.252-.774-.378-1.35-.378Zm13.953 7.326c0 .6-.09 1.146-.27 1.638-.168.504-.444.93-.828 1.278-.372.348-.858.618-1.458.81-.588.192-1.302.288-2.142.288-.456 0-.858-.024-1.206-.072a5.547 5.547 0 0 1-.918-.198 3.32 3.32 0 0 1-.648-.252 3.013 3.013 0 0 1-.45-.252v-1.422c.192.108.39.204.594.288.216.096.45.18.702.252a5.3 5.3 0 0 0 .846.162c.324.048.69.072 1.098.072 1.152 0 1.956-.216 2.412-.648.456-.432.684-1.074.684-1.926v-1.44a3.397 3.397 0 0 1-1.17 1.332c-.492.336-1.104.504-1.836.504-.552 0-1.08-.096-1.584-.288a3.92 3.92 0 0 1-1.314-.846 4.368 4.368 0 0 1-.9-1.422c-.216-.576-.324-1.242-.324-1.998 0-.768.108-1.434.324-1.998.228-.576.528-1.056.9-1.44a3.754 3.754 0 0 1 1.332-.864 4.462 4.462 0 0 1 1.602-.288c.744 0 1.368.168 1.872.504.516.336.918.792 1.206 1.368l.018-.198c0-.216.012-.474.036-.774.024-.312.048-.552.072-.72h1.44c-.024.168-.048.408-.072.72-.012.312-.018.57-.018.774v7.056Zm-4.302-1.008c.396 0 .756-.06 1.08-.18.336-.132.624-.33.864-.594.252-.264.444-.588.576-.972.144-.396.216-.858.216-1.386 0-1.068-.264-1.866-.792-2.394-.516-.528-1.17-.792-1.962-.792a3.12 3.12 0 0 0-1.116.198 2.44 2.44 0 0 0-.882.594c-.24.264-.432.6-.576 1.008-.144.396-.216.858-.216 1.386 0 .528.072.99.216 1.386.144.384.342.708.594.972.252.252.546.444.882.576.348.132.72.198 1.116.198Zm15.401 1.602a2.895 2.895 0 0 1-.738.27c-.3.072-.618.108-.954.108-.456 0-.846-.066-1.17-.198a2.256 2.256 0 0 1-.774-.522 2.22 2.22 0 0 1-.45-.756 3.134 3.134 0 0 1-.126-.882v-5.814h-1.116v-1.35h1.116v-1.962h1.584v1.962h2.718v1.35h-2.718v5.616c0 .396.096.684.288.864.204.18.558.27 1.062.27.468 0 .894-.132 1.278-.396v1.44Zm6.536-7.92c-.72 0-1.308.168-1.764.504a3.682 3.682 0 0 0-1.08 1.26V447h-1.584v-12.906h1.584v3.564l-.036 1.674h.036c.252-.528.648-.966 1.188-1.314.54-.36 1.224-.54 2.052-.54.924 0 1.656.246 2.196.738.552.48.828 1.224.828 2.232V447h-1.584v-6.39c0-.648-.162-1.098-.486-1.35-.324-.252-.774-.378-1.35-.378Zm13.363 7.326c-.14.096-.3.198-.49.306-.19.108-.43.216-.7.324a6.03 6.03 0 0 1-.94.234c-.35.072-.74.108-1.17.108-1.57 0-2.76-.426-3.58-1.278-.816-.852-1.224-2.046-1.224-3.582 0-.756.108-1.434.324-2.034.228-.6.54-1.104.936-1.512.396-.42.864-.738 1.404-.954a4.49 4.49 0 0 1 1.76-.342c.68 0 1.28.114 1.8.342.53.228.96.564 1.3 1.008.35.444.58.996.7 1.656.13.648.13 1.404 0 2.268h-6.586c.06 1.008.356 1.764.896 2.268.54.492 1.35.738 2.42.738.72 0 1.33-.102 1.85-.306.52-.204.95-.426 1.3-.666v1.422Zm-3.71-7.326c-.69 0-1.27.21-1.77.63-.49.42-.8 1.056-.932 1.908h5.022c.05-.864-.15-1.5-.59-1.908-.45-.42-1.02-.63-1.73-.63Zm14.47 8.298c-.72 0-1.34-.168-1.87-.504-.52-.336-.93-.798-1.24-1.386v4.896h-1.59v-12.528h1.39l.16 1.818c.31-.612.73-1.098 1.26-1.458.53-.36 1.18-.54 1.96-.54.54 0 1.06.102 1.55.306.5.192.94.492 1.31.9.39.396.69.9.9 1.512.23.6.35 1.308.35 2.124 0 .828-.12 1.548-.35 2.16-.22.6-.53 1.104-.91 1.512a3.88 3.88 0 0 1-1.34.9c-.5.192-1.03.288-1.58.288Zm-.23-1.422c.82 0 1.49-.282 1.99-.846.52-.576.78-1.44.78-2.592 0-1.128-.26-1.98-.78-2.556-.5-.588-1.17-.882-1.99-.882-.41 0-.8.072-1.16.216-.34.144-.65.36-.91.648-.26.276-.46.63-.62 1.062-.14.432-.21.936-.21 1.512s.07 1.08.21 1.512c.16.432.36.792.62 1.08.26.288.57.504.91.648.36.132.75.198 1.16.198Zm10.16 1.422c-.64 0-1.23-.108-1.78-.324a4.188 4.188 0 0 1-1.44-.936c-.4-.42-.71-.93-.94-1.53-.23-.6-.34-1.29-.34-2.07 0-.768.11-1.452.34-2.052.23-.612.54-1.122.94-1.53.41-.408.89-.72 1.44-.936a4.813 4.813 0 0 1 1.78-.324c.65 0 1.25.108 1.8.324.55.216 1.03.528 1.42.936.41.408.73.918.96 1.53.24.6.36 1.284.36 2.052 0 .78-.12 1.47-.36 2.07-.23.6-.55 1.11-.96 1.53-.39.408-.87.72-1.42.936-.55.216-1.15.324-1.8.324Zm0-1.422c.42 0 .8-.066 1.15-.198.36-.144.67-.354.94-.63.26-.288.47-.648.61-1.08.14-.432.22-.942.22-1.53 0-.588-.08-1.098-.22-1.53a2.78 2.78 0 0 0-.61-1.062 2.409 2.409 0 0 0-.94-.63 2.982 2.982 0 0 0-1.15-.216c-.42 0-.8.072-1.15.216-.35.132-.66.342-.92.63-.25.276-.45.63-.59 1.062-.15.432-.22.942-.22 1.53 0 .588.07 1.098.22 1.53.14.432.34.792.59 1.08.26.276.57.486.92.63.35.132.73.198 1.15.198Zm10.3 1.422c-.64 0-1.23-.108-1.78-.324a4.188 4.188 0 0 1-1.44-.936c-.4-.42-.71-.93-.94-1.53-.23-.6-.34-1.29-.34-2.07 0-.768.11-1.452.34-2.052.23-.612.54-1.122.94-1.53.41-.408.89-.72 1.44-.936a4.813 4.813 0 0 1 1.78-.324c.65 0 1.25.108 1.8.324.55.216 1.03.528 1.42.936.41.408.73.918.96 1.53.24.6.36 1.284.36 2.052 0 .78-.12 1.47-.36 2.07-.23.6-.55 1.11-.96 1.53-.39.408-.87.72-1.42.936-.55.216-1.15.324-1.8.324Zm0-1.422c.42 0 .8-.066 1.15-.198.36-.144.67-.354.94-.63.26-.288.47-.648.61-1.08.14-.432.22-.942.22-1.53 0-.588-.08-1.098-.22-1.53a2.78 2.78 0 0 0-.61-1.062 2.409 2.409 0 0 0-.94-.63 2.982 2.982 0 0 0-1.15-.216c-.42 0-.8.072-1.15.216-.35.132-.66.342-.92.63-.25.276-.45.63-.59 1.062-.15.432-.22.942-.22 1.53 0 .588.07 1.098.22 1.53.14.432.34.792.59 1.08.26.276.57.486.92.63.35.132.73.198 1.15.198Zm8.05-11.664V447h-1.58v-12.906h1.58Z"/><rect width="306" height="90" y="396" fill="url(#c)" rx="6"/><path fill="#0055D9" d="M89.562 434.094h1.71v8.496c0 1.044.294 1.818.882 2.322.6.504 1.416.756 2.448.756.504 0 .966-.06 1.386-.18a3.28 3.28 0 0 0 1.116-.576c.312-.264.552-.588.72-.972.18-.384.27-.834.27-1.35v-8.496h1.62v8.442c0 .744-.132 1.404-.396 1.98a4.145 4.145 0 0 1-1.098 1.458 4.634 4.634 0 0 1-1.62.9 6.511 6.511 0 0 1-2.034.306 6.581 6.581 0 0 1-1.98-.288 4.588 4.588 0 0 1-1.602-.864 4.018 4.018 0 0 1-1.044-1.422c-.252-.576-.378-1.242-.378-1.998v-8.514Zm17.251 13.086c-.72 0-1.344-.168-1.872-.504a3.665 3.665 0 0 1-1.242-1.386v4.896h-1.584v-12.528h1.386l.162 1.818a3.832 3.832 0 0 1 1.26-1.458c.528-.36 1.182-.54 1.962-.54.54 0 1.056.102 1.548.306.504.192.942.492 1.314.9.384.396.684.9.9 1.512.228.6.342 1.308.342 2.124 0 .828-.114 1.548-.342 2.16a4.515 4.515 0 0 1-.918 1.512 3.85 3.85 0 0 1-1.332.9 4.412 4.412 0 0 1-1.584.288Zm-.234-1.422c.828 0 1.494-.282 1.998-.846.516-.576.774-1.44.774-2.592 0-1.128-.258-1.98-.774-2.556-.504-.588-1.17-.882-1.998-.882-.408 0-.792.072-1.152.216-.348.144-.654.36-.918.648-.252.276-.456.63-.612 1.062-.144.432-.216.936-.216 1.512s.072 1.08.216 1.512c.156.432.36.792.612 1.08.264.288.57.504.918.648.36.132.744.198 1.152.198Zm7.913-11.664V447h-1.584v-12.906h1.584Zm6.416 13.086c-.636 0-1.23-.108-1.782-.324a4.15 4.15 0 0 1-1.44-.936 4.561 4.561 0 0 1-.936-1.53c-.228-.6-.342-1.29-.342-2.07 0-.768.114-1.452.342-2.052.228-.612.54-1.122.936-1.53a4.15 4.15 0 0 1 1.44-.936 4.847 4.847 0 0 1 1.782-.324c.648 0 1.248.108 1.8.324a3.97 3.97 0 0 1 1.422.936c.408.408.726.918.954 1.53.24.6.36 1.284.36 2.052 0 .78-.12 1.47-.36 2.07-.228.6-.546 1.11-.954 1.53a3.97 3.97 0 0 1-1.422.936 4.897 4.897 0 0 1-1.8.324Zm0-1.422c.42 0 .804-.066 1.152-.198.36-.144.672-.354.936-.63.264-.288.468-.648.612-1.08.144-.432.216-.942.216-1.53 0-.588-.072-1.098-.216-1.53-.144-.432-.348-.786-.612-1.062a2.353 2.353 0 0 0-.936-.63 2.985 2.985 0 0 0-1.152-.216c-.42 0-.804.072-1.152.216a2.378 2.378 0 0 0-.918.63c-.252.276-.45.63-.594 1.062-.144.432-.216.942-.216 1.53 0 .588.072 1.098.216 1.53.144.432.342.792.594 1.08.264.276.57.486.918.63.348.132.732.198 1.152.198Zm11.763-.54a5.472 5.472 0 0 1-.414.684 3.132 3.132 0 0 1-1.53 1.098c-.336.12-.732.18-1.188.18-.84 0-1.518-.234-2.034-.702-.516-.48-.774-1.164-.774-2.052 0-1.02.354-1.77 1.062-2.25.72-.48 1.74-.72 3.06-.72h1.746v-.774c0-.648-.168-1.11-.504-1.386-.336-.276-.912-.414-1.728-.414-.576 0-1.122.096-1.638.288-.516.18-.978.39-1.386.63v-1.422c.336-.204.786-.402 1.35-.594a5.625 5.625 0 0 1 1.89-.306c1.176 0 2.07.246 2.682.738.612.48.918 1.23.918 2.25v5.4c.012.132.018.27.018.414l.036.414c.012.12.024.222.036.306h-1.44a8.223 8.223 0 0 1-.108-.702 10.76 10.76 0 0 1-.036-.81l-.018-.27Zm-2.79.54c.492 0 .912-.102 1.26-.306.348-.204.63-.438.846-.702a3.1 3.1 0 0 0 .468-.792c.096-.264.144-.45.144-.558v-.684h-1.584c-.948 0-1.638.138-2.07.414-.42.264-.63.666-.63 1.206 0 .42.126.762.378 1.026s.648.396 1.188.396Zm13.489-.594a3.748 3.748 0 0 1-1.206 1.476c-.516.36-1.17.54-1.962.54a4.462 4.462 0 0 1-1.602-.288 3.85 3.85 0 0 1-1.332-.9 4.515 4.515 0 0 1-.918-1.512c-.228-.612-.342-1.332-.342-2.16 0-.816.114-1.524.342-2.124.228-.612.534-1.116.918-1.512a3.545 3.545 0 0 1 1.332-.9 4.367 4.367 0 0 1 1.62-.306c.708 0 1.32.15 1.836.45.516.288.93.702 1.242 1.242v-5.076h1.584V447h-1.386l-.126-1.836Zm-2.934.594c.408 0 .786-.066 1.134-.198.348-.144.648-.36.9-.648.264-.288.468-.648.612-1.08.156-.432.234-.936.234-1.512s-.078-1.08-.234-1.512a2.957 2.957 0 0 0-.612-1.08 2.234 2.234 0 0 0-.9-.63 2.937 2.937 0 0 0-1.134-.216c-.828 0-1.506.294-2.034.882-.516.576-.774 1.428-.774 2.556 0 1.14.264 1.998.792 2.574.528.576 1.2.864 2.016.864Zm7.841-9.468c-.324 0-.582-.096-.774-.288a1.038 1.038 0 0 1-.288-.738c0-.288.096-.534.288-.738.192-.204.45-.306.774-.306.312 0 .558.102.738.306.18.204.27.45.27.738s-.09.534-.27.738c-.18.192-.426.288-.738.288Zm.774 1.368V447h-1.584v-9.342h1.584Zm7.01 1.224c-.72 0-1.308.168-1.764.504a3.682 3.682 0 0 0-1.08 1.26V447h-1.584v-9.342h1.494l.054 1.674h.036c.252-.54.648-.984 1.188-1.332.54-.348 1.224-.522 2.052-.522.924 0 1.656.246 2.196.738.552.48.828 1.224.828 2.232V447h-1.584v-6.39c0-.648-.162-1.098-.486-1.35-.324-.252-.774-.378-1.35-.378Zm13.953 7.326c0 .6-.09 1.146-.27 1.638-.168.504-.444.93-.828 1.278-.372.348-.858.618-1.458.81-.588.192-1.302.288-2.142.288-.456 0-.858-.024-1.206-.072a5.547 5.547 0 0 1-.918-.198 3.32 3.32 0 0 1-.648-.252 3.013 3.013 0 0 1-.45-.252v-1.422c.192.108.39.204.594.288.216.096.45.18.702.252a5.3 5.3 0 0 0 .846.162c.324.048.69.072 1.098.072 1.152 0 1.956-.216 2.412-.648.456-.432.684-1.074.684-1.926v-1.44a3.397 3.397 0 0 1-1.17 1.332c-.492.336-1.104.504-1.836.504-.552 0-1.08-.096-1.584-.288a3.92 3.92 0 0 1-1.314-.846 4.368 4.368 0 0 1-.9-1.422c-.216-.576-.324-1.242-.324-1.998 0-.768.108-1.434.324-1.998.228-.576.528-1.056.9-1.44a3.754 3.754 0 0 1 1.332-.864 4.462 4.462 0 0 1 1.602-.288c.744 0 1.368.168 1.872.504.516.336.918.792 1.206 1.368l.018-.198c0-.216.012-.474.036-.774.024-.312.048-.552.072-.72h1.44c-.024.168-.048.408-.072.72-.012.312-.018.57-.018.774v7.056Zm-4.302-1.008c.396 0 .756-.06 1.08-.18.336-.132.624-.33.864-.594.252-.264.444-.588.576-.972.144-.396.216-.858.216-1.386 0-1.068-.264-1.866-.792-2.394-.516-.528-1.17-.792-1.962-.792a3.12 3.12 0 0 0-1.116.198 2.44 2.44 0 0 0-.882.594c-.24.264-.432.6-.576 1.008-.144.396-.216.858-.216 1.386 0 .528.072.99.216 1.386.144.384.342.708.594.972.252.252.546.444.882.576.348.132.72.198 1.116.198Zm15.401 1.602a2.895 2.895 0 0 1-.738.27c-.3.072-.618.108-.954.108-.456 0-.846-.066-1.17-.198a2.256 2.256 0 0 1-.774-.522 2.22 2.22 0 0 1-.45-.756 3.134 3.134 0 0 1-.126-.882v-5.814h-1.116v-1.35h1.116v-1.962h1.584v1.962h2.718v1.35h-2.718v5.616c0 .396.096.684.288.864.204.18.558.27 1.062.27.468 0 .894-.132 1.278-.396v1.44Zm7.58-1.584a5.472 5.472 0 0 1-.414.684 3.132 3.132 0 0 1-1.53 1.098c-.336.12-.732.18-1.188.18-.84 0-1.518-.234-2.034-.702-.516-.48-.774-1.164-.774-2.052 0-1.02.354-1.77 1.062-2.25.72-.48 1.74-.72 3.06-.72h1.746v-.774c0-.648-.168-1.11-.504-1.386-.336-.276-.912-.414-1.728-.414-.576 0-1.122.096-1.638.288-.516.18-.978.39-1.386.63v-1.422c.336-.204.786-.402 1.35-.594a5.625 5.625 0 0 1 1.89-.306c1.176 0 2.07.246 2.682.738.612.48.918 1.23.918 2.25v5.4c.012.132.018.27.018.414l.036.414c.012.12.024.222.036.306h-1.44a8.223 8.223 0 0 1-.108-.702 10.76 10.76 0 0 1-.036-.81l-.018-.27Zm-2.79.54c.492 0 .912-.102 1.26-.306.348-.204.63-.438.846-.702a3.1 3.1 0 0 0 .468-.792c.096-.264.144-.45.144-.558v-.684h-1.584c-.948 0-1.638.138-2.07.414-.42.264-.63.666-.63 1.206 0 .42.126.762.378 1.026s.648.396 1.188.396Zm9.78 1.422c-.492 0-.93-.042-1.314-.126a6.17 6.17 0 0 1-.99-.27c-.276-.12-.51-.24-.702-.36a4.742 4.742 0 0 1-.45-.342v-1.422c.12.12.282.252.486.396.204.132.45.258.738.378s.612.222.972.306c.372.072.786.108 1.242.108.672 0 1.206-.108 1.602-.324.396-.216.594-.582.594-1.098 0-.276-.066-.498-.198-.666-.12-.168-.288-.3-.504-.396a3.104 3.104 0 0 0-.756-.252c-.276-.06-.57-.12-.882-.18a33.397 33.397 0 0 1-1.17-.27 4.096 4.096 0 0 1-1.044-.45 2.45 2.45 0 0 1-.756-.774c-.192-.324-.288-.744-.288-1.26 0-.84.324-1.5.972-1.98.66-.48 1.578-.72 2.754-.72.66 0 1.242.066 1.746.198.516.132.912.276 1.188.432v1.422c-.312-.204-.702-.372-1.17-.504-.456-.144-1.026-.216-1.71-.216-.708 0-1.254.096-1.638.288-.372.192-.558.54-.558 1.044 0 .252.054.456.162.612.108.144.252.264.432.36.192.084.408.15.648.198.24.048.492.102.756.162.408.084.828.174 1.26.27.432.096.816.246 1.152.45.348.204.63.48.846.828.228.336.342.792.342 1.368 0 .54-.108.99-.324 1.35-.216.36-.504.648-.864.864-.348.204-.75.348-1.206.432-.444.096-.9.144-1.368.144Zm8.126-4.158h-.828V447h-1.584v-12.906h1.584v7.578h.9l3.276-4.014h1.8l-3.834 4.608 3.906 4.734h-1.926l-3.294-3.978Zm9.417 4.158c-.492 0-.93-.042-1.314-.126a6.17 6.17 0 0 1-.99-.27c-.276-.12-.51-.24-.702-.36a4.742 4.742 0 0 1-.45-.342v-1.422c.12.12.282.252.486.396.204.132.45.258.738.378s.612.222.972.306c.372.072.786.108 1.242.108.672 0 1.206-.108 1.602-.324.396-.216.594-.582.594-1.098 0-.276-.066-.498-.198-.666-.12-.168-.288-.3-.504-.396a3.104 3.104 0 0 0-.756-.252c-.276-.06-.57-.12-.882-.18a33.397 33.397 0 0 1-1.17-.27 4.096 4.096 0 0 1-1.044-.45 2.45 2.45 0 0 1-.756-.774c-.192-.324-.288-.744-.288-1.26 0-.84.324-1.5.972-1.98.66-.48 1.578-.72 2.754-.72.66 0 1.242.066 1.746.198.516.132.912.276 1.188.432v1.422c-.312-.204-.702-.372-1.17-.504-.456-.144-1.026-.216-1.71-.216-.708 0-1.254.096-1.638.288-.372.192-.558.54-.558 1.044 0 .252.054.456.162.612.108.144.252.264.432.36.192.084.408.15.648.198.24.048.492.102.756.162.408.084.828.174 1.26.27.432.096.816.246 1.152.45.348.204.63.48.846.828.228.336.342.792.342 1.368 0 .54-.108.99-.324 1.35-.216.36-.504.648-.864.864-.348.204-.75.348-1.206.432-.444.096-.9.144-1.368.144Z"/><path stroke="#1E2126" stroke-width="2.009" d="M153.042 342v51.991"/><path fill="#1E2126" fill-rule="evenodd" d="m152.995 392.712 7.458-7.458 1.631 1.63-9.116 9.116-8.968-8.968 1.657-1.658 7.338 7.338Z" clip-rule="evenodd"/><path stroke="#1E2126" stroke-width="2.009" d="M153.042 144v51.991"/><path fill="#1E2126" fill-rule="evenodd" d="m152.995 194.712 7.458-7.458 1.631 1.63-9.116 9.116-8.968-8.968 1.657-1.658 7.338 7.338Z" clip-rule="evenodd"/><path stroke="#1E2126" stroke-width="2.009" d="M719 440.958h104.991"/><path fill="#1E2126" fill-rule="evenodd" d="m822.712 441.005-7.458-7.458 1.63-1.631 9.116 9.116-8.968 8.968-1.658-1.657 7.338-7.338Z" clip-rule="evenodd"/><path stroke="#1E2126" stroke-width="2.009" d="M306 440.958h104.991"/><path fill="#1E2126" fill-rule="evenodd" d="m409.712 441.005-7.458-7.458 1.63-1.631 9.116 9.116-8.969 8.968-1.657-1.657 7.338-7.338Z" clip-rule="evenodd"/><rect width="306" height="90" y="198" fill="url(#d)" rx="6"/><path fill="#0055D9" d="M79.221 249.18a9.018 9.018 0 0 1-1.584-.126 7.605 7.605 0 0 1-1.242-.288 6.397 6.397 0 0 1-.9-.414 3.57 3.57 0 0 1-.576-.45v-1.62c.18.156.414.318.702.486.288.156.618.3.99.432.384.132.792.24 1.224.324.444.084.906.126 1.386.126.936 0 1.68-.174 2.232-.522.552-.36.828-.9.828-1.62 0-.36-.066-.654-.198-.882a1.604 1.604 0 0 0-.576-.594 3.355 3.355 0 0 0-.954-.414c-.372-.12-.81-.246-1.314-.378a24.048 24.048 0 0 1-1.512-.45 5.57 5.57 0 0 1-1.368-.666 3.37 3.37 0 0 1-.972-1.044c-.24-.42-.36-.954-.36-1.602 0-1.116.39-1.986 1.17-2.61.78-.624 1.974-.936 3.582-.936.468 0 .882.03 1.242.09.372.048.696.114.972.198.288.072.534.156.738.252.216.096.408.186.576.27v1.62a5.052 5.052 0 0 0-1.638-.684 7.785 7.785 0 0 0-1.89-.216c-.576 0-1.062.048-1.458.144-.384.084-.696.21-.936.378-.24.168-.414.372-.522.612-.108.24-.162.51-.162.81 0 .36.078.66.234.9.168.24.384.444.648.612.276.156.588.288.936.396.348.108.714.204 1.098.288.504.12 1.02.258 1.548.414a5.312 5.312 0 0 1 1.422.648c.42.276.762.636 1.026 1.08.276.432.414.996.414 1.692 0 .684-.138 1.266-.414 1.746a3.37 3.37 0 0 1-1.062 1.152 4.5 4.5 0 0 1-1.53.648 8.034 8.034 0 0 1-1.8.198Zm14.253-.972a5.016 5.016 0 0 1-.486.306 5.636 5.636 0 0 1-.702.324 5.92 5.92 0 0 1-.936.234 5.796 5.796 0 0 1-1.17.108c-1.572 0-2.766-.426-3.582-1.278-.816-.852-1.224-2.046-1.224-3.582 0-.756.108-1.434.324-2.034.228-.6.54-1.104.936-1.512.396-.42.864-.738 1.404-.954a4.489 4.489 0 0 1 1.764-.342c.672 0 1.272.114 1.8.342.528.228.96.564 1.296 1.008.348.444.582.996.702 1.656.132.648.132 1.404 0 2.268h-6.588c.06 1.008.36 1.764.9 2.268.54.492 1.344.738 2.412.738.72 0 1.338-.102 1.854-.306a6.495 6.495 0 0 0 1.296-.666v1.422Zm-3.708-7.326c-.684 0-1.272.21-1.764.63-.492.42-.804 1.056-.936 1.908h5.022c.048-.864-.15-1.5-.594-1.908-.444-.42-1.02-.63-1.728-.63Zm10.391 7.92a2.893 2.893 0 0 1-.738.27c-.3.072-.618.108-.954.108-.456 0-.846-.066-1.17-.198a2.256 2.256 0 0 1-.774-.522 2.22 2.22 0 0 1-.45-.756 3.134 3.134 0 0 1-.126-.882v-5.814H94.83v-1.35h1.116v-1.962h1.584v1.962h2.718v1.35h-2.718v5.616c0 .396.096.684.288.864.204.18.558.27 1.062.27.468 0 .894-.132 1.278-.396v1.44Zm6.68 0a2.895 2.895 0 0 1-.738.27c-.3.072-.618.108-.954.108-.456 0-.846-.066-1.17-.198a2.256 2.256 0 0 1-.774-.522 2.22 2.22 0 0 1-.45-.756 3.134 3.134 0 0 1-.126-.882v-5.814h-1.116v-1.35h1.116v-1.962h1.584v1.962h2.718v1.35h-2.718v5.616c0 .396.096.684.288.864.204.18.558.27 1.062.27.468 0 .894-.132 1.278-.396v1.44Zm2.917-10.512c-.324 0-.582-.096-.774-.288a1.038 1.038 0 0 1-.288-.738c0-.288.096-.534.288-.738.192-.204.45-.306.774-.306.312 0 .558.102.738.306.18.204.27.45.27.738s-.09.534-.27.738c-.18.192-.426.288-.738.288Zm.774 1.368V249h-1.584v-9.342h1.584Zm7.01 1.224c-.72 0-1.308.168-1.764.504a3.682 3.682 0 0 0-1.08 1.26V249h-1.584v-9.342h1.494l.054 1.674h.036c.252-.54.648-.984 1.188-1.332.54-.348 1.224-.522 2.052-.522.924 0 1.656.246 2.196.738.552.48.828 1.224.828 2.232V249h-1.584v-6.39c0-.648-.162-1.098-.486-1.35-.324-.252-.774-.378-1.35-.378Zm13.954 7.326c0 .6-.09 1.146-.27 1.638-.168.504-.444.93-.828 1.278-.372.348-.858.618-1.458.81-.588.192-1.302.288-2.142.288-.456 0-.858-.024-1.206-.072a5.547 5.547 0 0 1-.918-.198 3.32 3.32 0 0 1-.648-.252 3.013 3.013 0 0 1-.45-.252v-1.422c.192.108.39.204.594.288.216.096.45.18.702.252a5.3 5.3 0 0 0 .846.162c.324.048.69.072 1.098.072 1.152 0 1.956-.216 2.412-.648.456-.432.684-1.074.684-1.926v-1.44a3.397 3.397 0 0 1-1.17 1.332c-.492.336-1.104.504-1.836.504-.552 0-1.08-.096-1.584-.288a3.92 3.92 0 0 1-1.314-.846 4.368 4.368 0 0 1-.9-1.422c-.216-.576-.324-1.242-.324-1.998 0-.768.108-1.434.324-1.998.228-.576.528-1.056.9-1.44a3.754 3.754 0 0 1 1.332-.864 4.462 4.462 0 0 1 1.602-.288c.744 0 1.368.168 1.872.504.516.336.918.792 1.206 1.368l.018-.198c0-.216.012-.474.036-.774.024-.312.048-.552.072-.72h1.44c-.024.168-.048.408-.072.72-.012.312-.018.57-.018.774v7.056Zm-4.302-1.008c.396 0 .756-.06 1.08-.18.336-.132.624-.33.864-.594.252-.264.444-.588.576-.972.144-.396.216-.858.216-1.386 0-1.068-.264-1.866-.792-2.394-.516-.528-1.17-.792-1.962-.792a3.12 3.12 0 0 0-1.116.198 2.44 2.44 0 0 0-.882.594c-.24.264-.432.6-.576 1.008-.144.396-.216.858-.216 1.386 0 .528.072.99.216 1.386.144.384.342.708.594.972.252.252.546.444.882.576.348.132.72.198 1.116.198Zm16.823.126a3.35 3.35 0 0 1-1.17 1.332c-.516.348-1.194.522-2.034.522-.864 0-1.566-.24-2.106-.72-.528-.492-.792-1.248-.792-2.268v-6.534h1.602v6.534c0 .312.042.57.126.774a1.329 1.329 0 0 0 .918.72c.216.048.45.072.702.072.696 0 1.254-.156 1.674-.468.42-.312.78-.738 1.08-1.278v-6.354h1.584V249h-1.404l-.144-1.674h-.036Zm8.881 1.854c-.72 0-1.344-.168-1.872-.504a3.665 3.665 0 0 1-1.242-1.386v4.896h-1.584v-12.528h1.386l.162 1.818a3.832 3.832 0 0 1 1.26-1.458c.528-.36 1.182-.54 1.962-.54.54 0 1.056.102 1.548.306.504.192.942.492 1.314.9.384.396.684.9.9 1.512.228.6.342 1.308.342 2.124 0 .828-.114 1.548-.342 2.16a4.515 4.515 0 0 1-.918 1.512 3.85 3.85 0 0 1-1.332.9 4.412 4.412 0 0 1-1.584.288Zm-.234-1.422c.828 0 1.494-.282 1.998-.846.516-.576.774-1.44.774-2.592 0-1.128-.258-1.98-.774-2.556-.504-.588-1.17-.882-1.998-.882-.408 0-.792.072-1.152.216-.348.144-.654.36-.918.648-.252.276-.456.63-.612 1.062-.144.432-.216.936-.216 1.512s.072 1.08.216 1.512c.156.432.36.792.612 1.08.264.288.57.504.918.648.36.132.744.198 1.152.198Zm15.756-.54a5.472 5.472 0 0 1-.414.684 3.132 3.132 0 0 1-1.53 1.098c-.336.12-.732.18-1.188.18-.84 0-1.518-.234-2.034-.702-.516-.48-.774-1.164-.774-2.052 0-1.02.354-1.77 1.062-2.25.72-.48 1.74-.72 3.06-.72h1.746v-.774c0-.648-.168-1.11-.504-1.386-.336-.276-.912-.414-1.728-.414-.576 0-1.122.096-1.638.288-.516.18-.978.39-1.386.63v-1.422c.336-.204.786-.402 1.35-.594a5.625 5.625 0 0 1 1.89-.306c1.176 0 2.07.246 2.682.738.612.48.918 1.23.918 2.25v5.4c.012.132.018.27.018.414l.036.414c.012.12.024.222.036.306h-1.44a8.223 8.223 0 0 1-.108-.702 10.76 10.76 0 0 1-.036-.81l-.018-.27Zm-2.79.54c.492 0 .912-.102 1.26-.306.348-.204.63-.438.846-.702a3.1 3.1 0 0 0 .468-.792c.096-.264.144-.45.144-.558v-.684h-1.584c-.948 0-1.638.138-2.07.414-.42.264-.63.666-.63 1.206 0 .42.126.762.378 1.026s.648.396 1.188.396Zm15.446 1.422c-.72 0-1.344-.168-1.872-.504a3.665 3.665 0 0 1-1.242-1.386v4.896h-1.584v-12.528h1.386l.162 1.818a3.832 3.832 0 0 1 1.26-1.458c.528-.36 1.182-.54 1.962-.54.54 0 1.056.102 1.548.306.504.192.942.492 1.314.9.384.396.684.9.9 1.512.228.6.342 1.308.342 2.124 0 .828-.114 1.548-.342 2.16a4.515 4.515 0 0 1-.918 1.512 3.85 3.85 0 0 1-1.332.9 4.412 4.412 0 0 1-1.584.288Zm-.234-1.422c.828 0 1.494-.282 1.998-.846.516-.576.774-1.44.774-2.592 0-1.128-.258-1.98-.774-2.556-.504-.588-1.17-.882-1.998-.882-.408 0-.792.072-1.152.216-.348.144-.654.36-.918.648-.252.276-.456.63-.612 1.062-.144.432-.216.936-.216 1.512s.072 1.08.216 1.512c.156.432.36.792.612 1.08.264.288.57.504.918.648.36.132.744.198 1.152.198Zm10.955-6.516a4.862 4.862 0 0 0-1.836.522c-.54.276-.942.708-1.206 1.296V249h-1.584v-9.342h1.386l.162 2.034h.036a4.225 4.225 0 0 1 1.134-1.44c.504-.42 1.14-.678 1.908-.774v1.764Zm5.501 7.938c-.636 0-1.23-.108-1.782-.324a4.15 4.15 0 0 1-1.44-.936 4.561 4.561 0 0 1-.936-1.53c-.228-.6-.342-1.29-.342-2.07 0-.768.114-1.452.342-2.052.228-.612.54-1.122.936-1.53a4.15 4.15 0 0 1 1.44-.936 4.847 4.847 0 0 1 1.782-.324c.648 0 1.248.108 1.8.324a3.97 3.97 0 0 1 1.422.936c.408.408.726.918.954 1.53.24.6.36 1.284.36 2.052 0 .78-.12 1.47-.36 2.07-.228.6-.546 1.11-.954 1.53a3.97 3.97 0 0 1-1.422.936 4.897 4.897 0 0 1-1.8.324Zm0-1.422c.42 0 .804-.066 1.152-.198.36-.144.672-.354.936-.63.264-.288.468-.648.612-1.08.144-.432.216-.942.216-1.53 0-.588-.072-1.098-.216-1.53-.144-.432-.348-.786-.612-1.062a2.353 2.353 0 0 0-.936-.63 2.985 2.985 0 0 0-1.152-.216c-.42 0-.804.072-1.152.216a2.378 2.378 0 0 0-.918.63c-.252.276-.45.63-.594 1.062-.144.432-.216.942-.216 1.53 0 .588.072 1.098.216 1.53.144.432.342.792.594 1.08.264.276.57.486.918.63.348.132.732.198 1.152.198Zm7.403-9.468c-.312 0-.564-.096-.756-.288a1.038 1.038 0 0 1-.288-.738c0-.288.096-.534.288-.738.192-.204.444-.306.756-.306s.558.102.738.306c.192.204.288.45.288.738s-.096.534-.288.738c-.18.192-.426.288-.738.288Zm.792 11.502c0 .348-.048.678-.144.99a2.026 2.026 0 0 1-.468.81c-.204.24-.468.426-.792.558-.324.144-.708.216-1.152.216-.24 0-.504-.03-.792-.09a2.827 2.827 0 0 1-.846-.288v-1.53c.168.132.366.246.594.342.228.096.486.144.774.144.456 0 .774-.108.954-.324a1.15 1.15 0 0 0 .288-.792v-10.17h1.584v10.134Zm10.012-1.584a5.016 5.016 0 0 1-.486.306 5.636 5.636 0 0 1-.702.324 5.92 5.92 0 0 1-.936.234 5.796 5.796 0 0 1-1.17.108c-1.572 0-2.766-.426-3.582-1.278-.816-.852-1.224-2.046-1.224-3.582 0-.756.108-1.434.324-2.034.228-.6.54-1.104.936-1.512.396-.42.864-.738 1.404-.954a4.489 4.489 0 0 1 1.764-.342c.672 0 1.272.114 1.8.342.528.228.96.564 1.296 1.008.348.444.582.996.702 1.656.132.648.132 1.404 0 2.268h-6.588c.06 1.008.36 1.764.9 2.268.54.492 1.344.738 2.412.738.72 0 1.338-.102 1.854-.306a6.495 6.495 0 0 0 1.296-.666v1.422Zm-3.708-7.326c-.684 0-1.272.21-1.764.63-.492.42-.804 1.056-.936 1.908h5.022c.048-.864-.15-1.5-.594-1.908-.444-.42-1.02-.63-1.728-.63Zm9.851 8.298c-.72 0-1.374-.108-1.962-.324a4.292 4.292 0 0 1-1.476-.954c-.408-.42-.72-.93-.936-1.53-.216-.6-.324-1.284-.324-2.052 0-.756.108-1.434.324-2.034.228-.6.546-1.104.954-1.512.408-.42.906-.738 1.494-.954.588-.228 1.254-.342 1.998-.342.576 0 1.104.066 1.584.198.48.12.876.3 1.188.54v1.422a4.197 4.197 0 0 0-1.296-.558 5.345 5.345 0 0 0-1.458-.198c-1.092 0-1.896.282-2.412.846-.504.564-.756 1.428-.756 2.592 0 1.164.246 2.028.738 2.592.492.564 1.272.846 2.34.846.564 0 1.08-.066 1.548-.198.48-.144.912-.324 1.296-.54v1.422a5.286 5.286 0 0 1-1.224.522c-.468.144-1.008.216-1.62.216Zm9.435-.378a2.895 2.895 0 0 1-.738.27c-.3.072-.618.108-.954.108-.456 0-.846-.066-1.17-.198a2.256 2.256 0 0 1-.774-.522 2.22 2.22 0 0 1-.45-.756 3.134 3.134 0 0 1-.126-.882v-5.814h-1.116v-1.35h1.116v-1.962h1.584v1.962h2.718v1.35h-2.718v5.616c0 .396.096.684.288.864.204.18.558.27 1.062.27.468 0 .894-.132 1.278-.396v1.44Z"/><rect width="306" height="90" x="413" y="198" fill="url(#e)" rx="6"/><path fill="#0055D9" d="M508.346 236.094h2.52L515.492 249h-1.8l-1.332-3.69h-5.706L505.34 249h-1.584l4.59-12.906Zm3.474 7.686-2.304-6.426-2.304 6.426h4.608Zm11.943 3.384a3.748 3.748 0 0 1-1.206 1.476c-.516.36-1.17.54-1.962.54a4.462 4.462 0 0 1-1.602-.288 3.85 3.85 0 0 1-1.332-.9 4.515 4.515 0 0 1-.918-1.512c-.228-.612-.342-1.332-.342-2.16 0-.816.114-1.524.342-2.124.228-.612.534-1.116.918-1.512a3.545 3.545 0 0 1 1.332-.9 4.367 4.367 0 0 1 1.62-.306c.708 0 1.32.15 1.836.45.516.288.93.702 1.242 1.242v-5.076h1.584V249h-1.386l-.126-1.836Zm-2.934.594c.408 0 .786-.066 1.134-.198.348-.144.648-.36.9-.648.264-.288.468-.648.612-1.08.156-.432.234-.936.234-1.512s-.078-1.08-.234-1.512a2.957 2.957 0 0 0-.612-1.08 2.234 2.234 0 0 0-.9-.63 2.937 2.937 0 0 0-1.134-.216c-.828 0-1.506.294-2.034.882-.516.576-.774 1.428-.774 2.556 0 1.14.264 1.998.792 2.574.528.576 1.2.864 2.016.864Zm13.726-.594a3.748 3.748 0 0 1-1.206 1.476c-.516.36-1.17.54-1.962.54a4.462 4.462 0 0 1-1.602-.288 3.85 3.85 0 0 1-1.332-.9 4.515 4.515 0 0 1-.918-1.512c-.228-.612-.342-1.332-.342-2.16 0-.816.114-1.524.342-2.124.228-.612.534-1.116.918-1.512a3.545 3.545 0 0 1 1.332-.9 4.367 4.367 0 0 1 1.62-.306c.708 0 1.32.15 1.836.45.516.288.93.702 1.242 1.242v-5.076h1.584V249h-1.386l-.126-1.836Zm-2.934.594c.408 0 .786-.066 1.134-.198.348-.144.648-.36.9-.648.264-.288.468-.648.612-1.08.156-.432.234-.936.234-1.512s-.078-1.08-.234-1.512a2.957 2.957 0 0 0-.612-1.08 2.234 2.234 0 0 0-.9-.63 2.937 2.937 0 0 0-1.134-.216c-.828 0-1.506.294-2.034.882-.516.576-.774 1.428-.774 2.556 0 1.14.264 1.998.792 2.574.528.576 1.2.864 2.016.864Zm7.841-9.468c-.324 0-.582-.096-.774-.288a1.038 1.038 0 0 1-.288-.738c0-.288.096-.534.288-.738.192-.204.45-.306.774-.306.312 0 .558.102.738.306.18.204.27.45.27.738s-.09.534-.27.738c-.18.192-.426.288-.738.288Zm.774 1.368V249h-1.584v-9.342h1.584Zm7.01 1.224c-.72 0-1.308.168-1.764.504a3.682 3.682 0 0 0-1.08 1.26V249h-1.584v-9.342h1.494l.054 1.674h.036c.252-.54.648-.984 1.188-1.332.54-.348 1.224-.522 2.052-.522.924 0 1.656.246 2.196.738.552.48.828 1.224.828 2.232V249h-1.584v-6.39c0-.648-.162-1.098-.486-1.35-.324-.252-.774-.378-1.35-.378Zm13.954 7.326c0 .6-.09 1.146-.27 1.638-.168.504-.444.93-.828 1.278-.372.348-.858.618-1.458.81-.588.192-1.302.288-2.142.288-.456 0-.858-.024-1.206-.072a5.547 5.547 0 0 1-.918-.198 3.32 3.32 0 0 1-.648-.252 3.013 3.013 0 0 1-.45-.252v-1.422c.192.108.39.204.594.288.216.096.45.18.702.252a5.3 5.3 0 0 0 .846.162c.324.048.69.072 1.098.072 1.152 0 1.956-.216 2.412-.648.456-.432.684-1.074.684-1.926v-1.44a3.397 3.397 0 0 1-1.17 1.332c-.492.336-1.104.504-1.836.504-.552 0-1.08-.096-1.584-.288a3.92 3.92 0 0 1-1.314-.846 4.368 4.368 0 0 1-.9-1.422c-.216-.576-.324-1.242-.324-1.998 0-.768.108-1.434.324-1.998.228-.576.528-1.056.9-1.44a3.754 3.754 0 0 1 1.332-.864 4.462 4.462 0 0 1 1.602-.288c.744 0 1.368.168 1.872.504.516.336.918.792 1.206 1.368l.018-.198c0-.216.012-.474.036-.774.024-.312.048-.552.072-.72h1.44c-.024.168-.048.408-.072.72-.012.312-.018.57-.018.774v7.056Zm-4.302-1.008c.396 0 .756-.06 1.08-.18.336-.132.624-.33.864-.594.252-.264.444-.588.576-.972.144-.396.216-.858.216-1.386 0-1.068-.264-1.866-.792-2.394-.516-.528-1.17-.792-1.962-.792a3.12 3.12 0 0 0-1.116.198 2.44 2.44 0 0 0-.882.594c-.24.264-.432.6-.576 1.008-.144.396-.216.858-.216 1.386 0 .528.072.99.216 1.386.144.384.342.708.594.972.252.252.546.444.882.576.348.132.72.198 1.116.198Zm15.401 1.602a2.895 2.895 0 0 1-.738.27c-.3.072-.618.108-.954.108-.456 0-.846-.066-1.17-.198a2.256 2.256 0 0 1-.774-.522 2.22 2.22 0 0 1-.45-.756 3.134 3.134 0 0 1-.126-.882v-5.814h-1.116v-1.35h1.116v-1.962h1.584v1.962h2.718v1.35h-2.718v5.616c0 .396.096.684.288.864.204.18.558.27 1.062.27.468 0 .894-.132 1.278-.396v1.44Zm6.733-7.56a4.862 4.862 0 0 0-1.836.522c-.54.276-.942.708-1.206 1.296V249h-1.584v-9.342h1.386l.162 2.034h.036a4.225 4.225 0 0 1 1.134-1.44c.504-.42 1.14-.678 1.908-.774v1.764Zm7.227 5.976a5.472 5.472 0 0 1-.414.684 3.132 3.132 0 0 1-1.53 1.098c-.336.12-.732.18-1.188.18-.84 0-1.518-.234-2.034-.702-.516-.48-.774-1.164-.774-2.052 0-1.02.354-1.77 1.062-2.25.72-.48 1.74-.72 3.06-.72h1.746v-.774c0-.648-.168-1.11-.504-1.386-.336-.276-.912-.414-1.728-.414-.576 0-1.122.096-1.638.288-.516.18-.978.39-1.386.63v-1.422c.336-.204.786-.402 1.35-.594a5.625 5.625 0 0 1 1.89-.306c1.176 0 2.07.246 2.682.738.612.48.918 1.23.918 2.25v5.4c.012.132.018.27.018.414l.036.414c.012.12.024.222.036.306h-1.44a8.223 8.223 0 0 1-.108-.702 10.76 10.76 0 0 1-.036-.81l-.018-.27Zm-2.79.54c.492 0 .912-.102 1.26-.306.348-.204.63-.438.846-.702a3.1 3.1 0 0 0 .468-.792c.096-.264.144-.45.144-.558v-.684h-1.584c-.948 0-1.638.138-2.07.414-.42.264-.63.666-.63 1.206 0 .42.126.762.378 1.026s.648.396 1.188.396Zm7.603-9.468c-.324 0-.582-.096-.774-.288a1.038 1.038 0 0 1-.288-.738c0-.288.096-.534.288-.738.192-.204.45-.306.774-.306.312 0 .558.102.738.306.18.204.27.45.27.738s-.09.534-.27.738c-.18.192-.426.288-.738.288Zm.774 1.368V249h-1.584v-9.342h1.584Zm7.01 1.224c-.72 0-1.308.168-1.764.504a3.682 3.682 0 0 0-1.08 1.26V249h-1.584v-9.342h1.494l.054 1.674h.036c.252-.54.648-.984 1.188-1.332.54-.348 1.224-.522 2.052-.522.924 0 1.656.246 2.196.738.552.48.828 1.224.828 2.232V249h-1.584v-6.39c0-.648-.162-1.098-.486-1.35-.324-.252-.774-.378-1.35-.378Zm6.735-2.592c-.324 0-.582-.096-.774-.288a1.038 1.038 0 0 1-.288-.738c0-.288.096-.534.288-.738.192-.204.45-.306.774-.306.312 0 .558.102.738.306.18.204.27.45.27.738s-.09.534-.27.738c-.18.192-.426.288-.738.288Zm.774 1.368V249h-1.584v-9.342h1.584Zm7.01 1.224c-.72 0-1.308.168-1.764.504a3.682 3.682 0 0 0-1.08 1.26V249h-1.584v-9.342h1.494l.054 1.674h.036c.252-.54.648-.984 1.188-1.332.54-.348 1.224-.522 2.052-.522.924 0 1.656.246 2.196.738.552.48.828 1.224.828 2.232V249h-1.584v-6.39c0-.648-.162-1.098-.486-1.35-.324-.252-.774-.378-1.35-.378Zm13.954 7.326c0 .6-.09 1.146-.27 1.638-.168.504-.444.93-.828 1.278-.372.348-.858.618-1.458.81-.588.192-1.302.288-2.142.288-.456 0-.858-.024-1.206-.072a5.547 5.547 0 0 1-.918-.198 3.32 3.32 0 0 1-.648-.252 3.013 3.013 0 0 1-.45-.252v-1.422c.192.108.39.204.594.288.216.096.45.18.702.252a5.3 5.3 0 0 0 .846.162c.324.048.69.072 1.098.072 1.152 0 1.956-.216 2.412-.648.456-.432.684-1.074.684-1.926v-1.44a3.397 3.397 0 0 1-1.17 1.332c-.492.336-1.104.504-1.836.504-.552 0-1.08-.096-1.584-.288a3.92 3.92 0 0 1-1.314-.846 4.368 4.368 0 0 1-.9-1.422c-.216-.576-.324-1.242-.324-1.998 0-.768.108-1.434.324-1.998.228-.576.528-1.056.9-1.44a3.754 3.754 0 0 1 1.332-.864 4.462 4.462 0 0 1 1.602-.288c.744 0 1.368.168 1.872.504.516.336.918.792 1.206 1.368l.018-.198c0-.216.012-.474.036-.774.024-.312.048-.552.072-.72h1.44c-.024.168-.048.408-.072.72-.012.312-.018.57-.018.774v7.056Zm-4.302-1.008c.396 0 .756-.06 1.08-.18.336-.132.624-.33.864-.594.252-.264.444-.588.576-.972.144-.396.216-.858.216-1.386 0-1.068-.264-1.866-.792-2.394-.516-.528-1.17-.792-1.962-.792a3.12 3.12 0 0 0-1.116.198 2.44 2.44 0 0 0-.882.594c-.24.264-.432.6-.576 1.008-.144.396-.216.858-.216 1.386 0 .528.072.99.216 1.386.144.384.342.708.594.972.252.252.546.444.882.576.348.132.72.198 1.116.198Z"/><rect width="306" height="90" x="826" y="198" fill="url(#f)" rx="6"/><path fill="#0055D9" d="M915.847 249.18a9.018 9.018 0 0 1-1.584-.126 7.605 7.605 0 0 1-1.242-.288 6.397 6.397 0 0 1-.9-.414 3.57 3.57 0 0 1-.576-.45v-1.62c.18.156.414.318.702.486.288.156.618.3.99.432.384.132.792.24 1.224.324.444.084.906.126 1.386.126.936 0 1.68-.174 2.232-.522.552-.36.828-.9.828-1.62 0-.36-.066-.654-.198-.882a1.604 1.604 0 0 0-.576-.594 3.355 3.355 0 0 0-.954-.414c-.372-.12-.81-.246-1.314-.378a24.048 24.048 0 0 1-1.512-.45 5.57 5.57 0 0 1-1.368-.666 3.37 3.37 0 0 1-.972-1.044c-.24-.42-.36-.954-.36-1.602 0-1.116.39-1.986 1.17-2.61.78-.624 1.974-.936 3.582-.936.468 0 .882.03 1.242.09.372.048.696.114.972.198.288.072.534.156.738.252.216.096.408.186.576.27v1.62a5.052 5.052 0 0 0-1.638-.684 7.785 7.785 0 0 0-1.89-.216c-.576 0-1.062.048-1.458.144-.384.084-.696.21-.936.378-.24.168-.414.372-.522.612-.108.24-.162.51-.162.81 0 .36.078.66.234.9.168.24.384.444.648.612.276.156.588.288.936.396.348.108.714.204 1.098.288.504.12 1.02.258 1.548.414a5.312 5.312 0 0 1 1.422.648c.42.276.762.636 1.026 1.08.276.432.414.996.414 1.692 0 .684-.138 1.266-.414 1.746a3.37 3.37 0 0 1-1.062 1.152 4.5 4.5 0 0 1-1.53.648 8.034 8.034 0 0 1-1.8.198Zm14.253-.972a5.016 5.016 0 0 1-.486.306 5.636 5.636 0 0 1-.702.324 5.92 5.92 0 0 1-.936.234 5.796 5.796 0 0 1-1.17.108c-1.572 0-2.766-.426-3.582-1.278-.816-.852-1.224-2.046-1.224-3.582 0-.756.108-1.434.324-2.034.228-.6.54-1.104.936-1.512.396-.42.864-.738 1.404-.954a4.489 4.489 0 0 1 1.764-.342c.672 0 1.272.114 1.8.342.528.228.96.564 1.296 1.008.348.444.582.996.702 1.656.132.648.132 1.404 0 2.268h-6.588c.06 1.008.36 1.764.9 2.268.54.492 1.344.738 2.412.738.72 0 1.338-.102 1.854-.306a6.495 6.495 0 0 0 1.296-.666v1.422Zm-3.708-7.326c-.684 0-1.272.21-1.764.63-.492.42-.804 1.056-.936 1.908h5.022c.048-.864-.15-1.5-.594-1.908-.444-.42-1.02-.63-1.728-.63Zm10.391 7.92a2.895 2.895 0 0 1-.738.27c-.3.072-.618.108-.954.108-.456 0-.846-.066-1.17-.198a2.256 2.256 0 0 1-.774-.522 2.22 2.22 0 0 1-.45-.756 3.134 3.134 0 0 1-.126-.882v-5.814h-1.116v-1.35h1.116v-1.962h1.584v1.962h2.718v1.35h-2.718v5.616c0 .396.096.684.288.864.204.18.558.27 1.062.27.468 0 .894-.132 1.278-.396v1.44Zm6.68 0a2.895 2.895 0 0 1-.738.27c-.3.072-.618.108-.954.108-.456 0-.846-.066-1.17-.198a2.256 2.256 0 0 1-.774-.522 2.22 2.22 0 0 1-.45-.756 3.134 3.134 0 0 1-.126-.882v-5.814h-1.116v-1.35h1.116v-1.962h1.584v1.962h2.718v1.35h-2.718v5.616c0 .396.096.684.288.864.204.18.558.27 1.062.27.468 0 .894-.132 1.278-.396v1.44Zm2.917-10.512c-.324 0-.582-.096-.774-.288a1.038 1.038 0 0 1-.288-.738c0-.288.096-.534.288-.738.192-.204.45-.306.774-.306.312 0 .558.102.738.306.18.204.27.45.27.738s-.09.534-.27.738c-.18.192-.426.288-.738.288Zm.774 1.368V249h-1.584v-9.342h1.584Zm7.01 1.224c-.72 0-1.308.168-1.764.504a3.682 3.682 0 0 0-1.08 1.26V249h-1.584v-9.342h1.494l.054 1.674h.036c.252-.54.648-.984 1.188-1.332.54-.348 1.224-.522 2.052-.522.924 0 1.656.246 2.196.738.552.48.828 1.224.828 2.232V249H956v-6.39c0-.648-.162-1.098-.486-1.35-.324-.252-.774-.378-1.35-.378Zm13.954 7.326c0 .6-.09 1.146-.27 1.638-.168.504-.444.93-.828 1.278-.372.348-.858.618-1.458.81-.588.192-1.302.288-2.142.288-.456 0-.858-.024-1.206-.072a5.547 5.547 0 0 1-.918-.198 3.32 3.32 0 0 1-.648-.252 3.013 3.013 0 0 1-.45-.252v-1.422c.192.108.39.204.594.288.216.096.45.18.702.252a5.3 5.3 0 0 0 .846.162c.324.048.69.072 1.098.072 1.152 0 1.956-.216 2.412-.648.456-.432.684-1.074.684-1.926v-1.44a3.397 3.397 0 0 1-1.17 1.332c-.492.336-1.104.504-1.836.504-.552 0-1.08-.096-1.584-.288a3.92 3.92 0 0 1-1.314-.846 4.368 4.368 0 0 1-.9-1.422c-.216-.576-.324-1.242-.324-1.998 0-.768.108-1.434.324-1.998.228-.576.528-1.056.9-1.44a3.754 3.754 0 0 1 1.332-.864 4.462 4.462 0 0 1 1.602-.288c.744 0 1.368.168 1.872.504.516.336.918.792 1.206 1.368l.018-.198c0-.216.012-.474.036-.774.024-.312.048-.552.072-.72h1.44c-.024.168-.048.408-.072.72-.012.312-.018.57-.018.774v7.056Zm-4.302-1.008c.396 0 .756-.06 1.08-.18.336-.132.624-.33.864-.594.252-.264.444-.588.576-.972.144-.396.216-.858.216-1.386 0-1.068-.264-1.866-.792-2.394-.516-.528-1.17-.792-1.962-.792a3.12 3.12 0 0 0-1.116.198 2.44 2.44 0 0 0-.882.594c-.24.264-.432.6-.576 1.008-.144.396-.216.858-.216 1.386 0 .528.072.99.216 1.386.144.384.342.708.594.972.252.252.546.444.882.576.348.132.72.198 1.116.198Zm16.823.126a3.35 3.35 0 0 1-1.17 1.332c-.516.348-1.194.522-2.034.522-.864 0-1.566-.24-2.106-.72-.528-.492-.792-1.248-.792-2.268v-6.534h1.602v6.534c0 .312.042.57.126.774a1.329 1.329 0 0 0 .918.72c.216.048.45.072.702.072.696 0 1.254-.156 1.674-.468.42-.312.78-.738 1.08-1.278v-6.354h1.584V249h-1.404l-.144-1.674h-.036Zm8.881 1.854c-.72 0-1.344-.168-1.872-.504a3.665 3.665 0 0 1-1.242-1.386v4.896h-1.584v-12.528h1.386l.162 1.818a3.832 3.832 0 0 1 1.26-1.458c.528-.36 1.182-.54 1.962-.54.54 0 1.056.102 1.548.306.504.192.942.492 1.314.9.384.396.684.9.9 1.512.228.6.342 1.308.342 2.124 0 .828-.114 1.548-.342 2.16a4.515 4.515 0 0 1-.918 1.512 3.85 3.85 0 0 1-1.332.9 4.412 4.412 0 0 1-1.584.288Zm-.234-1.422c.828 0 1.494-.282 1.998-.846.516-.576.774-1.44.774-2.592 0-1.128-.258-1.98-.774-2.556-.504-.588-1.17-.882-1.998-.882-.408 0-.792.072-1.152.216-.348.144-.654.36-.918.648-.252.276-.456.63-.612 1.062-.144.432-.216.936-.216 1.512s.072 1.08.216 1.512c.156.432.36.792.612 1.08.264.288.57.504.918.648.36.132.744.198 1.152.198Zm15.754-.54c-.11.216-.24.444-.41.684a3.133 3.133 0 0 1-1.53 1.098c-.34.12-.73.18-1.19.18-.84 0-1.52-.234-2.034-.702-.516-.48-.774-1.164-.774-2.052 0-1.02.354-1.77 1.058-2.25.72-.48 1.74-.72 3.06-.72h1.75v-.774c0-.648-.17-1.11-.5-1.386-.34-.276-.92-.414-1.73-.414-.58 0-1.12.096-1.64.288-.52.18-.98.39-1.386.63v-1.422c.336-.204.786-.402 1.346-.594a5.659 5.659 0 0 1 1.89-.306c1.18 0 2.07.246 2.69.738.61.48.91 1.23.91 2.25v5.4c.02.132.02.27.02.414.01.144.03.282.04.414.01.12.02.222.03.306h-1.44a8.443 8.443 0 0 1-.14-1.512l-.02-.27Zm-2.79.54c.49 0 .91-.102 1.26-.306.35-.204.63-.438.85-.702.21-.276.37-.54.47-.792.09-.264.14-.45.14-.558v-.684h-1.58c-.95 0-1.64.138-2.07.414-.42.264-.63.666-.63 1.206 0 .42.12.762.37 1.026.26.264.65.396 1.19.396Zm15.45 1.422c-.72 0-1.35-.168-1.87-.504-.52-.336-.93-.798-1.25-1.386v4.896H1013v-12.528h1.39l.16 1.818c.31-.612.73-1.098 1.26-1.458.53-.36 1.18-.54 1.96-.54.54 0 1.06.102 1.55.306.5.192.94.492 1.31.9.39.396.69.9.9 1.512.23.6.34 1.308.34 2.124 0 .828-.11 1.548-.34 2.16-.23.6-.53 1.104-.92 1.512a3.75 3.75 0 0 1-1.33.9c-.5.192-1.03.288-1.58.288Zm-.24-1.422c.83 0 1.5-.282 2-.846.52-.576.78-1.44.78-2.592 0-1.128-.26-1.98-.78-2.556-.5-.588-1.17-.882-2-.882-.4 0-.79.072-1.15.216-.35.144-.65.36-.92.648-.25.276-.45.63-.61 1.062-.14.432-.21.936-.21 1.512s.07 1.08.21 1.512c.16.432.36.792.61 1.08.27.288.57.504.92.648.36.132.75.198 1.15.198Zm10.17 1.422c-.64 0-1.23-.108-1.78-.324a4.008 4.008 0 0 1-1.44-.936c-.4-.42-.71-.93-.94-1.53-.23-.6-.34-1.29-.34-2.07 0-.768.11-1.452.34-2.052.23-.612.54-1.122.94-1.53.4-.408.88-.72 1.44-.936a4.813 4.813 0 0 1 1.78-.324c.65 0 1.25.108 1.8.324.55.216 1.02.528 1.42.936.41.408.73.918.95 1.53.24.6.36 1.284.36 2.052 0 .78-.12 1.47-.36 2.07-.22.6-.54 1.11-.95 1.53-.4.408-.87.72-1.42.936-.55.216-1.15.324-1.8.324Zm0-1.422c.42 0 .8-.066 1.15-.198.36-.144.67-.354.94-.63.26-.288.46-.648.61-1.08.14-.432.21-.942.21-1.53 0-.588-.07-1.098-.21-1.53-.15-.432-.35-.786-.61-1.062a2.409 2.409 0 0 0-.94-.63 2.982 2.982 0 0 0-1.15-.216c-.42 0-.81.072-1.15.216-.35.132-.66.342-.92.63-.25.276-.45.63-.6 1.062-.14.432-.21.942-.21 1.53 0 .588.07 1.098.21 1.53.15.432.35.792.6 1.08.26.276.57.486.92.63.34.132.73.198 1.15.198Zm10.3 1.422c-.64 0-1.23-.108-1.78-.324a4.008 4.008 0 0 1-1.44-.936c-.4-.42-.71-.93-.94-1.53-.23-.6-.34-1.29-.34-2.07 0-.768.11-1.452.34-2.052.23-.612.54-1.122.94-1.53.4-.408.88-.72 1.44-.936a4.813 4.813 0 0 1 1.78-.324c.65 0 1.25.108 1.8.324.55.216 1.02.528 1.42.936.41.408.73.918.95 1.53.24.6.36 1.284.36 2.052 0 .78-.12 1.47-.36 2.07-.22.6-.54 1.11-.95 1.53-.4.408-.87.72-1.42.936-.55.216-1.15.324-1.8.324Zm0-1.422c.42 0 .8-.066 1.15-.198.36-.144.67-.354.94-.63.26-.288.46-.648.61-1.08.14-.432.21-.942.21-1.53 0-.588-.07-1.098-.21-1.53-.15-.432-.35-.786-.61-1.062a2.409 2.409 0 0 0-.94-.63 2.982 2.982 0 0 0-1.15-.216c-.42 0-.81.072-1.15.216-.35.132-.66.342-.92.63-.25.276-.45.63-.6 1.062-.14.432-.21.942-.21 1.53 0 .588.07 1.098.21 1.53.15.432.35.792.6 1.08.26.276.57.486.92.63.34.132.73.198 1.15.198Zm8.05-11.664V249h-1.59v-12.906h1.59Z"/><path stroke="#1E2126" stroke-width="2.009" d="M306 242.958h104.991"/><path fill="#1E2126" fill-rule="evenodd" d="m409.712 243.005-7.458-7.458 1.63-1.631 9.116 9.116-8.968 8.968-1.658-1.657 7.338-7.338Z" clip-rule="evenodd"/><path stroke="#1E2126" stroke-width="2.009" d="M719 242.958h104.991"/><path fill="#1E2126" fill-rule="evenodd" d="m822.712 243.005-7.458-7.458 1.63-1.631 9.116 9.116-8.968 8.968-1.658-1.657 7.338-7.338Z" clip-rule="evenodd"/><path stroke="#1E2126" stroke-width="2" d="M979 288v54.5M566 90v54.5M980 343H152.5M567 145H153.5"/><defs><linearGradient id="a" x1="565.997" x2="565.997" y1="364" y2="529.043" gradientUnits="userSpaceOnUse"><stop offset=".02" stop-color="#0064FF"/><stop offset=".06" stop-color="#005FFF" stop-opacity=".86"/><stop offset=".11" stop-color="#005BFF" stop-opacity=".72"/><stop offset=".17" stop-color="#0057FF" stop-opacity=".59"/><stop offset=".23" stop-color="#0053FF" stop-opacity=".48"/><stop offset=".3" stop-color="#0051FF" stop-opacity=".4"/><stop offset=".38" stop-color="#004FFF" stop-opacity=".33"/><stop offset=".48" stop-color="#004DFF" stop-opacity=".28"/><stop offset=".61" stop-color="#004CFF" stop-opacity=".26"/><stop offset="1" stop-color="#004CFF" stop-opacity=".25"/></linearGradient><linearGradient id="b" x1="978.997" x2="978.997" y1="364" y2="529.043" gradientUnits="userSpaceOnUse"><stop offset=".02" stop-color="#0064FF"/><stop offset=".06" stop-color="#005FFF" stop-opacity=".86"/><stop offset=".11" stop-color="#005BFF" stop-opacity=".72"/><stop offset=".17" stop-color="#0057FF" stop-opacity=".59"/><stop offset=".23" stop-color="#0053FF" stop-opacity=".48"/><stop offset=".3" stop-color="#0051FF" stop-opacity=".4"/><stop offset=".38" stop-color="#004FFF" stop-opacity=".33"/><stop offset=".48" stop-color="#004DFF" stop-opacity=".28"/><stop offset=".61" stop-color="#004CFF" stop-opacity=".26"/><stop offset="1" stop-color="#004CFF" stop-opacity=".25"/></linearGradient><linearGradient id="c" x1="152.997" x2="152.997" y1="364" y2="529.043" gradientUnits="userSpaceOnUse"><stop offset=".02" stop-color="#0064FF"/><stop offset=".06" stop-color="#005FFF" stop-opacity=".86"/><stop offset=".11" stop-color="#005BFF" stop-opacity=".72"/><stop offset=".17" stop-color="#0057FF" stop-opacity=".59"/><stop offset=".23" stop-color="#0053FF" stop-opacity=".48"/><stop offset=".3" stop-color="#0051FF" stop-opacity=".4"/><stop offset=".38" stop-color="#004FFF" stop-opacity=".33"/><stop offset=".48" stop-color="#004DFF" stop-opacity=".28"/><stop offset=".61" stop-color="#004CFF" stop-opacity=".26"/><stop offset="1" stop-color="#004CFF" stop-opacity=".25"/></linearGradient><linearGradient id="d" x1="152.997" x2="152.997" y1="166" y2="331.043" gradientUnits="userSpaceOnUse"><stop offset=".02" stop-color="#0064FF"/><stop offset=".06" stop-color="#005FFF" stop-opacity=".86"/><stop offset=".11" stop-color="#005BFF" stop-opacity=".72"/><stop offset=".17" stop-color="#0057FF" stop-opacity=".59"/><stop offset=".23" stop-color="#0053FF" stop-opacity=".48"/><stop offset=".3" stop-color="#0051FF" stop-opacity=".4"/><stop offset=".38" stop-color="#004FFF" stop-opacity=".33"/><stop offset=".48" stop-color="#004DFF" stop-opacity=".28"/><stop offset=".61" stop-color="#004CFF" stop-opacity=".26"/><stop offset="1" stop-color="#004CFF" stop-opacity=".25"/></linearGradient><linearGradient id="e" x1="565.997" x2="565.997" y1="166" y2="331.043" gradientUnits="userSpaceOnUse"><stop offset=".02" stop-color="#0064FF"/><stop offset=".06" stop-color="#005FFF" stop-opacity=".86"/><stop offset=".11" stop-color="#005BFF" stop-opacity=".72"/><stop offset=".17" stop-color="#0057FF" stop-opacity=".59"/><stop offset=".23" stop-color="#0053FF" stop-opacity=".48"/><stop offset=".3" stop-color="#0051FF" stop-opacity=".4"/><stop offset=".38" stop-color="#004FFF" stop-opacity=".33"/><stop offset=".48" stop-color="#004DFF" stop-opacity=".28"/><stop offset=".61" stop-color="#004CFF" stop-opacity=".26"/><stop offset="1" stop-color="#004CFF" stop-opacity=".25"/></linearGradient><linearGradient id="f" x1="978.997" x2="978.997" y1="166" y2="331.043" gradientUnits="userSpaceOnUse"><stop offset=".02" stop-color="#0064FF"/><stop offset=".06" stop-color="#005FFF" stop-opacity=".86"/><stop offset=".11" stop-color="#005BFF" stop-opacity=".72"/><stop offset=".17" stop-color="#0057FF" stop-opacity=".59"/><stop offset=".23" stop-color="#0053FF" stop-opacity=".48"/><stop offset=".3" stop-color="#0051FF" stop-opacity=".4"/><stop offset=".38" stop-color="#004FFF" stop-opacity=".33"/><stop offset=".48" stop-color="#004DFF" stop-opacity=".28"/><stop offset=".61" stop-color="#004CFF" stop-opacity=".26"/><stop offset="1" stop-color="#004CFF" stop-opacity=".25"/></linearGradient></defs></svg>