<svg width="12" height="16" fill="none" xmlns="http://www.w3.org/2000/svg"><path d="M10.834 2.915 4.047.154C3-.41.872.687.25 1.638a1.49 1.49 0 0 0-.248.911l.093 9.097a.968.968 0 0 0 .464.58l6.152 3.2a.612.612 0 0 0 .343.094c.1 0 .2-.023.289-.069a.55.55 0 0 0 .323-.488V5.42a.557.557 0 0 0-.303-.481L1.281 2.243c.25-.345.588-.618.98-.79a1.464 1.464 0 0 1 1.171-.158l6 2.489c.213.107.213.124.213.31v9.072c0 .453.46.639.798.639a.736.736 0 0 0 .687-.64v-9.77a.546.546 0 0 0-.296-.48z" fill="#000"/></svg>
