<svg xmlns="http://www.w3.org/2000/svg" xml:space="preserve" style="enable-background:new 0 0 1920 1080" viewBox="0 0 1920 1080"><style>.st0,.st2{fill:#fff;stroke:#000;stroke-width:2;stroke-miterlimit:10}.st2{fill:none}.st8{stroke-linecap:round;stroke-linejoin:round;stroke-miterlimit:79.8403}.st19,.st22,.st31,.st33,.st8,.st9{fill:none;stroke:#0055d9;stroke-width:1.8529}.st19,.st22,.st31,.st33{stroke-width:1.5}.st22,.st31,.st33{stroke:#1e2126}.st31,.st33{stroke:#d95d2b}.st33{stroke:#000}.st34,.st35{fill:none;stroke:#7f7f7f;stroke-dasharray:2,2}.st35{stroke-width:.7596;stroke-dasharray:1.52,1.52}.st37{display:inline}.st38{font-family:&quot;YSText-Regular&quot;}.st39{font-size:34.9424px}</style><g id="Eng"><circle cx="630.4" cy="222.4" r="12.7" class="st0"/><path d="M618.4 295.7h24.7v24.7h-24.7zM643 276.4h-24.6l12.5-24.6z" class="st0"/><path d="M664.4 221.9h-1.8v7.3h-2.2v-17.1h2.2v7.7h1.7l6.1-7.7h2.5l-6.7 8.5 7 8.5h-2.8l-6-7.2zM679.8 229.5c-.8 0-1.6-.1-2.4-.4s-1.4-.7-1.9-1.2-.9-1.2-1.2-2c-.3-.8-.5-1.7-.5-2.7 0-1 .2-1.9.5-2.7.3-.8.7-1.5 1.2-2s1.2-1 1.9-1.2 1.5-.4 2.4-.4c.9 0 1.6.1 2.4.4.7.3 1.4.7 1.9 1.2s1 1.2 1.3 2c.3.8.5 1.7.5 2.7 0 1-.2 1.9-.5 2.7-.3.8-.7 1.5-1.3 2-.5.5-1.2 1-1.9 1.2-.7.2-1.5.4-2.4.4zm0-1.9c.6 0 1.1-.1 1.5-.3.5-.2.9-.5 1.2-.8.3-.4.6-.8.8-1.4.2-.6.3-1.2.3-2s-.1-1.5-.3-2c-.2-.6-.5-1-.8-1.4-.3-.4-.8-.7-1.2-.8s-1-.3-1.5-.3c-.6 0-1.1.1-1.5.3-.5.2-.9.5-1.2.8-.3.4-.6.8-.8 1.4-.2.6-.3 1.2-.3 2s.1 1.5.3 2c.2.6.5 1 .8 1.4.3.4.7.7 1.2.8.5.2 1 .3 1.5.3zM703.8 229.2h-15.4v-12.4h2.1v10.6h4.6v-10.6h2.1v10.6h4.6v-10.6h2.1v12.4zM710.4 224h-1.1v5.3h-2.1v-12.4h2.1v5.3h1.2l4.3-5.3h2.4l-5.1 6.1 5.2 6.3h-2.5l-4.4-5.3zM726.5 226.9c-.1.3-.3.6-.5.9-.2.3-.5.6-.8.8-.3.3-.7.5-1.2.6s-1 .2-1.6.2c-1.1 0-2-.3-2.7-.9-.7-.6-1-1.5-1-2.7 0-1.3.5-2.3 1.4-3 .9-.6 2.3-1 4-1h2.3v-1c0-.9-.2-1.5-.7-1.8-.4-.4-1.2-.5-2.3-.5-.8 0-1.5.1-2.2.4-.7.2-1.3.5-1.8.8v-1.9c.4-.3 1-.5 1.8-.8s1.6-.4 2.5-.4c1.6 0 2.7.3 3.5 1 .8.6 1.2 1.6 1.2 3v8.6h-1.9c0-.2-.1-.5-.1-.9s-.1-.8-.1-1.1l.2-.3zm-3.7.7c.7 0 1.2-.1 1.7-.4.5-.3.8-.6 1.1-.9.3-.4.5-.7.6-1.1.1-.3.2-.6.2-.7v-.9h-2.1c-1.3 0-2.2.2-2.7.5-.6.4-.8.9-.8 1.6 0 .6.2 1 .5 1.4.3.3.8.5 1.5.5zM667.8 274.6c-1.3 0-2.4-.2-3.5-.6s-1.9-1-2.7-1.7c-.7-.8-1.3-1.7-1.7-2.8s-.6-2.3-.6-3.7c0-1.4.2-2.6.5-3.7.4-1.1.9-2 1.6-2.7s1.6-1.3 2.6-1.7c1-.4 2.2-.6 3.6-.6 1.2 0 2.2.1 3 .4s1.6.5 2.1.9v2.1c-.7-.5-1.5-.8-2.5-1-.9-.2-1.8-.3-2.7-.3-2 0-3.5.6-4.5 1.7s-1.4 2.8-1.4 5.1.5 4 1.6 5.1c1 1.1 2.6 1.7 4.6 1.7.9 0 1.7-.1 2.6-.4.8-.2 1.6-.6 2.4-1.2v2.1c-.5.4-1.1.7-2 1-.8.2-1.8.3-3 .3zM681 274.6c-.8 0-1.6-.1-2.4-.4s-1.4-.7-1.9-1.2-.9-1.2-1.2-2c-.3-.8-.5-1.7-.5-2.7 0-1 .2-1.9.5-2.7.3-.8.7-1.5 1.2-2s1.2-1 1.9-1.2 1.5-.4 2.4-.4c.9 0 1.6.1 2.4.4.7.3 1.4.7 1.9 1.2s1 1.2 1.3 2c.3.8.5 1.7.5 2.7 0 1-.2 1.9-.5 2.7-.3.8-.7 1.5-1.3 2-.5.5-1.2 1-1.9 1.2-.7.3-1.5.4-2.4.4zm0-1.8c.6 0 1.1-.1 1.5-.3.5-.2.9-.5 1.2-.8.3-.4.6-.8.8-1.4.2-.6.3-1.2.3-2s-.1-1.5-.3-2c-.2-.6-.5-1-.8-1.4-.3-.4-.8-.7-1.2-.8s-1-.3-1.5-.3c-.6 0-1.1.1-1.5.3-.5.2-.9.5-1.2.8-.3.4-.6.8-.8 1.4-.2.6-.3 1.2-.3 2s.1 1.5.3 2c.2.6.5 1 .8 1.4.3.4.7.7 1.2.8.5.2 1 .3 1.5.3zM700.7 268.2c0 1-.2 1.9-.5 2.7-.3.8-.7 1.5-1.3 2-.5.5-1.2 1-1.9 1.2-.7.3-1.5.4-2.4.4-.9 0-1.7-.1-2.4-.4-.7-.3-1.4-.7-1.9-1.3-.5-.6-.9-1.4-1.2-2.3s-.4-2-.4-3.3c0-1 0-2 .1-3 .1-.9.2-1.8.4-2.6s.5-1.5 1-2.2c.4-.6 1-1.2 1.7-1.6.4-.2.8-.4 1.2-.5.4-.1.9-.2 1.3-.3s.9-.1 1.3-.1h1.3c.6 0 1.2-.1 1.6-.2.4-.1.8-.3 1.1-.5v1.9c-.3.2-.7.4-1.1.5-.4.1-.9.2-1.4.2-.9.1-1.7.1-2.5.2s-1.4.2-2.1.5c-.8.4-1.4 1.1-1.7 2-.3.9-.5 1.9-.6 3.1.8-1.9 2.4-2.9 4.7-2.9.8 0 1.5.1 2.2.4.7.3 1.3.7 1.8 1.2s.9 1.2 1.2 2 .5 1.9.5 2.9zm-6 4.6c.6 0 1.1-.1 1.5-.3.5-.2.9-.5 1.2-.8.3-.4.6-.8.8-1.4.2-.6.3-1.2.3-2s-.1-1.5-.3-2c-.2-.6-.5-1-.8-1.4-.3-.4-.8-.7-1.2-.8-.5-.2-1-.3-1.5-.3-1.1 0-2 .4-2.7 1.1-.7.7-1.1 1.9-1.1 3.4 0 .8.1 1.5.3 2.1s.5 1.1.8 1.4.7.7 1.2.8c.4.1 1 .2 1.5.2zM710.6 272c-.1.3-.3.6-.5.9-.2.3-.5.6-.8.8-.3.3-.7.5-1.2.6s-1 .2-1.6.2c-1.1 0-2-.3-2.7-.9-.7-.6-1-1.5-1-2.7 0-1.3.5-2.3 1.4-3 .9-.6 2.3-1 4-1h2.3v-1c0-.9-.2-1.5-.7-1.8-.4-.4-1.2-.5-2.3-.5-.8 0-1.5.1-2.2.4-.7.2-1.3.5-1.8.8V263c.4-.3 1-.5 1.8-.8s1.6-.4 2.5-.4c1.6 0 2.7.3 3.5 1 .8.6 1.2 1.6 1.2 3v8.6h-1.9c0-.2-.1-.5-.1-.9s-.1-.8-.1-1.1l.2-.4zm-3.7.8c.7 0 1.2-.1 1.7-.4.5-.3.8-.6 1.1-.9.3-.4.5-.7.6-1.1.1-.3.2-.6.2-.7v-.9h-2.1c-1.3 0-2.2.2-2.7.5-.6.4-.8.9-.8 1.6 0 .6.2 1 .5 1.4.2.3.8.5 1.5.5zM719 269.1h-1.1v5.3h-2.1V262h2.1v5.3h1.2l4.3-5.3h2.4l-5.1 6.1 5.2 6.3h-2.5l-4.4-5.3zM735.1 272c-.1.3-.3.6-.5.9-.2.3-.5.6-.8.8-.3.3-.7.5-1.2.6s-1 .2-1.6.2c-1.1 0-2-.3-2.7-.9-.7-.6-1-1.5-1-2.7 0-1.3.5-2.3 1.4-3 .9-.6 2.3-1 4-1h2.3v-1c0-.9-.2-1.5-.7-1.8-.4-.4-1.2-.5-2.3-.5-.8 0-1.5.1-2.2.4-.7.2-1.3.5-1.8.8V263c.4-.3 1-.5 1.8-.8s1.6-.4 2.5-.4c1.6 0 2.7.3 3.5 1 .8.6 1.2 1.6 1.2 3v8.6h-1.9c0-.2-.1-.5-.1-.9s-.1-.8-.1-1.1l.2-.4zm-3.7.8c.7 0 1.2-.1 1.7-.4.5-.3.8-.6 1.1-.9.3-.4.5-.7.6-1.1.1-.3.2-.6.2-.7v-.9h-2.1c-1.3 0-2.2.2-2.7.5-.6.4-.8.9-.8 1.6 0 .6.2 1 .5 1.4.3.3.8.5 1.5.5zM670.4 314.4h2.2v6.1h-2.1l-.2-4H658l-.3 4h-2v-6.1h1.2c.5-.5 1-1.2 1.3-2 .3-.8.6-1.9.7-3.1.2-1.2.3-2.7.4-4.3.1-1.6.1-3.5.2-5.7h10.9v15.1zm-2.3 0v-13h-6.5c0 1.8-.1 3.4-.2 4.8s-.2 2.6-.4 3.7-.4 1.9-.6 2.7-.6 1.4-.9 1.9h8.6zM681.5 316.7c-1 0-1.8-.2-2.5-.7-.7-.4-1.2-1.1-1.7-1.8v6.5h-2.1v-16.6h1.8l.2 2.4c.4-.8 1-1.5 1.7-1.9s1.6-.7 2.6-.7c.7 0 1.4.1 2.1.4.7.3 1.2.7 1.7 1.2s.9 1.2 1.2 2c.3.8.4 1.7.4 2.8 0 1.1-.2 2-.5 2.8-.3.8-.7 1.5-1.2 2s-1.1.9-1.8 1.2c-.5.3-1.2.4-1.9.4zm-.3-1.9c1.1 0 2-.4 2.7-1.1.7-.8 1-1.9 1-3.4s-.3-2.6-1-3.4c-.7-.8-1.6-1.2-2.7-1.2-.5 0-1 .1-1.5.3-.5.2-.9.5-1.2.8-.3.4-.6.8-.8 1.4-.2.6-.3 1.2-.3 2s.1 1.4.3 2c.2.6.5 1 .8 1.4.3.4.7.7 1.2.8.4.4.9.4 1.5.4zM694.6 318.3c-.3.6-.7 1-1.1 1.4-.4.4-.8.7-1.3.9-.5.2-1.1.3-1.7.3-.3 0-.6 0-.9-.1-.3 0-.5-.1-.7-.2v-2c.2.1.4.2.7.3.3.1.6.1.9.1.6 0 1.1-.1 1.5-.4.4-.3.7-.7 1.1-1.3l-5-13.2h2.3l3.9 10.4 3.9-10.4h2l-4.6 12.2-1 2zM702.2 304.1h7.9v1.8h-5.8v10.6h-2.1v-12.4zM717.3 316.7c-.8 0-1.6-.1-2.4-.4s-1.4-.7-1.9-1.2-.9-1.2-1.2-2c-.3-.8-.5-1.7-.5-2.7 0-1 .2-1.9.5-2.7.3-.8.7-1.5 1.2-2s1.2-1 1.9-1.2 1.5-.4 2.4-.4c.9 0 1.6.1 2.4.4.7.3 1.4.7 1.9 1.2s1 1.2 1.3 2c.3.8.5 1.7.5 2.7 0 1-.2 1.9-.5 2.7-.3.8-.7 1.5-1.3 2-.5.5-1.2 1-1.9 1.2-.8.3-1.6.4-2.4.4zm0-1.9c.6 0 1.1-.1 1.5-.3.5-.2.9-.5 1.2-.8.3-.4.6-.8.8-1.4.2-.6.3-1.2.3-2s-.1-1.5-.3-2c-.2-.6-.5-1-.8-1.4-.3-.4-.8-.7-1.2-.8s-1-.3-1.5-.3c-.6 0-1.1.1-1.5.3-.5.2-.9.5-1.2.8-.3.4-.6.8-.8 1.4-.2.6-.3 1.2-.3 2s.1 1.5.3 2c.2.6.5 1 .8 1.4.3.4.7.7 1.2.8.4.3.9.3 1.5.3zM735.7 315.4c-.2.1-.4.3-.6.4-.3.1-.6.3-.9.4s-.8.2-1.2.3c-.5.1-1 .1-1.5.1-2.1 0-3.7-.6-4.7-1.7-1.1-1.1-1.6-2.7-1.6-4.7 0-1 .1-1.9.4-2.7.3-.8.7-1.5 1.2-2s1.1-1 1.9-1.3c.7-.3 1.5-.4 2.3-.4.9 0 1.7.2 2.4.5s1.3.7 1.7 1.3.8 1.3.9 2.2c.2.9.2 1.9 0 3h-8.7c.1 1.3.5 2.3 1.2 3 .7.7 1.8 1 3.2 1 1 0 1.8-.1 2.5-.4s1.3-.6 1.7-.9v1.9zm-4.9-9.7c-.9 0-1.7.3-2.3.8-.7.6-1.1 1.4-1.2 2.5h6.6c.1-1.1-.2-2-.8-2.5-.6-.5-1.4-.8-2.3-.8z"/><linearGradient id="SVGID_1_" x1="459.379" x2="460.393" y1="203.614" y2="328.837" gradientUnits="userSpaceOnUse"><stop offset=".162" style="stop-color:#1e2126;stop-opacity:.32"/><stop offset=".974" style="stop-color:#1e2126;stop-opacity:6.000000e-02"/></linearGradient><path d="M500.1 331.4h-80.4c-5.5 0-10-4.5-10-10V213.1c0-5.5 4.5-10 10-10h80.4c5.5 0 10 4.5 10 10v108.3c0 5.5-4.5 10-10 10z" style="fill:url(#SVGID_1_)"/><path d="m485.8 258.9-.1-19.1c0-1.8-2.1-2.7-3.4-1.4l-10 10-12.4.2-12.4-.2-10-10c-1.3-1.3-3.4-.4-3.4 1.4l-.1 19.1c-12.5 11.2-5.8 21.6-1.8 24.8 4.4 3.5 16.7 13.1 27.5 13.1h.4c10.8 0 23.1-9.5 27.5-13.1 4-3.2 10.8-13.7-1.8-24.8z" class="st2"/><linearGradient id="SVGID_2_" x1="459.379" x2="460.393" y1="391.219" y2="516.443" gradientUnits="userSpaceOnUse"><stop offset=".162" style="stop-color:#1e2126;stop-opacity:.32"/><stop offset=".974" style="stop-color:#1e2126;stop-opacity:6.000000e-02"/></linearGradient><path d="M500.1 519h-80.4c-5.5 0-10-4.5-10-10V400.7c0-5.5 4.5-10 10-10h80.4c5.5 0 10 4.5 10 10V509c0 5.5-4.5 10-10 10z" style="fill:url(#SVGID_2_)"/><path d="m485.8 446.5-.1-19.1c0-1.8-2.1-2.7-3.4-1.4l-10 10-12.4.2-12.4-.2-10-10c-1.3-1.3-3.4-.4-3.4 1.4l-.1 19.1c-12.5 11.2-5.8 21.6-1.8 24.8 4.4 3.5 16.7 13.1 27.5 13.1h.4c10.8 0 23.1-9.5 27.5-13.1 4-3.2 10.8-13.7-1.8-24.8z" class="st2"/><linearGradient id="SVGID_3_" x1="253.772" x2="251.744" y1="521.675" y2="341.168" gradientUnits="userSpaceOnUse"><stop offset="0" style="stop-color:#a1bfff;stop-opacity:.17"/><stop offset="1" style="stop-color:#679bff;stop-opacity:.92"/></linearGradient><path d="M293.2 519h-80.4c-5.5 0-10-4.5-10-10V400.7c0-5.5 4.5-10 10-10h80.4c5.5 0 10 4.5 10 10V509c0 5.5-4.5 10-10 10z" style="fill:url(#SVGID_3_)"/><path d="m278.9 446.5-.1-19.1c0-1.8-2.1-2.7-3.4-1.4l-10 10-12.4.2-12.4-.2-10-10c-1.3-1.3-3.4-.4-3.4 1.4l-.1 19.1c-12.5 11.2-5.8 21.6-1.8 24.8 4.4 3.5 16.7 13.1 27.5 13.1h.4c10.8 0 23.1-9.5 27.5-13.1 4-3.2 10.8-13.7-1.8-24.8z" class="st2"/><path d="M0-.8h1920v1080H0z" style="fill:#fff"/><linearGradient id="SVGID_4_" x1="254.034" x2="254.034" y1="422.058" y2="521.651" gradientTransform="matrix(1 0 0 -1 0 1080)" gradientUnits="userSpaceOnUse"><stop offset="0" style="stop-color:#a1bfff;stop-opacity:.17"/><stop offset="1" style="stop-color:#679bff;stop-opacity:.92"/></linearGradient><path d="M229 565.1c23.9-13.8 54.5-5.6 68.3 18.3 13.8 23.9 5.6 54.5-18.3 68.3-23.9 13.8-54.5 5.6-68.3-18.3-13.8-23.9-5.6-54.5 18.3-68.3z" style="fill:url(#SVGID_4_)"/><linearGradient id="SVGID_5_" x1="294.796" x2="294.796" y1="543.409" y2="420.201" gradientTransform="matrix(1 0 0 -1 0 1080)" gradientUnits="userSpaceOnUse"><stop offset=".02" style="stop-color:#0064ff"/><stop offset=".06" style="stop-color:#005fff;stop-opacity:.86"/><stop offset=".11" style="stop-color:#005bff;stop-opacity:.72"/><stop offset=".17" style="stop-color:#0057ff;stop-opacity:.59"/><stop offset=".23" style="stop-color:#0053ff;stop-opacity:.48"/><stop offset=".3" style="stop-color:#0051ff;stop-opacity:.4"/><stop offset=".38" style="stop-color:#004fff;stop-opacity:.33"/><stop offset=".48" style="stop-color:#004dff;stop-opacity:.28"/><stop offset=".61" style="stop-color:#004cff;stop-opacity:.26"/><stop offset="1" style="stop-color:#004cff;stop-opacity:.25"/></linearGradient><path d="M315.2 550.9v33.3c0 2-1.7 3.7-3.7 3.7h-33.4c-2 0-3.7-1.7-3.7-3.7v-33.3c0-2 1.7-3.7 3.7-3.7h33.4c2 0 3.7 1.7 3.7 3.7z" style="fill-rule:evenodd;clip-rule:evenodd;fill:url(#SVGID_5_)"/><path d="m289.2 565.8 7.4-7.4v18.5" class="st8"/><path d="M219.6 635.9c.9-3.5 1.9-6.5 5-8 5.3-2.5 10.7-4.5 16.4-6.3 4.2-1.6 5.4-4.3 5.1-8.8-2.2-1.3-3.9-3.9-4.9-6.8-1.4-4.6-2.5-11.6-2-17.2 1.2-8.7 7.6-12.8 15-12.8s13.8 4.1 15 12.8c.5 5.6-.6 12.6-2 17.2-1 3-2.7 5.5-4.9 6.8-.3 4.5 1 7.3 5.1 8.8 5.7 1.8 11.1 3.8 16.4 6.3 3.1 1.5 4.1 4.5 5 8" class="st9"/><linearGradient id="SVGID_6_" x1="460.034" x2="460.034" y1="422.058" y2="521.651" gradientTransform="matrix(1 0 0 -1 0 1080)" gradientUnits="userSpaceOnUse"><stop offset="0" style="stop-color:#a1bfff;stop-opacity:.17"/><stop offset="1" style="stop-color:#679bff;stop-opacity:.92"/></linearGradient><path d="M435 565.1c23.9-13.8 54.5-5.6 68.3 18.3 13.8 23.9 5.6 54.5-18.3 68.3-23.9 13.8-54.5 5.6-68.3-18.3-13.8-23.9-5.6-54.5 18.3-68.3z" style="fill:url(#SVGID_6_)"/><linearGradient id="SVGID_7_" x1="500.796" x2="500.796" y1="543.409" y2="420.201" gradientTransform="matrix(1 0 0 -1 0 1080)" gradientUnits="userSpaceOnUse"><stop offset=".02" style="stop-color:#0064ff"/><stop offset=".06" style="stop-color:#005fff;stop-opacity:.86"/><stop offset=".11" style="stop-color:#005bff;stop-opacity:.72"/><stop offset=".17" style="stop-color:#0057ff;stop-opacity:.59"/><stop offset=".23" style="stop-color:#0053ff;stop-opacity:.48"/><stop offset=".3" style="stop-color:#0051ff;stop-opacity:.4"/><stop offset=".38" style="stop-color:#004fff;stop-opacity:.33"/><stop offset=".48" style="stop-color:#004dff;stop-opacity:.28"/><stop offset=".61" style="stop-color:#004cff;stop-opacity:.26"/><stop offset="1" style="stop-color:#004cff;stop-opacity:.25"/></linearGradient><path d="M521.2 550.9v33.3c0 2-1.7 3.7-3.7 3.7h-33.4c-2 0-3.7-1.7-3.7-3.7v-33.3c0-2 1.7-3.7 3.7-3.7h33.4c2 0 3.7 1.7 3.7 3.7z" style="fill-rule:evenodd;clip-rule:evenodd;fill:url(#SVGID_7_)"/><path d="M494.9 561.2c1.1-1.7 2.9-3.1 7-2.8 4.7.5 7 5 3.5 8.2l-11.2 9.4h13" class="st8"/><path d="M425.6 635.9c.9-3.5 1.9-6.5 5-8 5.3-2.5 10.7-4.5 16.4-6.3 4.2-1.6 5.4-4.3 5.1-8.8-2.2-1.3-3.9-3.9-4.9-6.8-1.4-4.6-2.5-11.6-2-17.2 1.2-8.7 7.6-12.8 15-12.8s13.8 4.1 15 12.8c.5 5.6-.6 12.6-2 17.2-1 3-2.7 5.5-4.9 6.8-.3 4.5 1 7.3 5.1 8.8 5.7 1.8 11.1 3.8 16.4 6.3 3.1 1.5 4.1 4.5 5 8" class="st9"/><linearGradient id="SVGID_8_" x1="668.034" x2="668.034" y1="422.058" y2="521.651" gradientTransform="matrix(1 0 0 -1 0 1080)" gradientUnits="userSpaceOnUse"><stop offset="0" style="stop-color:#a1bfff;stop-opacity:.17"/><stop offset="1" style="stop-color:#679bff;stop-opacity:.92"/></linearGradient><path d="M643 565.1c23.9-13.8 54.5-5.6 68.3 18.3 13.8 23.9 5.6 54.5-18.3 68.3-23.9 13.8-54.5 5.6-68.3-18.3-13.8-23.9-5.6-54.5 18.3-68.3z" style="fill:url(#SVGID_8_)"/><linearGradient id="SVGID_9_" x1="708.795" x2="708.795" y1="543.409" y2="420.201" gradientTransform="matrix(1 0 0 -1 0 1080)" gradientUnits="userSpaceOnUse"><stop offset=".02" style="stop-color:#0064ff"/><stop offset=".06" style="stop-color:#005fff;stop-opacity:.86"/><stop offset=".11" style="stop-color:#005bff;stop-opacity:.72"/><stop offset=".17" style="stop-color:#0057ff;stop-opacity:.59"/><stop offset=".23" style="stop-color:#0053ff;stop-opacity:.48"/><stop offset=".3" style="stop-color:#0051ff;stop-opacity:.4"/><stop offset=".38" style="stop-color:#004fff;stop-opacity:.33"/><stop offset=".48" style="stop-color:#004dff;stop-opacity:.28"/><stop offset=".61" style="stop-color:#004cff;stop-opacity:.26"/><stop offset="1" style="stop-color:#004cff;stop-opacity:.25"/></linearGradient><path d="M729.2 550.9v33.3c0 2-1.7 3.7-3.7 3.7h-33.4c-2 0-3.7-1.7-3.7-3.7v-33.3c0-2 1.7-3.7 3.7-3.7h33.4c2 0 3.7 1.7 3.7 3.7z" style="fill-rule:evenodd;clip-rule:evenodd;fill:url(#SVGID_9_)"/><path d="M702.3 574.8c1.2 1.8 3.3 3.3 7.4 2.9 5-.6 7.5-6.7 3.7-10-1.4-1.3-3-2-4.5-2.6l5.4-5.8h-11.5" class="st8"/><path d="M633.6 635.9c.9-3.5 1.9-6.5 5-8 5.3-2.5 10.7-4.5 16.4-6.3 4.2-1.6 5.4-4.3 5.1-8.8-2.2-1.3-3.9-3.9-4.9-6.8-1.4-4.6-2.5-11.6-2-17.2 1.2-8.7 7.6-12.8 15-12.8s13.8 4.1 15 12.8c.5 5.6-.6 12.6-2 17.2-1 3-2.7 5.5-4.9 6.8-.3 4.5 1 7.3 5.1 8.8 5.7 1.8 11.1 3.8 16.4 6.3 3.1 1.5 4.1 4.5 5 8" class="st9"/><linearGradient id="SVGID_10_" x1="601.999" x2="814.267" y1="110.725" y2="304.481" gradientTransform="matrix(1 0 0 -1 0 1080)" gradientUnits="userSpaceOnUse"><stop offset="0" style="stop-color:#d6e3ff;stop-opacity:.42"/><stop offset="1" style="stop-color:#679bff;stop-opacity:.92"/></linearGradient><path d="M665.8 971.1c-17.4 17.3-45.5 17.3-62.8 0-17.4-17.4-17.4-45.5 0-62.8 17.3-17.4 45.5-17.3 62.8 0 17.4 17.3 17.4 45.4 0 62.8z" style="fill:url(#SVGID_10_)"/><linearGradient id="SVGID_11_" x1="598.492" x2="670.714" y1="140.327" y2="140.327" gradientTransform="matrix(1 0 0 -1 0 1080)" gradientUnits="userSpaceOnUse"><stop offset="0" style="stop-color:#a1bfff;stop-opacity:.17"/><stop offset="1" style="stop-color:#679bff;stop-opacity:.92"/></linearGradient><path d="M660.1 965.3c-14.2 14.2-37.1 14.2-51.3 0-14.2-14.2-14.2-37.1 0-51.3 14.2-14.2 37.1-14.2 51.3 0 14.2 14.2 14.2 37.2 0 51.3z" style="fill:url(#SVGID_11_)"/><linearGradient id="SVGID_12_" x1="656.142" x2="613.516" y1="164.568" y2="116.976" gradientTransform="matrix(1 0 0 -1 0 1080)" gradientUnits="userSpaceOnUse"><stop offset=".02" style="stop-color:#0064ff"/><stop offset=".06" style="stop-color:#005fff;stop-opacity:.86"/><stop offset=".11" style="stop-color:#005bff;stop-opacity:.72"/><stop offset=".17" style="stop-color:#0057ff;stop-opacity:.59"/><stop offset=".23" style="stop-color:#0053ff;stop-opacity:.48"/><stop offset=".3" style="stop-color:#0051ff;stop-opacity:.4"/><stop offset=".38" style="stop-color:#004fff;stop-opacity:.33"/><stop offset=".48" style="stop-color:#004dff;stop-opacity:.28"/><stop offset=".61" style="stop-color:#004cff;stop-opacity:.26"/><stop offset="1" style="stop-color:#004cff;stop-opacity:.25"/></linearGradient><path d="M614.5 959.6c-11-11-11-28.8 0-39.8 11-11 28.8-11 39.8 0 11 11 11 28.8 0 39.8s-28.8 11-39.8 0z" style="fill:url(#SVGID_12_)"/><path d="m623.3 938.3 8.2 8.2 13.7-14.3" style="fill:none;stroke:#0055d9;stroke-width:1.481;stroke-linecap:round;stroke-linejoin:round;stroke-miterlimit:79.8403"/><linearGradient id="SVGID_13_" x1="254" x2="254" y1="710.587" y2="500.888" gradientTransform="matrix(1 0 0 -1 0 1080)" gradientUnits="userSpaceOnUse"><stop offset=".02" style="stop-color:#0064ff"/><stop offset=".06" style="stop-color:#005fff;stop-opacity:.86"/><stop offset=".11" style="stop-color:#005bff;stop-opacity:.72"/><stop offset=".17" style="stop-color:#0057ff;stop-opacity:.59"/><stop offset=".23" style="stop-color:#0053ff;stop-opacity:.48"/><stop offset=".3" style="stop-color:#0051ff;stop-opacity:.4"/><stop offset=".38" style="stop-color:#004fff;stop-opacity:.33"/><stop offset=".48" style="stop-color:#004dff;stop-opacity:.28"/><stop offset=".61" style="stop-color:#004cff;stop-opacity:.26"/><stop offset="1" style="stop-color:#004cff;stop-opacity:.25"/></linearGradient><path d="M204 512.5V395.8c0-3.1 2.5-5.6 5.5-5.6h88.9c3.1 0 5.5 2.5 5.5 5.6v116.7c0 3.1-2.5 5.6-5.5 5.6h-88.9c-3-.1-5.5-2.6-5.5-5.6z" style="fill-rule:evenodd;clip-rule:evenodd;fill:url(#SVGID_13_)"/><path d="M227.9 425v20.4l-2.8 2.8c-6.6 6.7-5.3 17.7 2.6 22.7l12.6 8c8.3 5.2 18.8 5.3 27.1.2l12.9-7.8c8.4-5.1 9.5-16.8 2.3-23.4l-2.8-2.6V425c0-1.5-1.9-2.3-2.9-1.2L266 434.9h-24.2l-10.9-11.1c-1.1-1.1-3-.4-3 1.2z" class="st19"/><linearGradient id="SVGID_14_" x1="254" x2="254" y1="412.587" y2="202.888" gradientTransform="matrix(1 0 0 -1 0 1080)" gradientUnits="userSpaceOnUse"><stop offset=".02" style="stop-color:#0064ff"/><stop offset=".06" style="stop-color:#005fff;stop-opacity:.86"/><stop offset=".11" style="stop-color:#005bff;stop-opacity:.72"/><stop offset=".17" style="stop-color:#0057ff;stop-opacity:.59"/><stop offset=".23" style="stop-color:#0053ff;stop-opacity:.48"/><stop offset=".3" style="stop-color:#0051ff;stop-opacity:.4"/><stop offset=".38" style="stop-color:#004fff;stop-opacity:.33"/><stop offset=".48" style="stop-color:#004dff;stop-opacity:.28"/><stop offset=".61" style="stop-color:#004cff;stop-opacity:.26"/><stop offset="1" style="stop-color:#004cff;stop-opacity:.25"/></linearGradient><path d="M204 810.5V693.8c0-3.1 2.5-5.6 5.5-5.6h88.9c3.1 0 5.5 2.5 5.5 5.6v116.7c0 3.1-2.5 5.6-5.5 5.6h-88.9c-3-.1-5.5-2.6-5.5-5.6z" style="fill-rule:evenodd;clip-rule:evenodd;fill:url(#SVGID_14_)"/><path d="M227.9 723v20.4l-2.8 2.8c-6.6 6.7-5.3 17.7 2.6 22.7l12.6 8c8.3 5.2 18.8 5.3 27.1.2l12.9-7.8c8.4-5.1 9.5-16.8 2.3-23.4l-2.8-2.6V723c0-1.5-1.9-2.3-2.9-1.2L266 732.9h-24.2l-10.9-11.1c-1.1-1.1-3-.4-3 1.2z" class="st19"/><linearGradient id="SVGID_15_" x1="459.994" x2="460.004" y1="915.421" y2="742.828" gradientTransform="matrix(1 0 0 -1 0 1080)" gradientUnits="userSpaceOnUse"><stop offset=".162" style="stop-color:#1e2126;stop-opacity:.32"/><stop offset=".974" style="stop-color:#1e2126;stop-opacity:6.000000e-02"/></linearGradient><path d="M410 325.5V208.8c0-3.1 2.5-5.6 5.5-5.6h88.9c3.1 0 5.5 2.5 5.5 5.6v116.7c0 3.1-2.5 5.6-5.5 5.6h-88.9c-3-.1-5.5-2.6-5.5-5.6z" style="fill-rule:evenodd;clip-rule:evenodd;fill:url(#SVGID_15_)"/><path d="M433.9 237.9v20.4l-2.9 2.9c-6.5 6.6-5.3 17.6 2.6 22.5l12.9 8.1c8.2 5.2 18.6 5.3 26.9.2l13.1-8c8.3-5.1 9.4-16.7 2.2-23.2l-2.9-2.7v-20.4c0-1.5-1.8-2.3-2.9-1.2L472 247.6h-24.2l-10.9-11.1c-1.1-.8-3-.1-3 1.4z" class="st22"/><linearGradient id="SVGID_16_" x1="459.994" x2="460.004" y1="728.421" y2="555.828" gradientTransform="matrix(1 0 0 -1 0 1080)" gradientUnits="userSpaceOnUse"><stop offset=".162" style="stop-color:#1e2126;stop-opacity:.32"/><stop offset=".974" style="stop-color:#1e2126;stop-opacity:6.000000e-02"/></linearGradient><path d="M410 512.5V395.8c0-3.1 2.5-5.6 5.5-5.6h88.9c3.1 0 5.5 2.5 5.5 5.6v116.7c0 3.1-2.5 5.6-5.5 5.6h-88.9c-3-.1-5.5-2.6-5.5-5.6z" style="fill-rule:evenodd;clip-rule:evenodd;fill:url(#SVGID_16_)"/><path d="M433.9 424.9v20.4l-2.9 2.9c-6.5 6.6-5.3 17.6 2.6 22.5l12.9 8.1c8.2 5.2 18.6 5.3 26.9.2l13.1-8c8.3-5.1 9.4-16.7 2.2-23.2l-2.9-2.7v-20.4c0-1.5-1.8-2.3-2.9-1.2L472 434.6h-24.2l-10.9-11.1c-1.1-.8-3-.1-3 1.4z" class="st22"/><linearGradient id="SVGID_17_" x1="459.994" x2="460.004" y1="430.421" y2="257.828" gradientTransform="matrix(1 0 0 -1 0 1080)" gradientUnits="userSpaceOnUse"><stop offset=".162" style="stop-color:#1e2126;stop-opacity:.32"/><stop offset=".974" style="stop-color:#1e2126;stop-opacity:6.000000e-02"/></linearGradient><path d="M410 810.5V693.8c0-3.1 2.5-5.6 5.5-5.6h88.9c3.1 0 5.5 2.5 5.5 5.6v116.7c0 3.1-2.5 5.6-5.5 5.6h-88.9c-3-.1-5.5-2.6-5.5-5.6z" style="fill-rule:evenodd;clip-rule:evenodd;fill:url(#SVGID_17_)"/><path d="M433.9 722.9v20.4l-2.9 2.9c-6.5 6.6-5.3 17.6 2.6 22.5l12.9 8.1c8.2 5.2 18.6 5.3 26.9.2l13.1-8c8.3-5.1 9.4-16.7 2.2-23.2l-2.9-2.7v-20.4c0-1.5-1.8-2.3-2.9-1.2L472 732.6h-24.2l-10.9-11.1c-1.1-.8-3-.1-3 1.4z" class="st22"/><linearGradient id="SVGID_18_" x1="459.994" x2="460.004" y1="243.421" y2="70.826" gradientTransform="matrix(1 0 0 -1 0 1080)" gradientUnits="userSpaceOnUse"><stop offset=".162" style="stop-color:#1e2126;stop-opacity:.32"/><stop offset=".974" style="stop-color:#1e2126;stop-opacity:6.000000e-02"/></linearGradient><path d="M410 997.5V880.8c0-3.1 2.5-5.6 5.5-5.6h88.9c3.1 0 5.5 2.5 5.5 5.6v116.7c0 3.1-2.5 5.6-5.5 5.6h-88.9c-3-.1-5.5-2.6-5.5-5.6z" style="fill-rule:evenodd;clip-rule:evenodd;fill:url(#SVGID_18_)"/><path d="M433.9 909.9v20.4l-2.9 2.9c-6.5 6.6-5.3 17.6 2.6 22.5l12.9 8.1c8.2 5.2 18.6 5.3 26.9.2l13.1-8c8.3-5.1 9.4-16.7 2.2-23.2l-2.9-2.7v-20.4c0-1.5-1.8-2.3-2.9-1.2L472 919.6h-24.2l-10.9-11.1c-1.1-.8-3-.1-3 1.4z" class="st22"/><linearGradient id="SVGID_19_" x1="304.5" x2="304.5" y1="292.789" y2="232.06" gradientTransform="matrix(1 0 0 -1 0 1080)" gradientUnits="userSpaceOnUse"><stop offset=".02" style="stop-color:#0064ff"/><stop offset=".06" style="stop-color:#005fff;stop-opacity:.86"/><stop offset=".11" style="stop-color:#005bff;stop-opacity:.72"/><stop offset=".17" style="stop-color:#0057ff;stop-opacity:.59"/><stop offset=".23" style="stop-color:#0053ff;stop-opacity:.48"/><stop offset=".3" style="stop-color:#0051ff;stop-opacity:.4"/><stop offset=".38" style="stop-color:#004fff;stop-opacity:.33"/><stop offset=".48" style="stop-color:#004dff;stop-opacity:.28"/><stop offset=".61" style="stop-color:#004cff;stop-opacity:.26"/><stop offset="1" style="stop-color:#004cff;stop-opacity:.25"/></linearGradient><path d="M323 796.6v30.3c0 1.9-1.5 3.4-3.4 3.4h-30.3c-1.9 0-3.4-1.5-3.4-3.4v-30.3c0-1.9 1.5-3.4 3.4-3.4h30.3c1.9 0 3.4 1.6 3.4 3.4z" style="fill-rule:evenodd;clip-rule:evenodd;fill:url(#SVGID_19_)"/><linearGradient id="SVGID_20_" x1="510.498" x2="510.502" y1="303.054" y2="233.018" gradientTransform="matrix(1 0 0 -1 0 1080)" gradientUnits="userSpaceOnUse"><stop offset="0" style="stop-color:#1e2126;stop-opacity:.52"/><stop offset=".974" style="stop-color:#1e2126;stop-opacity:6.000000e-02"/></linearGradient><path d="M497.4 824.8c-7.2-7.2-7.2-18.9 0-26.2 7.2-7.2 18.9-7.2 26.2 0 7.2 7.2 7.2 18.9 0 26.2-7.2 7.3-19 7.3-26.2 0z" style="fill:url(#SVGID_20_)"/><linearGradient id="SVGID_21_" x1="510.498" x2="510.502" y1="116.054" y2="46.016" gradientTransform="matrix(1 0 0 -1 0 1080)" gradientUnits="userSpaceOnUse"><stop offset="0" style="stop-color:#1e2126;stop-opacity:.52"/><stop offset=".974" style="stop-color:#1e2126;stop-opacity:6.000000e-02"/></linearGradient><path d="M497.4 1011.8c-7.2-7.2-7.2-18.9 0-26.2 7.2-7.2 18.9-7.2 26.2 0 7.2 7.2 7.2 18.9 0 26.2-7.2 7.3-19 7.3-26.2 0z" style="fill:url(#SVGID_21_)"/><linearGradient id="SVGID_22_" x1="717.5" x2="717.5" y1="309.984" y2="137.084" gradientTransform="matrix(1 0 0 -1 0 1080)" gradientUnits="userSpaceOnUse"><stop offset=".02" style="stop-color:#ff8c5e"/><stop offset=".06" style="stop-color:#ff8c5e;stop-opacity:.86"/><stop offset=".11" style="stop-color:#ff8c5e;stop-opacity:.72"/><stop offset=".17" style="stop-color:#ff8c5e;stop-opacity:.59"/><stop offset=".23" style="stop-color:#ff8c5e;stop-opacity:.48"/><stop offset=".3" style="stop-color:#ff8c5e;stop-opacity:.4"/><stop offset=".38" style="stop-color:#ff8c5e;stop-opacity:.33"/><stop offset=".48" style="stop-color:#ff8c5e;stop-opacity:.28"/><stop offset=".61" style="stop-color:#ff8c5e;stop-opacity:.26"/><stop offset="1" style="stop-color:#ff945e;stop-opacity:.25"/></linearGradient><circle cx="717.5" cy="811.7" r="18.5" style="fill:url(#SVGID_22_)"/><linearGradient id="SVGID_23_" x1="668" x2="668" y1="687.342" y2="564.338" gradientTransform="matrix(1 0 0 -1 0 1080)" gradientUnits="userSpaceOnUse"><stop offset=".02" style="stop-color:#ff8c5e"/><stop offset=".06" style="stop-color:#ff8c5e;stop-opacity:.86"/><stop offset=".11" style="stop-color:#ff8c5e;stop-opacity:.72"/><stop offset=".17" style="stop-color:#ff8c5e;stop-opacity:.59"/><stop offset=".23" style="stop-color:#ff8c5e;stop-opacity:.48"/><stop offset=".3" style="stop-color:#ff8c5e;stop-opacity:.4"/><stop offset=".38" style="stop-color:#ff8c5e;stop-opacity:.33"/><stop offset=".48" style="stop-color:#ff8c5e;stop-opacity:.28"/><stop offset=".61" style="stop-color:#ff8c5e;stop-opacity:.26"/><stop offset="1" style="stop-color:#ff945e;stop-opacity:.25"/></linearGradient><path d="M618 512.5V395.8c0-3.1 2.5-5.6 5.5-5.6h88.9c3.1 0 5.5 2.5 5.5 5.6v116.7c0 3.1-2.5 5.6-5.5 5.6h-88.9c-3-.1-5.5-2.6-5.5-5.6z" style="fill-rule:evenodd;clip-rule:evenodd;fill:url(#SVGID_23_)"/><path d="M641.9 424.9v20.5l-3.1 3.1c-6.4 6.5-5.2 17.3 2.5 22.2l13.2 8.4c8.1 5.1 18.4 5.2 26.6.2l13.5-8.2c8.2-5 9.3-16.4 2.2-22.9l-3.1-2.9v-20.5c0-1.5-1.8-2.2-2.9-1.2l-10.9 11.1h-24.2l-10.9-11.1c-1.1-1-2.9-.2-2.9 1.3z" class="st31"/><linearGradient id="SVGID_24_" x1="668" x2="668" y1="389.342" y2="266.338" gradientTransform="matrix(1 0 0 -1 0 1080)" gradientUnits="userSpaceOnUse"><stop offset=".02" style="stop-color:#ff8c5e"/><stop offset=".06" style="stop-color:#ff8c5e;stop-opacity:.86"/><stop offset=".11" style="stop-color:#ff8c5e;stop-opacity:.72"/><stop offset=".17" style="stop-color:#ff8c5e;stop-opacity:.59"/><stop offset=".23" style="stop-color:#ff8c5e;stop-opacity:.48"/><stop offset=".3" style="stop-color:#ff8c5e;stop-opacity:.4"/><stop offset=".38" style="stop-color:#ff8c5e;stop-opacity:.33"/><stop offset=".48" style="stop-color:#ff8c5e;stop-opacity:.28"/><stop offset=".61" style="stop-color:#ff8c5e;stop-opacity:.26"/><stop offset="1" style="stop-color:#ff945e;stop-opacity:.25"/></linearGradient><path d="M618 810.5V693.8c0-3.1 2.5-5.6 5.5-5.6h88.9c3.1 0 5.5 2.5 5.5 5.6v116.7c0 3.1-2.5 5.6-5.5 5.6h-88.9c-3-.1-5.5-2.6-5.5-5.6z" style="fill-rule:evenodd;clip-rule:evenodd;fill:url(#SVGID_24_)"/><path d="M641.9 722.9v20.5l-3.1 3.1c-6.4 6.5-5.2 17.3 2.5 22.2l13.2 8.4c8.1 5.1 18.4 5.2 26.6.2l13.5-8.2c8.2-5 9.3-16.4 2.2-22.9l-3.1-2.9v-20.5c0-1.5-1.8-2.2-2.9-1.2l-10.9 11.1h-24.2l-10.9-11.1c-1.1-1-2.9-.2-2.9 1.3z" class="st31"/><path d="M618.8 295h24.5v24.5h-24.5zM617.5 275.2l13-22.5 13 22.5h-26z" class="st33"/><circle cx="631" cy="222.2" r="12.3" class="st33"/><path d="m460.1 331.7-206 58M253.9 815.7l206 58M666.1 815.7l-206 58M461.1 331.8l208 58M460.5 331.2v59M460.5 815.2v59" class="st34"/><path d="M254.4 518.2v30M254.4 658.2v30M460.4 518.2v30M668.4 518.2v30M668.4 658.2v30M460.4 658.2v30" class="st35"/><path d="M674.5 233.8c-1.6 0-3-.3-4.3-.8-1.3-.5-2.4-1.2-3.3-2.2-.9-.9-1.6-2.1-2.1-3.5s-.8-2.9-.8-4.6c0-1.7.2-3.3.7-4.6.5-1.4 1.1-2.5 2-3.5.9-.9 2-1.7 3.3-2.2s2.8-.8 4.5-.8c1.5 0 2.7.2 3.8.5s2 .7 2.7 1.1v2.7c-.9-.6-1.9-1-3.1-1.3-1.2-.3-2.3-.4-3.5-.4-2.5 0-4.4.7-5.6 2.1-1.2 1.4-1.8 3.5-1.8 6.4 0 2.9.7 5 2 6.4 1.3 1.4 3.2 2.1 5.8 2.1 1.1 0 2.2-.1 3.2-.5 1-.3 2.1-.8 3-1.5v2.7c-.6.5-1.4.9-2.5 1.3s-2.5.6-4 .6zM693.9 230.6c-.2.4-.4.7-.7 1.1-.3.4-.6.7-1 1.1s-.9.6-1.5.8c-.6.2-1.2.3-2 .3-1.4 0-2.5-.4-3.4-1.2-.9-.8-1.3-1.9-1.3-3.4 0-1.7.6-2.9 1.8-3.8 1.2-.8 2.9-1.2 5.1-1.2h2.9V223c0-1.1-.3-1.9-.8-2.3-.6-.5-1.5-.7-2.9-.7-1 0-1.9.2-2.7.5-.9.3-1.6.7-2.3 1.1v-2.4c.6-.3 1.3-.7 2.3-1 .9-.3 2-.5 3.1-.5 2 0 3.5.4 4.5 1.2 1 .8 1.5 2.1 1.5 3.8V233.1c0 .2 0 .4.1.5h-2.4c-.1-.3-.1-.7-.2-1.2 0-.5-.1-1-.1-1.3v-.5zm-4.6.9c.8 0 1.5-.2 2.1-.5.6-.3 1-.7 1.4-1.2.4-.5.6-.9.8-1.3.2-.4.2-.7.2-.9v-1.1h-2.6c-1.6 0-2.7.2-3.4.7-.7.5-1.1 1.1-1.1 2 0 .7.2 1.3.6 1.7.4.4 1.1.6 2 .6zM707 233.6c-.5.1-1 .2-1.6.2-.8 0-1.4-.1-1.9-.3-.5-.2-1-.5-1.3-.9-.3-.4-.6-.8-.7-1.3-.2-.5-.2-1-.2-1.5v-9.7h-1.9V218h1.9v-3.3h2.6v3.3h4.5v2.3h-4.5v9.4c0 .7.2 1.1.5 1.4.3.3.9.5 1.8.5.8 0 1.5-.2 2.1-.7v2.4c-.4.1-.8.2-1.3.3zM666.7 253.1h7.2c1.4 0 2.8.2 4 .5 1.2.3 2.3.9 3.2 1.7.9.8 1.6 1.8 2.2 3.1.5 1.3.8 2.9.8 4.7 0 1.9-.3 3.6-.8 5s-1.3 2.6-2.2 3.6c-.9 1-2 1.7-3.3 2.2-1.3.5-2.7.7-4.2.7h-6.9v-21.5zm2.8 2.6v16.4h4.1c1.1 0 2.1-.2 3-.5.9-.3 1.7-.9 2.4-1.6.7-.7 1.2-1.6 1.5-2.7s.5-2.4.5-3.9-.2-2.8-.5-3.7c-.4-1-.9-1.8-1.5-2.4-.6-.6-1.4-1-2.3-1.2-.9-.2-1.8-.3-2.9-.3h-4.3zM694 274.9c-1.1 0-2.1-.2-3-.5-.9-.4-1.7-.9-2.4-1.6s-1.2-1.5-1.6-2.5c-.4-1-.6-2.1-.6-3.4 0-1.3.2-2.4.6-3.4.4-1 .9-1.9 1.6-2.5.7-.7 1.5-1.2 2.4-1.6.9-.4 1.9-.5 3-.5s2.1.2 3 .5 1.7.9 2.4 1.6c.7.7 1.2 1.5 1.6 2.5.4 1 .6 2.2.6 3.4 0 1.3-.2 2.5-.6 3.4-.4 1-.9 1.8-1.6 2.5-.7.7-1.5 1.2-2.4 1.6-.9.4-1.9.5-3 .5zm0-2.3c.7 0 1.3-.1 1.9-.3.6-.2 1.1-.6 1.5-1.1.4-.5.8-1.1 1-1.8.2-.7.4-1.6.4-2.6s-.1-1.8-.4-2.6c-.2-.7-.6-1.3-1-1.8s-1-.8-1.5-1.1-1.2-.3-1.9-.3-1.3.1-1.9.3-1.1.6-1.5 1.1c-.4.5-.8 1.1-1 1.8-.2.7-.4 1.6-.4 2.6s.1 1.8.4 2.6c.2.7.6 1.3 1 1.8s.9.8 1.5 1.1c.6.2 1.2.3 1.9.3zM718.2 273.3c0 1-.1 1.9-.4 2.7-.3.8-.8 1.5-1.4 2.1-.6.6-1.4 1-2.4 1.4-1 .3-2.2.5-3.6.5-.8 0-1.4 0-2-.1-.6-.1-1.1-.2-1.5-.3-.4-.1-.8-.3-1.1-.4-.3-.1-.6-.3-.8-.4v-2.4c.3.2.7.3 1 .5.3.2.7.3 1.2.4.4.1.9.2 1.4.3.5.1 1.1.1 1.8.1 1.9 0 3.3-.4 4-1.1.8-.7 1.1-1.8 1.1-3.2V271c-.5.9-1.1 1.7-1.9 2.2-.8.6-1.9.8-3.1.8-.9 0-1.8-.2-2.6-.5s-1.6-.8-2.2-1.4c-.6-.6-1.1-1.4-1.5-2.4-.4-.9-.6-2.1-.6-3.3 0-1.3.2-2.4.6-3.3.4-.9.9-1.7 1.5-2.4.6-.6 1.4-1.1 2.2-1.4.8-.3 1.7-.5 2.7-.5 1.2 0 2.3.3 3.1.8.8.6 1.5 1.3 2 2.3v-.3c0-.4 0-.8.1-1.3 0-.5.1-.9.1-1.2h2.4c0 .3-.1.7-.1 1.2v13zm-7.2-1.6c.7 0 1.3-.1 1.8-.3.5-.2 1-.5 1.4-1s.7-1 1-1.6c.2-.7.3-1.4.3-2.3 0-1.8-.4-3.1-1.3-4-.9-.9-2-1.3-3.3-1.3-.7 0-1.3.1-1.8.3-.6.2-1.1.6-1.5 1-.4.4-.7 1-1 1.7-.2.7-.4 1.4-.4 2.3 0 .9.1 1.6.4 2.3.2.7.6 1.2 1 1.6s.9.8 1.5 1c.7.2 1.3.3 1.9.3zM829.1 924.1v21.7h-3.3v-21.7h-7.6v-3h18.5v3h-7.6zM848.8 930.3c-1.4 0-2.5.3-3.4.9-.9.6-1.6 1.4-2.1 2.4v12.2h-3v-24.7h3v6.8l-.1 3.2h.1c.5-1 1.2-1.9 2.3-2.5 1-.7 2.3-1 3.9-1 1.8 0 3.2.5 4.2 1.4 1 .9 1.6 2.4 1.6 4.3v12.6h-3v-12.2c0-1.2-.3-2.1-.9-2.6-.6-.6-1.5-.8-2.6-.8zM874.4 944.3l-.9.6c-.4.2-.8.4-1.3.6-.5.2-1.1.4-1.8.5-.7.1-1.4.2-2.2.2-3 0-5.3-.8-6.9-2.4-1.6-1.6-2.3-3.9-2.3-6.9 0-1.4.2-2.7.6-3.9s1-2.1 1.8-2.9c.8-.8 1.7-1.4 2.7-1.8s2.2-.6 3.4-.6c1.3 0 2.4.2 3.5.7 1 .4 1.8 1.1 2.5 1.9.7.9 1.1 1.9 1.3 3.2s.2 2.7 0 4.4h-12.6c.1 1.9.7 3.4 1.7 4.4 1 1 2.6 1.4 4.6 1.4 1.4 0 2.6-.2 3.6-.6 1-.4 1.8-.8 2.5-1.3v2.5zm-7.1-14c-1.3 0-2.4.4-3.4 1.2-.9.8-1.5 2-1.8 3.7h9.6c.1-1.7-.3-2.9-1.1-3.7-.8-.8-1.9-1.2-3.3-1.2zM883.8 932c-1 .5-1.8 1.4-2.3 2.5v11.4h-3V928h2.7l.3 3.9h.1c.5-1.1 1.2-2 2.2-2.8 1-.8 2.2-1.3 3.6-1.5v3.4c-1.3.1-2.5.4-3.6 1zM904.8 944.3l-.9.6c-.4.2-.8.4-1.3.6-.5.2-1.1.4-1.8.5-.7.1-1.4.2-2.2.2-3 0-5.3-.8-6.9-2.4-1.6-1.6-2.3-3.9-2.3-6.9 0-1.4.2-2.7.6-3.9s1-2.1 1.8-2.9c.8-.8 1.7-1.4 2.7-1.8s2.2-.6 3.4-.6c1.3 0 2.4.2 3.5.7 1 .4 1.8 1.1 2.5 1.9.7.9 1.1 1.9 1.3 3.2s.2 2.7 0 4.4h-12.6c.1 1.9.7 3.4 1.7 4.4 1 1 2.6 1.4 4.6 1.4 1.4 0 2.6-.2 3.6-.6 1-.4 1.8-.8 2.5-1.3v2.5zm-7.1-14c-1.3 0-2.4.4-3.4 1.2-.9.8-1.5 2-1.8 3.7h9.6c.1-1.7-.3-2.9-1.1-3.7-.9-.8-2-1.2-3.3-1.2zM926.9 942.4c-.2.4-.5.8-.8 1.3-.3.4-.7.9-1.2 1.2-.5.4-1.1.7-1.7.9-.7.2-1.4.3-2.3.3-1.6 0-2.9-.5-3.9-1.4-1-.9-1.5-2.2-1.5-3.9 0-2 .7-3.4 2.1-4.3 1.4-.9 3.3-1.4 5.8-1.4h3.3v-1.5c0-1.2-.3-2.1-1-2.7-.6-.5-1.7-.8-3.3-.8-1.1 0-2.2.2-3.1.5-1 .4-1.9.8-2.7 1.2v-2.7c.6-.4 1.5-.8 2.6-1.2 1.1-.4 2.3-.6 3.6-.6 2.3 0 4 .5 5.1 1.4 1.2.9 1.8 2.4 1.8 4.3v11.1c0 .3 0 .5.1.8 0 .2 0 .4.1.6h-2.8c-.1-.3-.1-.8-.2-1.4-.1-.6-.1-1.1-.1-1.5l.1-.2zm-5.4 1.1c.9 0 1.7-.2 2.4-.6.7-.4 1.2-.9 1.6-1.4.4-.5.7-1 .9-1.5.2-.5.3-.9.3-1.1v-1.3h-3c-1.8 0-3.1.3-4 .8-.8.5-1.2 1.3-1.2 2.3 0 .8.2 1.5.7 2 .5.5 1.3.8 2.3.8zM939.9 932c-1 .5-1.8 1.4-2.3 2.5v11.4h-3V928h2.7l.3 3.9h.1c.5-1.1 1.2-2 2.2-2.8 1-.8 2.2-1.3 3.6-1.5v3.4c-1.4.1-2.5.4-3.6 1zM960.8 944.3l-.9.6c-.4.2-.8.4-1.3.6-.5.2-1.1.4-1.8.5-.7.1-1.4.2-2.2.2-3 0-5.3-.8-6.9-2.4-1.6-1.6-2.3-3.9-2.3-6.9 0-1.4.2-2.7.6-3.9s1-2.1 1.8-2.9c.8-.8 1.7-1.4 2.7-1.8s2.2-.6 3.4-.6c1.3 0 2.4.2 3.5.7 1 .4 1.8 1.1 2.5 1.9.7.9 1.1 1.9 1.3 3.2.2 1.3.2 2.7 0 4.4h-12.6c.1 1.9.7 3.4 1.7 4.4 1 1 2.6 1.4 4.6 1.4 1.4 0 2.6-.2 3.6-.6 1-.4 1.8-.8 2.5-1.3v2.5zm-7.1-14c-1.3 0-2.4.4-3.4 1.2-.9.8-1.5 2-1.8 3.7h9.6c.1-1.7-.3-2.9-1.1-3.7-.8-.8-1.9-1.2-3.3-1.2zM975.5 945.8h-3v-17.9h2.7l.3 3.2h.1c.5-1 1.2-1.9 2.2-2.5 1-.7 2.2-1 3.8-1 1.4 0 2.5.3 3.4 1s1.5 1.6 1.8 3c.5-1.2 1.3-2.2 2.3-2.9 1-.7 2.3-1.1 3.8-1.1 1.7 0 3 .5 3.9 1.4 1 .9 1.4 2.4 1.4 4.3v12.6h-3.1v-12.2c0-1.2-.3-2-.9-2.6-.6-.5-1.4-.8-2.3-.8-.7 0-1.3.1-1.8.3s-1 .5-1.3.8c-.4.3-.7.7-1.1 1.2s-.6.9-.9 1.4v11.8h-3v-12.5c0-1.2-.3-1.9-.9-2.4-.6-.4-1.4-.7-2.3-.7-.6 0-1.2.1-1.7.2-.5.2-1 .4-1.4.7s-.8.7-1.1 1.1c-.3.4-.6.9-.9 1.4v12.2zM1010.3 946.2c-1.2 0-2.4-.2-3.4-.6-1.1-.4-2-1-2.7-1.8-.8-.8-1.4-1.8-1.8-2.9-.4-1.1-.7-2.5-.7-4s.2-2.8.7-4c.4-1.2 1-2.1 1.8-2.9.8-.8 1.7-1.4 2.7-1.8 1.1-.4 2.2-.6 3.4-.6 1.2 0 2.4.2 3.5.6 1.1.4 2 1 2.7 1.8.8.8 1.4 1.8 1.8 2.9.4 1.2.7 2.5.7 4s-.2 2.8-.7 4c-.4 1.2-1.1 2.1-1.8 2.9-.8.8-1.7 1.4-2.7 1.8-1.1.4-2.3.6-3.5.6zm0-2.7c.8 0 1.5-.1 2.2-.4s1.3-.7 1.8-1.2.9-1.2 1.2-2.1c.3-.8.4-1.8.4-2.9s-.1-2.1-.4-2.9-.7-1.5-1.2-2.1c-.5-.5-1.1-.9-1.8-1.2-.7-.3-1.4-.4-2.2-.4-.8 0-1.5.1-2.2.4-.7.3-1.2.7-1.7 1.2s-.9 1.2-1.2 2.1c-.3.8-.4 1.8-.4 2.9s.1 2.1.4 2.9c.3.8.7 1.5 1.2 2.1.5.5 1.1.9 1.7 1.2s1.4.4 2.2.4zM1028 932c-1 .5-1.8 1.4-2.3 2.5v11.4h-3V928h2.7l.3 3.9h.1c.5-1.1 1.2-2 2.2-2.8 1-.8 2.2-1.3 3.6-1.5v3.4c-1.4.1-2.5.4-3.6 1zM1049 944.3l-.9.6c-.4.2-.8.4-1.3.6-.5.2-1.1.4-1.8.5s-1.4.2-2.2.2c-3 0-5.3-.8-6.9-2.4-1.6-1.6-2.3-3.9-2.3-6.9 0-1.4.2-2.7.6-3.9s1-2.1 1.8-2.9c.8-.8 1.7-1.4 2.7-1.8 1-.4 2.2-.6 3.4-.6 1.3 0 2.4.2 3.5.7 1 .4 1.8 1.1 2.5 1.9.7.9 1.1 1.9 1.3 3.2.2 1.3.2 2.7 0 4.4h-12.6c.1 1.9.7 3.4 1.7 4.4 1 1 2.6 1.4 4.6 1.4 1.4 0 2.6-.2 3.6-.6 1-.4 1.8-.8 2.5-1.3v2.5zm-7.2-14c-1.3 0-2.4.4-3.4 1.2-.9.8-1.5 2-1.8 3.7h9.6c.1-1.7-.3-2.9-1.1-3.7-.8-.8-1.9-1.2-3.3-1.2zM1066.3 946.2c-.9 0-1.8-.1-2.5-.2s-1.4-.3-1.9-.6c-.5-.2-1-.4-1.4-.7-.4-.2-.7-.5-.9-.6v-2.7c.2.2.5.5.9.7.4.3.9.5 1.4.7.6.2 1.2.4 1.9.6.7.2 1.5.2 2.4.2 1.3 0 2.3-.2 3.1-.6s1.1-1.1 1.1-2.1c0-.5-.1-1-.4-1.3-.2-.3-.6-.6-1-.8-.4-.2-.9-.3-1.4-.5-.5-.1-1.1-.2-1.7-.3-.8-.2-1.5-.3-2.2-.5s-1.4-.5-2-.9c-.6-.4-1.1-.9-1.4-1.5s-.6-1.4-.6-2.4c0-1.6.6-2.9 1.9-3.8 1.3-.9 3-1.4 5.3-1.4 1.3 0 2.4.1 3.4.4s1.7.5 2.3.8v2.7c-.6-.4-1.3-.7-2.2-1s-2-.4-3.3-.4c-1.4 0-2.4.2-3.1.6s-1.1 1-1.1 2c0 .5.1.9.3 1.2.2.3.5.5.8.7.4.2.8.3 1.2.4.5.1.9.2 1.4.3.8.2 1.6.3 2.4.5.8.2 1.6.5 2.2.9.7.4 1.2.9 1.6 1.6s.6 1.5.6 2.6c0 1-.2 1.9-.6 2.6-.4.7-1 1.2-1.6 1.6-.7.4-1.4.7-2.3.9-.8.2-1.7.3-2.6.3zM1084.6 946.2c-1.2 0-2.4-.2-3.4-.6-1.1-.4-2-1-2.7-1.8-.8-.8-1.4-1.8-1.8-2.9-.4-1.1-.7-2.5-.7-4s.2-2.8.7-4c.4-1.2 1-2.1 1.8-2.9.8-.8 1.7-1.4 2.7-1.8 1.1-.4 2.2-.6 3.4-.6 1.2 0 2.4.2 3.5.6 1.1.4 2 1 2.7 1.8.8.8 1.4 1.8 1.8 2.9.4 1.2.7 2.5.7 4s-.2 2.8-.7 4c-.4 1.2-1.1 2.1-1.8 2.9-.8.8-1.7 1.4-2.7 1.8-1.1.4-2.3.6-3.5.6zm0-2.7c.8 0 1.5-.1 2.2-.4s1.3-.7 1.8-1.2.9-1.2 1.2-2.1c.3-.8.4-1.8.4-2.9s-.1-2.1-.4-2.9-.7-1.5-1.2-2.1c-.5-.5-1.1-.9-1.8-1.2-.7-.3-1.4-.4-2.2-.4-.8 0-1.5.1-2.2.4-.7.3-1.2.7-1.7 1.2s-.9 1.2-1.2 2.1c-.3.8-.4 1.8-.4 2.9s.1 2.1.4 2.9c.3.8.7 1.5 1.2 2.1.5.5 1.1.9 1.7 1.2s1.4.4 2.2.4zM1106 946.2c-1.4 0-2.6-.3-3.6-1-1-.6-1.8-1.5-2.4-2.7v9.4h-3v-24h2.7l.3 3.5c.6-1.2 1.4-2.1 2.4-2.8 1-.7 2.3-1 3.8-1 1 0 2 .2 3 .6 1 .4 1.8 1 2.5 1.7.7.8 1.3 1.7 1.7 2.9.4 1.2.6 2.5.6 4.1 0 1.6-.2 3-.7 4.1-.4 1.2-1 2.1-1.8 2.9-.7.8-1.6 1.3-2.6 1.7-.8.4-1.9.6-2.9.6zm-.5-2.7c1.6 0 2.9-.5 3.8-1.6s1.5-2.8 1.5-5-.5-3.8-1.5-4.9-2.3-1.7-3.8-1.7c-.8 0-1.5.1-2.2.4-.7.3-1.3.7-1.8 1.2s-.9 1.2-1.2 2.1c-.3.8-.4 1.8-.4 2.9s.1 2.1.4 2.9c.3.8.7 1.5 1.2 2.1.5.6 1.1 1 1.8 1.2s1.5.4 2.2.4zM1126.2 930.3c-1.4 0-2.5.3-3.4.9-.9.6-1.6 1.4-2.1 2.4v12.2h-3v-24.7h3v6.8l-.1 3.2h.1c.5-1 1.2-1.9 2.3-2.5 1-.7 2.3-1 3.9-1 1.8 0 3.2.5 4.2 1.4 1 .9 1.6 2.4 1.6 4.3v12.6h-3v-12.2c0-1.2-.3-2.1-.9-2.6-.7-.6-1.5-.8-2.6-.8zM1139.1 925.3c-.6 0-1.1-.2-1.5-.6s-.6-.8-.6-1.4c0-.6.2-1 .6-1.4.4-.4.9-.6 1.5-.6s1.1.2 1.4.6c.3.4.5.9.5 1.4 0 .6-.2 1-.5 1.4-.4.4-.8.6-1.4.6zm1.5 2.6v17.9h-3v-17.9h3zM1151.2 946.2c-.9 0-1.8-.1-2.5-.2s-1.4-.3-1.9-.6c-.5-.2-1-.4-1.4-.7-.4-.2-.7-.5-.9-.6v-2.7c.2.2.5.5.9.7.4.3.9.5 1.4.7.6.2 1.2.4 1.9.6.7.2 1.5.2 2.4.2 1.3 0 2.3-.2 3.1-.6s1.1-1.1 1.1-2.1c0-.5-.1-1-.4-1.3-.2-.3-.6-.6-1-.8-.4-.2-.9-.3-1.4-.5-.5-.1-1.1-.2-1.7-.3-.8-.2-1.5-.3-2.2-.5s-1.4-.5-2-.9c-.6-.4-1.1-.9-1.4-1.5s-.6-1.4-.6-2.4c0-1.6.6-2.9 1.9-3.8 1.3-.9 3-1.4 5.3-1.4 1.3 0 2.4.1 3.4.4s1.7.5 2.3.8v2.7c-.6-.4-1.3-.7-2.2-1s-2-.4-3.3-.4c-1.4 0-2.4.2-3.1.6s-1.1 1-1.1 2c0 .5.1.9.3 1.2.2.3.5.5.8.7.4.2.8.3 1.2.4.5.1.9.2 1.4.3.8.2 1.6.3 2.4.5.8.2 1.6.5 2.2.9.7.4 1.2.9 1.6 1.6s.6 1.5.6 2.6c0 1-.2 1.9-.6 2.6-.4.7-1 1.2-1.6 1.6-.7.4-1.4.7-2.3.9-.8.2-1.7.3-2.6.3zM1169.5 946c-.6.1-1.2.2-1.8.2-.9 0-1.6-.1-2.2-.4s-1.1-.6-1.5-1c-.4-.4-.7-.9-.8-1.4-.2-.5-.3-1.1-.3-1.7v-11.1h-2.1V928h2.1v-3.8h3v3.8h5.2v2.6h-5.2v10.8c0 .8.2 1.3.6 1.7.4.3 1.1.5 2 .5.9 0 1.7-.3 2.5-.8v2.7c-.5.2-.9.3-1.5.5zM1176.5 925.3c-.6 0-1.1-.2-1.5-.6s-.6-.8-.6-1.4c0-.6.2-1 .6-1.4.4-.4.9-.6 1.5-.6s1.1.2 1.4.6c.3.4.5.9.5 1.4 0 .6-.2 1-.5 1.4-.3.4-.8.6-1.4.6zm1.5 2.6v17.9h-3v-17.9h3zM1190.7 946.2c-1.4 0-2.6-.2-3.7-.6-1.1-.4-2.1-1-2.8-1.8-.8-.8-1.4-1.8-1.8-2.9s-.6-2.5-.6-3.9.2-2.7.6-3.9 1-2.1 1.8-2.9 1.7-1.4 2.9-1.8c1.1-.4 2.4-.6 3.8-.6 1.1 0 2.1.1 3 .4s1.7.6 2.3 1.1v2.7c-.7-.5-1.6-.8-2.5-1.1-.9-.2-1.8-.4-2.8-.4-2.1 0-3.6.5-4.6 1.6s-1.5 2.7-1.5 5 .5 3.9 1.4 5c.9 1.1 2.4 1.6 4.5 1.6 1.1 0 2.1-.1 3-.4.9-.3 1.7-.6 2.5-1v2.7c-.6.4-1.4.7-2.3 1-1 0-2.1.2-3.2.2zM1210.3 942.4c-.2.4-.5.8-.8 1.3-.3.4-.7.9-1.2 1.2-.5.4-1.1.7-1.7.9-.7.2-1.4.3-2.3.3-1.6 0-2.9-.5-3.9-1.4s-1.5-2.2-1.5-3.9c0-2 .7-3.4 2.1-4.3 1.4-.9 3.3-1.4 5.8-1.4h3.3v-1.5c0-1.2-.3-2.1-1-2.7-.6-.5-1.7-.8-3.3-.8-1.1 0-2.2.2-3.1.5-1 .4-1.9.8-2.7 1.2v-2.7c.6-.4 1.5-.8 2.6-1.2 1.1-.4 2.3-.6 3.6-.6 2.3 0 4 .5 5.1 1.4 1.2.9 1.8 2.4 1.8 4.3v11.1c0 .3 0 .5.1.8 0 .2 0 .4.1.6h-2.8c-.1-.3-.1-.8-.2-1.4-.1-.6-.1-1.1-.1-1.5l.1-.2zm-5.4 1.1c.9 0 1.7-.2 2.4-.6s1.2-.9 1.6-1.4c.4-.5.7-1 .9-1.5.2-.5.3-.9.3-1.1v-1.3h-3c-1.8 0-3.1.3-4 .8-.8.5-1.2 1.3-1.2 2.3 0 .8.2 1.5.7 2 .5.5 1.3.8 2.3.8zM1225.3 946c-.6.1-1.2.2-1.8.2-.9 0-1.6-.1-2.2-.4s-1.1-.6-1.5-1c-.4-.4-.7-.9-.8-1.4-.2-.5-.3-1.1-.3-1.7v-11.1h-2.1V928h2.1v-3.8h3v3.8h5.2v2.6h-5.2v10.8c0 .8.2 1.3.6 1.7.4.3 1.1.5 2 .5.9 0 1.7-.3 2.5-.8v2.7c-.5.2-.9.3-1.5.5zM1244.8 944.3l-.9.6c-.4.2-.8.4-1.3.6-.5.2-1.1.4-1.8.5s-1.4.2-2.2.2c-3 0-5.3-.8-6.9-2.4-1.6-1.6-2.3-3.9-2.3-6.9 0-1.4.2-2.7.6-3.9s1-2.1 1.8-2.9c.8-.8 1.7-1.4 2.7-1.8 1-.4 2.2-.6 3.4-.6 1.3 0 2.4.2 3.5.7 1 .4 1.8 1.1 2.5 1.9.7.9 1.1 1.9 1.3 3.2.2 1.3.2 2.7 0 4.4h-12.6c.1 1.9.7 3.4 1.7 4.4 1 1 2.6 1.4 4.6 1.4 1.4 0 2.6-.2 3.6-.6 1-.4 1.8-.8 2.5-1.3v2.5zm-7.1-14c-1.3 0-2.4.4-3.4 1.2-.9.8-1.5 2-1.8 3.7h9.6c.1-1.7-.3-2.9-1.1-3.7-.8-.8-1.9-1.2-3.3-1.2zM1261.7 942.3c-.6 1.2-1.3 2.1-2.3 2.8-1 .7-2.2 1.1-3.8 1.1-1.1 0-2.1-.2-3.1-.6-1-.4-1.8-1-2.6-1.7-.7-.8-1.3-1.7-1.8-2.9-.4-1.2-.7-2.5-.7-4.1 0-1.6.2-2.9.7-4.1.4-1.2 1-2.1 1.8-2.9.7-.8 1.6-1.3 2.6-1.7 1-.4 2-.6 3.1-.6 1.4 0 2.5.3 3.5.8 1 .6 1.8 1.4 2.4 2.4v-9.7h3v24.7h-2.7l-.1-3.5zm-5.6 1.2c.8 0 1.5-.1 2.2-.4.7-.3 1.2-.7 1.7-1.2.5-.6.9-1.2 1.2-2.1.3-.8.4-1.8.4-2.9s-.1-2.1-.4-2.9c-.3-.8-.7-1.5-1.2-2.1-.5-.6-1.1-1-1.7-1.2-.7-.3-1.4-.4-2.2-.4-1.6 0-2.9.6-3.9 1.7s-1.5 2.8-1.5 4.9c0 2.2.5 3.8 1.5 4.9 1 1.1 2.3 1.7 3.9 1.7zM1280.2 945.8h-3v-17.9h2.7l.3 3.2h.1c.5-1 1.2-1.9 2.2-2.5 1-.7 2.2-1 3.8-1 1.4 0 2.5.3 3.4 1s1.5 1.6 1.8 3c.5-1.2 1.3-2.2 2.3-2.9 1-.7 2.3-1.1 3.8-1.1 1.7 0 3 .5 3.9 1.4 1 .9 1.4 2.4 1.4 4.3v12.6h-3.1v-12.2c0-1.2-.3-2-.9-2.6-.6-.5-1.4-.8-2.3-.8-.7 0-1.3.1-1.8.3s-1 .5-1.3.8c-.4.3-.7.7-1.1 1.2s-.6.9-.9 1.4v11.8h-3v-12.5c0-1.2-.3-1.9-.9-2.4-.6-.4-1.4-.7-2.3-.7-.6 0-1.2.1-1.7.2-.5.2-1 .4-1.4.7s-.8.7-1.1 1.1c-.3.4-.6.9-.9 1.4v12.2zM1321.9 944.3l-.9.6c-.4.2-.8.4-1.3.6-.5.2-1.1.4-1.8.5s-1.4.2-2.2.2c-3 0-5.3-.8-6.9-2.4-1.6-1.6-2.3-3.9-2.3-6.9 0-1.4.2-2.7.6-3.9s1-2.1 1.8-2.9c.8-.8 1.7-1.4 2.7-1.8 1-.4 2.2-.6 3.4-.6 1.3 0 2.4.2 3.5.7 1 .4 1.8 1.1 2.5 1.9.7.9 1.1 1.9 1.3 3.2.2 1.3.2 2.7 0 4.4h-12.6c.1 1.9.7 3.4 1.7 4.4 1 1 2.6 1.4 4.6 1.4 1.4 0 2.6-.2 3.6-.6 1-.4 1.8-.8 2.5-1.3v2.5zm-7.1-14c-1.3 0-2.4.4-3.4 1.2-.9.8-1.5 2-1.8 3.7h9.6c.1-1.7-.3-2.9-1.1-3.7-.9-.8-2-1.2-3.3-1.2zM1333.3 946c-.6.1-1.2.2-1.8.2-.9 0-1.6-.1-2.2-.4s-1.1-.6-1.5-1c-.4-.4-.7-.9-.8-1.4-.2-.5-.3-1.1-.3-1.7v-11.1h-2.1V928h2.1v-3.8h3v3.8h5.2v2.6h-5.2v10.8c0 .8.2 1.3.6 1.7.4.3 1.1.5 2 .5.9 0 1.7-.3 2.5-.8v2.7c-.5.2-1 .3-1.5.5zM1347.2 930.3c-1.4 0-2.5.3-3.4.9-.9.6-1.6 1.4-2.1 2.4v12.2h-3v-24.7h3v6.8l-.1 3.2h.1c.5-1 1.2-1.9 2.3-2.5 1-.7 2.3-1 3.9-1 1.8 0 3.2.5 4.2 1.4 1 .9 1.6 2.4 1.6 4.3v12.6h-3v-12.2c0-1.2-.3-2.1-.9-2.6-.6-.6-1.5-.8-2.6-.8zM1365.9 946.2c-1.2 0-2.4-.2-3.4-.6-1.1-.4-2-1-2.7-1.8-.8-.8-1.4-1.8-1.8-2.9-.4-1.1-.7-2.5-.7-4s.2-2.8.7-4c.4-1.2 1-2.1 1.8-2.9.8-.8 1.7-1.4 2.7-1.8 1.1-.4 2.2-.6 3.4-.6 1.2 0 2.4.2 3.5.6 1.1.4 2 1 2.7 1.8.8.8 1.4 1.8 1.8 2.9.4 1.2.7 2.5.7 4s-.2 2.8-.7 4c-.4 1.2-1.1 2.1-1.8 2.9-.8.8-1.7 1.4-2.7 1.8-1.1.4-2.3.6-3.5.6zm0-2.7c.8 0 1.5-.1 2.2-.4s1.3-.7 1.8-1.2.9-1.2 1.2-2.1c.3-.8.4-1.8.4-2.9s-.1-2.1-.4-2.9-.7-1.5-1.2-2.1c-.5-.5-1.1-.9-1.8-1.2-.7-.3-1.4-.4-2.2-.4-.8 0-1.5.1-2.2.4-.7.3-1.2.7-1.7 1.2s-.9 1.2-1.2 2.1c-.3.8-.4 1.8-.4 2.9s.1 2.1.4 2.9c.3.8.7 1.5 1.2 2.1.5.5 1.1.9 1.7 1.2s1.4.4 2.2.4zM1391.1 942.3c-.6 1.2-1.3 2.1-2.3 2.8-1 .7-2.2 1.1-3.8 1.1-1.1 0-2.1-.2-3.1-.6-1-.4-1.8-1-2.6-1.7-.7-.8-1.3-1.7-1.8-2.9-.4-1.2-.7-2.5-.7-4.1 0-1.6.2-2.9.7-4.1.4-1.2 1-2.1 1.8-2.9.7-.8 1.6-1.3 2.6-1.7 1-.4 2-.6 3.1-.6 1.4 0 2.5.3 3.5.8 1 .6 1.8 1.4 2.4 2.4v-9.7h3v24.7h-2.7l-.1-3.5zm-5.6 1.2c.8 0 1.5-.1 2.2-.4.7-.3 1.2-.7 1.7-1.2.5-.6.9-1.2 1.2-2.1.3-.8.4-1.8.4-2.9s-.1-2.1-.4-2.9c-.3-.8-.7-1.5-1.2-2.1-.5-.6-1.1-1-1.7-1.2-.7-.3-1.4-.4-2.2-.4-1.6 0-2.9.6-3.9 1.7s-1.5 2.8-1.5 4.9c0 2.2.5 3.8 1.5 4.9 1 1.1 2.3 1.7 3.9 1.7zM1404.7 946.2c-.9 0-1.8-.1-2.5-.2s-1.4-.3-1.9-.6c-.5-.2-1-.4-1.4-.7-.4-.2-.7-.5-.9-.6v-2.7c.2.2.5.5.9.7.4.3.9.5 1.4.7.6.2 1.2.4 1.9.6.7.2 1.5.2 2.4.2 1.3 0 2.3-.2 3.1-.6s1.1-1.1 1.1-2.1c0-.5-.1-1-.4-1.3-.2-.3-.6-.6-1-.8-.4-.2-.9-.3-1.4-.5-.5-.1-1.1-.2-1.7-.3-.8-.2-1.5-.3-2.2-.5s-1.4-.5-2-.9c-.6-.4-1.1-.9-1.4-1.5s-.6-1.4-.6-2.4c0-1.6.6-2.9 1.9-3.8 1.3-.9 3-1.4 5.3-1.4 1.3 0 2.4.1 3.4.4s1.7.5 2.3.8v2.7c-.6-.4-1.3-.7-2.2-1s-2-.4-3.3-.4c-1.4 0-2.4.2-3.1.6s-1.1 1-1.1 2c0 .5.1.9.3 1.2.2.3.5.5.8.7.4.2.8.3 1.2.4.5.1.9.2 1.4.3.8.2 1.6.3 2.4.5.8.2 1.6.5 2.2.9.7.4 1.2.9 1.6 1.6s.6 1.5.6 2.6c0 1-.2 1.9-.6 2.6-.4.7-1 1.2-1.6 1.6-.7.4-1.4.7-2.3.9-.8.2-1.7.3-2.6.3zM1442.7 945.8h-4.7l-3.8-13.8-3.9 13.8h-4.5l-4.1-17.9h3.2l3.4 15.6 4.3-15.6h3.4l4.2 15.5 3.4-15.5h3l-3.9 17.9zM1458.8 930.3c-1.4 0-2.5.3-3.4.9-.9.6-1.6 1.4-2.1 2.4v12.2h-3v-24.7h3v6.8l-.1 3.2h.1c.5-1 1.2-1.9 2.3-2.5 1-.7 2.3-1 3.9-1 1.8 0 3.2.5 4.2 1.4 1 .9 1.6 2.4 1.6 4.3v12.6h-3v-12.2c0-1.2-.3-2.1-.9-2.6-.6-.6-1.5-.8-2.6-.8zM1471.7 925.3c-.6 0-1.1-.2-1.5-.6s-.6-.8-.6-1.4c0-.6.2-1 .6-1.4.4-.4.9-.6 1.5-.6s1.1.2 1.4.6c.3.4.5.9.5 1.4 0 .6-.2 1-.5 1.4-.3.4-.8.6-1.4.6zm1.5 2.6v17.9h-3v-17.9h3zM1485.9 946.2c-1.4 0-2.6-.2-3.7-.6-1.1-.4-2.1-1-2.8-1.8-.8-.8-1.4-1.8-1.8-2.9s-.6-2.5-.6-3.9.2-2.7.6-3.9 1-2.1 1.8-2.9 1.7-1.4 2.9-1.8c1.1-.4 2.4-.6 3.8-.6 1.1 0 2.1.1 3 .4s1.7.6 2.3 1.1v2.7c-.7-.5-1.6-.8-2.5-1.1-.9-.2-1.8-.4-2.8-.4-2.1 0-3.6.5-4.6 1.6s-1.5 2.7-1.5 5 .5 3.9 1.4 5c.9 1.1 2.4 1.6 4.5 1.6 1.1 0 2.1-.1 3-.4.9-.3 1.7-.6 2.5-1v2.7c-.6.4-1.4.7-2.3 1-1 0-2.1.2-3.2.2zM1503.5 930.3c-1.4 0-2.5.3-3.4.9-.9.6-1.6 1.4-2.1 2.4v12.2h-3v-24.7h3v6.8l-.1 3.2h.1c.5-1 1.2-1.9 2.3-2.5 1-.7 2.3-1 3.9-1 1.8 0 3.2.5 4.2 1.4 1 .9 1.6 2.4 1.6 4.3v12.6h-3v-12.2c0-1.2-.3-2.1-.9-2.6-.6-.6-1.5-.8-2.6-.8zM1532.9 942.4c-.2.4-.5.8-.8 1.3-.3.4-.7.9-1.2 1.2-.5.4-1.1.7-1.7.9-.7.2-1.4.3-2.3.3-1.6 0-2.9-.5-3.9-1.4s-1.5-2.2-1.5-3.9c0-2 .7-3.4 2.1-4.3 1.4-.9 3.3-1.4 5.8-1.4h3.3v-1.5c0-1.2-.3-2.1-1-2.7-.6-.5-1.7-.8-3.3-.8-1.1 0-2.2.2-3.1.5-1 .4-1.9.8-2.7 1.2v-2.7c.6-.4 1.5-.8 2.6-1.2 1.1-.4 2.3-.6 3.6-.6 2.3 0 4 .5 5.1 1.4 1.2.9 1.8 2.4 1.8 4.3v11.1c0 .3 0 .5.1.8 0 .2 0 .4.1.6h-2.8c-.1-.3-.1-.8-.2-1.4-.1-.6-.1-1.1-.1-1.5l.1-.2zm-5.3 1.1c.9 0 1.7-.2 2.4-.6s1.2-.9 1.6-1.4c.4-.5.7-1 .9-1.5.2-.5.3-.9.3-1.1v-1.3h-3c-1.8 0-3.1.3-4 .8-.8.5-1.2 1.3-1.2 2.3 0 .8.2 1.5.7 2 .5.5 1.2.8 2.3.8zM1543.6 921.1v24.7h-3v-24.7h3zM1551.6 921.1v24.7h-3v-24.7h3zM1563.9 946.2c-1.2 0-2.4-.2-3.4-.6-1.1-.4-2-1-2.7-1.8-.8-.8-1.4-1.8-1.8-2.9-.4-1.1-.7-2.5-.7-4s.2-2.8.7-4c.4-1.2 1-2.1 1.8-2.9.8-.8 1.7-1.4 2.7-1.8 1.1-.4 2.2-.6 3.4-.6 1.2 0 2.4.2 3.5.6 1.1.4 2 1 2.7 1.8.8.8 1.4 1.8 1.8 2.9.4 1.2.7 2.5.7 4s-.2 2.8-.7 4c-.4 1.2-1.1 2.1-1.8 2.9-.8.8-1.7 1.4-2.7 1.8-1.1.4-2.3.6-3.5.6zm0-2.7c.8 0 1.5-.1 2.2-.4s1.3-.7 1.8-1.2.9-1.2 1.2-2.1c.3-.8.4-1.8.4-2.9s-.1-2.1-.4-2.9-.7-1.5-1.2-2.1c-.5-.5-1.1-.9-1.8-1.2-.7-.3-1.4-.4-2.2-.4-.8 0-1.5.1-2.2.4-.7.3-1.2.7-1.7 1.2s-.9 1.2-1.2 2.1c-.3.8-.4 1.8-.4 2.9s.1 2.1.4 2.9c.3.8.7 1.5 1.2 2.1.5.5 1.1.9 1.7 1.2s1.4.4 2.2.4zM1595.6 945.8h-4.7l-3.8-13.8-3.9 13.8h-4.5l-4.1-17.9h3.2l3.4 15.6 4.3-15.6h3.4l4.2 15.5 3.4-15.5h3l-3.9 17.9zM827 987.4c-.6.1-1.2.2-1.8.2-.9 0-1.6-.1-2.2-.4-.6-.3-1.1-.6-1.5-1-.4-.4-.7-.9-.8-1.4-.2-.5-.3-1.1-.3-1.7V972h-2.1v-2.6h2.1v-3.8h3v3.8h5.2v2.6h-5.2v10.8c0 .8.2 1.3.6 1.7.4.3 1.1.5 2 .5.9 0 1.7-.3 2.4-.8v2.7c-.3.2-.8.3-1.4.5zM839.7 987.6c-1.2 0-2.4-.2-3.4-.6-1.1-.4-2-1-2.7-1.8-.8-.8-1.4-1.8-1.8-2.9-.4-1.1-.7-2.5-.7-4s.2-2.8.7-4c.4-1.2 1-2.1 1.8-2.9.8-.8 1.7-1.4 2.7-1.8 1.1-.4 2.2-.6 3.4-.6 1.2 0 2.4.2 3.5.6 1.1.4 2 1 2.7 1.8.8.8 1.4 1.8 1.8 2.9.4 1.2.7 2.5.7 4s-.2 2.8-.7 4c-.4 1.2-1.1 2.1-1.8 2.9-.8.8-1.7 1.4-2.7 1.8-1.1.4-2.3.6-3.5.6zm0-2.7c.8 0 1.5-.1 2.2-.4.7-.3 1.3-.7 1.8-1.2s.9-1.2 1.2-2.1c.3-.8.4-1.8.4-2.9s-.1-2.1-.4-2.9-.7-1.5-1.2-2.1-1.1-.9-1.8-1.2c-.7-.3-1.4-.4-2.2-.4-.8 0-1.5.1-2.2.4-.7.3-1.2.7-1.7 1.2s-.9 1.2-1.2 2.1c-.3.8-.4 1.8-.4 2.9s.1 2.1.4 2.9c.3.8.7 1.5 1.2 2.1.5.5 1.1.9 1.7 1.2.6.3 1.4.4 2.2.4zM861.2 966.7c-.6 0-1.1-.2-1.5-.6-.4-.4-.6-.8-.6-1.4 0-.6.2-1 .6-1.4.4-.4.9-.6 1.5-.6s1.1.2 1.4.6c.3.4.5.9.5 1.4 0 .6-.2 1-.5 1.4-.3.4-.8.6-1.4.6zm1.5 2.6v17.9h-3v-17.9h3zM876.1 971.7c-1.4 0-2.5.3-3.4.9-.9.6-1.6 1.4-2.1 2.4v12.2h-3v-17.9h2.9l.1 3.2h.1c.5-1 1.2-1.9 2.3-2.6 1-.7 2.3-1 3.9-1 1.8 0 3.2.5 4.2 1.4 1 .9 1.6 2.4 1.6 4.3v12.6h-3V975c0-1.2-.3-2.1-.9-2.6-.7-.5-1.6-.7-2.7-.7zM895.2 987.6c-1.4 0-2.6-.2-3.7-.6-1.1-.4-2.1-1-2.8-1.8-.8-.8-1.4-1.8-1.8-2.9s-.6-2.5-.6-3.9.2-2.7.6-3.9 1-2.1 1.8-2.9c.8-.8 1.7-1.4 2.9-1.8 1.1-.4 2.4-.6 3.8-.6 1.1 0 2.1.1 3 .4.9.2 1.7.6 2.3 1.1v2.7c-.7-.5-1.6-.8-2.5-1.1-.9-.2-1.8-.4-2.8-.4-2.1 0-3.6.5-4.6 1.6-1 1.1-1.5 2.7-1.5 5s.5 3.9 1.4 5c.9 1.1 2.4 1.6 4.5 1.6 1.1 0 2.1-.1 3-.4.9-.3 1.7-.6 2.5-1v2.7c-.6.4-1.4.7-2.3 1-1 .1-2.1.2-3.2.2zM909.7 973.4c-1 .5-1.8 1.4-2.3 2.5v11.4h-3v-17.9h2.7l.3 3.9h.1c.5-1.1 1.2-2 2.2-2.8 1-.8 2.2-1.3 3.6-1.5v3.4c-1.4.1-2.6.4-3.6 1zM930.6 985.7l-.9.6c-.4.2-.8.4-1.3.6-.5.2-1.1.4-1.8.5-.7.1-1.4.2-2.2.2-3 0-5.3-.8-6.9-2.4-1.6-1.6-2.3-3.9-2.3-6.9 0-1.4.2-2.7.6-3.9s1-2.1 1.8-2.9c.8-.8 1.7-1.4 2.7-1.8s2.2-.6 3.4-.6c1.3 0 2.4.2 3.5.7 1 .4 1.8 1.1 2.5 1.9.7.9 1.1 1.9 1.3 3.2s.2 2.7 0 4.4h-12.6c.1 1.9.7 3.4 1.7 4.4 1 1 2.6 1.4 4.6 1.4 1.4 0 2.6-.2 3.6-.6 1-.4 1.8-.8 2.5-1.3v2.5zm-7.1-14c-1.3 0-2.4.4-3.4 1.2-.9.8-1.5 2-1.8 3.7h9.6c.1-1.7-.3-2.9-1.1-3.7-.8-.8-1.9-1.2-3.3-1.2zM945.1 983.8c-.2.4-.5.8-.8 1.3-.3.4-.7.9-1.2 1.2-.5.4-1.1.7-1.7.9-.7.2-1.4.3-2.3.3-1.6 0-2.9-.5-3.9-1.4-1-.9-1.5-2.2-1.5-3.9 0-2 .7-3.4 2.1-4.3 1.4-.9 3.3-1.4 5.8-1.4h3.3V975c0-1.2-.3-2.1-1-2.7-.6-.5-1.7-.8-3.3-.8-1.1 0-2.2.2-3.1.5-1 .4-1.9.8-2.7 1.2v-2.7c.6-.4 1.5-.8 2.6-1.2 1.1-.4 2.3-.6 3.6-.6 2.3 0 4 .5 5.1 1.4 1.2.9 1.8 2.4 1.8 4.3v11.1c0 .3 0 .5.1.8 0 .2 0 .4.1.6h-2.8c-.1-.3-.1-.8-.2-1.4-.1-.6-.1-1.1-.1-1.5l.1-.2zm-5.3 1.1c.9 0 1.7-.2 2.4-.6.7-.4 1.2-.9 1.6-1.4.4-.5.7-1 .9-1.5.2-.5.3-.9.3-1.1V979h-3c-1.8 0-3.1.3-4 .8-.8.5-1.2 1.3-1.2 2.3 0 .8.2 1.5.7 2 .5.5 1.3.8 2.3.8zM958.5 987.6c-.9 0-1.8-.1-2.5-.2s-1.4-.3-1.9-.6c-.5-.2-1-.4-1.4-.7-.4-.2-.7-.5-.9-.6v-2.7c.2.2.5.5.9.7s.9.5 1.4.7c.6.2 1.2.4 1.9.6.7.2 1.5.2 2.4.2 1.3 0 2.3-.2 3.1-.6.8-.4 1.1-1.1 1.1-2.1 0-.5-.1-1-.4-1.3-.2-.3-.6-.6-1-.8-.4-.2-.9-.3-1.4-.5-.5-.1-1.1-.2-1.7-.3-.8-.2-1.5-.3-2.2-.5-.7-.2-1.4-.5-2-.9-.6-.4-1.1-.9-1.4-1.5-.4-.6-.6-1.4-.6-2.4 0-1.6.6-2.9 1.9-3.8 1.3-.9 3-1.4 5.3-1.4 1.3 0 2.4.1 3.4.4 1 .3 1.7.5 2.3.8v2.7c-.6-.4-1.3-.7-2.2-1-.9-.3-2-.4-3.3-.4-1.4 0-2.4.2-3.1.6s-1.1 1-1.1 2c0 .5.1.9.3 1.2.2.3.5.5.8.7.4.2.8.3 1.2.4.5.1.9.2 1.4.3.8.2 1.6.3 2.4.5.8.2 1.6.5 2.2.9.7.4 1.2.9 1.6 1.6s.6 1.5.6 2.6c0 1-.2 1.9-.6 2.6-.4.7-1 1.2-1.6 1.6s-1.4.7-2.3.9c-.8.2-1.7.3-2.6.3zM983.7 985.7l-.9.6c-.4.2-.8.4-1.3.6-.5.2-1.1.4-1.8.5s-1.4.2-2.2.2c-3 0-5.3-.8-6.9-2.4-1.6-1.6-2.3-3.9-2.3-6.9 0-1.4.2-2.7.6-3.9s1-2.1 1.8-2.9c.8-.8 1.7-1.4 2.7-1.8 1-.4 2.2-.6 3.4-.6 1.3 0 2.4.2 3.5.7 1 .4 1.8 1.1 2.5 1.9.7.9 1.1 1.9 1.3 3.2.2 1.3.2 2.7 0 4.4h-12.6c.1 1.9.7 3.4 1.7 4.4 1 1 2.6 1.4 4.6 1.4 1.4 0 2.6-.2 3.6-.6 1-.4 1.8-.8 2.5-1.3v2.5zm-7.1-14c-1.3 0-2.4.4-3.4 1.2-.9.8-1.5 2-1.8 3.7h9.6c.1-1.7-.3-2.9-1.1-3.7-.8-.8-1.9-1.2-3.3-1.2zM1011.1 993.4h-3V984c-.6 1.1-1.3 2-2.3 2.6s-2.2 1-3.6 1c-1.1 0-2.1-.2-3.1-.6-1-.4-1.8-1-2.6-1.7-.7-.8-1.3-1.7-1.8-2.9-.4-1.2-.7-2.5-.7-4.1 0-1.6.2-2.9.7-4.1.4-1.2 1-2.1 1.8-2.9.7-.8 1.6-1.3 2.6-1.7 1-.4 2-.6 3.1-.6 1.4 0 2.6.3 3.6.9s1.8 1.5 2.4 2.6v-.3c0-.4 0-.9.1-1.5 0-.6.1-1 .2-1.4h2.8c0 .3-.1.8-.1 1.4 0 .6-.1 1.1-.1 1.5v21.2zm-8.6-8.5c.8 0 1.5-.1 2.2-.4.7-.3 1.2-.7 1.7-1.2.5-.6.9-1.2 1.2-2.1.3-.8.4-1.8.4-2.9s-.1-2.1-.4-2.9c-.3-.8-.7-1.5-1.2-2.1-.5-.5-1.1-1-1.7-1.2-.7-.3-1.4-.4-2.2-.4-1.6 0-2.9.6-3.9 1.7s-1.5 2.8-1.5 4.9c0 2.2.5 3.8 1.5 4.9 1.1 1.1 2.4 1.7 3.9 1.7zM1025.3 986.6c-1 .7-2.3 1-3.9 1-1.7 0-3-.5-4-1.4s-1.5-2.4-1.5-4.3v-12.5h3.1V982c0 .6.1 1.1.3 1.5.2.4.4.7.7.9.3.2.6.4 1.1.5.4.1.8.1 1.3.1 1.3 0 2.4-.3 3.2-.9.8-.6 1.5-1.4 2.1-2.5v-12.2h3v17.9h-2.7l-.3-3.2h-.1c-.6.9-1.3 1.8-2.3 2.5zM1046 983.8c-.2.4-.5.8-.8 1.3-.3.4-.7.9-1.2 1.2-.5.4-1.1.7-1.7.9-.7.2-1.4.3-2.3.3-1.6 0-2.9-.5-3.9-1.4s-1.5-2.2-1.5-3.9c0-2 .7-3.4 2.1-4.3 1.4-.9 3.3-1.4 5.8-1.4h3.3V975c0-1.2-.3-2.1-1-2.7-.6-.5-1.7-.8-3.3-.8-1.1 0-2.2.2-3.1.5-1 .4-1.9.8-2.7 1.2v-2.7c.6-.4 1.5-.8 2.6-1.2 1.1-.4 2.3-.6 3.6-.6 2.3 0 4 .5 5.1 1.4 1.2.9 1.8 2.4 1.8 4.3v11.1c0 .3 0 .5.1.8 0 .2 0 .4.1.6h-2.8c-.1-.3-.1-.8-.2-1.4-.1-.6-.1-1.1-.1-1.5l.1-.2zm-5.3 1.1c.9 0 1.7-.2 2.4-.6s1.2-.9 1.6-1.4c.4-.5.7-1 .9-1.5.2-.5.3-.9.3-1.1V979h-3c-1.8 0-3.1.3-4 .8-.8.5-1.2 1.3-1.2 2.3 0 .8.2 1.5.7 2 .5.5 1.2.8 2.3.8zM1056.7 962.5v24.7h-3v-24.7h3zM1063.2 966.7c-.6 0-1.1-.2-1.5-.6s-.6-.8-.6-1.4c0-.6.2-1 .6-1.4.4-.4.9-.6 1.5-.6s1.1.2 1.4.6c.3.4.5.9.5 1.4 0 .6-.2 1-.5 1.4-.3.4-.8.6-1.4.6zm1.5 2.6v17.9h-3v-17.9h3zM1077 987.4c-.6.1-1.2.2-1.8.2-.9 0-1.6-.1-2.2-.4s-1.1-.6-1.5-1c-.4-.4-.7-.9-.8-1.4-.2-.5-.3-1.1-.3-1.7V972h-2.1v-2.6h2.1v-3.8h3v3.8h5.2v2.6h-5.2v10.8c0 .8.2 1.3.6 1.7.4.3 1.1.5 2 .5.9 0 1.7-.3 2.5-.8v2.7c-.5.2-1 .3-1.5.5zM1090.1 989.9c-.5.8-1 1.5-1.6 2.1-.6.6-1.2 1-1.9 1.3-.7.3-1.5.4-2.4.4-.5 0-.9 0-1.3-.1s-.7-.2-1.1-.3v-2.9c.3.2.6.3 1 .4.4.1.8.2 1.3.2.9 0 1.6-.2 2.1-.6s1.1-1.1 1.6-1.9l-7.3-19.1h3.3l5.7 15.1 5.7-15.1h2.9l-6.7 17.7c-.4 1-.9 2-1.3 2.8zM1117.8 986.6c-1 .7-2.3 1-3.9 1-1.7 0-3-.5-4-1.4s-1.5-2.4-1.5-4.3v-12.5h3.1V982c0 .6.1 1.1.3 1.5.2.4.4.7.7.9.3.2.6.4 1.1.5.4.1.8.1 1.3.1 1.3 0 2.4-.3 3.2-.9.8-.6 1.5-1.4 2.1-2.5v-12.2h3v17.9h-2.7l-.3-3.2h-.1c-.6.9-1.3 1.8-2.3 2.5zM1137 987.6c-1.4 0-2.6-.3-3.6-1-1-.6-1.8-1.5-2.4-2.7v9.4h-3v-24h2.7l.3 3.5c.6-1.2 1.4-2.1 2.4-2.8 1-.7 2.3-1 3.8-1 1 0 2 .2 3 .6 1 .4 1.8 1 2.5 1.7.7.8 1.3 1.7 1.7 2.9.4 1.2.6 2.5.6 4.1 0 1.6-.2 3-.7 4.1-.4 1.2-1 2.1-1.8 2.9-.7.8-1.6 1.3-2.6 1.7-.8.4-1.8.6-2.9.6zm-.5-2.7c1.6 0 2.9-.5 3.8-1.6s1.5-2.8 1.5-5-.5-3.8-1.5-4.9-2.3-1.7-3.8-1.7c-.8 0-1.5.1-2.2.4-.7.3-1.3.7-1.8 1.2s-.9 1.2-1.2 2.1c-.3.8-.4 1.8-.4 2.9s.1 2.1.4 2.9c.3.8.7 1.5 1.2 2.1.5.6 1.1 1 1.8 1.2s1.5.4 2.2.4zM1163.6 987.4c-.6.1-1.2.2-1.8.2-.9 0-1.6-.1-2.2-.4s-1.1-.6-1.5-1c-.4-.4-.7-.9-.8-1.4-.2-.5-.3-1.1-.3-1.7V972h-2.1v-2.6h2.1v-3.8h3v3.8h5.2v2.6h-5.2v10.8c0 .8.2 1.3.6 1.7.4.3 1.1.5 2 .5.9 0 1.7-.3 2.5-.8v2.7c-.4.2-.9.3-1.5.5zM1176.3 987.6c-1.2 0-2.4-.2-3.4-.6-1.1-.4-2-1-2.7-1.8-.8-.8-1.4-1.8-1.8-2.9-.4-1.1-.7-2.5-.7-4s.2-2.8.7-4c.4-1.2 1-2.1 1.8-2.9.8-.8 1.7-1.4 2.7-1.8 1.1-.4 2.2-.6 3.4-.6 1.2 0 2.4.2 3.5.6 1.1.4 2 1 2.7 1.8.8.8 1.4 1.8 1.8 2.9.4 1.2.7 2.5.7 4s-.2 2.8-.7 4c-.4 1.2-1.1 2.1-1.8 2.9-.8.8-1.7 1.4-2.7 1.8-1.1.4-2.3.6-3.5.6zm0-2.7c.8 0 1.5-.1 2.2-.4s1.3-.7 1.8-1.2.9-1.2 1.2-2.1c.3-.8.4-1.8.4-2.9s-.1-2.1-.4-2.9-.7-1.5-1.2-2.1c-.5-.5-1.1-.9-1.8-1.2-.7-.3-1.4-.4-2.2-.4-.8 0-1.5.1-2.2.4-.7.3-1.2.7-1.7 1.2s-.9 1.2-1.2 2.1c-.3.8-.4 1.8-.4 2.9s.1 2.1.4 2.9c.3.8.7 1.5 1.2 2.1.5.5 1.1.9 1.7 1.2s1.4.4 2.2.4zM1206.6 987.2h-3.1v-20.8l-6.8 5.2v-3.5l7.3-5.7h2.6v24.8zM1229.8 979.1c0 1.3-.2 2.5-.6 3.5s-1 1.9-1.7 2.7c-.7.7-1.7 1.3-2.7 1.7-1.1.4-2.3.6-3.6.6-1.5 0-2.7-.2-3.8-.5s-2-.7-2.8-1.3v-3.4c.8.6 1.7 1.2 2.7 1.6 1 .4 2.3.7 3.9.7 1.7 0 3-.5 4-1.6s1.4-2.4 1.4-4.1c0-1.8-.5-3.1-1.4-3.9-.9-.8-2.1-1.2-3.5-1.2-1 0-1.9.2-2.5.5-.6.3-1.1.7-1.4 1.1h-2.5v-13h13.4v2.9h-10.6v7.1c.5-.3 1-.6 1.7-.9.7-.3 1.5-.4 2.4-.4 1.1 0 2.1.2 3 .5.9.3 1.7.8 2.4 1.5s1.2 1.5 1.6 2.4c.4 1 .6 2.2.6 3.5zM1241.6 968.6c0 1.1-.1 2.1-.4 2.9-.3.8-.6 1.5-1 2s-.9.9-1.5 1.2c-.6.3-1.2.4-1.8.4s-1.2-.1-1.8-.4-1.1-.6-1.5-1.1c-.4-.5-.8-1.1-1-1.9-.3-.8-.4-1.7-.4-2.8s.1-2.1.4-2.9c.3-.8.6-1.5 1-2s.9-.9 1.5-1.2 1.2-.4 1.8-.4 1.3.1 1.8.4c.6.2 1.1.6 1.5 1.1.4.5.8 1.2 1 2 .3.7.4 1.6.4 2.7zm-8 19 15.9-25.4h2.7l-15.9 25.4h-2.7zm1.2-18.9c0 1.5.2 2.6.5 3.2.3.6.9.9 1.6.9.7 0 1.2-.3 1.6-.9.3-.6.5-1.7.5-3.2s-.2-2.6-.5-3.2c-.3-.6-.9-.9-1.6-.9-.7 0-1.2.3-1.6.9-.4.6-.5 1.7-.5 3.2zm18.9 12.4c0 1.1-.1 2.1-.4 2.8-.3.8-.6 1.5-1 2s-.9.9-1.5 1.2c-.6.3-1.2.4-1.8.4-.6 0-1.2-.1-1.8-.4s-1.1-.6-1.5-1.1c-.4-.5-.8-1.1-1-1.9-.3-.8-.4-1.7-.4-2.8s.1-2.1.4-2.9c.3-.8.6-1.5 1-2s.9-.9 1.5-1.2 1.2-.4 1.8-.4c.6 0 1.3.1 1.8.4.6.2 1.1.6 1.5 1.1.4.5.8 1.2 1 2s.4 1.7.4 2.8zm-6.8 0c0 1.5.2 2.6.5 3.2.3.6.8.9 1.5.9s1.3-.3 1.6-.9c.3-.6.5-1.7.5-3.2s-.2-2.6-.5-3.2c-.3-.6-.9-.9-1.6-.9-.7 0-1.2.3-1.5.9-.3.6-.5 1.7-.5 3.2zM826.7 698h4.8l8.9 24.7h-3.5l-2.6-7.1h-10.9l-2.5 7.1h-3l8.8-24.7zm6.6 14.7-4.4-12.3-4.4 12.3h8.8zM858.8 721.2c0 1.2-.2 2.2-.5 3.2s-.9 1.8-1.6 2.4-1.7 1.2-2.8 1.6c-1.1.4-2.5.6-4.1.6-.9 0-1.6 0-2.3-.1-.7-.1-1.2-.2-1.7-.4-.5-.1-.9-.3-1.3-.5-.3-.2-.6-.3-.9-.5v-2.7l1.2.6c.4.2.8.3 1.3.5.5.1 1 .2 1.6.3.6.1 1.3.1 2.1.1 2.2 0 3.7-.4 4.6-1.2.9-.8 1.3-2.1 1.3-3.7v-2.8c-.5 1.1-1.3 1.9-2.2 2.6-1 .6-2.1 1-3.5 1-1.1 0-2.1-.2-3-.6-1-.4-1.8-.9-2.5-1.6-.7-.7-1.3-1.6-1.7-2.7-.4-1.1-.6-2.4-.6-3.8 0-1.5.2-2.8.6-3.8.4-1.1 1-2 1.7-2.7.7-.7 1.6-1.3 2.5-1.7 1-.4 2-.6 3.1-.6 1.4 0 2.6.3 3.6 1 1 .6 1.7 1.5 2.3 2.6v-.4c0-.4 0-.9.1-1.5 0-.6.1-1 .1-1.4h2.8c0 .3-.1.8-.1 1.4 0 .6-.1 1.1-.1 1.5v13.3zm-8.3-1.9c.8 0 1.5-.1 2.1-.4.6-.2 1.2-.6 1.7-1.1.5-.5.8-1.1 1.1-1.9.3-.8.4-1.6.4-2.6 0-2.1-.5-3.6-1.5-4.6-1-1-2.3-1.5-3.8-1.5-.8 0-1.5.1-2.1.4-.7.3-1.2.6-1.7 1.1-.5.5-.8 1.1-1.1 1.9-.3.8-.4 1.7-.4 2.7s.1 1.9.4 2.6c.3.7.7 1.4 1.1 1.9s1.1.9 1.7 1.1c.7.3 1.4.4 2.1.4zM879.1 721.2c0 1.2-.2 2.2-.5 3.2s-.9 1.8-1.6 2.4-1.7 1.2-2.8 1.6c-1.1.4-2.5.6-4.1.6-.9 0-1.6 0-2.3-.1-.7-.1-1.2-.2-1.7-.4-.5-.1-.9-.3-1.3-.5-.3-.2-.6-.3-.9-.5v-2.7l1.2.6c.4.2.8.3 1.3.5.5.1 1 .2 1.6.3.6.1 1.3.1 2.1.1 2.2 0 3.7-.4 4.6-1.2.9-.8 1.3-2.1 1.3-3.7v-2.8c-.5 1.1-1.3 1.9-2.2 2.6-1 .6-2.1 1-3.5 1-1.1 0-2.1-.2-3-.6-1-.4-1.8-.9-2.5-1.6-.7-.7-1.3-1.6-1.7-2.7-.4-1.1-.6-2.4-.6-3.8 0-1.5.2-2.8.6-3.8.4-1.1 1-2 1.7-2.7.7-.7 1.6-1.3 2.5-1.7 1-.4 2-.6 3.1-.6 1.4 0 2.6.3 3.6 1 1 .6 1.7 1.5 2.3 2.6v-.4c0-.4 0-.9.1-1.5 0-.6.1-1 .1-1.4h2.8c0 .3-.1.8-.1 1.4 0 .6-.1 1.1-.1 1.5v13.3zm-8.2-1.9c.8 0 1.5-.1 2.1-.4.6-.2 1.2-.6 1.7-1.1.5-.5.8-1.1 1.1-1.9.3-.8.4-1.6.4-2.6 0-2.1-.5-3.6-1.5-4.6-1-1-2.3-1.5-3.8-1.5-.8 0-1.5.1-2.1.4-.7.3-1.2.6-1.7 1.1-.5.5-.8 1.1-1.1 1.9-.3.8-.4 1.7-.4 2.7s.1 1.9.4 2.6c.3.7.7 1.4 1.1 1.9s1.1.9 1.7 1.1c.6.3 1.3.4 2.1.4zM889.4 708.9c-1 .5-1.8 1.4-2.3 2.5v11.4h-3v-17.9h2.7l.3 3.9h.1c.5-1.1 1.2-2 2.2-2.8 1-.8 2.2-1.3 3.6-1.5v3.4c-1.4.1-2.6.4-3.6 1zM910.3 721.2l-.9.6c-.4.2-.8.4-1.3.6-.5.2-1.1.4-1.8.5-.7.1-1.4.2-2.2.2-3 0-5.3-.8-6.9-2.4-1.6-1.6-2.3-3.9-2.3-6.9 0-1.4.2-2.7.6-3.9s1-2.1 1.8-2.9c.8-.8 1.7-1.4 2.7-1.8s2.2-.6 3.4-.6c1.3 0 2.4.2 3.5.7 1 .4 1.8 1.1 2.5 1.9.7.9 1.1 1.9 1.3 3.2s.2 2.7 0 4.4h-12.6c.1 1.9.7 3.4 1.7 4.4 1 1 2.6 1.4 4.6 1.4 1.4 0 2.6-.2 3.6-.6 1-.4 1.8-.8 2.5-1.3v2.5zm-7.1-14c-1.3 0-2.4.4-3.4 1.2-.9.8-1.5 2-1.8 3.7h9.6c.1-1.7-.3-2.9-1.1-3.7-.8-.8-1.9-1.2-3.3-1.2zM929.7 721.2c0 1.2-.2 2.2-.5 3.2s-.9 1.8-1.6 2.4-1.7 1.2-2.8 1.6c-1.1.4-2.5.6-4.1.6-.9 0-1.6 0-2.3-.1-.7-.1-1.2-.2-1.7-.4-.5-.1-.9-.3-1.3-.5-.3-.2-.6-.3-.9-.5v-2.7l1.2.6c.4.2.8.3 1.3.5.5.1 1 .2 1.6.3.6.1 1.3.1 2.1.1 2.2 0 3.7-.4 4.6-1.2.9-.8 1.3-2.1 1.3-3.7v-2.8c-.5 1.1-1.3 1.9-2.2 2.6-1 .6-2.1 1-3.5 1-1.1 0-2.1-.2-3-.6-1-.4-1.8-.9-2.5-1.6-.7-.7-1.3-1.6-1.7-2.7-.4-1.1-.6-2.4-.6-3.8 0-1.5.2-2.8.6-3.8.4-1.1 1-2 1.7-2.7.7-.7 1.6-1.3 2.5-1.7 1-.4 2-.6 3.1-.6 1.4 0 2.6.3 3.6 1 1 .6 1.7 1.5 2.3 2.6v-.4c0-.4 0-.9.1-1.5 0-.6.1-1 .1-1.4h2.8c0 .3-.1.8-.1 1.4 0 .6-.1 1.1-.1 1.5v13.3zm-8.2-1.9c.8 0 1.5-.1 2.1-.4.6-.2 1.2-.6 1.7-1.1.5-.5.8-1.1 1.1-1.9.3-.8.4-1.6.4-2.6 0-2.1-.5-3.6-1.5-4.6-1-1-2.3-1.5-3.8-1.5-.8 0-1.5.1-2.1.4-.7.3-1.2.6-1.7 1.1-.5.5-.8 1.1-1.1 1.9-.3.8-.4 1.7-.4 2.7s.1 1.9.4 2.6c.3.7.7 1.4 1.1 1.9s1.1.9 1.7 1.1c.6.3 1.3.4 2.1.4zM945.2 719.3c-.2.4-.5.8-.8 1.3-.3.4-.7.9-1.2 1.2-.5.4-1.1.7-1.7.9-.7.2-1.4.3-2.3.3-1.6 0-2.9-.5-3.9-1.4-1-.9-1.5-2.2-1.5-3.9 0-2 .7-3.4 2.1-4.3 1.4-.9 3.3-1.4 5.8-1.4h3.3v-1.5c0-1.2-.3-2.1-1-2.7-.6-.5-1.7-.8-3.3-.8-1.1 0-2.2.2-3.1.5-1 .4-1.9.8-2.7 1.2V706c.6-.4 1.5-.8 2.6-1.2 1.1-.4 2.3-.6 3.6-.6 2.3 0 4 .5 5.1 1.4 1.2.9 1.8 2.4 1.8 4.3V721c0 .3 0 .5.1.8 0 .2 0 .4.1.6h-2.8c-.1-.3-.1-.8-.2-1.4-.1-.6-.1-1.1-.1-1.5l.1-.2zm-5.4 1.1c.9 0 1.7-.2 2.4-.6.7-.4 1.2-.9 1.6-1.4.4-.5.7-1 .9-1.5.2-.5.3-.9.3-1.1v-1.3h-3c-1.8 0-3.1.3-4 .8-.8.5-1.2 1.3-1.2 2.3 0 .8.2 1.5.7 2 .5.5 1.3.8 2.3.8zM960.2 722.9c-.6.1-1.2.2-1.8.2-.9 0-1.6-.1-2.2-.4-.6-.3-1.1-.6-1.5-1-.4-.4-.7-.9-.8-1.4-.2-.5-.3-1.1-.3-1.7v-11.1h-2.1v-2.6h2.1v-3.8h3v3.8h5.2v2.6h-5.2v10.8c0 .8.2 1.3.6 1.7.4.3 1.1.5 2 .5.9 0 1.7-.3 2.4-.8v2.7c-.4.2-.8.3-1.4.5zM979.7 721.2l-.9.6c-.4.2-.8.4-1.3.6-.5.2-1.1.4-1.8.5s-1.4.2-2.2.2c-3 0-5.3-.8-6.9-2.4-1.6-1.6-2.3-3.9-2.3-6.9 0-1.4.2-2.7.6-3.9s1-2.1 1.8-2.9c.8-.8 1.7-1.4 2.7-1.8 1-.4 2.2-.6 3.4-.6 1.3 0 2.4.2 3.5.7 1 .4 1.8 1.1 2.5 1.9.7.9 1.1 1.9 1.3 3.2.2 1.3.2 2.7 0 4.4h-12.6c.1 1.9.7 3.4 1.7 4.4 1 1 2.6 1.4 4.6 1.4 1.4 0 2.6-.2 3.6-.6 1-.4 1.8-.8 2.5-1.3v2.5zm-7.1-14c-1.3 0-2.4.4-3.4 1.2-.9.8-1.5 2-1.8 3.7h9.6c.1-1.7-.3-2.9-1.1-3.7-.8-.8-1.9-1.2-3.3-1.2zM994.4 722.7h-3v-17.9h2.7l.3 3.2h.1c.5-1 1.2-1.9 2.2-2.5 1-.7 2.2-1 3.8-1 1.4 0 2.5.3 3.4 1s1.5 1.6 1.8 3c.5-1.2 1.3-2.2 2.3-2.9 1-.7 2.3-1.1 3.8-1.1 1.7 0 3 .5 3.9 1.4 1 .9 1.4 2.4 1.4 4.3v12.6h-3.1v-12.2c0-1.2-.3-2-.9-2.6-.6-.5-1.4-.8-2.3-.8-.7 0-1.3.1-1.8.3s-1 .5-1.3.8c-.4.3-.7.7-1.1 1.2s-.6.9-.9 1.4v11.8h-3v-12.5c0-1.2-.3-1.9-.9-2.4-.6-.4-1.4-.7-2.3-.7-.6 0-1.2.1-1.7.2-.5.2-1 .4-1.4.7s-.8.7-1.1 1.1c-.3.4-.6.9-.9 1.4v12.2zM1031.1 722.1c-1 .7-2.3 1-3.9 1-1.7 0-3-.5-4-1.4s-1.5-2.4-1.5-4.3v-12.5h3.1v12.6c0 .6.1 1.1.3 1.5.2.4.4.7.7.9.3.2.6.4 1.1.5.4.1.8.1 1.3.1 1.3 0 2.4-.3 3.2-.9.8-.6 1.5-1.4 2.1-2.5v-12.2h3v17.9h-2.7l-.3-3.2h-.1c-.6.9-1.3 1.8-2.3 2.5zM1044.3 698v24.7h-3V698h3zM1056.6 722.9c-.6.1-1.2.2-1.8.2-.9 0-1.6-.1-2.2-.4s-1.1-.6-1.5-1c-.4-.4-.7-.9-.8-1.4-.2-.5-.3-1.1-.3-1.7v-11.1h-2.1v-2.6h2.1v-3.8h3v3.8h5.2v2.6h-5.2v10.8c0 .8.2 1.3.6 1.7.4.3 1.1.5 2 .5.9 0 1.7-.3 2.5-.8v2.7c-.4.2-.9.3-1.5.5zM1063.6 702.2c-.6 0-1.1-.2-1.5-.6s-.6-.8-.6-1.4c0-.6.2-1 .6-1.4.4-.4.9-.6 1.5-.6s1.1.2 1.4.6c.3.4.5.9.5 1.4 0 .6-.2 1-.5 1.4-.3.4-.8.6-1.4.6zm1.5 2.6v17.9h-3v-17.9h3zM1079 723.1c-1.4 0-2.6-.3-3.6-1-1-.6-1.8-1.5-2.4-2.7v9.4h-3v-24h2.7l.3 3.5c.6-1.2 1.4-2.1 2.4-2.8 1-.7 2.3-1 3.8-1 1 0 2 .2 3 .6 1 .4 1.8 1 2.5 1.7.7.8 1.3 1.7 1.7 2.9.4 1.2.6 2.5.6 4.1 0 1.6-.2 3-.7 4.1-.4 1.2-1 2.1-1.8 2.9-.7.8-1.6 1.3-2.6 1.7-.8.4-1.8.6-2.9.6zm-.4-2.7c1.6 0 2.9-.5 3.8-1.6s1.5-2.8 1.5-5-.5-3.8-1.5-4.9-2.3-1.7-3.8-1.7c-.8 0-1.5.1-2.2.4-.7.3-1.3.7-1.8 1.2s-.9 1.2-1.2 2.1c-.3.8-.4 1.8-.4 2.9s.1 2.1.4 2.9c.3.8.7 1.5 1.2 2.1.5.6 1.1 1 1.8 1.2s1.4.4 2.2.4zM1093.8 698v24.7h-3V698h3zM1113 721.2l-.9.6c-.4.2-.8.4-1.3.6-.5.2-1.1.4-1.8.5s-1.4.2-2.2.2c-3 0-5.3-.8-6.9-2.4-1.6-1.6-2.3-3.9-2.3-6.9 0-1.4.2-2.7.6-3.9s1-2.1 1.8-2.9c.8-.8 1.7-1.4 2.7-1.8 1-.4 2.2-.6 3.4-.6 1.3 0 2.4.2 3.5.7 1 .4 1.8 1.1 2.5 1.9.7.9 1.1 1.9 1.3 3.2.2 1.3.2 2.7 0 4.4h-12.6c.1 1.9.7 3.4 1.7 4.4 1 1 2.6 1.4 4.6 1.4 1.4 0 2.6-.2 3.6-.6 1-.4 1.8-.8 2.5-1.3v2.5zm-7.2-14c-1.3 0-2.4.4-3.4 1.2-.9.8-1.5 2-1.8 3.7h9.6c.1-1.7-.3-2.9-1.1-3.7-.8-.8-1.9-1.2-3.3-1.2zM1127.6 698v24.7h-3V698h3zM1143 719.3c-.2.4-.5.8-.8 1.3-.3.4-.7.9-1.2 1.2-.5.4-1.1.7-1.7.9-.7.2-1.4.3-2.3.3-1.6 0-2.9-.5-3.9-1.4s-1.5-2.2-1.5-3.9c0-2 .7-3.4 2.1-4.3 1.4-.9 3.3-1.4 5.8-1.4h3.3v-1.5c0-1.2-.3-2.1-1-2.7-.6-.5-1.7-.8-3.3-.8-1.1 0-2.2.2-3.1.5-1 .4-1.9.8-2.7 1.2V706c.6-.4 1.5-.8 2.6-1.2 1.1-.4 2.3-.6 3.6-.6 2.3 0 4 .5 5.1 1.4 1.2.9 1.8 2.4 1.8 4.3V721c0 .3 0 .5.1.8 0 .2 0 .4.1.6h-2.8c-.1-.3-.1-.8-.2-1.4-.1-.6-.1-1.1-.1-1.5l.1-.2zm-5.3 1.1c.9 0 1.7-.2 2.4-.6s1.2-.9 1.6-1.4c.4-.5.7-1 .9-1.5.2-.5.3-.9.3-1.1v-1.3h-3c-1.8 0-3.1.3-4 .8-.8.5-1.2 1.3-1.2 2.3 0 .8.2 1.5.7 2 .5.5 1.3.8 2.3.8zM1167.7 713.8c0 1.6-.2 3-.7 4.1-.4 1.2-1 2.1-1.8 2.9-.7.8-1.6 1.3-2.6 1.7-1 .4-2 .6-3 .6-1.4 0-2.6-.3-3.6-1s-1.8-1.6-2.4-2.7l-.1 3.4h-2.9V698h3l-.1 10.3c.6-1.2 1.4-2.1 2.4-2.8 1-.7 2.3-1 3.8-1 1 0 2 .2 3 .6 1 .4 1.8 1 2.5 1.7.7.8 1.3 1.7 1.7 2.9.6 1.1.8 2.5.8 4.1zm-8.4 6.6c1.6 0 2.9-.5 3.8-1.6s1.5-2.8 1.5-5-.5-3.8-1.5-4.9-2.3-1.7-3.8-1.7c-.8 0-1.5.1-2.2.4-.7.3-1.3.7-1.8 1.2s-.9 1.2-1.2 2.1c-.3.8-.4 1.8-.4 2.9s.1 2.1.4 2.9c.3.8.7 1.5 1.2 2.1.5.6 1.1 1 1.8 1.2s1.4.4 2.2.4zM1185.6 721.2l-.9.6c-.4.2-.8.4-1.3.6-.5.2-1.1.4-1.8.5s-1.4.2-2.2.2c-3 0-5.3-.8-6.9-2.4-1.6-1.6-2.3-3.9-2.3-6.9 0-1.4.2-2.7.6-3.9s1-2.1 1.8-2.9c.8-.8 1.7-1.4 2.7-1.8 1-.4 2.2-.6 3.4-.6 1.3 0 2.4.2 3.5.7 1 .4 1.8 1.1 2.5 1.9.7.9 1.1 1.9 1.3 3.2.2 1.3.2 2.7 0 4.4h-12.6c.1 1.9.7 3.4 1.7 4.4 1 1 2.6 1.4 4.6 1.4 1.4 0 2.6-.2 3.6-.6 1-.4 1.8-.8 2.5-1.3v2.5zm-7.1-14c-1.3 0-2.4.4-3.4 1.2-.9.8-1.5 2-1.8 3.7h9.6c.1-1.7-.3-2.9-1.1-3.7-.8-.8-1.9-1.2-3.3-1.2zM1192.7 698v24.7h-3V698h3zM1203.4 723.1c-.9 0-1.8-.1-2.5-.2s-1.4-.3-1.9-.6c-.5-.2-1-.4-1.4-.7-.4-.2-.7-.5-.9-.6v-2.7c.2.2.5.5.9.7.4.3.9.5 1.4.7.6.2 1.2.4 1.9.6.7.2 1.5.2 2.4.2 1.3 0 2.3-.2 3.1-.6s1.1-1.1 1.1-2.1c0-.5-.1-1-.4-1.3-.2-.3-.6-.6-1-.8-.4-.2-.9-.3-1.4-.5-.5-.1-1.1-.2-1.7-.3-.8-.2-1.5-.3-2.2-.5s-1.4-.5-2-.9c-.6-.4-1.1-.9-1.4-1.5s-.6-1.4-.6-2.4c0-1.6.6-2.9 1.9-3.8 1.3-.9 3-1.4 5.3-1.4 1.3 0 2.4.1 3.4.4s1.7.5 2.3.8v2.7c-.6-.4-1.3-.7-2.2-1s-2-.4-3.3-.4c-1.4 0-2.4.2-3.1.6s-1.1 1-1.1 2c0 .5.1.9.3 1.2.2.3.5.5.8.7.4.2.8.3 1.2.4.5.1.9.2 1.4.3.8.2 1.6.3 2.4.5.8.2 1.6.5 2.2.9.7.4 1.2.9 1.6 1.6s.6 1.5.6 2.6c0 1-.2 1.9-.6 2.6-.4.7-1 1.2-1.6 1.6-.7.4-1.4.7-2.3.9-.8.2-1.7.3-2.6.3zM1223.5 702.2c-.6 0-1.1-.2-1.5-.6s-.6-.8-.6-1.4c0-.6.2-1 .6-1.4.4-.4.9-.6 1.5-.6s1.1.2 1.4.6c.3.4.5.9.5 1.4 0 .6-.2 1-.5 1.4-.4.4-.8.6-1.4.6zm1.4 2.6v17.9h-3v-17.9h3zM1238.4 707.2c-1.4 0-2.5.3-3.4.9-.9.6-1.6 1.4-2.1 2.4v12.2h-3v-17.9h2.9l.1 3.2h.1c.5-1 1.2-1.9 2.3-2.6s2.3-1 3.9-1c1.8 0 3.2.5 4.2 1.4 1 .9 1.6 2.4 1.6 4.3v12.6h-3v-12.2c0-1.2-.3-2.1-.9-2.6-.8-.5-1.6-.7-2.7-.7zM1257.1 722.9c-.6.1-1.2.2-1.8.2-.9 0-1.6-.1-2.2-.4s-1.1-.6-1.5-1c-.4-.4-.7-.9-.8-1.4-.2-.5-.3-1.1-.3-1.7v-11.1h-2.1v-2.6h2.1v-3.8h3v3.8h5.2v2.6h-5.2v10.8c0 .8.2 1.3.6 1.7.4.3 1.1.5 2 .5.9 0 1.7-.3 2.5-.8v2.7c-.5.2-1 .3-1.5.5zM1269.7 723.1c-1.2 0-2.4-.2-3.4-.6-1.1-.4-2-1-2.7-1.8-.8-.8-1.4-1.8-1.8-2.9-.4-1.1-.7-2.5-.7-4s.2-2.8.7-4c.4-1.2 1-2.1 1.8-2.9.8-.8 1.7-1.4 2.7-1.8 1.1-.4 2.2-.6 3.4-.6 1.2 0 2.4.2 3.5.6 1.1.4 2 1 2.7 1.8.8.8 1.4 1.8 1.8 2.9.4 1.2.7 2.5.7 4s-.2 2.8-.7 4c-.4 1.2-1.1 2.1-1.8 2.9-.8.8-1.7 1.4-2.7 1.8-1.1.4-2.3.6-3.5.6zm0-2.7c.8 0 1.5-.1 2.2-.4s1.3-.7 1.8-1.2.9-1.2 1.2-2.1c.3-.8.4-1.8.4-2.9s-.1-2.1-.4-2.9-.7-1.5-1.2-2.1c-.5-.5-1.1-.9-1.8-1.2-.7-.3-1.4-.4-2.2-.4-.8 0-1.5.1-2.2.4-.7.3-1.2.7-1.7 1.2s-.9 1.2-1.2 2.1c-.3.8-.4 1.8-.4 2.9s.1 2.1.4 2.9c.3.8.7 1.5 1.2 2.1.5.5 1.1.9 1.7 1.2s1.4.4 2.2.4zM1300.2 719.3c-.2.4-.5.8-.8 1.3-.3.4-.7.9-1.2 1.2-.5.4-1.1.7-1.7.9-.7.2-1.4.3-2.3.3-1.6 0-2.9-.5-3.9-1.4s-1.5-2.2-1.5-3.9c0-2 .7-3.4 2.1-4.3 1.4-.9 3.3-1.4 5.8-1.4h3.3v-1.5c0-1.2-.3-2.1-1-2.7-.6-.5-1.7-.8-3.3-.8-1.1 0-2.2.2-3.1.5-1 .4-1.9.8-2.7 1.2V706c.6-.4 1.5-.8 2.6-1.2 1.1-.4 2.3-.6 3.6-.6 2.3 0 4 .5 5.1 1.4 1.2.9 1.8 2.4 1.8 4.3V721c0 .3 0 .5.1.8 0 .2 0 .4.1.6h-2.8c-.1-.3-.1-.8-.2-1.4-.1-.6-.1-1.1-.1-1.5l.1-.2zm-5.4 1.1c.9 0 1.7-.2 2.4-.6s1.2-.9 1.6-1.4c.4-.5.7-1 .9-1.5.2-.5.3-.9.3-1.1v-1.3h-3c-1.8 0-3.1.3-4 .8-.8.5-1.2 1.3-1.2 2.3 0 .8.2 1.5.7 2 .5.5 1.3.8 2.3.8zM1318.4 722.7h-3v-17.9h2.7l.3 3.2h.1c.5-1 1.2-1.9 2.2-2.5 1-.7 2.2-1 3.8-1 1.4 0 2.5.3 3.4 1s1.5 1.6 1.8 3c.5-1.2 1.3-2.2 2.3-2.9 1-.7 2.3-1.1 3.8-1.1 1.7 0 3 .5 3.9 1.4 1 .9 1.4 2.4 1.4 4.3v12.6h-3.1v-12.2c0-1.2-.3-2-.9-2.6-.6-.5-1.4-.8-2.3-.8-.7 0-1.3.1-1.8.3s-1 .5-1.3.8c-.4.3-.7.7-1.1 1.2s-.6.9-.9 1.4v11.8h-3v-12.5c0-1.2-.3-1.9-.9-2.4-.6-.4-1.4-.7-2.3-.7-.6 0-1.2.1-1.7.2-.5.2-1 .4-1.4.7s-.8.7-1.1 1.1c-.3.4-.6.9-.9 1.4v12.2zM1353.2 723.1c-1.2 0-2.4-.2-3.4-.6-1.1-.4-2-1-2.7-1.8-.8-.8-1.4-1.8-1.8-2.9-.4-1.1-.7-2.5-.7-4s.2-2.8.7-4c.4-1.2 1-2.1 1.8-2.9.8-.8 1.7-1.4 2.7-1.8 1.1-.4 2.2-.6 3.4-.6 1.2 0 2.4.2 3.5.6 1.1.4 2 1 2.7 1.8.8.8 1.4 1.8 1.8 2.9.4 1.2.7 2.5.7 4s-.2 2.8-.7 4c-.4 1.2-1.1 2.1-1.8 2.9-.8.8-1.7 1.4-2.7 1.8-1.1.4-2.2.6-3.5.6zm0-2.7c.8 0 1.5-.1 2.2-.4s1.3-.7 1.8-1.2.9-1.2 1.2-2.1c.3-.8.4-1.8.4-2.9s-.1-2.1-.4-2.9-.7-1.5-1.2-2.1c-.5-.5-1.1-.9-1.8-1.2-.7-.3-1.4-.4-2.2-.4-.8 0-1.5.1-2.2.4-.7.3-1.2.7-1.7 1.2s-.9 1.2-1.2 2.1c-.3.8-.4 1.8-.4 2.9s.1 2.1.4 2.9c.3.8.7 1.5 1.2 2.1.5.5 1.1.9 1.7 1.2s1.4.4 2.2.4zM1371 708.9c-1 .5-1.8 1.4-2.3 2.5v11.4h-3v-17.9h2.7l.3 3.9h.1c.5-1.1 1.2-2 2.2-2.8 1-.8 2.2-1.3 3.6-1.5v3.4c-1.4.1-2.6.4-3.6 1zM1391.9 721.2l-.9.6c-.4.2-.8.4-1.3.6-.5.2-1.1.4-1.8.5s-1.4.2-2.2.2c-3 0-5.3-.8-6.9-2.4-1.6-1.6-2.3-3.9-2.3-6.9 0-1.4.2-2.7.6-3.9s1-2.1 1.8-2.9c.8-.8 1.7-1.4 2.7-1.8 1-.4 2.2-.6 3.4-.6 1.3 0 2.4.2 3.5.7 1 .4 1.8 1.1 2.5 1.9.7.9 1.1 1.9 1.3 3.2.2 1.3.2 2.7 0 4.4h-12.6c.1 1.9.7 3.4 1.7 4.4 1 1 2.6 1.4 4.6 1.4 1.4 0 2.6-.2 3.6-.6 1-.4 1.8-.8 2.5-1.3v2.5zm-7.1-14c-1.3 0-2.4.4-3.4 1.2-.9.8-1.5 2-1.8 3.7h9.6c.1-1.7-.3-2.9-1.1-3.7-.8-.8-1.9-1.2-3.3-1.2zM1408.9 708.9c-1 .5-1.8 1.4-2.3 2.5v11.4h-3v-17.9h2.7l.3 3.9h.1c.5-1.1 1.2-2 2.2-2.8 1-.8 2.2-1.3 3.6-1.5v3.4c-1.4.1-2.6.4-3.6 1zM1429.8 721.2l-.9.6c-.4.2-.8.4-1.3.6-.5.2-1.1.4-1.8.5s-1.4.2-2.2.2c-3 0-5.3-.8-6.9-2.4-1.6-1.6-2.3-3.9-2.3-6.9 0-1.4.2-2.7.6-3.9s1-2.1 1.8-2.9c.8-.8 1.7-1.4 2.7-1.8 1-.4 2.2-.6 3.4-.6 1.3 0 2.4.2 3.5.7 1 .4 1.8 1.1 2.5 1.9.7.9 1.1 1.9 1.3 3.2.2 1.3.2 2.7 0 4.4h-12.6c.1 1.9.7 3.4 1.7 4.4 1 1 2.6 1.4 4.6 1.4 1.4 0 2.6-.2 3.6-.6 1-.4 1.8-.8 2.5-1.3v2.5zm-7.1-14c-1.3 0-2.4.4-3.4 1.2-.9.8-1.5 2-1.8 3.7h9.6c.1-1.7-.3-2.9-1.1-3.7-.8-.8-1.9-1.2-3.3-1.2zM1436.9 698v24.7h-3V698h3zM1443.4 702.2c-.6 0-1.1-.2-1.5-.6s-.6-.8-.6-1.4c0-.6.2-1 .6-1.4.4-.4.9-.6 1.5-.6s1.1.2 1.4.6c.3.4.5.9.5 1.4 0 .6-.2 1-.5 1.4-.4.4-.8.6-1.4.6zm1.5 2.6v17.9h-3v-17.9h3zM1460.3 719.3c-.2.4-.5.8-.8 1.3-.3.4-.7.9-1.2 1.2-.5.4-1.1.7-1.7.9-.7.2-1.4.3-2.3.3-1.6 0-2.9-.5-3.9-1.4s-1.5-2.2-1.5-3.9c0-2 .7-3.4 2.1-4.3 1.4-.9 3.3-1.4 5.8-1.4h3.3v-1.5c0-1.2-.3-2.1-1-2.7-.6-.5-1.7-.8-3.3-.8-1.1 0-2.2.2-3.1.5-1 .4-1.9.8-2.7 1.2V706c.6-.4 1.5-.8 2.6-1.2 1.1-.4 2.3-.6 3.6-.6 2.3 0 4 .5 5.1 1.4 1.2.9 1.8 2.4 1.8 4.3V721c0 .3 0 .5.1.8 0 .2 0 .4.1.6h-2.8c-.1-.3-.1-.8-.2-1.4-.1-.6-.1-1.1-.1-1.5l.1-.2zm-5.4 1.1c.9 0 1.7-.2 2.4-.6s1.2-.9 1.6-1.4c.4-.5.7-1 .9-1.5.2-.5.3-.9.3-1.1v-1.3h-3c-1.8 0-3.1.3-4 .8-.8.5-1.2 1.3-1.2 2.3 0 .8.2 1.5.7 2 .5.5 1.3.8 2.3.8zM1485 713.8c0 1.6-.2 3-.7 4.1-.4 1.2-1 2.1-1.8 2.9-.7.8-1.6 1.3-2.6 1.7-1 .4-2 .6-3 .6-1.4 0-2.6-.3-3.6-1s-1.8-1.6-2.4-2.7l-.1 3.4h-2.9V698h3l-.1 10.3c.6-1.2 1.4-2.1 2.4-2.8 1-.7 2.3-1 3.8-1 1 0 2 .2 3 .6 1 .4 1.8 1 2.5 1.7.7.8 1.3 1.7 1.7 2.9.5 1.1.8 2.5.8 4.1zm-8.5 6.6c1.6 0 2.9-.5 3.8-1.6s1.5-2.8 1.5-5-.5-3.8-1.5-4.9-2.3-1.7-3.8-1.7c-.8 0-1.5.1-2.2.4-.7.3-1.3.7-1.8 1.2s-.9 1.2-1.2 2.1c-.3.8-.4 1.8-.4 2.9s.1 2.1.4 2.9c.3.8.7 1.5 1.2 2.1.5.6 1.1 1 1.8 1.2s1.4.4 2.2.4zM1491.7 698v24.7h-3V698h3zM1510.9 721.2l-.9.6c-.4.2-.8.4-1.3.6-.5.2-1.1.4-1.8.5s-1.4.2-2.2.2c-3 0-5.3-.8-6.9-2.4-1.6-1.6-2.3-3.9-2.3-6.9 0-1.4.2-2.7.6-3.9s1-2.1 1.8-2.9c.8-.8 1.7-1.4 2.7-1.8 1-.4 2.2-.6 3.4-.6 1.3 0 2.4.2 3.5.7 1 .4 1.8 1.1 2.5 1.9.7.9 1.1 1.9 1.3 3.2.2 1.3.2 2.7 0 4.4h-12.6c.1 1.9.7 3.4 1.7 4.4 1 1 2.6 1.4 4.6 1.4 1.4 0 2.6-.2 3.6-.6 1-.4 1.8-.8 2.5-1.3v2.5zm-7.1-14c-1.3 0-2.4.4-3.4 1.2-.9.8-1.5 2-1.8 3.7h9.6c.1-1.7-.3-2.9-1.1-3.7-.9-.8-2-1.2-3.3-1.2zM1529.8 723.1c-1.2 0-2.4-.2-3.4-.6-1.1-.4-2-1-2.7-1.8-.8-.8-1.4-1.8-1.8-2.9-.4-1.1-.7-2.5-.7-4s.2-2.8.7-4c.4-1.2 1-2.1 1.8-2.9.8-.8 1.7-1.4 2.7-1.8 1.1-.4 2.2-.6 3.4-.6 1.2 0 2.4.2 3.5.6 1.1.4 2 1 2.7 1.8.8.8 1.4 1.8 1.8 2.9.4 1.2.7 2.5.7 4s-.2 2.8-.7 4c-.4 1.2-1.1 2.1-1.8 2.9-.8.8-1.7 1.4-2.7 1.8-1.1.4-2.2.6-3.5.6zm0-2.7c.8 0 1.5-.1 2.2-.4s1.3-.7 1.8-1.2.9-1.2 1.2-2.1c.3-.8.4-1.8.4-2.9s-.1-2.1-.4-2.9-.7-1.5-1.2-2.1c-.5-.5-1.1-.9-1.8-1.2-.7-.3-1.4-.4-2.2-.4-.8 0-1.5.1-2.2.4-.7.3-1.2.7-1.7 1.2s-.9 1.2-1.2 2.1c-.3.8-.4 1.8-.4 2.9s.1 2.1.4 2.9c.3.8.7 1.5 1.2 2.1.5.5 1.1.9 1.7 1.2s1.4.4 2.2.4zM1550.7 707.2c-1.4 0-2.5.3-3.4.9-.9.6-1.6 1.4-2.1 2.4v12.2h-3v-17.9h2.9l.1 3.2h.1c.5-1 1.2-1.9 2.3-2.6s2.3-1 3.9-1c1.8 0 3.2.5 4.2 1.4 1 .9 1.6 2.4 1.6 4.3v12.6h-3v-12.2c0-1.2-.3-2.1-.9-2.6-.7-.5-1.6-.7-2.7-.7zM1576.3 721.2l-.9.6c-.4.2-.8.4-1.3.6-.5.2-1.1.4-1.8.5s-1.4.2-2.2.2c-3 0-5.3-.8-6.9-2.4-1.6-1.6-2.3-3.9-2.3-6.9 0-1.4.2-2.7.6-3.9s1-2.1 1.8-2.9c.8-.8 1.7-1.4 2.7-1.8 1-.4 2.2-.6 3.4-.6 1.3 0 2.4.2 3.5.7 1 .4 1.8 1.1 2.5 1.9.7.9 1.1 1.9 1.3 3.2.2 1.3.2 2.7 0 4.4h-12.6c.1 1.9.7 3.4 1.7 4.4 1 1 2.6 1.4 4.6 1.4 1.4 0 2.6-.2 3.6-.6 1-.4 1.8-.8 2.5-1.3v2.5zm-7.1-14c-1.3 0-2.4.4-3.4 1.2-.9.8-1.5 2-1.8 3.7h9.6c.1-1.7-.3-2.9-1.1-3.7-.8-.8-1.9-1.2-3.3-1.2zM829.1 783.8v21.7h-3.3v-21.7h-7.6v-3h18.5v3h-7.6zM848.8 790c-1.4 0-2.5.3-3.4.9-.9.6-1.6 1.4-2.1 2.4v12.2h-3v-24.7h3v6.8l-.1 3.2h.1c.5-1 1.2-1.9 2.3-2.5 1-.7 2.3-1 3.9-1 1.8 0 3.2.5 4.2 1.4 1 .9 1.6 2.4 1.6 4.3v12.6h-3v-12.2c0-1.2-.3-2.1-.9-2.6-.6-.6-1.5-.8-2.6-.8zM874.4 804l-.9.6c-.4.2-.8.4-1.3.6-.5.2-1.1.4-1.8.5-.7.1-1.4.2-2.2.2-3 0-5.3-.8-6.9-2.4-1.6-1.6-2.3-3.9-2.3-6.9 0-1.4.2-2.7.6-3.9s1-2.1 1.8-2.9c.8-.8 1.7-1.4 2.7-1.8s2.2-.6 3.4-.6c1.3 0 2.4.2 3.5.7 1 .4 1.8 1.1 2.5 1.9.7.9 1.1 1.9 1.3 3.2s.2 2.7 0 4.4h-12.6c.1 1.9.7 3.4 1.7 4.4 1 1 2.6 1.4 4.6 1.4 1.4 0 2.6-.2 3.6-.6 1-.4 1.8-.8 2.5-1.3v2.5zm-7.1-14c-1.3 0-2.4.4-3.4 1.2-.9.8-1.5 2-1.8 3.7h9.6c.1-1.7-.3-2.9-1.1-3.7-.8-.8-1.9-1.2-3.3-1.2zM891.8 805.9c-.9 0-1.8-.1-2.5-.2s-1.4-.3-1.9-.6c-.5-.2-1-.4-1.4-.7-.4-.2-.7-.5-.9-.6v-2.7c.2.2.5.5.9.7s.9.5 1.4.7c.6.2 1.2.4 1.9.6.7.2 1.5.2 2.4.2 1.3 0 2.3-.2 3.1-.6.8-.4 1.1-1.1 1.1-2.1 0-.5-.1-1-.4-1.3-.2-.3-.6-.6-1-.8-.4-.2-.9-.3-1.4-.5s-1.1-.2-1.7-.3c-.8-.2-1.5-.3-2.2-.5-.7-.2-1.4-.5-2-.9-.6-.4-1.1-.9-1.4-1.5-.4-.6-.6-1.4-.6-2.4 0-1.6.6-2.9 1.9-3.8 1.3-.9 3-1.4 5.3-1.4 1.3 0 2.4.1 3.4.4 1 .3 1.7.5 2.3.8v2.7c-.6-.4-1.3-.7-2.2-1-.9-.3-2-.4-3.3-.4-1.4 0-2.4.2-3.1.6s-1.1 1-1.1 2c0 .5.1.9.3 1.2.2.3.5.5.8.7.4.2.8.3 1.2.4.5.1.9.2 1.4.3.8.2 1.6.3 2.4.5.8.2 1.6.5 2.2.9.7.4 1.2.9 1.6 1.6.4.7.6 1.5.6 2.6 0 1-.2 1.9-.6 2.6-.4.7-1 1.2-1.6 1.6-.7.4-1.4.7-2.3.9-.8.2-1.7.3-2.6.3zM904.3 785c-.6 0-1.1-.2-1.5-.6-.4-.4-.6-.8-.6-1.4 0-.6.2-1 .6-1.4.4-.4.9-.6 1.5-.6s1.1.2 1.4.6c.3.4.5.9.5 1.4 0 .6-.2 1-.5 1.4-.3.4-.8.6-1.4.6zm1.5 2.6v17.9h-3v-17.9h3zM913.7 805.5h-3v-17.9h2.7l.3 3.2h.1c.5-1 1.2-1.9 2.2-2.5 1-.7 2.2-1 3.8-1 1.4 0 2.5.3 3.4 1 .9.7 1.5 1.6 1.8 3 .5-1.2 1.3-2.2 2.3-2.9 1-.7 2.3-1.1 3.8-1.1 1.7 0 3 .5 3.9 1.4 1 .9 1.4 2.4 1.4 4.3v12.6h-3.1v-12.2c0-1.2-.3-2-.9-2.6-.6-.5-1.4-.8-2.3-.8-.7 0-1.3.1-1.8.3-.5.2-1 .5-1.3.8-.4.3-.7.7-1.1 1.2-.3.5-.6.9-.9 1.4v11.8h-3V793c0-1.2-.3-1.9-.9-2.4-.6-.4-1.4-.7-2.3-.7-.6 0-1.2.1-1.7.2-.5.2-1 .4-1.4.7-.4.3-.8.7-1.1 1.1-.3.4-.6.9-.9 1.4v12.2zM950.2 805.9c-1.4 0-2.6-.3-3.6-1s-1.8-1.5-2.4-2.7v9.4h-3v-24h2.7l.3 3.5c.6-1.2 1.4-2.1 2.4-2.8 1-.7 2.3-1 3.8-1 1 0 2 .2 3 .6s1.8 1 2.5 1.7c.7.8 1.3 1.7 1.7 2.9.4 1.2.6 2.5.6 4.1 0 1.6-.2 3-.7 4.1-.4 1.2-1 2.1-1.8 2.9-.7.8-1.6 1.3-2.6 1.7-.9.4-1.9.6-2.9.6zm-.5-2.7c1.6 0 2.9-.5 3.8-1.6 1-1.1 1.5-2.8 1.5-5s-.5-3.8-1.5-4.9c-1-1.1-2.3-1.7-3.8-1.7-.8 0-1.5.1-2.2.4-.7.3-1.3.7-1.8 1.2s-.9 1.2-1.2 2.1c-.3.8-.4 1.8-.4 2.9s.1 2.1.4 2.9c.3.8.7 1.5 1.2 2.1.5.6 1.1 1 1.8 1.2.7.3 1.4.4 2.2.4zM964.9 780.8v24.7h-3v-24.7h3zM984.1 804l-.9.6c-.4.2-.8.4-1.3.6-.5.2-1.1.4-1.8.5s-1.4.2-2.2.2c-3 0-5.3-.8-6.9-2.4-1.6-1.6-2.3-3.9-2.3-6.9 0-1.4.2-2.7.6-3.9s1-2.1 1.8-2.9c.8-.8 1.7-1.4 2.7-1.8 1-.4 2.2-.6 3.4-.6 1.3 0 2.4.2 3.5.7 1 .4 1.8 1.1 2.5 1.9.7.9 1.1 1.9 1.3 3.2.2 1.3.2 2.7 0 4.4h-12.6c.1 1.9.7 3.4 1.7 4.4 1 1 2.6 1.4 4.6 1.4 1.4 0 2.6-.2 3.6-.6 1-.4 1.8-.8 2.5-1.3v2.5zm-7.1-14c-1.3 0-2.4.4-3.4 1.2-.9.8-1.5 2-1.8 3.7h9.6c.1-1.7-.3-2.9-1.1-3.7-.9-.8-2-1.2-3.3-1.2zM993.9 805.9c-.9 0-1.8-.1-2.5-.2s-1.4-.3-1.9-.6c-.5-.2-1-.4-1.4-.7-.4-.2-.7-.5-.9-.6v-2.7c.2.2.5.5.9.7.4.3.9.5 1.4.7.6.2 1.2.4 1.9.6.7.2 1.5.2 2.4.2 1.3 0 2.3-.2 3.1-.6s1.1-1.1 1.1-2.1c0-.5-.1-1-.4-1.3-.2-.3-.6-.6-1-.8-.4-.2-.9-.3-1.4-.5-.5-.1-1.1-.2-1.7-.3-.8-.2-1.5-.3-2.2-.5s-1.4-.5-2-.9c-.6-.4-1.1-.9-1.4-1.5s-.6-1.4-.6-2.4c0-1.6.6-2.9 1.9-3.8 1.3-.9 3-1.4 5.3-1.4 1.3 0 2.4.1 3.4.4s1.7.5 2.3.8v2.7c-.6-.4-1.3-.7-2.2-1s-2-.4-3.3-.4c-1.4 0-2.4.2-3.1.6s-1.1 1-1.1 2c0 .5.1.9.3 1.2.2.3.5.5.8.7.4.2.8.3 1.2.4.5.1.9.2 1.4.3.8.2 1.6.3 2.4.5.8.2 1.6.5 2.2.9.7.4 1.2.9 1.6 1.6s.6 1.5.6 2.6c0 1-.2 1.9-.6 2.6-.4.7-1 1.2-1.6 1.6-.7.4-1.4.7-2.3.9-.9.2-1.8.3-2.6.3zM1012.1 805.7c-.6.1-1.2.2-1.8.2-.9 0-1.6-.1-2.2-.4s-1.1-.6-1.5-1c-.4-.4-.7-.9-.8-1.4-.2-.5-.3-1.1-.3-1.7v-11.1h-2.1v-2.6h2.1v-3.8h3v3.8h5.2v2.6h-5.2V801c0 .8.2 1.3.6 1.7.4.3 1.1.5 2 .5.9 0 1.7-.3 2.5-.8v2.7c-.4.3-.9.5-1.5.6zM1044.7 805.5h-4.7l-3.8-13.8-3.9 13.8h-4.5l-4.1-17.9h3.2l3.4 15.6 4.3-15.6h3.4l4.2 15.5 3.4-15.5h3l-3.9 17.9zM1062.6 802.1c-.2.4-.5.8-.8 1.3-.3.4-.7.9-1.2 1.2-.5.4-1.1.7-1.7.9-.7.2-1.4.3-2.3.3-1.6 0-2.9-.5-3.9-1.4s-1.5-2.2-1.5-3.9c0-2 .7-3.4 2.1-4.3 1.4-.9 3.3-1.4 5.8-1.4h3.3v-1.5c0-1.2-.3-2.1-1-2.7-.6-.5-1.7-.8-3.3-.8-1.1 0-2.2.2-3.1.5-1 .4-1.9.8-2.7 1.2V789c.6-.4 1.5-.8 2.6-1.2 1.1-.4 2.3-.6 3.6-.6 2.3 0 4 .5 5.1 1.4 1.2.9 1.8 2.4 1.8 4.3V804c0 .3 0 .5.1.8 0 .2 0 .4.1.6h-2.8c-.1-.3-.1-.8-.2-1.4-.1-.6-.1-1.1-.1-1.5l.1-.4zm-5.4 1.1c.9 0 1.7-.2 2.4-.6s1.2-.9 1.6-1.4c.4-.5.7-1 .9-1.5.2-.5.3-.9.3-1.1v-1.3h-3c-1.8 0-3.1.3-4 .8-.8.5-1.2 1.3-1.2 2.3 0 .8.2 1.5.7 2 .5.5 1.3.8 2.3.8zM1077.7 808.2c-.5.8-1 1.5-1.6 2.1-.6.6-1.2 1-1.9 1.3-.7.3-1.5.4-2.4.4-.5 0-.9 0-1.3-.1s-.7-.2-1.1-.3v-2.9c.3.2.6.3 1 .4.4.1.8.2 1.3.2.9 0 1.6-.2 2.1-.6s1.1-1.1 1.6-1.9l-7.3-19.1h3.3l5.7 15.1 5.7-15.1h2.9l-6.7 17.7c-.4 1-.8 2-1.3 2.8zM1090.4 792.5c-.7 0-1.2-.2-1.6-.6s-.6-.9-.6-1.5.2-1.2.6-1.6 1-.6 1.6-.6c.6 0 1.2.2 1.6.6s.6.9.6 1.6c0 .6-.2 1.1-.6 1.5s-1 .6-1.6.6zm0 13.3c-.7 0-1.2-.2-1.6-.6-.4-.4-.6-.9-.6-1.5s.2-1.2.6-1.6 1-.6 1.6-.6c.6 0 1.2.2 1.6.6s.6.9.6 1.6c0 .6-.2 1.1-.6 1.5-.4.3-1 .6-1.6.6zM1117.2 798.2l8-17.4h4.2v24.7h-3.3v-19.9l-7.6 16.1h-3l-7.5-16.4v20.2h-3.1v-24.7h4.5l7.8 17.4zM1145.3 802.1c-.2.4-.5.8-.8 1.3-.3.4-.7.9-1.2 1.2-.5.4-1.1.7-1.7.9-.7.2-1.4.3-2.3.3-1.6 0-2.9-.5-3.9-1.4s-1.5-2.2-1.5-3.9c0-2 .7-3.4 2.1-4.3 1.4-.9 3.3-1.4 5.8-1.4h3.3v-1.5c0-1.2-.3-2.1-1-2.7-.6-.5-1.7-.8-3.3-.8-1.1 0-2.2.2-3.1.5-1 .4-1.9.8-2.7 1.2V789c.6-.4 1.5-.8 2.6-1.2 1.1-.4 2.3-.6 3.6-.6 2.3 0 4 .5 5.1 1.4 1.2.9 1.8 2.4 1.8 4.3V804c0 .3 0 .5.1.8 0 .2 0 .4.1.6h-2.8c-.1-.3-.1-.8-.2-1.4-.1-.6-.1-1.1-.1-1.5l.1-.4zm-5.4 1.1c.9 0 1.7-.2 2.4-.6s1.2-.9 1.6-1.4c.4-.5.7-1 .9-1.5.2-.5.3-.9.3-1.1v-1.3h-3c-1.8 0-3.1.3-4 .8-.8.5-1.2 1.3-1.2 2.3 0 .8.2 1.5.7 2 .5.5 1.3.8 2.3.8zM1156.3 807.1c0 .7-.1 1.3-.3 1.9-.2.6-.5 1.1-.9 1.6-.4.4-.9.8-1.5 1.1-.6.3-1.4.4-2.2.4-.5 0-1-.1-1.5-.2-.6-.1-1.1-.3-1.6-.6v-2.9c.3.3.7.5 1.1.7.4.2.9.3 1.5.3.9 0 1.5-.2 1.8-.6.4-.4.5-.9.5-1.5v-19.5h3v19.3zm-1.6-22.1c-.6 0-1.1-.2-1.4-.6s-.6-.8-.6-1.4c0-.6.2-1 .6-1.4.4-.4.9-.6 1.4-.6.6 0 1.1.2 1.4.6.4.4.5.9.5 1.4 0 .6-.2 1-.5 1.4s-.8.6-1.4.6zM1168.5 805.9c-1.2 0-2.4-.2-3.4-.6-1.1-.4-2-1-2.7-1.8-.8-.8-1.4-1.8-1.8-2.9-.4-1.1-.7-2.5-.7-4s.2-2.8.7-4c.4-1.2 1-2.1 1.8-2.9.8-.8 1.7-1.4 2.7-1.8 1.1-.4 2.2-.6 3.4-.6 1.2 0 2.4.2 3.5.6 1.1.4 2 1 2.7 1.8.8.8 1.4 1.8 1.8 2.9.4 1.2.7 2.5.7 4s-.2 2.8-.7 4c-.4 1.2-1.1 2.1-1.8 2.9-.8.8-1.7 1.4-2.7 1.8-1.1.4-2.2.6-3.5.6zm0-2.7c.8 0 1.5-.1 2.2-.4s1.3-.7 1.8-1.2.9-1.2 1.2-2.1c.3-.8.4-1.8.4-2.9s-.1-2.1-.4-2.9-.7-1.5-1.2-2.1c-.5-.5-1.1-.9-1.8-1.2-.7-.3-1.4-.4-2.2-.4-.8 0-1.5.1-2.2.4-.7.3-1.2.7-1.7 1.2s-.9 1.2-1.2 2.1c-.3.8-.4 1.8-.4 2.9s.1 2.1.4 2.9c.3.8.7 1.5 1.2 2.1.5.5 1.1.9 1.7 1.2s1.4.4 2.2.4zM1186.3 791.7c-1 .5-1.8 1.4-2.3 2.5v11.4h-3v-17.9h2.7l.3 3.9h.1c.5-1.1 1.2-2 2.2-2.8 1-.8 2.2-1.3 3.6-1.5v3.4c-1.4.1-2.6.4-3.6 1zM1195 785c-.6 0-1.1-.2-1.5-.6s-.6-.8-.6-1.4c0-.6.2-1 .6-1.4.4-.4.9-.6 1.5-.6s1.1.2 1.4.6c.3.4.5.9.5 1.4 0 .6-.2 1-.5 1.4-.3.4-.8.6-1.4.6zm1.5 2.6v17.9h-3v-17.9h3zM1208.8 805.7c-.6.1-1.2.2-1.8.2-.9 0-1.6-.1-2.2-.4s-1.1-.6-1.5-1c-.4-.4-.7-.9-.8-1.4-.2-.5-.3-1.1-.3-1.7v-11.1h-2.1v-2.6h2.1v-3.8h3v3.8h5.2v2.6h-5.2V801c0 .8.2 1.3.6 1.7.4.3 1.1.5 2 .5.9 0 1.7-.3 2.5-.8v2.7c-.5.3-.9.5-1.5.6zM1221.9 808.2c-.5.8-1 1.5-1.6 2.1-.6.6-1.2 1-1.9 1.3-.7.3-1.5.4-2.4.4-.5 0-.9 0-1.3-.1s-.7-.2-1.1-.3v-2.9c.3.2.6.3 1 .4.4.1.8.2 1.3.2.9 0 1.6-.2 2.1-.6s1.1-1.1 1.6-1.9l-7.3-19.1h3.3l5.7 15.1 5.7-15.1h2.9l-6.7 17.7c-.4 1-.8 2-1.3 2.8zM1252.1 805.5h-5.1l-8.6-24.7h3.4l7.9 22.8 7.9-22.8h3.1l-8.6 24.7zM1269.6 805.9c-1.2 0-2.4-.2-3.4-.6-1.1-.4-2-1-2.7-1.8-.8-.8-1.4-1.8-1.8-2.9-.4-1.1-.7-2.5-.7-4s.2-2.8.7-4c.4-1.2 1-2.1 1.8-2.9.8-.8 1.7-1.4 2.7-1.8 1.1-.4 2.2-.6 3.4-.6 1.2 0 2.4.2 3.5.6 1.1.4 2 1 2.7 1.8.8.8 1.4 1.8 1.8 2.9.4 1.2.7 2.5.7 4s-.2 2.8-.7 4c-.4 1.2-1.1 2.1-1.8 2.9-.8.8-1.7 1.4-2.7 1.8-1.1.4-2.2.6-3.5.6zm0-2.7c.8 0 1.5-.1 2.2-.4s1.3-.7 1.8-1.2.9-1.2 1.2-2.1c.3-.8.4-1.8.4-2.9s-.1-2.1-.4-2.9-.7-1.5-1.2-2.1c-.5-.5-1.1-.9-1.8-1.2-.7-.3-1.4-.4-2.2-.4-.8 0-1.5.1-2.2.4-.7.3-1.2.7-1.7 1.2s-.9 1.2-1.2 2.1c-.3.8-.4 1.8-.4 2.9s.1 2.1.4 2.9c.3.8.7 1.5 1.2 2.1.5.5 1.1.9 1.7 1.2s1.4.4 2.2.4zM1289.4 805.7c-.6.1-1.2.2-1.8.2-.9 0-1.6-.1-2.2-.4s-1.1-.6-1.5-1c-.4-.4-.7-.9-.8-1.4-.2-.5-.3-1.1-.3-1.7v-11.1h-2.1v-2.6h2.1v-3.8h3v3.8h5.2v2.6h-5.2V801c0 .8.2 1.3.6 1.7.4.3 1.1.5 2 .5.9 0 1.7-.3 2.5-.8v2.7c-.5.3-1 .5-1.5.6zM1308.9 804l-.9.6c-.4.2-.8.4-1.3.6-.5.2-1.1.4-1.8.5s-1.4.2-2.2.2c-3 0-5.3-.8-6.9-2.4-1.6-1.6-2.3-3.9-2.3-6.9 0-1.4.2-2.7.6-3.9s1-2.1 1.8-2.9c.8-.8 1.7-1.4 2.7-1.8 1-.4 2.2-.6 3.4-.6 1.3 0 2.4.2 3.5.7 1 .4 1.8 1.1 2.5 1.9.7.9 1.1 1.9 1.3 3.2.2 1.3.2 2.7 0 4.4h-12.6c.1 1.9.7 3.4 1.7 4.4 1 1 2.6 1.4 4.6 1.4 1.4 0 2.6-.2 3.6-.6 1-.4 1.8-.8 2.5-1.3v2.5zm-7.1-14c-1.3 0-2.4.4-3.4 1.2-.9.8-1.5 2-1.8 3.7h9.6c.1-1.7-.3-2.9-1.1-3.7-.9-.8-2-1.2-3.3-1.2zM820.1 489.1h7.9c2.8 0 5 .6 6.5 1.7 1.6 1.2 2.3 3 2.3 5.4 0 1.4-.2 2.6-.7 3.6-.4 1-1.1 1.8-1.9 2.5s-1.8 1.1-2.9 1.4c-1.1.3-2.4.4-3.7.4h-4.4v9.6H820v-24.6zm3.2 2.9v9.2h4.4c.9 0 1.7-.1 2.4-.3.7-.2 1.3-.5 1.8-.9s.9-.9 1.2-1.5c.3-.6.4-1.4.4-2.3 0-1.5-.5-2.6-1.4-3.3-1-.7-2.3-1-4.1-1h-4.7zM854.3 512.3l-.9.6c-.4.2-.8.4-1.3.6-.5.2-1.1.4-1.8.5-.7.1-1.4.2-2.2.2-3 0-5.3-.8-6.9-2.4-1.6-1.6-2.3-3.9-2.3-6.9 0-1.4.2-2.7.6-3.9s1-2.1 1.8-2.9c.8-.8 1.7-1.4 2.7-1.8s2.2-.6 3.4-.6c1.3 0 2.4.2 3.5.7 1 .4 1.8 1.1 2.5 1.9.7.9 1.1 1.9 1.3 3.2s.2 2.7 0 4.4h-12.6c.1 1.9.7 3.4 1.7 4.4 1 1 2.6 1.4 4.6 1.4 1.4 0 2.6-.2 3.6-.6 1-.4 1.8-.8 2.5-1.3v2.5zm-7.1-14c-1.3 0-2.4.4-3.4 1.2-.9.8-1.5 2-1.8 3.7h9.6c.1-1.7-.3-2.9-1.1-3.7-.9-.8-2-1.2-3.3-1.2zM863.7 500c-1 .5-1.8 1.4-2.3 2.5v11.4h-3V496h2.7l.3 3.9h.1c.5-1.1 1.2-2 2.2-2.8 1-.8 2.2-1.3 3.6-1.5v3.4c-1.4.1-2.6.4-3.6 1zM875 498.5v15.3h-3v-15.3h-2.2v-2.6h2.2v-.4c0-2.1.6-3.8 1.7-4.9 1.1-1.2 2.7-1.8 4.6-1.8.9 0 1.6.1 2.3.3v2.7c-.2-.1-.5-.2-.9-.2-.4-.1-.8-.1-1.2-.1-1.1 0-1.9.3-2.5 1-.6.6-.9 1.7-.9 3v.5h5.2v2.6H875zM890.4 514.2c-1.2 0-2.4-.2-3.4-.6-1.1-.4-2-1-2.7-1.8-.8-.8-1.4-1.8-1.8-2.9-.4-1.1-.7-2.5-.7-4s.2-2.8.7-4c.4-1.2 1-2.1 1.8-2.9.8-.8 1.7-1.4 2.7-1.8 1.1-.4 2.2-.6 3.4-.6 1.2 0 2.4.2 3.5.6 1.1.4 2 1 2.7 1.8.8.8 1.4 1.8 1.8 2.9.4 1.2.7 2.5.7 4s-.2 2.8-.7 4c-.4 1.2-1.1 2.1-1.8 2.9-.8.8-1.7 1.4-2.7 1.8-1.1.4-2.3.6-3.5.6zm0-2.7c.8 0 1.5-.1 2.2-.4.7-.3 1.3-.7 1.8-1.2s.9-1.2 1.2-2.1c.3-.8.4-1.8.4-2.9s-.1-2.1-.4-2.9-.7-1.5-1.2-2.1-1.1-.9-1.8-1.2c-.7-.3-1.4-.4-2.2-.4-.8 0-1.5.1-2.2.4-.7.3-1.2.7-1.7 1.2s-.9 1.2-1.2 2.1c-.3.8-.4 1.8-.4 2.9s.1 2.1.4 2.9c.3.8.7 1.5 1.2 2.1.5.5 1.1.9 1.7 1.2.6.3 1.4.4 2.2.4zM908.1 500c-1 .5-1.8 1.4-2.3 2.5v11.4h-3V496h2.7l.3 3.9h.1c.5-1.1 1.2-2 2.2-2.8 1-.8 2.2-1.3 3.6-1.5v3.4c-1.4.1-2.5.4-3.6 1zM918.4 513.8h-3v-17.9h2.7l.3 3.2h.1c.5-1 1.2-1.9 2.2-2.5 1-.7 2.2-1 3.8-1 1.4 0 2.5.3 3.4 1 .9.7 1.5 1.6 1.8 3 .5-1.2 1.3-2.2 2.3-2.9 1-.7 2.3-1.1 3.8-1.1 1.7 0 3 .5 3.9 1.4 1 .9 1.4 2.4 1.4 4.3v12.6H938v-12.2c0-1.2-.3-2-.9-2.6-.6-.5-1.4-.8-2.3-.8-.7 0-1.3.1-1.8.3-.5.2-1 .5-1.3.8-.4.3-.7.7-1.1 1.2-.3.5-.6.9-.9 1.4v11.8h-3v-12.5c0-1.2-.3-1.9-.9-2.4-.6-.4-1.4-.7-2.3-.7-.6 0-1.2.1-1.7.2-.5.2-1 .4-1.4.7-.4.3-.8.7-1.1 1.1-.3.4-.6.9-.9 1.4v12.2zM960 512.3l-.9.6c-.4.2-.8.4-1.3.6-.5.2-1.1.4-1.8.5-.7.1-1.4.2-2.2.2-3 0-5.3-.8-6.9-2.4-1.6-1.6-2.3-3.9-2.3-6.9 0-1.4.2-2.7.6-3.9s1-2.1 1.8-2.9c.8-.8 1.7-1.4 2.7-1.8s2.2-.6 3.4-.6c1.3 0 2.4.2 3.5.7 1 .4 1.8 1.1 2.5 1.9.7.9 1.1 1.9 1.3 3.2.2 1.3.2 2.7 0 4.4h-12.6c.1 1.9.7 3.4 1.7 4.4 1 1 2.6 1.4 4.6 1.4 1.4 0 2.6-.2 3.6-.6 1-.4 1.8-.8 2.5-1.3v2.5zm-7.1-14c-1.3 0-2.4.4-3.4 1.2-.9.8-1.5 2-1.8 3.7h9.6c.1-1.7-.3-2.9-1.1-3.7-.8-.8-1.9-1.2-3.3-1.2zM969.4 500c-1 .5-1.8 1.4-2.3 2.5v11.4h-3V496h2.7l.3 3.9h.1c.5-1.1 1.2-2 2.2-2.8 1-.8 2.2-1.3 3.6-1.5v3.4c-1.3.1-2.5.4-3.6 1zM982.4 514.2c-.9 0-1.8-.1-2.5-.2s-1.4-.3-1.9-.6c-.5-.2-1-.4-1.4-.7-.4-.2-.7-.5-.9-.6v-2.7c.2.2.5.5.9.7.4.3.9.5 1.4.7.6.2 1.2.4 1.9.6.7.2 1.5.2 2.4.2 1.3 0 2.3-.2 3.1-.6s1.1-1.1 1.1-2.1c0-.5-.1-1-.4-1.3-.2-.3-.6-.6-1-.8-.4-.2-.9-.3-1.4-.5-.5-.1-1.1-.2-1.7-.3-.8-.2-1.5-.3-2.2-.5s-1.4-.5-2-.9c-.6-.4-1.1-.9-1.4-1.5s-.6-1.4-.6-2.4c0-1.6.6-2.9 1.9-3.8 1.3-.9 3-1.4 5.3-1.4 1.3 0 2.4.1 3.4.4s1.7.5 2.3.8v2.7c-.6-.4-1.3-.7-2.2-1s-2-.4-3.3-.4c-1.4 0-2.4.2-3.1.6s-1.1 1-1.1 2c0 .5.1.9.3 1.2.2.3.5.5.8.7.4.2.8.3 1.2.4.5.1.9.2 1.4.3.8.2 1.6.3 2.4.5.8.2 1.6.5 2.2.9.7.4 1.2.9 1.6 1.6s.6 1.5.6 2.6c0 1-.2 1.9-.6 2.6-.4.7-1 1.2-1.6 1.6-.7.4-1.4.7-2.3.9-.9.2-1.7.3-2.6.3zM1011.4 510.4c-.2.4-.5.8-.8 1.3-.3.4-.7.9-1.2 1.2-.5.4-1.1.7-1.7.9-.7.2-1.4.3-2.3.3-1.6 0-2.9-.5-3.9-1.4s-1.5-2.2-1.5-3.9c0-2 .7-3.4 2.1-4.3 1.4-.9 3.3-1.4 5.8-1.4h3.3v-1.5c0-1.2-.3-2.1-1-2.7-.6-.5-1.7-.8-3.3-.8-1.1 0-2.2.2-3.1.5-1 .4-1.9.8-2.7 1.2v-2.7c.6-.4 1.5-.8 2.6-1.2 1.1-.4 2.3-.6 3.6-.6 2.3 0 4 .5 5.1 1.4 1.2.9 1.8 2.4 1.8 4.3v11.1c0 .3 0 .5.1.8 0 .2 0 .4.1.6h-2.8c-.1-.3-.1-.8-.2-1.4-.1-.6-.1-1.1-.1-1.5l.1-.2zm-5.4 1.1c.9 0 1.7-.2 2.4-.6s1.2-.9 1.6-1.4c.4-.5.7-1 .9-1.5.2-.5.3-.9.3-1.1v-1.3h-3c-1.8 0-3.1.3-4 .8-.8.5-1.2 1.3-1.2 2.3 0 .8.2 1.5.7 2 .5.5 1.3.8 2.3.8zM1024.8 514.2c-.9 0-1.8-.1-2.5-.2s-1.4-.3-1.9-.6c-.5-.2-1-.4-1.4-.7-.4-.2-.7-.5-.9-.6v-2.7c.2.2.5.5.9.7.4.3.9.5 1.4.7.6.2 1.2.4 1.9.6.7.2 1.5.2 2.4.2 1.3 0 2.3-.2 3.1-.6s1.1-1.1 1.1-2.1c0-.5-.1-1-.4-1.3-.2-.3-.6-.6-1-.8-.4-.2-.9-.3-1.4-.5-.5-.1-1.1-.2-1.7-.3-.8-.2-1.5-.3-2.2-.5s-1.4-.5-2-.9c-.6-.4-1.1-.9-1.4-1.5s-.6-1.4-.6-2.4c0-1.6.6-2.9 1.9-3.8 1.3-.9 3-1.4 5.3-1.4 1.3 0 2.4.1 3.4.4s1.7.5 2.3.8v2.7c-.6-.4-1.3-.7-2.2-1s-2-.4-3.3-.4c-1.4 0-2.4.2-3.1.6s-1.1 1-1.1 2c0 .5.1.9.3 1.2.2.3.5.5.8.7.4.2.8.3 1.2.4.5.1.9.2 1.4.3.8.2 1.6.3 2.4.5.8.2 1.6.5 2.2.9.7.4 1.2.9 1.6 1.6s.6 1.5.6 2.6c0 1-.2 1.9-.6 2.6-.4.7-1 1.2-1.6 1.6-.7.4-1.4.7-2.3.9-.9.2-1.7.3-2.6.3zM1041.4 514.2c-.9 0-1.8-.1-2.5-.2s-1.4-.3-1.9-.6c-.5-.2-1-.4-1.4-.7-.4-.2-.7-.5-.9-.6v-2.7c.2.2.5.5.9.7.4.3.9.5 1.4.7.6.2 1.2.4 1.9.6.7.2 1.5.2 2.4.2 1.3 0 2.3-.2 3.1-.6s1.1-1.1 1.1-2.1c0-.5-.1-1-.4-1.3-.2-.3-.6-.6-1-.8-.4-.2-.9-.3-1.4-.5-.5-.1-1.1-.2-1.7-.3-.8-.2-1.5-.3-2.2-.5s-1.4-.5-2-.9c-.6-.4-1.1-.9-1.4-1.5s-.6-1.4-.6-2.4c0-1.6.6-2.9 1.9-3.8 1.3-.9 3-1.4 5.3-1.4 1.3 0 2.4.1 3.4.4s1.7.5 2.3.8v2.7c-.6-.4-1.3-.7-2.2-1s-2-.4-3.3-.4c-1.4 0-2.4.2-3.1.6s-1.1 1-1.1 2c0 .5.1.9.3 1.2.2.3.5.5.8.7.4.2.8.3 1.2.4.5.1.9.2 1.4.3.8.2 1.6.3 2.4.5.8.2 1.6.5 2.2.9.7.4 1.2.9 1.6 1.6s.6 1.5.6 2.6c0 1-.2 1.9-.6 2.6-.4.7-1 1.2-1.6 1.6-.7.4-1.4.7-2.3.9-.8.2-1.7.3-2.6.3zM1053.9 493.3c-.6 0-1.1-.2-1.5-.6s-.6-.8-.6-1.4c0-.6.2-1 .6-1.4.4-.4.9-.6 1.5-.6s1.1.2 1.4.6c.3.4.5.9.5 1.4 0 .6-.2 1-.5 1.4-.3.4-.8.6-1.4.6zm1.5 2.6v17.9h-3v-17.9h3zM1075.7 512.3c0 1.2-.2 2.2-.5 3.2s-.9 1.8-1.6 2.4-1.7 1.2-2.8 1.6c-1.1.4-2.5.6-4.1.6-.9 0-1.6 0-2.3-.1-.7-.1-1.2-.2-1.7-.4-.5-.1-.9-.3-1.3-.5-.3-.2-.6-.3-.9-.5v-2.7l1.2.6c.4.2.8.3 1.3.5.5.1 1 .2 1.6.3.6.1 1.3.1 2.1.1 2.2 0 3.7-.4 4.6-1.2.9-.8 1.3-2.1 1.3-3.7v-2.8c-.5 1.1-1.3 1.9-2.2 2.6-1 .6-2.1 1-3.5 1-1.1 0-2.1-.2-3-.6-1-.4-1.8-.9-2.5-1.6-.7-.7-1.3-1.6-1.7-2.7-.4-1.1-.6-2.4-.6-3.8 0-1.5.2-2.8.6-3.8.4-1.1 1-2 1.7-2.7.7-.7 1.6-1.3 2.5-1.7 1-.4 2-.6 3.1-.6 1.4 0 2.6.3 3.6 1 1 .6 1.7 1.5 2.3 2.6v-.4c0-.4 0-.9.1-1.5 0-.6.1-1 .1-1.4h2.8c0 .3-.1.8-.1 1.4 0 .6-.1 1.1-.1 1.5v13.3zm-8.2-1.9c.8 0 1.5-.1 2.1-.4.6-.2 1.2-.6 1.7-1.1.5-.5.8-1.1 1.1-1.9.3-.8.4-1.6.4-2.6 0-2.1-.5-3.6-1.5-4.6-1-1-2.3-1.5-3.8-1.5-.8 0-1.5.1-2.1.4-.7.3-1.2.6-1.7 1.1-.5.5-.8 1.1-1.1 1.9-.3.8-.4 1.7-.4 2.7s.1 1.9.4 2.6c.3.7.7 1.4 1.1 1.9.5.5 1.1.9 1.7 1.1.6.3 1.3.4 2.1.4zM1089.1 498.3c-1.4 0-2.5.3-3.4.9-.9.6-1.6 1.4-2.1 2.4v12.2h-3v-17.9h2.9l.1 3.2h.1c.5-1 1.2-1.9 2.3-2.6s2.3-1 3.9-1c1.8 0 3.2.5 4.2 1.4 1 .9 1.6 2.4 1.6 4.3v12.6h-3v-12.2c0-1.2-.3-2.1-.9-2.6-.7-.5-1.5-.7-2.7-.7zM1116.6 498.3c-1.4 0-2.5.3-3.4.9-.9.6-1.6 1.4-2.1 2.4v12.2h-3v-17.9h2.9l.1 3.2h.1c.5-1 1.2-1.9 2.3-2.6s2.3-1 3.9-1c1.8 0 3.2.5 4.2 1.4 1 .9 1.6 2.4 1.6 4.3v12.6h-3v-12.2c0-1.2-.3-2.1-.9-2.6-.8-.5-1.6-.7-2.7-.7zM1135.3 514.2c-1.2 0-2.4-.2-3.4-.6-1.1-.4-2-1-2.7-1.8-.8-.8-1.4-1.8-1.8-2.9-.4-1.1-.7-2.5-.7-4s.2-2.8.7-4c.4-1.2 1-2.1 1.8-2.9.8-.8 1.7-1.4 2.7-1.8 1.1-.4 2.2-.6 3.4-.6 1.2 0 2.4.2 3.5.6 1.1.4 2 1 2.7 1.8.8.8 1.4 1.8 1.8 2.9.4 1.2.7 2.5.7 4s-.2 2.8-.7 4c-.4 1.2-1.1 2.1-1.8 2.9-.8.8-1.7 1.4-2.7 1.8-1.1.4-2.3.6-3.5.6zm0-2.7c.8 0 1.5-.1 2.2-.4s1.3-.7 1.8-1.2.9-1.2 1.2-2.1c.3-.8.4-1.8.4-2.9s-.1-2.1-.4-2.9-.7-1.5-1.2-2.1c-.5-.5-1.1-.9-1.8-1.2-.7-.3-1.4-.4-2.2-.4-.8 0-1.5.1-2.2.4-.7.3-1.2.7-1.7 1.2s-.9 1.2-1.2 2.1c-.3.8-.4 1.8-.4 2.9s.1 2.1.4 2.9c.3.8.7 1.5 1.2 2.1.5.5 1.1.9 1.7 1.2s1.4.4 2.2.4zM1149.2 493.3c-.6 0-1.1-.2-1.5-.6s-.6-.8-.6-1.4c0-.6.2-1 .6-1.4.4-.4.9-.6 1.5-.6s1.1.2 1.4.6c.3.4.5.9.5 1.4 0 .6-.2 1-.5 1.4-.3.4-.8.6-1.4.6zm1.5 2.6v17.9h-3v-17.9h3zM1161.4 514.2c-.9 0-1.8-.1-2.5-.2s-1.4-.3-1.9-.6c-.5-.2-1-.4-1.4-.7-.4-.2-.7-.5-.9-.6v-2.7c.2.2.5.5.9.7.4.3.9.5 1.4.7.6.2 1.2.4 1.9.6.7.2 1.5.2 2.4.2 1.3 0 2.3-.2 3.1-.6s1.1-1.1 1.1-2.1c0-.5-.1-1-.4-1.3-.2-.3-.6-.6-1-.8-.4-.2-.9-.3-1.4-.5-.5-.1-1.1-.2-1.7-.3-.8-.2-1.5-.3-2.2-.5s-1.4-.5-2-.9c-.6-.4-1.1-.9-1.4-1.5s-.6-1.4-.6-2.4c0-1.6.6-2.9 1.9-3.8 1.3-.9 3-1.4 5.3-1.4 1.3 0 2.4.1 3.4.4s1.7.5 2.3.8v2.7c-.6-.4-1.3-.7-2.2-1s-2-.4-3.3-.4c-1.4 0-2.4.2-3.1.6s-1.1 1-1.1 2c0 .5.1.9.3 1.2.2.3.5.5.8.7.4.2.8.3 1.2.4.5.1.9.2 1.4.3.8.2 1.6.3 2.4.5.8.2 1.6.5 2.2.9.7.4 1.2.9 1.6 1.6s.6 1.5.6 2.6c0 1-.2 1.9-.6 2.6-.4.7-1 1.2-1.6 1.6-.7.4-1.4.7-2.3.9-.9.2-1.7.3-2.6.3zM1179.8 516.5c-.5.8-1 1.5-1.6 2.1-.6.6-1.2 1-1.9 1.3-.7.3-1.5.4-2.4.4-.5 0-.9 0-1.3-.1s-.7-.2-1.1-.3V517c.3.2.6.3 1 .4.4.1.8.2 1.3.2.9 0 1.6-.2 2.1-.6s1.1-1.1 1.6-1.9l-7.3-19.1h3.3l5.7 15.1 5.7-15.1h2.9l-6.7 17.7c-.4 1-.9 2-1.3 2.8zM1201.2 489.1v24.7h-3v-24.7h3zM1216.7 510.4c-.2.4-.5.8-.8 1.3-.3.4-.7.9-1.2 1.2-.5.4-1.1.7-1.7.9-.7.2-1.4.3-2.3.3-1.6 0-2.9-.5-3.9-1.4s-1.5-2.2-1.5-3.9c0-2 .7-3.4 2.1-4.3 1.4-.9 3.3-1.4 5.8-1.4h3.3v-1.5c0-1.2-.3-2.1-1-2.7-.6-.5-1.7-.8-3.3-.8-1.1 0-2.2.2-3.1.5-1 .4-1.9.8-2.7 1.2v-2.7c.6-.4 1.5-.8 2.6-1.2 1.1-.4 2.3-.6 3.6-.6 2.3 0 4 .5 5.1 1.4 1.2.9 1.8 2.4 1.8 4.3v11.1c0 .3 0 .5.1.8 0 .2 0 .4.1.6h-2.8c-.1-.3-.1-.8-.2-1.4-.1-.6-.1-1.1-.1-1.5l.1-.2zm-5.4 1.1c.9 0 1.7-.2 2.4-.6s1.2-.9 1.6-1.4c.4-.5.7-1 .9-1.5.2-.5.3-.9.3-1.1v-1.3h-3c-1.8 0-3.1.3-4 .8-.8.5-1.2 1.3-1.2 2.3 0 .8.2 1.5.7 2 .5.5 1.3.8 2.3.8zM1241.3 504.9c0 1.6-.2 3-.7 4.1-.4 1.2-1 2.1-1.8 2.9-.7.8-1.6 1.3-2.6 1.7-1 .4-2 .6-3 .6-1.4 0-2.6-.3-3.6-1s-1.8-1.6-2.4-2.7l-.1 3.4h-2.9v-24.7h3l-.1 10.3c.6-1.2 1.4-2.1 2.4-2.8 1-.7 2.3-1 3.8-1 1 0 2 .2 3 .6 1 .4 1.8 1 2.5 1.7.7.8 1.3 1.7 1.7 2.9.6 1 .8 2.4.8 4zm-8.4 6.6c1.6 0 2.9-.5 3.8-1.6s1.5-2.8 1.5-5-.5-3.8-1.5-4.9-2.3-1.7-3.8-1.7c-.8 0-1.5.1-2.2.4-.7.3-1.3.7-1.8 1.2s-.9 1.2-1.2 2.1c-.3.8-.4 1.8-.4 2.9s.1 2.1.4 2.9c.3.8.7 1.5 1.2 2.1.5.6 1.1 1 1.8 1.2s1.4.4 2.2.4zM1259.3 512.3l-.9.6c-.4.2-.8.4-1.3.6-.5.2-1.1.4-1.8.5s-1.4.2-2.2.2c-3 0-5.3-.8-6.9-2.4-1.6-1.6-2.3-3.9-2.3-6.9 0-1.4.2-2.7.6-3.9s1-2.1 1.8-2.9c.8-.8 1.7-1.4 2.7-1.8 1-.4 2.2-.6 3.4-.6 1.3 0 2.4.2 3.5.7 1 .4 1.8 1.1 2.5 1.9.7.9 1.1 1.9 1.3 3.2.2 1.3.2 2.7 0 4.4h-12.6c.1 1.9.7 3.4 1.7 4.4 1 1 2.6 1.4 4.6 1.4 1.4 0 2.6-.2 3.6-.6 1-.4 1.8-.8 2.5-1.3v2.5zm-7.1-14c-1.3 0-2.4.4-3.4 1.2-.9.8-1.5 2-1.8 3.7h9.6c.1-1.7-.3-2.9-1.1-3.7-.9-.8-2-1.2-3.3-1.2zM1266.3 489.1v24.7h-3v-24.7h3zM1277 514.2c-.9 0-1.8-.1-2.5-.2s-1.4-.3-1.9-.6c-.5-.2-1-.4-1.4-.7-.4-.2-.7-.5-.9-.6v-2.7c.2.2.5.5.9.7.4.3.9.5 1.4.7.6.2 1.2.4 1.9.6.7.2 1.5.2 2.4.2 1.3 0 2.3-.2 3.1-.6s1.1-1.1 1.1-2.1c0-.5-.1-1-.4-1.3-.2-.3-.6-.6-1-.8-.4-.2-.9-.3-1.4-.5-.5-.1-1.1-.2-1.7-.3-.8-.2-1.5-.3-2.2-.5s-1.4-.5-2-.9c-.6-.4-1.1-.9-1.4-1.5s-.6-1.4-.6-2.4c0-1.6.6-2.9 1.9-3.8 1.3-.9 3-1.4 5.3-1.4 1.3 0 2.4.1 3.4.4s1.7.5 2.3.8v2.7c-.6-.4-1.3-.7-2.2-1s-2-.4-3.3-.4c-1.4 0-2.4.2-3.1.6s-1.1 1-1.1 2c0 .5.1.9.3 1.2.2.3.5.5.8.7.4.2.8.3 1.2.4.5.1.9.2 1.4.3.8.2 1.6.3 2.4.5.8.2 1.6.5 2.2.9.7.4 1.2.9 1.6 1.6s.6 1.5.6 2.6c0 1-.2 1.9-.6 2.6-.4.7-1 1.2-1.6 1.6-.7.4-1.4.7-2.3.9-.8.2-1.7.3-2.6.3zM1302.9 514c-.6.1-1.2.2-1.8.2-.9 0-1.6-.1-2.2-.4s-1.1-.6-1.5-1c-.4-.4-.7-.9-.8-1.4-.2-.5-.3-1.1-.3-1.7v-11.1h-2.1V496h2.1v-3.8h3v3.8h5.2v2.6h-5.2v10.8c0 .8.2 1.3.6 1.7.4.3 1.1.5 2 .5.9 0 1.7-.3 2.5-.8v2.7c-.5.2-.9.3-1.5.5zM1315.5 514.2c-1.2 0-2.4-.2-3.4-.6-1.1-.4-2-1-2.7-1.8-.8-.8-1.4-1.8-1.8-2.9-.4-1.1-.7-2.5-.7-4s.2-2.8.7-4c.4-1.2 1-2.1 1.8-2.9.8-.8 1.7-1.4 2.7-1.8 1.1-.4 2.2-.6 3.4-.6 1.2 0 2.4.2 3.5.6 1.1.4 2 1 2.7 1.8.8.8 1.4 1.8 1.8 2.9.4 1.2.7 2.5.7 4s-.2 2.8-.7 4c-.4 1.2-1.1 2.1-1.8 2.9-.8.8-1.7 1.4-2.7 1.8-1.1.4-2.2.6-3.5.6zm0-2.7c.8 0 1.5-.1 2.2-.4s1.3-.7 1.8-1.2.9-1.2 1.2-2.1c.3-.8.4-1.8.4-2.9s-.1-2.1-.4-2.9-.7-1.5-1.2-2.1c-.5-.5-1.1-.9-1.8-1.2-.7-.3-1.4-.4-2.2-.4-.8 0-1.5.1-2.2.4-.7.3-1.2.7-1.7 1.2s-.9 1.2-1.2 2.1c-.3.8-.4 1.8-.4 2.9s.1 2.1.4 2.9c.3.8.7 1.5 1.2 2.1.5.5 1.1.9 1.7 1.2s1.4.4 2.2.4zM1342.8 514.2c-1.2 0-2.4-.2-3.4-.6-1.1-.4-2-1-2.7-1.8-.8-.8-1.4-1.8-1.8-2.9-.4-1.1-.7-2.5-.7-4s.2-2.8.7-4c.4-1.2 1-2.1 1.8-2.9.8-.8 1.7-1.4 2.7-1.8 1.1-.4 2.2-.6 3.4-.6 1.2 0 2.4.2 3.5.6 1.1.4 2 1 2.7 1.8.8.8 1.4 1.8 1.8 2.9.4 1.2.7 2.5.7 4s-.2 2.8-.7 4c-.4 1.2-1.1 2.1-1.8 2.9-.8.8-1.7 1.4-2.7 1.8-1.1.4-2.2.6-3.5.6zm0-2.7c.8 0 1.5-.1 2.2-.4s1.3-.7 1.8-1.2.9-1.2 1.2-2.1c.3-.8.4-1.8.4-2.9s-.1-2.1-.4-2.9-.7-1.5-1.2-2.1c-.5-.5-1.1-.9-1.8-1.2-.7-.3-1.4-.4-2.2-.4-.8 0-1.5.1-2.2.4-.7.3-1.2.7-1.7 1.2s-.9 1.2-1.2 2.1c-.3.8-.4 1.8-.4 2.9s.1 2.1.4 2.9c.3.8.7 1.5 1.2 2.1.5.5 1.1.9 1.7 1.2s1.4.4 2.2.4zM1372.2 504.9c0 1.6-.2 3-.7 4.1-.4 1.2-1 2.1-1.8 2.9-.7.8-1.6 1.3-2.6 1.7-1 .4-2 .6-3 .6-1.4 0-2.6-.3-3.6-1s-1.8-1.6-2.4-2.7l-.1 3.4h-2.9v-24.7h3l-.1 10.3c.6-1.2 1.4-2.1 2.4-2.8 1-.7 2.3-1 3.8-1 1 0 2 .2 3 .6 1 .4 1.8 1 2.5 1.7.7.8 1.3 1.7 1.7 2.9.6 1 .8 2.4.8 4zm-8.4 6.6c1.6 0 2.9-.5 3.8-1.6s1.5-2.8 1.5-5-.5-3.8-1.5-4.9-2.3-1.7-3.8-1.7c-.8 0-1.5.1-2.2.4-.7.3-1.3.7-1.8 1.2s-.9 1.2-1.2 2.1c-.3.8-.4 1.8-.4 2.9s.1 2.1.4 2.9c.3.8.7 1.5 1.2 2.1.5.6 1.1 1 1.8 1.2s1.4.4 2.2.4zM1379.2 515.4c0 .7-.1 1.3-.3 1.9-.2.6-.5 1.1-.9 1.6-.4.4-.9.8-1.5 1.1-.6.3-1.4.4-2.2.4-.5 0-1-.1-1.5-.2-.6-.1-1.1-.3-1.6-.6v-2.9c.3.3.7.5 1.1.7.4.2.9.3 1.5.3.9 0 1.5-.2 1.8-.6.4-.4.5-.9.5-1.5v-19.5h3v19.3zm-1.5-22.1c-.6 0-1.1-.2-1.4-.6s-.6-.8-.6-1.4c0-.6.2-1 .6-1.4.4-.4.9-.6 1.4-.6.6 0 1.1.2 1.4.6.4.4.5.9.5 1.4 0 .6-.2 1-.5 1.4s-.8.6-1.4.6zM1398.4 512.3l-.9.6c-.4.2-.8.4-1.3.6-.5.2-1.1.4-1.8.5s-1.4.2-2.2.2c-3 0-5.3-.8-6.9-2.4-1.6-1.6-2.3-3.9-2.3-6.9 0-1.4.2-2.7.6-3.9s1-2.1 1.8-2.9c.8-.8 1.7-1.4 2.7-1.8 1-.4 2.2-.6 3.4-.6 1.3 0 2.4.2 3.5.7 1 .4 1.8 1.1 2.5 1.9.7.9 1.1 1.9 1.3 3.2.2 1.3.2 2.7 0 4.4H1386c.1 1.9.7 3.4 1.7 4.4 1 1 2.6 1.4 4.6 1.4 1.4 0 2.6-.2 3.6-.6 1-.4 1.8-.8 2.5-1.3v2.5zm-7.1-14c-1.3 0-2.4.4-3.4 1.2-.9.8-1.5 2-1.8 3.7h9.6c.1-1.7-.3-2.9-1.1-3.7-.8-.8-1.9-1.2-3.3-1.2zM1410.2 514.2c-1.4 0-2.6-.2-3.7-.6-1.1-.4-2.1-1-2.8-1.8-.8-.8-1.4-1.8-1.8-2.9s-.6-2.5-.6-3.9.2-2.7.6-3.9 1-2.1 1.8-2.9 1.7-1.4 2.9-1.8c1.1-.4 2.4-.6 3.8-.6 1.1 0 2.1.1 3 .4s1.7.6 2.3 1.1v2.7c-.7-.5-1.6-.8-2.5-1.1-.9-.2-1.8-.4-2.8-.4-2.1 0-3.6.5-4.6 1.6s-1.5 2.7-1.5 5 .5 3.9 1.4 5c.9 1.1 2.4 1.6 4.5 1.6 1.1 0 2.1-.1 3-.4.9-.3 1.7-.6 2.5-1v2.7c-.6.4-1.4.7-2.3 1-1 0-2 .2-3.2.2zM1426.9 514c-.6.1-1.2.2-1.8.2-.9 0-1.6-.1-2.2-.4s-1.1-.6-1.5-1c-.4-.4-.7-.9-.8-1.4-.2-.5-.3-1.1-.3-1.7v-11.1h-2.1V496h2.1v-3.8h3v3.8h5.2v2.6h-5.2v10.8c0 .8.2 1.3.6 1.7.4.3 1.1.5 2 .5.9 0 1.7-.3 2.5-.8v2.7c-.5.2-1 .3-1.5.5zM1438 514.2c-.9 0-1.8-.1-2.5-.2s-1.4-.3-1.9-.6c-.5-.2-1-.4-1.4-.7-.4-.2-.7-.5-.9-.6v-2.7c.2.2.5.5.9.7.4.3.9.5 1.4.7.6.2 1.2.4 1.9.6.7.2 1.5.2 2.4.2 1.3 0 2.3-.2 3.1-.6s1.1-1.1 1.1-2.1c0-.5-.1-1-.4-1.3-.2-.3-.6-.6-1-.8-.4-.2-.9-.3-1.4-.5-.5-.1-1.1-.2-1.7-.3-.8-.2-1.5-.3-2.2-.5s-1.4-.5-2-.9c-.6-.4-1.1-.9-1.4-1.5s-.6-1.4-.6-2.4c0-1.6.6-2.9 1.9-3.8 1.3-.9 3-1.4 5.3-1.4 1.3 0 2.4.1 3.4.4s1.7.5 2.3.8v2.7c-.6-.4-1.3-.7-2.2-1s-2-.4-3.3-.4c-1.4 0-2.4.2-3.1.6s-1.1 1-1.1 2c0 .5.1.9.3 1.2.2.3.5.5.8.7.4.2.8.3 1.2.4.5.1.9.2 1.4.3.8.2 1.6.3 2.4.5.8.2 1.6.5 2.2.9.7.4 1.2.9 1.6 1.6s.6 1.5.6 2.6c0 1-.2 1.9-.6 2.6-.4.7-1 1.2-1.6 1.6-.7.4-1.4.7-2.3.9-.8.2-1.7.3-2.6.3zM674.2 317.5c-1.4 0-2.8-.2-4-.7s-2.4-1.2-3.3-2.1c-.9-.9-1.6-2.1-2.2-3.5-.5-1.4-.8-3-.8-4.8 0-1.8.3-3.4.8-4.8s1.3-2.5 2.2-3.4 2-1.6 3.3-2.1c1.3-.5 2.6-.7 4-.7 1.5 0 2.8.2 4.1.7 1.3.5 2.4 1.2 3.3 2.1.9.9 1.6 2.1 2.2 3.4.5 1.4.8 3 .8 4.8 0 1.8-.3 3.4-.8 4.7-.5 1.4-1.2 2.5-2.2 3.5-.9.9-2 1.7-3.3 2.1-1.3.5-2.6.8-4.1.8zm0-2.6c1 0 2-.2 2.9-.5.9-.3 1.6-.8 2.3-1.5.6-.7 1.2-1.5 1.5-2.6s.6-2.4.6-3.9-.2-2.8-.6-3.9-.9-2-1.5-2.6c-.7-.7-1.4-1.2-2.3-1.5-.9-.3-1.8-.5-2.9-.5s-2 .2-2.9.5c-.9.3-1.6.8-2.3 1.5-.7.7-1.2 1.5-1.5 2.6-.4 1.1-.6 2.4-.6 3.9s.2 2.9.6 3.9c.4 1.1.9 2 1.5 2.6.6.7 1.4 1.2 2.3 1.5.9.4 1.9.5 2.9.5zM694.3 317.3c-.5.1-1 .2-1.6.2-.8 0-1.4-.1-1.9-.3-.5-.2-1-.5-1.3-.9-.3-.4-.6-.8-.7-1.3s-.2-1-.2-1.5v-9.7h-1.9v-2.3h1.9v-3.3h2.6v3.3h4.5v2.3h-4.5v9.4c0 .7.2 1.1.5 1.4.3.3.9.5 1.8.5.8 0 1.5-.2 2.1-.7v2.4c-.4.2-.8.4-1.3.5zM706.4 303.7c-1.2 0-2.2.3-2.9.8-.8.6-1.4 1.3-1.8 2.1v10.6H699v-21.5h2.6v5.9l-.1 2.8h.1c.4-.9 1.1-1.6 2-2.2.9-.6 2-.9 3.4-.9 1.5 0 2.8.4 3.7 1.2.9.8 1.4 2.1 1.4 3.7v10.9h-2.6v-10.6c0-1.1-.3-1.8-.8-2.3s-1.3-.5-2.3-.5zM728.7 315.9c-.2.2-.5.3-.8.5-.3.2-.7.4-1.2.5s-1 .3-1.6.4-1.2.2-1.9.2c-2.6 0-4.6-.7-6-2.1-1.4-1.4-2-3.4-2-6 0-1.3.2-2.4.6-3.4.4-1 .9-1.8 1.5-2.5.7-.7 1.4-1.2 2.3-1.6.9-.4 1.9-.6 2.9-.6 1.1 0 2.1.2 3 .6.9.4 1.6.9 2.2 1.7.6.7 1 1.7 1.2 2.7.2 1.1.2 2.4 0 3.8h-11c.1 1.7.6 3 1.5 3.8.9.8 2.2 1.3 4 1.3 1.2 0 2.2-.2 3.1-.5.9-.3 1.6-.7 2.2-1.1v2.3zm-6.2-12.2c-1.1 0-2.1.4-2.9 1-.8.7-1.3 1.8-1.6 3.2h8.4c.1-1.4-.3-2.5-1-3.2-.8-.7-1.7-1-2.9-1zM736.9 305.1c-.9.5-1.6 1.2-2 2.2v9.9h-2.6v-15.6h2.3l.3 3.4h.1c.4-.9 1.1-1.7 1.9-2.4.8-.7 1.9-1.1 3.2-1.3v2.9c-1.3.2-2.3.4-3.2.9zM233.4 63.9h10.4l19.1 53.2h-7.4l-5.5-15.2h-23.5l-5.4 15.2h-6.5l18.8-53.2zm14.4 31.7-9.5-26.5-9.5 26.5h19zM302.5 113.8c0 2.5-.4 4.7-1.1 6.8-.7 2.1-1.9 3.8-3.4 5.2-1.6 1.4-3.6 2.5-6 3.3-2.4.8-5.4 1.2-8.9 1.2-1.9 0-3.5-.1-5-.3-1.4-.2-2.7-.5-3.7-.8-1.1-.3-2-.7-2.7-1-.7-.4-1.4-.7-1.9-1.1v-5.8c.8.4 1.6.9 2.5 1.2.9.4 1.8.7 2.9 1 1 .3 2.2.5 3.5.7 1.3.2 2.8.3 4.5.3 4.7 0 8.1-.9 9.9-2.7 1.9-1.8 2.8-4.4 2.8-8v-6c-1.1 2.3-2.7 4.1-4.8 5.5-2.1 1.4-4.6 2.1-7.6 2.1-2.3 0-4.4-.4-6.5-1.2-2.1-.8-3.9-2-5.4-3.5-1.6-1.6-2.8-3.5-3.7-5.9-.9-2.3-1.4-5.1-1.4-8.2 0-3.2.5-5.9 1.4-8.3.9-2.3 2.2-4.3 3.7-5.9 1.6-1.6 3.4-2.8 5.5-3.6 2.1-.8 4.3-1.2 6.6-1.2 3.1 0 5.7.7 7.8 2.1 2.1 1.4 3.7 3.3 4.9 5.6l.1-.8c0-.9 0-2 .1-3.2.1-1.3.2-2.2.3-2.9h5.9c-.1.7-.2 1.7-.3 3-.1 1.3-.1 2.4-.1 3.2v29.2zm-17.8-4.1c1.6 0 3.1-.3 4.5-.8s2.5-1.3 3.6-2.4c1-1.1 1.8-2.4 2.4-4.1.6-1.6.9-3.5.9-5.7 0-4.4-1.1-7.7-3.2-9.9-2.2-2.2-4.9-3.3-8.1-3.3-1.6 0-3.2.3-4.6.8-1.4.5-2.6 1.4-3.6 2.5s-1.8 2.5-2.4 4.1c-.6 1.7-.9 3.6-.9 5.8 0 2.2.3 4.1.9 5.7.6 1.6 1.4 3 2.4 4 1 1.1 2.3 1.9 3.7 2.4 1.3.7 2.8.9 4.4.9zM346.2 113.8c0 2.5-.4 4.7-1.1 6.8-.7 2.1-1.9 3.8-3.4 5.2-1.6 1.4-3.6 2.5-6 3.3-2.4.8-5.4 1.2-8.9 1.2-1.9 0-3.5-.1-5-.3-1.4-.2-2.7-.5-3.7-.8-1.1-.3-2-.7-2.7-1-.7-.4-1.4-.7-1.9-1.1v-5.8c.8.4 1.6.9 2.5 1.2.9.4 1.8.7 2.9 1 1 .3 2.2.5 3.5.7 1.3.2 2.8.3 4.5.3 4.7 0 8.1-.9 9.9-2.7 1.9-1.8 2.8-4.4 2.8-8v-6c-1.1 2.3-2.7 4.1-4.8 5.5-2.1 1.4-4.6 2.1-7.6 2.1-2.3 0-4.4-.4-6.5-1.2-2.1-.8-3.9-2-5.4-3.5-1.6-1.6-2.8-3.5-3.7-5.9-.9-2.3-1.4-5.1-1.4-8.2 0-3.2.5-5.9 1.4-8.3.9-2.3 2.2-4.3 3.7-5.9 1.6-1.6 3.4-2.8 5.5-3.6 2.1-.8 4.3-1.2 6.6-1.2 3.1 0 5.7.7 7.8 2.1 2.1 1.4 3.7 3.3 4.9 5.6l.1-.8c0-.9 0-2 .1-3.2.1-1.3.2-2.2.3-2.9h5.9c-.1.7-.2 1.7-.3 3-.1 1.3-.1 2.4-.1 3.2v29.2zm-17.8-4.1c1.6 0 3.1-.3 4.5-.8s2.5-1.3 3.6-2.4c1-1.1 1.8-2.4 2.4-4.1.6-1.6.9-3.5.9-5.7 0-4.4-1.1-7.7-3.2-9.9-2.2-2.2-4.9-3.3-8.1-3.3-1.6 0-3.2.3-4.6.8-1.4.5-2.6 1.4-3.6 2.5s-1.8 2.5-2.4 4.1c-.6 1.7-.9 3.6-.9 5.8 0 2.2.3 4.1.9 5.7.6 1.6 1.4 3 2.4 4 1 1.1 2.3 1.9 3.7 2.4 1.3.7 2.8.9 4.4.9zM368.3 87.2c-2.3 1.2-3.9 3-5 5.4v24.5h-6.5V78.6h5.7l.7 8.4h.1c1.1-2.3 2.7-4.3 4.7-6 2.1-1.7 4.7-2.8 7.8-3.2v7.3c-2.7.2-5.2.9-7.5 2.1zM413.3 113.8c-.5.4-1.2.8-2 1.3-.8.4-1.8.9-2.9 1.3-1.1.4-2.4.8-3.9 1-1.4.3-3 .4-4.8.4-6.5 0-11.4-1.8-14.8-5.3-3.4-3.5-5-8.4-5-14.8 0-3.1.5-5.9 1.4-8.4.9-2.5 2.2-4.6 3.8-6.3 1.6-1.7 3.6-3 5.8-3.9 2.2-.9 4.6-1.4 7.3-1.4 2.8 0 5.2.5 7.4 1.4 2.2.9 4 2.3 5.4 4.2 1.4 1.8 2.4 4.1 2.9 6.8s.5 5.8 0 9.4h-27.2c.2 4.2 1.5 7.3 3.7 9.4 2.2 2.1 5.5 3.1 9.9 3.1 3 0 5.5-.4 7.6-1.3 2.1-.8 3.9-1.8 5.3-2.8v5.9zM398 83.6c-2.8 0-5.2.9-7.3 2.6-2 1.7-3.3 4.4-3.9 7.9h20.7c.2-3.6-.6-6.2-2.4-7.9-1.8-1.7-4.1-2.6-7.1-2.6zM455.1 113.8c0 2.5-.4 4.7-1.1 6.8-.7 2.1-1.9 3.8-3.4 5.2-1.6 1.4-3.6 2.5-6 3.3-2.4.8-5.4 1.2-8.9 1.2-1.9 0-3.5-.1-5-.3-1.4-.2-2.7-.5-3.7-.8-1.1-.3-2-.7-2.7-1-.7-.4-1.4-.7-1.9-1.1v-5.8c.8.4 1.6.9 2.5 1.2.9.4 1.8.7 2.9 1 1 .3 2.2.5 3.5.7 1.3.2 2.8.3 4.5.3 4.7 0 8.1-.9 9.9-2.7 1.9-1.8 2.8-4.4 2.8-8v-6c-1.1 2.3-2.7 4.1-4.8 5.5-2.1 1.4-4.6 2.1-7.6 2.1-2.3 0-4.4-.4-6.5-1.2-2.1-.8-3.9-2-5.4-3.5-1.6-1.6-2.8-3.5-3.7-5.9-.9-2.3-1.4-5.1-1.4-8.2 0-3.2.5-5.9 1.4-8.3.9-2.3 2.2-4.3 3.7-5.9 1.6-1.6 3.4-2.8 5.5-3.6 2.1-.8 4.3-1.2 6.6-1.2 3.1 0 5.7.7 7.8 2.1 2.1 1.4 3.7 3.3 4.9 5.6l.1-.8c0-.9 0-2 .1-3.2.1-1.3.2-2.2.3-2.9h5.9c-.1.7-.2 1.7-.3 3-.1 1.3-.1 2.4-.1 3.2v29.2zm-17.7-4.1c1.6 0 3.1-.3 4.5-.8s2.5-1.3 3.6-2.4c1-1.1 1.8-2.4 2.4-4.1.6-1.6.9-3.5.9-5.7 0-4.4-1.1-7.7-3.2-9.9-2.2-2.2-4.9-3.3-8.1-3.3-1.6 0-3.2.3-4.6.8-1.4.5-2.6 1.4-3.6 2.5s-1.8 2.5-2.4 4.1c-.6 1.7-.9 3.6-.9 5.8 0 2.2.3 4.1.9 5.7.6 1.6 1.4 3 2.4 4 1 1.1 2.3 1.9 3.7 2.4 1.2.7 2.7.9 4.4.9zM488.3 109.7c-.4.9-1 1.8-1.7 2.8-.7 1-1.6 1.8-2.6 2.6s-2.3 1.4-3.7 1.9c-1.4.5-3.1.7-4.9.7-3.5 0-6.3-1-8.4-2.9-2.1-2-3.2-4.8-3.2-8.4 0-4.2 1.5-7.3 4.4-9.3 2.9-2 7.1-3 12.6-3h7.2V91c0-2.7-.7-4.6-2.1-5.7-1.4-1.1-3.8-1.7-7.1-1.7-2.4 0-4.6.4-6.8 1.2-2.1.8-4 1.6-5.7 2.6v-5.9c1.4-.8 3.3-1.7 5.6-2.5s4.9-1.2 7.8-1.2c4.8 0 8.5 1 11.1 3 2.5 2 3.8 5.1 3.8 9.3v22.2c0 .6 0 1.1.1 1.7 0 .6.1 1.2.1 1.7s.1 1 .1 1.3H489c-.1-.7-.3-1.7-.4-2.9-.1-1.3-.2-2.4-.2-3.3l-.1-1.1zm-11.5 2.3c2 0 3.8-.4 5.2-1.3 1.4-.8 2.6-1.8 3.5-2.9.9-1.1 1.5-2.2 1.9-3.3.4-1.1.6-1.8.6-2.3v-2.8h-6.5c-3.9 0-6.7.6-8.5 1.7-1.8 1.1-2.6 2.8-2.6 5 0 1.7.5 3.2 1.6 4.3.9 1.1 2.5 1.6 4.8 1.6zM520.5 117.4c-1.2.3-2.5.4-3.9.4-1.9 0-3.5-.3-4.8-.8-1.3-.5-2.4-1.3-3.2-2.2-.8-.9-1.4-2-1.8-3.1-.4-1.2-.6-2.4-.6-3.6v-24h-4.6v-5.6h4.6v-8.1h6.5v8.1H524v5.6h-11.2v23.2c0 1.6.4 2.8 1.2 3.6.8.7 2.3 1.1 4.3 1.1 1.9 0 3.7-.5 5.3-1.6v5.9c-.8.4-1.8.8-3.1 1.1zM535.6 72.9c-1.3 0-2.4-.4-3.2-1.2-.8-.8-1.2-1.8-1.2-3s.4-2.2 1.2-3c.8-.8 1.9-1.3 3.2-1.3 1.3 0 2.3.4 3 1.3.7.8 1.1 1.9 1.1 3 0 1.2-.4 2.2-1.1 3-.7.8-1.7 1.2-3 1.2zm3.2 5.7v38.5h-6.5V78.6h6.5zM565.2 117.8c-2.6 0-5.1-.4-7.3-1.3-2.3-.9-4.2-2.2-5.9-3.9-1.7-1.7-3-3.8-3.9-6.3-.9-2.5-1.4-5.3-1.4-8.5s.5-6 1.4-8.5c.9-2.5 2.2-4.6 3.9-6.3 1.7-1.7 3.6-3 5.9-3.9 2.3-.9 4.7-1.3 7.3-1.3 2.7 0 5.1.4 7.4 1.3 2.3.9 4.2 2.2 5.9 3.9 1.7 1.7 3 3.8 3.9 6.3 1 2.5 1.4 5.3 1.4 8.5s-.5 6.1-1.4 8.5c-1 2.5-2.3 4.6-3.9 6.3-1.7 1.7-3.6 3-5.9 3.9-2.2.9-4.7 1.3-7.4 1.3zm0-5.8c1.7 0 3.3-.3 4.8-.9 1.5-.6 2.7-1.4 3.8-2.6 1.1-1.2 1.9-2.6 2.5-4.4.6-1.8.9-3.9.9-6.3s-.3-4.5-.9-6.3-1.4-3.3-2.5-4.4c-1.1-1.2-2.4-2-3.8-2.6-1.5-.6-3.1-.9-4.8-.9-1.7 0-3.3.3-4.7.9-1.4.6-2.7 1.4-3.7 2.6-1.1 1.2-1.9 2.6-2.5 4.4-.6 1.8-.9 3.9-.9 6.3s.3 4.5.9 6.3c.6 1.8 1.4 3.3 2.5 4.4 1.1 1.2 2.3 2 3.7 2.6 1.4.6 3 .9 4.7.9zM610.1 83.6c-3 0-5.4.7-7.2 2-1.9 1.4-3.4 3.1-4.5 5.2V117h-6.5V78.6h6.2l.2 6.9h.1c1-2.2 2.7-4.1 4.9-5.5 2.2-1.4 5-2.2 8.5-2.2 3.8 0 6.8 1 9.1 3s3.4 5.1 3.4 9.2v27h-6.5V90.7c0-2.7-.7-4.5-2-5.6-1.5-1-3.3-1.5-5.7-1.5z"/></g></svg>