<svg xmlns="http://www.w3.org/2000/svg" width="121" height="121" fill="none"><path fill="url(#a)" fill-rule="evenodd" d="M22.3 109.081 10.96 97.748c-2.626-2.627-2.864-5.907-1.53-8.92l33.298-73.254c1.504-2.853 4.795-3.986 7.71-1.066l55.103 55.093c2.912 2.92 1.776 6.213-1.072 7.72l-73.255 33.293c-3.008 1.334-6.291 1.094-8.915-1.533Z" clip-rule="evenodd"/><path stroke="#0055D9" stroke-linecap="round" stroke-linejoin="round" stroke-miterlimit="79.84" stroke-width="2" d="M77.625 89.495c2.69 5.266 1.832 11.893-2.579 16.306-5.48 5.48-14.37 5.48-19.85 0a14.096 14.096 0 0 1-3.173-4.88M81.706 38.495l21.077-21.08M70.825 27.575l8.79-24.24M92.49 49.241l24.25-8.786"/><defs><linearGradient id="a" x1="12.504" x2="123.004" y1="43.541" y2="94.54" gradientUnits="userSpaceOnUse"><stop offset=".02" stop-color="#0064FF"/><stop offset=".06" stop-color="#005FFF" stop-opacity=".86"/><stop offset=".11" stop-color="#005BFF" stop-opacity=".72"/><stop offset=".17" stop-color="#0057FF" stop-opacity=".59"/><stop offset=".23" stop-color="#0053FF" stop-opacity=".48"/><stop offset=".3" stop-color="#0051FF" stop-opacity=".4"/><stop offset=".38" stop-color="#004FFF" stop-opacity=".33"/><stop offset=".48" stop-color="#004DFF" stop-opacity=".28"/><stop offset=".61" stop-color="#004CFF" stop-opacity=".26"/><stop offset="1" stop-color="#004CFF" stop-opacity=".25"/></linearGradient></defs></svg>