<svg width="121" height="121" viewBox="0 0 121 121" fill="none" xmlns="http://www.w3.org/2000/svg">
<path fill-rule="evenodd" clip-rule="evenodd" d="M10.0024 96.041V24.041C10.0024 21.841 11.7944 20.041 13.9971 20.041H106.016C108.218 20.041 110.01 21.841 110.01 24.041V96.041C110.01 98.241 108.218 100.041 106.016 100.041H13.9971C11.7944 100.041 10.0024 98.241 10.0024 96.041Z" fill="url(#paint0_linear_598_1562)"/>
<path fill-rule="evenodd" clip-rule="evenodd" d="M10.0022 38.041V24.041C10.0022 21.841 11.7942 20.041 13.9969 20.041H106.015C108.218 20.041 110.01 21.841 110.01 24.041V38.041H10.0022Z" fill="url(#paint1_linear_598_1562)"/>
<path d="M31.5037 68.5344H55.5036" stroke="#0055D9" stroke-width="2" stroke-miterlimit="79.8403" stroke-linecap="round" stroke-linejoin="round"/>
<path fill-rule="evenodd" clip-rule="evenodd" d="M23.5076 66.5209C24.6169 66.5209 25.5196 67.4276 25.5196 68.5343C25.5196 69.6409 24.6169 70.5476 23.5076 70.5476C22.3983 70.5476 21.4956 69.6409 21.4956 68.5343C21.4956 67.4276 22.3983 66.5209 23.5076 66.5209Z" stroke="#0055D9" stroke-width="2" stroke-miterlimit="79.8403" stroke-linecap="round"/>
<path d="M31.5037 52.5344H55.5036" stroke="#0055D9" stroke-width="2" stroke-miterlimit="79.8403" stroke-linecap="round" stroke-linejoin="round"/>
<path fill-rule="evenodd" clip-rule="evenodd" d="M23.5076 50.5209C24.6169 50.5209 25.5196 51.4276 25.5196 52.5343C25.5196 53.6409 24.6169 54.5476 23.5076 54.5476C22.3983 54.5476 21.4956 53.6409 21.4956 52.5343C21.4956 51.4276 22.3983 50.5209 23.5076 50.5209Z" stroke="#0055D9" stroke-width="2" stroke-miterlimit="79.8403" stroke-linecap="round"/>
<path d="M31.5037 85.5344H55.5036" stroke="#0055D9" stroke-width="2" stroke-miterlimit="79.8403" stroke-linecap="round" stroke-linejoin="round"/>
<path fill-rule="evenodd" clip-rule="evenodd" d="M23.5076 83.5209C24.6169 83.5209 25.5196 84.4276 25.5196 85.5343C25.5196 86.6409 24.6169 87.5476 23.5076 87.5476C22.3983 87.5476 21.4956 86.6409 21.4956 85.5343C21.4956 84.4276 22.3983 83.5209 23.5076 83.5209Z" stroke="#0055D9" stroke-width="2" stroke-miterlimit="79.8403" stroke-linecap="round"/>
<path d="M94.26 33.7778L102.747 25.2906" stroke="#0055D9" stroke-width="2" stroke-miterlimit="79.8403" stroke-linecap="round" stroke-linejoin="round"/>
<path d="M94.26 25.291L102.747 33.7782" stroke="#0055D9" stroke-width="2" stroke-miterlimit="79.8403" stroke-linecap="round" stroke-linejoin="round"/>
<rect x="68.0037" y="53.041" width="30" height="32" rx="2" stroke="#0055D9" stroke-width="2"/>
<defs>
<linearGradient id="paint0_linear_598_1562" x1="85.985" y1="99.6596" x2="85.985" y2="20.0398" gradientUnits="userSpaceOnUse">
<stop stop-color="#A1BFFF" stop-opacity="0.17"/>
<stop offset="1" stop-color="#679BFF" stop-opacity="0.92"/>
</linearGradient>
<linearGradient id="paint1_linear_598_1562" x1="68.0035" y1="-1.45898" x2="68.0035" y2="103.541" gradientUnits="userSpaceOnUse">
<stop offset="0.02" stop-color="#0064FF"/>
<stop offset="0.06" stop-color="#005FFF" stop-opacity="0.86"/>
<stop offset="0.11" stop-color="#005BFF" stop-opacity="0.72"/>
<stop offset="0.17" stop-color="#0057FF" stop-opacity="0.59"/>
<stop offset="0.23" stop-color="#0053FF" stop-opacity="0.48"/>
<stop offset="0.3" stop-color="#0051FF" stop-opacity="0.4"/>
<stop offset="0.38" stop-color="#004FFF" stop-opacity="0.33"/>
<stop offset="0.48" stop-color="#004DFF" stop-opacity="0.28"/>
<stop offset="0.61" stop-color="#004CFF" stop-opacity="0.26"/>
<stop offset="1" stop-color="#004CFF" stop-opacity="0.25"/>
</linearGradient>
</defs>
</svg>
