<svg xmlns="http://www.w3.org/2000/svg" width="121" height="121" fill="none"><path fill="url(#a)" fill-rule="evenodd" d="M10.002 96.041v-72c0-2.2 1.792-4 3.995-4h92.019c2.202 0 3.994 1.8 3.994 4v72c0 2.2-1.792 4-3.994 4H13.997a4.005 4.005 0 0 1-3.995-4Z" clip-rule="evenodd"/><path fill="url(#b)" fill-rule="evenodd" d="M10.002 38.041v-14c0-2.2 1.792-4 3.995-4h92.018c2.203 0 3.995 1.8 3.995 4v14H10.002Z" clip-rule="evenodd"/><path stroke="#0055D9" stroke-linecap="round" stroke-linejoin="round" stroke-miterlimit="79.84" stroke-width="2" d="M31.504 68.534h24"/><path stroke="#0055D9" stroke-linecap="round" stroke-miterlimit="79.84" stroke-width="2" d="M23.508 66.52c1.109 0 2.012.908 2.012 2.014a2.017 2.017 0 0 1-2.012 2.014 2.017 2.017 0 0 1-2.012-2.014c0-1.106.902-2.013 2.012-2.013Z" clip-rule="evenodd"/><path stroke="#0055D9" stroke-linecap="round" stroke-linejoin="round" stroke-miterlimit="79.84" stroke-width="2" d="M31.504 52.534h24"/><path stroke="#0055D9" stroke-linecap="round" stroke-miterlimit="79.84" stroke-width="2" d="M23.508 50.52c1.109 0 2.012.908 2.012 2.014a2.017 2.017 0 0 1-2.012 2.014 2.017 2.017 0 0 1-2.012-2.014c0-1.106.902-2.013 2.012-2.013Z" clip-rule="evenodd"/><path stroke="#0055D9" stroke-linecap="round" stroke-linejoin="round" stroke-miterlimit="79.84" stroke-width="2" d="M31.504 85.534h24"/><path stroke="#0055D9" stroke-linecap="round" stroke-miterlimit="79.84" stroke-width="2" d="M23.508 83.52c1.109 0 2.012.908 2.012 2.014a2.017 2.017 0 0 1-2.012 2.014 2.017 2.017 0 0 1-2.012-2.014c0-1.106.902-2.013 2.012-2.013Z" clip-rule="evenodd"/><path stroke="#0055D9" stroke-linecap="round" stroke-linejoin="round" stroke-miterlimit="79.84" stroke-width="2" d="m94.26 33.778 8.487-8.487M94.26 25.291l8.487 8.487"/><rect width="30" height="32" x="68.004" y="53.041" stroke="#0055D9" stroke-width="2" rx="2"/><defs><linearGradient id="a" x1="85.985" x2="85.985" y1="99.66" y2="20.04" gradientUnits="userSpaceOnUse"><stop stop-color="#A1BFFF" stop-opacity=".17"/><stop offset="1" stop-color="#679BFF" stop-opacity=".92"/></linearGradient><linearGradient id="b" x1="68.004" x2="68.004" y1="-1.459" y2="103.541" gradientUnits="userSpaceOnUse"><stop offset=".02" stop-color="#0064FF"/><stop offset=".06" stop-color="#005FFF" stop-opacity=".86"/><stop offset=".11" stop-color="#005BFF" stop-opacity=".72"/><stop offset=".17" stop-color="#0057FF" stop-opacity=".59"/><stop offset=".23" stop-color="#0053FF" stop-opacity=".48"/><stop offset=".3" stop-color="#0051FF" stop-opacity=".4"/><stop offset=".38" stop-color="#004FFF" stop-opacity=".33"/><stop offset=".48" stop-color="#004DFF" stop-opacity=".28"/><stop offset=".61" stop-color="#004CFF" stop-opacity=".26"/><stop offset="1" stop-color="#004CFF" stop-opacity=".25"/></linearGradient></defs></svg>