<svg xmlns="http://www.w3.org/2000/svg" width="121" height="121" fill="none" viewBox="0 0 121 121"><path fill="url(#a)" fill-rule="evenodd" d="m90.006 98.04-10-14 .01-.012H32a3.994 3.994 0 0 1-3.994-3.987V18.028c0-2.2 1.792-3.987 3.995-3.987h80.01a3.994 3.994 0 0 1 3.995 3.987V80.04c0 2.2-1.792 3.987-3.995 3.987h-6.035l-9.97 14.013c-1.894 1.893-4.08 1.92-6 0Z" clip-rule="evenodd"/><path fill="url(#b)" fill-rule="evenodd" d="m36.006 112.041-10-14L8 98.028a3.994 3.994 0 0 1-3.994-3.987V48.028c0-2.2 1.792-3.987 3.994-3.987h64.011a3.994 3.994 0 0 1 3.995 3.987V94.04c0 2.2-1.792 3.987-3.995 3.987l-20.005.013-10 14c-1.894 1.893-4.08 1.92-6 0Z" clip-rule="evenodd"/><path stroke="#0055D9" stroke-linecap="round" stroke-linejoin="round" stroke-miterlimit="79.84" stroke-width="2" d="M48.004 34.041h49.008M82.004 49.041h15.008M82.004 64.041h15.008M30.509 65.076c0-4.831 3.92-8.747 8.747-8.747s8.748 3.916 8.748 8.747a8.719 8.719 0 0 1-2.623 6.24l-5.355 4.619c-.949.827-.733 1.62-.773 2.446l.002 2.244M39.256 86.441v2.627"/><defs><linearGradient id="a" x1="94.865" x2="94.865" y1="106.041" y2="-7.459" gradientUnits="userSpaceOnUse"><stop stop-color="#A1BFFF" stop-opacity=".17"/><stop offset="1" stop-color="#679BFF" stop-opacity=".92"/></linearGradient><linearGradient id="b" x1="51.504" x2="51.504" y1="17.541" y2="287.541" gradientUnits="userSpaceOnUse"><stop offset=".02" stop-color="#0064FF"/><stop offset=".06" stop-color="#005FFF" stop-opacity=".86"/><stop offset=".11" stop-color="#005BFF" stop-opacity=".72"/><stop offset=".17" stop-color="#0057FF" stop-opacity=".59"/><stop offset=".23" stop-color="#0053FF" stop-opacity=".48"/><stop offset=".3" stop-color="#0051FF" stop-opacity=".4"/><stop offset=".38" stop-color="#004FFF" stop-opacity=".33"/><stop offset=".48" stop-color="#004DFF" stop-opacity=".28"/><stop offset=".61" stop-color="#004CFF" stop-opacity=".26"/><stop offset="1" stop-color="#004CFF" stop-opacity=".25"/></linearGradient></defs></svg>