<svg xmlns="http://www.w3.org/2000/svg" width="122" height="36" fill="none" viewBox="0 0 122 36"><path fill="#F0F2F3" d="M0 8a8 8 0 0 1 8-8h106a8 8 0 0 1 8 8v20a8 8 0 0 1-8 8H8a8 8 0 0 1-8-8V8Z"/><path fill="#000" d="M22.167 23h-2.282l-3.528-10.038h1.764l2.982 8.61 3.024-8.61h1.568L22.167 23Zm5.37-8.19c-.298 0-.545-.098-.741-.294a.98.98 0 0 1-.28-.7.98.98 0 0 1 .28-.7c.196-.196.443-.294.742-.294.29 0 .527.098.714.294.196.196.294.43.294.7 0 .27-.098.504-.294.7a.943.943 0 0 1-.714.294Zm.813.924V23h-1.624v-7.266h1.624Zm7.897 6.734c-.103.065-.229.14-.378.224-.15.075-.327.145-.532.21a5.407 5.407 0 0 1-1.638.238c-1.335 0-2.334-.331-2.996-.994-.654-.663-.98-1.591-.98-2.786 0-.588.088-1.115.266-1.582a3.29 3.29 0 0 1 .742-1.176 3.11 3.11 0 0 1 1.134-.742c.438-.177.92-.266 1.442-.266.541 0 1.026.089 1.456.266.438.177.798.443 1.078.798.28.355.471.793.574 1.316.112.523.116 1.134.014 1.834h-5.026c.065.663.284 1.162.658 1.498.373.327.956.49 1.75.49.578 0 1.06-.07 1.442-.21.392-.15.723-.303.994-.462v1.344Zm-2.94-5.586c-.476 0-.878.145-1.204.434-.327.29-.542.719-.644 1.288h3.416c.018-.588-.112-1.022-.392-1.302s-.672-.42-1.176-.42ZM46.255 23h-2.324l-1.386-5.222-1.4 5.222H38.85l-1.596-7.266h1.666l1.232 5.964 1.638-5.964h1.694l1.596 5.922 1.232-5.922h1.54L46.255 23Zm12.003-.532c-.102.065-.228.14-.378.224-.149.075-.326.145-.532.21a5.414 5.414 0 0 1-1.637.238c-1.335 0-2.334-.331-2.996-.994-.654-.663-.98-1.591-.98-2.786 0-.588.088-1.115.266-1.582.177-.467.424-.859.742-1.176a3.11 3.11 0 0 1 1.133-.742c.44-.177.92-.266 1.443-.266.54 0 1.026.089 1.456.266.438.177.797.443 1.078.798.28.355.47.793.573 1.316.112.523.117 1.134.014 1.834h-5.026c.066.663.285 1.162.658 1.498.374.327.957.49 1.75.49.58 0 1.06-.07 1.442-.21a6.69 6.69 0 0 0 .994-.462v1.344Zm-2.94-5.586c-.475 0-.877.145-1.203.434-.327.29-.542.719-.645 1.288h3.416c.02-.588-.111-1.022-.392-1.302-.28-.28-.672-.42-1.175-.42Zm7.015 3.444L60.569 23h-1.596l2.562-3.78-2.31-3.486h1.848l1.596 2.394 1.554-2.394h1.596l-2.352 3.514L65.959 23H64.11l-1.778-2.674Zm8.828 1.4a2.435 2.435 0 0 1-.308.504 2.165 2.165 0 0 1-.462.462c-.177.13-.392.238-.644.322a2.792 2.792 0 0 1-.882.126 2.69 2.69 0 0 1-.882-.14 1.975 1.975 0 0 1-.714-.392 2.024 2.024 0 0 1-.476-.658 2.399 2.399 0 0 1-.168-.924c0-.793.294-1.386.882-1.778.588-.401 1.42-.602 2.492-.602h1.106v-.448c0-.476-.12-.803-.364-.98-.242-.187-.644-.28-1.204-.28-.476 0-.924.07-1.344.21-.41.13-.774.285-1.092.462v-1.358c.29-.159.672-.308 1.148-.448.476-.14.994-.21 1.554-.21.934 0 1.652.196 2.156.588.514.383.77.999.77 1.848v4.088c.01.103.014.21.014.322l.028.322.028.238h-1.498a6.4 6.4 0 0 1-.084-.546 21.79 21.79 0 0 1-.042-.63l-.014-.098Zm-1.848.154c.346 0 .63-.07.854-.21.234-.15.42-.317.56-.504.14-.196.238-.387.294-.574a1.63 1.63 0 0 0 .084-.392v-.49h-1.008c-.644 0-1.115.103-1.414.308a.946.946 0 0 0-.448.84c0 .317.09.57.266.756.187.177.458.266.812.266ZM76.105 23h-1.624v-7.266h1.484l.112 1.19h.028c.196-.383.481-.7.854-.952.383-.252.868-.378 1.456-.378.532 0 .985.126 1.358.378.374.252.626.635.756 1.148.206-.467.514-.835.924-1.106.411-.28.91-.42 1.498-.42.327 0 .626.047.896.14.28.093.518.238.714.434.196.187.35.425.462.714.112.29.168.63.168 1.022V23h-1.638v-4.872c0-.42-.102-.723-.308-.91-.205-.187-.485-.28-.84-.28-.429 0-.784.117-1.064.35-.27.233-.499.513-.686.84V23h-1.638v-4.984c0-.42-.102-.705-.308-.854-.205-.15-.48-.224-.826-.224-.448 0-.807.103-1.078.308a2.66 2.66 0 0 0-.7.77V23Zm14.835.14c-.55 0-1.026-.121-1.428-.364a2.903 2.903 0 0 1-.952-1.008v3.71h-1.624v-9.744h1.484l.112 1.288c.243-.439.565-.784.966-1.036.402-.261.892-.392 1.47-.392.43 0 .836.08 1.218.238.392.15.733.383 1.022.7.29.308.518.7.686 1.176.178.467.266 1.017.266 1.652 0 .644-.088 1.204-.266 1.68a3.341 3.341 0 0 1-.7 1.176c-.289.308-.63.541-1.022.7-.392.15-.802.224-1.232.224Zm-.392-1.358c.579 0 1.046-.196 1.4-.588.364-.401.546-1.013.546-1.834 0-.812-.182-1.419-.546-1.82-.354-.401-.816-.602-1.386-.602-.289 0-.555.051-.798.154a1.677 1.677 0 0 0-.644.448 2.25 2.25 0 0 0-.42.77 3.232 3.232 0 0 0-.154 1.05c0 .41.052.77.154 1.078.103.299.243.55.42.756.178.196.388.345.63.448.252.093.518.14.798.14Zm6.612-8.82V23h-1.624V12.962h1.624Zm7.897 9.506a7.62 7.62 0 0 1-.378.224 3.665 3.665 0 0 1-.532.21 5.384 5.384 0 0 1-1.638.238c-1.334 0-2.333-.331-2.996-.994-.653-.663-.98-1.591-.98-2.786 0-.588.089-1.115.266-1.582.178-.467.425-.859.742-1.176a3.114 3.114 0 0 1 1.134-.742c.439-.177.92-.266 1.442-.266a3.78 3.78 0 0 1 1.456.266c.439.177.798.443 1.078.798.28.355.472.793.574 1.316.112.523.117 1.134.014 1.834h-5.026c.066.663.285 1.162.658 1.498.374.327.957.49 1.75.49.579 0 1.06-.07 1.442-.21.392-.15.724-.303.994-.462v1.344Zm-2.94-5.586c-.476 0-.877.145-1.204.434-.326.29-.541.719-.644 1.288h3.416c.019-.588-.112-1.022-.392-1.302s-.672-.42-1.176-.42Z"/></svg>