<svg width="16" height="16" viewBox="0 0 16 16" fill="none" xmlns="http://www.w3.org/2000/svg">
<path fill-rule="evenodd" clip-rule="evenodd" d="M2.53033 1.46967C2.23744 1.17678 1.76256 1.17678 1.46967 1.46967C1.17678 1.76256 1.17678 2.23744 1.46967 2.53033L4.56189 5.62255L3.54704 5.70062C2.31187 5.79563 1.75697 7.29568 2.63294 8.17165L4.91543 10.4541L2.40522 12.9643C2.11232 13.2572 2.11232 13.7321 2.40522 14.025C2.69811 14.3179 3.17298 14.3179 3.46588 14.025L5.97609 11.5148L8.25875 13.7975C9.13472 14.6734 10.6348 14.1185 10.7298 12.8834L10.8078 11.8685L13.4697 14.5303C13.7626 14.8232 14.2374 14.8232 14.5303 14.5303C14.8232 14.2374 14.8232 13.7626 14.5303 13.4697L2.53033 1.46967ZM9.41088 10.4715L5.95886 7.01952L3.77047 7.18786L9.24254 12.6599L9.41088 10.4715ZM11.9107 7.46948C11.5788 7.56708 11.2694 7.7261 10.998 7.93727L12.0771 9.01641C12.1581 8.97117 12.2442 8.93491 12.3339 8.90853L13.7186 8.50127C14.7745 8.19071 15.113 6.86315 14.3348 6.08488L10.3455 2.09564C9.56725 1.31738 8.23969 1.65589 7.92913 2.71181L7.52187 4.09648C7.49549 4.18618 7.45923 4.27229 7.41399 4.3533L8.49313 5.43244C8.70429 5.16103 8.86332 4.85158 8.96092 4.51973L9.34441 3.21586L13.2145 7.08599L11.9107 7.46948Z" fill="#1E2126"/>
</svg>
