<svg width="259" height="36" viewBox="0 0 259 36" fill="none" xmlns="http://www.w3.org/2000/svg">
<path d="M0 8C0 3.58172 3.58172 0 8 0H251C255.418 0 259 3.58172 259 8V28C259 32.4183 255.418 36 251 36H8C3.58172 36 0 32.4183 0 28V8Z" fill="#2C3C4F"/>
<path d="M18.7886 12.962V23H17.0946V12.962H18.7886ZM24.6744 22.776C24.5064 22.8787 24.2964 22.9627 24.0444 23.028C23.7924 23.1027 23.5031 23.14 23.1764 23.14C22.7844 23.14 22.4531 23.0887 22.1824 22.986C21.9211 22.874 21.7064 22.7247 21.5384 22.538C21.3704 22.3513 21.2491 22.1367 21.1744 21.894C21.0997 21.642 21.0624 21.376 21.0624 21.096V17.05H20.1944V15.734H21.0624V14.208H22.6864V15.734H24.7724V17.05H22.6864V20.914C22.6864 21.2127 22.7564 21.432 22.8964 21.572C23.0457 21.712 23.2884 21.782 23.6244 21.782C23.8484 21.782 24.0444 21.7493 24.2124 21.684C24.3804 21.6187 24.5344 21.53 24.6744 21.418V22.776ZM26.1545 12.962H27.8205L27.6245 16.28H26.3505L26.1545 12.962ZM32.0218 23.14C31.6578 23.14 31.3264 23.1073 31.0278 23.042C30.7384 22.986 30.4818 22.916 30.2578 22.832C30.0338 22.748 29.8424 22.6593 29.6838 22.566C29.5344 22.4727 29.4131 22.3887 29.3198 22.314V21.026C29.4131 21.11 29.5391 21.2033 29.6978 21.306C29.8658 21.3993 30.0571 21.4927 30.2718 21.586C30.4958 21.67 30.7478 21.74 31.0278 21.796C31.3078 21.852 31.6204 21.88 31.9658 21.88C32.4791 21.88 32.8524 21.8053 33.0858 21.656C33.3284 21.4973 33.4498 21.2687 33.4498 20.97C33.4498 20.774 33.4031 20.62 33.3098 20.508C33.2164 20.396 33.0904 20.3073 32.9318 20.242C32.7731 20.1767 32.5864 20.13 32.3718 20.102C32.1664 20.0647 31.9518 20.0227 31.7278 19.976C31.4384 19.92 31.1491 19.85 30.8598 19.766C30.5798 19.6727 30.3231 19.5467 30.0898 19.388C29.8658 19.2293 29.6791 19.024 29.5298 18.772C29.3898 18.52 29.3198 18.198 29.3198 17.806C29.3198 17.1153 29.5764 16.574 30.0898 16.182C30.6031 15.79 31.3358 15.594 32.2878 15.594C32.8291 15.594 33.2958 15.65 33.6878 15.762C34.0891 15.874 34.3831 15.9907 34.5698 16.112V17.4C34.3458 17.2507 34.0564 17.12 33.7018 17.008C33.3471 16.896 32.8991 16.84 32.3578 16.84C31.8258 16.84 31.4384 16.91 31.1958 17.05C30.9531 17.19 30.8318 17.4093 30.8318 17.708C30.8318 17.876 30.8738 18.0113 30.9578 18.114C31.0511 18.2073 31.1678 18.282 31.3078 18.338C31.4571 18.394 31.6251 18.4407 31.8118 18.478C32.0078 18.506 32.2084 18.5387 32.4138 18.576C32.7031 18.632 32.9971 18.702 33.2958 18.786C33.6038 18.8607 33.8791 18.982 34.1218 19.15C34.3738 19.3087 34.5791 19.5233 34.7378 19.794C34.8964 20.0647 34.9758 20.4147 34.9758 20.844C34.9758 21.2827 34.8918 21.6513 34.7238 21.95C34.5558 22.2393 34.3318 22.4727 34.0518 22.65C33.7718 22.8273 33.4544 22.9533 33.0998 23.028C32.7451 23.1027 32.3858 23.14 32.0218 23.14ZM43.3092 22.776C43.1412 22.8787 42.9312 22.9627 42.6792 23.028C42.4272 23.1027 42.1378 23.14 41.8112 23.14C41.4192 23.14 41.0878 23.0887 40.8172 22.986C40.5558 22.874 40.3412 22.7247 40.1732 22.538C40.0052 22.3513 39.8838 22.1367 39.8092 21.894C39.7345 21.642 39.6972 21.376 39.6972 21.096V17.05H38.8292V15.734H39.6972V14.208H41.3212V15.734H43.4072V17.05H41.3212V20.914C41.3212 21.2127 41.3912 21.432 41.5312 21.572C41.6805 21.712 41.9232 21.782 42.2592 21.782C42.4832 21.782 42.6792 21.7493 42.8472 21.684C43.0152 21.6187 43.1692 21.53 43.3092 21.418V22.776ZM47.8989 23.14C47.3855 23.14 46.9095 23.056 46.4709 22.888C46.0322 22.72 45.6495 22.4773 45.3229 22.16C45.0055 21.8333 44.7535 21.4367 44.5669 20.97C44.3895 20.5033 44.3009 19.9667 44.3009 19.36C44.3009 18.7533 44.3895 18.2167 44.5669 17.75C44.7535 17.2833 45.0055 16.8913 45.3229 16.574C45.6495 16.2473 46.0322 16.0047 46.4709 15.846C46.9095 15.678 47.3855 15.594 47.8989 15.594C48.4122 15.594 48.8882 15.678 49.3269 15.846C49.7655 16.0047 50.1482 16.2473 50.4749 16.574C50.8015 16.8913 51.0582 17.2833 51.2449 17.75C51.4315 18.2167 51.5249 18.7533 51.5249 19.36C51.5249 19.9667 51.4315 20.5033 51.2449 20.97C51.0582 21.4367 50.8015 21.8333 50.4749 22.16C50.1482 22.4773 49.7655 22.72 49.3269 22.888C48.8882 23.056 48.4122 23.14 47.8989 23.14ZM47.8989 21.782C48.4589 21.782 48.9209 21.586 49.2849 21.194C49.6582 20.802 49.8449 20.1907 49.8449 19.36C49.8449 18.5387 49.6582 17.932 49.2849 17.54C48.9209 17.1387 48.4589 16.938 47.8989 16.938C47.3482 16.938 46.8862 17.1387 46.5129 17.54C46.1489 17.932 45.9669 18.5387 45.9669 19.36C45.9669 20.1907 46.1489 20.802 46.5129 21.194C46.8862 21.586 47.3482 21.782 47.8989 21.782ZM56.0336 23.14C55.5203 23.14 55.0443 23.056 54.6056 22.888C54.167 22.72 53.7843 22.4773 53.4576 22.16C53.1403 21.8333 52.8883 21.4367 52.7016 20.97C52.5243 20.5033 52.4356 19.9667 52.4356 19.36C52.4356 18.7533 52.5243 18.2167 52.7016 17.75C52.8883 17.2833 53.1403 16.8913 53.4576 16.574C53.7843 16.2473 54.167 16.0047 54.6056 15.846C55.0443 15.678 55.5203 15.594 56.0336 15.594C56.547 15.594 57.023 15.678 57.4616 15.846C57.9003 16.0047 58.283 16.2473 58.6096 16.574C58.9363 16.8913 59.193 17.2833 59.3796 17.75C59.5663 18.2167 59.6596 18.7533 59.6596 19.36C59.6596 19.9667 59.5663 20.5033 59.3796 20.97C59.193 21.4367 58.9363 21.8333 58.6096 22.16C58.283 22.4773 57.9003 22.72 57.4616 22.888C57.023 23.056 56.547 23.14 56.0336 23.14ZM56.0336 21.782C56.5936 21.782 57.0556 21.586 57.4196 21.194C57.793 20.802 57.9796 20.1907 57.9796 19.36C57.9796 18.5387 57.793 17.932 57.4196 17.54C57.0556 17.1387 56.5936 16.938 56.0336 16.938C55.483 16.938 55.021 17.1387 54.6476 17.54C54.2836 17.932 54.1016 18.5387 54.1016 19.36C54.1016 20.1907 54.2836 20.802 54.6476 21.194C55.021 21.586 55.483 21.782 56.0336 21.782ZM67.4406 23.14C66.8526 23.14 66.3252 23.056 65.8586 22.888C65.3919 22.7107 64.9952 22.4633 64.6686 22.146C64.3419 21.8193 64.0899 21.4227 63.9126 20.956C63.7352 20.4893 63.6466 19.9573 63.6466 19.36C63.6466 18.772 63.7352 18.2447 63.9126 17.778C64.0899 17.3113 64.3419 16.9193 64.6686 16.602C64.9952 16.2753 65.3966 16.028 65.8726 15.86C66.3486 15.6827 66.8806 15.594 67.4686 15.594C67.9726 15.594 68.4112 15.65 68.7846 15.762C69.1672 15.874 69.4706 16.014 69.6946 16.182V17.526C69.4052 17.3393 69.0879 17.1947 68.7426 17.092C68.4066 16.9893 68.0146 16.938 67.5666 16.938C66.0639 16.938 65.3126 17.7453 65.3126 19.36C65.3126 20.9747 66.0499 21.782 67.5246 21.782C68.0006 21.782 68.4066 21.7307 68.7426 21.628C69.0879 21.516 69.4052 21.376 69.6946 21.208V22.552C69.4519 22.7107 69.1486 22.8507 68.7846 22.972C68.4206 23.084 67.9726 23.14 67.4406 23.14ZM74.2446 23.14C73.7312 23.14 73.2552 23.056 72.8166 22.888C72.3779 22.72 71.9952 22.4773 71.6686 22.16C71.3512 21.8333 71.0992 21.4367 70.9126 20.97C70.7352 20.5033 70.6466 19.9667 70.6466 19.36C70.6466 18.7533 70.7352 18.2167 70.9126 17.75C71.0992 17.2833 71.3512 16.8913 71.6686 16.574C71.9952 16.2473 72.3779 16.0047 72.8166 15.846C73.2552 15.678 73.7312 15.594 74.2446 15.594C74.7579 15.594 75.2339 15.678 75.6726 15.846C76.1112 16.0047 76.4939 16.2473 76.8206 16.574C77.1472 16.8913 77.4039 17.2833 77.5906 17.75C77.7772 18.2167 77.8706 18.7533 77.8706 19.36C77.8706 19.9667 77.7772 20.5033 77.5906 20.97C77.4039 21.4367 77.1472 21.8333 76.8206 22.16C76.4939 22.4773 76.1112 22.72 75.6726 22.888C75.2339 23.056 74.7579 23.14 74.2446 23.14ZM74.2446 21.782C74.8046 21.782 75.2666 21.586 75.6306 21.194C76.0039 20.802 76.1906 20.1907 76.1906 19.36C76.1906 18.5387 76.0039 17.932 75.6306 17.54C75.2666 17.1387 74.8046 16.938 74.2446 16.938C73.6939 16.938 73.2319 17.1387 72.8586 17.54C72.4946 17.932 72.3126 18.5387 72.3126 19.36C72.3126 20.1907 72.4946 20.802 72.8586 21.194C73.2319 21.586 73.6939 21.782 74.2446 21.782ZM80.8533 23H79.2293V15.734H80.7133L80.8253 16.924H80.8533C81.0493 16.5413 81.334 16.224 81.7073 15.972C82.09 15.72 82.5753 15.594 83.1633 15.594C83.6953 15.594 84.148 15.72 84.5213 15.972C84.8947 16.224 85.1467 16.6067 85.2773 17.12C85.4827 16.6533 85.7907 16.2847 86.2013 16.014C86.612 15.734 87.1113 15.594 87.6993 15.594C88.026 15.594 88.3247 15.6407 88.5953 15.734C88.8753 15.8273 89.1133 15.972 89.3093 16.168C89.5053 16.3547 89.6593 16.5927 89.7713 16.882C89.8833 17.1713 89.9393 17.512 89.9393 17.904V23H88.3013V18.128C88.3013 17.708 88.1987 17.4047 87.9933 17.218C87.788 17.0313 87.508 16.938 87.1533 16.938C86.724 16.938 86.3693 17.0547 86.0893 17.288C85.8187 17.5213 85.59 17.8013 85.4033 18.128V23H83.7653V18.016C83.7653 17.596 83.6627 17.3113 83.4573 17.162C83.252 17.0127 82.9767 16.938 82.6313 16.938C82.1833 16.938 81.824 17.0407 81.5533 17.246C81.2827 17.442 81.0493 17.6987 80.8533 18.016V23ZM95.6884 23.14C95.1377 23.14 94.6617 23.0187 94.2604 22.776C93.8684 22.524 93.5511 22.188 93.3084 21.768V25.478H91.6844V15.734H93.1684L93.2804 17.022C93.5231 16.5833 93.8451 16.238 94.2464 15.986C94.6477 15.7247 95.1377 15.594 95.7164 15.594C96.1457 15.594 96.5517 15.6733 96.9344 15.832C97.3264 15.9813 97.6671 16.2147 97.9564 16.532C98.2457 16.84 98.4744 17.232 98.6424 17.708C98.8197 18.1747 98.9084 18.7253 98.9084 19.36C98.9084 20.004 98.8197 20.564 98.6424 21.04C98.4744 21.5067 98.2411 21.8987 97.9424 22.216C97.6531 22.524 97.3124 22.7573 96.9204 22.916C96.5284 23.0653 96.1177 23.14 95.6884 23.14ZM95.2964 21.782C95.8751 21.782 96.3417 21.586 96.6964 21.194C97.0604 20.7927 97.2424 20.1813 97.2424 19.36C97.2424 18.548 97.0604 17.9413 96.6964 17.54C96.3417 17.1387 95.8797 16.938 95.3104 16.938C95.0211 16.938 94.7551 16.9893 94.5124 17.092C94.2697 17.1853 94.0551 17.3347 93.8684 17.54C93.6911 17.7453 93.5511 18.002 93.4484 18.31C93.3457 18.6087 93.2944 18.9587 93.2944 19.36C93.2944 19.7707 93.3457 20.13 93.4484 20.438C93.5511 20.7367 93.6911 20.9887 93.8684 21.194C94.0457 21.39 94.2557 21.5393 94.4984 21.642C94.7504 21.7353 95.0164 21.782 95.2964 21.782ZM101.908 12.962V23H100.284V12.962H101.908ZM104.555 14.81C104.257 14.81 104.009 14.712 103.813 14.516C103.627 14.32 103.533 14.0867 103.533 13.816C103.533 13.5453 103.627 13.312 103.813 13.116C104.009 12.92 104.257 12.822 104.555 12.822C104.845 12.822 105.083 12.92 105.269 13.116C105.465 13.312 105.563 13.5453 105.563 13.816C105.563 14.0867 105.465 14.32 105.269 14.516C105.083 14.712 104.845 14.81 104.555 14.81ZM105.367 15.734V23H103.743V15.734H105.367ZM110.534 23.14C109.946 23.14 109.419 23.056 108.952 22.888C108.486 22.7107 108.089 22.4633 107.762 22.146C107.436 21.8193 107.184 21.4227 107.006 20.956C106.829 20.4893 106.74 19.9573 106.74 19.36C106.74 18.772 106.829 18.2447 107.006 17.778C107.184 17.3113 107.436 16.9193 107.762 16.602C108.089 16.2753 108.49 16.028 108.966 15.86C109.442 15.6827 109.974 15.594 110.562 15.594C111.066 15.594 111.505 15.65 111.878 15.762C112.261 15.874 112.564 16.014 112.788 16.182V17.526C112.499 17.3393 112.182 17.1947 111.836 17.092C111.5 16.9893 111.108 16.938 110.66 16.938C109.158 16.938 108.406 17.7453 108.406 19.36C108.406 20.9747 109.144 21.782 110.618 21.782C111.094 21.782 111.5 21.7307 111.836 21.628C112.182 21.516 112.499 21.376 112.788 21.208V22.552C112.546 22.7107 112.242 22.8507 111.878 22.972C111.514 23.084 111.066 23.14 110.534 23.14ZM118.374 21.726C118.3 21.894 118.197 22.062 118.066 22.23C117.945 22.398 117.791 22.552 117.604 22.692C117.427 22.8227 117.212 22.93 116.96 23.014C116.708 23.098 116.414 23.14 116.078 23.14C115.761 23.14 115.467 23.0933 115.196 23C114.926 22.916 114.688 22.7853 114.482 22.608C114.286 22.4307 114.128 22.2113 114.006 21.95C113.894 21.6793 113.838 21.3713 113.838 21.026C113.838 20.2327 114.132 19.64 114.72 19.248C115.308 18.8467 116.139 18.646 117.212 18.646H118.318V18.198C118.318 17.722 118.197 17.3953 117.954 17.218C117.712 17.0313 117.31 16.938 116.75 16.938C116.274 16.938 115.826 17.008 115.406 17.148C114.996 17.2787 114.632 17.4327 114.314 17.61V16.252C114.604 16.0933 114.986 15.944 115.462 15.804C115.938 15.664 116.456 15.594 117.016 15.594C117.95 15.594 118.668 15.79 119.172 16.182C119.686 16.5647 119.942 17.1807 119.942 18.03V21.824C119.942 21.908 119.942 22.006 119.942 22.118C119.952 22.2207 119.956 22.328 119.956 22.44C119.966 22.552 119.975 22.6593 119.984 22.762C119.994 22.8553 120.003 22.9347 120.012 23H118.514C118.486 22.8693 118.458 22.6873 118.43 22.454C118.412 22.2207 118.398 22.0107 118.388 21.824L118.374 21.726ZM116.526 21.88C116.872 21.88 117.156 21.81 117.38 21.67C117.614 21.5207 117.8 21.3527 117.94 21.166C118.08 20.97 118.178 20.7787 118.234 20.592C118.29 20.4053 118.318 20.2747 118.318 20.2V19.71H117.31C116.666 19.71 116.195 19.8127 115.896 20.018C115.598 20.214 115.448 20.494 115.448 20.858C115.448 21.1753 115.537 21.4273 115.714 21.614C115.901 21.7913 116.172 21.88 116.526 21.88ZM125.6 22.776C125.432 22.8787 125.222 22.9627 124.97 23.028C124.718 23.1027 124.429 23.14 124.102 23.14C123.71 23.14 123.379 23.0887 123.108 22.986C122.847 22.874 122.632 22.7247 122.464 22.538C122.296 22.3513 122.175 22.1367 122.1 21.894C122.026 21.642 121.988 21.376 121.988 21.096V17.05H121.12V15.734H121.988V14.208H123.612V15.734H125.698V17.05H123.612V20.914C123.612 21.2127 123.682 21.432 123.822 21.572C123.972 21.712 124.214 21.782 124.55 21.782C124.774 21.782 124.97 21.7493 125.138 21.684C125.306 21.6187 125.46 21.53 125.6 21.418V22.776ZM133.116 22.468C133.013 22.5333 132.887 22.608 132.738 22.692C132.589 22.7667 132.411 22.8367 132.206 22.902C132.001 22.9673 131.763 23.0233 131.492 23.07C131.221 23.1167 130.913 23.14 130.568 23.14C129.233 23.14 128.235 22.8087 127.572 22.146C126.919 21.4833 126.592 20.5547 126.592 19.36C126.592 18.772 126.681 18.2447 126.858 17.778C127.035 17.3113 127.283 16.9193 127.6 16.602C127.917 16.2753 128.295 16.028 128.734 15.86C129.173 15.6827 129.653 15.594 130.176 15.594C130.717 15.594 131.203 15.6827 131.632 15.86C132.071 16.0373 132.43 16.3033 132.71 16.658C132.99 17.0127 133.181 17.4513 133.284 17.974C133.396 18.4967 133.401 19.108 133.298 19.808H128.272C128.337 20.4707 128.557 20.97 128.93 21.306C129.303 21.6327 129.887 21.796 130.68 21.796C131.259 21.796 131.739 21.726 132.122 21.586C132.514 21.4367 132.845 21.2827 133.116 21.124V22.468ZM130.176 16.882C129.7 16.882 129.299 17.0267 128.972 17.316C128.645 17.6053 128.431 18.0347 128.328 18.604H131.744C131.763 18.016 131.632 17.582 131.352 17.302C131.072 17.022 130.68 16.882 130.176 16.882ZM139.945 21.642C139.712 22.0993 139.399 22.4633 139.007 22.734C138.615 23.0047 138.125 23.14 137.537 23.14C137.108 23.14 136.697 23.0653 136.305 22.916C135.913 22.7573 135.568 22.524 135.269 22.216C134.97 21.8987 134.732 21.5067 134.555 21.04C134.378 20.564 134.289 20.004 134.289 19.36C134.289 18.7253 134.378 18.1747 134.555 17.708C134.732 17.232 134.97 16.84 135.269 16.532C135.577 16.2147 135.927 15.9813 136.319 15.832C136.711 15.6733 137.122 15.594 137.551 15.594C138.092 15.594 138.554 15.7013 138.937 15.916C139.329 16.1307 139.646 16.434 139.889 16.826V12.962H141.499V23H140.029L139.945 21.642ZM137.915 21.782C138.195 21.782 138.452 21.7353 138.685 21.642C138.928 21.5393 139.138 21.39 139.315 21.194C139.502 20.9887 139.646 20.7367 139.749 20.438C139.852 20.13 139.903 19.7707 139.903 19.36C139.903 18.9493 139.852 18.5947 139.749 18.296C139.646 17.988 139.506 17.736 139.329 17.54C139.152 17.3347 138.942 17.1853 138.699 17.092C138.456 16.9893 138.195 16.938 137.915 16.938C137.346 16.938 136.874 17.1433 136.501 17.554C136.137 17.9647 135.955 18.5667 135.955 19.36C135.955 20.172 136.137 20.7787 136.501 21.18C136.865 21.5813 137.336 21.782 137.915 21.782ZM150.599 21.726C150.524 21.894 150.422 22.062 150.291 22.23C150.17 22.398 150.016 22.552 149.829 22.692C149.652 22.8227 149.437 22.93 149.185 23.014C148.933 23.098 148.639 23.14 148.303 23.14C147.986 23.14 147.692 23.0933 147.421 23C147.15 22.916 146.912 22.7853 146.707 22.608C146.511 22.4307 146.352 22.2113 146.231 21.95C146.119 21.6793 146.063 21.3713 146.063 21.026C146.063 20.2327 146.357 19.64 146.945 19.248C147.533 18.8467 148.364 18.646 149.437 18.646H150.543V18.198C150.543 17.722 150.422 17.3953 150.179 17.218C149.936 17.0313 149.535 16.938 148.975 16.938C148.499 16.938 148.051 17.008 147.631 17.148C147.22 17.2787 146.856 17.4327 146.539 17.61V16.252C146.828 16.0933 147.211 15.944 147.687 15.804C148.163 15.664 148.681 15.594 149.241 15.594C150.174 15.594 150.893 15.79 151.397 16.182C151.91 16.5647 152.167 17.1807 152.167 18.03V21.824C152.167 21.908 152.167 22.006 152.167 22.118C152.176 22.2207 152.181 22.328 152.181 22.44C152.19 22.552 152.2 22.6593 152.209 22.762C152.218 22.8553 152.228 22.9347 152.237 23H150.739C150.711 22.8693 150.683 22.6873 150.655 22.454C150.636 22.2207 150.622 22.0107 150.613 21.824L150.599 21.726ZM148.751 21.88C149.096 21.88 149.381 21.81 149.605 21.67C149.838 21.5207 150.025 21.3527 150.165 21.166C150.305 20.97 150.403 20.7787 150.459 20.592C150.515 20.4053 150.543 20.2747 150.543 20.2V19.71H149.535C148.891 19.71 148.42 19.8127 148.121 20.018C147.822 20.214 147.673 20.494 147.673 20.858C147.673 21.1753 147.762 21.4273 147.939 21.614C148.126 21.7913 148.396 21.88 148.751 21.88ZM157.475 16.938C156.999 16.938 156.607 17.0407 156.299 17.246C155.991 17.442 155.739 17.6987 155.543 18.016V23H153.919V15.734H155.459L155.515 16.924H155.543C155.739 16.5413 156.033 16.224 156.425 15.972C156.826 15.72 157.335 15.594 157.951 15.594C158.66 15.594 159.239 15.7853 159.687 16.168C160.144 16.5507 160.373 17.134 160.373 17.918V23H158.735V18.086C158.735 17.666 158.623 17.372 158.399 17.204C158.175 17.0267 157.867 16.938 157.475 16.938ZM167.316 21.642C167.083 22.0993 166.77 22.4633 166.378 22.734C165.986 23.0047 165.496 23.14 164.908 23.14C164.479 23.14 164.068 23.0653 163.676 22.916C163.284 22.7573 162.939 22.524 162.64 22.216C162.342 21.8987 162.104 21.5067 161.926 21.04C161.749 20.564 161.66 20.004 161.66 19.36C161.66 18.7253 161.749 18.1747 161.926 17.708C162.104 17.232 162.342 16.84 162.64 16.532C162.948 16.2147 163.298 15.9813 163.69 15.832C164.082 15.6733 164.493 15.594 164.922 15.594C165.464 15.594 165.926 15.7013 166.308 15.916C166.7 16.1307 167.018 16.434 167.26 16.826V12.962H168.87V23H167.4L167.316 21.642ZM165.286 21.782C165.566 21.782 165.823 21.7353 166.056 21.642C166.299 21.5393 166.509 21.39 166.686 21.194C166.873 20.9887 167.018 20.7367 167.12 20.438C167.223 20.13 167.274 19.7707 167.274 19.36C167.274 18.9493 167.223 18.5947 167.12 18.296C167.018 17.988 166.878 17.736 166.7 17.54C166.523 17.3347 166.313 17.1853 166.07 17.092C165.828 16.9893 165.566 16.938 165.286 16.938C164.717 16.938 164.246 17.1433 163.872 17.554C163.508 17.9647 163.326 18.5667 163.326 19.36C163.326 20.172 163.508 20.7787 163.872 21.18C164.236 21.5813 164.708 21.782 165.286 21.782ZM175.646 12.962V23H173.952V12.962H175.646ZM184.258 16.938C183.782 16.938 183.39 17.0407 183.082 17.246C182.774 17.442 182.522 17.6987 182.326 18.016V23H180.702V15.734H182.242L182.298 16.924H182.326C182.522 16.5413 182.816 16.224 183.208 15.972C183.609 15.72 184.118 15.594 184.734 15.594C185.443 15.594 186.022 15.7853 186.47 16.168C186.927 16.5507 187.156 17.134 187.156 17.918V23H185.518V18.086C185.518 17.666 185.406 17.372 185.182 17.204C184.958 17.0267 184.65 16.938 184.258 16.938ZM194.967 22.468C194.865 22.5333 194.739 22.608 194.589 22.692C194.44 22.7667 194.263 22.8367 194.057 22.902C193.852 22.9673 193.614 23.0233 193.343 23.07C193.073 23.1167 192.765 23.14 192.419 23.14C191.085 23.14 190.086 22.8087 189.423 22.146C188.77 21.4833 188.443 20.5547 188.443 19.36C188.443 18.772 188.532 18.2447 188.709 17.778C188.887 17.3113 189.134 16.9193 189.451 16.602C189.769 16.2753 190.147 16.028 190.585 15.86C191.024 15.6827 191.505 15.594 192.027 15.594C192.569 15.594 193.054 15.6827 193.483 15.86C193.922 16.0373 194.281 16.3033 194.561 16.658C194.841 17.0127 195.033 17.4513 195.135 17.974C195.247 18.4967 195.252 19.108 195.149 19.808H190.123C190.189 20.4707 190.408 20.97 190.781 21.306C191.155 21.6327 191.738 21.796 192.531 21.796C193.11 21.796 193.591 21.726 193.973 21.586C194.365 21.4367 194.697 21.2827 194.967 21.124V22.468ZM192.027 16.882C191.551 16.882 191.15 17.0267 190.823 17.316C190.497 17.6053 190.282 18.0347 190.179 18.604H193.595C193.614 18.016 193.483 17.582 193.203 17.302C192.923 17.022 192.531 16.882 192.027 16.882ZM202.665 22.468C202.562 22.5333 202.436 22.608 202.287 22.692C202.137 22.7667 201.96 22.8367 201.755 22.902C201.549 22.9673 201.311 23.0233 201.041 23.07C200.77 23.1167 200.462 23.14 200.117 23.14C198.782 23.14 197.783 22.8087 197.121 22.146C196.467 21.4833 196.141 20.5547 196.141 19.36C196.141 18.772 196.229 18.2447 196.407 17.778C196.584 17.3113 196.831 16.9193 197.149 16.602C197.466 16.2753 197.844 16.028 198.283 15.86C198.721 15.6827 199.202 15.594 199.725 15.594C200.266 15.594 200.751 15.6827 201.181 15.86C201.619 16.0373 201.979 16.3033 202.259 16.658C202.539 17.0127 202.73 17.4513 202.833 17.974C202.945 18.4967 202.949 19.108 202.847 19.808H197.821C197.886 20.4707 198.105 20.97 198.479 21.306C198.852 21.6327 199.435 21.796 200.229 21.796C200.807 21.796 201.288 21.726 201.671 21.586C202.063 21.4367 202.394 21.2827 202.665 21.124V22.468ZM199.725 16.882C199.249 16.882 198.847 17.0267 198.521 17.316C198.194 17.6053 197.979 18.0347 197.877 18.604H201.293C201.311 18.016 201.181 17.582 200.901 17.302C200.621 17.022 200.229 16.882 199.725 16.882ZM209.494 21.642C209.261 22.0993 208.948 22.4633 208.556 22.734C208.164 23.0047 207.674 23.14 207.086 23.14C206.657 23.14 206.246 23.0653 205.854 22.916C205.462 22.7573 205.117 22.524 204.818 22.216C204.519 21.8987 204.281 21.5067 204.104 21.04C203.927 20.564 203.838 20.004 203.838 19.36C203.838 18.7253 203.927 18.1747 204.104 17.708C204.281 17.232 204.519 16.84 204.818 16.532C205.126 16.2147 205.476 15.9813 205.868 15.832C206.26 15.6733 206.671 15.594 207.1 15.594C207.641 15.594 208.103 15.7013 208.486 15.916C208.878 16.1307 209.195 16.434 209.438 16.826V12.962H211.048V23H209.578L209.494 21.642ZM207.464 21.782C207.744 21.782 208.001 21.7353 208.234 21.642C208.477 21.5393 208.687 21.39 208.864 21.194C209.051 20.9887 209.195 20.7367 209.298 20.438C209.401 20.13 209.452 19.7707 209.452 19.36C209.452 18.9493 209.401 18.5947 209.298 18.296C209.195 17.988 209.055 17.736 208.878 17.54C208.701 17.3347 208.491 17.1853 208.248 17.092C208.005 16.9893 207.744 16.938 207.464 16.938C206.895 16.938 206.423 17.1433 206.05 17.554C205.686 17.9647 205.504 18.5667 205.504 19.36C205.504 20.172 205.686 20.7787 206.05 21.18C206.414 21.5813 206.885 21.782 207.464 21.782ZM219.518 16.938C219.042 16.938 218.65 17.0407 218.342 17.246C218.034 17.442 217.782 17.6987 217.586 18.016V23H215.962V12.962H217.586V15.65L217.572 16.924H217.586C217.791 16.5507 218.09 16.238 218.482 15.986C218.874 15.7247 219.378 15.594 219.994 15.594C220.703 15.594 221.282 15.7853 221.73 16.168C222.187 16.5507 222.416 17.134 222.416 17.918V23H220.778V18.086C220.778 17.666 220.666 17.372 220.442 17.204C220.218 17.0267 219.91 16.938 219.518 16.938ZM230.227 22.468C230.125 22.5333 229.999 22.608 229.849 22.692C229.7 22.7667 229.523 22.8367 229.317 22.902C229.112 22.9673 228.874 23.0233 228.603 23.07C228.333 23.1167 228.025 23.14 227.679 23.14C226.345 23.14 225.346 22.8087 224.683 22.146C224.03 21.4833 223.703 20.5547 223.703 19.36C223.703 18.772 223.792 18.2447 223.969 17.778C224.147 17.3113 224.394 16.9193 224.711 16.602C225.029 16.2753 225.407 16.028 225.845 15.86C226.284 15.6827 226.765 15.594 227.287 15.594C227.829 15.594 228.314 15.6827 228.743 15.86C229.182 16.0373 229.541 16.3033 229.821 16.658C230.101 17.0127 230.293 17.4513 230.395 17.974C230.507 18.4967 230.512 19.108 230.409 19.808H225.383C225.449 20.4707 225.668 20.97 226.041 21.306C226.415 21.6327 226.998 21.796 227.791 21.796C228.37 21.796 228.851 21.726 229.233 21.586C229.625 21.4367 229.957 21.2827 230.227 21.124V22.468ZM227.287 16.882C226.811 16.882 226.41 17.0267 226.083 17.316C225.757 17.6053 225.542 18.0347 225.439 18.604H228.855C228.874 18.016 228.743 17.582 228.463 17.302C228.183 17.022 227.791 16.882 227.287 16.882ZM233.472 12.962V23H231.848V12.962H233.472ZM239.298 23.14C238.747 23.14 238.271 23.0187 237.87 22.776C237.478 22.524 237.16 22.188 236.918 21.768V25.478H235.294V15.734H236.778L236.89 17.022C237.132 16.5833 237.454 16.238 237.856 15.986C238.257 15.7247 238.747 15.594 239.326 15.594C239.755 15.594 240.161 15.6733 240.544 15.832C240.936 15.9813 241.276 16.2147 241.566 16.532C241.855 16.84 242.084 17.232 242.252 17.708C242.429 18.1747 242.518 18.7253 242.518 19.36C242.518 20.004 242.429 20.564 242.252 21.04C242.084 21.5067 241.85 21.8987 241.552 22.216C241.262 22.524 240.922 22.7573 240.53 22.916C240.138 23.0653 239.727 23.14 239.298 23.14ZM238.906 21.782C239.484 21.782 239.951 21.586 240.306 21.194C240.67 20.7927 240.852 20.1813 240.852 19.36C240.852 18.548 240.67 17.9413 240.306 17.54C239.951 17.1387 239.489 16.938 238.92 16.938C238.63 16.938 238.364 16.9893 238.122 17.092C237.879 17.1853 237.664 17.3347 237.478 17.54C237.3 17.7453 237.16 18.002 237.058 18.31C236.955 18.6087 236.904 18.9587 236.904 19.36C236.904 19.7707 236.955 20.13 237.058 20.438C237.16 20.7367 237.3 20.9887 237.478 21.194C237.655 21.39 237.865 21.5393 238.108 21.642C238.36 21.7353 238.626 21.782 238.906 21.782Z" fill="white"/>
</svg>
